<?xml version="1.0" encoding="UTF-8"?>
<svg id="Layer_2" data-name="Layer 2" xmlns="http://www.w3.org/2000/svg" version="1.1" viewBox="0 0 625.1 802.7">
  <defs>
    <style>
      .cls-1, .cls-2 {
        fill: #fffdee;
      }

      .cls-1, .cls-2, .cls-3 {
        stroke-width: 0px;
      }

      .cls-2 {
        fill-rule: evenodd;
      }

      .cls-4 {
        isolation: isolate;
      }

      .cls-3 {
        fill: #001de9;
      }
    </style>
  </defs>
  <g id="set">
    <g>
      <g class="cls-4">
        <path class="cls-3" d="M625,401.3c0,11.3,0,22.5,0,33.8,0,13.3,0,26.5,0,39.8,0,8.2.2,16.5,0,24.7-.3,8.2-1,16.4-1.8,24.6-.9,9.7-2.5,19.3-4.5,28.9-2.3,10.9-5,21.6-8.4,32.2-3.8,11.9-8.3,23.5-13.5,34.8-5.7,12.4-12.2,24.5-19.4,36-9,14.4-19.1,28-30.4,40.6-6,6.7-12.1,13.2-18.6,19.4-15.6,15-32.6,28.2-51,39.6-18.2,11.3-37.3,20.7-57.4,28-15,5.5-30.4,9.8-46.1,12.9-10.1,2-20.3,3.6-30.5,4.5-7.7.7-15.4,1-23.1,1.3-3.6.2-7.2.3-10.8.2-14-.3-27.9-1.2-41.7-3.2-12-1.7-23.9-4.1-35.7-7.2-16.3-4.3-32.2-10-47.6-16.9-8.9-4-17.6-8.4-26.1-13.2-9.2-5.2-18-10.9-26.7-17-11.3-7.9-21.9-16.6-32-25.9-8.1-7.5-15.8-15.4-23-23.7-10.7-12.4-20.5-25.5-29.2-39.4-6.2-9.9-11.8-20.1-16.9-30.6-5.8-12-10.9-24.3-14.9-37.1-2.9-9.2-5.6-18.5-7.9-27.9-2.5-10.3-4.4-20.8-5.5-31.3-.7-6.8-1.6-13.6-1.9-20.5-.4-8.9-.5-17.9-.5-26.8,0-33.8,0-67.6,0-101.5,0-25.3-.1-50.7,0-76,0-7.2.7-14.4,1.4-21.5.9-8.3,1.9-16.7,3.4-24.9,1.5-8.3,3.3-16.6,5.3-24.8,2.8-11.6,6.6-22.9,10.9-33.9,3.5-9,7.5-17.8,11.8-26.5,4.8-9.5,10-18.7,15.7-27.7,5.6-8.8,11.6-17.4,18.2-25.5,5.2-6.4,10.4-12.7,16-18.8,5.1-5.5,10.5-10.7,15.9-16,8.1-8,16.9-15.1,25.9-22,10.8-8.2,22.2-15.6,34-22.3,15.2-8.7,31.1-16,47.6-22,15-5.5,30.4-9.7,46.1-12.7,10.3-2,20.7-3.6,31.2-4.5,6.4-.5,12.7-.8,19.1-1.1,5.4-.2,10.8-.4,16.2-.3,5.7.1,11.5.5,17.2.9,5.1.4,10.2.8,15.2,1.4,6,.8,12,1.7,18,2.8,7,1.3,13.9,2.7,20.8,4.5,11.9,3.1,23.6,6.8,35.1,11.2,12.4,4.8,24.5,10.4,36.3,16.7,12.6,6.8,24.7,14.5,36.2,23,7.8,5.7,15.2,11.8,22.5,18.2,6.7,5.9,13.1,12.2,19.3,18.6,9.4,9.9,18.1,20.4,26.2,31.5,6.1,8.4,11.8,17.1,17,26,5.7,9.6,10.7,19.6,15.3,29.8,4.4,9.7,8.2,19.6,11.6,29.7,3.5,10.5,6.5,21.2,8.7,32.1,1.8,8.9,3.1,17.9,4.5,26.9,1.3,8.7,2,17.4,2.2,26.2.2,11.4.2,22.9.2,34.3,0,16.3,0,32.6,0,48.9,0,6.2,0,12.3,0,18.5h0Z"/>
      </g>
      <path class="cls-1" d="M313.4,758.7c-71.8,0-139.3-28-190.1-78.7-50.8-50.8-78.7-118.3-78.7-190v-177.2c0-71.8,28-139.3,78.7-190.1,50.8-50.8,118.3-78.7,190.1-78.7s139.3,28,190,78.7c50.8,50.8,78.7,118.3,78.7,190.1v177.2c0,71.8-28,139.3-78.7,190-50.8,50.8-118.3,78.7-190,78.7h0ZM313.4,56c-68.6,0-133.1,26.7-181.6,75.2s-75.2,113-75.2,181.6v177.2c0,68.6,26.7,133.1,75.2,181.6s113,75.2,181.6,75.2,133.1-26.7,181.6-75.2,75.2-113,75.2-181.6v-177.2c0-68.6-26.7-133.1-75.2-181.6s-113-75.2-181.6-75.2h0Z"/>
      <g>
        <path class="cls-1" d="M136.9,507.4c-1.3,4.9-.4,8.7-.6,13.7,1.4,5.6-2.4,8.6-7.8,7.3-5.3-.5-12.9,2.5-16.6-1.7-1.4-2.4-.1-6.2-.3-9-.9-1.4-.4-2.8-.4-4.6-.5-1.7.1-2.8.2-4.3-.9-1-.7-2.1,0-3,.2-2-.9-4.3.4-6.4-1.3-4.2-.2-9.5-.8-13.7-1-3.9,1.5-7.6-.1-11.4-.5-1.4,1.8-2.8.6-4.1-1.6-3.4,2.4-8.5-2.1-11-3.7-3.1-12.9,1.1-12-6.2,1-1.4-.2-2.4-.3-3.8.3-.7.4-1.2-.2-1.8-.2-1.1,1.4-1.8.3-2.9-.9-1.4.3-2.5,0-3.9-1-5.8,7.1-5,10.6-4.4,1.1.5,2.3-.7,3.4-.6.6,0,.8,1.2,1.7.7,5.9-.6,12-.2,18.3-.9,4.1,1.4,9.5-.4,14.1.9,3.9-1.4,6.1,4.2,5.4,7.2-.1,3.1.2,6.3,0,9.4,1.5,9.2-13.3,1.4-14.9,9.3,1.2,6.1.2,12.5.3,18.8.6,8.8-.4,17.6.8,26.6h0ZM127.9,462.8c-.4.3-.5.6,0,.8.5-.1.4-.4,0-.8ZM141.8,444.5c-.1-.6-1.6-.5-1.9-.1,0,1.1,1.6.9,1.9.1Z"/>
        <path class="cls-1" d="M194.4,441.9c2.1,8.4,3.9,18.9,5.9,28.1,2,3.5,1.2,9,3.5,13,.4,3.3,1,6.6,1.4,9.7.8.7.4,1.4.3,2.2.1.8,1.5,1.4.5,2.5,2,5.8,3.3,11.3,3.5,16.8,1.1,3.2,5.5,13.2.6,13.9-3.4,1.2-7.7.6-11.5.4-2.2,1.7-4.4-.5-6.5.4-6.8,1.1-4.7-7.4-7.6-10.5-1.4.2-2-1.5-3.3-1.4-1.2.3-2.6.7-3.8,0-1.6-.4-3.3,1-5-.5-10.9,4,.7,15-17.9,12.2-2.6-.9-5.6.5-8.1,0-1-1.6-2.7.5-3.5-.4-.4-1-2.8-1.1-1.9-2.5,2.4-8,3.3-16.8,6-24.1-.9-1.3.5-2.1.3-3.2-.9-1.3,1.1-1.3.9-2.7-.2-3.5,1.4-6.9,2.1-10.4,2.3-1.9.3-5.1,2.2-7.2,1.1-1.2-.7-3.4,1.2-4.2,1-1.8,0-4.4,1.1-6.3,2-6.3,2.1-13,4.7-19,1.2-4.5,1.3-11.2,6.6-12.8,6.2-.6,12.5-.5,19,0,2-.4,3.5.6,5.3,0,1.7-.3,1.4,1,2.1,2,2,.6,1.8,2.3,1.7,3.9h0ZM151.3,513.3c-.7-1.2-1.4-.4-2,.4,0,1.1,2.1,1.2,2-.4ZM155.7,500.6c-.3-.1-.6-.2-.9-.3,0,.2-.1.3-.2.5.4,0,.9.5,1.1-.2ZM156.8,497c-.8.8-1,1.7.2,1.9.7-.5.3-1.1-.2-1.9ZM162.5,483.7c-.3-.3-.5-.5-.7-.7-.2.2-.4.3-.5.5.5.3.7.8,1.2.2ZM167.7,504.2c1.4.2,3.1-.2,2.6-1.6-1.7-1-.2-3.9-2.4-4.4-2.1.9.4,3.2-1.6,4.4-1,.9.4,1.9,1.3,1.7h0ZM173.1,507.4c-.4-1.4-1.9-.4-2.1.5.5.8,1.8.3,2.1-.5ZM172.9,502.2c-2.6-.3-.7,1.8.7,1.7,1.8-.3.1-1.6-.7-1.7ZM177.6,461.9c.5-2.2-1.6-1.1,0,0-2.1,6.6-2.2,13.6-3.2,20.6-1.3,6.7-5.5,18.2,5.8,13.6,2.7-4.1.5-8.6.1-12.9-1.6-6.9-.9-14.9-2.6-21.3h0ZM187.7,500.3c.2-.3.4-.5.5-.6-.4-.4-.7-.4-1.1,0,.2.2.3.3.6.5ZM192.4,514c.3-2-2.7-2.4-3.6-1-.6,1.1,3.8,3.1,3.6,1ZM190.1,493.8c.2.3.4.6.6.9.2-.3.5-.5.8-.8-.3-.2-.6-.5-.8-.7-.1.2-.3.3-.5.6h0ZM192.1,504.7c3,0-.8-3.2-1-.8,0,.8.4.9,1,.8ZM194,500.7c-.6,2.4,3,2.7,2.4.3-.2-1.7-2.5-2.4-2.4-.3Z"/>
        <path class="cls-1" d="M245.8,506.7c9.5.2,11.5-3,12.5,8.3-1,3.3,1.8,13.6-3.3,13.1-4.4,1.9-9.5-.6-14,1.1-5.7-.2-12.4-1.2-18-.2-11.9,1.1-8.2-4.9-8.9-13.7-.8-14.8.5-39.6,0-55.3-.9-6,0-13.2,0-19.9-1.1-2.3,3.7-5.5,5.1-3.9,3.4,0,6.5-1,9.9.1,12-4.2,10.7,6.7,9.6,14.8.4,8.1,1,16.2.6,24.4,0,2.3-.7,4.8-.1,6.8.4.8,1,1.7,0,2.6.6,3.1-.6,6.4.4,9.3-.2,6.2-2.6,12.7,6.5,12.4h0ZM226.7,460.8c0-.9-.2-1-.9-1-3,.3.5,4.4.9,1ZM230.8,449.2c.1-.7-1.6-1.3-1.9-.5-.2.7,1.6,1.3,1.9.5ZM230.6,520.7c-1.9,0-.2,1.7.5.3-.2,0-.4-.2-.5-.3ZM231.3,505.3c-1.3.8-1.2,3.7-.2,3.8,2.2-.7,2.8-3.1.2-3.8ZM230.8,466.7c.5-.7,1.3-1.1.3-1.5-.9,0-.6.8-.3,1.5ZM233.9,461.8c-.4-.4-.6-.7-.9-1-.3.3-.6.6-.9.9.7.6,1,.9,1.7.1h0ZM234.4,517.6c-.9.7-1.6,1.6,0,1.9,1.4,0,1-1.1,0-1.9Z"/>
        <path class="cls-1" d="M284.6,444.2c-1.2,2.9.4,5.8-.4,8.6-1.4,1.6.5,3.5-.9,5,.1.7,1.1,1.1.5,2-.2,2.2,0,4.6.2,6.9,0,2.1-1.1,5.1.7,6.5,2-6,3.6-12.8,6.7-18.3-.7-2,1.1-3.6,2.1-5-.5-1.7.9-2.8,1.3-4.3.9-5.2,5.5-11.3,11.4-9.6,5.3.7,10.8-2,15.6.4,6.1-.6-7.8,18.7-6.5,21.7-2.3,4.1-4.4,7.8-6.1,12.1,1,3.1-3.5,5.4-2.6,7.5,0,1.7-1.1,3.6-.6,5.1.5.8,1.3,1.6.8,2.8,2.2,2.8,2.9,6.8,5,10,.3,3.5,4.7,5.8,3.7,9.2,2.4,4.4,5.3,9,6.6,14,2.5,1.7,3.6,5.5,3.7,8.3,0,3.5-8.6.7-11.5,1.6-10.2.8-15.8,1.1-18-10.7-1.4-.1-.9-1.2-1.1-2-.5-2-2.3-3.4-1.8-5.5-1.9-1-.8-2.9-1.7-4.3-2.7-5.5-4.1-11.7-7.4-17-2.2,13.1,1.1,24.9-.8,38.3-1.8,2.2-3.9.2-5.9,1.7-1,.2-1.9-.7-2.9.2-4-1.1-8.3,0-12.7-.4-4.3-3.4-2.6-9-2.4-13.4-1-8.8-.5-17.3-.5-26,1.1-8.2-.7-16.1,0-24-.5-2.7.4-6.1,0-9,1.6-1.7-1.6-3.2,0-4.7.5-1.6-1-3.2,0-5,.8-2.1-.6-3.6,0-5.8-1.3-5.9,7.8-5.4,11.6-5,7.9.1,13.6-2.4,13.8,8.2h0ZM301.8,444c0-.1.1-.2.2-.4-1.1-.6-1.7,1-.2.4ZM303.6,454.5c-1.3.1-1.1,2.1.2,2,1.3-.1,1.1-2.2-.2-2ZM306.4,449.9c.4-1.8-1.9-.8-2,0,.4,1.4,2,1.7,2,0ZM311.3,442.5c-.8.6,0,.8.3,1.3.7-.3,0-.8-.3-1.3ZM313.8,447c-.5-.3-1-1-1.3-.3.5.4.7,1.1,1.3.3Z"/>
        <path class="cls-1" d="M399.9,507.4c-1.3,4.9-.4,8.7-.6,13.7,1.4,5.6-2.4,8.6-7.8,7.3-5.3-.5-12.9,2.5-16.6-1.7-1.4-2.4-.1-6.2-.3-9-.9-1.4-.5-2.8-.4-4.6-.5-1.7.1-2.8.2-4.3-.9-1-.7-2.1,0-3,.2-2-.9-4.3.4-6.4-1.3-4.2-.2-9.5-.8-13.7-1-3.9,1.5-7.6-.1-11.4-.5-1.4,1.8-2.8.6-4.1-1.6-3.4,2.4-8.5-2.1-11-3.7-3.1-12.9,1.1-12-6.2,1-1.4-.2-2.4-.3-3.8.3-.7.4-1.2-.2-1.8-.2-1.1,1.4-1.8.3-2.9-.9-1.4.3-2.5,0-3.9-1-5.8,7.1-5,10.6-4.4,1.1.5,2.3-.7,3.4-.6.6,0,.8,1.2,1.7.7,5.9-.6,12-.2,18.3-.9,4.1,1.4,9.5-.4,14.1.9,3.9-1.4,6.1,4.2,5.4,7.2-.1,3.1.2,6.3,0,9.4,1.5,9.2-13.3,1.4-14.9,9.3,1.2,6.1.2,12.5.3,18.8.6,8.8-.4,17.6.8,26.6h0ZM391,462.8c-.4.3-.5.6,0,.8.5-.1.4-.4,0-.8ZM404.9,444.5c-.1-.6-1.6-.5-1.9-.1,0,1.1,1.6.9,1.9.1Z"/>
        <path class="cls-1" d="M414.9,522.4c1.6-3-.8-3.7.8-6.3-.9-4.8-.3-10.1-.9-15.3.3-1-.3-2.8,0-3.7,1.4-.7.6-1.4.3-2.3-.3-4.8.2-10,.7-14.5-.8-4.7-1-8.4-.4-13-1.2-4.1-.3-8.8.2-13.1.8-1.2-1.9-2.7-.4-3.8,1.1-1.3-1.2-2.8,0-4.5,1.5-2.8-1.5-6,1-8.7,6.5-3,14.4-.2,21-1.5,4.3.6,3.2,8.7,3.5,12.3,1.2,6.2-3.9,17.5,3.4,20.4,6.9.4,8.3.4,8.5-7-1.6-3.6.9-8.4-.4-12.1-.4-16.9,1.9-12.7,16.4-13.4,7.5-1.2,9.5.4,9,7.4-.9.8-.9.9,0,1.5,1.5,1.4-.9,3.5-.3,5.4.8,11.5-.5,22.5.6,33.7.9,1.3-1.5,1.8-.6,2.8,2.1,2.3-.3,4.5.6,7.2-1,2.2.4,3.3-.6,5.7.5,3.6-.5,7.3.2,10.7,1.3,3.2-1.1,6.2-.3,9.2.9,2.2.2,4.9,0,7.2-.8,2.1-3.9,1.7-5.8,1.9-20.1-.3-18.7,4.2-19.1-16.9-.4-5.6,4.2-22.5-6.2-20-7.4-.8-4.9,6.2-5.9,10.4-1.5,1.2,1.3,2.7.1,3.8-1.3,1.1,1.4,1.7.3,2.9-2.4,5.6,3.4,16.5-3.3,19.6-1.6,1.4-3.5-1.2-5.4.7-1-1.1-2.3.7-3.2-.2-1.5-1.5-3.1,1.5-4.6-.3-5.2,1.3-8.8-.6-8.9-6.3h0ZM421.6,489.8c-.4.3-.5.6,0,.8.5-.1.4-.4,0-.8ZM426.8,453.5c-.8-.7-1.8-.9-1.9.2.5.6,1.1.3,1.9-.2ZM427.3,518.2c-.6-.7-1.7,0-1.9.7.5,1,1.9.6,1.9-.7ZM427.7,512.8c-.6.6-.2.8.2,1.2.8-.5.4-.7-.2-1.2ZM433.4,466.1c.7-.5.2-.7-.1-1.2-.2.2-.4.3-.5.5.2.2.4.4.6.7h0ZM440.4,476.6c-.6-1-1.8-.7-1.6.6,0,1.4,1.9.7,1.6-.6ZM444.9,484.6c0-1.5-2.4-1.9-2.4-.2-.3,1.8,2.3,1.8,2.4.2ZM450.7,472.7c-.1-.8-1.9-.4-1.9.2.7.6,1.3.5,1.9-.2ZM452.4,480.9c-1.3-1.5-1.8,1-2.1,2,.6,1,1.9-1.3,2.1-2ZM459.1,472.1c-.9-1-1.4-.2-2.1.4.2.9,1.8.5,2.1-.4ZM462.4,493.2c-2.3-.6-3.6,2-1.8,3.3,2.6,1.6,5.4-3.1,1.8-3.3ZM465.5,491.5c-.3-3.1-4.2.7-1.5,1.2.9-.1,1.6-.6,1.5-1.2ZM464.1,472.6c.8,0,1.3,0,1.7-.6-.4-1.3-3.2-.1-1.7.6ZM465.8,501.4c-1.7,0-1.9,1.2-.6,1.6,1,.3,1.5-1.2.6-1.6ZM469.3,476.3c1.4-.4,1.4-2.6-.2-2.8-1.3.4-1.5,2.7.2,2.8ZM471,505.3c-.5-.8-.7-.5-1.3-.3.2.7.6.3,1.3.3ZM470.6,493c-.3-.2-.4-.4-.6-.5-.5.4-.5.7,0,1.1.2-.2.3-.3.6-.5h0Z"/>
        <path class="cls-1" d="M507.8,497c-3.4,19.8,25.9-.6,21.4,18.4-.7,4.2,2.9,11.4-2.6,13.1-1.4,1-2.6.2-4.1.7-2.3.6-4.4-.9-6.8-.3-8.9-.3-17.5-.5-26,.2-6.2.2-7.6-2.5-6.7-8.3-.1-4.1-1.1-8.5,0-12.6-1.2-3.8,0-8.7-.1-12.7-.1-2.6-1.3-6,0-8.6,0-1.3-1.3-2.4,0-3.6.6-8.7-.9-17.4,0-26.1.8-26.7-4.4-20,21-21.5.7.5,1.2.3,1.8-.2,1-.2,1.8,1.3,2.8.4,2.5-.4,5.5-.3,8.2,0,3.8.5,11.8-1.9,12.3,3.5.8,3.6-.4,7,.5,10.8,1.5,3.6-.4,7.1-4.1,7.3-4.8,1.4-11.5-1.6-15.8.6-2.2,1.8-1.7,4.5-1.5,6.9-.9,3.4,1.2,6.1,4.7,6.1,2.8-.3,6,0,8.4.4,3.3-.8,2.2-1.1,4.7,1.1,2.5,2.4,1.3,14,.6,17.8-4.5,4.8-18.2-2.6-18.6,6.5h0ZM493.8,500c-.2-1-1.4-.8-1.6-.2.2.9,1.2.9,1.6.2ZM498.5,503c1.4.2,1.2-1.9.1-2-2.4-.9-2.4,2.3-.1,2ZM502.3,450.5c-.3,2.3,2.8,1.8,2.9,0,0-1.7-2.8-1.7-2.9,0Z"/>
        <path class="cls-1" d="M204.3,615.7c-1.3,4.9-.4,8.7-.6,13.7,1.4,5.6-2.4,8.6-7.8,7.3-5.3-.5-12.9,2.5-16.6-1.7-1.4-2.4-.1-6.2-.3-9-.9-1.4-.4-2.8-.4-4.6-.5-1.7.1-2.8.2-4.3-.9-1-.7-2.1,0-3,.2-2-.9-4.3.4-6.4-1.3-4.2-.2-9.5-.8-13.7-1-3.9,1.5-7.6-.1-11.4-.5-1.4,1.8-2.8.6-4.1-1.6-3.3,2.4-8.5-2.1-11-3.7-3.1-12.9,1.1-12-6.2,1-1.4-.2-2.4-.3-3.8.3-.7.4-1.2-.2-1.8-.2-1.1,1.4-1.8.3-2.9-.9-1.4.3-2.5,0-3.9-1-5.8,7.1-5,10.6-4.4,1.1.5,2.3-.7,3.4-.6.6,0,.8,1.2,1.7.7,5.9-.7,12-.2,18.3-.9,4.1,1.4,9.5-.4,14.1.9,3.9-1.4,6.1,4.2,5.4,7.2-.1,3.1.2,6.3,0,9.4,1.5,9.2-13.3,1.4-14.9,9.3,1.2,6.1.2,12.5.3,18.8.6,8.8-.4,17.6.8,26.6h0ZM195.4,571.1c-.4.3-.5.6,0,.8.5,0,.4-.4,0-.8ZM209.2,552.7c-.1-.6-1.6-.5-1.9,0,0,1.1,1.6.8,1.9,0Z"/>
        <path class="cls-1" d="M261.8,550.2c2.1,8.4,3.9,18.9,5.9,28.1,2,3.5,1.2,9,3.5,13,.4,3.3,1,6.6,1.4,9.7.8.7.4,1.4.3,2.2.1.8,1.5,1.4.5,2.5,2,5.8,3.3,11.3,3.5,16.8,1.1,3.2,5.5,13.2.6,13.9-3.4,1.2-7.7.6-11.5.4-2.2,1.7-4.4-.5-6.5.4-6.8,1.1-4.7-7.4-7.6-10.5-1.4.2-2-1.5-3.3-1.4-1.2.3-2.5.7-3.8,0-1.6-.4-3.3,1-5-.5-10.9,4,.7,15-17.9,12.2-2.6-.9-5.6.5-8.1,0-1-1.6-2.7.5-3.5-.4-.4-1-2.8-1.1-1.9-2.5,2.4-8,3.3-16.8,6-24.1-.9-1.3.5-2.1.3-3.2-.9-1.3,1.1-1.3.9-2.7-.2-3.5,1.4-6.9,2.1-10.4,2.3-1.9.3-5.1,2.2-7.2,1.1-1.2-.7-3.4,1.2-4.2,1-1.8,0-4.4,1.1-6.3,2-6.3,2.1-13,4.7-19,1.2-4.5,1.3-11.2,6.6-12.8,6.2-.6,12.5-.5,19,0,2-.4,3.5.6,5.3,0,1.7-.3,1.4,1,2.1,2,2,.7,1.8,2.3,1.7,3.9h0ZM218.7,621.6c-.7-1.2-1.4-.4-2,.4,0,1.1,2.1,1.2,2-.4ZM223.1,608.8c-.3-.1-.6-.2-.9-.3,0,.2-.1.3-.2.5.4,0,.9.5,1-.2ZM224.3,605.2c-.8.8-1,1.7.2,1.9.7-.5.3-1.1-.2-1.9ZM229.9,592c-.3-.3-.5-.5-.7-.7-.2.2-.4.3-.5.5.5.3.7.8,1.2.2ZM235.1,612.5c1.4.2,3.1-.2,2.6-1.6-1.7-1-.2-3.9-2.4-4.4-2,.9.4,3.2-1.6,4.4-1,.9.4,1.9,1.3,1.7h0ZM240.5,615.7c-.4-1.4-1.9-.4-2.1.5.5.8,1.8.3,2.1-.5ZM240.3,610.5c-2.6-.3-.7,1.8.7,1.7,1.8-.3.1-1.6-.7-1.7ZM245,570.2c.5-2.2-1.6-1.1,0,0-2.1,6.6-2.2,13.6-3.2,20.6-1.3,6.7-5.5,18.2,5.8,13.6,2.7-4.1.5-8.6.1-12.9-1.6-6.9-1-14.9-2.6-21.3h0ZM255.1,608.6c.2-.3.4-.5.5-.6-.4-.4-.7-.4-1.1,0,.2.2.3.3.6.5ZM259.8,622.3c.3-2-2.7-2.4-3.6-1-.6,1.1,3.8,3.1,3.6,1ZM257.5,602.1c.2.3.4.6.6.9.2-.3.5-.5.8-.8-.3-.2-.5-.5-.8-.7-.1.2-.3.3-.5.6h0ZM259.5,613c3,0-.8-3.2-1-.8,0,.8.5.9,1,.8ZM261.4,609c-.6,2.4,3,2.7,2.4.3-.2-1.7-2.5-2.4-2.4-.3Z"/>
        <path class="cls-1" d="M313.2,615c9.5.2,11.5-3,12.5,8.3-1,3.3,1.8,13.6-3.3,13.1-4.4,1.9-9.5-.6-14,1.1-5.7-.2-12.4-1.2-18-.2-11.9,1.1-8.2-4.9-8.9-13.7-.8-14.8.5-39.6,0-55.3-.9-6,0-13.2,0-19.9-1.1-2.3,3.7-5.5,5-3.9,3.4,0,6.5-1,9.9.1,12-4.2,10.7,6.7,9.6,14.8.4,8.1,1,16.2.6,24.4,0,2.3-.7,4.8-.1,6.8.4.8,1,1.7,0,2.6.6,3.1-.6,6.4.4,9.3-.2,6.2-2.6,12.7,6.5,12.4h0ZM294.1,569.1c0-.9-.2-1-.9-1-3,.3.5,4.4.9,1ZM298.2,557.5c.1-.7-1.6-1.3-1.9-.5-.2.7,1.6,1.3,1.9.5ZM298,629c-1.9,0-.2,1.7.5.3-.2,0-.4-.2-.5-.3ZM298.7,613.6c-1.3.8-1.2,3.7-.2,3.8,2.2-.7,2.8-3.1.2-3.8ZM298.2,575c.5-.7,1.3-1.1.3-1.5-.9,0-.6.8-.3,1.5ZM301.3,570.1c-.4-.4-.6-.7-.9-1-.3.3-.6.6-.9.9.7.6,1,.9,1.7,0h0ZM301.8,625.8c-.9.7-1.6,1.6,0,1.9,1.4,0,1-1.1,0-1.9Z"/>
        <path class="cls-1" d="M352.1,552.5c-1.2,2.9.4,5.8-.4,8.7-1.4,1.6.5,3.5-.9,5,.1.7,1.1,1.1.5,2-.2,2.2,0,4.6.2,6.9,0,2.1-1.1,5.1.7,6.5,2-6,3.6-12.8,6.7-18.3-.7-2,1.1-3.6,2.1-5-.5-1.7.9-2.8,1.3-4.3.9-5.2,5.5-11.3,11.4-9.6,5.3.7,10.8-2,15.6.4,6.1-.6-7.8,18.7-6.5,21.7-2.3,4.1-4.4,7.8-6.1,12.1,1,3.1-3.5,5.4-2.6,7.5,0,1.7-1.1,3.6-.6,5.1.5.8,1.3,1.6.8,2.8,2.2,2.8,2.9,6.8,5,10,.3,3.5,4.7,5.8,3.7,9.2,2.4,4.4,5.3,9,6.6,14,2.5,1.7,3.6,5.5,3.7,8.3,0,3.5-8.6.7-11.5,1.6-10.2.8-15.8,1.1-18-10.7-1.4-.1-.9-1.2-1.1-2-.5-2-2.3-3.4-1.8-5.5-1.9-1-.8-2.9-1.7-4.3-2.7-5.5-4.1-11.7-7.4-17-2.2,13.1,1.1,24.9-.8,38.3-1.8,2.2-3.9.2-5.9,1.7-1,.2-1.9-.7-2.9.2-4-1.1-8.3,0-12.7-.4-4.3-3.4-2.6-9-2.4-13.4-1-8.8-.5-17.3-.5-26,1.1-8.2-.7-16.2,0-24-.5-2.7.4-6.1,0-9,1.6-1.7-1.6-3.2,0-4.7.5-1.6-1-3.2,0-5,.8-2.1-.6-3.7,0-5.8-1.3-5.9,7.8-5.4,11.6-5,7.9.1,13.6-2.4,13.8,8.2h0ZM369.2,552.3c0-.1.1-.2.2-.4-1.1-.6-1.7,1-.2.4ZM371,562.8c-1.3,0-1.1,2.2.2,2,1.3,0,1.1-2.2-.2-2ZM373.8,558.2c.4-1.8-1.9-.8-2,0,.4,1.4,2,1.7,2,0ZM378.7,550.8c-.8.6,0,.8.3,1.3.7-.3,0-.8-.3-1.3ZM381.3,555.3c-.5-.3-1-1-1.3-.3.5.4.7,1.1,1.3.3Z"/>
        <path class="cls-1" d="M427.4,602.4h-9.2c-1.6,0-2.5-.9-2.5-2.5v-17.3c0-.7.1-1.4.5-1.9.4-.5.8-.9,1.5-.8.9,0,1.8,0,2.7,0,2,0,3.9-.5,5.8-.9.9-.2,1.8-.7,2.5-1.3,1.3-1.1,2.3-2.4,2.9-3.9.5-1.1.8-2.2.8-3.3,0-1.9,0-3.8,0-5.8,0-1.1-.3-2.1-.6-3.2-.2-1-.8-1.9-1.4-2.7-.3-.4-.7-.6-1.1-.8s-.9-.3-1.3-.5c-1.1-.5-2.2,0-3.1.5-1.4,1-2.2,2.4-2.4,4.1-.1,1.1-.5,2.1-.4,3.2,0,.5-.2,1.1-.5,1.5-.3.6-.8,1.1-1.6,1.1-2.5,0-5.1,0-7.6,0h-12.9c-.7,0-1.5-.7-1.5-1.4,0-1.2,0-2.3.2-3.5,0-.4.2-.8.2-1.2,0-1.1.1-2.1.4-3.2.2-1,.5-2,.7-3,.4-2.3,1.7-4.3,2.8-6.3.5-.9,1.2-1.7,1.9-2.4,2.1-2.3,4.4-4.3,7-5.9,1.9-1.2,3.9-2.3,6.1-2.7.2,0,.4-.1.6-.2,1.3-.6,2.7-.8,4.1-1,.6,0,1.2,0,1.8-.3.2-.1.5,0,.8,0,2,0,4.1,0,6.2,0,.7,0,1.5.2,2.2.4,1,.2,2,.4,3,.6,1.7.4,3.2,1,4.8,1.8,1,.5,2.1,1,3.1,1.5,1,.6,2.1,1.3,3,2.2.5.5,1.1,1,1.7,1.4.3.3.6.5.9.8,1.3,1.7,2.7,3.2,3.8,5,.8,1.3,1.5,2.8,2.1,4.2.9,2.1,1.2,4.3,1.9,6.4.1.3,0,.7.1,1,0,1.2,0,2.3.4,3.4,0,1.6.2,3.1-.3,4.7,0,.2,0,.5,0,.8,0,2.8-.7,5.5-1.7,8.1-.4,1.1-1,2.1-1.5,3.1-.3.5-.6,1-1,1.6-.2.3-.4.6-.6.8-1.1,1.1-2.1,2.1-3.4,3-1.9,1.4-4,2.4-5.9,3.6-.3.2-.6.3-.9.4-1.2.4-1.9,1.2-2.5,2.3-.2.4-.4.7-.3,1.2,0,.9-.2,1.9.2,2.8-.3.9-.1,1.9-.3,2.8-.1.7-.9,1.5-1.7,1.6-.4,0-.8,0-1.2,0h-9ZM402.7,561.5c0,0-.2,0-.3.2-.6,1-.5,2.1-.4,3.1,0,.3.4.6.7.6.2,0,.5,0,.7-.2.1,0,.2-.4,0-.5-.5-.7-.4-1.5-.4-2.3,0-.2,0-.4-.2-.6,0-.1-.2-.2-.3-.3h0ZM411,548.6c.5,0,.8-.1.8-.4,0-.3,0-.7-.2-.9,0,0,0,0-.1-.1-.2-.2-.5-.2-.7,0-.3.2-.5.5-.5.8,0,.3.1.6.4.6.1,0,.3,0,.4,0h0ZM415.4,629.9c-.8-2.2-1.7-4.3-1.5-6.4,0-3,.5-4.8,1.6-7,1.4-2.5,3.3-4.5,5.8-5.9,1.2-.7,2.6-1.2,4-1.3.8,0,1.6-.5,2.4-.3,1.1.2,2.3.2,3.4.5.8.2,1.6.5,2.3.8,1,.5,2,1.1,3,1.8.6.4,1.1,1,1.6,1.6,1.4,1.6,2.5,3.4,3.1,5.5.6,2.3,1,4.6.4,7-.2.9-.4,1.8-.8,2.7-.9,2.4-2.7,4.1-4.6,5.7-1.5,1.3-3.3,2-5.3,2.5-1.8.4-3.5.4-5.3.2-1.5-.1-2.9-.7-4.2-1.4-1-.6-2.1-1.2-3-2.1-1.2-1.2-2-2.6-3-3.9h0ZM418.8,542c0,0,0-.1,0-.2-.2-.4-.5-.6-.9-.6s-.8.3-.9.6c0,.1,0,.4.1.5.5.6,1.2.6,1.7,0,0,0,0-.2.1-.4h0ZM434.4,562.9c0,0-.1-.2-.2-.3,0,0-.2.2-.2.3s0,.2.1.3c0,0,.1-.2.2-.3h0ZM438.5,574c0-.4-.4-.4-.6-.4s-.6.2-.5.5c0,.3.4.7.6.7.2,0,.5-.5.5-.7h0ZM445.7,566.7c-.2-.2-.3-.3-.5-.4-.2,0-.4,0-.4.3,0,.2,0,.4.3.4.1,0,.3-.1.5-.3h0Z"/>
      </g>
      <path class="cls-2" d="M446.1,322.1c-7.4-3.6-43-21.1-49.7-23.5-6.7-2.5-11.5-3.6-16.4,3.6-4.9,7.2-18.9,23.5-23,28.2-4.3,4.9-8.5,5.4-15.8,1.8-7.2-3.6-30.7-11.1-58.4-35.8-21.5-19-36.2-42.6-40.4-49.8-4.2-7.2-.4-11.1,3.2-14.7,3.3-3.3,7.2-8.5,11-12.6,1-1.2,1.8-2.4,2.6-3.5,1.7-2.6,2.9-5.1,4.6-8.6,2.5-4.9,1.2-9-.5-12.6-1.8-3.6-16.4-39.1-22.5-53.6-6-14.4-12.1-11.9-16.4-11.9s-9-.7-13.9-.7-12.8,1.8-19.4,9c-6.7,7.2-25.4,24.7-25.4,60.2s1.5,16.6,3.7,24.6c7.4,25.4,23.2,46.3,25.9,50,3.6,4.7,50.2,79.9,124,108.9,74,28.7,74,19.1,87.3,17.9,13.3-1.1,43-17.3,49-34.3,6.1-16.8,6.1-31.2,4.3-34.3-1.8-2.9-6.7-4.7-13.9-8.3h0Z"/>
    </g>
  </g>
</svg>