<svg width="36" height="66" viewBox="0 0 36 66" fill="none" xmlns="http://www.w3.org/2000/svg">
<path opacity="0.8" fill-rule="evenodd" clip-rule="evenodd" d="M35.108 0.754529C35.338 0.768421 35.5133 0.966427 35.4994 1.19679C35.0308 8.97611 33.1529 20.2442 28.9445 29.2193C27.6803 31.9153 26.201 34.415 24.4786 36.5536C25.5208 38.9303 25.9668 41.6202 25.686 44.3659C24.9376 51.6842 19.0623 59.3113 5.83822 62.6637L11.7823 65.1132C11.9955 65.201 12.0971 65.4452 12.0094 65.6586C11.9217 65.8721 11.6778 65.9738 11.4646 65.886L4.8792 63.1722C4.3585 62.9576 4.11792 62.3552 4.34737 61.8405L6.46334 57.0934C6.55728 56.8827 6.80406 56.7881 7.01455 56.8821C7.22504 56.9762 7.31952 57.2233 7.22558 57.434L5.20854 61.9591C18.494 58.7247 24.1448 51.2318 24.8556 44.2808C25.1071 41.8222 24.745 39.42 23.8774 37.2737C22.8986 38.404 21.8451 39.4193 20.7123 40.292C17.2736 42.9413 13.1168 44.2658 8.15183 43.5219C4.76629 43.0147 2.47413 41.6583 1.2138 39.8901C-0.0499166 38.1171 -0.236812 35.9829 0.492629 34.0242C1.95257 30.104 7.01313 26.9636 14.3517 28.3553C18.7422 29.188 22.1678 32.0022 24.0788 35.7138C25.6419 33.7121 27.006 31.3868 28.1889 28.8642C32.336 20.0199 34.2012 8.86736 34.6662 1.14648C34.6801 0.916118 34.8779 0.740637 35.108 0.754529ZM23.5022 36.4263C21.7344 32.7628 18.4344 29.9802 14.1963 29.1765C7.14156 27.8385 2.55508 30.8782 1.27473 34.3162C0.634029 36.0366 0.803674 37.876 1.89324 39.4046C2.9862 40.9381 5.04407 42.2113 8.27536 42.6954C13.0018 43.4035 16.9327 42.1494 20.2033 39.6297C21.3862 38.7183 22.4844 37.6399 23.5022 36.4263Z" fill="#2A2A2A"/>
</svg>
