<?xml version="1.0" encoding="UTF-8"?>
<svg id="Layer_2" data-name="Layer 2" xmlns="http://www.w3.org/2000/svg" version="1.1" viewBox="0 0 142.2 176.5">
  <defs>
    <style>
      .cls-1 {
        fill: #fffdee;
      }

      .cls-1, .cls-2 {
        stroke-width: 0px;
      }

      .cls-2 {
        fill: #ff004a;
      }
    </style>
  </defs>
  <g id="set">
    <path class="cls-2" d="M142.2,172.1v-8.9c-5.8.7-5.8-9.5,0-8.8v-8.8c-6.2,0-5.3-9.4,0-8.8v-8.8c-5.8.7-5.7-9.5,0-8.8v-8.8c-5.4.6-6.2-8.8,0-8.8v-8.8c-5.8.7-5.8-9.5,0-8.8v-8.8c-6.2,0-5.3-9.4,0-8.8v-8.8c-5.4.6-6.3-8.8,0-8.8v-8.8c-5.8.7-5.8-9.5,0-8.8v-8.8c-5.8.7-5.8-9.5,0-8.8V4.4c-2.1.2-4.4-1.9-4.4-4.4h-9c0,5.8-8.8,5.8-8.8,0h-9c0,5.8-8.8,5.8-8.8,0h-9c0,5.8-8.8,5.8-8.8,0h-9c0,5.8-8.8,5.8-8.8,0h-9c0,5.8-8.8,5.8-8.8,0h-9c0,5.8-8.8,5.8-8.8,0h-9c0,5.8-8.8,5.8-8.8,0H4.4c0,2.3-1.9,4.4-4.4,4.4v8.8c5.8,0,5.8,8.8,0,8.8v8.8c5.8,0,5.8,8.8,0,8.8v8.8c5.8,0,5.8,8.8,0,8.8v8.8c5.8,0,5.8,8.8,0,8.8v8.8c5.8,0,5.8,8.8,0,8.8v8.8c5.8,0,5.8,8.8,0,8.8v8.8c5.8,0,5.8,8.8,0,8.8v8.8c5.8,0,5.8,8.8,0,8.8v8.8c5.8,0,5.8,8.8,0,8.8v8.9c2.5,0,4.4,2,4.4,4.4h9c0-5.8,8.8-5.8,8.8,0h9c0-5.8,8.8-5.8,8.8,0h9c0-5.9,8.8-5.8,8.8,0h9c0-5.8,8.8-5.8,8.8,0h9c0-5.8,8.8-5.8,8.8,0h9c0-5.8,8.8-5.8,8.8,0h9c0-5.8,8.8-5.8,8.8,0h9c0-2.3,1.8-4.4,4.4-4.4h0Z"/>
    <path class="cls-1" d="M125.8,153.2H16.4V23.2h109.5v130h0ZM18.4,151.2h105.5V25.2H18.4v126h0Z"/>
    <rect class="cls-1" x="22.7" y="30.6" width="96.8" height="115.3"/>
    <path class="cls-2" d="M34.4,85.4c3.7,1.2,8.6,2.8,12.4.6,2.6-.2,4.2-2.7,5.5-4.5,1.5-1.1,1.9-3.7,2.2-5.4.5-.6,0-1.3.5-1.9-.2-.5-.3-1.1,0-1.5.9-9.8-16.9-14-8.6-18.2.1-.1.2-.2.5,0,.6.7,1.5-.6,2.1.5,1.4.3,2.7,1.8,3.7,3,1.9,1.2,1.1-4.7.9-5.8-.2-.7.7-1.2,0-1.8,0-.6.5-1.4.1-2h0c-.2-4.5-10.4-4.6-13-2.6-2.7,1.1-5,3.4-6,5.9-.8.8-.1,2.1-.9,2.8-.1.1-.3.2-.2.6.3.5-.3.7-.1,1.2-1.4,12.3,12.8,13.9,10,19.7-2.4,2-4.8.2-7.3-.9-.8-.3-1.3-2-2.2-1.7-1.1,1.1-.3,3.5-.5,5.1.5,2.1-.9,5.4,1.1,7h-.1ZM47.1,69.6c0,.1,0,.2.1.3h0c0,.2,0,.5-.3.6-.1-.3,0-.7.2-.9h0ZM47,51.9c-.3.2-.7.6-.8,0,0-.5.5-.2.8,0ZM38.5,60.7c.1.2.2.3.3.5-.3.3-.7,0-.3-.5ZM44.6,62.7c.3.5.2.7-.3.9-.9-.5-.5-.9.3-.9Z"/>
    <path class="cls-2" d="M55.5,48.9c.5.5-.2.8-.1,1.3.2.2.2.5,0,.8,0,.6.6,1.1,0,1.7-.5,3.2,3.7,1.4,5.3,2.7,2,1.2.2,3.4.9,5,.6.6-.5,1.2-.2,1.8.7,1.7-.3,3.3,0,5.1.2,1.9-.2,4.2.3,6.1-.6.9,0,1.9-.2,2.8-.3.3-.5.8,0,1.3,0,.7-.2,1.2,0,1.9,0,.8-.2,1.4.2,2,0,1.3-.5,2.9,0,4,1.7,1.9,5.1.6,7.4.8,2.4.6,4.1-.7,3.4-3.2.1-2.2-.3-3.9.2-6h0c-.5-4,0-7.9-.3-11.8,0-2.8.3-5.7-.1-8.4.7-3.5,7.3,0,6.6-4.1v-4.1c.3-1.3-.7-3.8-2.4-3.2-2-.6-4.5.2-6.3-.5-2.8.3-5.6,0-8.2.3-.3.2-.5-.2-.7-.2-.5,0-1.1.5-1.5.2-1.5-.2-5.1-.6-4.7,2,.1.6-.3,1.2,0,1.8h.2c0-.1,0-.1,0-.1ZM75.2,48.9c0,.3-.8.5-.8,0,.1-.2.8-.2.8,0ZM69,57.1c.1.2.1.3,0,.3-.2,0-.1-.2,0-.3Z"/>
    <path class="cls-2" d="M80,71.7c.5.8-.2,1.9.2,2.7.6,2.5,1.5,4.8,2.4,7.2,1.4,1.7,2.5,3.7,4.8,4.1,1.4-.2,2.5,1.4,3.8.9.3-.2.7.3,1.1,0,2.6.3,6.1.2,8.7-1.2.8.2.9-.8,1.5-.9.7.1.7-.5,1.1-.7.8-.2.6-1.5,1.7-1.5.5-.2.2-.8.7-.9,1.8-2.8,1.3-6.1,2-9.2-.2-.5-.5-.8,0-1.3-.2-.6-.7-1.1,0-1.5.2-1.2-.5-2.8,0-4,0-3.3-.2-6.5-.1-9.7-.2-.2,0-.5,0-.7.6-.6-.1-1.1,0-1.8.2-2.1,0-4.4,0-6.6-.2-2.8-5.4-1.5-7.4-1.4-4.5-1.2-3.4,2-3.7,5,0,.2-.1.5,0,.7.5.7-.6,1.8,0,2.6-.3.9,0,1.9-.3,3,.2.5-.2.9.2,1.2.3.2,0,.5-.1.6,0,1.9.2,3.7.3,5.5-1.1,2.5,1.4,12.3-2.2,12.8-5.3,1.8-3.5-10.4-3.7-13.5v-8c-.1-2.5-.3-4.8,0-7.3h0c.5-1.8-1.8-3.2-3.2-2.4-1.2-.1-2.6-.6-3.9-.2-6.3-1.2-3.5,5.5-4.1,9.2.2,2.7.1,5.7,0,8.3-.2.9.3,1.5-.1,2.4.6,1.3.2,2.7,0,4.2,0,.2,0,.6.2.7.3.6-.7,1.2,0,1.8h.1c0,.1,0,.1,0,.1Z"/>
    <path class="cls-2" d="M93.2,89.2c-4-.3-7.8,1.9-10.6,5-.2-.2-.9-.2-1.1-.6-.5-.9-1.7-.5-2.4-1.1-1.2-1.2-3.1-1.2-4.1-2.4h0c-.6,0-1.2.5-1.8.2-.3.1-.5.7-.9.9.1,1.1-.9,1.4-.8,2.5-1.5,2.8-2.7,6.1-4.1,8.9.1.3.1.6-.2.7-.5.5,0,1.3-.8,1.5-.7.6-.1,1.9-1.1,2.5-.9,2-2,4.1-2.8,6.3,0-1.2.1-2.2,0-3.4-.1-2.5-.7-4.8-1.1-7.3-1.2-2-1.2-4.8-3.3-6.1-1.1-.8-1.4-2.5-2.8-2.7-.2-.3-.8-.3-.9-.7,0-.3-.3-.5-.7-.5s-.8,0-1.1-.5c-.5-.8-1.9,0-2.6-.8-1.9-.9-4.2-.9-6-1.3-.8-.3-1.7.5-2.5,0-.2-.1-.3-.2-.6,0-.3.3-.8-.3-1.2,0-4.1.3-5.8-1.3-5.7,4,.3,3.1-.3,7.1,0,10.8.1,7.9,0,15.7,0,23.7h0c-.5,3.9,3.5,2.5,5.8,2.6,3,.7,6.3-.2,9.2-.8.8,0,1.4-.2,2.1-.7,1.5-.2,3.3-.9,4.5-1.9.5-.3.9-.7,1.4-1.1.3.9,1.4,1.8,3.3,2,1.7.8,3.4,1.9,5.2,2.1,1.9.6,1.9-2.5,2.8-3.5.9-1.9,1.7-3.5,2.4-5.4-.1-.7.8-.3.7-1.1,0-.3-.2-1.1.2-1.2.9-1.2,1.4-3.2,2.4-4.2.3-2.2,1.8-3.7,2.1-5.9-.1-.7,1.1-.8.8-1.4,0-.3.2-.7.5-.9,0,.3.2.8,0,1.3-1.4,10.8,4.7,24.3,17,23.4h0c19.7-1.8,19.1-43.2-1.3-42.8h.1,0ZM36.7,109.9c0-.2.2-.1.3,0-.1.1-.3.1-.3,0ZM37.7,119.7l.2-.2s.1.2.2.2c-.2.2-.3.2-.5,0h0ZM39,110.3c1.8,0,0,1.5-.5.1.1,0,.3,0,.5-.1ZM38.7,113.6c.2,0,.3-.2.6,0h0c-.2.1-.3.2-.5.1h-.1ZM39.3,114.8c.5-.2.9.3.9.7,0,1.9-2,0-.9-.7ZM41,103c0-.5.5-.2.9,0-.5.2-.7.6-.9,0ZM41.2,117.5c0-.8,1.1-.5,1.1.1s-1.1.5-1.1-.1ZM42.5,109.5c0-.6.9-.6,1.1,0-.3.2-.9.5-1.1,0ZM46.5,121.1c-2.5-1.3-.7-4-1.3-6.1-.7-1.2.6-2.5-.1-3.4,0-.3.6-.8,0-1.2.5-3.1.3-6.3.3-9.6,1.7-1.1,3.8.9,4.5,2.6,2,4,2.8,16.4-3.3,17.7h-.1,0ZM51.1,120.8c0-.7,1.4-.3,1.4,0,0,1.2-1.7.6-1.4,0ZM55.2,121c0-.6.9-.5.9,0s-.9.5-.9,0ZM66,113.8s0,.2.1.3h-.3c0-.2,0-.3.2-.5h0c0,.1,0,.1,0,.1ZM64.3,117.2c.1.1,0,.2,0,.3v-.3ZM58.3,116.7c.6.1.6,1.3-.2,1.3-.9-.2-.7-1.1.2-1.3ZM56.8,118.6c-.1-.1-.2-.2,0-.3.2,0,.2.2,0,.3ZM64.4,119.8h0c-.3-.1-.6-.2-.9-.5.7-.7,1.6,0,2.6,0,1.1,1.1-1.2.9-1.7.5h0ZM66.9,121.9c-.6-.5,0-.6.3-.7.2.5.2.9-.3.7ZM68.2,118.1c-.5.7-1.8,0-1.2-.8.5-.9,1.5.2,1.2.8ZM92.8,121.6c-5-.3-5.2-22.3.6-21.8,5.6-.6,5.6,23-.6,21.8ZM103.3,116.7s-.2-.1-.2-.2c.2,0,.5-.3.6,0,0,0-.2.2-.3.2h0Z"/>
  </g>
</svg>