<svg width="92" height="34" viewBox="0 0 92 34" fill="none" xmlns="http://www.w3.org/2000/svg">
<rect x="1.5" y="1" width="89" height="32" rx="16" stroke="#2A2A2A" stroke-width="2"/>
<path d="M34.5303 15.496C34.3223 14.344 33.5703 12.952 31.4583 12.952C28.9943 12.952 28.0183 15.016 28.0183 17.272C28.0183 19.544 28.9943 21.608 31.4583 21.608C33.5863 21.608 34.4023 20.216 34.5303 18.824H36.4343C36.1783 21.4 34.4183 23.24 31.5063 23.24C28.2103 23.24 26.1303 20.728 26.1303 17.272C26.1303 13.832 28.2103 11.32 31.5063 11.32C34.4023 11.32 36.1623 13.16 36.4343 15.496H34.5303ZM37.8595 11.56H39.5555V23H37.8595V11.56ZM45.0269 23.24C42.4669 23.24 40.9149 21.464 40.9149 18.92C40.9149 16.376 42.4669 14.6 45.0269 14.6C47.5869 14.6 49.1389 16.376 49.1389 18.92C49.1389 21.464 47.5869 23.24 45.0269 23.24ZM45.0269 21.864C46.6269 21.864 47.4589 20.6 47.4589 18.92C47.4589 17.224 46.6269 15.976 45.0269 15.976C43.4269 15.976 42.5949 17.224 42.5949 18.92C42.5949 20.6 43.4269 21.864 45.0269 21.864ZM53.996 18.056C55.5 18.408 57.132 18.744 57.132 20.696C57.132 22.264 55.788 23.24 53.804 23.24C51.164 23.24 50.028 22.008 49.948 20.28H51.58C51.66 21.16 52.044 21.912 53.772 21.912C54.94 21.912 55.436 21.336 55.436 20.824C55.436 19.8 54.46 19.72 53.26 19.432C51.964 19.128 50.204 18.872 50.204 17.016C50.204 15.672 51.388 14.6 53.436 14.6C55.66 14.6 56.716 15.8 56.828 17.224H55.196C55.084 16.584 54.764 15.928 53.452 15.928C52.444 15.928 51.9 16.312 51.9 16.888C51.9 17.72 52.812 17.784 53.996 18.056ZM62.1579 21.864C63.5499 21.864 64.1099 21 64.2539 20.504H65.9339C65.5179 22.056 64.3019 23.24 62.2059 23.24C59.6619 23.24 58.1099 21.48 58.1099 18.92C58.1099 16.264 59.6619 14.6 62.1259 14.6C64.7659 14.6 66.0619 16.44 66.0619 19.352H59.7899C59.7899 20.728 60.6699 21.864 62.1579 21.864ZM62.1259 15.928C60.7659 15.928 59.7899 16.84 59.7899 18.104H64.3819C64.3819 16.84 63.4859 15.928 62.1259 15.928Z" fill="#2A2A2A"/>
</svg>
