<svg width="181" height="34" viewBox="0 0 181 34" fill="none" xmlns="http://www.w3.org/2000/svg">
<g clip-path="url(#clip0_406_3369)">
<path d="M59.6881 33.1739L53.0988 24.061L49.0783 28.2179V33.1739H42.489V0.977417H49.0783V19.7008L58.6777 9.54351H67.0175L57.6174 19.3503L68.1774 33.1668H59.681L59.6881 33.1739Z" fill="#2A2A2A"/>
<path d="M76.93 12.2704C79.1431 10.1955 81.9752 9.151 85.4264 9.151V15.2917C81.7404 15.4879 78.9011 16.6796 76.93 18.8597V33.1739H70.3407V9.55056H76.93V12.2704Z" fill="#2A2A2A"/>
<path d="M111.164 20.5422C111.164 21.6988 111.114 22.6031 111.008 23.262H93.4101C94.015 26.4655 96.0359 28.0708 99.4942 28.0708C101.302 28.0708 102.575 27.6222 103.315 26.7319H110.609C109.798 28.947 108.403 30.6715 106.411 31.9052C104.418 33.146 102.092 33.7628 99.4515 33.7628C95.6587 33.7628 92.5847 32.5922 90.2222 30.2439C87.8597 27.9026 86.6785 24.9444 86.6785 21.3834C86.6785 17.8223 87.8312 14.8502 90.1439 12.4948C92.4566 10.1325 95.4239 8.95483 99.0459 8.95483C102.668 8.95483 105.507 10.0203 107.77 12.1513C110.033 14.2753 111.164 17.0793 111.164 20.5492V20.5422ZM99.0957 14.4506C96.1141 14.4506 94.264 15.9157 93.5667 18.8598H104.475C104.141 15.9157 102.348 14.4506 99.0957 14.4506Z" fill="#2A2A2A"/>
<path d="M132.782 9.5505H139.365V33.1738H132.782V31.842C130.769 33.1248 128.477 33.7697 125.894 33.7697C122.578 33.7697 119.753 32.564 117.426 30.1526C115.099 27.7412 113.932 24.818 113.932 21.3902C113.932 17.9624 115.099 15.0252 117.426 12.5998C119.76 10.1744 122.585 8.96167 125.894 8.96167C128.477 8.96167 130.776 9.60658 132.782 10.8894V9.55751V9.5505ZM126.898 27.8744C129.509 27.8744 131.473 26.9491 132.782 25.1054V17.6259C131.473 15.7753 129.516 14.85 126.898 14.85C125.047 14.85 123.525 15.4879 122.322 16.7567C121.119 18.0255 120.515 19.5746 120.515 21.3902C120.515 23.2058 121.119 24.6989 122.322 25.9677C123.532 27.2365 125.055 27.8744 126.898 27.8744Z" fill="#2A2A2A"/>
<path d="M161.645 26.8299L162.549 32.7252C160.741 33.4122 158.813 33.7627 156.771 33.7627C153.59 33.7627 151.114 32.8584 149.356 31.0639C147.598 29.2623 146.716 26.8299 146.716 23.7596V14.9902H141.593V9.54351H146.716V0.977417H153.305V9.55052H162.101V14.9972H153.305V23.7666C153.305 25.0844 153.69 26.0869 154.458 26.7598C155.234 27.4398 156.251 27.7762 157.525 27.7762C158.728 27.7762 160.101 27.4608 161.645 26.8369V26.8299Z" fill="#2A2A2A"/>
<path d="M172.503 12.2704C174.716 10.1955 177.548 9.151 181 9.151V15.2917C177.313 15.4879 174.474 16.6796 172.503 18.8597V33.1739H165.914V9.55056H172.503V12.2704Z" fill="#2A2A2A"/>
<path d="M29.4176 20.2967C27.6102 20.2967 26.1514 18.8526 26.1514 17.0791V4.19496C26.1443 2.42145 27.6102 0.977417 29.4176 0.977417C31.225 0.977417 32.6838 2.42145 32.6838 4.19496V17.0721C32.6838 18.8526 31.2179 20.2897 29.4176 20.2897V20.2967Z" fill="#2A2A2A"/>
<path d="M13.0723 17.0722C13.0723 15.2916 14.5381 13.8546 16.3385 13.8546C18.1459 13.8546 19.6047 15.2987 19.6047 17.0722C19.6047 18.8457 18.1388 20.2897 16.3385 20.2897C14.531 20.2897 13.0723 18.8457 13.0723 17.0722Z" fill="#2A2A2A"/>
<path d="M19.6118 26.7318V29.9494C19.6118 31.7299 18.1459 33.1669 16.3456 33.1669C15.8973 33.1669 15.4632 33.0758 15.0718 32.9145C13.8977 32.4238 13.0723 31.2812 13.0723 29.9494V26.7318H19.6118Z" fill="#2A2A2A"/>
<path d="M28.1438 26.9842C28.5352 26.8229 28.9621 26.7318 29.4176 26.7318C30.3213 26.7318 31.1396 27.0893 31.7302 27.6781C32.3209 28.267 32.6909 29.0661 32.6909 29.9564V33.1739H26.1514V29.9564C26.1514 28.6245 26.9768 27.4749 28.1509 26.9912L28.1438 26.9842Z" fill="#2A2A2A"/>
<path d="M15.0718 1.22977C15.4632 1.06855 15.8902 0.977417 16.3385 0.977417C17.2422 0.977417 18.0605 1.33492 18.6511 1.92375C19.2417 2.50557 19.6118 3.31171 19.6118 4.20197V7.41951H13.0723V4.20197C13.0723 2.87009 13.8977 1.72047 15.0718 1.23678V1.22977Z" fill="#2A2A2A"/>
<path d="M6.53951 0.977417V4.19496C6.53951 5.97547 5.07364 7.4125 3.27331 7.4125C2.36959 7.4125 1.55127 7.05499 0.960646 6.46616C0.362911 5.89135 0 5.08521 0 4.19496V0.977417H6.53951Z" fill="#2A2A2A"/>
<path d="M3.2662 13.8546C5.07363 13.8546 6.53239 15.2987 6.53239 17.0722V26.7318V29.9493C6.53239 31.7298 5.06652 33.1669 3.2662 33.1669C1.45876 33.1669 0 31.7228 0 29.9493V26.7318V17.0722C0 15.2916 1.46587 13.8546 3.2662 13.8546Z" fill="#2A2A2A"/>
</g>
<defs>
<clipPath id="clip0_406_3369">
<rect width="181" height="32.7923" fill="white" transform="translate(0 0.977417)"/>
</clipPath>
</defs>
</svg>
