<svg width="200" height="88" viewBox="0 0 200 88" fill="none" xmlns="http://www.w3.org/2000/svg">
<g filter="url(#filter0_f_1175_60)">
<mask id="mask0_1175_60" style="mask-type:luminance" maskUnits="userSpaceOnUse" x="4" y="5" width="191" height="79">
<path d="M158.363 75.3205L135.898 77.9168L58.7669 82.6279L49.5761 81.9767L42.1957 83.64C22.6782 84.8321 5.88801 69.9749 4.69574 50.4545C3.50347 30.9341 18.3607 14.1439 37.8811 12.9516L52.4243 12.0633C52.4243 12.0633 55.1865 12.9153 56.6849 13.0244C58.1831 13.1306 66.4693 11.2055 66.4693 11.2055L108.471 8.6401L124.644 9.34466L127.916 7.45243L157.26 5.66013C162.794 5.32216 168.106 6.27423 172.906 8.25502C177.739 10.2512 182.053 13.2881 185.549 17.1078C186.101 17.711 186.207 20.5484 186.718 21.1918C191.086 26.6826 194.3 31.3104 194.76 38.8457C195.898 57.4825 182.407 73.631 164.197 76.0924C163.334 76.2091 161.332 74.9501 158.357 75.3238L158.363 75.3205Z" fill="white"/>
</mask>
<g mask="url(#mask0_1175_60)">
<path d="M161.581 76.3482L42.1986 83.6398C22.6782 84.8321 5.88801 69.9749 4.69574 50.4545C3.50347 30.9341 18.3607 14.1439 37.8811 12.9516L157.263 5.65995C176.783 4.46768 193.574 19.3249 194.766 38.8453C195.958 58.3657 181.101 75.1559 161.581 76.3482Z" fill="#2A2A2A" fill-opacity="0.2"/>
</g>
</g>
<g filter="url(#filter1_f_1175_60)">
<mask id="mask1_1175_60" style="mask-type:luminance" maskUnits="userSpaceOnUse" x="5" y="4" width="191" height="80">
<path d="M159.197 74.6882L136.732 77.2845L59.6006 81.9955L50.4098 81.3443L43.0295 83.0077C23.512 84.1998 6.72175 69.3425 5.52948 49.8221C4.33721 30.3018 19.1945 13.5115 38.7148 12.3193L53.2581 11.431C53.2581 11.431 56.0202 12.2829 57.5186 12.3921C59.0169 12.4983 67.303 10.5732 67.303 10.5732L109.305 8.00777L125.478 8.71234L128.75 6.8201L158.094 5.02781C163.627 4.68984 168.94 5.6419 173.74 7.62269C178.572 9.61892 182.887 12.6558 186.383 16.4755C186.935 17.0786 187.041 19.916 187.551 20.5595C191.92 26.0502 195.134 30.6781 195.594 38.2133C196.732 56.8501 183.24 72.9986 165.03 75.4601C164.168 75.5768 162.166 74.3178 159.191 74.6914L159.197 74.6882Z" fill="white"/>
</mask>
<g mask="url(#mask1_1175_60)">
<path d="M162.414 75.7159L43.0324 83.0075C23.512 84.1998 6.72175 69.3425 5.52948 49.8221C4.33721 30.3018 19.1945 13.5115 38.7148 12.3193L158.097 5.02763C177.617 3.83536 194.407 18.6926 195.6 38.213C196.792 57.7334 181.935 74.5236 162.414 75.7159Z" fill="#2A2A2A" fill-opacity="0.1"/>
</g>
</g>
<mask id="mask2_1175_60" style="mask-type:luminance" maskUnits="userSpaceOnUse" x="3" y="4" width="191" height="79">
<path d="M156.817 73.9641L134.353 76.5575L57.2328 81.2678L48.0328 80.6085L40.6616 82.28C21.1355 83.4726 4.35138 68.6208 3.15876 49.0946C1.96613 29.5684 16.8179 12.7844 36.3441 11.5917L50.8874 10.7035C50.8874 10.7035 53.6436 11.5529 55.1334 11.6654C56.6233 11.778 64.9091 9.84703 64.9091 9.84703L106.916 7.2813L123.098 7.97953L126.385 6.09221L155.732 4.29974C161.265 3.96177 166.587 4.9162 171.389 6.89102C176.222 8.89304 180.536 11.9155 184.027 15.7442C184.587 16.3497 184.673 19.1941 185.207 19.8304C189.584 25.3206 192.804 29.951 193.264 37.4833C194.402 56.1114 180.907 72.2601 162.709 74.7383C161.844 74.8493 159.849 73.6045 156.875 73.9605L156.817 73.9641Z" fill="white"/>
</mask>
<g mask="url(#mask2_1175_60)">
<path d="M160.049 74.988L40.6616 82.28C21.1355 83.4726 4.35138 68.6208 3.15876 49.0946C1.96613 29.5684 16.8179 12.7844 36.3441 11.5917L155.732 4.29974C175.258 3.10711 192.042 17.9589 193.235 37.4851C194.427 57.0113 179.576 73.7953 160.049 74.988Z" fill="#8C60C5"/>
</g>
<path d="M45.4054 39.9713L45.6266 43.5927C45.6443 43.8824 45.4485 44.0106 45.1571 43.9994C44.9543 44.0118 44.7568 44.1111 44.5504 44.0655C44.3151 44.0217 44.1194 44.15 43.8841 44.1062C43.7665 44.0843 43.6559 44.1783 43.5655 44.1257C43.4443 44.0458 43.3047 44.1416 43.1853 44.0907C42.9807 44.0741 42.7596 44.2621 42.5479 44.1296C42.4321 44.1367 42.3469 44.171 42.2328 44.2071C42.1459 44.2124 42.0537 44.1308 41.9396 44.1668C41.8272 44.2318 41.706 44.152 41.5919 44.188C41.4145 44.1407 41.2845 43.916 41.3029 43.7404L40.864 36.5557C40.876 35.799 39.8105 36.4456 39.6302 35.875C39.5771 35.0059 39.5223 34.1078 39.4692 33.2387C39.4497 32.92 39.5532 32.7102 39.8719 32.6907C40.1616 32.673 40.6305 32.7316 40.6039 32.2971C40.5597 31.5728 40.5154 30.8485 40.473 30.1532C40.45 29.7766 40.3566 29.2007 40.9124 29.254C41.8395 29.1974 42.7665 29.1408 43.7225 29.0824C44.0448 29.1209 44.639 28.8519 44.7542 29.3102C44.8055 30.1503 44.8551 30.9615 44.9064 31.8016C44.869 32.6181 45.5774 32.3131 46.0752 32.37C46.6073 32.512 46.3908 33.2521 46.4735 33.6542C46.5053 34.1757 46.5389 34.7261 46.5726 35.2765C46.5832 35.4504 46.5341 35.5988 46.4253 35.7217C46.3165 35.8447 46.1373 35.7684 45.9978 35.8641C45.824 35.8748 45.6141 35.7713 45.4474 35.8978C45.1358 36.0331 45.2167 36.4062 45.2326 36.6669L45.4361 39.9985L45.4054 39.9713ZM41.1097 30.5796C41.0482 30.5252 40.9577 30.4726 40.9648 30.5884C40.9719 30.7043 41.0553 30.6411 41.1097 30.5796ZM41.5142 33.8699C41.5 33.6381 41.1867 33.7445 41.228 33.9455C41.2658 34.0886 41.4923 33.9875 41.5142 33.8699ZM42.2077 29.9891C42.4974 29.9714 42.5087 29.6799 42.2391 29.551C42.0889 29.473 42.0108 29.6231 41.9292 29.7153C41.9091 29.862 42.0321 29.9708 42.2059 29.9601L42.2077 29.9891ZM42.9139 40.1235C42.8814 40.0673 42.827 40.1288 42.798 40.1306C42.8051 40.2465 42.8885 40.1832 42.9139 40.1235ZM43.7431 29.8953C44.0039 29.8794 44.0459 29.6151 43.836 29.5116C43.6841 29.4046 43.5753 29.5276 43.4954 29.6488C43.4463 29.7971 43.6 29.9332 43.7449 29.9243L43.7431 29.8953ZM44.3932 40.0622C44.3932 40.0622 44.4221 40.0605 44.4511 40.0587C44.4204 40.0315 44.3914 40.0333 44.3352 40.0658C44.3352 40.0658 44.3642 40.064 44.3949 40.0912L44.3932 40.0622Z" fill="#FFFDEE"/>
<path d="M51.3475 29.6636C51.3727 31.0287 51.6007 32.3815 51.5373 33.723C51.5426 33.8099 51.5225 33.9565 51.5857 34.0399C51.6709 34.0056 51.7217 33.8862 51.7743 33.7957C51.9252 33.4085 52.1647 33.0449 52.4042 32.6814C53.3131 31.3755 55.5148 31.241 56.5759 32.4266C57.8805 34.2661 57.6472 36.6357 57.8361 38.776C57.9157 40.0796 57.9954 41.3833 58.075 42.687C58.0874 42.8898 58.0436 43.1251 57.8751 43.2226C57.732 43.2604 57.5924 43.3562 57.4151 43.3089C57.2974 43.287 57.2158 43.3792 57.0964 43.3283C57.006 43.2757 56.9208 43.31 56.8049 43.3171C56.689 43.3241 56.5732 43.3312 56.488 43.3655C56.488 43.3655 56.4301 43.369 56.3721 43.3726C56.1368 43.3288 55.9051 43.3429 55.6768 43.415C55.503 43.4257 55.3257 43.3783 55.1554 43.4469C54.9017 43.5787 54.5979 43.3646 54.3442 43.4964C54.1449 43.5668 53.7902 43.4721 53.7743 43.2114C53.7531 42.8637 53.7318 42.5161 53.7124 42.1974C53.6982 41.9657 53.7148 41.7611 53.6155 41.5636C53.583 41.5074 53.5759 41.3915 53.5996 41.3029C53.6487 41.1545 53.638 40.9806 53.6292 40.8358C53.4828 39.3908 53.5664 37.9027 53.2769 36.4955C53.1203 35.8363 52.166 35.9236 51.9714 36.5462C51.8188 36.9044 51.898 37.2485 51.8341 37.6305C51.8104 37.7192 51.8447 37.8043 51.85 37.8912C51.9597 39.6874 52.0712 41.5125 52.1809 43.3087C52.1714 43.6292 51.8598 43.7645 51.5648 43.6953C51.0433 43.7271 50.5218 43.759 50.0004 43.7908C49.8573 43.8287 49.6782 43.7524 49.5404 43.8771C49.4499 43.8245 49.3376 43.8895 49.2217 43.8966C49.1638 43.9001 49.0769 43.9054 49.0189 43.9089C48.903 43.916 48.8197 43.9793 48.7038 43.9863C48.5879 43.9934 48.4377 43.9154 48.3254 43.9804C48.2113 44.0164 48.1191 43.9348 48.0304 43.9112C47.8802 43.8331 47.8661 43.6013 47.8572 43.4565C47.8254 42.935 47.7628 42.3863 47.7581 41.8341C47.7157 41.1388 47.6732 40.4435 47.6307 39.7482C47.6763 39.5419 47.6402 39.4278 47.5989 39.2268C47.5487 38.8809 47.5274 38.5332 47.5352 38.1838C47.5157 37.8652 47.4076 37.5228 47.4732 37.1699C47.3994 36.9127 47.3509 36.5958 47.4202 36.3007C47.4148 36.2138 47.3806 36.1287 47.4042 36.04C47.3558 35.7231 47.3346 35.3755 47.3405 34.9971C47.2684 34.7688 47.2543 34.5371 47.2691 34.3035C47.2638 34.2166 47.3129 34.0682 47.3076 33.9813C47.2047 33.7259 47.245 33.4327 47.1983 33.1447C47.193 33.0578 47.2728 32.9366 47.2096 32.8532C47.0855 32.2502 47.0738 31.5821 47.0946 30.9702C47.0786 30.7094 46.9776 30.483 47.0486 30.2169C46.9174 29.498 46.9583 28.7394 46.8851 28.0169C46.9402 27.4901 46.4952 25.918 47.1598 25.8483C48.2606 25.7811 49.3905 25.7121 50.4914 25.6448C50.7503 25.5999 51.0471 25.6981 51.0648 25.9878C51.1427 27.2625 51.2205 28.5372 51.2966 29.783L51.3475 29.6636ZM48.1216 30.6457C48.1198 30.6167 48.0636 30.6493 48.1216 30.6457ZM48.8879 34.1465C48.8879 34.1465 48.8861 34.1175 48.8844 34.0886C48.8264 34.0921 48.8589 34.1483 48.8897 34.1755C48.8897 34.1755 48.8897 34.1755 48.9169 34.1447L48.8879 34.1465ZM48.5922 26.924C48.6099 27.2137 48.9628 27.2794 48.9723 26.9589C48.9546 26.6692 48.6957 26.7141 48.5922 26.924ZM49.3251 32.2588C49.2997 32.3185 49.2725 32.3492 49.2742 32.3782C49.3393 32.4905 49.3937 32.4291 49.4481 32.3676C49.4173 32.3404 49.3866 32.3132 49.3251 32.2588ZM49.6137 27.9375C49.6681 27.876 49.7207 27.7856 49.6048 27.7926C49.4889 27.7997 49.5522 27.8831 49.6137 27.9375ZM50.7838 31.3846C50.8187 31.0044 50.2464 31.1557 50.351 31.4401C50.4249 31.6973 50.8015 31.6743 50.7838 31.3846ZM54.1643 36.2668C54.159 36.1799 53.9237 36.1361 53.9905 36.2775C54.023 36.3336 54.1389 36.3265 54.1643 36.2668ZM54.3766 35.934C54.3406 35.8199 54.1993 35.8867 54.1738 35.9464C54.1283 36.1527 54.3837 36.0499 54.3766 35.934Z" fill="#FFFDEE"/>
<path d="M66.0101 37.8697L63.8952 37.9989C63.5783 38.0473 62.9883 37.9089 62.9876 38.3742C62.9739 39.102 63.5011 40.1166 64.349 39.7159C64.7493 39.6042 64.7772 39.1082 65.1467 38.9693C65.7498 38.8452 66.3889 38.8353 67.0008 38.856C67.1167 38.849 67.2255 38.726 67.3485 38.8348C67.7251 38.8118 68.1017 38.7888 68.4783 38.7658C68.7101 38.7517 69.0867 38.7286 69.0772 39.0491C68.86 40.2546 68.2917 41.4234 67.2895 42.1534C65.7509 43.1488 63.7336 43.4465 62.0108 42.8538C60.3531 42.3735 59.2418 40.842 58.8223 39.2102C58.1634 36.517 58.7422 33.1376 61.3858 31.6676C63.0455 30.7521 65.3158 30.7879 66.8984 31.9416C68.5696 33.119 69.1097 35.296 69.201 37.2677C69.2223 37.6154 68.8817 37.7525 68.5595 37.714L66.039 37.868L66.0101 37.8697ZM60.6301 35.9593C60.6626 36.0154 60.7241 36.0698 60.8075 36.0066C60.9997 35.8204 60.5799 35.6134 60.6301 35.9593ZM61.384 35.448C61.2682 35.455 61.2752 35.5709 61.3367 35.6253C61.4561 35.6762 61.4745 35.5006 61.384 35.448ZM61.9657 36.4011C61.9639 36.3721 61.9077 36.4047 61.9657 36.4011ZM63.8116 35.6777C64.0434 35.6636 64.2462 35.6512 64.4779 35.637C65.2223 35.4462 64.5266 34.5291 64.163 34.2896C63.6782 33.9702 63.0077 34.4183 62.9237 34.9468C62.6563 35.8064 63.176 35.7456 63.8116 35.6777ZM65.1047 35.4243C65.1591 35.3628 65.2152 35.3303 65.181 35.2451C65.1484 35.189 65.0036 35.1978 65.0071 35.2558C65.0107 35.3137 65.016 35.4006 65.1047 35.4243ZM65.5854 34.7261C65.4116 34.7367 65.3678 34.972 65.5742 35.0176C65.8095 35.0614 65.8769 34.7374 65.5854 34.7261ZM67.4884 35.8893C67.4955 36.0052 67.5789 35.942 67.6333 35.8805C67.5718 35.8261 67.4831 35.8024 67.4884 35.8893Z" fill="#FFFDEE"/>
<path d="M70.1165 38.9274L69.6529 31.3371C69.6335 31.0185 69.8854 30.8577 70.1768 30.869C71.3067 30.8 72.4365 30.7309 73.5664 30.6619C73.8596 30.7022 73.9388 31.0463 73.895 31.2816C73.8004 31.6363 73.9357 31.9479 73.8411 32.3026C73.8174 32.3913 73.8535 32.5054 73.8606 32.6213C73.8641 32.6793 73.9764 32.6142 73.9729 32.5563C74.2911 31.5773 74.9641 30.6929 75.9639 30.3992C76.1631 30.3289 76.3659 30.3165 76.5634 30.2172C76.6503 30.2119 76.7372 30.2066 76.8005 30.2899C76.9235 30.3987 76.963 30.5708 76.9737 30.7446C77.0462 31.9324 77.1188 33.1202 77.1931 34.337C77.3189 34.969 76.8158 34.8253 76.4014 34.7052C75.2485 34.3976 74.3781 35.3813 74.3874 36.4857C74.3162 38.1766 74.5672 39.906 74.6426 41.617C74.6585 41.8777 74.5621 42.2035 74.2724 42.2212C74.1565 42.2283 74.0407 42.2354 73.9283 42.3004C73.6421 42.376 73.3761 42.305 73.0882 42.3517C73.0013 42.357 72.9143 42.3623 72.8292 42.3966C72.7151 42.4326 72.6229 42.351 72.5105 42.416C72.3964 42.4521 72.3077 42.4284 72.1901 42.4065C72.0795 42.5005 71.8968 42.3663 71.7863 42.4603C71.7573 42.4621 71.6993 42.4656 71.6414 42.4691C71.5255 42.4762 71.4333 42.3946 71.3227 42.4886C70.9952 42.3632 70.3773 42.7208 70.3455 42.1993C70.28 41.1274 70.2145 40.0555 70.1491 38.9836L70.1165 38.9274ZM72.5907 35.6358C72.5907 35.6358 72.6522 35.6902 72.6812 35.6885C72.7391 35.6849 72.8426 35.475 72.6688 35.4857C72.6109 35.4892 72.5582 35.5796 72.56 35.6086L72.5907 35.6358Z" fill="#FFFDEE"/>
<path d="M85.1307 36.7018L83.0158 36.8309C82.6989 36.8794 82.1379 36.7392 82.1082 37.2062C82.0945 37.934 82.6217 38.9487 83.4696 38.5479C83.8699 38.4363 83.8978 37.9402 84.2673 37.8013C84.8704 37.6773 85.5095 37.6673 86.1214 37.6881C86.2373 37.681 86.3461 37.558 86.4691 37.6668C86.8457 37.6438 87.2223 37.6208 87.5989 37.5978C87.8307 37.5837 88.2073 37.5607 88.1978 37.8811C87.9806 39.0866 87.4123 40.2554 86.4101 40.9854C84.8715 41.9808 82.8542 42.2785 81.1315 41.6859C79.4737 41.2055 78.3624 39.6741 77.9429 38.0422C77.284 35.3491 77.8628 31.9697 80.5064 30.4997C82.1661 29.5841 84.4364 29.6199 86.019 30.7736C87.6902 31.951 88.2303 34.128 88.3216 36.0998C88.3429 36.4474 88.0023 36.5845 87.6801 36.546L85.1596 36.7L85.1307 36.7018ZM79.7797 34.7895C79.8122 34.8457 79.8737 34.9001 79.9571 34.8369C80.1493 34.6506 79.7295 34.4437 79.7797 34.7895ZM80.5046 34.28C80.3888 34.2871 80.3958 34.403 80.4573 34.4574C80.5767 34.5082 80.5951 34.3326 80.5046 34.28ZM81.1152 35.2314C81.1135 35.2024 81.0573 35.2349 81.1152 35.2314ZM82.9322 34.5097C83.164 34.4956 83.3668 34.4832 83.5985 34.4691C84.3429 34.2782 83.6761 33.3593 83.2836 33.1216C82.7988 32.8023 82.1283 33.2503 82.0443 33.7789C81.7769 34.6385 82.2966 34.5776 82.9322 34.5097ZM84.2542 34.2545C84.3086 34.193 84.3938 34.1588 84.3305 34.0754C84.298 34.0192 84.1821 34.0263 84.1567 34.086C84.1602 34.144 84.1656 34.2309 84.2542 34.2545ZM84.735 33.5564C84.5612 33.567 84.5174 33.8023 84.7237 33.8478C84.959 33.8916 84.9975 33.5694 84.735 33.5564ZM86.609 34.7214C86.6161 34.8372 86.6995 34.774 86.7539 34.7125C86.6924 34.6581 86.6037 34.6344 86.609 34.7214Z" fill="#FFFDEE"/>
<path d="M106.42 34.3837L106.746 39.7143C106.754 39.8592 106.762 39.975 106.682 40.0962C106.439 40.4019 105.883 40.3486 105.532 40.3119C105.414 40.29 105.271 40.3278 105.184 40.3331C104.816 40.5009 104.427 40.3212 104.083 40.4003C103.886 40.4996 103.674 40.3672 103.475 40.4375C103.19 40.5421 102.553 40.581 102.527 40.1465C102.471 39.7137 102.56 39.272 102.505 38.8393C102.373 38.5856 101.941 39.6007 101.803 39.7254C101.001 40.8794 99.2805 41.2752 98.0739 40.5638C96.5599 39.5804 96.034 37.6352 95.8427 35.9312C95.5538 34.0587 95.631 31.9894 96.6346 30.3288C97.2372 29.2452 98.5669 28.6405 99.776 28.9156C100.63 29.0961 101.194 29.7595 101.7 30.4265C101.763 30.5099 101.914 30.5879 101.932 30.4123C101.797 30.1008 101.835 29.7785 101.814 29.4309C101.738 29.1447 101.724 28.913 102.101 28.89C103.317 28.8156 104.563 28.7395 105.809 28.6635C106.07 28.6475 106.131 28.7019 106.145 28.9337L106.476 34.3512L106.42 34.3837ZM97.8231 37.4096C97.7941 37.4113 97.7379 37.4438 97.7107 37.4746C97.716 37.5615 97.8319 37.5544 97.8591 37.5237C97.9153 37.4912 97.8503 37.3788 97.7941 37.4113L97.8231 37.4096ZM102.102 34.6184C102.028 33.8959 102.01 33.1119 101.594 32.4976C101.312 32.1659 100.763 32.2284 100.493 32.5648C100.065 33.1725 100.084 33.9565 100.097 34.6536C100.026 34.9196 100.102 35.2058 100.091 35.4973C100.173 35.8993 100.202 36.3628 100.4 36.7578C100.705 37.4662 101.549 37.4728 101.881 36.7255C102.13 36.0415 102.086 35.3172 102.073 34.6202L102.102 34.6184ZM104.888 34.5354C104.763 34.3977 104.434 34.2433 104.332 34.4821C104.403 34.6814 104.851 34.8866 104.888 34.5354ZM104.381 33.3742C104.361 33.5208 104.598 33.5936 104.616 33.418C104.662 33.2116 104.396 33.1406 104.381 33.3742ZM105.113 30.1308C105.2 30.1255 105.342 30.0587 105.338 30.0008C105.329 29.8559 105.118 29.7234 105.005 29.7885C104.837 29.886 104.911 30.1432 105.113 30.1308ZM105.879 32.672C105.898 32.4964 105.747 32.4184 105.599 32.3693C105.48 32.3184 105.371 32.4414 105.318 32.5318L105.322 32.5898C105.418 32.7293 105.461 32.9593 105.665 32.9759C105.723 32.9723 105.776 32.8819 105.832 32.8494C105.919 32.8441 105.914 32.7572 105.906 32.6413L105.879 32.672ZM105.597 36.6149C105.542 36.6764 105.519 36.7651 105.606 36.7598C105.721 36.7527 105.658 36.6693 105.597 36.6149Z" fill="#FFFDEE"/>
<path d="M107.807 36.6254L107.344 29.0351C107.324 28.7165 107.576 28.5557 107.868 28.567C108.997 28.498 110.127 28.4289 111.257 28.3599C111.55 28.4002 111.63 28.7443 111.586 28.9796C111.491 29.3343 111.627 29.6459 111.532 30.0006C111.508 30.0893 111.544 30.2034 111.551 30.3193C111.555 30.3773 111.667 30.3122 111.664 30.2543C111.982 29.2753 112.655 28.3909 113.655 28.0972C113.854 28.0269 114.057 28.0145 114.254 27.9152C114.341 27.9099 114.428 27.9046 114.491 27.9879C114.614 28.0967 114.654 28.2688 114.664 28.4426C114.737 29.6304 114.81 30.8182 114.884 32.035C115.01 32.667 114.507 32.5233 114.092 32.4032C112.939 32.0956 112.069 33.0793 112.078 34.1837C112.007 35.8746 112.258 37.604 112.333 39.315C112.349 39.5757 112.253 39.9015 111.963 39.9192C111.847 39.9263 111.731 39.9334 111.619 39.9984C111.333 40.074 111.067 40.003 110.779 40.0497C110.692 40.055 110.605 40.0603 110.52 40.0946C110.406 40.1306 110.314 40.049 110.201 40.114C110.087 40.1501 109.999 40.1264 109.881 40.1045C109.741 40.2003 109.588 40.0643 109.477 40.1583C109.448 40.1601 109.39 40.1636 109.332 40.1671C109.216 40.1742 109.124 40.0926 109.014 40.1866C108.686 40.0612 108.068 40.4188 108.036 39.8973C107.971 38.8254 107.905 37.7535 107.84 36.6816L107.807 36.6254ZM110.282 33.3338C110.282 33.3338 110.343 33.3882 110.372 33.3864C110.43 33.3829 110.533 33.173 110.36 33.1837C110.302 33.1872 110.249 33.2776 110.251 33.3066L110.282 33.3338Z" fill="#FFFDEE"/>
<path d="M122.821 34.3998L120.706 34.5289C120.39 34.5774 119.829 34.4372 119.799 34.9042C119.785 35.632 120.312 36.6467 121.16 36.2459C121.561 36.1342 121.588 35.6382 121.958 35.4993C122.561 35.3753 123.2 35.3653 123.812 35.3861C123.928 35.379 124.037 35.256 124.16 35.3648C124.536 35.3418 124.913 35.3188 125.29 35.2958C125.521 35.2817 125.898 35.2587 125.888 35.5791C125.671 36.7846 125.103 37.9534 124.101 38.6834C122.562 39.6788 120.545 39.9765 118.822 39.3838C117.164 38.9035 116.053 37.3721 115.634 35.7402C114.975 33.0471 115.553 29.6677 118.197 28.1977C119.857 27.2821 122.127 27.3179 123.71 28.4716C125.381 29.649 125.921 31.826 126.012 33.7978C126.034 34.1454 125.693 34.2825 125.371 34.244L122.85 34.398L122.821 34.3998ZM117.47 32.4875C117.503 32.5437 117.564 32.5981 117.648 32.5349C117.84 32.3486 117.42 32.1417 117.47 32.4875ZM118.195 31.978C118.079 31.9851 118.087 32.101 118.148 32.1554C118.267 32.2062 118.286 32.0306 118.195 31.978ZM118.806 32.9294C118.804 32.9004 118.748 32.9329 118.806 32.9294ZM120.623 32.2077C120.855 32.1936 121.057 32.1812 121.289 32.167C122.034 31.9762 121.367 31.0573 120.974 30.8196C120.49 30.5003 119.819 30.9483 119.735 31.4769C119.468 32.3365 119.987 32.2756 120.623 32.2077ZM121.945 31.9525C121.999 31.891 122.084 31.8568 122.021 31.7734C121.989 31.7172 121.873 31.7243 121.847 31.784C121.851 31.842 121.856 31.9289 121.945 31.9525ZM122.426 31.2544C122.252 31.265 122.208 31.5003 122.414 31.5458C122.65 31.5896 122.688 31.2674 122.426 31.2544ZM124.3 32.4194C124.307 32.5352 124.39 32.472 124.445 32.4105C124.383 32.3561 124.294 32.3324 124.3 32.4194Z" fill="#FFFDEE"/>
<path d="M143.68 29.3163C143.862 30.3811 143.871 31.4855 143.936 32.5574C144.035 34.1798 144.133 35.7732 144.232 37.3955C144.331 39.0179 144.244 37.5983 144.249 37.6852C144.206 37.9205 144.095 38.0145 143.805 38.0322L140.561 38.2304C140.503 38.234 140.474 38.2357 140.416 38.2393C140.242 38.2499 140.063 38.1736 140.02 37.9436C140.013 37.8277 139.948 37.7154 139.941 37.5995L139.583 31.7474C139.571 31.5446 139.56 31.3708 139.461 31.1733C139.257 30.6914 138.642 30.6127 138.29 31.0413C138.128 31.2547 138.055 31.4918 138.013 31.7561C137.973 32.0493 137.964 32.3698 138.01 32.6577C138.026 32.9184 138.042 33.1792 138.116 33.4364C138.123 33.5522 138.132 33.6971 138.141 33.8419C138.08 34.2818 138.163 34.6839 138.19 35.1184C138.218 35.5819 138.246 36.0455 138.275 36.509C138.303 36.9725 138.335 37.494 138.394 37.9847C138.408 38.2165 138.303 38.3974 138.073 38.4405C138.015 38.4441 137.928 38.4494 137.841 38.4547C136.798 38.5184 135.755 38.5821 134.741 38.644C134.683 38.6476 134.596 38.6529 134.509 38.6582C134.249 38.6741 134.124 38.5363 134.11 38.3046C134.104 38.2176 134.099 38.1307 134.094 38.0438L133.485 28.0779C133.478 27.9621 133.469 27.8172 133.431 27.6741C133.356 27.388 133.486 27.1473 133.802 27.0699C134.001 26.9996 134.204 26.9872 134.439 27.031C134.673 27.0458 134.902 27.0027 135.163 26.9868L137.133 26.8664C137.22 26.8611 137.336 26.8541 137.423 26.8488C137.597 26.8381 137.72 26.9469 137.701 27.1225C137.726 27.5281 137.809 27.9302 137.72 28.3718C137.723 28.4297 137.728 28.5167 137.734 28.6036C137.737 28.6615 137.799 28.7159 137.804 28.8028C137.86 28.7703 137.915 28.7088 137.942 28.6781C138.072 28.4375 138.201 28.1679 138.361 27.9255C138.521 27.6831 138.682 27.4697 138.844 27.2563C139.195 26.8277 139.681 26.6818 140.193 26.5051C140.907 26.287 141.584 26.4201 142.186 26.7614C142.731 27.1061 143.138 27.5756 143.407 28.1698C143.576 28.5666 143.659 28.9686 143.743 29.3997L143.68 29.3163ZM136.944 32.8101C136.938 32.7232 136.93 32.5783 136.812 32.5564C136.671 32.6232 136.716 32.8822 136.753 33.0252C136.753 33.0252 136.813 33.0507 136.842 33.0489C136.958 33.0418 136.949 32.897 136.944 32.8101ZM137.426 35.9502C137.402 35.5446 136.885 36.1286 137.29 36.1039C137.406 36.0968 137.433 36.066 137.426 35.9502ZM137.66 37.3898C137.598 37.3354 137.51 37.3118 137.515 37.3987C137.52 37.4856 137.605 37.4513 137.66 37.3898ZM137.264 29.0103C137.262 28.9813 137.206 29.0138 137.264 29.0103ZM140.592 33.0234C140.585 32.9076 140.501 32.9708 140.447 33.0323C140.508 33.0867 140.599 33.1393 140.592 33.0234ZM140.677 32.5239C140.616 32.4695 140.554 32.4151 140.533 32.5327C140.54 32.6486 140.623 32.5853 140.677 32.5239ZM142.034 28.0792C141.89 28.088 141.904 28.3198 142.049 28.3109C142.193 28.3021 142.179 28.0703 142.034 28.0792ZM142.368 31.6355C142.371 31.6934 142.339 31.6373 142.368 31.6355Z" fill="#FFFDEE"/>
<path d="M155.481 31.6198C155.951 35.982 152.402 38.8158 148.256 37.586C146.032 36.8786 145.001 34.7607 144.753 32.5949C144.733 32.2763 144.714 31.9576 144.694 31.6389C144.745 31.5195 144.74 31.4326 144.733 31.3167C144.703 30.8242 144.877 30.3483 144.878 29.883C145.235 28.5817 145.997 27.2557 147.175 26.544C148.434 25.7401 150.026 25.6139 151.438 25.8766C154.029 26.4162 155.472 29.0905 155.48 31.5908L155.481 31.6198ZM145.96 29.9913C145.874 29.9966 145.795 30.1468 145.886 30.1994C146.002 30.1924 146.063 30.2468 146.154 30.2994C146.154 30.2994 146.242 30.3231 146.241 30.2941C146.377 30.1404 146.107 30.0115 145.959 29.9624L145.96 29.9913ZM147.007 35.2197C146.98 35.2505 146.981 35.2795 147.014 35.3356C147.041 35.3049 147.039 35.2759 147.007 35.2197ZM148.649 34.0145C148.661 34.2173 148.75 34.2409 148.794 34.0056C148.758 33.8915 148.633 33.7537 148.649 34.0145ZM149.052 35.3856C149.11 35.382 149.056 35.4435 149.052 35.3856ZM151.303 31.7587C151.246 30.8317 151.177 29.7018 150.356 29.1122C149.75 28.7131 149.211 29.4148 149.04 29.9486C148.889 30.3359 148.885 30.7432 148.879 31.1216C148.777 31.8257 148.91 32.5737 149.095 33.2311C149.183 33.7201 149.447 34.2274 149.87 34.4924C151.218 35.137 151.41 32.5663 151.301 31.7297L151.303 31.7587ZM150.039 35.3544C149.947 35.2728 149.828 35.2219 149.836 35.3668C149.901 35.4791 149.987 35.4448 150.039 35.3544ZM153.644 29.144C153.579 29.0317 153.515 28.9483 153.437 29.0985C153.383 29.16 153.328 29.2214 153.45 29.3013C153.513 29.3846 153.709 29.2564 153.673 29.1423L153.644 29.144Z" fill="#FFFDEE"/>
<path d="M28.1099 52.4556C29.0932 52.3665 30.0633 52.5399 30.9862 52.8906C31.3409 52.9853 31.8186 53.1887 31.5537 53.612C31.2248 54.4172 30.9267 55.2496 30.5979 56.0548C30.3874 56.4166 30.0475 56.0884 29.8033 55.8998C29.6206 55.7656 29.4125 55.691 29.2316 55.5858C28.8426 55.406 28.0841 55.3651 28.0018 55.9226C27.9651 56.2738 28.1619 56.6398 28.5456 56.7327C29.9207 57.3466 31.4212 57.6329 32.1796 59.0987C32.2428 59.1821 32.2771 59.2672 32.2824 59.3541C32.339 60.2812 32.4554 61.2337 32.0142 62.1039C31.366 63.3939 30.025 64.29 28.5818 64.4654C28.3553 64.5665 28.1218 64.5516 27.89 64.5658C27.7741 64.5729 27.6582 64.58 27.5388 64.5291C27.5388 64.5291 27.4809 64.5326 27.4229 64.5362C26.8145 64.5733 26.1955 64.4367 25.6073 64.3272C25.0734 64.1563 24.5106 63.9871 24.0276 63.6967C23.8449 63.5625 23.8414 63.5045 23.9159 63.2964C24.2412 62.4333 24.6262 61.5956 24.9805 60.7306C25.1769 60.1371 25.7786 60.9436 26.1369 61.0962C26.7121 61.4682 28.3267 61.7185 28.1436 60.6247C27.9758 60.2569 27.5578 60.0789 27.1723 59.957C26.3417 59.6879 25.5382 59.388 24.8383 58.8783C23.5525 57.8228 23.3725 55.8273 24.3086 54.4907C25.1649 53.2752 26.6614 52.5441 28.1117 52.4846L28.1099 52.4556ZM28.7489 57.6798C28.8937 57.671 28.9955 57.4322 28.8181 57.3848C28.7004 57.3629 28.4581 57.2033 28.3493 57.3262C28.2949 57.3877 28.3563 57.4421 28.3888 57.4983C28.4828 57.6089 28.5479 57.7212 28.7489 57.6798Z" fill="#FFFDEE"/>
<path d="M38.2331 59.6596L38.4543 63.2809C38.472 63.5706 38.2763 63.6989 37.9848 63.6876C37.7803 63.671 37.5845 63.7993 37.3782 63.7537C37.1429 63.7099 36.9472 63.8382 36.7119 63.7944C36.5942 63.7725 36.4837 63.8665 36.3932 63.8139C36.272 63.7341 36.1342 63.8588 36.0148 63.8079C35.8103 63.7913 35.5891 63.9793 35.3775 63.8469C35.2616 63.8539 35.1764 63.8882 35.0623 63.9243C34.9754 63.9296 34.8832 63.848 34.7691 63.884C34.6567 63.949 34.5356 63.8692 34.4214 63.9052C34.2441 63.8579 34.114 63.6332 34.1324 63.4576L33.6936 56.2729C33.7055 55.5162 32.611 56.1646 32.4598 55.5922C32.4067 54.7231 32.3518 53.825 32.2987 52.9559C32.2793 52.6372 32.3828 52.4274 32.6997 52.3789C32.9894 52.3612 33.4582 52.4198 33.4317 51.9853C33.3874 51.261 33.3432 50.5368 33.3007 49.8415C33.2777 49.4648 33.1844 48.889 33.7402 48.9423C34.6672 48.8856 35.5943 48.829 36.5503 48.7706C36.8725 48.8091 37.4667 48.5402 37.582 48.9984C37.6333 49.8385 37.6828 50.6497 37.7341 51.4899C37.6968 52.3064 38.4051 52.0014 38.9012 52.0292C39.4332 52.1712 39.2167 52.9114 39.2995 53.3135C39.3331 53.8639 39.3649 54.3854 39.3985 54.9358C39.4092 55.1096 39.3601 55.258 39.2513 55.381C39.1425 55.5039 38.9633 55.4277 38.8238 55.5234C38.65 55.534 38.4401 55.4305 38.2733 55.557C37.9617 55.6924 38.0427 56.0655 38.0586 56.3262L38.2621 59.6578L38.2331 59.6596ZM33.9374 50.2678C33.876 50.2134 33.7855 50.1608 33.7926 50.2767C33.7997 50.3926 33.883 50.3293 33.9374 50.2678ZM34.3402 53.5291C34.326 53.2974 34.0127 53.4037 34.054 53.6048C34.1208 53.7461 34.3183 53.6468 34.3402 53.5291ZM35.0354 49.6774C35.3251 49.6597 35.3364 49.3682 35.0686 49.2682C34.9184 49.1902 34.8404 49.3403 34.7588 49.4325C34.7387 49.5792 34.8616 49.688 35.0354 49.6774ZM35.7417 59.8117C35.7092 59.7556 35.6548 59.8171 35.6258 59.8188C35.6329 59.9347 35.7162 59.8715 35.7417 59.8117ZM36.5709 49.5836C36.8316 49.5676 36.8736 49.3034 36.6638 49.1999C36.5118 49.0928 36.403 49.2158 36.3232 49.337C36.2741 49.4854 36.4278 49.6214 36.5726 49.6125L36.5709 49.5836ZM37.2209 59.7505C37.2209 59.7505 37.2499 59.7487 37.2771 59.718C37.2464 59.6908 37.2174 59.6925 37.1612 59.725C37.1612 59.725 37.1902 59.7233 37.2209 59.7505Z" fill="#FFFDEE"/>
<path d="M50.5528 55.2142C50.5963 56.4038 50.7593 57.6442 50.745 58.8373C50.8051 59.8223 50.5756 60.825 49.9245 61.5918C47.2405 64.7799 40.2711 63.9843 40.3523 59.1232C40.347 59.0363 40.3399 58.9204 40.3056 58.8352C40.3056 58.8352 40.3003 58.7483 40.2985 58.7193C40.3748 58.5402 40.3063 58.3699 40.2974 58.2251C40.2886 58.0802 40.3051 57.8757 40.2384 57.7343C40.2224 57.4736 40.2863 57.0917 40.1835 56.8363C40.1782 56.7493 40.2308 56.6589 40.1693 56.6045C40.0393 56.3798 40.1718 56.1682 40.1287 55.9382C40.0968 55.4167 40.1229 54.8917 39.9769 54.4063C39.9734 54.3483 39.9663 54.2324 39.961 54.1455C40.0161 53.6188 39.9517 53.0411 39.8619 52.5232C39.8986 52.172 39.888 51.9982 40.3226 51.9716C40.9889 51.9309 41.6552 51.8902 42.3505 51.8478C42.8193 51.9064 44.0438 51.4826 44.1679 52.0857C44.3745 54.5157 44.3239 57.0196 44.7315 59.4082C44.9206 60.1236 46.1119 60.109 46.303 59.4285C46.4923 58.7191 46.3593 57.9711 46.3151 57.2469C46.2355 55.9432 46.1559 54.6395 46.0762 53.3358C46.1295 52.7801 45.6189 51.5609 46.5512 51.5912C51.4254 51.4098 50.029 50.4483 50.5256 55.245L50.5528 55.2142ZM41.5887 54.1334C41.5816 54.0175 41.435 53.9973 41.4113 54.086C41.3368 54.2941 41.5106 54.2835 41.5887 54.1334ZM41.9078 58.8828C41.8463 58.8284 41.7849 58.774 41.763 58.8916C41.7701 59.0075 41.8534 58.9442 41.9078 58.8828ZM43.9231 56.1717C43.8836 55.9996 43.7405 56.0374 43.7203 56.1841C43.7257 56.271 43.8995 56.2603 43.9231 56.1717ZM47.2453 56.2886C47.1838 56.2342 47.1223 56.1798 47.1004 56.2975C47.1075 56.4134 47.1909 56.3501 47.2453 56.2886ZM47.6068 57.924C47.6051 57.8951 47.6323 57.8643 47.6015 57.8371C47.5454 57.8696 47.5761 57.8968 47.6068 57.924ZM47.8249 58.6377C47.8178 58.5218 47.6694 58.4727 47.6801 58.6465C47.6871 58.7624 47.8355 58.8115 47.8249 58.6377ZM48.1175 55.3339C47.9744 55.3717 47.8401 55.5544 48.021 55.6597C48.3486 55.7851 48.5301 55.425 48.1175 55.3339ZM48.5668 55.0738C48.5845 55.3635 48.9032 55.3441 48.8565 55.0561C48.7862 54.8569 48.6431 54.8947 48.5668 55.0738Z" fill="#FFFDEE"/>
<path d="M51.9279 59.6374C51.7651 56.9721 51.6023 54.3068 51.4395 51.6415C51.42 51.3228 51.7027 51.1892 51.9941 51.2005L55.1519 51.0076C56.0447 50.8659 55.5562 51.9135 55.7891 52.3936C56.6418 51.1202 57.0138 50.545 58.7012 50.5582C60.4843 50.711 61.5483 52.4198 62.0512 53.9884C62.1989 54.5028 62.2887 55.0208 62.3785 55.5387C62.3902 56.2068 62.5503 56.924 62.4462 57.5991C62.4887 58.2944 62.388 59.0276 62.168 59.7098C61.6397 62.0102 59.2964 63.6363 57.2167 61.9605C56.969 61.7139 56.7231 61.4963 56.5044 61.248C56.2277 61.0031 56.3624 61.78 56.4274 61.8924C56.5608 63.5999 56.6415 65.3978 56.7477 67.1361C56.7926 67.395 56.669 67.7515 56.3485 67.742C55.1897 67.8128 54.0598 67.8818 52.901 67.9526C52.6693 67.9667 52.4558 67.8053 52.4417 67.5735C52.4169 67.1679 52.3904 66.7334 52.3656 66.3278L51.9533 59.5777L51.9279 59.6374ZM54.2631 65.0197C54.0892 65.0303 54.1868 65.1988 54.2754 65.2225C54.3624 65.2172 54.4369 65.0091 54.2631 65.0197ZM55.0251 57.4999C54.9583 57.3586 54.8548 57.5685 54.8891 57.6536C54.8891 57.6536 54.9216 57.7098 54.9488 57.6791C55.0032 57.6176 55.0286 57.5579 55.0251 57.4999ZM55.9369 56.7173C55.9492 56.9201 55.9616 57.1229 55.974 57.3256C56.0715 57.4942 56.055 57.6987 56.0673 57.9015C56.1448 58.2167 56.2889 58.6731 56.5077 58.9215C56.7843 59.1663 56.7554 59.168 57.132 59.145C57.9976 59.034 58.009 57.3177 57.9394 56.6531C57.9902 56.5337 57.9542 56.4196 57.9181 56.3055C57.9708 56.215 57.9075 56.1316 57.904 56.0737C57.9004 56.0158 57.8934 55.8999 57.8881 55.813C57.871 55.058 57.2014 53.6159 56.2931 54.4565C56.0773 54.7313 56.0098 55.0553 55.9441 55.4083C55.9004 55.6436 55.9742 55.9008 55.9015 56.1379C55.9121 56.3117 55.9262 56.5434 55.9369 56.7173ZM60.3037 60.6088C60.2422 60.5544 60.1536 60.5307 60.1589 60.6176C60.1659 60.7335 60.2475 60.6413 60.3037 60.6088ZM60.4715 53.358C60.5294 53.3544 60.475 53.4159 60.4715 53.358ZM60.9244 56.9651C60.8902 56.88 60.7453 56.8888 60.7217 56.9775C60.7305 57.1224 60.8789 57.1715 60.9244 56.9651ZM60.8738 55.6597C60.8738 55.6597 60.8448 55.6615 60.8158 55.6632C60.8466 55.6904 60.8773 55.7176 60.9081 55.7448C60.9642 55.7123 60.901 55.6289 60.872 55.6307L60.8738 55.6597Z" fill="#FFFDEE"/>
<path d="M67.3496 46.9476C67.3081 48.1714 66.2112 49.2562 65.0216 49.2997C62.5952 49.5643 61.3381 46.1225 63.3787 44.7766C64.5749 43.8893 66.316 44.3064 67.0637 45.5983C67.2262 45.8792 67.2764 46.2251 67.381 46.5095C67.4136 46.5657 67.303 46.6596 67.3952 46.7412C67.4567 46.7956 67.4041 46.8861 67.3786 46.9458L67.3496 46.9476ZM62.9639 51.3155C62.9444 50.9969 62.9161 50.5333 63.3234 50.5375C64.4823 50.4668 65.6701 50.3942 66.8289 50.3234C67.4154 50.4039 67.1717 51.1749 67.2526 51.5479C67.2869 51.6331 67.2053 51.7253 67.2685 51.8087C67.3336 51.921 67.3424 52.0659 67.2933 52.2143C67.2223 52.4803 67.2962 52.7375 67.3139 53.0272C67.3535 53.1993 67.2772 53.3784 67.3457 53.5487C67.3818 53.6628 67.273 53.7857 67.3942 53.8656C67.4769 54.2676 67.3261 54.6549 67.436 55.0262C67.472 55.1403 67.3632 55.2632 67.4844 55.3431C67.4424 55.6074 67.4583 55.8681 67.5322 56.1253C67.5393 56.2412 67.4866 56.3316 67.4919 56.4185C67.4972 56.5054 67.5315 56.5906 67.5658 56.6757C67.5729 56.7916 67.4913 56.8838 67.5563 56.9962C67.6574 57.2226 67.5846 57.4597 67.6277 57.6897C67.6348 57.8056 67.6437 57.9504 67.62 58.0391C67.5402 58.1603 67.6903 58.2384 67.6395 58.3578C67.5868 58.4482 67.6501 58.5316 67.6572 58.6475C67.7565 58.845 67.6837 59.0821 67.6961 59.2849C67.8279 59.5385 67.6138 59.8424 67.7456 60.096C67.7799 60.1812 67.7563 60.2699 67.7616 60.3568C67.6941 60.6807 67.7934 60.8782 67.8129 61.1969C67.8164 61.2549 67.791 61.3146 67.8217 61.3418C67.8867 61.4541 67.8359 61.5735 67.843 61.6894C67.8571 61.9212 67.5384 61.9406 67.3356 61.953C67.1311 61.9364 67.0495 62.0287 66.8756 62.0393C66.6149 62.0552 66.3559 62.1001 66.0609 62.0309C65.9723 62.0072 65.8292 62.045 65.7423 62.0503C65.5992 62.0882 65.4851 62.1242 65.3367 62.0751C65.2787 62.0787 65.248 62.0515 65.1918 62.084C65.1356 62.1165 65.0777 62.12 65.018 62.0946C64.8678 62.0165 64.7354 62.2282 64.6124 62.1194C64.522 62.0667 64.4421 62.1879 64.3517 62.1353C64.3517 62.1353 64.2648 62.1406 64.2358 62.1424C64.0962 62.2381 63.9461 62.1601 63.8302 62.1671C63.5949 62.1233 63.55 61.8644 63.5666 61.6598L62.9384 51.3753L62.9639 51.3155ZM64.9557 51.0776C64.8943 51.0232 64.8328 50.9688 64.8109 51.0864C64.818 51.2023 64.9013 51.1391 64.9557 51.0776Z" fill="#FFFDEE"/>
<path d="M78.9767 52.1115C79.1342 54.6899 79.2916 57.2683 79.4491 59.8467C79.4449 60.254 79.6181 60.7087 79.4076 61.0705C79.2952 61.1355 79.1302 61.291 78.9818 61.2419C78.8914 61.1893 78.808 61.2525 78.7501 61.2561C78.484 61.1851 78.2286 61.2879 77.9679 61.3038C77.852 61.3109 77.7651 61.3162 77.6492 61.3233C77.5333 61.3304 77.4517 61.4226 77.3305 61.3428C77.1313 61.4131 76.9013 61.4562 76.6932 61.3817C76.5773 61.3888 76.436 61.4556 76.3165 61.4047C76.2296 61.41 76.1392 61.3574 76.0558 61.4206C75.9724 61.4839 75.8495 61.3751 75.7951 61.4366C75.7082 61.4419 75.6177 61.3892 75.5343 61.4525C75.4149 61.4016 75.1832 61.4158 75.1436 61.2437C75.1241 60.925 75.0757 60.6081 75.1449 60.3131C75.1413 60.2552 75.1378 60.1972 75.0763 60.1428L75.0184 60.1464C74.8262 60.3326 74.6648 60.546 74.5341 60.7866C74.2437 61.2696 73.7689 61.5894 73.2545 61.7371C70.6808 62.4468 69.1758 60.1834 68.7209 57.9721C68.5774 57.0503 68.4918 56.1251 68.4641 55.1962C68.4535 55.0224 68.5026 54.874 68.4938 54.7292C68.4831 54.5553 68.4708 54.3525 68.5181 54.1752C68.5857 52.4263 69.3872 50.3128 71.249 49.8501C72.9187 49.5737 73.5607 50.087 74.5366 51.3068C74.8317 51.376 74.4906 50.5536 74.5397 50.4052C74.3969 49.0181 74.455 47.5897 74.2252 46.208C74.1224 45.9526 74.3092 45.6794 74.2354 45.4222C74.2018 44.8718 74.1681 44.3214 74.1345 43.7709C74.1221 43.5681 74.2037 43.4759 74.3433 43.3801C75.5547 43.2189 76.8058 43.2297 78.0208 43.1265C78.3395 43.107 78.4766 43.4476 78.4653 43.739C78.6369 46.5492 78.8086 49.3593 78.9802 52.1695L78.9767 52.1115ZM71.9799 52.7715C71.8806 52.574 71.6418 52.4723 71.6323 52.7927C71.6447 52.9955 71.9651 53.005 71.9799 52.7715ZM72.1228 50.3493C72.1157 50.2334 71.855 50.2493 71.9235 50.4196C71.9306 50.5355 72.1913 50.5195 72.1228 50.3493ZM72.8056 59.1475C72.8038 59.1185 72.802 59.0895 72.802 59.0895C72.773 59.0913 72.7476 59.151 72.7204 59.1817C72.7529 59.2379 72.7784 59.1782 72.8363 59.1747L72.8056 59.1475ZM72.9462 55.7367C72.9851 56.374 73.024 57.0114 73.3202 57.5749C73.7428 58.3051 74.7189 58.1001 74.8739 57.3055C75.0674 56.1887 75.1351 54.4398 74.4376 53.4938C74.0994 53.1945 74.1899 53.2472 73.7536 53.2448C72.7467 53.4226 72.8694 54.9562 72.9172 55.7384L72.9462 55.7367ZM73.3612 51.5822C73.5351 51.5715 73.5481 51.309 73.3435 51.2924C73.1697 51.3031 73.1567 51.5656 73.3612 51.5822ZM74.8256 44.1358C74.8238 44.1068 74.7641 44.0814 74.7062 44.0849C74.5324 44.0956 74.6606 44.2913 74.7186 44.2877C74.7476 44.286 74.8002 44.1955 74.7966 44.1376L74.8256 44.1358ZM75.2463 46.2619C75.2622 46.5227 75.2746 46.7255 75.5537 46.5339C75.6406 46.5286 75.6932 46.4382 75.7169 46.3495C75.7843 46.0255 75.1908 45.8291 75.2752 46.2602L75.2463 46.2619ZM76.0632 47.2589C76.0561 47.143 75.877 47.0667 75.8137 46.9833C75.6618 46.8763 75.4785 47.2074 75.5145 47.3215C75.6446 47.5462 75.994 47.5539 76.065 47.2878L76.0632 47.2589ZM76.4631 57.6155C76.4667 57.6735 76.4342 57.6173 76.4631 57.6155ZM76.1169 43.8534C75.8272 43.8711 76.147 44.3459 76.312 44.1904C76.4497 44.0657 76.289 43.8138 76.1169 43.8534ZM77.9107 44.18C77.9905 44.0588 78.0414 43.9394 77.893 43.8903C77.7534 43.9861 77.8167 44.0694 77.9107 44.18ZM78.2137 46.2842C78.238 45.7303 77.8246 46.1045 78.0741 46.38C78.1066 46.4362 78.1935 46.4309 78.219 46.3712C78.2172 46.3422 78.2137 46.2842 78.2137 46.2842Z" fill="#FFFDEE"/>
<path d="M93.8393 62.1663C93.8046 61.1216 93.6232 60.0568 93.7061 59.0339C93.634 58.8057 93.3165 59.3194 93.2349 59.4117C92.4418 60.7105 90.6633 61.1099 89.3663 60.3458C88.2448 59.6001 87.5533 58.2757 87.3288 56.9809C87.1846 56.5244 87.1291 56.0916 87.1008 55.6281C87.0937 55.5122 86.969 55.3744 87.0778 55.2515C87.0512 54.8169 87.0537 54.3806 86.9982 53.9478C86.9911 53.8319 86.984 53.716 87.0366 53.6256C87.0048 53.1041 87.1485 52.601 87.2036 52.0742C87.5769 50.5684 88.49 48.8551 90.2247 48.691C91.3475 48.5061 92.3714 49.0833 92.953 50.0365C92.9855 50.0926 93.1067 50.1725 93.1594 50.082C93.1452 49.8503 93.16 49.6167 93.1169 49.3867C93.014 49.1313 93.1052 48.7186 93.4546 48.7264C94.5555 48.6591 95.6274 48.5937 96.6993 48.5282C96.931 48.514 97.3077 48.491 97.2982 48.8115C97.3773 49.1556 97.411 49.706 97.4032 50.0555C97.4138 50.2293 97.4824 50.3996 97.4333 50.548C97.8016 55.149 98.0031 59.8765 98.3152 64.51C98.3021 64.7725 98.3559 65.1763 98.0407 65.2537C96.8819 65.3245 95.7231 65.3953 94.5642 65.4661C94.2166 65.4873 94.0339 65.3531 94.0127 65.0054C93.9561 64.0784 93.8977 63.1223 93.8411 62.1953L93.8393 62.1663ZM88.4087 55.1411C88.3726 55.027 88.1734 55.0973 88.2094 55.2114C88.22 55.3852 88.4447 55.2552 88.4087 55.1411ZM90.3055 54.2983C90.4503 54.2894 90.5319 54.1972 90.4379 54.0866C90.2895 54.0375 90.1033 53.8454 89.9963 53.9973C89.8893 54.1492 90.1896 54.3054 90.3037 54.2693L90.3055 54.2983ZM90.2004 53.0543C90.1862 52.8225 90.0414 52.8314 89.9651 53.0105C89.9467 53.1861 90.1495 53.1737 90.2004 53.0543ZM90.7809 49.7039C90.8678 49.6986 90.9494 49.6064 90.9441 49.5194C90.9027 49.3184 90.4989 49.3722 90.5113 49.575C90.5473 49.6891 90.665 49.711 90.8081 49.6731L90.7809 49.7039ZM91.3002 56.3021C91.2387 56.2477 91.1773 56.1933 91.1554 56.311C91.1624 56.4268 91.2458 56.3636 91.3002 56.3021ZM91.4598 52.2504C91.4421 51.9607 91.1542 52.0074 90.955 52.0777C90.7882 52.2042 90.9762 52.4254 91.0974 52.5052C91.2493 52.6122 91.4415 52.426 91.4598 52.2504ZM91.4601 54.6349C91.5043 55.3591 91.5793 56.1106 92.051 56.6924C92.3365 57.0821 93.0318 57.0396 93.237 56.5909C93.5546 56.0772 93.4577 55.4434 93.4803 54.8604C93.5767 54.5347 93.4124 54.2248 93.4509 53.9026C93.3551 53.7631 93.3735 53.5875 93.3646 53.4426C93.2967 52.807 92.8257 51.7599 92.0339 52.1281C91.3143 52.7246 91.4377 53.7929 91.4311 54.6366L91.4601 54.6349ZM94.3315 55.9425C94.335 56.0004 94.3025 55.9443 94.3315 55.9425ZM96.2369 56.6694C96.2316 56.5825 96.1991 56.5263 96.1087 56.4737C96.0507 56.4772 95.9709 56.5984 95.9455 56.6581C95.8928 56.7486 96.0211 56.9443 96.1045 56.881C96.1589 56.8195 96.2422 56.7563 96.208 56.6712L96.2369 56.6694ZM96.0927 52.4036C96.1542 52.458 96.2446 52.5107 96.2376 52.3948C96.2305 52.2789 96.1471 52.3421 96.0927 52.4036Z" fill="#FFFDEE"/>
<path d="M109.073 51.6397C109.117 52.8293 109.28 54.0697 109.266 55.2628C109.326 56.2478 109.096 57.2505 108.445 58.0173C105.761 61.2054 98.7917 60.4097 98.8728 55.5487C98.8675 55.4617 98.8604 55.3459 98.8262 55.2607C98.8262 55.2607 98.8209 55.1738 98.8191 55.1448C98.8954 54.9657 98.8268 54.7954 98.818 54.6506C98.8091 54.5057 98.8257 54.3011 98.7589 54.1598C98.743 53.8991 98.8069 53.5172 98.7041 53.2617C98.6988 53.1748 98.7514 53.0844 98.6899 53.03C98.5309 52.8071 98.6923 52.5936 98.6492 52.3637C98.5884 51.844 98.6435 51.3172 98.4975 50.8318C98.465 50.7756 98.4869 50.6579 98.4816 50.571C98.5366 50.0442 98.4723 49.4666 98.3825 48.9487C98.4192 48.5975 98.4086 48.4237 98.8431 48.3971C99.5095 48.3564 100.176 48.3157 100.871 48.2732C101.34 48.3318 102.564 47.9081 102.688 48.5112C102.895 50.9412 102.844 53.445 103.252 55.8337C103.441 56.5491 104.632 56.5345 104.824 55.854C105.013 55.1446 104.88 54.3966 104.836 53.6724C104.756 52.3687 104.676 51.065 104.597 49.7613C104.65 49.2056 104.139 47.9864 105.072 48.0167C109.946 47.8353 108.55 46.8737 109.046 51.6705L109.073 51.6397ZM100.138 50.5571C100.131 50.4412 99.9845 50.4211 99.9608 50.5097C99.8863 50.7178 100.06 50.7072 100.138 50.5571ZM100.428 55.3082C100.367 55.2538 100.276 55.2012 100.284 55.3171C100.291 55.433 100.374 55.3697 100.428 55.3082ZM102.444 52.5972C102.404 52.4251 102.261 52.4629 102.241 52.6095C102.246 52.6964 102.42 52.6858 102.444 52.5972ZM105.795 52.7123C105.733 52.6579 105.643 52.6053 105.65 52.7212C105.657 52.8371 105.74 52.7738 105.795 52.7123ZM106.127 54.3495C106.126 54.3205 106.153 54.2898 106.122 54.2626C106.066 54.2951 106.097 54.3223 106.127 54.3495ZM106.374 55.0614C106.367 54.9455 106.219 54.8964 106.23 55.0702C106.237 55.1861 106.385 55.2352 106.374 55.0614ZM106.667 51.7576C106.524 51.7954 106.39 51.9781 106.542 52.0852C106.869 52.2105 107.051 51.8505 106.667 51.7576ZM107.116 51.4976C107.134 51.7873 107.453 51.7678 107.406 51.4799C107.336 51.2806 107.193 51.3184 107.116 51.4976Z" fill="#FFFDEE"/>
<path d="M117.415 53.951L115.3 54.0802C114.983 54.1286 114.422 53.9884 114.392 54.4555C114.379 55.1833 114.906 56.1979 115.754 55.7972C116.154 55.6855 116.182 55.1895 116.551 55.0506C117.154 54.9265 117.794 54.9166 118.405 54.9374C118.521 54.9303 118.63 54.8073 118.753 54.9161C119.13 54.8931 119.506 54.8701 119.883 54.8471C120.115 54.833 120.491 54.8099 120.482 55.1304C120.265 56.3359 119.696 57.5047 118.694 58.2347C117.156 59.2301 115.138 59.5278 113.416 58.9351C111.758 58.4548 110.646 56.9233 110.227 55.2915C109.568 52.5983 110.147 49.2189 112.79 47.7489C114.45 46.8334 116.72 46.8692 118.303 48.0229C119.974 49.2003 120.514 51.3773 120.606 53.349C120.627 53.6967 120.286 53.8338 119.964 53.7953L117.444 53.9493L117.415 53.951ZM112.037 52.0695C112.069 52.1257 112.131 52.1801 112.214 52.1169C112.406 51.9307 111.986 51.7237 112.037 52.0695ZM112.76 51.531C112.644 51.5381 112.651 51.654 112.712 51.7084C112.832 51.7593 112.85 51.5837 112.76 51.531ZM113.37 52.4824C113.369 52.4534 113.312 52.486 113.37 52.4824ZM115.187 51.7608C115.419 51.7466 115.622 51.7342 115.854 51.7201C116.598 51.5292 115.931 50.6104 115.539 50.3726C115.054 50.0533 114.383 50.5013 114.299 51.0299C114.032 51.8895 114.552 51.8287 115.187 51.7608ZM116.511 51.5345C116.567 51.502 116.651 51.4388 116.587 51.3554C116.555 51.2992 116.439 51.3063 116.414 51.366C116.417 51.424 116.422 51.5109 116.511 51.5345ZM116.992 50.8364C116.818 50.847 116.774 51.0823 116.981 51.1278C117.216 51.1716 117.254 50.8494 116.992 50.8364ZM118.893 51.9706C118.9 52.0865 118.982 51.9943 119.038 51.9618C118.976 51.9074 118.888 51.8837 118.893 51.9706Z" fill="#FFFDEE"/>
<path d="M125.48 46.5084C126.463 46.4193 127.405 46.5944 128.356 46.9434C128.711 47.0381 129.189 47.2415 128.953 47.663C128.624 48.4682 128.326 49.3006 127.997 50.1058C127.787 50.4677 127.418 50.1412 127.202 49.9508C127.02 49.8166 126.812 49.7421 126.631 49.6368C126.242 49.457 125.483 49.4161 125.401 49.9736C125.364 50.3248 125.561 50.6908 125.945 50.7837C127.32 51.3976 128.82 51.684 129.579 53.1497C129.642 53.2331 129.676 53.3183 129.682 53.4052C129.738 54.3322 129.855 55.2847 129.413 56.1549C128.765 57.4449 127.424 58.341 125.981 58.5164C125.754 58.6175 125.521 58.6027 125.289 58.6168C125.173 58.6239 125.057 58.631 124.938 58.5801C124.909 58.5819 124.88 58.5837 124.822 58.5872C124.214 58.6243 123.595 58.4877 123.006 58.3782C122.473 58.2073 121.91 58.0381 121.427 57.7477C121.244 57.6135 121.241 57.5556 121.315 57.3475C121.64 56.4843 122.025 55.6466 122.38 54.7817C122.605 54.1863 123.178 54.9946 123.536 55.1472C124.111 55.5192 125.726 55.7695 125.543 54.6757C125.375 54.3079 124.957 54.1299 124.571 54.0081C123.741 53.7389 122.937 53.4391 122.237 52.9293C120.952 51.8738 120.772 49.8784 121.708 48.5417C122.564 47.3263 124.061 46.5951 125.511 46.5356L125.48 46.5084ZM126.148 51.7309C126.293 51.722 126.395 51.4832 126.217 51.4359C126.1 51.414 125.857 51.2543 125.748 51.3773C125.694 51.4387 125.756 51.4931 125.788 51.5493C125.853 51.6617 125.947 51.7722 126.148 51.7309Z" fill="#FFFDEE"/>
<path d="M135.632 53.7105L135.854 57.3319C135.871 57.6216 135.676 57.7498 135.384 57.7386C135.179 57.722 134.984 57.8502 134.777 57.8047C134.542 57.7609 134.346 57.8892 134.111 57.8454C133.993 57.8235 133.883 57.9175 133.792 57.8649C133.671 57.785 133.533 57.9098 133.414 57.8589C133.209 57.8423 132.988 58.0303 132.777 57.8978C132.661 57.9049 132.576 57.9392 132.462 57.9752C132.375 57.9805 132.282 57.8989 132.168 57.935C132.056 58 131.935 57.9202 131.821 57.9562C131.643 57.9089 131.513 57.6842 131.503 57.5104L131.064 50.3257C131.076 49.5689 130.01 50.2155 129.83 49.645C129.777 48.7759 129.722 47.8778 129.669 47.0087C129.65 46.69 129.753 46.4801 130.07 46.4317C130.36 46.414 130.828 46.4726 130.773 46.0398C130.729 45.3155 130.684 44.5913 130.642 43.896C130.619 43.5193 130.526 42.9435 131.081 42.9968C132.008 42.9401 132.936 42.8835 133.892 42.8251C134.214 42.8636 134.808 42.5947 134.923 43.0529C134.975 43.893 135.024 44.7042 135.075 45.5444C135.038 46.3609 135.746 46.0559 136.242 46.0837C136.775 46.2257 136.558 46.9659 136.641 47.368C136.674 47.9184 136.706 48.4399 136.74 48.9903C136.75 49.1641 136.701 49.3125 136.593 49.4355C136.484 49.5584 136.305 49.4822 136.165 49.5779C135.991 49.5885 135.781 49.485 135.615 49.6115C135.303 49.7469 135.384 50.12 135.4 50.3807L135.603 53.7123L135.632 53.7105ZM131.337 44.3188C131.275 44.2644 131.185 44.2118 131.192 44.3276C131.199 44.4435 131.282 44.3803 131.337 44.3188ZM131.71 47.5819C131.696 47.3501 131.383 47.4565 131.424 47.6575C131.462 47.8006 131.689 47.6995 131.71 47.5819ZM132.406 43.7301C132.695 43.7124 132.707 43.4209 132.439 43.321C132.289 43.2429 132.211 43.3931 132.129 43.4853C132.109 43.6319 132.232 43.7407 132.406 43.7301ZM133.112 53.8645C133.079 53.8083 133.025 53.8698 132.996 53.8716C133.003 53.9874 133.086 53.9242 133.112 53.8645ZM133.97 43.6345C134.231 43.6186 134.273 43.3543 134.063 43.2508C133.911 43.1438 133.802 43.2668 133.722 43.388C133.673 43.5363 133.827 43.6724 133.972 43.6635L133.97 43.6345ZM134.591 53.8032C134.591 53.8032 134.62 53.8014 134.647 53.7707C134.617 53.7435 134.588 53.7453 134.531 53.7778C134.531 53.7778 134.56 53.776 134.591 53.8032Z" fill="#FFFDEE"/>
<path d="M141.804 42.4C141.762 43.6238 140.666 44.7086 139.476 44.7521C137.05 45.0167 135.792 41.5749 137.833 40.229C139.029 39.3417 140.77 39.7588 141.518 41.0507C141.681 41.3316 141.731 41.6775 141.835 41.9619C141.868 42.018 141.757 42.112 141.85 42.1936C141.911 42.248 141.858 42.3385 141.833 42.3982L141.804 42.4ZM137.418 46.7679C137.399 46.4493 137.37 45.9857 137.807 45.9882C138.966 45.9174 140.153 45.8448 141.312 45.7741C141.899 45.8546 141.655 46.6255 141.736 46.9986C141.77 47.0837 141.689 47.1759 141.752 47.2593C141.817 47.3716 141.826 47.5165 141.777 47.6649C141.706 47.9309 141.78 48.1881 141.797 48.4778C141.837 48.6499 141.76 48.829 141.829 48.9993C141.865 49.1134 141.756 49.2364 141.877 49.3162C141.96 49.7183 141.809 50.1055 141.919 50.4768C141.955 50.5909 141.847 50.7139 141.968 50.7937C141.926 51.058 141.942 51.3187 142.016 51.5759C142.023 51.6918 141.97 51.7822 141.975 51.8692C141.981 51.9561 142.015 52.0412 142.049 52.1264C142.056 52.2422 141.975 52.3345 142.04 52.4468C142.141 52.6733 142.068 52.9103 142.111 53.1403C142.118 53.2562 142.127 53.4011 142.103 53.4897C142.023 53.6109 142.174 53.689 142.123 53.8084C142.07 53.8989 142.133 53.9822 142.14 54.0981C142.24 54.2956 142.167 54.5327 142.179 54.7355C142.311 54.9891 142.097 55.293 142.229 55.5466C142.263 55.6318 142.24 55.7205 142.245 55.8074C142.177 56.1314 142.277 56.3289 142.296 56.6475C142.3 56.7055 142.274 56.7652 142.305 56.7924C142.37 56.9047 142.319 57.0241 142.326 57.14C142.34 57.3718 142.022 57.3913 141.819 57.4036C141.614 57.3871 141.533 57.4793 141.359 57.4899C141.098 57.5058 140.839 57.5507 140.544 57.4815C140.456 57.4578 140.312 57.4957 140.226 57.501C140.082 57.5388 139.968 57.5748 139.82 57.5257C139.762 57.5293 139.731 57.5021 139.675 57.5346C139.619 57.5671 139.561 57.5706 139.501 57.5452C139.351 57.4671 139.219 57.6788 139.096 57.57C139.005 57.5173 138.925 57.6385 138.806 57.5877C138.806 57.5877 138.719 57.593 138.69 57.5948C138.551 57.6905 138.4 57.6124 138.256 57.6213C138.02 57.5775 137.975 57.3185 137.992 57.114L137.364 46.8294L137.418 46.7679ZM139.41 46.53C139.349 46.4756 139.258 46.4229 139.265 46.5388C139.272 46.6547 139.356 46.5914 139.41 46.53Z" fill="#FFFDEE"/>
<path d="M153.638 50.9535C154.108 55.3157 150.559 58.1495 146.413 56.9198C144.189 56.2123 143.158 54.0944 142.909 51.9287C142.89 51.61 142.871 51.2913 142.851 50.9727C142.902 50.8532 142.897 50.7663 142.89 50.6504C142.86 50.1579 143.034 49.682 143.035 49.2167C143.391 47.9155 144.154 46.5895 145.331 45.8778C146.591 45.0739 148.183 44.9476 149.594 45.2103C152.186 45.7499 153.629 48.4242 153.636 50.9246L153.638 50.9535ZM144.146 49.3233C144.059 49.3286 143.981 49.4788 144.072 49.5314C144.188 49.5243 144.247 49.5498 144.339 49.6314C144.339 49.6314 144.428 49.655 144.426 49.6261C144.562 49.4724 144.293 49.3434 144.144 49.2943L144.146 49.3233ZM145.165 54.5825C145.138 54.6132 145.14 54.6422 145.172 54.6983C145.2 54.6676 145.198 54.6386 145.165 54.5825ZM146.807 53.3772C146.82 53.58 146.908 53.6036 146.952 53.3683C146.916 53.2542 146.791 53.1164 146.807 53.3772ZM147.24 54.7465C147.298 54.743 147.243 54.8045 147.24 54.7465ZM149.488 51.0907C149.432 50.1636 149.334 49.0355 148.541 48.4442C147.936 48.045 147.397 48.7467 147.226 49.2806C147.075 49.6678 147.071 50.0752 147.065 50.4536C146.963 51.1577 147.095 51.9056 147.281 52.5631C147.369 53.0521 147.633 53.5594 148.056 53.8243C149.404 54.469 149.596 51.8983 149.486 51.0617L149.488 51.0907ZM148.196 54.6881C148.104 54.6065 147.984 54.5557 147.993 54.7005C148.058 54.8129 148.143 54.7786 148.196 54.6881ZM151.802 48.5067C151.737 48.3944 151.674 48.311 151.596 48.4612C151.541 48.5227 151.487 48.5842 151.608 48.664C151.671 48.7474 151.867 48.6191 151.831 48.505L151.802 48.5067Z" fill="#FFFDEE"/>
<path d="M164.465 47.2969C164.646 48.3617 164.655 49.4661 164.721 50.538C164.82 52.1604 164.917 53.7538 165.016 55.3761C165.115 56.9985 165.029 55.5789 165.034 55.6658C164.99 55.9011 164.88 55.9951 164.59 56.0128L161.345 56.211C161.287 56.2145 161.258 56.2163 161.2 56.2198C160.996 56.2032 160.847 56.1542 160.804 55.9242C160.797 55.8083 160.732 55.6959 160.725 55.58L160.368 49.728C160.355 49.5252 160.345 49.3514 160.245 49.1539C160.012 48.6738 159.426 48.5933 159.074 49.0219C158.913 49.2353 158.84 49.4724 158.798 49.7366C158.758 50.0299 158.748 50.3503 158.795 50.6383C158.811 50.899 158.827 51.1597 158.9 51.4169C158.908 51.5328 158.916 51.6777 158.925 51.8225C158.865 52.2624 158.919 52.6662 159.003 53.0972C159.031 53.5607 159.06 54.0243 159.088 54.4878C159.116 54.9513 159.148 55.4728 159.178 55.9653C159.192 56.1971 159.087 56.378 158.857 56.4211C158.799 56.4246 158.712 56.4299 158.625 56.4353C157.582 56.499 156.54 56.5627 155.526 56.6246C155.468 56.6281 155.381 56.6334 155.294 56.6387C155.033 56.6547 154.908 56.5169 154.892 56.2562C154.887 56.1692 154.882 56.0823 154.876 55.9954L154.268 46.0295C154.261 45.9137 154.252 45.7688 154.185 45.6275C154.109 45.3413 154.24 45.1007 154.555 45.0233C154.756 44.9819 154.957 44.9406 155.193 44.9844C155.426 44.9992 155.656 44.9561 155.917 44.9401L157.887 44.8198C157.974 44.8145 158.09 44.8074 158.177 44.8021C158.35 44.7915 158.473 44.9003 158.455 45.0759C158.48 45.4815 158.564 45.9125 158.473 46.3252C158.477 46.3831 158.482 46.47 158.487 46.5569C158.491 46.6149 158.552 46.6693 158.558 46.7562C158.614 46.7237 158.639 46.664 158.695 46.6315C158.826 46.3909 158.955 46.1213 159.115 45.8789C159.274 45.6365 159.436 45.4231 159.597 45.2097C159.949 44.7811 160.433 44.6062 160.947 44.4584C161.661 44.2404 162.338 44.3735 162.94 44.7147C163.485 45.0595 163.92 45.5272 164.16 46.1232C164.33 46.52 164.413 46.922 164.497 47.353L164.465 47.2969ZM157.726 50.7617C157.721 50.6748 157.712 50.5299 157.595 50.508C157.453 50.5748 157.498 50.8338 157.536 50.9768C157.536 50.9768 157.596 51.0023 157.625 51.0005C157.741 50.9934 157.703 50.8503 157.726 50.7617ZM158.209 53.9018C158.184 53.4962 157.667 54.0802 158.073 54.0555C158.189 54.0484 158.216 54.0177 158.209 53.9018ZM158.444 55.3704C158.383 55.316 158.294 55.2924 158.299 55.3793C158.306 55.4951 158.39 55.4319 158.444 55.3704ZM158.047 46.9619C158.045 46.9329 157.989 46.9654 158.047 46.9619ZM161.376 51.004C161.369 50.8881 161.286 50.9514 161.231 51.0129C161.293 51.0673 161.383 51.1199 161.376 51.004ZM161.46 50.4755C161.399 50.4211 161.337 50.3667 161.315 50.4843C161.322 50.6002 161.406 50.5369 161.46 50.4755ZM162.819 46.0598C162.674 46.0686 162.688 46.3004 162.833 46.2915C162.978 46.2827 162.964 46.0509 162.819 46.0598ZM163.122 49.5889C163.125 49.6468 163.064 49.5924 163.122 49.5889Z" fill="#FFFDEE"/>
<path d="M169.95 43.7924C170.933 43.7032 171.903 43.8766 172.826 44.2273C173.181 44.322 173.659 44.5254 173.423 44.947C173.094 45.7522 172.796 46.5846 172.467 47.3898C172.256 47.7516 171.888 47.4252 171.672 47.2348C171.49 47.1005 171.282 47.026 171.101 46.9207C170.712 46.7409 169.953 46.7 169.871 47.2576C169.834 47.6087 170.031 47.9748 170.415 48.0676C171.79 48.6815 173.29 48.9679 174.049 50.4337C174.112 50.517 174.146 50.6022 174.151 50.6891C174.208 51.6162 174.324 52.5687 173.883 53.4389C173.235 54.7289 171.894 55.625 170.451 55.8003C170.224 55.9014 169.991 55.8866 169.759 55.9008C169.643 55.9078 169.527 55.9149 169.408 55.864C169.408 55.864 169.35 55.8676 169.292 55.8711C168.684 55.9083 168.065 55.7716 167.476 55.6622C166.942 55.4912 166.38 55.322 165.897 55.0317C165.714 54.8974 165.71 54.8395 165.785 54.6314C166.11 53.7682 166.495 52.9305 166.85 52.0656C167.046 51.472 167.648 52.2786 168.006 52.4312C168.581 52.8031 170.196 53.0534 170.013 51.9596C169.845 51.5919 169.427 51.4139 169.041 51.292C168.211 51.0229 167.407 50.723 166.707 50.2133C165.422 49.1577 165.242 47.1623 166.178 45.8257C167.034 44.6102 168.53 43.8791 169.981 43.8196L169.95 43.7924ZM170.618 49.0148C170.763 49.006 170.864 48.7671 170.687 48.7198C170.569 48.6979 170.327 48.5382 170.218 48.6612C170.164 48.7227 170.225 48.7771 170.258 48.8332C170.323 48.9456 170.417 49.0562 170.618 49.0148Z" fill="#FFFDEE"/>
<defs>
<filter id="filter0_f_1175_60" x="0.628662" y="1.59302" width="198.198" height="86.1138" filterUnits="userSpaceOnUse" color-interpolation-filters="sRGB">
<feFlood flood-opacity="0" result="BackgroundImageFix"/>
<feBlend mode="normal" in="SourceGraphic" in2="BackgroundImageFix" result="shape"/>
<feGaussianBlur stdDeviation="2" result="effect1_foregroundBlur_1175_60"/>
</filter>
<filter id="filter1_f_1175_60" x="1.4624" y="0.960693" width="198.198" height="86.1138" filterUnits="userSpaceOnUse" color-interpolation-filters="sRGB">
<feFlood flood-opacity="0" result="BackgroundImageFix"/>
<feBlend mode="normal" in="SourceGraphic" in2="BackgroundImageFix" result="shape"/>
<feGaussianBlur stdDeviation="2" result="effect1_foregroundBlur_1175_60"/>
</filter>
</defs>
</svg>
