<svg width="178" height="36" viewBox="0 0 178 36" fill="none" xmlns="http://www.w3.org/2000/svg">
<mask id="mask0_1409_2695" style="mask-type:alpha" maskUnits="userSpaceOnUse" x="0" y="0" width="36" height="36">
<rect width="35.4305" height="35.4305" fill="#D9D9D9"/>
</mask>
<g mask="url(#mask0_1409_2695)">
<path d="M11.2567 9.44872L15.3902 4.09724C15.6855 3.70356 16.0361 3.41446 16.4421 3.22993C16.848 3.04539 17.2725 2.95312 17.7154 2.95312C18.1582 2.95312 18.5827 3.04539 18.9886 3.22993C19.3946 3.41446 19.7452 3.70356 20.0405 4.09724L24.174 9.44872L30.4482 11.5524C31.0879 11.7492 31.5923 12.1122 31.9614 12.6412C32.3304 13.1702 32.515 13.7545 32.515 14.3942C32.515 14.6895 32.4719 14.9847 32.3858 15.28C32.2997 15.5753 32.1582 15.8582 31.9614 16.1289L27.9016 21.8863L28.0493 27.939C28.0739 28.8002 27.7909 29.526 27.2004 30.1165C26.6099 30.707 25.921 31.0023 25.1336 31.0023C25.0844 31.0023 24.8138 30.9654 24.3217 30.8916L17.7154 29.0462L11.109 30.8916C10.986 30.9408 10.8507 30.9715 10.7031 30.9838C10.5554 30.9961 10.4201 31.0023 10.2971 31.0023C9.50974 31.0023 8.82082 30.707 8.23031 30.1165C7.6398 29.526 7.35685 28.8002 7.38145 27.939L7.52908 21.8494L3.50624 16.1289C3.3094 15.8582 3.16793 15.5753 3.08181 15.28C2.99569 14.9847 2.95264 14.6895 2.95264 14.3942C2.95264 13.7791 3.13102 13.2071 3.48779 12.6781C3.84455 12.1491 4.34279 11.7739 4.98251 11.5524L11.2567 9.44872Z" fill="#1C1B1F"/>
</g>
<mask id="mask1_1409_2695" style="mask-type:alpha" maskUnits="userSpaceOnUse" x="35" y="0" width="37" height="36">
<rect x="35.5923" width="35.4305" height="35.4305" fill="#D9D9D9"/>
</mask>
<g mask="url(#mask1_1409_2695)">
<path d="M49.973 9.44872L54.1065 4.09724C54.4018 3.70356 54.7524 3.41446 55.1584 3.22993C55.5644 3.04539 55.9888 2.95312 56.4317 2.95312C56.8745 2.95312 57.299 3.04539 57.705 3.22993C58.1109 3.41446 58.4615 3.70356 58.7568 4.09724L62.8904 9.44872L69.1645 11.5524C69.8042 11.7492 70.3086 12.1122 70.6777 12.6412C71.0468 13.1702 71.2313 13.7545 71.2313 14.3942C71.2313 14.6895 71.1882 14.9847 71.1021 15.28C71.016 15.5753 70.8745 15.8582 70.6777 16.1289L66.6179 21.8863L66.7656 27.939C66.7902 28.8002 66.5072 29.526 65.9167 30.1165C65.3262 30.707 64.6373 31.0023 63.8499 31.0023C63.8007 31.0023 63.5301 30.9654 63.038 30.8916L56.4317 29.0462L49.8253 30.8916C49.7023 30.9408 49.567 30.9715 49.4194 30.9838C49.2717 30.9961 49.1364 31.0023 49.0134 31.0023C48.2261 31.0023 47.5371 30.707 46.9466 30.1165C46.3561 29.526 46.0732 28.8002 46.0978 27.939L46.2454 21.8494L42.2225 16.1289C42.0257 15.8582 41.8842 15.5753 41.7981 15.28C41.712 14.9847 41.6689 14.6895 41.6689 14.3942C41.6689 13.7791 41.8473 13.2071 42.2041 12.6781C42.5609 12.1491 43.0591 11.7739 43.6988 11.5524L49.973 9.44872Z" fill="#1C1B1F"/>
</g>
<mask id="mask2_1409_2695" style="mask-type:alpha" maskUnits="userSpaceOnUse" x="71" y="0" width="36" height="36">
<rect x="71.1841" width="35.4305" height="35.4305" fill="#D9D9D9"/>
</mask>
<g mask="url(#mask2_1409_2695)">
<path d="M85.5648 9.44872L89.6983 4.09724C89.9936 3.70356 90.3442 3.41446 90.7502 3.22993C91.1562 3.04539 91.5806 2.95312 92.0235 2.95312C92.4663 2.95312 92.8908 3.04539 93.2967 3.22993C93.7027 3.41446 94.0533 3.70356 94.3486 4.09724L98.4822 9.44872L104.756 11.5524C105.396 11.7492 105.9 12.1122 106.269 12.6412C106.639 13.1702 106.823 13.7545 106.823 14.3942C106.823 14.6895 106.78 14.9847 106.694 15.28C106.608 15.5753 106.466 15.8582 106.269 16.1289L102.21 21.8863L102.357 27.939C102.382 28.8002 102.099 29.526 101.509 30.1165C100.918 30.707 100.229 31.0023 99.4417 31.0023C99.3925 31.0023 99.1219 30.9654 98.6298 30.8916L92.0235 29.0462L85.4171 30.8916C85.2941 30.9408 85.1588 30.9715 85.0112 30.9838C84.8635 30.9961 84.7282 31.0023 84.6052 31.0023C83.8179 31.0023 83.1289 30.707 82.5384 30.1165C81.9479 29.526 81.665 28.8002 81.6896 27.939L81.8372 21.8494L77.8143 16.1289C77.6175 15.8582 77.476 15.5753 77.3899 15.28C77.3038 14.9847 77.2607 14.6895 77.2607 14.3942C77.2607 13.7791 77.4391 13.2071 77.7959 12.6781C78.1527 12.1491 78.6509 11.7739 79.2906 11.5524L85.5648 9.44872Z" fill="#1C1B1F"/>
</g>
<mask id="mask3_1409_2695" style="mask-type:alpha" maskUnits="userSpaceOnUse" x="106" y="0" width="37" height="36">
<rect x="106.776" width="35.4305" height="35.4305" fill="#D9D9D9"/>
</mask>
<g mask="url(#mask3_1409_2695)">
<path d="M121.157 9.44872L125.291 4.09724C125.586 3.70356 125.936 3.41446 126.342 3.22993C126.748 3.04539 127.173 2.95312 127.616 2.95312C128.059 2.95312 128.483 3.04539 128.889 3.22993C129.295 3.41446 129.646 3.70356 129.941 4.09724L134.074 9.44872L140.349 11.5524C140.988 11.7492 141.493 12.1122 141.862 12.6412C142.231 13.1702 142.415 13.7545 142.415 14.3942C142.415 14.6895 142.372 14.9847 142.286 15.28C142.2 15.5753 142.059 15.8582 141.862 16.1289L137.802 21.8863L137.95 27.939C137.974 28.8002 137.691 29.526 137.101 30.1165C136.51 30.707 135.821 31.0023 135.034 31.0023C134.985 31.0023 134.714 30.9654 134.222 30.8916L127.616 29.0462L121.009 30.8916C120.886 30.9408 120.751 30.9715 120.603 30.9838C120.456 30.9961 120.321 31.0023 120.197 31.0023C119.41 31.0023 118.721 30.707 118.131 30.1165C117.54 29.526 117.257 28.8002 117.282 27.939L117.429 21.8494L113.407 16.1289C113.21 15.8582 113.068 15.5753 112.982 15.28C112.896 14.9847 112.853 14.6895 112.853 14.3942C112.853 13.7791 113.031 13.2071 113.388 12.6781C113.745 12.1491 114.243 11.7739 114.883 11.5524L121.157 9.44872Z" fill="#1C1B1F"/>
</g>
<mask id="mask4_1409_2695" style="mask-type:alpha" maskUnits="userSpaceOnUse" x="142" y="0" width="36" height="36">
<rect x="142.368" width="35.4305" height="35.4305" fill="#D9D9D9"/>
</mask>
<g mask="url(#mask4_1409_2695)">
<path d="M156.749 9.44872L160.882 4.09724C161.178 3.70356 161.528 3.41446 161.934 3.22993C162.34 3.04539 162.765 2.95312 163.208 2.95312C163.65 2.95312 164.075 3.04539 164.481 3.22993C164.887 3.41446 165.237 3.70356 165.533 4.09724L169.666 9.44872L175.94 11.5524C176.58 11.7492 177.084 12.1122 177.454 12.6412C177.823 13.1702 178.007 13.7545 178.007 14.3942C178.007 14.6895 177.964 14.9847 177.878 15.28C177.792 15.5753 177.65 15.8582 177.454 16.1289L173.394 21.8863L173.541 27.939C173.566 28.8002 173.283 29.526 172.693 30.1165C172.102 30.707 171.413 31.0023 170.626 31.0023C170.577 31.0023 170.306 30.9654 169.814 30.8916L163.208 29.0462L156.601 30.8916C156.478 30.9408 156.343 30.9715 156.195 30.9838C156.048 30.9961 155.912 31.0023 155.789 31.0023C155.002 31.0023 154.313 30.707 153.722 30.1165C153.132 29.526 152.849 28.8002 152.874 27.939L153.021 21.8494L148.998 16.1289C148.802 15.8582 148.66 15.5753 148.574 15.28C148.488 14.9847 148.445 14.6895 148.445 14.3942C148.445 13.7791 148.623 13.2071 148.98 12.6781C149.337 12.1491 149.835 11.7739 150.475 11.5524L156.749 9.44872Z" fill="#1C1B1F"/>
</g>
</svg>
