<svg width="52" height="53" viewBox="0 0 52 53" fill="none" xmlns="http://www.w3.org/2000/svg">
<rect x="0.182617" y="0.591797" width="51.8174" height="51.8174" rx="11.515" fill="#2A2A2A"/>
<path d="M33.2941 38.1797C31.8947 39.5214 30.3668 39.3096 28.896 38.674C27.3396 38.0244 25.9116 37.9961 24.2695 38.674C22.2132 39.5496 21.128 39.2954 19.9 38.1797C12.9316 31.0759 13.9597 20.2578 21.8705 19.8624C23.7983 19.9612 25.1405 20.9074 26.2686 20.9922C27.9536 20.6532 29.5672 19.6788 31.3664 19.8059C33.5226 19.9753 35.1505 20.8227 36.2214 22.348C31.7662 24.989 32.8229 30.7935 36.9068 32.4176C36.0929 34.536 35.0362 36.6403 33.2799 38.1938L33.2941 38.1797ZM26.1258 19.7776C25.9116 16.6282 28.4962 14.0296 31.4664 13.7754C31.8805 17.4191 28.125 20.1307 26.1258 19.7776Z" fill="#FFF985"/>
</svg>
