<svg width="52" height="52" viewBox="0 0 52 52" fill="none" xmlns="http://www.w3.org/2000/svg">
<rect x="0.182617" width="51.8174" height="51.8174" rx="11.515" fill="#2A2A2A"/>
<path d="M33.2941 37.5879C31.8947 38.9296 30.3668 38.7178 28.896 38.0822C27.3396 37.4326 25.9116 37.4043 24.2695 38.0822C22.2132 38.9578 21.128 38.7036 19.9 37.5879C12.9316 30.4841 13.9597 19.666 21.8705 19.2706C23.7983 19.3694 25.1405 20.3156 26.2686 20.4004C27.9536 20.0614 29.5672 19.087 31.3664 19.2141C33.5226 19.3835 35.1505 20.2309 36.2214 21.7562C31.7662 24.3972 32.8229 30.2017 36.9068 31.8258C36.0929 33.9442 35.0362 36.0485 33.2799 37.6021L33.2941 37.5879ZM26.1258 19.1858C25.9116 16.0364 28.4962 13.4378 31.4664 13.1836C31.8805 16.8273 28.125 19.5389 26.1258 19.1858Z" fill="#FFFBA8"/>
</svg>
