<svg width="60" height="61" viewBox="0 0 60 61" fill="none" xmlns="http://www.w3.org/2000/svg">
<rect x="0.147461" y="0.574219" width="59.8523" height="59.8523" rx="13.3005" fill="#FFF985"/>
<path d="M38.393 43.9893C36.7766 45.539 35.0118 45.2943 33.313 44.5602C31.5151 43.8099 29.8658 43.7772 27.969 44.5602C25.5939 45.5716 24.3404 45.278 22.9219 43.9893C14.873 35.784 16.0606 23.2884 25.1981 22.8316C27.4247 22.9458 28.9751 24.0387 30.2781 24.1366C32.2244 23.7451 34.0882 22.6195 36.1664 22.7663C38.6569 22.9621 40.5372 23.9409 41.7742 25.7026C36.6282 28.7531 37.8487 35.4577 42.5659 37.3337C41.6258 39.7806 40.4052 42.2112 38.3765 44.0056L38.393 43.9893ZM30.1132 22.7337C29.8658 19.096 32.8511 16.0944 36.2818 15.8008C36.7601 20.0095 32.4223 23.1415 30.1132 22.7337Z" fill="#2A2A2A"/>
</svg>
