<svg width="60" height="61" viewBox="0 0 60 61" fill="none" xmlns="http://www.w3.org/2000/svg">
<rect x="0.0986328" y="0.574219" width="59.8523" height="59.8523" rx="13.3005" fill="#FFF985"/>
<path d="M17.9388 17.2976L31.121 31.0358L18.0368 44.9006C17.8233 44.6039 17.6572 44.272 17.5451 43.918C17.4863 43.517 17.4863 43.1088 17.5451 42.7078V19.1136C17.5059 18.4805 17.6431 17.8474 17.9373 17.2976M36.7996 25.0442L32.4965 29.5739L19.4712 15.9608C19.8935 15.8053 20.3459 15.762 20.7879 15.8358C21.4817 16.0377 22.1438 16.3487 22.7516 16.7542L34.5402 23.6866C35.3064 24.1242 36.053 24.5842 36.7996 25.0442ZM32.498 32.5184L36.78 36.9872L33.676 38.8241L24.2056 44.4181C23.4213 44.8781 22.634 45.3173 21.8678 45.819C21.54 46.0361 21.1724 46.1763 20.7895 46.2302C20.4066 46.2841 20.0173 46.2505 19.6476 46.1316L32.498 32.5184ZM43.5988 31.0358C43.6106 31.5964 43.4777 32.1498 43.2145 32.6358C42.9513 33.1219 42.5678 33.522 42.1056 33.7927L38.5673 35.8796L33.9113 31.0358L38.5869 26.1086C39.7859 26.8186 40.9654 27.5287 42.1433 28.1971C42.6134 28.4758 42.9994 28.8905 43.2568 29.3929C43.5141 29.8953 43.6337 30.4649 43.5988 31.0358Z" fill="#2A2A2A"/>
</svg>
