<svg width="53" height="53" viewBox="0 0 53 53" fill="none" xmlns="http://www.w3.org/2000/svg">
<rect x="0.208984" y="0.591797" width="51.8174" height="51.8174" rx="11.515" fill="#2A2A2A"/>
<path d="M15.6544 15.0713L27.067 26.9651L15.7393 38.9687C15.5544 38.7119 15.4106 38.4245 15.3136 38.118C15.2627 37.7709 15.2627 37.4174 15.3136 37.0703V16.6435C15.2796 16.0954 15.3985 15.5472 15.6531 15.0713M31.9832 21.778L28.2578 25.6996L16.9811 13.9139C17.3467 13.7793 17.7384 13.7419 18.121 13.8057C18.7217 13.9805 19.2949 14.2498 19.8212 14.6008L30.0272 20.6026C30.6905 20.9814 31.3369 21.3797 31.9832 21.778ZM28.2591 28.2488L31.9663 32.1176L29.279 33.7079L21.0799 38.551C20.4009 38.9492 19.7193 39.3295 19.056 39.7638C18.7722 39.9518 18.4539 40.0731 18.1224 40.1198C17.7909 40.1665 17.4539 40.1374 17.1339 40.0344L28.2591 28.2488ZM37.8697 26.9651C37.88 27.4505 37.7649 27.9296 37.537 28.3504C37.3091 28.7712 36.9771 29.1176 36.577 29.352L33.5136 31.1587L29.4827 26.9651L33.5306 22.6994C34.5687 23.3141 35.5898 23.9289 36.6096 24.5075C37.0166 24.7489 37.3508 25.1078 37.5736 25.5428C37.7964 25.9778 37.8999 26.471 37.8697 26.9651Z" fill="#FFF985"/>
</svg>
