<svg width="53" height="52" viewBox="0 0 53 52" fill="none" xmlns="http://www.w3.org/2000/svg">
<rect x="0.208984" width="51.8174" height="51.8174" rx="11.515" fill="#FFFBA8"/>
<path d="M15.6544 14.4795L27.067 26.3734L15.7393 38.3769C15.5544 38.1201 15.4106 37.8327 15.3136 37.5262C15.2627 37.1791 15.2627 36.8256 15.3136 36.4785V16.0517C15.2796 15.5036 15.3985 14.9554 15.6531 14.4795M31.9832 21.1862L28.2578 25.1078L16.9811 13.3221C17.3467 13.1875 17.7384 13.1501 18.121 13.2139C18.7217 13.3887 19.2949 13.658 19.8212 14.009L30.0272 20.0108C30.6905 20.3896 31.3369 20.7879 31.9832 21.1862ZM28.2591 27.657L31.9663 31.5258L29.279 33.1161L21.0799 37.9592C20.4009 38.3574 19.7193 38.7377 19.056 39.172C18.7722 39.36 18.4539 39.4814 18.1224 39.528C17.7909 39.5747 17.4539 39.5456 17.1339 39.4426L28.2591 27.657ZM37.8697 26.3734C37.88 26.8587 37.7649 27.3378 37.537 27.7586C37.3091 28.1794 36.9771 28.5258 36.577 28.7602L33.5136 30.5669L29.4827 26.3734L33.5306 22.1076C34.5687 22.7223 35.5898 23.3371 36.6096 23.9158C37.0166 24.1571 37.3508 24.516 37.5736 24.951C37.7964 25.386 37.8999 25.8792 37.8697 26.3734Z" fill="#2A2A2A"/>
</svg>
