<svg width="23" height="24" viewBox="0 0 23 24" fill="none" xmlns="http://www.w3.org/2000/svg">
<mask id="path-1-outside-1_2212_88" maskUnits="userSpaceOnUse" x="-1.25782" y="-0.884593" width="25.9601" height="25.9601" fill="black">
<rect fill="white" x="-1.25782" y="-0.884593" width="25.9601" height="25.9601"/>
<path d="M10.4083 21.5041C9.29316 21.3484 8.33618 20.919 7.53732 20.2159C6.73846 19.5129 6.12654 18.6477 5.70158 17.6204L3.97842 18.3208C3.71485 18.4274 3.44981 18.4173 3.18332 18.2904C2.91682 18.1636 2.73106 17.9674 2.62605 17.7018C2.52103 17.4361 2.52301 17.1675 2.63199 16.896C2.74097 16.6244 2.92725 16.4353 3.19082 16.3287L5.14147 15.5257C5.11621 15.325 5.10027 15.1211 5.09366 14.914C5.08705 14.707 5.07983 14.5043 5.07199 14.306L2.9289 14.0068C2.6327 13.9654 2.39853 13.8296 2.22639 13.5995C2.05426 13.3693 1.98906 13.1048 2.0308 12.8059C2.07254 12.507 2.20772 12.2704 2.43632 12.0962C2.66493 11.922 2.92733 11.8556 3.22353 11.8969L5.36662 12.1962C5.43093 11.9901 5.49463 11.7884 5.55772 11.5911C5.6208 11.3938 5.69198 11.202 5.77126 11.0159L4.11524 9.7092C3.89096 9.53448 3.76361 9.3016 3.7332 9.01056C3.70279 8.71952 3.77447 8.46066 3.94823 8.23398C4.12199 8.0073 4.35814 7.87448 4.65668 7.83551C4.95522 7.79654 5.21663 7.86441 5.44091 8.03913L6.85399 9.17751C7.02775 8.95083 7.22268 8.73159 7.43878 8.51979C7.65487 8.30798 7.87225 8.11876 8.09092 7.95213C8.07326 7.82419 8.07302 7.69868 8.09021 7.57561L8.14177 7.2064C8.2007 6.78443 8.31815 6.38857 8.49413 6.0188C8.67011 5.64904 8.88597 5.31173 9.1417 5.00687L8.28852 3.86602C8.12387 3.64586 8.05805 3.38572 8.09108 3.08561C8.12411 2.78551 8.2599 2.54456 8.49844 2.36278C8.71957 2.17857 8.97326 2.11093 9.25952 2.15987C9.54578 2.2088 9.77995 2.34457 9.96202 2.56717L10.9124 3.77537C11.2307 3.6585 11.5565 3.58301 11.8899 3.54891C12.2233 3.5148 12.5642 3.52208 12.9127 3.57075C13.2612 3.61941 13.5948 3.71081 13.9135 3.84495C14.2323 3.97909 14.5288 4.14596 14.8029 4.34556L16.0254 3.41393C16.2639 3.23215 16.522 3.16512 16.7995 3.21284C17.0771 3.26056 17.3057 3.40451 17.4853 3.64469C17.6475 3.88244 17.7133 4.14257 17.6827 4.4251C17.6522 4.70762 17.5176 4.93978 17.279 5.12156L16.146 5.98502C16.3084 6.34828 16.4192 6.73121 16.4785 7.13382C16.5377 7.53644 16.5378 7.94873 16.4789 8.37069L16.4292 8.72672C16.4132 8.841 16.3792 8.95724 16.3272 9.07545C16.4919 9.29561 16.6485 9.54154 16.797 9.81324C16.9456 10.0849 17.0724 10.3536 17.1774 10.6192L18.9006 9.91879C19.1641 9.8122 19.4298 9.81793 19.6975 9.93598C19.9653 10.054 20.1516 10.2459 20.2566 10.5115C20.3617 10.7771 20.3547 11.0495 20.2358 11.3286C20.1169 11.6078 19.9256 11.8006 19.662 11.9072L17.7151 12.6839C17.7403 12.8846 17.7606 13.0891 17.776 13.2974C17.7913 13.5056 17.8016 13.7177 17.807 13.9335L19.9501 14.2328C20.2463 14.2742 20.4805 14.41 20.6526 14.6401C20.8247 14.8703 20.8899 15.1348 20.8482 15.4337C20.8065 15.7326 20.6713 15.9692 20.4427 16.1434C20.2141 16.3176 19.9517 16.384 19.6555 16.3426L17.5124 16.0434C17.4481 16.2495 17.3844 16.4512 17.3213 16.6485C17.2582 16.8458 17.187 17.0376 17.1077 17.2237L18.7638 18.5304C18.988 18.7051 19.1148 18.9424 19.144 19.2422C19.1731 19.542 19.1008 19.8053 18.9271 20.032C18.7533 20.2587 18.5221 20.3877 18.2335 20.4191C17.945 20.4505 17.6885 20.3788 17.4642 20.2041L15.9989 19.0584C15.3087 19.93 14.4832 20.5944 13.5223 21.0517C12.5614 21.5091 11.5234 21.6599 10.4083 21.5041ZM10.4329 6.82729C10.7463 6.74558 11.0771 6.69769 11.4255 6.6836C11.7738 6.66951 12.1223 6.6868 12.4707 6.73546C12.8192 6.78413 13.1509 6.85734 13.4659 6.9551C13.7809 7.05286 14.0778 7.18396 14.3569 7.34839C14.2739 6.92455 14.0767 6.55643 13.765 6.24404C13.4534 5.93165 13.0711 5.74382 12.618 5.68056C12.165 5.61729 11.7366 5.69637 11.3326 5.91779C10.9287 6.13921 10.6287 6.44238 10.4329 6.82729ZM10.7029 19.3943C11.9748 19.5719 13.0646 19.1774 13.9723 18.2108C14.88 17.2442 15.4296 16.0751 15.6211 14.7038C15.793 13.473 15.6059 12.237 15.0599 10.9956C14.5138 9.75429 13.5526 9.0375 12.1761 8.84527C10.8171 8.65548 9.70118 9.07772 8.82844 10.112C7.95571 11.1462 7.43218 12.2875 7.25786 13.5358C7.06634 14.9072 7.27466 16.1821 7.88281 17.3604C8.49096 18.5387 9.43099 19.2167 10.7029 19.3943ZM10.9975 17.2845C10.7013 17.2431 10.4672 17.1074 10.295 16.8772C10.1229 16.647 10.0577 16.3825 10.0995 16.0836L10.6887 11.864C10.7305 11.5651 10.8656 11.3286 11.0942 11.1543C11.3229 10.9801 11.5853 10.9137 11.8815 10.9551C12.1777 10.9964 12.4118 11.1322 12.584 11.3624C12.7561 11.5926 12.8213 11.8571 12.7795 12.156L12.1903 16.3756C12.1485 16.6745 12.0134 16.911 11.7848 17.0852C11.5561 17.2595 11.2937 17.3259 10.9975 17.2845Z"/>
</mask>
<path d="M10.4083 21.5041C9.29316 21.3484 8.33618 20.919 7.53732 20.2159C6.73846 19.5129 6.12654 18.6477 5.70158 17.6204L3.97842 18.3208C3.71485 18.4274 3.44981 18.4173 3.18332 18.2904C2.91682 18.1636 2.73106 17.9674 2.62605 17.7018C2.52103 17.4361 2.52301 17.1675 2.63199 16.896C2.74097 16.6244 2.92725 16.4353 3.19082 16.3287L5.14147 15.5257C5.11621 15.325 5.10027 15.1211 5.09366 14.914C5.08705 14.707 5.07983 14.5043 5.07199 14.306L2.9289 14.0068C2.6327 13.9654 2.39853 13.8296 2.22639 13.5995C2.05426 13.3693 1.98906 13.1048 2.0308 12.8059C2.07254 12.507 2.20772 12.2704 2.43632 12.0962C2.66493 11.922 2.92733 11.8556 3.22353 11.8969L5.36662 12.1962C5.43093 11.9901 5.49463 11.7884 5.55772 11.5911C5.6208 11.3938 5.69198 11.202 5.77126 11.0159L4.11524 9.7092C3.89096 9.53448 3.76361 9.3016 3.7332 9.01056C3.70279 8.71952 3.77447 8.46066 3.94823 8.23398C4.12199 8.0073 4.35814 7.87448 4.65668 7.83551C4.95522 7.79654 5.21663 7.86441 5.44091 8.03913L6.85399 9.17751C7.02775 8.95083 7.22268 8.73159 7.43878 8.51979C7.65487 8.30798 7.87225 8.11876 8.09092 7.95213C8.07326 7.82419 8.07302 7.69868 8.09021 7.57561L8.14177 7.2064C8.2007 6.78443 8.31815 6.38857 8.49413 6.0188C8.67011 5.64904 8.88597 5.31173 9.1417 5.00687L8.28852 3.86602C8.12387 3.64586 8.05805 3.38572 8.09108 3.08561C8.12411 2.78551 8.2599 2.54456 8.49844 2.36278C8.71957 2.17857 8.97326 2.11093 9.25952 2.15987C9.54578 2.2088 9.77995 2.34457 9.96202 2.56717L10.9124 3.77537C11.2307 3.6585 11.5565 3.58301 11.8899 3.54891C12.2233 3.5148 12.5642 3.52208 12.9127 3.57075C13.2612 3.61941 13.5948 3.71081 13.9135 3.84495C14.2323 3.97909 14.5288 4.14596 14.8029 4.34556L16.0254 3.41393C16.2639 3.23215 16.522 3.16512 16.7995 3.21284C17.0771 3.26056 17.3057 3.40451 17.4853 3.64469C17.6475 3.88244 17.7133 4.14257 17.6827 4.4251C17.6522 4.70762 17.5176 4.93978 17.279 5.12156L16.146 5.98502C16.3084 6.34828 16.4192 6.73121 16.4785 7.13382C16.5377 7.53644 16.5378 7.94873 16.4789 8.37069L16.4292 8.72672C16.4132 8.841 16.3792 8.95724 16.3272 9.07545C16.4919 9.29561 16.6485 9.54154 16.797 9.81324C16.9456 10.0849 17.0724 10.3536 17.1774 10.6192L18.9006 9.91879C19.1641 9.8122 19.4298 9.81793 19.6975 9.93598C19.9653 10.054 20.1516 10.2459 20.2566 10.5115C20.3617 10.7771 20.3547 11.0495 20.2358 11.3286C20.1169 11.6078 19.9256 11.8006 19.662 11.9072L17.7151 12.6839C17.7403 12.8846 17.7606 13.0891 17.776 13.2974C17.7913 13.5056 17.8016 13.7177 17.807 13.9335L19.9501 14.2328C20.2463 14.2742 20.4805 14.41 20.6526 14.6401C20.8247 14.8703 20.8899 15.1348 20.8482 15.4337C20.8065 15.7326 20.6713 15.9692 20.4427 16.1434C20.2141 16.3176 19.9517 16.384 19.6555 16.3426L17.5124 16.0434C17.4481 16.2495 17.3844 16.4512 17.3213 16.6485C17.2582 16.8458 17.187 17.0376 17.1077 17.2237L18.7638 18.5304C18.988 18.7051 19.1148 18.9424 19.144 19.2422C19.1731 19.542 19.1008 19.8053 18.9271 20.032C18.7533 20.2587 18.5221 20.3877 18.2335 20.4191C17.945 20.4505 17.6885 20.3788 17.4642 20.2041L15.9989 19.0584C15.3087 19.93 14.4832 20.5944 13.5223 21.0517C12.5614 21.5091 11.5234 21.6599 10.4083 21.5041ZM10.4329 6.82729C10.7463 6.74558 11.0771 6.69769 11.4255 6.6836C11.7738 6.66951 12.1223 6.6868 12.4707 6.73546C12.8192 6.78413 13.1509 6.85734 13.4659 6.9551C13.7809 7.05286 14.0778 7.18396 14.3569 7.34839C14.2739 6.92455 14.0767 6.55643 13.765 6.24404C13.4534 5.93165 13.0711 5.74382 12.618 5.68056C12.165 5.61729 11.7366 5.69637 11.3326 5.91779C10.9287 6.13921 10.6287 6.44238 10.4329 6.82729ZM10.7029 19.3943C11.9748 19.5719 13.0646 19.1774 13.9723 18.2108C14.88 17.2442 15.4296 16.0751 15.6211 14.7038C15.793 13.473 15.6059 12.237 15.0599 10.9956C14.5138 9.75429 13.5526 9.0375 12.1761 8.84527C10.8171 8.65548 9.70118 9.07772 8.82844 10.112C7.95571 11.1462 7.43218 12.2875 7.25786 13.5358C7.06634 14.9072 7.27466 16.1821 7.88281 17.3604C8.49096 18.5387 9.43099 19.2167 10.7029 19.3943ZM10.9975 17.2845C10.7013 17.2431 10.4672 17.1074 10.295 16.8772C10.1229 16.647 10.0577 16.3825 10.0995 16.0836L10.6887 11.864C10.7305 11.5651 10.8656 11.3286 11.0942 11.1543C11.3229 10.9801 11.5853 10.9137 11.8815 10.9551C12.1777 10.9964 12.4118 11.1322 12.584 11.3624C12.7561 11.5926 12.8213 11.8571 12.7795 12.156L12.1903 16.3756C12.1485 16.6745 12.0134 16.911 11.7848 17.0852C11.5561 17.2595 11.2937 17.3259 10.9975 17.2845Z" fill="#2A2A2A"/>
<path d="M10.4083 21.5041C9.29316 21.3484 8.33618 20.919 7.53732 20.2159C6.73846 19.5129 6.12654 18.6477 5.70158 17.6204L3.97842 18.3208C3.71485 18.4274 3.44981 18.4173 3.18332 18.2904C2.91682 18.1636 2.73106 17.9674 2.62605 17.7018C2.52103 17.4361 2.52301 17.1675 2.63199 16.896C2.74097 16.6244 2.92725 16.4353 3.19082 16.3287L5.14147 15.5257C5.11621 15.325 5.10027 15.1211 5.09366 14.914C5.08705 14.707 5.07983 14.5043 5.07199 14.306L2.9289 14.0068C2.6327 13.9654 2.39853 13.8296 2.22639 13.5995C2.05426 13.3693 1.98906 13.1048 2.0308 12.8059C2.07254 12.507 2.20772 12.2704 2.43632 12.0962C2.66493 11.922 2.92733 11.8556 3.22353 11.8969L5.36662 12.1962C5.43093 11.9901 5.49463 11.7884 5.55772 11.5911C5.6208 11.3938 5.69198 11.202 5.77126 11.0159L4.11524 9.7092C3.89096 9.53448 3.76361 9.3016 3.7332 9.01056C3.70279 8.71952 3.77447 8.46066 3.94823 8.23398C4.12199 8.0073 4.35814 7.87448 4.65668 7.83551C4.95522 7.79654 5.21663 7.86441 5.44091 8.03913L6.85399 9.17751C7.02775 8.95083 7.22268 8.73159 7.43878 8.51979C7.65487 8.30798 7.87225 8.11876 8.09092 7.95213C8.07326 7.82419 8.07302 7.69868 8.09021 7.57561L8.14177 7.2064C8.2007 6.78443 8.31815 6.38857 8.49413 6.0188C8.67011 5.64904 8.88597 5.31173 9.1417 5.00687L8.28852 3.86602C8.12387 3.64586 8.05805 3.38572 8.09108 3.08561C8.12411 2.78551 8.2599 2.54456 8.49844 2.36278C8.71957 2.17857 8.97326 2.11093 9.25952 2.15987C9.54578 2.2088 9.77995 2.34457 9.96202 2.56717L10.9124 3.77537C11.2307 3.6585 11.5565 3.58301 11.8899 3.54891C12.2233 3.5148 12.5642 3.52208 12.9127 3.57075C13.2612 3.61941 13.5948 3.71081 13.9135 3.84495C14.2323 3.97909 14.5288 4.14596 14.8029 4.34556L16.0254 3.41393C16.2639 3.23215 16.522 3.16512 16.7995 3.21284C17.0771 3.26056 17.3057 3.40451 17.4853 3.64469C17.6475 3.88244 17.7133 4.14257 17.6827 4.4251C17.6522 4.70762 17.5176 4.93978 17.279 5.12156L16.146 5.98502C16.3084 6.34828 16.4192 6.73121 16.4785 7.13382C16.5377 7.53644 16.5378 7.94873 16.4789 8.37069L16.4292 8.72672C16.4132 8.841 16.3792 8.95724 16.3272 9.07545C16.4919 9.29561 16.6485 9.54154 16.797 9.81324C16.9456 10.0849 17.0724 10.3536 17.1774 10.6192L18.9006 9.91879C19.1641 9.8122 19.4298 9.81793 19.6975 9.93598C19.9653 10.054 20.1516 10.2459 20.2566 10.5115C20.3617 10.7771 20.3547 11.0495 20.2358 11.3286C20.1169 11.6078 19.9256 11.8006 19.662 11.9072L17.7151 12.6839C17.7403 12.8846 17.7606 13.0891 17.776 13.2974C17.7913 13.5056 17.8016 13.7177 17.807 13.9335L19.9501 14.2328C20.2463 14.2742 20.4805 14.41 20.6526 14.6401C20.8247 14.8703 20.8899 15.1348 20.8482 15.4337C20.8065 15.7326 20.6713 15.9692 20.4427 16.1434C20.2141 16.3176 19.9517 16.384 19.6555 16.3426L17.5124 16.0434C17.4481 16.2495 17.3844 16.4512 17.3213 16.6485C17.2582 16.8458 17.187 17.0376 17.1077 17.2237L18.7638 18.5304C18.988 18.7051 19.1148 18.9424 19.144 19.2422C19.1731 19.542 19.1008 19.8053 18.9271 20.032C18.7533 20.2587 18.5221 20.3877 18.2335 20.4191C17.945 20.4505 17.6885 20.3788 17.4642 20.2041L15.9989 19.0584C15.3087 19.93 14.4832 20.5944 13.5223 21.0517C12.5614 21.5091 11.5234 21.6599 10.4083 21.5041ZM10.4329 6.82729C10.7463 6.74558 11.0771 6.69769 11.4255 6.6836C11.7738 6.66951 12.1223 6.6868 12.4707 6.73546C12.8192 6.78413 13.1509 6.85734 13.4659 6.9551C13.7809 7.05286 14.0778 7.18396 14.3569 7.34839C14.2739 6.92455 14.0767 6.55643 13.765 6.24404C13.4534 5.93165 13.0711 5.74382 12.618 5.68056C12.165 5.61729 11.7366 5.69637 11.3326 5.91779C10.9287 6.13921 10.6287 6.44238 10.4329 6.82729ZM10.7029 19.3943C11.9748 19.5719 13.0646 19.1774 13.9723 18.2108C14.88 17.2442 15.4296 16.0751 15.6211 14.7038C15.793 13.473 15.6059 12.237 15.0599 10.9956C14.5138 9.75429 13.5526 9.0375 12.1761 8.84527C10.8171 8.65548 9.70118 9.07772 8.82844 10.112C7.95571 11.1462 7.43218 12.2875 7.25786 13.5358C7.06634 14.9072 7.27466 16.1821 7.88281 17.3604C8.49096 18.5387 9.43099 19.2167 10.7029 19.3943ZM10.9975 17.2845C10.7013 17.2431 10.4672 17.1074 10.295 16.8772C10.1229 16.647 10.0577 16.3825 10.0995 16.0836L10.6887 11.864C10.7305 11.5651 10.8656 11.3286 11.0942 11.1543C11.3229 10.9801 11.5853 10.9137 11.8815 10.9551C12.1777 10.9964 12.4118 11.1322 12.584 11.3624C12.7561 11.5926 12.8213 11.8571 12.7795 12.156L12.1903 16.3756C12.1485 16.6745 12.0134 16.911 11.7848 17.0852C11.5561 17.2595 11.2937 17.3259 10.9975 17.2845Z" stroke="#EAA2CD" stroke-width="4" mask="url(#path-1-outside-1_2212_88)"/>
</svg>
