<svg width="24" height="24" viewBox="0 0 24 24" fill="none" xmlns="http://www.w3.org/2000/svg">
<mask id="path-1-outside-1_2212_90" maskUnits="userSpaceOnUse" x="-1.25728" y="-0.883898" width="25.9587" height="25.9587" fill="black">
<rect fill="white" x="-1.25728" y="-0.883898" width="25.9587" height="25.9587"/>
<path d="M13.0354 21.5043C11.9203 21.6599 10.8823 21.509 9.9214 21.0517C8.96052 20.5943 8.13504 19.9298 7.44496 19.0582L5.97953 20.2038C5.75524 20.3785 5.49756 20.4413 5.20651 20.3923C4.91546 20.3433 4.68307 20.2055 4.50932 19.9788C4.33557 19.7521 4.26391 19.4932 4.29434 19.2022C4.32477 18.9112 4.45213 18.6783 4.67643 18.5036L6.33253 17.197C6.25327 17.0109 6.1821 16.8191 6.11903 16.6218C6.05596 16.4245 5.9935 16.2316 5.93166 16.043L3.78855 16.3422C3.49234 16.3835 3.22994 16.3171 3.00135 16.1428C2.77275 15.9686 2.6376 15.7321 2.59588 15.4332C2.55416 15.1343 2.61937 14.8697 2.79152 14.6396C2.96367 14.4094 3.19785 14.2737 3.49405 14.2323L5.63716 13.9332C5.64256 13.7173 5.64857 13.5059 5.6552 13.2988C5.66182 13.0918 5.67777 12.8879 5.70305 12.6872L3.75245 11.884C3.48888 11.7774 3.30262 11.5883 3.19366 11.3167C3.0847 11.0451 3.08273 10.7765 3.18776 10.5109C3.2928 10.2453 3.48354 10.0529 3.75998 9.93367C4.03643 9.81442 4.30643 9.8081 4.57 9.9147L6.24084 10.6225C6.34587 10.3569 6.47329 10.0927 6.62311 9.82978C6.77293 9.56688 6.93017 9.32536 7.09483 9.10521C7.04281 8.987 7.00821 8.86636 6.99103 8.74328L6.93949 8.37406C6.88059 7.9521 6.88513 7.5392 6.9531 7.13537C7.02108 6.73155 7.13629 6.34801 7.29875 5.98477L6.16571 5.12123C5.94706 4.95458 5.81251 4.72242 5.76208 4.42474C5.71165 4.12707 5.77625 3.85814 5.95588 3.61798C6.1181 3.38024 6.34356 3.2457 6.63228 3.21437C6.92099 3.18303 7.18339 3.24947 7.41947 3.41368L8.66441 4.31538C8.93853 4.1158 9.23123 3.95395 9.54253 3.82984C9.85382 3.70573 10.1837 3.61935 10.5322 3.57071C10.8807 3.52207 11.2265 3.5186 11.5699 3.5603C11.9132 3.602 12.244 3.6813 12.5623 3.79819L13.4829 2.56733C13.6625 2.32716 13.8924 2.19202 14.1724 2.1619C14.4524 2.13177 14.7116 2.20761 14.9502 2.38941C15.1713 2.57364 15.3058 2.8058 15.3538 3.0859C15.4018 3.36599 15.336 3.62612 15.1563 3.86629L14.3031 5.00709C14.5588 5.31196 14.7703 5.64989 14.9375 6.02089C15.1047 6.39188 15.2178 6.78836 15.2767 7.21033L15.3264 7.56636C15.3424 7.68064 15.3415 7.80175 15.3238 7.92969C15.5425 8.09634 15.7605 8.28997 15.9778 8.51058C16.1951 8.73119 16.3906 8.95484 16.5644 9.18153L18.0298 8.03595C18.2541 7.86124 18.5111 7.79399 18.801 7.8342C19.0908 7.8744 19.3226 8.00785 19.4963 8.23454C19.6701 8.46123 19.738 8.7251 19.7001 9.02615C19.6622 9.32719 19.5311 9.56507 19.3068 9.73977L17.647 11.02C17.7262 11.2061 17.8018 11.3972 17.8735 11.5934C17.9453 11.7895 18.0134 11.9906 18.0777 12.1967L20.2208 11.8976C20.517 11.8562 20.7794 11.9227 21.008 12.0969C21.2366 12.2711 21.3717 12.5077 21.4134 12.8066C21.4552 13.1054 21.39 13.37 21.2178 13.6001C21.0457 13.8303 20.8115 13.966 20.5153 14.0074L18.3722 14.3065C18.3668 14.5224 18.3608 14.7338 18.3541 14.9409C18.3475 15.1479 18.3316 15.3518 18.3063 15.5525L20.2569 16.3557C20.5204 16.4623 20.7073 16.6558 20.8175 16.9362C20.9277 17.2166 20.9303 17.4895 20.8252 17.7551C20.7202 18.0207 20.5332 18.2082 20.2642 18.3174C19.9953 18.4267 19.729 18.428 19.4655 18.3214L17.7424 17.6208C17.3173 18.6481 16.7053 19.5132 15.9064 20.2163C15.1075 20.9193 14.1505 21.3486 13.0354 21.5043ZM9.03916 7.38193C9.31818 7.21751 9.62328 7.08082 9.95445 6.97186C10.2856 6.8629 10.6255 6.7841 10.9739 6.73545C11.3224 6.68681 11.6615 6.66637 11.9912 6.67412C12.3209 6.68188 12.6424 6.72662 12.9558 6.80834C12.76 6.42342 12.4694 6.12341 12.0841 5.90832C11.6988 5.69323 11.2797 5.61731 10.8267 5.68054C10.3737 5.74377 9.98322 5.93719 9.65537 6.26078C9.32751 6.58437 9.12211 6.95809 9.03916 7.38193ZM12.7409 19.3944C14.0128 19.2169 14.9529 18.539 15.5611 17.3607C16.1694 16.1824 16.3778 14.9076 16.1863 13.5362C16.0146 12.3054 15.4961 11.1679 14.6309 10.1236C13.7657 9.07925 12.6449 8.65315 11.2684 8.84528C9.90937 9.03498 8.95181 9.74671 8.39573 10.9805C7.83965 12.2142 7.64874 13.4552 7.82298 14.7036C8.0144 16.0749 8.56393 17.244 9.47156 18.2107C10.3792 19.1774 11.469 19.572 12.7409 19.3944ZM12.4464 17.2846C12.1502 17.3259 11.8878 17.2595 11.6592 17.0853C11.4306 16.9111 11.2955 16.6745 11.2537 16.3756L10.6647 12.156C10.623 11.8571 10.6882 11.5925 10.8604 11.3624C11.0325 11.1322 11.2667 10.9965 11.5629 10.9551C11.8591 10.9138 12.1215 10.9802 12.3501 11.1544C12.5787 11.3287 12.7139 11.5652 12.7556 11.8641L13.3446 16.0838C13.3863 16.3827 13.3211 16.6472 13.1489 16.8773C12.9768 17.1075 12.7426 17.2433 12.4464 17.2846Z"/>
</mask>
<path d="M13.0354 21.5043C11.9203 21.6599 10.8823 21.509 9.9214 21.0517C8.96052 20.5943 8.13504 19.9298 7.44496 19.0582L5.97953 20.2038C5.75524 20.3785 5.49756 20.4413 5.20651 20.3923C4.91546 20.3433 4.68307 20.2055 4.50932 19.9788C4.33557 19.7521 4.26391 19.4932 4.29434 19.2022C4.32477 18.9112 4.45213 18.6783 4.67643 18.5036L6.33253 17.197C6.25327 17.0109 6.1821 16.8191 6.11903 16.6218C6.05596 16.4245 5.9935 16.2316 5.93166 16.043L3.78855 16.3422C3.49234 16.3835 3.22994 16.3171 3.00135 16.1428C2.77275 15.9686 2.6376 15.7321 2.59588 15.4332C2.55416 15.1343 2.61937 14.8697 2.79152 14.6396C2.96367 14.4094 3.19785 14.2737 3.49405 14.2323L5.63716 13.9332C5.64256 13.7173 5.64857 13.5059 5.6552 13.2988C5.66182 13.0918 5.67777 12.8879 5.70305 12.6872L3.75245 11.884C3.48888 11.7774 3.30262 11.5883 3.19366 11.3167C3.0847 11.0451 3.08273 10.7765 3.18776 10.5109C3.2928 10.2453 3.48354 10.0529 3.75998 9.93367C4.03643 9.81442 4.30643 9.8081 4.57 9.9147L6.24084 10.6225C6.34587 10.3569 6.47329 10.0927 6.62311 9.82978C6.77293 9.56688 6.93017 9.32536 7.09483 9.10521C7.04281 8.987 7.00821 8.86636 6.99103 8.74328L6.93949 8.37406C6.88059 7.9521 6.88513 7.5392 6.9531 7.13537C7.02108 6.73155 7.13629 6.34801 7.29875 5.98477L6.16571 5.12123C5.94706 4.95458 5.81251 4.72242 5.76208 4.42474C5.71165 4.12707 5.77625 3.85814 5.95588 3.61798C6.1181 3.38024 6.34356 3.2457 6.63228 3.21437C6.92099 3.18303 7.18339 3.24947 7.41947 3.41368L8.66441 4.31538C8.93853 4.1158 9.23123 3.95395 9.54253 3.82984C9.85382 3.70573 10.1837 3.61935 10.5322 3.57071C10.8807 3.52207 11.2265 3.5186 11.5699 3.5603C11.9132 3.602 12.244 3.6813 12.5623 3.79819L13.4829 2.56733C13.6625 2.32716 13.8924 2.19202 14.1724 2.1619C14.4524 2.13177 14.7116 2.20761 14.9502 2.38941C15.1713 2.57364 15.3058 2.8058 15.3538 3.0859C15.4018 3.36599 15.336 3.62612 15.1563 3.86629L14.3031 5.00709C14.5588 5.31196 14.7703 5.64989 14.9375 6.02089C15.1047 6.39188 15.2178 6.78836 15.2767 7.21033L15.3264 7.56636C15.3424 7.68064 15.3415 7.80175 15.3238 7.92969C15.5425 8.09634 15.7605 8.28997 15.9778 8.51058C16.1951 8.73119 16.3906 8.95484 16.5644 9.18153L18.0298 8.03595C18.2541 7.86124 18.5111 7.79399 18.801 7.8342C19.0908 7.8744 19.3226 8.00785 19.4963 8.23454C19.6701 8.46123 19.738 8.7251 19.7001 9.02615C19.6622 9.32719 19.5311 9.56507 19.3068 9.73977L17.647 11.02C17.7262 11.2061 17.8018 11.3972 17.8735 11.5934C17.9453 11.7895 18.0134 11.9906 18.0777 12.1967L20.2208 11.8976C20.517 11.8562 20.7794 11.9227 21.008 12.0969C21.2366 12.2711 21.3717 12.5077 21.4134 12.8066C21.4552 13.1054 21.39 13.37 21.2178 13.6001C21.0457 13.8303 20.8115 13.966 20.5153 14.0074L18.3722 14.3065C18.3668 14.5224 18.3608 14.7338 18.3541 14.9409C18.3475 15.1479 18.3316 15.3518 18.3063 15.5525L20.2569 16.3557C20.5204 16.4623 20.7073 16.6558 20.8175 16.9362C20.9277 17.2166 20.9303 17.4895 20.8252 17.7551C20.7202 18.0207 20.5332 18.2082 20.2642 18.3174C19.9953 18.4267 19.729 18.428 19.4655 18.3214L17.7424 17.6208C17.3173 18.6481 16.7053 19.5132 15.9064 20.2163C15.1075 20.9193 14.1505 21.3486 13.0354 21.5043ZM9.03916 7.38193C9.31818 7.21751 9.62328 7.08082 9.95445 6.97186C10.2856 6.8629 10.6255 6.7841 10.9739 6.73545C11.3224 6.68681 11.6615 6.66637 11.9912 6.67412C12.3209 6.68188 12.6424 6.72662 12.9558 6.80834C12.76 6.42342 12.4694 6.12341 12.0841 5.90832C11.6988 5.69323 11.2797 5.61731 10.8267 5.68054C10.3737 5.74377 9.98322 5.93719 9.65537 6.26078C9.32751 6.58437 9.12211 6.95809 9.03916 7.38193ZM12.7409 19.3944C14.0128 19.2169 14.9529 18.539 15.5611 17.3607C16.1694 16.1824 16.3778 14.9076 16.1863 13.5362C16.0146 12.3054 15.4961 11.1679 14.6309 10.1236C13.7657 9.07925 12.6449 8.65315 11.2684 8.84528C9.90937 9.03498 8.95181 9.74671 8.39573 10.9805C7.83965 12.2142 7.64874 13.4552 7.82298 14.7036C8.0144 16.0749 8.56393 17.244 9.47156 18.2107C10.3792 19.1774 11.469 19.572 12.7409 19.3944ZM12.4464 17.2846C12.1502 17.3259 11.8878 17.2595 11.6592 17.0853C11.4306 16.9111 11.2955 16.6745 11.2537 16.3756L10.6647 12.156C10.623 11.8571 10.6882 11.5925 10.8604 11.3624C11.0325 11.1322 11.2667 10.9965 11.5629 10.9551C11.8591 10.9138 12.1215 10.9802 12.3501 11.1544C12.5787 11.3287 12.7139 11.5652 12.7556 11.8641L13.3446 16.0838C13.3863 16.3827 13.3211 16.6472 13.1489 16.8773C12.9768 17.1075 12.7426 17.2433 12.4464 17.2846Z" fill="#2A2A2A"/>
<path d="M13.0354 21.5043C11.9203 21.6599 10.8823 21.509 9.9214 21.0517C8.96052 20.5943 8.13504 19.9298 7.44496 19.0582L5.97953 20.2038C5.75524 20.3785 5.49756 20.4413 5.20651 20.3923C4.91546 20.3433 4.68307 20.2055 4.50932 19.9788C4.33557 19.7521 4.26391 19.4932 4.29434 19.2022C4.32477 18.9112 4.45213 18.6783 4.67643 18.5036L6.33253 17.197C6.25327 17.0109 6.1821 16.8191 6.11903 16.6218C6.05596 16.4245 5.9935 16.2316 5.93166 16.043L3.78855 16.3422C3.49234 16.3835 3.22994 16.3171 3.00135 16.1428C2.77275 15.9686 2.6376 15.7321 2.59588 15.4332C2.55416 15.1343 2.61937 14.8697 2.79152 14.6396C2.96367 14.4094 3.19785 14.2737 3.49405 14.2323L5.63716 13.9332C5.64256 13.7173 5.64857 13.5059 5.6552 13.2988C5.66182 13.0918 5.67777 12.8879 5.70305 12.6872L3.75245 11.884C3.48888 11.7774 3.30262 11.5883 3.19366 11.3167C3.0847 11.0451 3.08273 10.7765 3.18776 10.5109C3.2928 10.2453 3.48354 10.0529 3.75998 9.93367C4.03643 9.81442 4.30643 9.8081 4.57 9.9147L6.24084 10.6225C6.34587 10.3569 6.47329 10.0927 6.62311 9.82978C6.77293 9.56688 6.93017 9.32536 7.09483 9.10521C7.04281 8.987 7.00821 8.86636 6.99103 8.74328L6.93949 8.37406C6.88059 7.9521 6.88513 7.5392 6.9531 7.13537C7.02108 6.73155 7.13629 6.34801 7.29875 5.98477L6.16571 5.12123C5.94706 4.95458 5.81251 4.72242 5.76208 4.42474C5.71165 4.12707 5.77625 3.85814 5.95588 3.61798C6.1181 3.38024 6.34356 3.2457 6.63228 3.21437C6.92099 3.18303 7.18339 3.24947 7.41947 3.41368L8.66441 4.31538C8.93853 4.1158 9.23123 3.95395 9.54253 3.82984C9.85382 3.70573 10.1837 3.61935 10.5322 3.57071C10.8807 3.52207 11.2265 3.5186 11.5699 3.5603C11.9132 3.602 12.244 3.6813 12.5623 3.79819L13.4829 2.56733C13.6625 2.32716 13.8924 2.19202 14.1724 2.1619C14.4524 2.13177 14.7116 2.20761 14.9502 2.38941C15.1713 2.57364 15.3058 2.8058 15.3538 3.0859C15.4018 3.36599 15.336 3.62612 15.1563 3.86629L14.3031 5.00709C14.5588 5.31196 14.7703 5.64989 14.9375 6.02089C15.1047 6.39188 15.2178 6.78836 15.2767 7.21033L15.3264 7.56636C15.3424 7.68064 15.3415 7.80175 15.3238 7.92969C15.5425 8.09634 15.7605 8.28997 15.9778 8.51058C16.1951 8.73119 16.3906 8.95484 16.5644 9.18153L18.0298 8.03595C18.2541 7.86124 18.5111 7.79399 18.801 7.8342C19.0908 7.8744 19.3226 8.00785 19.4963 8.23454C19.6701 8.46123 19.738 8.7251 19.7001 9.02615C19.6622 9.32719 19.5311 9.56507 19.3068 9.73977L17.647 11.02C17.7262 11.2061 17.8018 11.3972 17.8735 11.5934C17.9453 11.7895 18.0134 11.9906 18.0777 12.1967L20.2208 11.8976C20.517 11.8562 20.7794 11.9227 21.008 12.0969C21.2366 12.2711 21.3717 12.5077 21.4134 12.8066C21.4552 13.1054 21.39 13.37 21.2178 13.6001C21.0457 13.8303 20.8115 13.966 20.5153 14.0074L18.3722 14.3065C18.3668 14.5224 18.3608 14.7338 18.3541 14.9409C18.3475 15.1479 18.3316 15.3518 18.3063 15.5525L20.2569 16.3557C20.5204 16.4623 20.7073 16.6558 20.8175 16.9362C20.9277 17.2166 20.9303 17.4895 20.8252 17.7551C20.7202 18.0207 20.5332 18.2082 20.2642 18.3174C19.9953 18.4267 19.729 18.428 19.4655 18.3214L17.7424 17.6208C17.3173 18.6481 16.7053 19.5132 15.9064 20.2163C15.1075 20.9193 14.1505 21.3486 13.0354 21.5043ZM9.03916 7.38193C9.31818 7.21751 9.62328 7.08082 9.95445 6.97186C10.2856 6.8629 10.6255 6.7841 10.9739 6.73545C11.3224 6.68681 11.6615 6.66637 11.9912 6.67412C12.3209 6.68188 12.6424 6.72662 12.9558 6.80834C12.76 6.42342 12.4694 6.12341 12.0841 5.90832C11.6988 5.69323 11.2797 5.61731 10.8267 5.68054C10.3737 5.74377 9.98322 5.93719 9.65537 6.26078C9.32751 6.58437 9.12211 6.95809 9.03916 7.38193ZM12.7409 19.3944C14.0128 19.2169 14.9529 18.539 15.5611 17.3607C16.1694 16.1824 16.3778 14.9076 16.1863 13.5362C16.0146 12.3054 15.4961 11.1679 14.6309 10.1236C13.7657 9.07925 12.6449 8.65315 11.2684 8.84528C9.90937 9.03498 8.95181 9.74671 8.39573 10.9805C7.83965 12.2142 7.64874 13.4552 7.82298 14.7036C8.0144 16.0749 8.56393 17.244 9.47156 18.2107C10.3792 19.1774 11.469 19.572 12.7409 19.3944ZM12.4464 17.2846C12.1502 17.3259 11.8878 17.2595 11.6592 17.0853C11.4306 16.9111 11.2955 16.6745 11.2537 16.3756L10.6647 12.156C10.623 11.8571 10.6882 11.5925 10.8604 11.3624C11.0325 11.1322 11.2667 10.9965 11.5629 10.9551C11.8591 10.9138 12.1215 10.9802 12.3501 11.1544C12.5787 11.3287 12.7139 11.5652 12.7556 11.8641L13.3446 16.0838C13.3863 16.3827 13.3211 16.6472 13.1489 16.8773C12.9768 17.1075 12.7426 17.2433 12.4464 17.2846Z" stroke="#EAA2CD" stroke-width="4" mask="url(#path-1-outside-1_2212_90)"/>
</svg>
