<svg width="98" height="98" viewBox="0 0 98 98" fill="none" xmlns="http://www.w3.org/2000/svg">
<g style="mix-blend-mode:multiply" opacity="0.8">
<circle cx="48.5781" cy="48.5781" r="47.5781" fill="#909AFF" stroke="#2A2A2A" stroke-width="2"/>
<path d="M81.6675 65.1916C82.2402 66.5351 81.631 68.0951 80.3081 68.6746C78.9844 69.2576 77.4484 68.6383 76.8758 67.2948C74.358 61.3862 68.4079 57.5675 61.7146 57.5675C54.8672 57.5675 48.8806 61.3835 46.4647 67.2877C46.0469 68.3071 45.0748 68.9219 44.0522 68.9219C43.7181 68.9219 43.3795 68.8574 43.0514 68.7196C41.7199 68.1569 41.0889 66.6058 41.6416 65.2552C44.8703 57.3652 52.7498 52.2675 61.7137 52.2675C70.4905 52.2693 78.323 57.3414 81.6675 65.1916ZM43.5692 33.9834C43.5692 30.9598 45.986 28.5059 48.9658 28.5059C51.9448 28.5059 54.3616 30.9589 54.3616 33.9834C54.3616 37.0097 51.9448 39.4627 48.9658 39.4627C45.986 39.4618 43.5692 37.0088 43.5692 33.9834ZM68.0389 33.9834C68.0389 30.9598 70.4574 28.5059 73.4373 28.5059C76.4162 28.5059 78.833 30.9589 78.833 33.9834C78.833 37.0097 76.4171 39.4627 73.4373 39.4627C70.4574 39.4627 68.0389 37.0088 68.0389 33.9834Z" fill="#2A2A2A"/>
</g>
</svg>
