<svg width="17" height="49" viewBox="0 0 17 49" fill="none" xmlns="http://www.w3.org/2000/svg">
<path d="M1.4082 1.12695C3.5 2.49963 5.34923 4.44376 6.5 6.49963C7.98383 9.15053 9.14328 12.071 10 14.9996C12.0209 21.9078 12.4055 29.9523 11.5 36.9996C11.1675 39.5872 10.3473 42.0593 9.5 44.4996C9.27987 45.1336 8.83575 46.5344 8.25306 46.2014C8.00376 46.0589 7.7823 45.1146 7.68515 44.9161C7.13562 43.7932 5.74601 41.4765 4.98008 40.4996C4.18781 39.4892 3.84871 39.6287 4.98008 41.7029C6.03454 43.6361 7.30685 45.4125 8.82098 47.0084C10.3737 48.6451 14.6383 43.5188 15.6658 42.2858" stroke="#2A2A2A" stroke-width="2" stroke-linecap="round"/>
</svg>
