<svg width="116" height="116" viewBox="0 0 116 116" fill="none" xmlns="http://www.w3.org/2000/svg">
<path d="M51.7829 16.7894C65.2531 14.8335 66.864 14.6492 72.2128 14.1207C77.1624 13.6335 79.9542 14.0635 81.8373 14.5014C84.3273 15.0744 86.1628 15.9244 88.1849 17.4338C90.2071 18.9432 91.5441 20.4611 92.8016 22.6853C93.7489 24.3673 94.962 26.9122 95.9039 31.8041C96.9196 37.0904 97.1999 38.6791 99.1558 52.1493C101.112 65.6195 101.296 67.2303 101.825 72.5791C102.312 77.5287 101.882 80.3205 101.444 82.2036C100.871 84.6936 100.021 86.5291 98.5114 88.5513C97.002 90.5735 95.476 91.9116 93.26 93.168C91.5779 94.1152 89.0249 95.3295 84.1412 96.2702C78.8548 97.286 77.2662 97.5663 63.796 99.5222C50.3258 101.478 48.715 101.662 43.3661 102.191C38.4165 102.678 35.6247 102.248 33.7416 101.81C31.2516 101.237 29.4162 100.387 27.394 98.8778C25.3718 97.3684 24.0348 95.8505 22.7773 93.6263C21.8312 91.9524 20.6169 89.3994 19.675 84.5075C18.6593 79.2211 18.379 77.6325 16.4231 64.1623C14.4672 50.6921 14.2829 49.0813 13.7543 43.7324C13.2672 38.7828 13.6972 35.9911 14.135 34.1079C14.7081 31.618 15.5581 29.7825 17.0675 27.7603C18.5769 25.7381 20.0948 24.4012 22.319 23.1436C24.001 22.1964 26.5459 20.9832 31.4377 20.0413C36.7241 19.0256 38.3127 18.7453 51.7829 16.7894ZM50.4621 7.69317C36.757 9.6832 35.0481 9.98924 29.6981 11.0225C24.3631 12.0452 20.8185 13.4366 17.792 15.1498C14.6581 16.9199 12.0979 19.0533 9.70346 22.2709C7.30783 25.4804 5.99184 28.5497 5.18616 32.0577C4.40452 35.4464 4.08682 39.2392 4.6155 44.6459C5.15463 50.0676 5.33917 51.7942 7.3292 65.4993C9.31922 79.2044 9.62526 80.9134 10.6585 86.2634C11.6813 91.5983 13.0727 95.1429 14.7858 98.1694C16.5559 101.303 18.6893 103.864 21.8988 106.259C25.1083 108.655 28.1776 109.971 31.6787 110.786C35.0674 111.567 38.8602 111.885 44.2669 111.356C49.6886 110.817 51.4141 110.625 65.1191 108.635C78.8242 106.645 80.5332 106.339 85.8844 105.313C91.2193 104.291 94.7639 102.899 97.7904 101.186C100.924 99.416 103.485 97.2826 105.887 94.0638C108.283 90.8543 109.599 87.785 110.414 84.2839C111.195 80.8952 111.513 77.1025 110.984 71.6957C110.446 66.2821 110.253 64.5486 108.263 50.8435C106.273 37.1384 105.966 35.4294 104.941 30.0783C103.919 24.7433 102.527 21.1987 100.814 18.1722C99.0439 15.0383 96.9105 12.4781 93.6917 10.0755C90.4822 7.67991 87.4129 6.36391 83.9038 5.55014C80.515 4.7685 76.7223 4.4508 71.3156 4.97948C65.8938 5.51861 64.1672 5.70315 50.4621 7.69317Z" fill="#2A2A2A"/>
<path d="M54.0264 32.2444C39.7139 34.3226 29.799 47.6059 31.8772 61.9185C33.9554 76.2311 47.2388 86.146 61.5514 84.0678C75.864 81.9895 85.7788 68.7062 83.7006 54.3936C81.6224 40.081 68.339 30.1661 54.0264 32.2444ZM60.2317 74.9796C50.9411 76.3287 42.3144 69.8895 40.9653 60.5989C39.6163 51.3083 46.0554 42.6815 55.3461 41.3325C64.6367 39.9835 73.2634 46.4226 74.6125 55.7132C75.9615 65.0039 69.5224 73.6306 60.2317 74.9796Z" fill="#2A2A2A"/>
<path d="M86.8684 26.4252C87.3541 29.7705 85.0346 32.878 81.6893 33.3637C78.3441 33.8495 75.2366 31.53 74.7508 28.1847C74.2651 24.8395 76.5846 21.732 79.9298 21.2462C83.2751 20.7605 86.3826 23.08 86.8684 26.4252Z" fill="#2A2A2A"/>
</svg>
