<svg width="95" height="111" viewBox="0 0 95 111" fill="none" xmlns="http://www.w3.org/2000/svg">
<path d="M93.9937 7.09223C92.2626 3.87744 86.024 2.08704 82.8544 1.52259C72.4949 -0.322243 61.6269 3.74357 53.585 10.1651C42.7337 18.8299 35.4412 32.7511 32.2283 46.0797C29.8448 55.9677 28.0276 69.6421 36.6072 77.1544C39.8464 79.9907 45.9139 82.8853 48.6299 77.9226C51.2518 73.1321 50.6789 66.4658 46.5173 62.7118C40.7197 57.482 32.4121 58.566 27.2732 63.9025C24.0018 67.2998 21.3029 71.3543 18.7075 75.2723C16.1917 79.0702 13.5341 82.9459 11.563 87.0645C8.76685 92.9073 7.69601 100.121 7.29938 106.539C7.27117 106.995 6.89177 109.308 7.22256 109.804C7.56582 110.319 7.63424 108.62 7.99078 108.114C8.82893 106.925 9.93395 105.462 11.0253 104.503C11.2865 104.274 12.2746 102.457 11.9856 103.85C11.6776 105.334 8.66919 110.713 6.53115 108.575C4.71335 106.757 3.2565 104.234 2.11385 101.968C1.97375 101.69 0.999924 98.4666 0.999924 99.7403" stroke="#2A2A2A" stroke-width="2" stroke-linecap="round"/>
</svg>
