<svg width="105" height="105" viewBox="0 0 105 105" fill="none" xmlns="http://www.w3.org/2000/svg">
<path d="M25.5839 41.0162L6.79297 43.7441L15.604 104.438L34.3949 101.71L25.5839 41.0162Z" fill="#2A2A2A"/>
<path d="M14.9375 34.445C21.078 33.5535 25.3166 27.8091 24.4198 21.6317C23.523 15.4542 17.8168 11.1536 11.6855 12.0436C5.5542 12.9337 1.30504 18.6702 2.20316 24.8569C3.10129 31.0436 8.797 35.3364 14.9375 34.445Z" fill="#2A2A2A"/>
<path d="M59.7986 65.4947C58.56 56.9626 61.7458 51.305 69.2714 50.2125C76.1783 49.2098 80.2103 53.6027 81.4797 62.3472L86.1044 94.204L104.803 91.4895L99.2239 53.0582C96.8633 36.7974 86.5071 30.2772 73.6351 32.1458C60.7631 34.0145 56.7986 44.8293 56.7986 44.8293L55.6123 36.6573L37.5878 39.274L46.3988 99.9681L64.4233 97.3515L59.7986 65.4947Z" fill="#2A2A2A"/>
</svg>
