<svg width="105" height="105" viewBox="0 0 105 105" fill="none" xmlns="http://www.w3.org/2000/svg">
<path d="M25.5839 41.0182L6.79297 43.7461L15.604 104.44L34.3949 101.712L25.5839 41.0182Z" fill="#FFFCEE"/>
<path d="M14.9375 34.4459C21.078 33.5545 25.3166 27.8101 24.4198 21.6327C23.523 15.4552 17.8168 11.1545 11.6855 12.0446C5.5542 12.9347 1.30504 18.6712 2.20316 24.8579C3.10129 31.0446 8.797 35.3374 14.9375 34.4459Z" fill="#FFFCEE"/>
<path d="M59.7986 65.4966C58.56 56.9645 61.7458 51.307 69.2714 50.2145C76.1783 49.2118 80.2103 53.6047 81.4797 62.3491L86.1044 94.206L104.803 91.4915L99.2239 53.0601C96.8633 36.7993 86.5071 30.2791 73.6351 32.1478C60.7631 34.0164 56.7986 44.8312 56.7986 44.8312L55.6123 36.6593L37.5878 39.2759L46.3988 99.9701L64.4233 97.3534L59.7986 65.4966Z" fill="#FFFCEE"/>
</svg>
