<svg width="96" height="111" viewBox="0 0 96 111" fill="none" xmlns="http://www.w3.org/2000/svg">
<path d="M1.15234 7.09223C2.88338 3.87744 9.12203 2.08704 12.2916 1.52259C22.6511 -0.322243 33.5191 3.74357 41.561 10.1651C52.4123 18.8299 59.7048 32.7511 62.9177 46.0797C65.3012 55.9677 67.1184 69.6421 58.5388 77.1544C55.2996 79.9907 49.2321 82.8853 46.5161 77.9226C43.8942 73.1321 44.4671 66.4658 48.6287 62.7118C54.4263 57.482 62.7339 58.566 67.8727 63.9025C71.1442 67.2998 73.8431 71.3543 76.4385 75.2723C78.9543 79.0702 81.6119 82.9459 83.583 87.0645C86.3791 92.9073 87.45 100.121 87.8466 106.539C87.8748 106.995 88.2542 109.308 87.9234 109.804C87.5802 110.319 87.5118 108.62 87.1552 108.114C86.3171 106.925 85.212 105.462 84.1207 104.503C83.8595 104.274 82.8714 102.457 83.1604 103.85C83.4683 105.334 86.4768 110.713 88.6148 108.575C90.4326 106.757 91.8895 104.234 93.0321 101.968C93.1722 101.69 94.1461 98.4666 94.1461 99.7403" stroke="#2A2A2A" stroke-width="2" stroke-linecap="round"/>
</svg>
