<svg width="122" height="122" viewBox="0 0 122 122" fill="none" xmlns="http://www.w3.org/2000/svg">
<path fill-rule="evenodd" clip-rule="evenodd" d="M109.643 69.6082C114.789 43.7476 98.2713 18.3419 72.1983 12.462C46.1253 6.58209 20.8985 22.0862 14.0748 47.1408C13.9 47.8274 13.7137 48.5213 13.5579 49.2122C11.5709 58.0231 12.1295 66.7914 14.7161 74.8138C14.8224 75.1361 14.7834 75.4853 14.6068 75.7836L1.70676 96.912C1.2033 97.7333 1.8535 98.775 2.80713 98.6917L28.4478 96.4782C28.7625 96.4497 29.0684 96.5485 29.3087 96.7619C35.258 101.913 42.532 105.731 50.7561 107.586C77.2266 113.555 103.474 97.0977 109.397 70.8355C109.488 70.4285 109.578 70.031 109.651 69.6198L109.643 69.6082ZM52.4584 99.9935C44.4614 98.19 37.5435 94.2033 32.1666 88.764C31.9232 88.5202 31.5837 88.3939 31.2406 88.4159L17.5045 89.6145C16.5509 89.6978 15.9007 88.6561 16.4041 87.8348L23.2635 76.6021C23.456 76.2776 23.4846 75.8862 23.3425 75.5459C20.1926 67.9932 19.2628 59.4594 21.1879 50.923C21.4825 49.617 21.8411 48.3353 22.2617 47.0876C28.8027 27.2999 49.6041 15.3228 70.4909 20.0331C91.3777 24.7435 105.359 44.9923 102.333 65.9507C102.186 67.0015 102 68.0437 101.761 69.1036C96.7885 91.1545 74.6607 105 52.4584 99.9935Z" fill="#2A2A2A"/>
<path fill-rule="evenodd" clip-rule="evenodd" d="M81.2661 74.5651C80.206 73.7094 75.0785 69.5894 74.0871 68.9581C73.1 68.3078 72.355 67.9509 71.3049 68.9473C70.2569 69.9342 67.4017 72.055 66.5495 72.6585C65.6721 73.2861 64.9904 73.2218 63.9281 72.3756C62.8964 71.5263 59.3746 69.4591 55.7893 64.4537C53.0097 60.5947 51.485 56.2429 51.0755 54.9273C50.6661 53.6117 51.4148 53.1142 52.1317 52.6692C52.7928 52.2515 53.6053 51.5595 54.3625 51.0242C54.5471 50.8669 54.7065 50.7337 54.8774 50.5933C54.9027 50.5692 54.9375 50.5472 54.965 50.5136C55.3123 50.1643 55.6006 49.8116 55.9778 49.3298C56.5619 48.6361 56.5052 47.9172 56.3536 47.2664C56.1926 46.6134 55.1294 40.3469 54.6724 37.7874C54.2342 35.2321 53.1582 35.4171 52.4579 35.2591C51.7575 35.1012 51.026 34.8169 50.2405 34.6397C49.455 34.4626 48.1113 34.4678 46.7699 35.3886C45.4285 36.3093 41.7619 38.4561 40.4664 44.2007C40.1633 45.5445 40.1063 46.9439 40.1757 48.3121C40.4418 52.6883 42.233 56.6527 42.5476 57.3303C42.9615 58.2292 47.7543 72.0797 58.6297 79.4651C69.5347 86.8074 69.8847 85.2554 72.0873 85.5432C74.2761 85.8479 79.675 84.3106 81.2571 81.7932C82.8539 79.2991 83.3789 76.971 83.2081 76.4053C83.0214 75.866 82.3021 75.3955 81.2682 74.5557L81.2661 74.5651Z" fill="#2A2A2A"/>
</svg>
