<svg width="126" height="126" viewBox="0 0 126 126" fill="none" xmlns="http://www.w3.org/2000/svg">
<g style="mix-blend-mode:color-burn">
<circle cx="63" cy="63" r="63" fill="#EAA2CD"/>
<path d="M57.0705 82.3898C54.7985 81.6728 52.9526 80.4403 51.5329 78.6924C50.1133 76.9445 49.1407 74.9241 48.6151 72.6312L44.7734 73.4868C44.1859 73.6165 43.6365 73.5022 43.125 73.1438C42.6135 72.7855 42.2949 72.3107 42.1692 71.7196C42.0434 71.1284 42.142 70.5687 42.4649 70.0403C42.7878 69.512 43.2429 69.183 43.8304 69.0532L48.1829 68.0634C48.2008 67.6358 48.2392 67.2048 48.2982 66.7704C48.3572 66.336 48.4134 65.9106 48.4668 65.4942L44.1003 64.1162C43.4968 63.9257 43.0559 63.5601 42.7777 63.0193C42.4994 62.4785 42.4564 61.9036 42.6486 61.2946C42.8408 60.6856 43.206 60.2396 43.7442 59.9565C44.2825 59.6733 44.8534 59.627 45.4569 59.8175L49.8234 61.1955C50.03 60.788 50.2339 60.3895 50.4349 59.9999C50.6359 59.6104 50.8518 59.2354 51.0827 58.875L48.0867 55.5661C47.6802 55.1227 47.4963 54.592 47.5352 53.974C47.5741 53.356 47.8147 52.8411 48.2569 52.4292C48.6992 52.0173 49.2386 51.8232 49.8753 51.8468C50.5119 51.8705 51.0335 52.104 51.44 52.5475L53.9883 55.4196C54.4306 55.0077 54.9144 54.6188 55.4397 54.2528C55.9651 53.8869 56.4852 53.5685 57.0001 53.2977C57.0082 53.0245 57.0518 52.7625 57.131 52.5118L57.3684 51.7595C57.6397 50.8998 58.024 50.1151 58.5212 49.4054C59.0184 48.6957 59.5874 48.0678 60.2282 47.5216L58.8491 44.8412C58.5829 44.3239 58.5371 43.7579 58.7115 43.1434C58.886 42.5288 59.254 42.0738 59.8157 41.7783C60.3418 41.4717 60.895 41.4198 61.475 41.6225C62.0551 41.8253 62.496 42.1909 62.7977 42.7194L64.3559 45.5746C65.0611 45.4426 65.7675 45.3997 66.4752 45.4457C67.1828 45.4918 67.8916 45.6269 68.6016 45.8509C69.3116 46.075 69.9756 46.383 70.5936 46.775C71.2115 47.167 71.7714 47.6194 72.2732 48.1322L75.1517 46.6182C75.7133 46.3227 76.2753 46.2736 76.8377 46.4708C77.4 46.6679 77.8264 47.0487 78.1167 47.613C78.3716 48.1661 78.4174 48.732 78.2543 49.3108C78.0912 49.8895 77.7288 50.3266 77.1671 50.622L74.4992 52.0253C74.7104 52.8404 74.807 53.6784 74.7891 54.5393C74.7711 55.4002 74.6265 56.2606 74.3552 57.1203L74.1262 57.8457C74.0527 58.0785 73.9409 58.3091 73.7908 58.5375C74.057 59.0548 74.2973 59.623 74.5117 60.2421C74.7262 60.8613 74.8963 61.4664 75.0221 62.0576L78.8638 61.202C79.4513 61.0723 80.0035 61.1776 80.5207 61.5181C81.0378 61.8585 81.3592 62.3243 81.485 62.9155C81.6107 63.5066 81.5004 64.0725 81.1541 64.6132C80.8079 65.1538 80.341 65.489 79.7536 65.6187L75.418 66.5548C75.4001 66.9825 75.3705 67.4163 75.3293 67.8562C75.288 68.2962 75.2351 68.7423 75.1704 69.1946L79.5369 70.5726C80.1404 70.7631 80.5813 71.1287 80.8595 71.6695C81.1378 72.2103 81.1808 72.7852 80.9886 73.3942C80.7964 74.0031 80.4312 74.4492 79.8929 74.7323C79.3547 75.0154 78.7838 75.0618 78.1803 74.8713L73.8138 73.4933C73.6071 73.9008 73.4033 74.2993 73.2023 74.6888C73.0013 75.0784 72.7854 75.4534 72.5545 75.8138L75.5505 79.1227C75.957 79.5661 76.138 80.1058 76.0935 80.7417C76.049 81.3775 75.8056 81.9014 75.3633 82.3133C74.921 82.7252 74.3933 82.9132 73.7801 82.8772C73.1668 82.8412 72.6569 82.6015 72.2504 82.1581L69.5956 79.2523C67.8492 80.8282 65.893 81.9244 63.7272 82.5408C61.5614 83.1571 59.3425 83.1068 57.0705 82.3898ZM62.2823 51.7741C62.9649 51.7138 63.6722 51.7301 64.404 51.8232C65.1358 51.9163 65.8567 52.0749 66.5667 52.299C67.2767 52.523 67.9431 52.7924 68.566 53.1072C69.1888 53.4219 69.7624 53.7998 70.2868 54.2411C70.2628 53.3275 69.9806 52.49 69.4401 51.7286C68.8997 50.9672 68.168 50.4409 67.245 50.1496C66.322 49.8583 65.4001 49.8727 64.4794 50.1927C63.5587 50.5126 62.8263 51.0398 62.2823 51.7741ZM58.4271 78.0911C61.0186 78.909 63.4313 78.469 65.6651 76.7711C67.899 75.0733 69.4568 72.8273 70.3386 70.0332C71.13 67.5256 71.1742 64.8807 70.4712 62.0985C69.7683 59.3163 68.0146 57.4827 65.2101 56.5977C62.4411 55.7238 59.9643 56.2125 57.7796 58.0637C55.5949 59.9149 54.1012 62.1122 53.2986 64.6556C52.4168 67.4497 52.4032 70.1831 53.2579 72.8556C54.1125 75.5281 55.8356 77.2733 58.4271 78.0911ZM59.7837 73.7924C59.1802 73.602 58.7393 73.2363 58.4611 72.6955C58.1828 72.1548 58.1398 71.5799 58.332 70.9709L61.0452 62.3735C61.2374 61.7645 61.6026 61.3185 62.1409 61.0353C62.6791 60.7522 63.25 60.7059 63.8535 60.8963C64.457 61.0868 64.8979 61.4524 65.1761 61.9932C65.4544 62.534 65.4974 63.1089 65.3052 63.7179L62.592 72.3153C62.3998 72.9243 62.0346 73.3703 61.4963 73.6534C60.9581 73.9365 60.3872 73.9829 59.7837 73.7924Z" fill="#2A2A2A"/>
</g>
</svg>
