<svg width="126" height="126" viewBox="0 0 126 126" fill="none" xmlns="http://www.w3.org/2000/svg">
<g style="mix-blend-mode:color-burn">
<circle cx="63" cy="63" r="62.5" fill="#2A2A2A" stroke="#2A2A2A"/>
<mask id="path-2-outside-1_2128_89" maskUnits="userSpaceOnUse" x="35.1393" y="34.7964" width="55.8978" height="55.8978" fill="black">
<rect fill="white" x="35.1393" y="34.7964" width="55.8978" height="55.8978"/>
<path d="M67.6306 81.0125C65.4581 81.5636 63.3713 81.4914 61.3702 80.7958C59.3692 80.1002 57.5909 78.9653 56.0354 77.3911L53.3855 79.9774C52.9798 80.372 52.4836 80.5525 51.897 80.519C51.3104 80.4855 50.8205 80.2634 50.4273 79.8527C50.0341 79.442 49.8358 78.9454 49.8326 78.3629C49.8294 77.7804 50.0306 77.2918 50.4364 76.8972L53.4285 73.9508C53.2311 73.5998 53.0485 73.2359 52.8807 72.8592C52.7128 72.4825 52.5472 72.1144 52.3837 71.7548L48.2083 72.8139C47.6312 72.9603 47.0975 72.886 46.6072 72.5911C46.1169 72.2962 45.7979 71.8576 45.6502 71.2753C45.5025 70.6929 45.5738 70.1553 45.8643 69.6623C46.1548 69.1694 46.5886 68.8497 47.1656 68.7033L51.3411 67.6442C51.3047 67.2159 51.2705 66.7962 51.2385 66.3851C51.2064 65.9739 51.1936 65.567 51.1998 65.1644L47.165 64.0003C46.6203 63.8468 46.2105 63.5132 45.9357 62.9996C45.6609 62.486 45.5984 61.9549 45.7483 61.4065C45.8983 60.858 46.2337 60.4357 46.7548 60.1395C47.2758 59.8432 47.8087 59.7719 48.3534 59.9254L51.8139 60.9617C51.9638 60.4132 52.1583 59.8626 52.3975 59.3097C52.6366 58.7569 52.8951 58.2447 53.1729 57.7732C53.0442 57.5506 52.9495 57.3194 52.8886 57.0797L52.7062 56.3603C52.4976 55.5382 52.4166 54.7202 52.4631 53.9063C52.5095 53.0924 52.6539 52.3084 52.8962 51.5542L50.466 50.0925C49.997 49.8104 49.6801 49.3804 49.5155 48.8023C49.3508 48.2243 49.42 47.6781 49.7231 47.1637C49.9922 46.6579 50.409 46.3426 50.9735 46.2176C51.538 46.0927 52.0717 46.167 52.5746 46.4404L55.2346 47.9532C55.7334 47.4986 56.2773 47.1145 56.8663 46.8011C57.4552 46.4876 58.0891 46.2448 58.768 46.0726C59.447 45.9004 60.1306 45.8181 60.8191 45.8258C61.5075 45.8334 62.1794 45.9182 62.8346 46.0802L64.388 43.4439C64.6911 42.9295 65.1164 42.612 65.6639 42.4914C66.2114 42.3707 66.7409 42.4643 67.2525 42.772C67.7302 43.0884 68.0471 43.5184 68.203 44.0622C68.359 44.606 68.2855 45.135 67.9824 45.6494L66.5427 48.0928C67.1152 48.6403 67.6073 49.2628 68.0191 49.9605C68.4309 50.6581 68.7411 51.418 68.9496 52.2401L69.1256 52.9338C69.182 53.1564 69.2067 53.3963 69.1997 53.6533C69.6686 53.9354 70.1422 54.271 70.6203 54.6601C71.0984 55.0493 71.534 55.4492 71.9272 55.8599L74.5772 53.2736C74.9829 52.879 75.4769 52.6899 76.0591 52.7063C76.6414 52.7227 77.1291 52.9362 77.5223 53.3469C77.9156 53.7576 78.1075 54.2649 78.0981 54.8689C78.0887 55.4728 77.8811 55.9721 77.4754 56.3667L74.4702 59.2618C74.6676 59.6128 74.8587 59.9744 75.0435 60.3468C75.2283 60.7193 75.4068 61.1024 75.5789 61.4962L79.7543 60.4371C80.3314 60.2907 80.8651 60.365 81.3554 60.6599C81.8458 60.9548 82.1648 61.3934 82.3125 61.9758C82.4602 62.5581 82.3888 63.0957 82.0983 63.5887C81.8079 64.0816 81.3741 64.4013 80.797 64.5477L76.6216 65.6068C76.658 66.0351 76.6922 66.4548 76.7242 66.8659C76.7562 67.2771 76.7691 67.684 76.7628 68.0866L80.7976 69.2507C81.3424 69.4042 81.7544 69.7463 82.0335 70.2771C82.3127 70.8079 82.3773 71.3475 82.2273 71.8959C82.0774 72.4444 81.7483 72.856 81.2399 73.1308C80.7315 73.4056 80.2049 73.4662 79.6601 73.3127L76.0979 72.3022C75.4808 74.4275 74.4584 76.2728 73.0309 77.8381C71.6033 79.4033 69.8032 80.4615 67.6306 81.0125ZM56.6446 53.9394C57.1608 53.5533 57.7347 53.2163 58.3663 52.9285C58.9978 52.6407 59.6531 52.4107 60.332 52.2385C61.0109 52.0662 61.6775 51.9519 62.3315 51.8953C62.9856 51.8388 63.6316 51.8572 64.2695 51.9506C63.7981 51.2317 63.1578 50.7014 62.3485 50.3598C61.5392 50.0182 60.6933 49.9593 59.8107 50.1832C58.9281 50.407 58.1977 50.8749 57.6195 51.5866C57.0413 52.2984 56.7163 53.0827 56.6446 53.9394ZM66.588 76.902C69.0661 76.2734 70.7785 74.727 71.7251 72.2629C72.6718 69.7988 72.8062 67.2308 72.1285 64.5589C71.5203 62.1611 70.2464 60.0233 68.3068 58.1454C66.3671 56.2676 64.0565 55.6688 61.3747 56.349C58.7268 57.0207 56.9872 58.6377 56.1559 61.2002C55.3245 63.7627 55.2172 66.26 55.8342 68.6921C56.5119 71.3639 57.8541 73.5574 59.8608 75.2724C61.8675 76.9873 64.1099 77.5305 66.588 76.902ZM65.5453 72.7914C64.9682 72.9378 64.4345 72.8635 63.9442 72.5686C63.4539 72.2737 63.1349 71.8351 62.9872 71.2527L60.9019 63.0316C60.7542 62.4492 60.8255 61.9116 61.116 61.4186C61.4065 60.9257 61.8402 60.606 62.4173 60.4596C62.9944 60.3132 63.5281 60.3875 64.0184 60.6824C64.5087 60.9773 64.8278 61.4159 64.9755 61.9983L67.0608 70.2194C67.2085 70.8018 67.1371 71.3394 66.8467 71.8324C66.5562 72.3253 66.1224 72.645 65.5453 72.7914Z"/>
</mask>
<path d="M67.6306 81.0125C65.4581 81.5636 63.3713 81.4914 61.3702 80.7958C59.3692 80.1002 57.5909 78.9653 56.0354 77.3911L53.3855 79.9774C52.9798 80.372 52.4836 80.5525 51.897 80.519C51.3104 80.4855 50.8205 80.2634 50.4273 79.8527C50.0341 79.442 49.8358 78.9454 49.8326 78.3629C49.8294 77.7804 50.0306 77.2918 50.4364 76.8972L53.4285 73.9508C53.2311 73.5998 53.0485 73.2359 52.8807 72.8592C52.7128 72.4825 52.5472 72.1144 52.3837 71.7548L48.2083 72.8139C47.6312 72.9603 47.0975 72.886 46.6072 72.5911C46.1169 72.2962 45.7979 71.8576 45.6502 71.2753C45.5025 70.6929 45.5738 70.1553 45.8643 69.6623C46.1548 69.1694 46.5886 68.8497 47.1656 68.7033L51.3411 67.6442C51.3047 67.2159 51.2705 66.7962 51.2385 66.3851C51.2064 65.9739 51.1936 65.567 51.1998 65.1644L47.165 64.0003C46.6203 63.8468 46.2105 63.5132 45.9357 62.9996C45.6609 62.486 45.5984 61.9549 45.7483 61.4065C45.8983 60.858 46.2337 60.4357 46.7548 60.1395C47.2758 59.8432 47.8087 59.7719 48.3534 59.9254L51.8139 60.9617C51.9638 60.4132 52.1583 59.8626 52.3975 59.3097C52.6366 58.7569 52.8951 58.2447 53.1729 57.7732C53.0442 57.5506 52.9495 57.3194 52.8886 57.0797L52.7062 56.3603C52.4976 55.5382 52.4166 54.7202 52.4631 53.9063C52.5095 53.0924 52.6539 52.3084 52.8962 51.5542L50.466 50.0925C49.997 49.8104 49.6801 49.3804 49.5155 48.8023C49.3508 48.2243 49.42 47.6781 49.7231 47.1637C49.9922 46.6579 50.409 46.3426 50.9735 46.2176C51.538 46.0927 52.0717 46.167 52.5746 46.4404L55.2346 47.9532C55.7334 47.4986 56.2773 47.1145 56.8663 46.8011C57.4552 46.4876 58.0891 46.2448 58.768 46.0726C59.447 45.9004 60.1306 45.8181 60.8191 45.8258C61.5075 45.8334 62.1794 45.9182 62.8346 46.0802L64.388 43.4439C64.6911 42.9295 65.1164 42.612 65.6639 42.4914C66.2114 42.3707 66.7409 42.4643 67.2525 42.772C67.7302 43.0884 68.0471 43.5184 68.203 44.0622C68.359 44.606 68.2855 45.135 67.9824 45.6494L66.5427 48.0928C67.1152 48.6403 67.6073 49.2628 68.0191 49.9605C68.4309 50.6581 68.7411 51.418 68.9496 52.2401L69.1256 52.9338C69.182 53.1564 69.2067 53.3963 69.1997 53.6533C69.6686 53.9354 70.1422 54.271 70.6203 54.6601C71.0984 55.0493 71.534 55.4492 71.9272 55.8599L74.5772 53.2736C74.9829 52.879 75.4769 52.6899 76.0591 52.7063C76.6414 52.7227 77.1291 52.9362 77.5223 53.3469C77.9156 53.7576 78.1075 54.2649 78.0981 54.8689C78.0887 55.4728 77.8811 55.9721 77.4754 56.3667L74.4702 59.2618C74.6676 59.6128 74.8587 59.9744 75.0435 60.3468C75.2283 60.7193 75.4068 61.1024 75.5789 61.4962L79.7543 60.4371C80.3314 60.2907 80.8651 60.365 81.3554 60.6599C81.8458 60.9548 82.1648 61.3934 82.3125 61.9758C82.4602 62.5581 82.3888 63.0957 82.0983 63.5887C81.8079 64.0816 81.3741 64.4013 80.797 64.5477L76.6216 65.6068C76.658 66.0351 76.6922 66.4548 76.7242 66.8659C76.7562 67.2771 76.7691 67.684 76.7628 68.0866L80.7976 69.2507C81.3424 69.4042 81.7544 69.7463 82.0335 70.2771C82.3127 70.8079 82.3773 71.3475 82.2273 71.8959C82.0774 72.4444 81.7483 72.856 81.2399 73.1308C80.7315 73.4056 80.2049 73.4662 79.6601 73.3127L76.0979 72.3022C75.4808 74.4275 74.4584 76.2728 73.0309 77.8381C71.6033 79.4033 69.8032 80.4615 67.6306 81.0125ZM56.6446 53.9394C57.1608 53.5533 57.7347 53.2163 58.3663 52.9285C58.9978 52.6407 59.6531 52.4107 60.332 52.2385C61.0109 52.0662 61.6775 51.9519 62.3315 51.8953C62.9856 51.8388 63.6316 51.8572 64.2695 51.9506C63.7981 51.2317 63.1578 50.7014 62.3485 50.3598C61.5392 50.0182 60.6933 49.9593 59.8107 50.1832C58.9281 50.407 58.1977 50.8749 57.6195 51.5866C57.0413 52.2984 56.7163 53.0827 56.6446 53.9394ZM66.588 76.902C69.0661 76.2734 70.7785 74.727 71.7251 72.2629C72.6718 69.7988 72.8062 67.2308 72.1285 64.5589C71.5203 62.1611 70.2464 60.0233 68.3068 58.1454C66.3671 56.2676 64.0565 55.6688 61.3747 56.349C58.7268 57.0207 56.9872 58.6377 56.1559 61.2002C55.3245 63.7627 55.2172 66.26 55.8342 68.6921C56.5119 71.3639 57.8541 73.5574 59.8608 75.2724C61.8675 76.9873 64.1099 77.5305 66.588 76.902ZM65.5453 72.7914C64.9682 72.9378 64.4345 72.8635 63.9442 72.5686C63.4539 72.2737 63.1349 71.8351 62.9872 71.2527L60.9019 63.0316C60.7542 62.4492 60.8255 61.9116 61.116 61.4186C61.4065 60.9257 61.8402 60.606 62.4173 60.4596C62.9944 60.3132 63.5281 60.3875 64.0184 60.6824C64.5087 60.9773 64.8278 61.4159 64.9755 61.9983L67.0608 70.2194C67.2085 70.8018 67.1371 71.3394 66.8467 71.8324C66.5562 72.3253 66.1224 72.645 65.5453 72.7914Z" fill="#2A2A2A"/>
<path d="M67.6306 81.0125C65.4581 81.5636 63.3713 81.4914 61.3702 80.7958C59.3692 80.1002 57.5909 78.9653 56.0354 77.3911L53.3855 79.9774C52.9798 80.372 52.4836 80.5525 51.897 80.519C51.3104 80.4855 50.8205 80.2634 50.4273 79.8527C50.0341 79.442 49.8358 78.9454 49.8326 78.3629C49.8294 77.7804 50.0306 77.2918 50.4364 76.8972L53.4285 73.9508C53.2311 73.5998 53.0485 73.2359 52.8807 72.8592C52.7128 72.4825 52.5472 72.1144 52.3837 71.7548L48.2083 72.8139C47.6312 72.9603 47.0975 72.886 46.6072 72.5911C46.1169 72.2962 45.7979 71.8576 45.6502 71.2753C45.5025 70.6929 45.5738 70.1553 45.8643 69.6623C46.1548 69.1694 46.5886 68.8497 47.1656 68.7033L51.3411 67.6442C51.3047 67.2159 51.2705 66.7962 51.2385 66.3851C51.2064 65.9739 51.1936 65.567 51.1998 65.1644L47.165 64.0003C46.6203 63.8468 46.2105 63.5132 45.9357 62.9996C45.6609 62.486 45.5984 61.9549 45.7483 61.4065C45.8983 60.858 46.2337 60.4357 46.7548 60.1395C47.2758 59.8432 47.8087 59.7719 48.3534 59.9254L51.8139 60.9617C51.9638 60.4132 52.1583 59.8626 52.3975 59.3097C52.6366 58.7569 52.8951 58.2447 53.1729 57.7732C53.0442 57.5506 52.9495 57.3194 52.8886 57.0797L52.7062 56.3603C52.4976 55.5382 52.4166 54.7202 52.4631 53.9063C52.5095 53.0924 52.6539 52.3084 52.8962 51.5542L50.466 50.0925C49.997 49.8104 49.6801 49.3804 49.5155 48.8023C49.3508 48.2243 49.42 47.6781 49.7231 47.1637C49.9922 46.6579 50.409 46.3426 50.9735 46.2176C51.538 46.0927 52.0717 46.167 52.5746 46.4404L55.2346 47.9532C55.7334 47.4986 56.2773 47.1145 56.8663 46.8011C57.4552 46.4876 58.0891 46.2448 58.768 46.0726C59.447 45.9004 60.1306 45.8181 60.8191 45.8258C61.5075 45.8334 62.1794 45.9182 62.8346 46.0802L64.388 43.4439C64.6911 42.9295 65.1164 42.612 65.6639 42.4914C66.2114 42.3707 66.7409 42.4643 67.2525 42.772C67.7302 43.0884 68.0471 43.5184 68.203 44.0622C68.359 44.606 68.2855 45.135 67.9824 45.6494L66.5427 48.0928C67.1152 48.6403 67.6073 49.2628 68.0191 49.9605C68.4309 50.6581 68.7411 51.418 68.9496 52.2401L69.1256 52.9338C69.182 53.1564 69.2067 53.3963 69.1997 53.6533C69.6686 53.9354 70.1422 54.271 70.6203 54.6601C71.0984 55.0493 71.534 55.4492 71.9272 55.8599L74.5772 53.2736C74.9829 52.879 75.4769 52.6899 76.0591 52.7063C76.6414 52.7227 77.1291 52.9362 77.5223 53.3469C77.9156 53.7576 78.1075 54.2649 78.0981 54.8689C78.0887 55.4728 77.8811 55.9721 77.4754 56.3667L74.4702 59.2618C74.6676 59.6128 74.8587 59.9744 75.0435 60.3468C75.2283 60.7193 75.4068 61.1024 75.5789 61.4962L79.7543 60.4371C80.3314 60.2907 80.8651 60.365 81.3554 60.6599C81.8458 60.9548 82.1648 61.3934 82.3125 61.9758C82.4602 62.5581 82.3888 63.0957 82.0983 63.5887C81.8079 64.0816 81.3741 64.4013 80.797 64.5477L76.6216 65.6068C76.658 66.0351 76.6922 66.4548 76.7242 66.8659C76.7562 67.2771 76.7691 67.684 76.7628 68.0866L80.7976 69.2507C81.3424 69.4042 81.7544 69.7463 82.0335 70.2771C82.3127 70.8079 82.3773 71.3475 82.2273 71.8959C82.0774 72.4444 81.7483 72.856 81.2399 73.1308C80.7315 73.4056 80.2049 73.4662 79.6601 73.3127L76.0979 72.3022C75.4808 74.4275 74.4584 76.2728 73.0309 77.8381C71.6033 79.4033 69.8032 80.4615 67.6306 81.0125ZM56.6446 53.9394C57.1608 53.5533 57.7347 53.2163 58.3663 52.9285C58.9978 52.6407 59.6531 52.4107 60.332 52.2385C61.0109 52.0662 61.6775 51.9519 62.3315 51.8953C62.9856 51.8388 63.6316 51.8572 64.2695 51.9506C63.7981 51.2317 63.1578 50.7014 62.3485 50.3598C61.5392 50.0182 60.6933 49.9593 59.8107 50.1832C58.9281 50.407 58.1977 50.8749 57.6195 51.5866C57.0413 52.2984 56.7163 53.0827 56.6446 53.9394ZM66.588 76.902C69.0661 76.2734 70.7785 74.727 71.7251 72.2629C72.6718 69.7988 72.8062 67.2308 72.1285 64.5589C71.5203 62.1611 70.2464 60.0233 68.3068 58.1454C66.3671 56.2676 64.0565 55.6688 61.3747 56.349C58.7268 57.0207 56.9872 58.6377 56.1559 61.2002C55.3245 63.7627 55.2172 66.26 55.8342 68.6921C56.5119 71.3639 57.8541 73.5574 59.8608 75.2724C61.8675 76.9873 64.1099 77.5305 66.588 76.902ZM65.5453 72.7914C64.9682 72.9378 64.4345 72.8635 63.9442 72.5686C63.4539 72.2737 63.1349 71.8351 62.9872 71.2527L60.9019 63.0316C60.7542 62.4492 60.8255 61.9116 61.116 61.4186C61.4065 60.9257 61.8402 60.606 62.4173 60.4596C62.9944 60.3132 63.5281 60.3875 64.0184 60.6824C64.5087 60.9773 64.8278 61.4159 64.9755 61.9983L67.0608 70.2194C67.2085 70.8018 67.1371 71.3394 66.8467 71.8324C66.5562 72.3253 66.1224 72.645 65.5453 72.7914Z" stroke="#EAA2CD" stroke-width="8" mask="url(#path-2-outside-1_2128_89)"/>
</g>
</svg>
