<svg width="40" height="40" viewBox="0 0 40 40" fill="none" xmlns="http://www.w3.org/2000/svg">
<circle cx="20" cy="20" r="20" fill="#FF0049"/>
<path d="M33.9095 27.4309C34.1502 27.9961 33.8941 28.6522 33.3381 28.896C32.7816 29.1412 32.1359 28.8807 31.8952 28.3156C30.8369 25.8303 28.3357 24.2241 25.5221 24.2241C22.6437 24.2241 20.1271 25.8292 19.1116 28.3126C18.936 28.7414 18.5273 29 18.0975 29C17.957 29 17.8147 28.9729 17.6768 28.9149C17.1171 28.6782 16.8518 28.0258 17.0841 27.4577C18.4414 24.139 21.7536 21.9948 25.5217 21.9948C29.2111 21.9955 32.5036 24.129 33.9095 27.4309ZM17.8945 14.304C17.8945 13.0322 18.9104 12 20.163 12C21.4152 12 22.4311 13.0318 22.4311 14.304C22.4311 15.5769 21.4152 16.6087 20.163 16.6087C18.9104 16.6084 17.8945 15.5766 17.8945 14.304ZM28.1806 14.304C28.1806 13.0322 29.1972 12 30.4498 12C31.7021 12 32.718 13.0318 32.718 14.304C32.718 15.5769 31.7024 16.6087 30.4498 16.6087C29.1972 16.6087 28.1806 15.5766 28.1806 14.304Z" fill="white"/>
</svg>
