<svg width="40" height="40" viewBox="0 0 40 40" fill="none" xmlns="http://www.w3.org/2000/svg">
<circle cx="20" cy="20" r="20" fill="#1B2BEF"/>
<path d="M7.26045 13.8417C7.26045 12.5837 8.27633 11.5627 9.5289 11.5627C10.7811 11.5627 11.797 12.5833 11.797 13.8417C11.797 15.1008 10.7811 16.1214 9.5289 16.1214C8.27633 16.121 7.26045 15.1008 7.26045 13.8417ZM17.5462 13.8417C17.5462 12.5837 18.5632 11.5627 19.8154 11.5627C21.0676 11.5627 22.0839 12.5833 22.0839 13.8417C22.0839 15.1008 21.068 16.1214 19.8154 16.1214C18.5636 16.121 17.5462 15.1008 17.5462 13.8417ZM22.9095 23.1757C21.5037 26.4418 18.2113 28.5521 14.5216 28.5521C10.7533 28.5521 7.44153 26.4312 6.08434 23.1486C5.85168 22.5863 6.1169 21.9409 6.67697 21.7072C6.81452 21.6502 6.95719 21.623 7.09766 21.623C7.52787 21.623 7.93612 21.8788 8.11135 22.3033C9.12723 24.7601 11.6433 26.3474 14.5216 26.3474C17.3348 26.3474 19.8363 24.759 20.8946 22.3003C21.1353 21.7413 21.7813 21.4837 22.337 21.7263C22.8942 21.9677 23.1502 22.6168 22.9095 23.1757Z" fill="white"/>
</svg>
