<svg width="34" height="34" viewBox="0 0 34 34" fill="none" xmlns="http://www.w3.org/2000/svg">
<circle cx="17" cy="17" r="17" fill="#0C27EF"/>
<mask id="mask0_405_2812" style="mask-type:alpha" maskUnits="userSpaceOnUse" x="5" y="5" width="24" height="24">
<rect x="5.66699" y="5.6665" width="23.2195" height="23.2195" fill="#ECEAE1"/>
</mask>
<g mask="url(#mask0_405_2812)">
<path d="M23.8254 17.0031C23.8254 15.6656 23.4706 14.4449 22.7611 13.3411C22.0517 12.2373 21.1003 11.4114 19.9071 10.8635C19.6652 10.7507 19.4878 10.5775 19.375 10.3438C19.2621 10.1101 19.246 9.87244 19.3266 9.63073C19.4233 9.37289 19.5967 9.18758 19.8466 9.07477C20.0965 8.96197 20.3505 8.96197 20.6085 9.07477C22.1726 9.7677 23.4223 10.8272 24.3575 12.2534C25.2927 13.6795 25.7603 15.2628 25.7603 17.0031C25.7603 18.7435 25.2927 20.3268 24.3575 21.7529C23.4223 23.179 22.1726 24.2386 20.6085 24.9315C20.3505 25.0443 20.0965 25.0443 19.8466 24.9315C19.5967 24.8187 19.4233 24.6334 19.3266 24.3755C19.246 24.1338 19.2621 23.8961 19.375 23.6625C19.4878 23.4288 19.6652 23.2556 19.9071 23.1428C21.1003 22.5949 22.0517 21.769 22.7611 20.6652C23.4706 19.5613 23.8254 18.3406 23.8254 17.0031ZM12.2156 19.9279H9.31318C9.03906 19.9279 8.80929 19.8353 8.62385 19.6499C8.43842 19.4646 8.3457 19.235 8.3457 18.961V15.0936C8.3457 14.8196 8.43842 14.59 8.62385 14.4047C8.80929 14.2193 9.03906 14.1267 9.31318 14.1267H12.2156L15.4083 10.936C15.7147 10.6298 16.0654 10.5613 16.4604 10.7305C16.8555 10.8997 17.053 11.2019 17.053 11.637V22.4176C17.053 22.8527 16.8555 23.1549 16.4604 23.3241C16.0654 23.4933 15.7147 23.4248 15.4083 23.1186L12.2156 19.9279ZM21.4067 17.0273C21.4067 17.7041 21.2535 18.3447 20.9471 18.949C20.6408 19.5533 20.2376 20.0488 19.7378 20.4355C19.5765 20.5322 19.4113 20.5362 19.2419 20.4476C19.0726 20.359 18.988 20.218 18.988 20.0246V13.9817C18.988 13.7883 19.0726 13.6473 19.2419 13.5586C19.4113 13.47 19.5765 13.474 19.7378 13.5707C20.2376 13.9736 20.6408 14.4812 20.9471 15.0936C21.2535 15.7059 21.4067 16.3505 21.4067 17.0273ZM15.1181 13.9817L13.038 16.0604H10.2807V17.9942H13.038L15.1181 20.073V13.9817Z" fill="#ECEAE1"/>
</g>
</svg>
