<svg width="246" height="81" viewBox="0 0 246 81" fill="none" xmlns="http://www.w3.org/2000/svg">
<g style="mix-blend-mode:multiply">
<path d="M0.3 79V1.99999H16.69V24H17.79L22.3 1.99999H38.8V4.2L27.8 35.44V37.09L38.8 76.8V79H22.3L17.79 55.24H16.69V79H0.3ZM58.6662 79H42.2762V1.99999H59.1062C63.1395 1.99999 66.7695 2.95333 69.9962 4.86C73.2962 6.69333 75.8995 9.18666 77.8062 12.34C79.7862 15.4933 80.7762 19.0867 80.7762 23.12C80.7762 27.5933 79.5662 31.15 77.1462 33.79C74.7995 36.43 72.0128 38.2633 68.7862 39.29V40.94C72.0128 41.4533 74.5428 42.9567 76.3762 45.45C78.2828 47.87 79.2362 51.0233 79.2362 54.91V79.11H62.9562V54.91C62.9562 54.1033 62.6628 53.4433 62.0762 52.93C61.4895 52.3433 60.7928 52.05 59.9862 52.05H58.6662V79ZM58.6662 30.05H60.7562C61.7828 30.05 62.6262 29.72 63.2862 29.06C64.0195 28.3267 64.3862 27.4833 64.3862 26.53V20.15C64.3862 19.1233 64.0195 18.28 63.2862 17.62C62.6262 16.8867 61.7828 16.52 60.7562 16.52H58.6662V30.05ZM103.395 80.1C99.8749 80.1 96.6483 79.2567 93.7149 77.57C90.7816 75.81 88.4349 73.5 86.6749 70.64C84.9883 67.7067 84.1449 64.4433 84.1449 60.85V20.15C84.1449 16.5567 84.9883 13.33 86.6749 10.47C88.4349 7.53666 90.7816 5.22666 93.7149 3.53999C96.6483 1.78 99.8749 0.899996 103.395 0.899996C106.915 0.899996 110.142 1.78 113.075 3.53999C116.008 5.22666 118.318 7.53666 120.005 10.47C121.765 13.33 122.645 16.5567 122.645 20.15V44.79H100.535V61.95C100.535 62.6833 100.792 63.3433 101.305 63.93C101.892 64.5167 102.588 64.81 103.395 64.81C104.202 64.81 104.862 64.5167 105.375 63.93C105.888 63.3433 106.145 62.6833 106.145 61.95V50.4H122.645V62.06C122.498 65.4333 121.508 68.4767 119.675 71.19C117.915 73.9033 115.605 76.0667 112.745 77.68C109.958 79.2933 106.842 80.1 103.395 80.1ZM100.535 29.39H106.145V17.95C106.145 17.1433 105.888 16.4833 105.375 15.97C104.862 15.4567 104.202 15.2 103.395 15.2C102.588 15.2 101.892 15.4567 101.305 15.97C100.792 16.4833 100.535 17.1433 100.535 17.95V29.39ZM143.284 80.1C139.764 80.1 136.684 79.2567 134.044 77.57C131.477 75.81 129.497 73.5 128.104 70.64C126.71 67.7067 126.014 64.4433 126.014 60.85V50.07C126.014 46.55 126.857 43.3233 128.544 40.39C130.304 37.4567 132.65 35.1467 135.584 33.46C138.517 31.7 141.744 30.82 145.264 30.82H148.234V16.74C148.234 15.9333 147.94 15.2733 147.354 14.76C146.767 14.1733 146.07 13.88 145.264 13.88C144.53 13.88 143.87 14.1733 143.284 14.76C142.697 15.2733 142.404 15.9333 142.404 16.74V27.96H126.014V20.15C126.014 16.5567 126.857 13.33 128.544 10.47C130.304 7.53666 132.65 5.22666 135.584 3.53999C138.517 1.78 141.744 0.899996 145.264 0.899996C148.857 0.899996 152.084 1.78 154.944 3.53999C157.877 5.22666 160.187 7.53666 161.874 10.47C163.634 13.33 164.514 16.5567 164.514 20.15V79H152.964V75.15H151.864C151.13 76.7633 149.92 78.01 148.234 78.89C146.547 79.6967 144.897 80.1 143.284 80.1ZM145.264 64.81C146.07 64.81 146.767 64.5533 147.354 64.04C147.94 63.4533 148.234 62.7567 148.234 61.95V46.22H145.264C144.53 46.22 143.87 46.5133 143.284 47.1C142.697 47.6133 142.404 48.2733 142.404 49.08V61.95C142.404 62.7567 142.697 63.4533 143.284 64.04C143.87 64.5533 144.53 64.81 145.264 64.81ZM177.151 79V16.3H166.701V1.99999H204.101V16.3H193.651V79H177.151ZM223.885 79H207.495V1.99999H224.325C228.359 1.99999 231.989 2.95333 235.215 4.86C238.515 6.69333 241.119 9.18666 243.025 12.34C245.005 15.4933 245.995 19.0867 245.995 23.12C245.995 27.5933 244.785 31.15 242.365 33.79C240.019 36.43 237.232 38.2633 234.005 39.29V40.94C237.232 41.4533 239.762 42.9567 241.595 45.45C243.502 47.87 244.455 51.0233 244.455 54.91V79.11H228.175V54.91C228.175 54.1033 227.882 53.4433 227.295 52.93C226.709 52.3433 226.012 52.05 225.205 52.05H223.885V79ZM223.885 30.05H225.975C227.002 30.05 227.845 29.72 228.505 29.06C229.239 28.3267 229.605 27.4833 229.605 26.53V20.15C229.605 19.1233 229.239 18.28 228.505 17.62C227.845 16.8867 227.002 16.52 225.975 16.52H223.885V30.05Z" fill="#2A2A2A"/>
</g>
</svg>
