<svg width="37" height="44" viewBox="0 0 37 44" fill="none" xmlns="http://www.w3.org/2000/svg">
<path d="M30.4665 41.2929C28.1038 43.5631 25.5242 43.2046 23.041 42.1293C20.4131 41.0301 18.0022 40.9823 15.2297 42.1293C11.7581 43.6109 9.92579 43.1807 7.85243 41.2929C-3.91267 29.2731 -2.17684 10.9685 11.1794 10.2994C14.4341 10.4666 16.7004 12.0677 18.605 12.2111C21.4498 11.6376 24.1741 9.98871 27.2118 10.2038C30.8522 10.4905 33.6007 11.9243 35.4088 14.5051C27.8869 18.9737 29.6709 28.7951 36.566 31.5432C35.1918 35.1277 33.4078 38.6882 30.4424 41.3168L30.4665 41.2929ZM18.3639 10.156C18.0022 4.82709 22.3659 0.430165 27.3806 3.05176e-05C28.0797 6.16529 21.7391 10.7534 18.3639 10.156Z" fill="#E2E0D7"/>
</svg>
