<svg width="39" height="45" viewBox="0 0 39 45" fill="none" xmlns="http://www.w3.org/2000/svg">
<path d="M0.649356 2.65778L20.2022 22.549L0.794772 42.6236C0.478058 42.1941 0.231658 41.7135 0.0654543 41.201C-0.0218181 40.6204 -0.0218181 40.0293 0.0654543 39.4488V5.2872C0.00728781 4.3705 0.21087 3.4538 0.647119 2.65778M28.6252 13.874L22.2425 20.4325L2.92232 0.722262C3.54873 0.497148 4.21988 0.434488 4.87537 0.541243C5.90447 0.833659 6.88659 1.28389 7.78817 1.87104L25.2739 11.9083C26.4104 12.5419 27.5178 13.208 28.6252 13.874ZM22.2448 24.6957L28.5961 31.166L23.992 33.8256L9.9448 41.925C8.78147 42.5911 7.61367 43.227 6.47719 43.9534C5.991 44.2677 5.44569 44.4707 4.87777 44.5488C4.30984 44.6268 3.73239 44.5781 3.18407 44.4059L22.2448 24.6957ZM38.7103 22.549C38.7279 23.3608 38.5307 24.162 38.1403 24.8657C37.7498 25.5694 37.181 26.1487 36.4955 26.5407L31.2471 29.5623L24.341 22.549L31.2762 15.415C33.0548 16.4431 34.8042 17.4712 36.5515 18.4389C37.2487 18.8425 37.8213 19.4429 38.203 20.1703C38.5847 20.8977 38.7621 21.7225 38.7103 22.549Z" fill="#FFFDEE"/>
</svg>
