<svg width="42" height="42" viewBox="0 0 42 42" fill="none" xmlns="http://www.w3.org/2000/svg">
<circle cx="21" cy="21" r="20" stroke="#2A2A2A" stroke-width="2"/>
<path d="M8.26045 15.2804C8.26045 14.0216 9.27633 13 10.5289 13C11.7811 13 12.797 14.0212 12.797 15.2804C12.797 16.5403 11.7811 17.5615 10.5289 17.5615C9.27633 17.5611 8.26045 16.5403 8.26045 15.2804ZM18.5462 15.2804C18.5462 14.0216 19.5632 13 20.8154 13C22.0676 13 23.0839 14.0212 23.0839 15.2804C23.0839 16.5403 22.068 17.5615 20.8154 17.5615C19.5636 17.5611 18.5462 16.5403 18.5462 15.2804ZM23.9095 24.6203C22.5037 27.8884 19.2113 30 15.5216 30C11.7533 30 8.44153 27.8778 7.08434 24.5931C6.85168 24.0304 7.1169 23.3847 7.67697 23.1508C7.81452 23.0938 7.95719 23.0666 8.09766 23.0666C8.52787 23.0666 8.93612 23.3225 9.11135 23.7473C10.1272 26.2056 12.6433 27.7939 15.5216 27.7939C18.3348 27.7939 20.8363 26.2045 21.8946 23.7443C22.1353 23.185 22.7813 22.9272 23.337 23.1699C23.8942 23.4115 24.1502 24.061 23.9095 24.6203Z" fill="#2A2A2A"/>
</svg>
