<svg width="34" height="34" viewBox="0 0 34 34" fill="none" xmlns="http://www.w3.org/2000/svg">
<circle cx="17" cy="17" r="16.5" stroke="#1B2BEF"/>
<mask id="mask0_485_92" style="mask-type:alpha" maskUnits="userSpaceOnUse" x="5" y="5" width="24" height="24">
<rect x="6.16699" y="6.1665" width="22.2195" height="22.2195" fill="#ECEAE1" stroke="#1B2BEF"/>
</mask>
<g mask="url(#mask0_485_92)">
<mask id="path-3-inside-1_485_92" fill="white">
<path d="M23.8254 17.0031C23.8254 15.6656 23.4706 14.4449 22.7611 13.3411C22.0517 12.2373 21.1003 11.4114 19.9071 10.8635C19.6652 10.7507 19.4878 10.5775 19.375 10.3438C19.2621 10.1101 19.246 9.87244 19.3266 9.63073C19.4233 9.37289 19.5967 9.18758 19.8466 9.07477C20.0965 8.96197 20.3505 8.96197 20.6085 9.07477C22.1726 9.7677 23.4223 10.8272 24.3575 12.2534C25.2927 13.6795 25.7603 15.2628 25.7603 17.0031C25.7603 18.7435 25.2927 20.3268 24.3575 21.7529C23.4223 23.179 22.1726 24.2386 20.6085 24.9315C20.3505 25.0443 20.0965 25.0443 19.8466 24.9315C19.5967 24.8187 19.4233 24.6334 19.3266 24.3755C19.246 24.1338 19.2621 23.8961 19.375 23.6625C19.4878 23.4288 19.6652 23.2556 19.9071 23.1428C21.1003 22.5949 22.0517 21.769 22.7611 20.6652C23.4706 19.5613 23.8254 18.3406 23.8254 17.0031ZM12.2156 19.9279H9.31318C9.03906 19.9279 8.80929 19.8353 8.62385 19.6499C8.43842 19.4646 8.3457 19.235 8.3457 18.961V15.0936C8.3457 14.8196 8.43842 14.59 8.62385 14.4047C8.80929 14.2193 9.03906 14.1267 9.31318 14.1267H12.2156L15.4083 10.936C15.7147 10.6298 16.0654 10.5613 16.4604 10.7305C16.8555 10.8997 17.053 11.2019 17.053 11.637V22.4176C17.053 22.8527 16.8555 23.1549 16.4604 23.3241C16.0654 23.4933 15.7147 23.4248 15.4083 23.1186L12.2156 19.9279ZM21.4067 17.0273C21.4067 17.7041 21.2535 18.3447 20.9471 18.949C20.6408 19.5533 20.2376 20.0488 19.7378 20.4355C19.5765 20.5322 19.4113 20.5362 19.2419 20.4476C19.0726 20.359 18.988 20.218 18.988 20.0246V13.9817C18.988 13.7883 19.0726 13.6473 19.2419 13.5586C19.4113 13.47 19.5765 13.474 19.7378 13.5707C20.2376 13.9736 20.6408 14.4812 20.9471 15.0936C21.2535 15.7059 21.4067 16.3505 21.4067 17.0273ZM15.1181 13.9817L13.038 16.0604H10.2807V17.9942H13.038L15.1181 20.073V13.9817Z"/>
</mask>
<path d="M23.8254 17.0031C23.8254 15.6656 23.4706 14.4449 22.7611 13.3411C22.0517 12.2373 21.1003 11.4114 19.9071 10.8635C19.6652 10.7507 19.4878 10.5775 19.375 10.3438C19.2621 10.1101 19.246 9.87244 19.3266 9.63073C19.4233 9.37289 19.5967 9.18758 19.8466 9.07477C20.0965 8.96197 20.3505 8.96197 20.6085 9.07477C22.1726 9.7677 23.4223 10.8272 24.3575 12.2534C25.2927 13.6795 25.7603 15.2628 25.7603 17.0031C25.7603 18.7435 25.2927 20.3268 24.3575 21.7529C23.4223 23.179 22.1726 24.2386 20.6085 24.9315C20.3505 25.0443 20.0965 25.0443 19.8466 24.9315C19.5967 24.8187 19.4233 24.6334 19.3266 24.3755C19.246 24.1338 19.2621 23.8961 19.375 23.6625C19.4878 23.4288 19.6652 23.2556 19.9071 23.1428C21.1003 22.5949 22.0517 21.769 22.7611 20.6652C23.4706 19.5613 23.8254 18.3406 23.8254 17.0031ZM12.2156 19.9279H9.31318C9.03906 19.9279 8.80929 19.8353 8.62385 19.6499C8.43842 19.4646 8.3457 19.235 8.3457 18.961V15.0936C8.3457 14.8196 8.43842 14.59 8.62385 14.4047C8.80929 14.2193 9.03906 14.1267 9.31318 14.1267H12.2156L15.4083 10.936C15.7147 10.6298 16.0654 10.5613 16.4604 10.7305C16.8555 10.8997 17.053 11.2019 17.053 11.637V22.4176C17.053 22.8527 16.8555 23.1549 16.4604 23.3241C16.0654 23.4933 15.7147 23.4248 15.4083 23.1186L12.2156 19.9279ZM21.4067 17.0273C21.4067 17.7041 21.2535 18.3447 20.9471 18.949C20.6408 19.5533 20.2376 20.0488 19.7378 20.4355C19.5765 20.5322 19.4113 20.5362 19.2419 20.4476C19.0726 20.359 18.988 20.218 18.988 20.0246V13.9817C18.988 13.7883 19.0726 13.6473 19.2419 13.5586C19.4113 13.47 19.5765 13.474 19.7378 13.5707C20.2376 13.9736 20.6408 14.4812 20.9471 15.0936C21.2535 15.7059 21.4067 16.3505 21.4067 17.0273ZM15.1181 13.9817L13.038 16.0604H10.2807V17.9942H13.038L15.1181 20.073V13.9817Z" fill="#1B2BEF"/>
<path d="M19.9071 10.8635L19.8965 10.8861L19.8967 10.8862L19.9071 10.8635ZM19.3266 9.63073L19.3032 9.62194L19.3029 9.62282L19.3266 9.63073ZM20.6085 9.07477L20.6186 9.05192L20.6185 9.05187L20.6085 9.07477ZM20.6085 24.9315L20.6185 24.9544L20.6186 24.9543L20.6085 24.9315ZM19.3266 24.3755L19.3029 24.3835L19.3032 24.3843L19.3266 24.3755ZM19.9071 23.1428L19.8967 23.1201L19.8965 23.1201L19.9071 23.1428ZM12.2156 19.9279L12.2333 19.9102L12.226 19.9029H12.2156V19.9279ZM12.2156 14.1267V14.1517H12.226L12.2333 14.1444L12.2156 14.1267ZM15.4083 10.936L15.426 10.9537L15.4083 10.936ZM19.7378 20.4355L19.7507 20.4571L19.7531 20.4553L19.7378 20.4355ZM19.7378 13.5707L19.7536 13.5511L19.7506 13.5493L19.7378 13.5707ZM15.1181 13.9817H15.1431V13.9213L15.1004 13.964L15.1181 13.9817ZM13.038 16.0604V16.0854H13.0483L13.0557 16.0781L13.038 16.0604ZM10.2807 16.0604V16.0354H10.2557V16.0604H10.2807ZM10.2807 17.9942H10.2557V18.0192H10.2807V17.9942ZM13.038 17.9942L13.0557 17.9765L13.0483 17.9692H13.038V17.9942ZM15.1181 20.073L15.1004 20.0906L15.1431 20.1333V20.073H15.1181ZM23.8504 17.0031C23.8504 15.6609 23.4943 14.4355 22.7822 13.3276L22.7401 13.3546C23.447 14.4544 23.8004 15.6703 23.8004 17.0031H23.8504ZM22.7822 13.3276C22.0701 12.2197 21.1151 11.3907 19.9175 10.8408L19.8967 10.8862C21.0855 11.4321 22.0332 12.2548 22.7401 13.3546L22.7822 13.3276ZM19.9177 10.8408C19.6808 10.7304 19.5078 10.5612 19.3975 10.3329L19.3525 10.3547C19.4679 10.5937 19.6496 10.771 19.8965 10.8861L19.9177 10.8408ZM19.3975 10.3329C19.2874 10.105 19.2718 9.87405 19.3503 9.63864L19.3029 9.62282C19.2202 9.87084 19.2368 10.1153 19.3525 10.3547L19.3975 10.3329ZM19.35 9.63951C19.4444 9.38787 19.6131 9.20761 19.8569 9.09756L19.8363 9.05199C19.5803 9.16754 19.4023 9.35791 19.3032 9.62194L19.35 9.63951ZM19.8569 9.09756C20.1002 8.98776 20.3468 8.98763 20.5985 9.09768L20.6185 9.05187C20.3542 8.93632 20.0929 8.93619 19.8363 9.05199L19.8569 9.09756ZM20.5984 9.09763C22.1581 9.78862 23.404 10.845 24.3366 12.2671L24.3784 12.2397C23.4405 10.8095 22.1871 9.74678 20.6186 9.05192L20.5984 9.09763ZM24.3366 12.2671C25.2691 13.6891 25.7353 15.2675 25.7353 17.0031H25.7853C25.7853 15.258 25.3164 13.67 24.3784 12.2397L24.3366 12.2671ZM25.7353 17.0031C25.7353 18.7387 25.2691 20.3172 24.3366 21.7392L24.3784 21.7666C25.3164 20.3363 25.7853 18.7483 25.7853 17.0031H25.7353ZM24.3366 21.7392C23.404 23.1613 22.1581 24.2176 20.5984 24.9086L20.6186 24.9543C22.1871 24.2595 23.4405 23.1968 24.3784 21.7666L24.3366 21.7392ZM20.5985 24.9086C20.3468 25.0186 20.1002 25.0185 19.8569 24.9087L19.8363 24.9543C20.0929 25.0701 20.3542 25.0699 20.6185 24.9544L20.5985 24.9086ZM19.8569 24.9087C19.6131 24.7986 19.4444 24.6184 19.35 24.3668L19.3032 24.3843C19.4023 24.6483 19.5803 24.8387 19.8363 24.9543L19.8569 24.9087ZM19.3503 24.3676C19.2718 24.1322 19.2874 23.9013 19.3975 23.6733L19.3525 23.6516C19.2368 23.891 19.2202 24.1354 19.3029 24.3834L19.3503 24.3676ZM19.3975 23.6733C19.5078 23.445 19.6808 23.2759 19.9177 23.1654L19.8965 23.1201C19.6496 23.2353 19.4679 23.4126 19.3525 23.6516L19.3975 23.6733ZM19.9175 23.1655C21.1151 22.6156 22.0701 21.7865 22.7822 20.6787L22.7401 20.6516C22.0332 21.7515 21.0855 22.5742 19.8967 23.1201L19.9175 23.1655ZM22.7822 20.6787C23.4943 19.5707 23.8504 18.3453 23.8504 17.0031H23.8004C23.8004 18.3359 23.447 19.5519 22.7401 20.6516L22.7822 20.6787ZM12.2156 19.9029H9.31318V19.9529H12.2156V19.9029ZM9.31318 19.9029C9.04535 19.9029 8.82204 19.8127 8.64153 19.6323L8.60618 19.6676C8.79654 19.8579 9.03277 19.9529 9.31318 19.9529V19.9029ZM8.64153 19.6323C8.46101 19.4519 8.3707 19.2287 8.3707 18.961H8.3207C8.3207 19.2413 8.41583 19.4774 8.60618 19.6676L8.64153 19.6323ZM8.3707 18.961V15.0936H8.3207V18.961H8.3707ZM8.3707 15.0936C8.3707 14.8259 8.46101 14.6027 8.64153 14.4223L8.60618 14.387C8.41583 14.5772 8.3207 14.8133 8.3207 15.0936H8.3707ZM8.64153 14.4223C8.82204 14.2419 9.04535 14.1517 9.31318 14.1517V14.1017C9.03277 14.1017 8.79654 14.1967 8.60618 14.387L8.64153 14.4223ZM9.31318 14.1517H12.2156V14.1017H9.31318V14.1517ZM12.2333 14.1444L15.426 10.9537L15.3906 10.9183L12.1979 14.109L12.2333 14.1444ZM15.426 10.9537C15.5764 10.8034 15.7364 10.7126 15.9059 10.6795C16.0754 10.6464 16.2567 10.6705 16.4506 10.7535L16.4703 10.7076C16.2691 10.6214 16.0775 10.5951 15.8963 10.6305C15.7151 10.6659 15.5466 10.7625 15.3906 10.9183L15.426 10.9537ZM16.4506 10.7535C16.6445 10.8366 16.7884 10.9515 16.8839 11.0977C16.9796 11.244 17.028 11.4233 17.028 11.637H17.078C17.078 11.4156 17.0277 11.2263 16.9258 11.0704C16.8239 10.9144 16.6715 10.7937 16.4703 10.7076L16.4506 10.7535ZM17.028 11.637V22.4176H17.078V11.637H17.028ZM17.028 22.4176C17.028 22.6313 16.9796 22.8106 16.8839 22.9569C16.7884 23.1031 16.6445 23.218 16.4506 23.3011L16.4703 23.347C16.6715 23.2609 16.8239 23.1402 16.9258 22.9842C17.0277 22.8283 17.078 22.639 17.078 22.4176H17.028ZM16.4506 23.3011C16.2567 23.3841 16.0754 23.4082 15.9059 23.3751C15.7364 23.342 15.5764 23.2512 15.426 23.1009L15.3906 23.1363C15.5466 23.2921 15.7151 23.3888 15.8963 23.4241C16.0775 23.4595 16.2691 23.4332 16.4703 23.347L16.4506 23.3011ZM15.426 23.1009L12.2333 19.9102L12.1979 19.9456L15.3906 23.1363L15.426 23.1009ZM21.3817 17.0273C21.3817 17.7002 21.2294 18.3369 20.9248 18.9377L20.9694 18.9603C21.2776 18.3525 21.4317 17.708 21.4317 17.0273H21.3817ZM20.9248 18.9377C20.62 19.5389 20.2192 20.0314 19.7225 20.4158L19.7531 20.4553C20.2561 20.0661 20.6615 19.5676 20.9694 18.9603L20.9248 18.9377ZM19.7249 20.4141C19.5713 20.5062 19.4153 20.5101 19.2535 20.4255L19.2303 20.4698C19.4072 20.5624 19.5818 20.5582 19.7506 20.457L19.7249 20.4141ZM19.2535 20.4255C19.1723 20.3829 19.1125 20.3285 19.0729 20.2625C19.0333 20.1965 19.013 20.1176 19.013 20.0246H18.963C18.963 20.125 18.985 20.2132 19.03 20.2883C19.0751 20.3633 19.1423 20.4237 19.2303 20.4698L19.2535 20.4255ZM19.013 20.0246V13.9817H18.963V20.0246H19.013ZM19.013 13.9817C19.013 13.8887 19.0333 13.8097 19.0729 13.7437C19.1125 13.6778 19.1723 13.6233 19.2535 13.5808L19.2303 13.5365C19.1423 13.5826 19.0751 13.643 19.03 13.718C18.985 13.793 18.963 13.8812 18.963 13.9817H19.013ZM19.2535 13.5808C19.4153 13.4961 19.5713 13.5001 19.7249 13.5922L19.7506 13.5493C19.5818 13.448 19.4072 13.4439 19.2303 13.5365L19.2535 13.5808ZM19.7221 13.5902C20.219 13.9907 20.6199 14.4954 20.9248 15.1047L20.9695 15.0824C20.6616 14.467 20.2563 13.9565 19.7535 13.5513L19.7221 13.5902ZM20.9248 15.1047C21.2294 15.7137 21.3817 16.3544 21.3817 17.0273H21.4317C21.4317 16.3466 21.2776 15.6982 20.9695 15.0824L20.9248 15.1047ZM15.1004 13.964L13.0203 16.0427L13.0557 16.0781L15.1357 13.9993L15.1004 13.964ZM13.038 16.0354H10.2807V16.0854H13.038V16.0354ZM10.2557 16.0604V17.9942H10.3057V16.0604H10.2557ZM10.2807 18.0192H13.038V17.9692H10.2807V18.0192ZM13.0203 18.0119L15.1004 20.0906L15.1357 20.0553L13.0557 17.9765L13.0203 18.0119ZM15.1431 20.073V13.9817H15.0931V20.073H15.1431Z" fill="#1B2BEF" mask="url(#path-3-inside-1_485_92)"/>
</g>
</svg>
