<svg width="42" height="42" viewBox="0 0 42 42" fill="none" xmlns="http://www.w3.org/2000/svg">
<circle cx="21" cy="21" r="20" stroke="#2A2A2A" stroke-width="2"/>
<path d="M34.9095 27.984C35.1502 28.5488 34.8941 29.2045 34.3381 29.4481C33.7816 29.6932 33.1359 29.4329 32.8952 28.8681C31.8369 26.3844 29.3357 24.7791 26.5221 24.7791C23.6437 24.7791 21.1271 26.3832 20.1116 28.8651C19.936 29.2936 19.5273 29.5521 19.0975 29.5521C18.957 29.5521 18.8147 29.525 18.6768 29.467C18.1171 29.2305 17.8518 28.5785 18.0841 28.0107C19.4414 24.6941 22.7536 22.5512 26.5217 22.5512C30.2111 22.552 33.5036 24.6841 34.9095 27.984ZM18.8945 14.8653C18.8945 13.5943 19.9104 12.5627 21.163 12.5627C22.4152 12.5627 23.4311 13.5939 23.4311 14.8653C23.4311 16.1374 22.4152 17.1686 21.163 17.1686C19.9104 17.1682 18.8945 16.1371 18.8945 14.8653ZM29.1806 14.8653C29.1806 13.5943 30.1972 12.5627 31.4498 12.5627C32.7021 12.5627 33.718 13.5939 33.718 14.8653C33.718 16.1374 32.7024 17.1686 31.4498 17.1686C30.1972 17.1686 29.1806 16.1371 29.1806 14.8653Z" fill="black"/>
</svg>
