<svg width="1006" height="647" viewBox="0 0 1006 647" fill="none" xmlns="http://www.w3.org/2000/svg">
<path d="M743.724 189.788C743.561 189.626 743.399 189.463 743.236 189.342C713.072 161.798 657.782 144.735 629.771 141.018C563.37 132.223 505.398 150.992 448.991 177.52C448.483 177.763 447.975 178.007 447.467 178.231C447.366 178.292 447.284 178.332 447.203 178.373C420.147 191.19 393.416 205.754 366.279 219.871C365.771 220.115 365.283 220.379 364.775 220.643C364.694 220.704 364.593 220.745 364.511 220.785C356.813 224.766 349.094 228.727 341.315 232.587C331.138 237.644 316.046 243.962 299.268 251.558C298.537 251.883 297.826 252.208 297.074 252.554C278.163 261.166 257.363 271.383 239.224 283.205C238.838 283.469 238.453 283.713 238.067 283.977C238.026 283.997 238.006 284.018 237.985 284.038C222.223 294.458 208.573 306.138 200.082 319.077C200.082 319.118 200.042 319.158 200.021 319.199C199.9 319.361 199.798 319.524 199.676 319.707C195.411 326.369 192.526 333.377 191.45 340.73C190.82 344.792 190.759 348.956 191.328 353.222C192.384 361.144 195.573 369.391 201.342 378.024C201.484 378.247 201.626 378.45 201.768 378.653C203.779 381.619 206.095 384.605 208.735 387.652C225.107 406.501 247.004 420.192 271.704 429.333C271.826 429.373 271.948 429.414 272.07 429.455C272.862 429.759 273.654 430.044 274.446 430.328C274.446 430.328 274.487 430.328 274.507 430.348C322.485 447.289 380.436 447.35 428.841 434.756C430.73 434.289 432.599 433.801 434.447 433.273C435.747 432.908 437.067 432.522 438.367 432.136L442.267 430.917C443.567 430.49 444.867 430.064 446.147 429.617C451.428 427.83 456.547 425.88 461.462 423.747C461.869 423.584 462.255 423.422 462.661 423.239C463.88 422.711 465.098 422.162 466.277 421.614C469.141 420.294 471.944 418.912 474.666 417.47L543.525 380.908C544.154 380.563 544.784 380.217 545.414 379.892C579.498 361.794 613.602 343.696 647.687 325.597C649.616 324.582 651.587 323.566 653.618 322.53C653.659 322.51 653.699 322.489 653.74 322.469C684.879 306.869 727.718 291.147 749.696 263.99C755.952 256.251 759.994 248.816 762.147 241.687C763 238.843 763.569 236.019 763.833 233.277C763.874 232.79 763.914 232.302 763.955 231.815C763.975 231.53 763.996 231.246 763.996 230.962C764.706 215.463 756.561 201.651 743.724 189.788ZM547.79 268.337C513.381 286.069 478.992 303.822 444.583 321.555C443.445 322.144 442.328 322.733 441.191 323.322C440.663 323.586 440.155 323.85 439.627 324.135C414.602 337.033 389.557 349.952 364.532 362.87H364.511C359.982 364.76 355.655 366.364 351.125 367.116H351.105C338.471 368.334 325.349 363.175 323.887 355.558C323.785 354.867 323.744 354.156 323.805 353.445C324.232 349.444 327.807 344.955 336.013 340.405C346.291 334.717 356.65 329.111 367.05 323.607C371.6 321.819 375.521 320.214 378.222 318.833C410.377 302.4 442.409 285.622 474.523 268.986C498.797 256.921 523.09 244.855 547.161 232.566C550.532 230.84 554.331 228.605 558.454 226.148C568.732 221.029 579.031 215.971 589.37 210.995C599.12 206.302 607.529 202.484 618.741 204.352C624.165 205.266 632.777 209.532 636.149 214.448C636.271 214.834 636.352 215.199 636.393 215.585C636.434 215.971 636.434 216.377 636.393 216.763C636.027 220.034 632.899 223.405 627.882 227.021C601.192 240.793 574.481 254.565 547.79 268.337Z" fill="black"/>
<path d="M750.996 198.909C748.802 195.74 746.364 192.754 743.764 189.911C743.602 189.707 743.419 189.525 743.236 189.342C721.177 165.658 686.118 152.759 655.913 145.812C612.587 135.839 565.056 134.966 521.993 146.889C496.948 153.815 472.716 165.211 448.991 177.52C448.3 177.886 447.609 178.231 446.939 178.597C428.292 188.326 409.97 198.564 391.832 207.582C383.503 211.706 375.094 215.768 366.624 219.77C366.014 220.075 365.385 220.379 364.775 220.643C364.694 220.704 364.593 220.745 364.511 220.785C342.879 231.023 320.921 241.037 299.268 251.559C298.293 252.026 297.318 252.493 296.363 252.96C296.343 252.981 296.323 252.981 296.302 253.001C276.945 262.446 257.851 272.318 239.509 283.124C239.468 283.124 239.428 283.185 239.387 283.206C238.94 283.47 238.493 283.713 238.067 283.977C238.026 283.998 238.006 284.018 237.985 284.038C236.218 285.074 234.471 286.131 232.724 287.187C219.318 295.332 207.496 306.301 200.082 319.077C200.082 319.118 200.042 319.158 200.021 319.199C199.879 319.402 199.757 319.626 199.656 319.849C195.979 326.349 193.481 333.296 192.486 340.568C191.876 344.915 191.856 349.363 192.445 353.913C193.278 360.555 195.431 367.36 199.189 374.266C199.879 375.546 200.59 376.805 201.342 378.024C201.525 378.308 201.687 378.593 201.85 378.877C201.87 378.897 201.87 378.918 201.89 378.938C217.104 403.475 242.698 419.685 272.252 429.597C272.984 429.841 273.715 430.085 274.446 430.328C274.446 430.328 274.487 430.328 274.507 430.349C324.719 446.538 385.697 444.933 426.525 435.325C429.186 434.695 431.827 434.025 434.447 433.274C435.747 432.908 437.067 432.522 438.367 432.136L442.267 430.917C443.567 430.491 444.867 430.064 446.147 429.617C451.306 427.83 456.405 425.86 461.462 423.747C461.869 423.585 462.255 423.422 462.661 423.239C463.88 422.731 465.078 422.224 466.277 421.696C493.576 409.711 519.556 393.725 545.414 379.994C579.498 361.875 613.602 343.777 647.687 325.679C647.809 325.618 647.93 325.537 648.073 325.476C649.921 324.48 651.769 323.505 653.618 322.53C653.659 322.51 653.699 322.49 653.74 322.469C675.291 311.013 696.863 299.557 718.414 288.121C735.721 278.96 750.528 265.493 757.435 249.588C759.527 244.774 760.928 239.757 761.436 234.557C762.553 223.284 759.567 211.218 750.996 198.909ZM378.222 318.833C410.377 302.401 442.409 285.623 474.523 268.987C498.797 256.921 523.09 244.856 547.161 232.567C550.532 230.84 554.331 228.606 558.454 226.148C568.732 221.029 579.031 215.971 589.37 210.995C599.12 206.303 607.529 202.484 618.741 204.353C624.165 205.267 632.777 209.532 636.149 214.448C636.271 214.834 636.352 215.2 636.393 215.585C636.434 215.971 636.434 216.378 636.393 216.764C636.027 220.034 632.899 223.406 627.882 227.021C601.192 240.793 574.481 254.565 547.79 268.337C513.381 286.07 478.992 303.823 444.583 321.555C443.445 322.144 442.328 322.733 441.191 323.323C440.663 323.587 440.155 323.851 439.627 324.135C414.602 337.033 389.557 349.952 364.532 362.871H364.511C359.982 364.76 355.655 366.365 351.125 367.116H351.105C338.471 368.335 325.349 363.175 323.886 355.558C323.785 354.868 323.744 354.157 323.805 353.446C324.232 349.444 327.807 344.955 336.013 340.405C346.291 334.718 356.65 329.112 367.05 323.607C371.6 321.819 375.521 320.215 378.222 318.833Z" fill="black"/>
<path d="M364.532 362.871C389.557 349.952 414.602 337.033 439.627 324.135C438.347 324.805 437.047 325.496 435.767 326.207C412.632 338.557 389.496 352.247 365.507 362.444C365.182 362.586 364.857 362.728 364.532 362.871Z" fill="black"/>
<path d="M637.571 218.835C637.327 221.293 635.255 223.71 630.36 225.741C629.69 226.087 629.04 226.432 628.37 226.777C628.207 226.859 628.044 226.94 627.882 227.021C632.899 223.405 636.027 220.034 636.393 216.763C636.434 216.377 636.434 215.971 636.393 215.585C636.352 215.199 636.271 214.834 636.149 214.448C632.777 209.532 624.165 205.267 618.741 204.352C607.529 202.484 599.12 206.302 589.37 210.995C579.031 215.971 568.732 221.029 558.454 226.148C554.331 228.605 550.532 230.84 547.16 232.566C523.09 244.855 498.797 256.921 474.523 268.987C442.409 285.622 410.377 302.4 378.222 318.833C375.521 320.214 371.6 321.819 367.05 323.607C356.65 329.111 346.291 334.718 336.013 340.405C327.807 344.955 324.232 349.444 323.805 353.446C323.744 354.156 323.785 354.867 323.886 355.558C325.349 363.175 338.471 368.335 351.105 367.116C350.8 367.177 350.475 367.238 350.15 367.278C346.961 367.725 343.671 367.745 340.116 367.156C332.235 365.816 322.647 361.652 322.038 354.319C321.997 353.669 322.018 352.999 322.119 352.308C322.302 350.846 322.83 349.302 323.785 347.616C329.29 337.866 351.654 329.578 367.01 323.546C367.213 323.444 367.416 323.363 367.619 323.302C367.619 323.302 367.626 323.302 367.639 323.302C371.925 321.596 375.643 320.072 378.222 318.752C409.178 302.949 439.992 286.821 470.887 270.794C472.106 270.144 473.305 269.515 474.523 268.905C502.331 254.443 530.2 240.102 558.251 226.148C558.576 225.985 558.921 225.823 559.267 225.66H559.287C569.281 220.684 579.315 215.768 589.37 210.913C599.12 206.201 607.529 202.402 618.762 204.271C624.124 205.185 632.595 209.37 636.048 214.204C636.068 214.224 636.088 214.245 636.088 214.265C636.109 214.285 636.129 214.306 636.149 214.346C636.941 215.484 637.449 216.662 637.551 217.84C637.591 218.165 637.591 218.49 637.571 218.835Z" fill="black"/>
<path d="M378.222 318.833C375.521 320.215 371.6 321.819 367.05 323.607C367.233 323.485 367.416 323.383 367.619 323.302C367.619 323.302 367.626 323.302 367.639 323.302C401.703 305.224 436.295 287.979 470.887 270.795C472.106 270.185 473.305 269.576 474.523 268.987C442.409 285.623 410.377 302.401 378.222 318.833Z" fill="black"/>
<path d="M636.393 216.764C636.088 219.953 633.163 223.243 628.37 226.778C628.207 226.879 628.044 227.001 627.882 227.123C604.604 243.84 574.176 254.91 548.664 267.971L444.583 321.657C441.638 323.16 438.713 324.683 435.767 326.207C412.347 338.272 388.927 350.358 365.507 362.444C365.182 362.607 364.857 362.769 364.532 362.952H364.511C363.678 363.379 362.866 363.805 362.033 364.232C358.661 365.857 354.924 366.811 351.125 367.197H351.105C350.78 367.218 350.475 367.258 350.15 367.279C337.78 368.172 325.227 363.033 323.886 355.558C325.349 363.176 338.471 368.335 351.105 367.116H351.125C355.655 366.365 359.982 364.76 364.511 362.871H364.532C389.556 349.952 414.602 337.033 439.627 324.135C440.155 323.851 440.663 323.587 441.191 323.323C442.328 322.734 443.445 322.144 444.583 321.555C478.992 303.823 513.381 286.07 547.79 268.337C574.481 254.565 601.191 240.793 627.882 227.021C632.899 223.406 636.027 220.034 636.393 216.764Z" fill="black"/>
<path d="M589.37 210.995C579.031 215.971 568.732 221.029 558.454 226.148C558.718 225.985 559.003 225.823 559.267 225.66H559.287C579.376 213.554 606.473 196.573 627.11 206.628C632.27 209.126 635.113 211.645 636.048 214.204C636.068 214.225 636.088 214.245 636.088 214.265C636.109 214.326 636.129 214.387 636.149 214.448C632.777 209.532 624.165 205.267 618.741 204.353C607.529 202.484 599.12 206.303 589.37 210.995Z" fill="black"/>
<path d="M750.996 198.828C748.944 195.862 746.689 193.059 744.272 190.378C744.11 190.174 743.927 189.992 743.724 189.789C721.725 165.739 686.341 152.718 655.913 145.711C612.587 135.758 565.056 134.884 521.993 146.808C496.42 153.876 471.68 165.617 447.467 178.231C447.366 178.292 447.284 178.332 447.203 178.373C446.573 178.698 445.944 179.043 445.314 179.368C427.216 188.854 409.442 198.746 391.831 207.501C384.011 211.381 376.11 215.199 368.168 218.978C367.538 219.282 366.908 219.567 366.278 219.871C343.346 230.738 320.007 241.362 297.074 252.554C296.079 253.041 295.083 253.529 294.088 254.016C276.051 262.832 258.277 272.054 241.134 282.088C241.093 282.108 241.032 282.149 240.971 282.19C240.382 282.515 239.793 282.86 239.224 283.205C237.051 284.485 234.898 285.785 232.745 287.085C219.074 295.393 207.05 306.626 199.676 319.707C199.514 319.971 199.371 320.255 199.229 320.519C199.189 320.56 199.168 320.621 199.128 320.682C195.736 326.938 193.4 333.6 192.486 340.568C191.876 344.914 191.856 349.363 192.445 353.913C193.298 360.514 195.451 367.319 199.189 374.185C200.021 375.708 200.875 377.191 201.768 378.653C202.012 379.019 202.235 379.385 202.459 379.75C202.5 379.791 202.54 379.852 202.581 379.913C217.267 402.947 241.235 418.527 268.962 428.378C269.002 428.398 269.063 428.419 269.104 428.439C269.977 428.744 270.83 429.028 271.704 429.333C271.826 429.373 271.948 429.414 272.07 429.455C322.729 446.497 385.047 445.014 426.525 435.244C440.155 432.034 453.358 427.281 466.276 421.614C467.191 421.208 468.105 420.802 469.019 420.395C469.059 420.375 469.08 420.375 469.1 420.355C491.992 410.036 513.99 397.036 535.786 385.092C538.365 383.671 540.945 382.269 543.525 380.908C544.154 380.563 544.784 380.217 545.414 379.892C579.498 361.794 613.602 343.696 647.687 325.597C671.269 313.065 694.832 300.552 718.414 288.04C735.7 278.899 750.488 265.452 757.435 249.588C759.527 244.774 760.928 239.757 761.436 234.557C762.574 223.263 759.608 211.178 750.996 198.828ZM547.79 268.337C513.381 286.069 478.992 303.822 444.583 321.555C443.445 322.144 442.328 322.733 441.191 323.322C440.663 323.586 440.155 323.85 439.627 324.135C414.602 337.033 389.556 349.952 364.532 362.871H364.511C359.982 364.76 355.655 366.364 351.125 367.116H351.105C338.471 368.335 325.349 363.175 323.886 355.558C323.785 354.868 323.744 354.157 323.805 353.446C324.232 349.444 327.807 344.955 336.013 340.405C346.291 334.718 356.65 329.111 367.05 323.607C371.6 321.819 375.521 320.215 378.222 318.833C410.377 302.401 442.409 285.622 474.523 268.987C498.797 256.921 523.09 244.855 547.16 232.566C550.532 230.84 554.331 228.606 558.454 226.148C568.732 221.029 579.031 215.971 589.37 210.995C599.12 206.303 607.529 202.484 618.741 204.353C624.165 205.267 632.777 209.532 636.149 214.448C636.271 214.834 636.352 215.199 636.393 215.585C636.434 215.971 636.434 216.378 636.393 216.763C636.027 220.034 632.899 223.406 627.882 227.021C601.191 240.793 574.481 254.565 547.79 268.337Z" fill="black"/>
<path d="M744.272 190.378C744.11 190.236 743.947 190.073 743.764 189.911C713.743 162.103 657.944 144.858 629.771 141.12C562.537 132.203 503.976 151.54 446.939 178.597C446.391 178.84 445.842 179.104 445.314 179.368C419.517 191.657 394.025 205.49 368.168 218.978C367.66 219.242 367.132 219.506 366.624 219.77C358.235 224.137 349.805 228.464 341.315 232.688C330.569 238.031 314.299 244.774 296.363 252.96C296.343 252.981 296.323 252.981 296.302 253.001C295.571 253.326 294.819 253.671 294.088 254.017C276.66 262.04 257.851 271.384 241.134 282.088C241.093 282.109 241.032 282.149 240.971 282.19C240.484 282.495 239.996 282.82 239.509 283.124C239.468 283.124 239.428 283.185 239.387 283.205C222.751 294.052 208.329 306.26 199.656 319.849C199.514 320.072 199.371 320.296 199.229 320.519C199.189 320.56 199.168 320.621 199.128 320.682C195.167 327.06 192.486 333.743 191.45 340.73C190.82 344.793 190.759 348.957 191.328 353.222C192.404 361.388 195.736 369.939 201.85 378.877C201.87 378.897 201.87 378.918 201.89 378.938C202.073 379.202 202.256 379.466 202.459 379.75C202.5 379.791 202.54 379.852 202.581 379.913C204.389 382.492 206.44 385.092 208.735 387.733C224.498 405.892 245.399 419.258 268.962 428.378C269.002 428.399 269.063 428.419 269.104 428.439C270.14 428.845 271.196 429.231 272.252 429.597C333.779 452.184 412.469 446.558 466.277 421.695C467.211 421.269 468.125 420.842 469.019 420.395C469.059 420.375 469.08 420.375 469.1 420.355C470.989 419.441 472.837 418.506 474.665 417.552C495.039 406.725 515.412 395.919 535.786 385.092C538.995 383.386 542.204 381.68 545.414 379.994C579.498 361.875 613.602 343.777 647.687 325.679C647.808 325.618 647.93 325.536 648.073 325.476C679.435 308.901 726.357 292.915 749.695 264.071C755.972 256.292 760.014 248.837 762.147 241.687C763 238.843 763.569 236.02 763.833 233.278C763.874 232.79 763.914 232.303 763.955 231.815C763.975 231.531 763.995 231.246 763.995 230.962C764.666 215.728 756.785 202.118 744.272 190.378ZM323.805 353.446C324.232 349.444 327.807 344.955 336.013 340.405C346.291 334.718 356.65 329.111 367.05 323.607C371.6 321.819 375.521 320.215 378.222 318.833C410.377 302.401 442.409 285.623 474.523 268.987C498.797 256.921 523.09 244.856 547.16 232.567C550.532 230.84 554.331 228.606 558.454 226.148C568.732 221.029 579.031 215.971 589.37 210.995C599.12 206.303 607.529 202.484 618.741 204.353C624.165 205.267 632.777 209.532 636.149 214.448C636.271 214.834 636.352 215.199 636.393 215.585C636.434 215.971 636.434 216.378 636.393 216.764C636.027 220.034 632.899 223.406 627.882 227.021C601.191 240.793 574.481 254.565 547.79 268.337C513.381 286.07 478.992 303.823 444.583 321.555C443.445 322.144 442.328 322.733 441.191 323.322C440.663 323.587 440.155 323.851 439.627 324.135C414.602 337.033 389.557 349.952 364.532 362.871H364.511C359.982 364.76 355.655 366.364 351.125 367.116H351.105C338.471 368.335 325.349 363.175 323.887 355.558C323.785 354.868 323.744 354.157 323.805 353.446Z" fill="black"/>
<path d="M351.125 367.116C355.655 366.364 359.982 364.76 364.511 362.871C364.268 362.992 364.024 363.114 363.78 363.257C363.191 363.541 362.622 363.846 362.033 364.15C359.149 365.552 356 366.446 352.771 366.892C352.71 366.892 352.649 366.913 352.588 366.933C352.1 367.014 351.613 367.055 351.125 367.116Z" fill="black"/>
<path d="M444.583 321.555C478.992 303.822 513.381 286.069 547.79 268.336C512.264 286.658 476.717 304.98 441.191 323.322C442.328 322.733 443.445 322.144 444.583 321.555Z" fill="black"/>
<path d="M547.79 268.336C574.481 254.565 601.191 240.793 627.882 227.021C627.699 227.143 627.516 227.285 627.334 227.407C605.741 242.783 578.137 253.366 554.006 265.208C551.914 266.244 549.821 267.28 547.79 268.336Z" fill="black"/>
<path d="M636.393 215.585C636.352 215.2 636.271 214.834 636.149 214.448C632.777 209.532 624.165 205.267 618.742 204.353C607.529 202.484 599.12 206.303 589.37 210.995C579.031 215.971 568.732 221.029 558.454 226.148C554.331 228.606 550.533 230.84 547.161 232.567C523.09 244.856 498.797 256.921 474.524 268.987C442.41 285.623 410.377 302.401 378.222 318.833C375.521 320.215 371.601 321.819 367.051 323.607C356.651 329.112 346.291 334.718 336.013 340.405C327.807 344.955 324.232 349.444 323.805 353.446C324.171 349.424 327.746 344.894 336.013 340.304C346.108 334.718 356.244 329.233 366.441 323.851C366.624 323.729 366.827 323.627 367.01 323.546C402.475 304.716 438.51 286.781 474.524 268.906C475.742 268.276 476.941 267.687 478.159 267.098C501.234 255.621 524.289 244.145 547.161 232.465C550.248 230.881 553.701 228.87 557.418 226.656H557.439C557.703 226.493 557.967 226.331 558.251 226.148C578.442 214.062 606.107 196.309 627.11 206.546C632.412 209.126 635.276 211.706 636.149 214.346C636.17 214.407 636.17 214.448 636.19 214.489C636.312 214.854 636.373 215.22 636.393 215.585Z" fill="black"/>
<path d="M547.161 232.567C523.09 244.856 498.797 256.921 474.523 268.987C475.742 268.337 476.941 267.707 478.159 267.098C504.484 253.428 530.87 239.859 557.418 226.656H557.439C557.764 226.473 558.109 226.31 558.454 226.148C554.331 228.606 550.532 230.84 547.161 232.567Z" fill="black"/>
<path d="M637.571 218.835C637.388 221.334 635.316 223.751 630.36 225.843C629.527 226.27 628.715 226.696 627.882 227.123C627.699 227.224 627.516 227.306 627.334 227.407C602.898 240.001 578.442 252.615 554.006 265.208C552.218 266.143 550.451 267.057 548.664 267.971L444.583 321.657C418.177 335.266 391.933 351.435 364.532 362.952H364.511L363.78 363.256C360.063 364.78 356.468 366.1 352.771 366.892C352.71 366.892 352.649 366.913 352.588 366.933C352.1 367.035 351.613 367.116 351.125 367.197H351.105C347.611 367.806 344.016 367.888 340.116 367.238C332.194 365.917 322.546 361.733 322.038 354.319C321.997 353.669 322.018 352.999 322.119 352.308C322.322 350.866 322.851 349.342 323.785 347.697C329.229 338.069 351.105 329.883 366.441 323.85C366.644 323.769 366.847 323.688 367.05 323.607C356.65 329.111 346.291 334.718 336.013 340.405C327.807 344.955 324.232 349.444 323.805 353.446C323.744 354.157 323.785 354.867 323.886 355.558C325.349 363.175 338.471 368.335 351.105 367.116H351.125C355.655 366.364 359.982 364.76 364.511 362.871H364.532C389.556 349.952 414.602 337.033 439.627 324.135C440.155 323.85 440.663 323.586 441.191 323.322C442.328 322.733 443.445 322.144 444.583 321.555C478.992 303.822 513.381 286.069 547.79 268.337C574.481 254.565 601.191 240.793 627.882 227.021C632.899 223.406 636.027 220.034 636.393 216.763C636.434 216.377 636.434 215.971 636.393 215.585C636.352 215.199 636.271 214.834 636.149 214.448C636.169 214.448 636.19 214.448 636.19 214.488C636.941 215.585 637.429 216.723 637.551 217.84C637.591 218.165 637.591 218.49 637.571 218.835Z" fill="black"/>
<path d="M21.1453 271.252L120.9 223.599V223.518L21.1453 271.151V271.252Z" fill="black"/>
<path d="M120.899 223.599L0 151.49V151.409L120.899 223.518V223.599Z" fill="black"/>
<path d="M101.135 104.894L427.048 19.9675V19.8862C346.306 40.9299 265.564 61.9532 184.823 82.9969C157.32 90.1672 127.948 95.2859 101.135 104.812C66.6044 117.061 33.3124 136.073 0 151.429V151.511L101.135 104.894Z" fill="black"/>
<path d="M427.048 19.9675L518.413 69.8141L518.434 69.7126L427.048 19.8862V19.9675Z" fill="black"/>
<path d="M183.827 142.492L173.854 147.184V147.103C189.169 137.536 211.452 136.621 228.575 133.026C267.88 124.779 307.164 116.553 346.469 108.306C385.773 100.059 423.737 92.117 462.371 84.0123C479.535 80.417 503.22 79.7061 518.413 69.7124V69.7936C503.93 78.9749 482.582 79.8483 466.332 83.2608C429.14 91.0607 391.968 98.8607 354.776 106.64C297.8 118.584 240.803 130.528 183.827 142.471V142.492Z" fill="black"/>
<path d="M173.854 147.184L222.136 175.276V175.174L173.854 147.103V147.184Z" fill="black"/>
<path d="M222.136 175.276L316.833 130.04V129.959L222.136 175.174V175.276Z" fill="black"/>
<path d="M316.833 130.04L397.676 175.987L397.697 175.906L316.833 129.959V130.04Z" fill="black"/>
<path d="M101.887 320.611L21.1453 271.252V271.15L101.887 320.53V320.611Z" fill="black"/>
<path d="M397.677 175.987L101.887 320.611V320.53L397.697 175.906L397.677 175.987Z" fill="black"/>
<path d="M397.697 175.906L101.887 320.53L21.1452 271.151L120.899 223.518L0 151.409C33.3124 136.053 66.5841 117.061 101.135 104.792C127.968 95.2857 157.32 90.1467 184.823 82.9764C265.564 61.9327 346.306 40.9094 427.048 19.8657L518.413 69.7124C503.565 79.3201 481.079 80.092 464.342 83.5858C425.037 91.8326 385.753 100.059 346.448 108.306C307.144 116.553 269.18 124.495 230.546 132.6C212.955 136.276 189.515 137.15 173.834 147.103L222.116 175.174L316.833 129.959L397.676 175.906H397.697Z" fill="black"/>
<path d="M101.887 320.611L397.676 175.987L316.833 130.04L222.116 175.255L173.834 147.184C189.149 137.617 211.432 136.702 228.555 133.107C267.86 124.86 307.144 116.634 346.448 108.387C385.753 100.14 423.717 92.198 462.351 84.0934C479.515 80.4981 503.199 79.7871 518.393 69.7934L427.028 19.9468C346.286 40.9904 265.544 62.0138 184.802 83.0574C157.299 90.2277 127.928 95.3464 101.115 104.873C66.6044 117.142 33.3124 136.154 0 151.49L120.899 223.599L21.1452 271.232L101.887 320.611Z" fill="black"/>
<path d="M505.149 588.877L604.883 532.998V532.896L505.149 588.775V588.877Z" fill="black"/>
<path d="M604.883 532.998L465.154 449.656V449.554L604.883 532.896V532.998Z" fill="black"/>
<path d="M566.33 395.219L900.977 295.81V295.729C818.346 320.266 735.715 344.824 653.085 369.361C624.769 377.77 593.65 383.783 566.33 395.137C531.495 409.6 498.406 431.679 465.154 449.575V449.656L566.31 395.219H566.33Z" fill="black"/>
<path d="M900.977 295.81L1005.93 353.07L1005.95 352.969L900.977 295.729V295.81Z" fill="black"/>
<path d="M660.113 438.504L650.16 443.989V443.907L660.113 438.423L996.71 358.209L1005.95 352.969L1005.93 353.07L996.689 358.291L660.113 438.504Z" fill="black"/>
<path d="M650.16 443.988L705.876 476.407L705.897 476.326L650.16 443.907V443.988Z" fill="black"/>
<path d="M705.877 476.407L800.187 423.575L800.208 423.473L705.897 476.326L705.877 476.407Z" fill="black"/>
<path d="M800.187 423.575L893.462 476.57L893.482 476.489L800.207 423.473L800.187 423.575Z" fill="black"/>
<path d="M598.83 646.158L505.149 588.877V588.775L598.85 646.077L598.83 646.158Z" fill="black"/>
<path d="M893.462 476.57L598.83 646.158L598.851 646.077L893.482 476.488L893.462 476.57Z" fill="black"/>
<path d="M893.482 476.488L598.851 646.077L505.15 588.775L604.883 532.896L465.175 449.554C498.406 431.679 531.515 409.6 566.351 395.117C593.691 383.762 624.79 377.75 653.105 369.34C735.736 344.803 818.367 320.245 900.998 295.708L1005.95 352.948L996.71 358.189L660.133 438.403L650.18 443.887L705.897 476.306L800.208 423.473L893.482 476.468V476.488Z" fill="black"/>
<path d="M598.83 646.158L893.462 476.57L800.187 423.575L705.877 476.407L650.16 443.989L660.113 438.504L996.689 358.291L1005.93 353.05L900.977 295.81L653.085 369.442C624.769 377.851 593.65 383.864 566.33 395.219C531.495 409.681 498.406 431.761 465.154 449.656L604.863 532.998L505.129 588.877L598.83 646.178V646.158Z" fill="black"/>
<path d="M749.817 180.445C749.655 180.283 749.492 180.12 749.33 179.998C719.775 153.978 676.144 124.789 635.926 124.281C569.2 123.449 514.864 140.389 455.084 168.176C454.577 168.42 454.069 168.664 453.561 168.887C453.459 168.948 453.378 168.989 453.297 169.03C426.322 182.233 398.981 197.183 372.372 210.528C371.885 210.772 371.377 211.036 370.869 211.3C370.788 211.361 370.686 211.401 370.605 211.442C362.927 215.342 355.188 219.384 347.408 223.243C337.232 228.301 321.957 235.35 305.362 242.215C304.651 242.52 303.94 242.804 303.188 243.109C284.602 250.604 267.052 246.298 249.827 255.378C249.462 255.581 249.076 255.764 248.71 255.987C248.67 255.987 248.649 256.028 248.629 256.028C232.379 266.346 217.978 284.323 208.045 300.593C208.025 300.634 208.004 300.674 207.984 300.735C207.842 300.938 207.74 301.141 207.598 301.365C202.906 309.327 199.818 317.351 198.661 324.846C198.011 329.03 197.929 333.093 198.579 336.993C199.757 344.244 203.637 349.81 210.157 352.593C210.32 352.654 210.503 352.715 210.665 352.776C213.001 353.588 215.987 354.36 218.892 354.299C253.281 353.608 263.985 364.983 281.86 395.96C281.962 396.122 282.063 396.305 282.165 396.468C282.815 397.625 283.465 398.743 284.115 399.86C284.115 399.86 284.155 399.9 284.155 399.941C319.682 445.624 382.61 438.636 434.914 425.413C436.783 424.946 438.672 424.458 440.52 423.93C441.82 423.564 443.141 423.178 444.441 422.792C446.005 422.305 446.777 422.061 448.341 421.574C449.641 421.147 450.9 420.741 452.18 420.314C457.38 418.547 462.702 416.414 467.637 414.322C468.044 414.16 468.45 413.977 468.856 413.794C470.075 413.246 471.314 412.697 472.492 412.149C475.356 410.828 478.139 409.468 480.82 408.046C505.642 394.924 528.026 383.102 549.496 364.821C550.126 364.191 550.756 363.541 551.365 362.932C567.209 346.783 579.701 332.057 602.349 326.268C621.057 321.494 635.966 326.593 653.78 316.234C655.588 315.177 657.68 314.202 659.712 313.166C659.752 313.146 659.793 313.126 659.833 313.105C692.801 296.896 731.882 283.449 755.789 254.626C762.066 247.07 766.088 239.453 768.241 232.323C769.094 229.479 769.683 226.636 769.927 223.914C769.967 223.426 770.008 222.939 770.049 222.451C770.069 222.167 770.089 221.882 770.089 221.598C770.8 206.1 762.655 192.287 749.817 180.425V180.445ZM553.884 258.993C519.495 276.726 485.045 294.459 450.677 312.212C449.539 312.801 448.422 313.41 447.284 313.979C446.756 314.243 446.248 314.507 445.72 314.791C421.02 327.812 395.65 340.608 370.625 353.527H370.605C366.075 355.416 361.749 357.021 357.219 357.772H357.199C344.565 358.991 331.443 353.832 329.98 346.215C329.879 345.524 329.838 344.813 329.899 344.102C330.285 340.141 333.901 335.612 342.107 331.062C352.385 325.374 362.744 319.768 373.144 314.263C377.694 312.476 381.614 310.871 384.316 309.49C416.45 293.016 448.666 275.873 480.617 259.643C504.626 247.435 530.423 235.776 553.214 222.797C556.504 220.928 560.262 217.881 564.264 214.347C574.257 206.872 584.028 198.625 594.265 190.276C603.913 182.395 612.749 175.651 624.47 178.414C630.157 179.755 639.054 186.884 642.405 195.111C642.527 195.761 642.609 196.37 642.649 197.02C642.69 197.67 642.69 198.34 642.649 198.97C642.263 204.373 639.074 209.817 634.016 215.017C608.301 231.653 581.082 244.978 553.884 258.993Z" fill="#DE033E"/>
<path d="M757.089 189.565C754.896 186.396 752.458 183.411 749.858 180.567C749.696 180.364 749.513 180.181 749.33 179.998C729.099 157.837 688.819 132 662.21 126.556C620.529 118.025 571.312 120.991 527.986 136.794C502.717 146.015 478.728 156.05 455.064 168.176C454.373 168.522 453.683 168.887 453.012 169.253C434.853 179.003 416.43 188.996 397.905 198.239C389.617 202.382 381.025 206.384 372.697 210.426C372.088 210.731 371.458 211.035 370.849 211.299C370.768 211.36 370.666 211.401 370.585 211.442C349.216 221.801 326.872 232.282 305.341 242.215C304.387 242.662 303.412 243.068 302.477 243.454C302.477 243.454 302.437 243.454 302.416 243.495C283.384 251.579 267.824 247.009 250.091 255.296C250.051 255.296 250.01 255.337 249.97 255.357C249.543 255.56 249.096 255.763 248.69 255.987C248.649 255.987 248.629 256.027 248.609 256.027C246.882 256.901 245.135 257.916 243.368 259.074C229.799 267.93 216.129 285.744 208.024 300.593C208.004 300.633 207.984 300.674 207.964 300.735C207.801 300.979 207.679 301.243 207.557 301.487C203.556 309.022 200.854 316.579 199.798 323.932C199.168 328.34 199.168 332.626 199.798 336.79C200.753 342.904 203.231 347.839 207.578 351.008C208.39 351.597 209.223 352.166 210.096 352.572C210.299 352.674 210.503 352.775 210.685 352.897C210.706 352.897 210.706 352.897 210.726 352.897C251.798 363.318 256.713 354.014 282.226 396.813C282.835 397.828 283.424 398.824 284.034 399.819C284.034 399.819 284.074 399.86 284.074 399.9C318.707 444.486 381.33 437.905 432.517 425.941C435.178 425.311 437.819 424.641 440.439 423.889C441.739 423.524 443.059 423.138 444.359 422.752C445.923 422.264 446.695 422.02 448.259 421.533C449.559 421.106 450.819 420.7 452.098 420.274C457.197 418.527 462.458 416.394 467.556 414.281C467.962 414.119 468.369 413.936 468.775 413.753C469.973 413.225 471.212 412.717 472.411 412.189C501.722 399.169 529.123 384.442 551.304 363.033C567.128 347.738 579.64 332.118 602.288 326.329C620.976 321.535 636.007 326.329 653.719 316.294C653.841 316.233 653.963 316.152 654.105 316.091C655.954 315.096 657.802 314.121 659.651 313.146C659.691 313.126 659.732 313.105 659.772 313.085C681.182 302.076 702.896 290.152 724.447 278.737C741.733 269.576 756.561 256.109 763.467 240.204C765.56 235.39 766.961 230.373 767.469 225.173C768.586 213.899 765.58 201.834 757.028 189.525L757.089 189.565ZM384.316 309.49C416.45 293.016 448.666 275.873 480.617 259.643C504.626 247.435 530.423 235.776 553.214 222.796C556.504 220.928 560.262 217.881 564.264 214.346C574.257 206.871 584.028 198.625 594.265 190.276C603.913 182.395 612.749 175.651 624.47 178.414C630.157 179.754 639.054 186.884 642.405 195.11C642.527 195.76 642.609 196.37 642.649 197.02C642.69 197.67 642.69 198.34 642.649 198.97C642.263 204.373 639.074 209.817 634.016 215.017C608.301 231.653 581.082 244.977 553.884 258.993C519.495 276.726 485.045 294.458 450.677 312.212C449.539 312.801 448.422 313.41 447.284 313.979C446.756 314.243 446.248 314.507 445.72 314.791C421.02 327.811 395.65 340.608 370.625 353.527H370.605C366.075 355.416 361.749 357.021 357.219 357.772H357.199C344.565 358.991 331.443 353.832 329.98 346.214C329.879 345.524 329.838 344.813 329.899 344.102C330.285 340.141 333.9 335.611 342.107 331.061C352.385 325.374 362.744 319.768 373.144 314.263C377.694 312.476 381.614 310.871 384.316 309.49Z" fill="#DE033E"/>
<path d="M370.625 353.527C395.65 340.609 445.72 314.792 445.72 314.792C445.72 314.792 443.141 316.152 441.861 316.863C418.745 329.579 395.386 342.295 371.6 353.101C371.275 353.243 370.95 353.385 370.625 353.527Z" fill="#DE033E"/>
<path d="M643.807 202.362C643.543 206.363 641.43 210.121 636.515 213.148C635.844 213.655 635.174 214.163 634.504 214.671C634.341 214.793 634.179 214.915 634.016 215.016C639.074 209.796 642.263 204.373 642.649 198.97C642.69 198.34 642.69 197.649 642.649 197.02C642.609 196.37 642.527 195.76 642.405 195.11C639.034 186.884 630.137 179.754 624.47 178.413C612.729 175.651 603.913 182.395 594.265 190.276C584.028 198.645 574.257 206.891 564.264 214.346C560.262 217.88 556.504 220.927 553.214 222.796C530.423 235.776 504.626 247.455 480.617 259.643C448.666 275.872 416.45 293.016 384.316 309.489C381.614 310.871 377.694 312.475 373.144 314.263C362.744 319.768 352.385 325.374 342.107 331.061C333.901 335.611 330.285 340.141 329.899 344.102C329.838 344.813 329.879 345.524 329.98 346.214C331.443 353.831 344.565 358.991 357.199 357.772C356.894 357.833 356.569 357.894 356.244 357.935C353.075 358.361 349.765 358.402 346.21 357.813C338.349 356.492 328.66 352.247 328.132 344.975C328.091 344.325 328.132 343.655 328.213 342.964C328.416 341.522 328.924 339.958 329.879 338.272C335.383 328.522 357.747 320.235 373.103 314.202C373.307 314.1 373.51 314.019 373.713 313.958C373.713 313.958 373.72 313.958 373.733 313.958C378.019 312.252 381.736 310.728 384.316 309.408C415.252 293.544 446.37 277.558 476.981 261.451C478.2 260.801 479.419 260.171 480.617 259.562C508.689 245.262 538.975 231.571 564.06 214.346C564.365 214.123 564.71 213.879 565.056 213.635C565.056 213.635 565.056 213.635 565.056 213.615C574.765 206.282 584.292 198.299 594.245 190.134C603.893 182.212 612.749 175.488 624.49 178.271C630.096 179.592 638.851 186.599 642.304 194.704C642.324 194.745 642.344 194.765 642.344 194.806C642.365 194.846 642.385 194.866 642.405 194.948C643.198 196.857 643.705 198.807 643.787 200.757C643.827 201.285 643.827 201.813 643.787 202.382L643.807 202.362Z" fill="#DE033E"/>
<path d="M384.316 309.49C381.614 310.871 377.694 312.476 373.144 314.263C373.327 314.141 373.51 314.04 373.713 313.958C373.713 313.958 373.72 313.958 373.733 313.958C407.939 296.023 442.45 278.676 476.981 261.451C478.2 260.841 480.617 259.643 480.617 259.643C480.617 259.643 416.45 293.016 384.316 309.49Z" fill="#DE033E"/>
<path d="M642.629 198.97C642.629 198.97 639.318 209.552 634.483 214.671C634.321 214.813 634.158 215.017 633.996 215.179C612.912 234.232 582.463 245.079 554.737 258.648C520.043 276.543 485.35 294.438 450.656 312.333C447.711 313.836 444.786 315.36 441.84 316.883C418.441 328.969 394.919 341.258 371.58 353.121C371.255 353.283 370.93 353.446 370.605 353.628H370.585C369.752 354.055 368.939 354.502 368.106 354.908C364.796 356.553 360.997 357.488 357.199 357.874H357.178C356.853 357.894 356.549 357.935 356.224 357.955C343.914 358.788 329.96 346.235 329.96 346.235C329.96 346.235 344.544 359.011 357.178 357.792H357.199C361.728 357.041 366.055 355.436 370.585 353.547H370.605C395.63 340.628 421.02 327.832 445.7 314.811C446.228 314.527 446.736 314.263 447.264 313.999C448.401 313.43 449.519 312.821 450.656 312.232C485.004 294.479 519.475 276.746 553.863 259.013C581.062 244.977 608.28 231.673 633.996 215.037C639.054 209.817 642.629 198.99 642.629 198.99V198.97Z" fill="#DE033E"/>
<path d="M594.245 190.276C584.007 198.645 574.237 206.892 564.243 214.346C564.507 214.123 564.772 213.879 565.036 213.635C565.036 213.635 565.036 213.635 565.036 213.615C581.245 196.695 609.926 166.714 633.163 181.989C638.384 185.421 641.349 190.398 642.284 194.684C642.304 194.724 642.324 194.745 642.324 194.785C642.324 194.887 642.365 194.989 642.385 195.09C639.013 186.864 630.117 179.734 624.449 178.393C612.709 175.631 603.893 182.375 594.245 190.256V190.276Z" fill="#DE033E"/>
<path d="M357.219 357.772C361.749 357.021 366.075 355.416 370.605 353.527C370.361 353.649 370.117 353.771 369.874 353.913C369.285 354.197 368.716 354.522 368.127 354.807C365.303 356.228 362.094 357.102 358.864 357.549C358.803 357.549 358.743 357.569 358.682 357.589C358.194 357.671 357.707 357.711 357.219 357.772Z" fill="#DE033E"/>
<path d="M450.676 312.211C485.025 294.458 553.884 258.993 553.884 258.993L447.284 313.978C447.284 313.978 449.539 312.8 450.676 312.211Z" fill="#DE033E"/>
<path d="M553.884 258.993C553.884 258.993 608.301 231.652 634.016 215.017C633.833 215.199 633.651 215.403 633.468 215.565C613.115 234.618 584.718 243.962 560.099 255.865C558.007 256.88 553.884 258.993 553.884 258.993Z" fill="#DE033E"/>
<path d="M642.649 197.02C642.609 196.37 642.527 195.76 642.406 195.111C639.034 186.884 630.137 179.754 624.47 178.414C612.729 175.651 603.913 182.395 594.265 190.276C584.028 198.645 574.257 206.892 564.264 214.346C560.262 217.881 556.504 220.928 553.214 222.796C530.423 235.776 504.626 247.456 480.617 259.643C448.666 275.873 416.45 293.016 384.316 309.49C381.614 310.871 377.694 312.476 373.144 314.263C362.744 319.768 352.385 325.374 342.107 331.061C333.901 335.611 329.899 344.102 329.899 344.102C329.899 344.102 333.84 335.551 342.107 330.96C352.182 325.374 362.338 319.89 372.535 314.507C372.718 314.385 372.921 314.283 373.104 314.202C408.711 295.515 445.03 277.599 480.617 259.562C481.836 258.952 483.055 258.343 484.253 257.754C507.287 246.46 531.581 235.065 553.193 222.674C556.2 220.948 559.632 218.226 563.248 215.078C563.512 214.854 563.776 214.61 564.04 214.346C580.595 197.934 609.642 166.429 633.184 181.846C638.526 185.34 641.532 190.5 642.406 194.928C642.406 195.029 642.405 195.09 642.446 195.171C642.568 195.781 642.629 196.39 642.649 197V197.02Z" fill="#DE033E"/>
<path d="M553.193 222.796C530.403 235.776 480.597 259.643 480.597 259.643C480.597 259.643 483.034 258.363 484.233 257.754C510.761 244.226 537.735 230.941 563.228 215.077C563.553 214.813 563.878 214.57 564.223 214.346C560.221 217.881 556.463 220.927 553.173 222.796H553.193Z" fill="#DE033E"/>
<path d="M643.807 202.362C643.624 206.404 641.491 210.202 636.515 213.29C635.682 213.92 634.849 214.549 634.016 215.159C633.834 215.301 633.651 215.443 633.468 215.565C611.693 230.799 585.063 242.905 560.099 255.865C558.312 256.799 556.545 257.713 554.757 258.627C520.064 276.522 485.37 294.418 450.677 312.313C424.128 326.329 398.23 341.664 370.625 353.608H370.605C370.321 353.73 370.158 353.791 369.874 353.913C366.157 355.436 362.561 356.757 358.864 357.549C358.804 357.549 358.743 357.569 358.682 357.589C358.194 357.691 357.707 357.772 357.219 357.853H357.199C353.705 358.463 350.11 358.544 346.21 357.894C338.288 356.574 328.619 352.369 328.132 344.975C328.091 344.325 328.132 343.655 328.213 342.964C328.416 341.522 328.944 339.999 329.879 338.353C335.322 328.746 357.199 320.539 372.535 314.507C372.738 314.425 372.941 314.344 373.144 314.263C362.744 319.768 352.385 325.374 342.107 331.061C333.901 335.611 330.285 340.141 329.899 344.102C329.838 344.813 329.879 345.524 329.98 346.214C331.443 353.832 344.565 358.991 357.199 357.772H357.219C361.749 357.021 366.075 355.416 370.605 353.527H370.625C395.65 340.608 421.041 327.811 445.72 314.791C446.248 314.507 446.756 314.243 447.284 313.979C448.422 313.41 449.539 312.8 450.677 312.211C485.025 294.458 519.495 276.726 553.884 258.993C581.082 244.957 608.301 231.652 634.016 215.017C639.074 209.796 642.263 204.373 642.649 198.97C642.69 198.34 642.69 197.649 642.649 197.02C642.609 196.37 642.527 195.76 642.405 195.11C642.426 195.151 642.446 195.151 642.446 195.171C643.198 196.999 643.665 198.909 643.787 200.737C643.827 201.265 643.827 201.813 643.787 202.362H643.807Z" fill="#DE033E"/>
<path d="M27.2188 261.908C64.2889 244.216 96.4638 229.104 127.765 202.149C127.765 202.088 127.765 202.068 127.765 202.007C96.4638 229.002 64.3092 244.114 27.2188 261.827C27.2188 261.868 27.2188 261.888 27.2188 261.908Z" fill="#DE033E"/>
<path d="M127.765 202.149C86.2466 181.918 46.5764 166.318 6.07349 142.167C6.07349 142.126 6.07349 142.106 6.07349 142.085C46.5764 166.257 86.2263 181.837 127.765 202.027C127.765 202.088 127.765 202.109 127.765 202.17V202.149Z" fill="#DE033E"/>
<path d="M106.071 95.7326C158.701 81.6764 215.129 82.2045 266.824 65.8937C325.1 47.4906 380.431 18.1189 439.5 0.101757C439.5 0.0611326 439.5 0.0611326 439.5 0.0205078C396.6 13.0408 352.014 27.5641 311.024 45.7844C269.343 64.3093 232.841 74.4858 190.327 79.8076C163.21 83.1998 133.31 85.5967 106.051 95.6513C71.6623 108.347 39.264 126.404 6.07349 142.065C6.07349 142.106 6.07349 142.126 6.07349 142.146C39.4468 126.77 72.881 111.515 106.051 95.7326H106.071Z" fill="#DE033E"/>
<path d="M439.5 0.101757C466.231 22.4048 494.892 42.2094 524.487 60.4499C524.487 60.4093 524.487 60.389 524.487 60.3687C494.892 42.1281 466.231 22.3032 439.5 0.0205078C439.5 0.0611326 439.5 0.0611326 439.5 0.101757Z" fill="#DE033E"/>
<path d="M189.921 123.743C185.94 126.486 183.949 127.887 179.988 130.406C179.988 130.365 179.988 130.365 179.988 130.325C193.171 117.893 218.257 114.359 234.669 116.614C273.344 121.936 312.507 107.717 352.563 98.9826C390.811 90.6341 430.826 81.3311 468.465 74.6889C486.056 71.5811 508.257 69.8749 524.507 60.3687C524.507 60.4093 524.507 60.4093 524.507 60.4499C510.024 69.6311 488.676 70.5249 472.426 73.9373C435.234 81.7373 398.002 89.4967 360.87 97.3169C332.311 103.329 303.975 113.79 274.868 116.756C245.008 119.803 219.415 115.334 189.921 123.743Z" fill="#DE033E"/>
<path d="M179.968 130.406C197.437 137.82 213.768 151.409 228.21 163.393C228.21 163.353 228.21 163.332 228.21 163.292C213.809 151.307 197.437 137.718 179.968 130.325C179.968 130.365 179.968 130.365 179.968 130.406Z" fill="#DE033E"/>
<path d="M228.21 163.373C259.532 148.585 291.605 135.646 322.927 120.696C322.927 120.656 322.927 120.656 322.927 120.615C291.625 135.565 259.552 148.504 228.21 163.271C228.21 163.312 228.21 163.332 228.21 163.373Z" fill="#DE033E"/>
<path d="M322.927 120.696C349.881 136.012 376.816 151.328 403.77 166.643C403.77 166.603 403.77 166.582 403.77 166.562C376.816 151.246 349.861 135.931 322.927 120.615C322.927 120.656 322.927 120.656 322.927 120.696Z" fill="#DE033E"/>
<path d="M107.961 311.288C81.0466 294.835 54.1327 278.382 27.2188 261.908C27.2188 261.868 27.2188 261.847 27.2188 261.827C54.1327 278.28 81.0466 294.733 107.961 311.207V311.288Z" fill="#DE033E"/>
<path d="M403.77 166.643C305.174 214.845 206.577 263.066 107.981 311.268V311.186C206.577 262.985 305.174 214.763 403.791 166.562C403.791 166.603 403.791 166.623 403.791 166.643H403.77Z" fill="#DE033E"/>
<path d="M403.77 166.562C305.174 214.763 206.577 262.985 107.961 311.186C81.0466 294.733 54.1327 278.28 27.2187 261.807C64.3092 244.094 96.4637 229.002 127.765 201.987C86.2263 181.796 46.5967 166.216 6.07349 142.045C39.264 126.384 71.6623 108.326 106.051 95.6308C133.331 85.5559 163.21 83.1793 190.327 79.7871C232.841 74.4653 269.343 64.2685 311.024 45.7639C352.014 27.5436 396.6 13.0203 439.5 0C466.251 22.2827 494.892 42.1076 524.487 60.3482C509.638 69.9356 487.153 70.7278 470.415 74.2419C431.111 82.4887 391.441 90.4715 352.522 98.9621C313.217 107.514 274.157 122.078 236.599 116.735C219.801 114.359 193.537 117.243 179.948 130.304C197.416 137.698 213.768 151.287 228.19 163.271C259.511 148.504 291.585 135.565 322.906 120.615C349.861 135.931 376.795 151.246 403.75 166.562H403.77Z" fill="#DE033E"/>
<path d="M107.961 311.288C206.557 263.087 305.153 214.865 403.75 166.664C376.795 151.348 349.841 136.032 322.906 120.717C291.605 135.667 259.511 148.606 228.19 163.393C213.768 151.409 197.416 137.84 179.948 130.406C193.13 117.995 218.216 114.44 234.629 116.695C273.304 121.997 312.466 107.798 352.522 99.0638C390.77 90.7154 430.786 81.4123 468.425 74.7702C486.015 71.6624 508.217 69.9561 524.467 60.4702C494.851 42.2297 466.19 22.4251 439.479 0.12207C396.58 13.1626 351.974 27.6657 311.003 45.9062C269.322 64.4515 232.862 74.5874 190.327 79.9092C163.21 83.3014 133.331 85.6983 106.051 95.7732C71.6623 108.468 39.264 126.526 6.07349 142.187C46.5764 166.339 86.2466 181.938 127.765 202.17C96.4637 229.145 64.2889 244.237 27.2187 261.929C54.1327 278.382 81.0466 294.835 107.961 311.308V311.288Z" fill="#DE033E"/>
<path d="M503.728 590.258C534.481 566.939 565.802 550.141 599.744 532.489C599.744 532.449 599.744 532.449 599.744 532.408C565.823 550.06 534.481 566.838 503.748 590.177C503.748 590.217 503.748 590.238 503.748 590.258H503.728Z" fill="#DE033E"/>
<path d="M599.744 532.49C580.204 516.159 560.196 498.852 541.732 481.424C520.038 460.97 513.153 442.14 484.918 428.348C484.918 428.328 484.898 428.307 484.878 428.287C513.153 442.039 520.038 460.868 541.732 481.323C560.196 498.731 580.224 516.037 599.744 532.388C599.744 532.429 599.744 532.429 599.744 532.469V532.49Z" fill="#DE033E"/>
<path d="M572.363 383.193C628.243 371.107 684.691 352.521 739.738 336.19C795.658 319.615 851.862 305.275 907.071 286.506C907.071 286.465 907.071 286.445 907.071 286.425C827.162 313.501 735.797 335.378 660.133 354.979C632.407 362.17 597.876 372.103 572.363 383.092C545.307 394.731 515.631 416.648 484.857 428.327C484.857 428.348 484.878 428.368 484.898 428.388C516.301 416.404 544.028 401.312 572.363 383.213V383.193Z" fill="#DE033E"/>
<path d="M907.071 286.507C922.651 294.957 937.946 306.392 955.78 307.063C974.163 307.774 984.441 296.074 1004.45 302.919C1004.45 302.878 1004.45 302.858 1004.45 302.838C984.461 295.992 974.163 307.692 955.8 307.002C937.966 306.311 922.671 294.896 907.071 286.425C907.071 286.466 907.071 286.486 907.071 286.507Z" fill="#DE033E"/>
<path d="M669.274 412.931C664.825 417.542 662.591 419.959 658.183 424.448C658.183 424.387 658.183 424.367 658.183 424.306C662.611 419.796 664.846 417.399 669.274 412.768C702.038 401.474 728.505 410.696 762.102 406.228C786.415 402.998 809.633 393.796 834.129 390.973C902.623 383.132 944.913 359.428 995.369 310.922C998.924 306.717 1000.75 304.909 1004.45 302.837C1004.45 302.878 1004.45 302.898 1004.45 302.919C1000.75 305.011 998.944 306.819 995.39 311.044C944.974 359.55 902.623 383.193 834.15 391.054C809.653 393.878 786.436 403.079 762.122 406.309C728.545 410.778 702.058 401.596 669.294 412.91L669.274 412.931Z" fill="#DE033E"/>
<path d="M658.183 424.448C674.778 439.134 691.739 457.232 711.97 467.063C711.97 467.023 711.97 467.002 711.97 466.982C691.739 457.131 674.778 438.992 658.183 424.306C658.183 424.367 658.183 424.387 658.183 424.448Z" fill="#DE033E"/>
<path d="M711.97 467.063C743.495 449.595 774.837 431.842 806.281 414.231C806.281 414.19 806.281 414.17 806.281 414.149C774.837 431.76 743.475 449.513 711.97 466.982C711.97 467.023 711.97 467.043 711.97 467.063Z" fill="#DE033E"/>
<path d="M806.281 414.231C837.095 432.532 868.315 449.696 899.555 467.226C899.555 467.185 899.555 467.165 899.555 467.144C868.315 449.615 837.095 432.431 806.281 414.149C806.281 414.19 806.281 414.21 806.281 414.231Z" fill="#DE033E"/>
<path d="M604.315 591.985C587.679 595.072 574.415 604.639 558.023 603.827C540.29 602.953 522.354 592.756 503.728 590.258C503.728 590.217 503.728 590.197 503.728 590.177C522.354 592.675 540.27 602.872 558.023 603.766C574.415 604.578 587.699 595.052 604.315 591.903C604.315 591.944 604.315 591.964 604.315 591.985Z" fill="#DE033E"/>
<path d="M899.556 467.246C850.46 495.521 801.345 523.776 752.25 552.05C732.933 563.182 713.575 574.272 694.278 585.424C657.31 606.772 643.477 591.741 604.335 591.985C604.335 591.944 604.335 591.924 604.335 591.903C643.477 591.761 657.31 606.67 694.278 585.322C713.595 574.171 732.933 563.08 752.25 551.949C801.345 523.674 850.46 495.419 899.576 467.145C899.576 467.185 899.576 467.205 899.576 467.226L899.556 467.246Z" fill="#DE033E"/>
<path d="M899.555 467.145C850.44 495.419 801.345 523.674 752.23 551.949C732.892 563.08 713.555 574.171 694.258 585.322C657.289 606.671 643.457 591.741 604.315 591.903C587.699 595.052 574.415 604.578 558.023 603.766C540.27 602.892 522.374 592.675 503.728 590.177C534.481 566.858 565.802 550.08 599.724 532.408C580.204 516.057 560.176 498.751 541.712 481.343C520.018 460.888 513.132 442.059 484.857 428.307C515.631 416.628 545.307 394.711 572.363 383.072C597.876 372.103 632.386 362.15 660.133 354.959C735.797 335.358 827.162 313.481 907.071 286.405C922.671 294.875 937.966 306.291 955.801 306.981C974.163 307.692 984.461 295.992 1004.45 302.817C1000.75 304.909 998.944 306.697 995.369 310.902C944.933 359.408 902.623 383.112 834.129 390.953C809.632 393.756 786.415 402.957 762.101 406.207C728.525 410.676 702.038 401.454 669.274 412.748C664.825 417.379 662.591 419.776 658.183 424.285C674.778 438.971 691.739 457.11 711.97 466.962C743.495 449.493 774.837 431.74 806.281 414.129C837.095 432.431 868.315 449.595 899.555 467.124V467.145Z" fill="#DE033E"/>
<path d="M604.315 591.985C643.457 591.741 657.289 606.752 694.258 585.424C713.575 574.272 732.913 563.182 752.23 552.05C801.325 523.775 850.44 495.521 899.535 467.246C868.315 449.716 837.075 432.532 806.261 414.251C774.817 431.862 743.475 449.615 711.95 467.084C691.719 457.252 674.758 439.154 658.163 424.468C662.571 419.959 664.825 417.562 669.253 412.951C702.017 401.637 728.505 410.818 762.081 406.349C786.395 403.1 809.612 393.918 834.109 391.095C902.582 383.214 944.913 359.59 995.349 311.084C998.904 306.859 1000.71 305.051 1004.41 302.959C984.4 296.114 974.122 307.814 955.74 307.103C937.905 306.412 922.61 294.997 907.031 286.547C827.162 313.664 735.695 335.439 660.113 355.061C632.386 362.251 597.876 372.245 572.343 383.234C545.307 394.873 515.631 416.749 484.878 428.409C513.132 442.181 519.998 461.03 541.692 481.485C560.155 498.893 580.163 516.219 599.704 532.55C565.762 550.202 534.44 567 503.687 590.319C522.313 592.797 540.229 603.014 557.982 603.888C574.374 604.68 587.638 595.133 604.274 592.046L604.315 591.985Z" fill="#DE033E"/>
</svg>
