<svg width="943" height="87" viewBox="0 0 943 87" fill="none" xmlns="http://www.w3.org/2000/svg">
<g style="mix-blend-mode:darken">
<path d="M681.112 16.2769L305.949 0.364067C304.108 0.285968 302.552 1.7153 302.474 3.55657L299.918 63.8039C299.84 65.6452 301.27 67.2012 303.111 67.2793L678.274 83.1921C680.115 83.2702 681.671 81.8409 681.749 79.9996L684.305 19.7522C684.383 17.911 682.953 16.355 681.112 16.2769Z" fill="#FF8AF6"/>
<path d="M684.315 19.5046C684.391 17.6988 682.991 16.1741 681.185 16.0975L630.49 13.9473L627.637 81.2242L678.331 83.3745C680.137 83.4511 681.662 82.0504 681.738 80.2447L684.315 19.5046ZM655.266 67.062L643.361 49.1857L652.091 49.556L652.88 30.3436L661.027 30.6892L660.237 49.9015L668.645 50.2582L655.269 67.0621L655.266 67.062Z" fill="#2A2A2A"/>
<path d="M338.005 16.422C337.631 17.6434 337.752 18.7639 337.565 19.8683C338.239 20.6217 337.303 21.0319 337.497 21.7556C338.254 22.8437 336.824 24.0765 337.485 25.1294C336.629 26.549 335.385 24.8497 334.469 24.439C330.464 22.2852 327.083 25.2318 325.288 28.6674C324.483 32.6199 323.79 36.7334 324.755 40.561C327.975 48.1178 330.763 46.0209 336.834 44.4695C337.394 44.9556 336.553 45.3355 336.833 45.891C336.852 46.9822 336.602 48.087 336.603 49.1712C336.247 52.4897 336.708 57.1707 331.947 56.7157C330.595 57.1177 329.329 57.139 327.877 57.2055C327.444 56.6622 326.952 56.9069 326.427 56.9877C325.872 56.958 325.598 56.0528 324.891 56.504C315.736 53.5756 312.204 43.9653 312.531 35.2998C312.444 34.1088 312.78 33.0483 312.701 31.8765C312.693 30.8294 313.41 29.1696 313.395 27.9005C313.847 25.5577 315.393 23.5862 316.074 21.4499C317.13 21.1698 317.173 19.775 317.792 19.117C319.891 17.722 321.037 15.1649 323.625 14.828C326.568 13.0063 337.64 11.5513 338.002 16.4188L338.005 16.422ZM318.642 30.9631C318.466 31.2837 318.209 31.379 318.473 31.6339C318.774 31.3842 319.014 31.4069 318.642 30.9631ZM318.844 40.4946C318.986 40.6849 319.111 40.7496 319.216 40.5541C319.179 40.3369 319.037 40.3591 318.844 40.4946ZM319.627 46.0485C320.078 45.8083 319.889 45.391 319.452 45.4568C319.062 45.659 319.436 45.8435 319.627 46.0485ZM320.629 22.871C321.3 23.1056 321.324 22.1662 320.855 22.1776C320.406 22.1554 320.266 22.7337 320.629 22.871ZM321.641 43.6501C322.367 43.9027 322.694 42.5325 321.997 42.5342C321.217 42.3761 320.519 43.5837 321.641 43.6501ZM324.49 23.5409C324.31 24.1862 325.247 24.1885 325.251 23.5013C325.374 22.9598 324.384 22.8772 324.49 23.5409Z" fill="#2A2A2A"/>
<path d="M354.979 58.1064C342.361 58.5241 336.576 44.3567 338.561 33.3433C338.796 32.5191 338.211 31.885 338.839 31.1337C339.105 30.2514 338.732 29.3858 339.167 28.5575C340.255 26.7134 339.642 24.1349 341.365 22.702C344.059 17.7642 349.722 13.2836 355.495 14.0471C376.502 14.507 375.311 57.1004 354.976 58.1062L354.979 58.1064ZM355.088 24.8275C349.127 24.0686 348.386 46.7103 353.534 47.3068C359.781 48.7527 360.801 24.4918 355.088 24.8275ZM364.62 42.8124C364.78 42.7036 364.906 42.6183 365.031 42.5331C364.847 42.2472 364.617 42.4999 364.379 42.5804C364.445 42.6457 364.511 42.711 364.619 42.8155L364.62 42.8124Z" fill="#2A2A2A"/>
<path d="M386.72 48.67C391.066 48.9575 392.051 47.5308 392.285 52.7053C391.741 54.1787 392.829 58.9458 390.506 58.6254C388.464 59.4042 386.164 58.1538 384.079 58.862C381.465 58.6668 378.441 58.0824 375.84 58.422C370.364 58.6802 372.193 56.0084 372.059 52.013C371.983 45.2612 373.06 33.9468 373.115 26.7538C372.845 23.9773 373.411 20.7333 373.519 17.6698C373.074 16.6074 375.303 15.2273 375.903 15.9682C377.436 15.9926 378.908 15.6238 380.404 16.2091C385.958 14.5419 385.163 19.4571 384.49 23.1684C384.523 26.869 384.631 30.5978 384.276 34.3226C384.203 35.3724 383.849 36.504 384.075 37.4384C384.226 37.7884 384.506 38.2471 383.984 38.6124C384.208 40.0559 383.565 41.5127 383.985 42.8834C383.758 45.7262 382.569 48.6408 386.72 48.67ZM378.917 27.3373C378.928 26.941 378.865 26.8602 378.537 26.8682C377.156 26.944 378.674 28.8736 378.917 27.3373ZM380.989 22.1045C381.062 21.7702 380.26 21.4674 380.115 21.8456C380.006 22.1471 380.829 22.4726 380.989 22.1045ZM379.523 54.7446C378.65 54.7014 379.413 55.4929 379.752 54.8762C379.66 54.8254 379.572 54.7717 379.523 54.7446ZM380.158 47.72C379.538 48.0499 379.556 49.4003 379.975 49.4743C380.998 49.2022 381.326 48.1132 380.158 47.72ZM380.647 30.0851C380.879 29.7732 381.251 29.6265 380.813 29.4235C380.399 29.381 380.505 29.7542 380.647 30.0851ZM382.183 27.8945C382.026 27.7035 381.916 27.5708 381.806 27.438C381.669 27.5634 381.533 27.6889 381.393 27.8142C381.681 28.1075 381.806 28.2347 382.18 27.8944L382.183 27.8945ZM381.315 53.3866C380.886 53.6964 380.547 54.0882 381.237 54.2581C381.897 54.2423 381.727 53.7602 381.315 53.3866Z" fill="#2A2A2A"/>
<path d="M407.978 49.5724C412.324 49.8598 413.309 48.4332 413.543 53.6076C412.999 55.0811 414.087 59.8481 411.764 59.5277C409.722 60.3066 407.422 59.0561 405.336 59.7644C402.723 59.5692 399.699 58.9847 397.097 59.3243C391.622 59.5826 393.451 56.9107 393.317 52.9153C393.241 46.1635 394.318 34.8491 394.373 27.6561C394.103 24.8797 394.669 21.6356 394.777 18.5721C394.331 17.5097 396.561 16.1296 397.161 16.8705C398.694 16.8949 400.166 16.5262 401.662 17.1114C407.216 15.4443 406.42 20.3595 405.747 24.0707C405.781 27.7714 405.888 31.5001 405.534 35.2249C405.461 36.2747 405.107 37.4063 405.333 38.3407C405.483 38.6908 405.764 39.1494 405.242 39.5147C405.465 40.9583 404.822 42.4151 405.242 43.7857C405.016 46.6286 403.827 49.5431 407.978 49.5724ZM400.175 28.2397C400.185 27.8433 400.123 27.7626 399.795 27.7705C398.414 27.8463 399.932 29.7759 400.175 28.2397ZM402.246 23.0068C402.32 22.6725 401.517 22.3698 401.373 22.7479C401.264 23.0495 402.087 23.375 402.246 23.0068ZM400.781 55.647C399.908 55.6037 400.671 56.3953 401.009 55.7785C400.918 55.7278 400.83 55.6741 400.781 55.647ZM401.413 48.6222C400.793 48.9521 400.811 50.3025 401.229 50.3765C402.253 50.1044 402.58 49.0154 401.413 48.6222ZM401.905 30.9875C402.137 30.6755 402.509 30.5288 402.07 30.3259C401.657 30.2833 401.763 30.6565 401.905 30.9875ZM403.441 28.7969C403.284 28.6059 403.174 28.4731 403.064 28.3403C402.927 28.4658 402.791 28.5912 402.651 28.7165C402.938 29.0099 403.064 29.1371 403.438 28.7967L403.441 28.7969ZM402.572 54.2889C402.144 54.5988 401.805 54.9906 402.495 55.1604C403.155 55.1447 402.985 54.6626 402.572 54.2889Z" fill="#2A2A2A"/>
<path d="M438.499 21.2166C439.296 25.1058 439.932 29.9255 440.637 34.1545C441.47 35.8114 441.018 38.2885 441.985 40.1511C442.098 41.6899 442.294 43.1854 442.433 44.6253C442.763 44.9455 442.59 45.2694 442.505 45.6532C442.548 46.0455 443.154 46.343 442.699 46.8174C443.491 49.5067 443.996 52.0401 443.978 54.5418C444.436 56.0422 446.218 60.6574 443.967 60.8963C442.394 61.3763 440.438 61.0122 438.696 60.8445C437.653 61.572 436.693 60.5471 435.738 60.9034C432.629 61.2621 433.735 57.4473 432.454 55.9558C431.808 56.0315 431.591 55.2412 430.994 55.2565C430.445 55.3738 429.817 55.5377 429.277 55.2212C428.53 55.002 427.766 55.6382 427.019 54.9067C421.976 56.5424 427.056 61.7661 418.62 60.143C417.431 59.6864 416.063 60.2501 414.909 59.9856C414.473 59.2235 413.674 60.1644 413.33 59.728C413.159 59.2615 412.062 59.19 412.518 58.5438C413.755 54.9315 414.362 50.9237 415.716 47.6631C415.31 47.0679 415.969 46.7209 415.919 46.2032C415.526 45.5805 416.447 45.607 416.392 44.9986C416.384 43.3986 417.149 41.8751 417.544 40.2953C418.645 39.4547 417.78 37.9652 418.69 37.0697C419.234 36.5335 418.442 35.4845 419.302 35.171C419.789 34.3575 419.346 33.1671 419.948 32.2991C420.985 29.4405 421.148 26.4168 422.46 23.695C423.091 21.6378 423.26 18.6112 425.72 17.9814C428.554 17.8298 431.459 17.9967 434.41 18.325C435.329 18.164 435.985 18.6823 436.845 18.4314C437.616 18.3079 437.45 18.9038 437.782 19.396C438.671 19.7273 438.546 20.475 438.49 21.2099L438.505 21.2106L438.499 21.2166ZM417.397 52.9739C417.093 52.4017 416.78 52.7852 416.484 53.1195C416.457 53.612 417.413 53.6838 417.397 52.9739ZM419.652 47.2364C419.517 47.1776 419.391 47.1223 419.266 47.0669C419.234 47.1406 419.2 47.2172 419.169 47.294C419.371 47.3088 419.577 47.5394 419.655 47.2365L419.652 47.2364ZM420.268 45.616C419.901 45.941 419.795 46.3833 420.303 46.4767C420.618 46.2745 420.462 45.9742 420.268 45.616ZM423.085 39.6681C422.96 39.5315 422.867 39.4307 422.771 39.3298C422.687 39.4075 422.605 39.4852 422.521 39.5629C422.739 39.7252 422.811 39.9439 423.085 39.6681ZM425.066 49.1563C425.686 49.2826 426.504 49.1486 426.305 48.459C425.545 47.9613 426.287 46.668 425.309 46.3922C424.356 46.7455 425.443 47.8663 424.497 48.3698C424.033 48.7751 424.659 49.2609 425.063 49.1531L425.066 49.1563ZM427.488 50.7056C427.349 50.0655 426.622 50.4877 426.526 50.9023C426.755 51.2525 427.337 51.0991 427.488 50.7056ZM427.496 48.3096C426.288 48.1271 427.159 49.1045 427.794 49.0877C428.617 48.9664 427.872 48.3505 427.496 48.3096ZM430.402 30.0181C430.672 29.0391 429.672 29.4778 430.409 30.0121C429.309 32.9679 429.157 36.1733 428.534 39.3774C427.801 42.4238 425.686 47.5861 430.899 45.6983C432.22 43.8703 431.297 41.7629 431.194 39.7933C430.585 36.6088 431.048 32.9886 430.405 30.0182L430.402 30.0181ZM434.293 47.7543C434.395 47.6337 434.464 47.5553 434.529 47.48C434.338 47.2813 434.204 47.2725 434.023 47.4898C434.098 47.5617 434.173 47.6367 434.293 47.7543ZM436.164 54.0979C436.355 53.2062 434.96 52.9502 434.536 53.5915C434.249 54.0917 436.231 55.0912 436.164 54.0979ZM435.535 44.8389C435.634 45.0024 435.713 45.137 435.795 45.2686C435.915 45.1518 436.033 45.035 436.153 44.9151C436.033 44.7975 435.913 44.6831 435.793 44.5655C435.718 44.6436 435.646 44.7186 435.535 44.8358L435.535 44.8389ZM436.21 49.829C437.579 49.8964 435.914 48.3511 435.78 49.4327C435.756 49.7972 435.97 49.8375 436.21 49.829ZM437.167 48.0449C436.825 49.1115 438.466 49.3216 438.268 48.2354C438.213 47.4676 437.19 47.0742 437.167 48.0449Z" fill="#2A2A2A"/>
<path d="M469.57 40.0052C467.188 40.4041 471.426 42.0648 472.013 42.1397C472.381 42.1491 472.691 42.2153 472.718 42.6945C472.891 43.4016 474.061 42.9795 474.15 43.9175C478.652 51.4256 473.172 62.1158 464.094 61.7808C463.615 61.298 463.334 62.1047 462.776 61.9248C461.974 61.4534 461.459 62.1876 460.77 62.224C459.577 61.6923 458.146 62.069 456.895 61.8722C456.032 61.8762 455.118 61.3469 454.171 61.6473C451.113 61.5364 444.964 62.6596 446.672 57.605C446.172 54.5126 446.916 51.4792 446.751 48.3666C447.071 47.1648 447.07 45.8526 446.844 44.8588C447.231 43.8379 446.882 42.7078 447.15 41.6881C447.345 35.9976 447.607 29.232 447.958 23.6669C447.895 16.6782 449.897 19.5657 455.294 19.1822C456.092 18.8599 456.721 20.0019 457.479 19.1593C457.945 19.2228 458.416 19.4614 458.849 19.0518C459.218 19.2518 459.413 19.6725 459.935 19.3759C463.184 19.1607 466.464 20.6464 469.401 21.3802C470.512 22.4303 472.34 22.4234 473.068 24.1946C475.016 25.7019 475.461 28.0265 475.675 30.282C475.954 34.3711 474.302 39.5874 469.569 40.0146L469.57 40.0052ZM458.363 22.4054C459.372 22.0234 457.523 21.5137 457.922 22.1962C458.043 22.2763 458.188 22.3262 458.363 22.4054ZM464.026 48.6526C464.227 46.2772 461.646 44.29 459.294 44.4871C457.778 45.257 458.74 47.4629 458.504 48.7464C458.322 49.1386 457.886 49.3263 458.252 49.7574C458.818 50.5656 457.675 51.295 458.442 52.0618C458.611 52.2721 458.416 52.9605 458.87 52.8017C461.549 52.9215 463.784 51.6354 464.023 48.6524L464.026 48.6526ZM464.067 30.7519C464.111 30.7413 464.155 30.7306 464.199 30.72C463.756 29.4484 459.482 27.1019 459.249 29.3416C459.451 31.5809 458.397 33.7389 459.336 35.6908C462.39 36.8357 465 33.8002 464.067 30.7519ZM461.213 22.2327C460.963 22.6126 460.761 23.157 461.319 23.1994C461.91 22.9621 461.506 22.6231 461.213 22.2327ZM464.487 26.5925C464.302 26.9033 464.24 27.4099 464.755 27.3318C465.367 27.3391 465.042 26.4629 464.487 26.5925ZM466.728 24.8098C466.561 24.609 466.516 24.5759 466.346 24.7499C466.452 24.9668 466.506 24.9504 466.728 24.8098ZM467.401 26.9129C467.234 26.5809 467.205 25.7861 466.709 25.9775C466.066 26.4158 466.998 28.0956 467.401 26.9129ZM469.559 33.0313C469.721 32.8257 469.745 32.7705 469.538 32.643C469.348 32.7942 469.377 32.8455 469.559 33.0313ZM472.836 29.5836C472.478 29.2622 472.241 29.0272 472.021 29.4396C472.148 29.8168 472.504 29.7632 472.836 29.5836ZM472.226 31.7509C472.436 31.36 472.5 31.3345 472.255 31.0648C471.991 31.313 472.049 31.3435 472.226 31.7509Z" fill="#2A2A2A"/>
<path d="M493.7 63.9892C481.082 64.4069 475.296 50.2395 477.282 39.2261C477.517 38.4019 476.931 37.7678 477.56 37.0165C477.826 36.1342 477.453 35.2686 477.888 34.4403C478.975 32.5962 478.363 30.0177 480.086 28.5848C482.779 23.647 488.443 19.1664 494.216 19.9299C515.223 20.3898 514.032 62.9832 493.697 63.989L493.7 63.9892ZM493.812 30.7104C487.851 29.9515 487.11 52.5933 492.258 53.1897C498.505 54.6357 499.525 30.3748 493.812 30.7104ZM503.34 48.6952C503.501 48.5864 503.627 48.5011 503.752 48.4159C503.567 48.13 503.338 48.3827 503.1 48.4632C503.166 48.5285 503.232 48.5938 503.34 48.6983L503.34 48.6952Z" fill="#2A2A2A"/>
<path d="M522.52 50.4725C521.849 51.575 522.815 52.8032 522.314 53.8567C521.57 54.4594 522.656 55.1678 522.236 55.6968C521.99 55.9019 521.982 56.1015 522.219 56.3209C521.556 58.636 523.298 62.8528 520.474 64.1671C519.818 64.1705 519.23 64.5486 518.606 64.1753C518.039 64.7855 517.736 63.9853 517.121 64.0405C516.717 63.9046 516.506 64.3862 516.193 64.3417C515.671 63.9758 515.106 64.5517 514.638 64.1632C513.939 63.6243 513.163 64.7005 512.427 63.9288C508.89 64.2975 511.371 57.0012 511.057 54.982C510.818 53.1035 510.977 50.9701 511.007 49C511.076 48.4749 510.561 47.6657 511.303 47.3347C511.484 47.2643 511.542 47.0731 511.391 46.8698C510.804 43.4082 512.133 39.4654 511.58 36.2333C511.484 35.6168 511.64 34.8298 511.832 34.1881C511.855 33.658 511.198 33.0021 511.786 32.4928C511.559 30.8304 512.212 28.9898 512.03 27.3917C511.828 26.9895 511.614 26.4368 512.248 26.095C512.253 25.461 511.753 24.8743 512.158 24.1448C512.424 21.4191 513.928 21.1736 516.474 21.7565C518.385 21.6376 520.657 22.0807 522.424 21.5246C523.892 22.6335 525.679 21.4596 527.153 22.7187C536.341 22.5804 541.982 31.396 539.43 39.5609C538.587 41.8903 537.017 43.7827 535.07 45.4934C531.81 47.436 534.061 48.6593 534.262 50.9174C535.23 52.4706 535.86 54.1033 536.769 55.6571C536.976 56.2345 536.473 56.9036 537.217 57.2664C537.949 57.538 537.005 58.3415 537.68 58.5045C538.694 59.4755 538.752 61.6493 539.554 62.9175C540.295 63.3519 539.784 64.0644 540.001 64.6079C539.954 65.4932 538.781 64.7905 538.3 65.0888C536.556 65.1773 534.624 64.5485 532.908 65.0007C527.366 64.9218 528.519 63.9522 526.499 59.7861C526.96 58.7371 525.315 58.1706 525.909 57.1335C525.693 56.562 524.923 56.2138 525.417 55.4662C524.35 53.1651 523.778 50.3665 522.853 48.0059C522.565 48.7529 522.618 49.6518 522.459 50.4542C522.48 50.4614 522.502 50.4654 522.524 50.4726L522.52 50.4725ZM516.548 25.4807C518.203 25.7103 516.508 24.2136 515.856 24.989C515.948 25.324 516.26 25.556 516.548 25.4807ZM523.842 41.846C527.629 41.4755 529.776 36.9769 527.702 33.7084C526.596 32.3836 525.247 31.9328 523.749 31.6849C523.035 31.4952 523.631 33.1296 523.432 33.4742C522.935 34.0623 523.436 34.6241 523.292 35.2366C522.727 35.8875 523.359 36.5142 523.039 37.2129C523.151 38.708 522.351 40.7705 523.839 41.8428L523.842 41.846Z" fill="#2A2A2A"/>
<path d="M566.042 26.6267C566.839 30.516 567.475 35.3357 568.18 39.5647C569.013 41.2215 568.561 43.6987 569.528 45.5612C569.641 47.1 569.837 48.5955 569.976 50.0355C570.306 50.3557 570.133 50.6795 570.048 51.0633C570.091 51.4557 570.697 51.7532 570.242 52.2276C571.034 54.9168 571.539 57.4502 571.521 59.952C571.979 61.4524 573.761 66.0676 571.51 66.3065C569.937 66.7865 567.981 66.4223 566.239 66.2547C565.196 66.9822 564.236 65.9573 563.281 66.3136C560.172 66.6722 561.278 62.8574 559.997 61.366C559.351 61.4416 559.134 60.6514 558.537 60.6666C557.988 60.784 557.359 60.9479 556.82 60.6313C556.073 60.4122 555.309 61.0484 554.562 60.3168C549.519 61.9525 554.599 67.1763 546.163 65.5531C544.974 65.0965 543.606 65.6603 542.452 65.3957C542.016 64.6336 541.217 65.5745 540.873 65.1382C540.702 64.6716 539.605 64.6001 540.061 63.954C541.298 60.3416 541.905 56.3339 543.259 53.0732C542.853 52.478 543.511 52.131 543.462 51.6134C543.069 50.9906 543.99 51.0172 543.934 50.4087C543.927 48.8088 544.692 47.2853 545.087 45.7055C546.188 44.8649 545.323 43.3754 546.233 42.4798C546.777 41.9436 545.985 40.8946 546.845 40.5812C547.332 39.7676 546.889 38.5772 547.491 37.7092C548.528 34.8507 548.691 31.827 550.003 29.1051C550.633 27.0479 550.802 24.0214 553.263 23.3915C556.097 23.2399 559.002 23.4069 561.953 23.7351C562.872 23.5742 563.528 24.0925 564.388 23.8416C565.159 23.718 564.993 24.314 565.325 24.8061C566.211 25.1374 566.089 25.8851 566.033 26.6201L566.048 26.6208L566.042 26.6267ZM544.94 58.384C544.636 57.8119 544.323 58.1954 544.027 58.5297C544 59.0222 544.956 59.094 544.94 58.384ZM547.195 52.6466C547.06 52.5877 546.934 52.5324 546.809 52.4771C546.777 52.5507 546.743 52.6274 546.712 52.7042C546.914 52.719 547.12 52.9496 547.198 52.6467L547.195 52.6466ZM547.811 51.0262C547.444 51.3511 547.337 51.7934 547.846 51.8868C548.161 51.6846 548.005 51.3843 547.811 51.0262ZM550.628 45.0782C550.503 44.9417 550.41 44.8409 550.314 44.74C550.23 44.8176 550.148 44.8954 550.064 44.973C550.282 45.1354 550.354 45.354 550.628 45.0782ZM552.609 54.5665C553.229 54.6927 554.047 54.5587 553.848 53.8692C553.088 53.3714 553.83 52.0782 552.852 51.8024C551.899 52.1556 552.986 53.2765 552.04 53.78C551.576 54.1852 552.202 54.671 552.606 54.5632L552.609 54.5665ZM555.031 56.1157C554.892 55.4756 554.165 55.8978 554.069 56.3124C554.298 56.6627 554.88 56.5093 555.031 56.1157ZM555.038 53.7197C553.831 53.5373 554.702 54.5146 555.337 54.4978C556.16 54.3766 555.415 53.7607 555.038 53.7197ZM557.945 35.4282C558.215 34.4492 557.215 34.888 557.952 35.4222C556.851 38.3781 556.7 41.5834 556.077 44.7876C555.344 47.834 553.229 52.9962 558.442 51.1084C559.763 49.2805 558.84 47.173 558.737 45.2034C558.128 42.0189 558.591 38.3987 557.948 35.4283L557.945 35.4282ZM561.836 53.1645C561.938 53.0438 562.007 52.9655 562.072 52.8902C561.881 52.6915 561.747 52.6827 561.566 52.8999C561.641 52.9719 561.716 53.0469 561.836 53.1645ZM563.707 59.5081C563.898 58.6164 562.503 58.3604 562.079 59.0016C561.792 59.5019 563.774 60.5014 563.707 59.5081ZM563.078 50.249C563.177 50.4126 563.256 50.5471 563.338 50.6787C563.458 50.562 563.576 50.4451 563.696 50.3253C563.576 50.2077 563.456 50.0932 563.336 49.9757C563.261 50.0537 563.189 50.1288 563.078 50.2459L563.078 50.249ZM563.753 55.2391C565.122 55.3066 563.457 53.7612 563.323 54.8428C563.299 55.2073 563.512 55.2476 563.753 55.2391ZM564.71 53.4551C564.368 54.5216 566.009 54.7318 565.811 53.6455C565.756 52.8777 564.733 52.4844 564.71 53.4551Z" fill="#2A2A2A"/>
<path d="M587.477 57.4881C586.783 59.702 587.146 61.4545 586.923 63.7133C587.431 66.3062 585.652 67.5991 583.204 66.8892C580.781 66.5708 577.265 67.7683 575.634 65.7745C575.044 64.6716 575.708 62.9345 575.685 61.6463C575.294 60.983 575.532 60.3776 575.583 59.5456C575.395 58.7534 575.684 58.2689 575.745 57.5623C575.351 57.0675 575.473 56.6072 575.843 56.2167C575.979 55.2914 575.502 54.2402 576.15 53.3147C575.652 51.3721 576.218 48.9935 576.073 47.0284C575.684 45.2342 576.889 43.5638 576.245 41.8056C576.057 41.154 577.122 40.5774 576.595 39.9615C575.943 38.3998 577.858 36.1159 575.848 34.8778C574.208 33.4085 569.918 35.1105 570.496 31.7982C570.987 31.1848 570.439 30.7117 570.441 30.0744C570.575 29.7739 570.658 29.515 570.386 29.2347C570.317 28.7194 571.065 28.4575 570.592 27.9C570.189 27.2518 570.793 26.7775 570.665 26.116C570.328 23.4554 574.018 23.9556 575.585 24.2939C576.07 24.5644 576.649 24.0203 577.168 24.1048C577.464 24.1236 577.524 24.6885 577.928 24.4464C580.635 24.2612 583.405 24.5849 586.297 24.3921C588.144 25.1078 590.665 24.3992 592.726 25.0865C594.521 24.5315 595.452 27.1142 595.046 28.4936C594.92 29.9192 595.005 31.3912 594.858 32.7785C595.351 36.9891 588.737 33.1687 587.858 36.7213C588.302 39.5238 587.706 42.4448 587.643 45.3259C587.73 49.3819 587.128 53.3523 587.477 57.4881ZM584.258 36.9622C584.071 37.1042 584.006 37.2265 584.202 37.3316C584.416 37.2938 584.391 37.1522 584.258 36.9622ZM590.948 28.8353C590.898 28.5457 590.223 28.5577 590.083 28.7517C590.037 29.2466 590.812 29.1732 590.948 28.8353Z" fill="#2A2A2A"/>
<path d="M606.702 53.5525C604.785 62.5224 618.534 53.7794 616.124 62.3597C615.745 64.2901 617.238 67.609 614.663 68.2871C613.998 68.7119 613.462 68.308 612.762 68.5345C611.683 68.7793 610.778 68.0255 609.668 68.2658C605.611 67.9344 601.676 67.6769 597.8 67.878C594.977 67.8426 594.368 66.5827 594.901 63.9528C594.914 62.0944 594.558 60.0422 595.155 58.1929C594.661 56.4317 595.335 54.2389 595.351 52.3962C595.348 51.1995 594.874 49.6391 595.48 48.465C595.529 47.8922 594.915 47.3538 595.519 46.8014C595.958 42.8584 595.428 38.8524 596.03 34.8975C596.897 22.7244 594.422 25.6875 606.034 25.474C606.349 25.7061 606.59 25.635 606.883 25.4319C607.349 25.3423 607.669 26.0432 608.17 25.6552C609.317 25.5007 610.675 25.6083 611.905 25.8386C613.652 26.122 617.312 25.215 617.457 27.6894C617.745 29.3606 617.143 30.891 617.454 32.6163C618.082 34.3082 617.135 35.8583 615.453 35.8776C613.214 36.4419 610.249 34.907 608.209 35.8484C607.153 36.6034 607.337 37.8454 607.408 38.9794C606.943 40.5187 607.823 41.7808 609.419 41.8703C610.722 41.8037 612.183 41.9782 613.262 42.2364C614.793 41.9576 614.284 41.7892 615.394 42.8111C616.508 43.9518 615.727 49.2332 615.307 50.9619C613.158 53.0828 607.052 49.4401 606.702 53.5588L606.702 53.5525ZM600.239 54.6468C600.171 54.1816 599.624 54.249 599.503 54.5219C599.557 54.9491 600.028 54.9722 600.239 54.6468ZM602.35 56.1236C602.999 56.2323 602.923 55.2856 602.452 55.2031C601.365 54.7664 601.318 56.2267 602.35 56.1236ZM605.111 32.2053C604.938 33.2696 606.372 33.0648 606.428 32.2486C606.473 31.4913 605.166 31.4296 605.111 32.2053Z" fill="#2A2A2A"/>
</g>
<g style="mix-blend-mode:darken">
<path d="M273.381 0.353823L3.73321 19.2094C1.88553 19.3386 0.492434 20.9412 0.621637 22.7889L4.84922 83.2461C4.97842 85.0937 6.581 86.4868 8.42868 86.3576L278.076 67.502C279.924 67.3728 281.317 65.7703 281.188 63.9226L276.96 3.4654C276.831 1.61772 275.228 0.224622 273.381 0.353823Z" fill="#A4FFA4"/>
<path d="M277.277 3.37535C277.15 1.56839 275.566 0.208401 273.735 0.336394L222.349 3.92969L227.056 71.2521L278.443 67.6589C280.273 67.5309 281.653 65.9635 281.527 64.1566L277.277 3.37535ZM253.333 54.0228L239.307 37.5669L248.156 36.9482L246.786 17.7257L255.043 17.1483L256.413 36.3708L264.936 35.7748L253.337 54.0225L253.333 54.0228Z" fill="#2A2A2A"/>
<path d="M36.1193 31.8044C35.8788 33.0886 36.1306 34.2157 36.0659 35.3587C36.8373 36.0469 35.9306 36.5726 36.2134 37.2887C37.1087 38.308 35.7956 39.7238 36.5887 40.7219C35.879 42.2653 34.422 40.6784 33.4408 40.3633C29.1212 38.6306 26.0182 42.0177 24.5851 45.7188C24.2186 49.8327 23.9851 54.0947 25.4069 57.876C29.5478 65.1939 32.1438 62.7418 38.1395 60.4702C38.764 60.9014 37.9517 61.3828 38.3034 61.9148C38.447 63.0244 38.3199 64.1748 38.4473 65.2761C38.4627 68.6903 39.4716 73.4032 34.5744 73.4846C33.2458 74.0492 31.9617 74.2145 30.4906 74.4494C29.99 73.9467 29.5177 74.2533 28.9931 74.3969C28.4262 74.4302 28.04 73.539 27.3764 74.0791C17.7251 72.15 13.035 62.7792 12.3718 53.9255C12.1495 52.724 12.367 51.6081 12.1522 50.4249C12.0244 49.3615 12.561 47.5911 12.4016 46.3003C12.593 43.8653 13.9402 41.6798 14.3868 39.4314C15.4277 39.0253 15.3125 37.6024 15.8677 36.8623C17.8429 35.202 18.7149 32.471 21.3087 31.8305C24.0928 29.6388 35.1876 26.8912 36.1159 31.8014L36.1193 31.8044ZM18.0904 48.8146C17.9479 49.1611 17.699 49.2886 17.9979 49.5161C18.2766 49.2293 18.5216 49.2248 18.0904 48.8146ZM19.3893 58.4855C19.5558 58.6626 19.6883 58.713 19.7742 58.5026C19.7088 58.2871 19.5699 58.3251 19.3893 58.4855ZM20.8222 64.0461C21.2514 63.7519 21.0124 63.3472 20.577 63.4626C20.2045 63.7119 20.6046 63.8569 20.8222 64.0461ZM19.1844 40.3539C19.8938 40.515 19.8112 39.5584 19.3346 39.6232C18.8774 39.652 18.7972 40.2583 19.1844 40.3539ZM22.5947 61.3748C23.3616 61.5476 23.5385 60.12 22.8271 60.2012C22.0141 60.1323 21.4419 61.4397 22.5947 61.3748ZM23.1857 40.593C23.0758 41.2705 24.0277 41.1662 23.9536 40.4669C24.0148 39.9029 23.0011 39.9329 23.1857 40.593Z" fill="#2A2A2A"/>
<path d="M58.1667 72.2599C45.3816 74.1319 37.8725 60.3824 38.6298 48.9513C38.7737 48.0858 38.1043 47.5068 38.6592 46.6723C38.8269 45.7423 38.3502 44.9076 38.6998 44.0152C39.5946 42.0154 38.6771 39.463 40.2659 37.8078C42.4375 32.4794 47.6868 27.2693 53.6481 27.3839C75.0705 25.4425 78.7421 68.909 58.17 72.2628L58.1667 72.2599ZM54.462 38.3938C48.3107 38.3051 50.1537 61.4231 55.4571 61.4391C61.9757 62.1941 60.2322 37.3959 54.462 38.3938ZM66.2192 55.5981C66.3705 55.468 66.4862 55.3687 66.6049 55.2661C66.3849 54.9985 66.1813 55.28 65.9498 55.3874C66.0261 55.4449 66.0993 55.5027 66.2192 55.5981Z" fill="#2A2A2A"/>
<path d="M88.2435 55.1148C88.2529 54.0354 86.7489 53.5745 87.1249 52.2054C86.3652 50.966 85.7775 49.6673 85.5022 48.1582C84.6372 46.3569 83.2868 44.1367 84.5368 48.0244C84.5877 50.5525 84.8678 52.9828 85.2763 55.5424C85.4654 57.4822 85.9331 59.3584 85.6939 61.3784C85.6076 63.6079 87.3715 68.4598 84.9839 69.6205C82.898 69.6972 80.9646 70.0682 78.9023 69.898C77.792 69.8058 76.17 70.762 75.4261 69.4334C74.3746 63.6606 74.56 57.4963 73.7983 51.7315C73.9462 45.7962 72.5207 39.4866 72.798 33.4228C73.2314 32.9648 72.4832 32.429 72.4957 31.9784C73.1348 31.4494 72.171 31.1583 72.344 30.5738C72.2473 24.6934 75.0321 27.5492 78.9139 26.35C79.8582 26.2273 80.9002 26.7363 81.761 26.2295C82.1899 25.841 82.5133 26.5983 82.9112 26.5768C85.3605 28.3679 86.152 32.5802 87.514 35.3279C87.7663 36.4173 88.5634 36.2577 88.5653 37.6351C89.5555 39.1131 89.957 40.8965 90.8362 42.4515C92.8128 44.6782 92.6229 47.764 94.2467 50.2073C94.581 48.4668 93.9996 46.2243 93.2286 44.5076C93.2975 43.2448 93.0462 41.495 92.6334 40.3131C92.1784 38.1686 92.6789 35.7026 91.9734 33.6638C91.5185 33.0949 92.4536 32.8849 92.1548 32.434C91.3073 31.3328 92.5045 29.7899 91.5657 28.7328C91.7374 27.3654 91.5392 25.3854 93.6782 25.5723C95.9632 24.8779 98.662 25.2458 101.019 24.9583C103.937 24.5813 103.298 33.6581 103.303 35.6705C103.927 38.6585 104.003 41.8138 104.055 44.8419C104.477 48.0893 104.938 51.3592 104.709 54.4195C104.739 58.7698 106.093 63.7887 105.086 67.8248C104.187 68.3248 103.139 68.722 102.163 68.479C101.742 68.0367 101.29 68.2287 100.898 68.5077C100.42 69.1449 100.065 67.9747 99.6157 68.5219C98.642 69.4391 97.2404 68.059 96.0627 68.8018C93.6905 68.2034 93.3675 65.6535 92.3346 63.8797C91.1784 62.8158 91.4163 60.821 90.5136 59.5602C90.0277 57.9179 88.596 56.7821 88.2406 55.1182L88.2435 55.1148ZM84.2934 35.9085C84.0984 35.7743 83.9518 35.7468 83.9173 35.9725C84.0254 36.1694 84.1556 36.0974 84.2934 35.9085Z" fill="#2A2A2A"/>
<path d="M121.958 52.7574C121.968 51.678 120.464 51.2171 120.84 49.848C120.08 48.6085 119.492 47.3099 119.217 45.8008C118.352 43.9995 117.002 41.7793 118.252 45.667C118.303 48.1951 118.583 50.6253 118.991 53.185C119.18 55.1248 119.648 57.001 119.409 59.021C119.322 61.2505 121.086 66.1023 118.699 67.2631C116.613 67.3397 114.679 67.7108 112.617 67.5405C111.507 67.4483 109.885 68.4046 109.141 67.076C108.089 61.3032 108.275 55.1389 107.513 49.3741C107.661 43.4388 106.236 37.1292 106.513 31.0654C106.946 30.6073 106.198 30.0716 106.211 29.621C106.85 29.092 105.886 28.8009 106.059 28.2164C105.962 22.3359 108.747 25.1917 112.629 23.9926C113.573 23.8699 114.615 24.3789 115.476 23.8721C115.905 23.4836 116.228 24.2409 116.626 24.2194C119.075 26.0105 119.867 30.2228 121.229 32.9705C121.481 34.0598 122.278 33.9003 122.28 35.2776C123.27 36.7557 123.672 38.5391 124.551 40.094C126.528 42.3208 126.338 45.4066 127.962 47.8499C128.296 46.1094 127.714 43.8668 126.943 42.1502C127.012 40.8874 126.761 39.1376 126.348 37.9557C125.893 35.8112 126.394 33.3452 125.688 31.3064C125.233 30.7375 126.168 30.5274 125.87 30.0766C125.022 28.9754 126.219 27.4325 125.281 26.3754C125.452 25.0079 125.254 23.0279 127.393 23.2149C129.678 22.5205 132.377 22.8884 134.734 22.6009C137.652 22.2239 137.013 31.3007 137.018 33.313C137.642 36.3011 137.718 39.4564 137.769 42.4844C138.192 45.7319 138.653 49.0017 138.423 52.062C138.454 56.4124 139.808 61.4313 138.801 65.4674C137.902 65.9674 136.854 66.3646 135.878 66.1215C135.457 65.6792 135.005 65.8712 134.613 66.1503C134.135 66.7875 133.78 65.6173 133.331 66.1644C132.357 67.0816 130.955 65.7016 129.778 66.4443C127.405 65.846 127.082 63.2961 126.049 61.5223C124.893 60.4584 125.131 58.4636 124.228 57.2027C123.743 55.5605 122.311 54.4247 121.955 52.7607L121.958 52.7574ZM118.008 33.5511C117.813 33.4169 117.667 33.3894 117.632 33.6151C117.74 33.812 117.87 33.74 118.008 33.5511Z" fill="#2A2A2A"/>
<path d="M153.314 49.9893C152.389 59.3346 165.375 48.8629 163.907 57.8687C163.742 59.8741 165.642 63.0811 163.101 64.067C162.473 64.5732 161.882 64.2246 161.197 64.5367C160.125 64.9104 159.12 64.2479 158.016 64.6175C153.852 64.7452 149.821 64.9359 145.901 65.5811C143.028 65.8701 142.26 64.6564 142.503 61.9222C142.305 60.0303 141.705 57.9808 142.101 56.0348C141.397 54.2977 141.831 51.9936 141.633 50.1142C141.495 48.8974 140.831 47.362 141.315 46.1016C141.299 45.5115 140.611 45.0344 141.165 44.4044C141.161 40.3415 140.163 36.3293 140.32 32.2362C139.806 19.7555 137.628 23.0527 149.416 21.5019C149.764 21.7009 149.999 21.6027 150.274 21.3602C150.739 21.2145 151.145 21.8905 151.61 21.4397C152.757 21.152 154.153 21.1047 155.43 21.1978C157.238 21.2883 160.858 19.9439 161.291 22.4453C161.776 24.1128 161.339 25.7378 161.852 27.4567C162.685 29.1062 161.9 30.7901 160.191 31.0039C157.979 31.8348 154.786 30.6114 152.819 31.8056C151.831 32.6955 152.16 33.9399 152.363 35.083C152.067 36.7044 153.106 37.8866 154.738 37.7945C156.057 37.5797 157.56 37.5877 158.69 37.7258C160.214 37.2669 159.678 37.1535 160.924 38.0633C162.188 39.0944 162.001 44.5607 161.772 46.3631C159.83 48.7663 153.201 45.7611 153.314 49.9924L153.314 49.9893ZM146.862 51.8463C146.738 51.38 146.191 51.5127 146.101 51.802C146.206 52.2286 146.688 52.2012 146.862 51.8463ZM149.179 53.1057C149.852 53.1404 149.666 52.188 149.176 52.1593C148.018 51.8377 148.142 53.3323 149.179 53.1057ZM149.248 28.4576C149.197 29.5588 150.63 29.1881 150.59 28.3512C150.549 27.5773 149.212 27.6645 149.248 28.4576Z" fill="#2A2A2A"/>
<path d="M188.145 21.1735C187.904 22.4577 188.156 23.5848 188.091 24.7278C188.863 25.416 187.956 25.9418 188.239 26.6579C189.134 27.6771 187.821 29.0929 188.614 30.091C187.904 31.6345 186.447 30.0475 185.466 29.7325C181.147 27.9998 178.044 31.3868 176.61 35.0879C176.244 39.2019 176.011 43.4638 177.432 47.2452C181.573 54.5631 184.169 52.1109 190.165 49.8393C190.789 50.2705 189.977 50.7519 190.329 51.284C190.472 52.3935 190.345 53.544 190.473 54.6452C190.488 58.0595 191.497 62.7723 186.6 62.8537C185.271 63.4183 183.987 63.5836 182.516 63.8186C182.015 63.3158 181.543 63.6224 181.019 63.766C180.452 63.7994 180.065 62.9081 179.402 63.4482C169.751 61.5192 165.06 52.1483 164.397 43.2947C164.175 42.0932 164.392 40.9772 164.178 39.7941C164.05 38.7306 164.586 36.9602 164.427 35.6694C164.618 33.2345 165.966 31.0489 166.412 28.8005C167.453 28.3944 167.338 26.9715 167.893 26.2314C169.868 24.5712 170.74 21.8402 173.334 21.1996C176.118 19.008 187.213 16.2603 188.141 21.1706L188.145 21.1735ZM170.116 38.1838C169.973 38.5302 169.724 38.6577 170.023 38.8853C170.302 38.5984 170.547 38.5939 170.116 38.1838ZM171.415 47.8546C171.581 48.0317 171.714 48.0822 171.8 47.8718C171.734 47.6562 171.595 47.6942 171.415 47.8546ZM172.848 53.4152C173.277 53.1211 173.038 52.7163 172.602 52.8317C172.23 53.081 172.63 53.226 172.848 53.4152ZM171.21 29.723C171.919 29.8841 171.837 28.9276 171.36 28.9923C170.903 29.0212 170.823 29.6274 171.21 29.723ZM174.62 50.7439C175.387 50.9167 175.564 49.4892 174.853 49.5704C174.039 49.5014 173.467 50.8088 174.62 50.7439ZM175.211 29.9621C175.101 30.6397 176.053 30.5354 175.979 29.8361C176.04 29.272 175.027 29.302 175.211 29.9621Z" fill="#2A2A2A"/>
<path d="M209.316 50.9479C208.863 53.2786 209.434 55.0186 209.465 57.3437C210.28 59.9221 208.619 61.4408 206.047 60.998C203.547 60.9527 200.106 62.5707 198.22 60.7308C197.492 59.6779 197.97 57.833 197.8 56.524C197.325 55.8937 197.5 55.2525 197.456 54.4001C197.175 53.6147 197.412 53.0887 197.395 52.3633C196.939 51.9047 197.009 51.4249 197.343 50.9832C197.377 50.028 196.768 49.0107 197.323 47.997C196.594 46.0793 196.899 43.5955 196.524 41.6122C195.922 39.8303 196.957 37.9967 196.098 36.2799C195.833 35.6381 196.849 34.9286 196.244 34.3639C195.402 32.8504 197.089 30.3077 194.904 29.278C193.067 27.9724 188.898 30.1949 189.105 26.7588C189.535 26.0777 188.924 25.6582 188.853 25.0121C188.954 24.6906 189.01 24.4193 188.7 24.1643C188.569 23.6482 189.303 23.295 188.754 22.7861C188.271 22.1721 188.83 21.6204 188.624 20.9618C187.978 18.2929 191.786 18.3789 193.42 18.5445C193.945 18.7657 194.474 18.1437 195.008 18.1693C195.308 18.1546 195.436 18.7212 195.818 18.4271C198.551 17.931 201.407 17.9388 204.323 17.4141C206.287 17.9309 208.764 16.9212 210.941 17.3822C212.705 16.611 213.947 19.1313 213.69 20.5802C213.727 22.0463 213.978 23.5319 213.99 24.9589C214.974 29.186 207.808 26.0579 207.32 29.7747C208.091 32.5732 207.819 35.6144 208.085 38.552C208.637 42.6678 208.48 46.7765 209.31 50.9421L209.316 50.9479ZM203.69 30.4374C203.516 30.6036 203.465 30.733 203.676 30.8189C203.888 30.7537 203.847 30.6151 203.69 30.4374ZM209.562 21.4004C209.475 21.1139 208.793 21.2025 208.673 21.4153C208.683 21.9241 209.464 21.7594 209.562 21.4004Z" fill="#2A2A2A"/>
</g>
<path d="M934.969 0.830203L705.726 16.8605C703.883 16.9893 702.494 18.5874 702.623 20.4299L706.839 80.718C706.968 82.5605 708.566 83.9497 710.408 83.8209L939.652 67.7906C941.494 67.6618 942.883 66.0637 942.754 64.2212L938.539 3.93308C938.41 2.09057 936.812 0.701362 934.969 0.830203Z" fill="#A1ADFF"/>
<path d="M938.522 3.68601C938.396 1.87905 936.83 0.517731 935.023 0.644086L884.294 4.19141L889.002 71.5139L939.731 67.9665C941.538 67.8402 942.899 66.2742 942.773 64.4672L938.522 3.68601ZM914.932 54.3087L901.07 37.8414L909.805 37.2306L908.436 18.0081L916.587 17.438L917.957 36.6606L926.37 36.0722L914.935 54.3085L914.932 54.3087Z" fill="#2A2A2A"/>
<path d="M738.428 29.3181C738.187 30.6145 738.438 31.7478 738.375 32.9032C739.154 33.5982 738.241 34.1294 738.524 34.8497C739.426 35.878 738.103 37.3065 738.904 38.3136C738.188 39.869 736.718 38.2689 735.73 37.9522C731.371 36.2029 728.241 39.6206 726.8 43.353C726.431 47.5027 726.196 51.803 727.629 55.6167C731.805 62.9986 734.423 60.5231 740.472 58.231C741.102 58.6668 740.282 59.1506 740.637 59.6903C740.781 60.8092 740.652 61.9723 740.78 63.0829C740.798 66.5282 741.814 71.2805 736.874 71.3625C735.534 71.9329 734.238 72.0988 732.756 72.3341C732.25 71.827 731.773 72.1363 731.243 72.28C730.672 72.3137 730.283 71.4157 729.612 71.9612C719.88 70.0138 715.145 60.5634 714.477 51.6346C714.251 50.4242 714.473 49.2954 714.258 48.103C714.127 47.0303 714.67 45.2455 714.51 43.9427C714.702 41.4862 716.062 39.2836 716.512 37.013C717.562 36.604 717.446 35.1664 718.006 34.4217C719.999 32.7487 720.879 29.9902 723.496 29.3461C726.305 27.1363 737.495 24.3624 738.431 29.3178L738.428 29.3181ZM720.244 46.477C720.102 46.8257 719.848 46.9563 720.149 47.1861C720.43 46.8968 720.678 46.892 720.244 46.477ZM721.553 56.2328C721.72 56.4125 721.855 56.4626 721.944 56.2494C721.878 56.0313 721.736 56.0695 721.553 56.2328ZM722.999 61.8394C723.433 61.5425 723.191 61.1329 722.751 61.2515C722.374 61.5036 722.779 61.6509 722.999 61.8394ZM721.347 37.945C722.061 38.1083 721.981 37.1418 721.499 37.2068C721.037 37.236 720.958 37.8468 721.347 37.945ZM724.787 59.1459C725.561 59.3207 725.739 57.8782 725.024 57.9596C724.203 57.8884 723.628 59.2082 724.787 59.1459ZM725.384 38.1833C725.275 38.8683 726.234 38.7605 726.16 38.057C726.22 37.4882 725.197 37.519 725.384 38.1833Z" fill="#2A2A2A"/>
<path d="M754.413 55.3186C753.851 56.5276 754.985 57.6745 754.594 58.8151C753.9 59.5191 755.096 60.1191 754.727 60.7126C754.499 60.9512 754.514 61.1572 754.781 61.3548C754.366 63.8049 756.643 67.9327 753.9 69.6048C753.228 69.6831 752.667 70.1395 751.984 69.8266C751.474 70.5177 751.071 69.7305 750.446 69.8589C750.019 69.7664 749.855 70.2859 749.528 70.2774C748.951 69.9603 748.436 70.6173 747.913 70.2743C747.134 69.8051 746.461 70.9968 745.615 70.2907C742.03 71.0809 743.728 63.3038 743.175 61.2695C742.713 59.37 742.631 57.1617 742.433 55.1371C742.445 54.5906 741.82 53.822 742.543 53.392C742.721 53.298 742.757 53.0979 742.581 52.9032C741.578 49.4202 742.486 45.2202 741.546 41.9679C741.377 41.3462 741.445 40.5198 741.567 39.8402C741.529 39.2941 740.778 38.6942 741.323 38.1073C740.899 36.4278 741.357 34.4639 740.983 32.8436C740.73 32.4536 740.448 31.9089 741.058 31.4868C740.99 30.836 740.41 30.2902 740.74 29.4956C740.696 26.6668 742.212 26.2409 744.893 26.5458C746.838 26.2028 749.223 26.3936 750.969 25.6223C752.604 26.5899 754.3 25.1793 755.962 26.3018C765.371 25.0982 772.179 33.4909 770.506 42.1663C769.912 44.654 768.517 46.7774 766.718 48.7598C763.597 51.1294 766.047 52.1247 766.515 54.419C767.688 55.9019 768.524 57.5024 769.635 58.9928C769.916 59.5595 769.476 60.3085 770.28 60.591C771.062 60.784 770.186 61.7202 770.901 61.8082C772.054 62.6873 772.366 64.9109 773.335 66.1164C774.147 66.4767 773.704 67.2666 773.992 67.7984C774.047 68.7135 772.761 68.1291 772.3 68.4875C770.52 68.7813 768.465 68.3605 766.758 69.0224C761.061 69.5807 762.133 68.4552 759.577 64.4127C759.928 63.2812 758.176 62.8925 758.664 61.7607C758.377 61.2006 757.546 60.9295 757.965 60.1067C756.605 57.8717 755.693 55.0628 754.471 52.746C754.26 53.5448 754.422 54.4618 754.349 55.3042C754.371 55.3089 754.393 55.3136 754.416 55.3152L754.413 55.3186ZM745.398 30.3647C747.123 30.4103 745.21 29.067 744.632 29.9417C744.765 30.2742 745.111 30.4758 745.398 30.3647ZM754.774 46.3147C758.615 45.4973 760.301 40.6345 757.794 37.5201C756.506 36.2867 755.071 35.9794 753.503 35.9008C752.749 35.7873 753.548 37.3967 753.387 37.7749C752.944 38.4363 753.526 38.9569 753.445 39.5992C752.938 40.334 753.662 40.9012 753.417 41.6584C753.705 43.1781 753.122 45.389 754.774 46.3178L754.774 46.3147Z" fill="#2A2A2A"/>
<path d="M786.422 52.5731C785.491 61.9994 798.589 51.4369 797.107 60.5192C796.941 62.541 798.858 65.7783 796.293 66.773C795.661 67.2845 795.066 66.931 794.373 67.246C793.292 67.6226 792.276 66.9535 791.167 67.3259C786.964 67.4567 782.901 67.6468 778.945 68.2997C776.045 68.5903 775.273 67.3679 775.516 64.6068C775.313 62.6986 774.711 60.6332 775.11 58.6704C774.401 56.9198 774.838 54.5937 774.639 52.7008C774.497 51.472 773.831 49.9255 774.319 48.6526C774.302 48.0579 773.61 47.5763 774.168 46.9415C774.164 42.846 773.156 38.7957 773.316 34.6668C772.796 22.0773 770.601 25.4013 782.491 23.8392C782.84 24.0406 783.078 23.9393 783.356 23.6972C783.825 23.5515 784.233 24.2317 784.7 23.7788C785.859 23.4876 787.264 23.4427 788.553 23.5345C790.378 23.6232 794.031 22.2702 794.465 24.7926C794.956 26.4737 794.515 28.1133 795.032 29.846C795.869 31.5091 795.078 33.2077 793.356 33.4223C791.125 34.2619 787.906 33.0256 785.92 34.2307C784.923 35.1284 785.255 36.3815 785.462 37.5369C785.162 39.1698 786.211 40.3634 787.858 40.2702C789.188 40.0518 790.706 40.0616 791.842 40.2017C793.381 39.7398 792.839 39.6239 794.095 40.5428C795.369 41.5827 795.181 47.0966 794.95 48.9128C792.99 51.3361 786.306 48.3036 786.419 52.5733L786.422 52.5731ZM779.917 54.4455C779.793 53.9743 779.241 54.1101 779.149 54.402C779.254 54.8337 779.741 54.8028 779.917 54.4455ZM782.251 55.7155C782.931 55.7526 782.742 54.7905 782.25 54.759C781.083 54.4361 781.204 55.9424 782.251 55.7155ZM782.323 30.857C782.269 31.9678 783.713 31.594 783.676 30.7498C783.634 29.9687 782.289 30.0565 782.323 30.857Z" fill="#2A2A2A"/>
<path d="M820.623 24.1203C821.889 28.0177 823.102 32.8911 824.312 37.1468C825.356 38.7516 825.18 41.345 826.388 43.1453C826.682 44.7116 827.057 46.222 827.364 47.684C827.738 47.9745 827.6 48.3291 827.556 48.7305C827.643 49.1258 828.303 49.362 827.889 49.9021C829.013 52.5707 829.824 55.1106 830.092 57.6792C830.738 59.1644 833.099 63.694 830.814 64.1988C829.255 64.8723 827.207 64.7239 825.399 64.7562C824.412 65.6218 823.312 64.6826 822.37 65.1593C819.222 65.8844 819.914 61.8437 818.428 60.4611C817.771 60.6137 817.459 59.8264 816.85 59.9129C816.299 60.0988 815.673 60.3402 815.087 60.077C814.296 59.9378 813.586 60.6774 812.734 60.0157C807.749 62.2773 813.564 67.0483 804.722 66.362C803.448 66.0309 802.113 66.7671 800.896 66.6295C800.359 65.8987 799.649 66.9551 799.244 66.5475C799.015 66.09 797.883 66.144 798.272 65.4269C799.122 61.5759 799.282 57.3969 800.297 53.8919C799.812 53.3268 800.447 52.8966 800.335 52.3713C799.861 51.7773 800.806 51.6987 800.681 51.0802C800.491 49.4408 801.097 47.7896 801.319 46.1213C802.353 45.1301 801.294 43.7051 802.122 42.6782C802.619 42.0664 801.685 41.0812 802.53 40.6583C802.935 39.7675 802.345 38.5951 802.861 37.637C803.595 34.5845 803.411 31.4612 804.441 28.5197C804.85 26.3366 804.675 23.2096 807.125 22.2794C810.014 21.7951 813.013 21.6324 816.08 21.6281C817.002 21.3566 817.736 21.8133 818.592 21.4555C819.368 21.2382 819.268 21.8725 819.667 22.3369C820.615 22.5748 820.576 23.3553 820.604 24.1154L820.619 24.1143L820.623 24.1203ZM802.64 59.1472C802.263 58.5965 801.986 59.0236 801.721 59.4028C801.75 59.9119 802.741 59.8739 802.64 59.1472ZM804.293 52.9978C804.145 52.9517 804.011 52.9078 803.876 52.867C803.85 52.9472 803.828 53.0303 803.802 53.1105C804.012 53.1021 804.249 53.3145 804.293 52.9947L804.293 52.9978ZM804.736 51.2639C804.396 51.6421 804.337 52.1041 804.873 52.1419C805.172 51.8982 804.977 51.6077 804.736 51.2639ZM806.94 44.8345C806.796 44.7097 806.686 44.617 806.579 44.5241C806.504 44.611 806.425 44.7011 806.35 44.7911C806.592 44.9309 806.692 45.1466 806.94 44.8345ZM810.069 54.3407C810.719 54.3956 811.544 54.1654 811.258 53.483C810.422 53.0584 811.032 51.6453 809.998 51.4793C809.062 51.9524 810.306 52.9756 809.394 53.6008C808.962 54.07 809.663 54.4976 810.066 54.3409L810.069 54.3407ZM812.733 55.6503C812.518 55.0068 811.821 55.5259 811.766 55.9625C812.044 56.2975 812.621 56.069 812.733 55.6503ZM812.463 53.1917C811.203 53.145 812.209 54.0436 812.859 53.9574C813.69 53.7394 812.855 53.1893 812.463 53.1917ZM813.332 34.0855C813.495 33.0486 812.521 33.6153 813.338 34.0788C812.552 37.2385 812.765 40.5478 812.498 43.9033C812.098 47.1113 810.525 52.6561 815.654 50.1147C816.798 48.0872 815.607 46.0286 815.272 44.0229C814.28 40.8245 814.336 37.0572 813.332 34.0823L813.332 34.0855ZM819.375 51.8365C819.466 51.7016 819.525 51.6128 819.585 51.527C819.365 51.3448 819.225 51.3515 819.066 51.5947C819.149 51.661 819.235 51.7271 819.375 51.8365ZM822.025 58.1272C822.12 57.1892 820.658 57.0876 820.296 57.7965C820.059 58.3431 822.209 59.1367 822.025 58.1272ZM820.313 48.7007C820.43 48.8556 820.53 48.9835 820.63 49.1113C820.739 48.9751 820.849 48.842 820.956 48.709C820.82 48.6025 820.681 48.4993 820.545 48.3928C820.479 48.4821 820.413 48.5683 820.313 48.7007ZM821.584 53.7425C822.995 53.6532 821.107 52.2611 821.098 53.3844C821.115 53.7627 821.339 53.7784 821.584 53.7425ZM822.358 51.8004C822.13 52.9328 823.837 52.9577 823.507 51.8675C823.362 51.0873 822.266 50.8033 822.358 51.8004Z" fill="#2A2A2A"/>
<path d="M846.184 53.3107C845.727 55.6633 846.302 57.417 846.334 59.7637C847.156 62.3656 845.481 63.8971 842.885 63.4514C840.363 63.4051 836.893 65.0401 834.988 63.1819C834.255 62.1199 834.737 60.261 834.563 58.9403C834.086 58.3026 834.26 57.6569 834.216 56.7976C833.931 56.0052 834.173 55.4771 834.154 54.7446C833.692 54.2814 833.764 53.7965 834.1 53.3528C834.133 52.3877 833.522 51.3642 834.081 50.3404C833.347 48.4066 833.651 45.9015 833.276 43.9018C832.671 42.1033 833.714 40.2553 832.847 38.5221C832.579 37.8729 833.605 37.1614 832.994 36.5894C832.144 35.062 833.846 32.4968 831.641 31.4593C829.786 30.1432 825.584 32.3846 825.793 28.9171C826.225 28.2315 825.609 27.8073 825.538 27.1568C825.641 26.8329 825.697 26.5592 825.385 26.302C825.254 25.7811 825.994 25.4252 825.441 24.9088C824.952 24.2906 825.515 23.7338 825.309 23.0708C824.657 20.3786 828.498 20.4644 830.147 20.6345C830.677 20.8577 831.21 20.2308 831.748 20.2559C832.051 20.241 832.182 20.812 832.566 20.5155C835.322 20.0154 838.202 20.0242 841.147 19.4921C843.128 20.0153 845.628 18.9937 847.822 19.4613C849.602 18.6845 850.852 21.2282 850.597 22.6887C850.634 24.1663 850.89 25.6663 850.899 27.1051C851.894 31.3696 844.664 28.2154 844.173 31.9597C844.951 34.7842 844.679 37.8515 844.946 40.8121C845.503 44.963 845.344 49.1075 846.18 53.3078L846.184 53.3107ZM840.509 32.6204C840.333 32.7896 840.283 32.9185 840.496 33.004C840.711 32.9388 840.669 32.7974 840.509 32.6204ZM846.433 23.5067C846.347 23.2179 845.657 23.307 845.537 23.5223C845.548 24.0359 846.336 23.871 846.433 23.5067Z" fill="#2A2A2A"/>
<path d="M865.456 47.0458C864.526 56.4721 877.623 45.9096 876.142 54.9918C875.976 57.0136 877.892 60.2509 875.328 61.2456C874.695 61.7571 874.1 61.4036 873.407 61.7186C872.326 62.0953 871.31 61.4262 870.201 61.7986C865.999 61.9294 861.935 62.1194 857.979 62.7724C855.08 63.0629 854.307 61.8406 854.55 59.0795C854.348 57.1712 853.745 55.1059 854.144 53.143C853.436 51.3925 853.872 49.0664 853.674 47.1735C853.531 45.9447 852.865 44.3982 853.353 43.1253C853.336 42.5306 852.644 42.049 853.202 41.4141C853.198 37.3187 852.19 33.2683 852.35 29.1395C851.83 16.5499 849.635 19.874 861.525 18.3119C861.874 18.5132 862.112 18.412 862.39 18.1699C862.859 18.0241 863.268 18.7043 863.735 18.2515C864.893 17.9603 866.298 17.9154 867.587 18.0071C869.413 18.0959 873.066 16.7428 873.499 19.2653C873.99 20.9464 873.549 22.586 874.066 24.3187C874.903 25.9818 874.113 27.6804 872.39 27.8949C870.16 28.7346 866.94 27.4983 864.955 28.7034C863.957 29.601 864.29 30.8542 864.496 32.0095C864.196 33.6424 865.245 34.836 866.892 34.7429C868.222 34.5244 869.74 34.5343 870.876 34.6744C872.415 34.2124 871.874 34.0966 873.13 35.0154C874.403 36.0554 874.215 41.5692 873.985 43.3855C872.025 45.8087 865.34 42.7763 865.453 47.046L865.456 47.0458ZM858.951 48.9182C858.827 48.447 858.276 48.5828 858.183 48.8747C858.289 49.3063 858.776 49.2754 858.951 48.9182ZM861.286 50.1881C861.966 50.2252 861.776 49.2632 861.285 49.2317C860.117 48.9088 860.238 50.415 861.286 50.1881ZM861.357 25.3297C861.303 26.4405 862.747 26.0666 862.71 25.2225C862.668 24.4414 861.323 24.5292 861.357 25.3297Z" fill="#2A2A2A"/>
</svg>
