<?xml version="1.0" encoding="utf-8"?>
<!-- Generator: Adobe Illustrator 28.3.0, SVG Export Plug-In . SVG Version: 6.00 Build 0)  -->
<svg version="1.1" id="Layer_1" xmlns="http://www.w3.org/2000/svg" xmlns:xlink="http://www.w3.org/1999/xlink" x="0px" y="0px"
	 viewBox="0 0 104 100" style="enable-background:new 0 0 104 100;" xml:space="preserve">
<style type="text/css">
	.st0{clip-path:url(#SVGID_00000052816618063564854000000007239533889969060023_);}
	.st1{fill:#E41E4F;}
	.st2{fill:#FFFDEE;}
</style>
<g>
	<defs>
		<rect id="SVGID_1_" width="104" height="100"/>
	</defs>
	<clipPath id="SVGID_00000035496318364428211180000013435987195911226506_">
		<use xlink:href="#SVGID_1_"  style="overflow:visible;"/>
	</clipPath>
	<g style="clip-path:url(#SVGID_00000035496318364428211180000013435987195911226506_);">
		<path class="st1" d="M104,50c-3.6-4.2-7.2-8.3-10.7-12.4c-0.4-0.5-0.7-1.5-0.7-2.1c0.4-4.9,0.8-9.9,1.3-14.8
			c0.1-1.2-0.1-1.8-1.5-2.1c-3.4-0.6-6.8-1.7-10.2-2.1c-3.9-0.5-6.4-2.2-8.1-5.9C72.5,6.9,70.2,3.6,68,0c-5,2.1-9.9,4.2-14.7,6.3
			c-1,0.4-1.8,0.4-2.7,0C45.8,4.2,40.9,2.1,36,0c-0.4,0.6-0.7,1.2-1,1.7c-2.4,4.1-4.8,8.3-7.3,12.4c-0.4,0.6-1.2,1.2-1.9,1.4
			c-3,0.8-6,1.4-9.1,2c-2.2,0.5-4.4,1-6.7,1.5c0,0.4,0,0.6,0,0.8c0.5,5,0.9,10,1.5,14.9c0.1,1.3-0.1,2.3-1.1,3.3
			c-2.3,2.4-4.4,5-6.6,7.5c-1.2,1.4-2.5,2.9-3.8,4.4c3.3,3.8,6.4,7.6,9.8,11.2c1.4,1.5,1.8,3,1.5,5.1c-0.6,4.9-1,9.7-1.4,14.8
			c5.4,1.2,10.5,2.3,15.7,3.5c0.7,0.2,1.7,0.8,2,1.5c2.6,4.3,5.1,8.6,7.6,12.9c0.5,0.9,1,1.1,2.1,0.6c2.5-1.3,5.1-2.5,7.8-3.4
			c2.3-0.8,4.6-2.6,6.9-2.6c2,0,4,1.5,6.1,2.4c3.3,1.4,6.6,2.8,9.8,4.1c0.2-0.2,0.3-0.2,0.4-0.3c1.8-3.1,4-6,5.4-9.3
			c2-4.6,5.2-6.5,10-7.1c3.5-0.4,6.9-1.5,10.4-2.3c-0.5-4.8-0.8-9.5-1.4-14.1c-0.3-2.5,0.1-4.3,1.9-6.2C97.9,57.3,100.9,53.6,104,50
			L104,50z"/>
		<path class="st2" d="M52,54.3L41.1,65.3c-1.2,1.2-3.1,1.2-4.3,0c-1.2-1.2-1.2-3.2,0-4.4L47.7,50L36.8,39c-1.2-1.2-1.2-3.2,0-4.4
			c1.2-1.2,3.1-1.2,4.3,0L52,45.6l10.9-10.9c1.2-1.2,3.1-1.2,4.3,0c1.2,1.2,1.2,3.2,0,4.4L56.3,50l10.9,10.9c1.2,1.2,1.2,3.2,0,4.4
			c-1.2,1.2-3.1,1.2-4.3,0L52,54.3z"/>
	</g>
</g>
</svg>
