<?xml version="1.0" encoding="utf-8"?>
<!-- Generator: Adobe Illustrator 28.3.0, SVG Export Plug-In . SVG Version: 6.00 Build 0)  -->
<svg version="1.1" id="Layer_1" xmlns="http://www.w3.org/2000/svg" xmlns:xlink="http://www.w3.org/1999/xlink" x="0px" y="0px"
	 viewBox="0 0 104 99" style="enable-background:new 0 0 104 99;" xml:space="preserve">
<style type="text/css">
	.st0{fill:#49A549;}
	.st1{fill:#FFFDEE;}
</style>
<path class="st0" d="M103.7,49.5c-3.6-4.2-7.2-8.2-10.7-12.3c-0.4-0.5-0.7-1.4-0.7-2.1c0.4-4.9,0.8-9.8,1.3-14.7
	c0.1-1.2-0.1-1.8-1.4-2c-3.4-0.6-6.8-1.7-10.2-2.1c-3.9-0.5-6.4-2.2-8.1-5.8C72.4,6.8,70,3.5,67.9,0c-5,2.1-9.8,4.1-14.7,6.2
	c-1,0.4-1.8,0.4-2.7,0C45.7,4.1,40.8,2.1,35.9,0c-0.4,0.6-0.7,1.2-1.1,1.7c-2.4,4.1-4.8,8.2-7.3,12.2c-0.4,0.6-1.2,1.2-1.9,1.4
	c-3,0.8-6,1.3-9.1,2c-2.2,0.5-4.4,1-6.7,1.5c0,0.4,0,0.6,0,0.8c0.5,4.9,0.9,9.9,1.4,14.8c0.1,1.3-0.1,2.3-1.1,3.3
	c-2.2,2.4-4.4,5-6.5,7.5C2.5,46.6,1.3,48,0,49.5c3.3,3.8,6.4,7.6,9.7,11.1c1.4,1.5,1.8,3,1.5,5c-0.6,4.8-1,9.6-1.4,14.6
	c5.3,1.2,10.5,2.3,15.6,3.5c0.7,0.2,1.7,0.8,2,1.5c2.6,4.2,5.1,8.5,7.6,12.8c0.5,0.9,1,1.1,2.1,0.5c2.5-1.3,5.1-2.4,7.8-3.4
	c2.3-0.8,4.6-2.6,6.8-2.6c2,0,4,1.5,6,2.3c3.3,1.4,6.6,2.8,9.8,4.1c0.2-0.2,0.3-0.3,0.4-0.3c1.8-3.1,4-6,5.4-9.2c2-4.5,5.2-6.5,10-7
	c3.5-0.4,6.8-1.4,10.4-2.2c-0.4-4.8-0.8-9.4-1.4-14c-0.3-2.5,0.2-4.3,1.9-6.1C97.7,56.7,100.6,53,103.7,49.5L103.7,49.5z"/>
<path class="st1" d="M45.4,57.2l23-23.4c0.5-0.6,1.2-0.8,1.9-0.8c0.7,0,1.4,0.3,1.9,0.8c0.5,0.6,0.8,1.2,0.8,2s-0.3,1.4-0.8,2
	L47.3,63.2c-0.5,0.6-1.2,0.8-1.9,0.8c-0.7,0-1.4-0.3-1.9-0.8L31.8,51.3c-0.5-0.6-0.8-1.2-0.8-2c0-0.8,0.3-1.4,0.8-2
	c0.5-0.6,1.2-0.8,1.9-0.8c0.7,0,1.4,0.3,1.9,0.8L45.4,57.2z"/>
</svg>
