<svg width="130" height="125" viewBox="0 0 130 125" fill="none" xmlns="http://www.w3.org/2000/svg">
<g style="mix-blend-mode:multiply" clip-path="url(#clip0_1394_424)">
<path d="M130 62.0738C125.459 56.8752 120.995 51.8251 116.627 46.6867C116.093 46.057 115.704 44.8656 115.768 44.0433C116.241 37.9182 116.811 31.797 117.437 25.6839C117.593 24.1677 117.329 23.4376 115.624 23.1288C111.356 22.3546 107.176 21.0229 102.888 20.4773C98.0305 19.8596 94.8897 17.7136 92.7758 13.1769C90.6498 8.61612 87.6975 4.44043 85.0541 0C78.8167 2.6434 72.7276 5.19454 66.6707 7.82591C65.4673 8.34737 64.4765 8.32331 63.2772 7.80185C57.2282 5.17048 51.1352 2.63137 44.9458 0.00802246C44.4685 0.78219 44.0393 1.44805 43.6382 2.12595C40.5977 7.2483 37.6093 12.3987 34.4805 17.4689C34.0233 18.211 32.9523 18.9852 32.1059 19.2018C28.3554 20.1524 24.5487 20.8865 20.7661 21.7248C17.9864 22.3385 15.2146 22.9884 12.4388 23.6262C12.4388 24.1235 12.4188 24.3843 12.4388 24.645C13.0365 30.8303 13.6061 37.0156 14.2599 43.1929C14.4324 44.8295 14.0874 46.0931 12.9282 47.3446C10.1123 50.3811 7.45287 53.5539 4.72924 56.6747C3.16887 58.4637 1.6085 60.2567 -0.00401306 62.1019C4.16366 66.8753 8.05054 71.5523 12.2062 75.9807C13.9992 77.8901 14.4324 79.7553 14.1276 82.2623C13.3895 88.2832 12.9362 94.3361 12.3506 100.578C19.0574 102.046 25.5235 103.41 31.9535 104.926C32.868 105.142 34.0193 105.973 34.5126 106.771C37.7738 112.05 40.9226 117.405 44.0393 122.768C44.7092 123.923 45.3069 124.148 46.6747 123.454C49.8556 121.849 53.1087 120.405 56.4741 119.238C59.3221 118.251 62.1941 116.005 65.0622 115.993C67.5812 115.981 70.1123 117.862 72.6354 118.921C76.7429 120.646 80.8504 122.375 84.8616 124.059C85.1344 123.823 85.2627 123.759 85.3269 123.65C87.6294 119.815 90.365 116.161 92.1099 112.09C94.5568 106.39 98.6562 103.999 104.577 103.337C108.909 102.856 113.149 101.524 117.601 100.538C117.036 94.5688 116.643 88.7726 115.884 83.0245C115.479 79.9438 116.065 77.6534 118.311 75.339C122.387 71.1392 126.073 66.5584 129.992 62.0618L130 62.0738Z" fill="#DD2D59"/>
<path d="M82.2824 46.5186L49.2579 79.543" stroke="#E7E4D8" stroke-width="8.02246" stroke-miterlimit="10"/>
<path d="M49.2579 46.5186L82.2824 79.543" stroke="#E7E4D8" stroke-width="8.02246" stroke-miterlimit="10"/>
</g>
<defs>
<clipPath id="clip0_1394_424">
<rect width="130" height="124.071" fill="white"/>
</clipPath>
</defs>
</svg>
