<?xml version="1.0" encoding="UTF-8"?>
<svg id="Layer_2" data-name="Layer 2" xmlns="http://www.w3.org/2000/svg" version="1.1" viewBox="0 0 324.1 309.3">
  <defs>
    <style>
      .cls-1 {
        fill: #000;
        stroke-width: 0px;
      }

      .cls-2 {
        fill: none;
        stroke: #e7e4d8;
        stroke-miterlimit: 10;
        stroke-width: 20px;
      }
    </style>
  </defs>
  <g id="Layer_1-2" data-name="Layer 1-2">
    <g>
      <path class="cls-1" d="M324.1,154.8c-11.3-13-22.5-25.6-33.3-38.4-1.3-1.6-2.3-4.5-2.1-6.6,1.2-15.3,2.6-30.5,4.2-45.8.4-3.8-.3-5.6-4.5-6.4-10.6-1.9-21.1-5.2-31.8-6.6-12.1-1.5-19.9-6.9-25.2-18.2-5.3-11.4-12.7-21.8-19.2-32.8-15.6,6.6-30.7,12.9-45.8,19.5-3,1.3-5.5,1.2-8.5,0C142.7,12.9,127.5,6.6,112.1,0c-1.2,1.9-2.3,3.6-3.3,5.3-7.6,12.8-15,25.6-22.8,38.2-1.1,1.8-3.8,3.8-5.9,4.3-9.3,2.4-18.8,4.2-28.3,6.3-6.9,1.5-13.8,3.2-20.8,4.7,0,1.2,0,1.9,0,2.5,1.5,15.4,2.9,30.8,4.5,46.2.4,4.1-.4,7.2-3.3,10.3-7,7.6-13.6,15.5-20.4,23.3-3.9,4.5-7.8,8.9-11.8,13.5,10.4,11.9,20.1,23.6,30.4,34.6,4.5,4.8,5.5,9.4,4.8,15.7-1.8,15-3,30.1-4.4,45.7,16.7,3.7,32.8,7.1,48.9,10.8,2.3.5,5.2,2.6,6.4,4.6,8.1,13.2,16,26.5,23.8,39.9,1.7,2.9,3.2,3.4,6.6,1.7,7.9-4,16-7.6,24.4-10.5,7.1-2.5,14.3-8.1,21.4-8.1,6.3,0,12.6,4.7,18.9,7.3,10.2,4.3,20.5,8.6,30.5,12.8.7-.6,1-.8,1.2-1,5.7-9.6,12.6-18.7,16.9-28.8,6.1-14.2,16.3-20.2,31.1-21.8,10.8-1.2,21.4-4.5,32.5-7-1.4-14.9-2.4-29.3-4.3-43.7-1-7.7.5-13.4,6-19.2,10.2-10.5,19.4-21.9,29.1-33.1h0Z"/>
      <line class="cls-2" x1="231.4" y1="117.6" x2="151" y2="198.1"/>
      <line class="cls-2" x1="157.9" y1="205.3" x2="112.7" y2="160.1"/>
    </g>
  </g>
</svg>