<?xml version="1.0" encoding="UTF-8"?>
<svg id="Layer_1" data-name="Layer 1" xmlns="http://www.w3.org/2000/svg" version="1.1" viewBox="0 0 876.5 279.8">
  <defs>
    <style>
      .cls-1 {
        isolation: isolate;
      }

      .cls-2 {
        fill: #1f1f1f;
      }

      .cls-2, .cls-3, .cls-4 {
        stroke-width: 0px;
      }

      .cls-3 {
        fill: #2a2a2a;
      }

      .cls-5 {
        mix-blend-mode: multiply;
      }

      .cls-4 {
        fill: #ffe600;
      }
    </style>
  </defs>
  <g class="cls-1">
    <g id="Layer_2" data-name="Layer 2">
      <g id="set">
        <path class="cls-4" d="M484.3,0c-10.2,8.8-27,14.5-46.1,14.5s-35.9-5.8-46.1-14.5H0v279.8h392.1c10.2-8.8,27-14.5,46.1-14.5s35.9,5.8,46.1,14.5h392.1V0h-392.2Z"/>
        <g>
          <path class="cls-2" d="M125.2,130.1c-6.4,1.4,5.3,5.4,6.9,5.5,1,0,1.9.1,2,1.4.6,1.9,3.7.6,4,3.2,13.1,19.9-.6,49.6-25.3,49.8-1.4-1.3-2,1-3.6.5-2.2-1.2-3.6.9-5.4,1.1-3.3-1.3-7.2-.1-10.6-.5-2.3.1-4.9-1.2-7.4-.3-8.3,0-24.9,3.8-20.9-10.1-1.7-8.4,0-16.7-.8-25.1.7-3.3.6-6.9-.2-9.6.9-2.8-.1-5.9.5-8.7-.1-15.5-.2-33.9.1-49.1-1-19,4.8-11.4,19.4-13.1,2.1-1,4,2.1,5.9-.3,1.3.1,2.6.7,3.7-.4,1,.5,1.6,1.6,3,.8,8.8-1,17.9,2.7,26,4.4,3.1,2.7,8.1,2.5,10.3,7.2,5.5,3.9,6.9,10.2,7.8,16.3,1.2,11.1-2.7,25.5-15.5,27.2h0ZM92.7,83.5c2.7-1.2-2.4-2.3-1.2-.5.3.2.7.3,1.2.5ZM111.1,154.2c.3-6.5-7-11.6-13.4-10.8-4,2.3-1.2,8.2-1.7,11.7-.4,1.1-1.6,1.6-.6,2.8,1.6,2.1-1.4,4.2.8,6.2.5.6,0,2.4,1.2,2,7.3,0,13.2-3.8,13.5-11.9h0ZM109.2,105.5c.1,0,.2,0,.3,0-1.3-3.4-13.3-9.3-13.6-3.2.8,6.1-1.8,12.1,1,17.3,8.4,2.8,15.2-5.8,12.3-14h0ZM100.4,82.7c-.6,1.1-1.1,2.6.4,2.6,1.6-.7.4-1.6-.4-2.6ZM109.8,94.2c-.5.9-.6,2.2.8,2,1.7,0,.7-2.4-.8-2ZM115.7,89c-.5-.5-.6-.6-1-.1.3.6.5.5,1,.1ZM117.8,94.7c-.5-.9-.7-3.1-2-2.5-1.7,1.3,1,5.7,2,2.5ZM124.4,111.1c.4-.6.5-.7,0-1.1-.5.4-.4.6,0,1.1ZM132.9,101.3c-1-.8-1.7-1.4-2.2-.3.4,1,1.4.8,2.2.3ZM131.5,107.3c.5-1.1.7-1.2,0-1.9-.7.7-.5.8,0,1.9Z"/>
          <path class="cls-2" d="M186.7,163.2c11.9.3,14.4-3.7,15.6,10.3-1.3,4.1,2.2,16.9-4.2,16.3-5.5,2.4-11.9-.8-17.5,1.4-7.1-.2-15.4-1.5-22.5-.2-14.9,1.3-10.2-6.1-11-17-1-18.4.6-49.3,0-68.9-1.1-7.5.1-16.4,0-24.8-1.3-2.8,4.6-6.9,6.3-4.9,4.2-.1,8.1-1.3,12.3.1,14.9-5.2,13.3,8.3,11.9,18.5.5,10.1,1.2,20.2.7,30.4,0,2.9-.9,6-.2,8.5.4.9,1.3,2.1-.1,3.2.8,3.9-.8,7.9.5,11.6-.3,7.8-3.2,15.8,8.1,15.4h0ZM163,106.1c0-1.1-.2-1.3-1.1-1.2-3.8.4.6,5.4,1.1,1.2ZM168,91.6c.2-.9-2.1-1.7-2.4-.6-.3.8,2,1.6,2.4.6ZM167.8,180.6c-2.4,0-.2,2.1.6.3-.2-.1-.5-.3-.6-.3ZM168.7,161.4c-1.6,1-1.4,4.6-.3,4.8,2.8-.9,3.5-3.9.3-4.8ZM168,113.3c.6-.9,1.6-1.3.4-1.8-1.1,0-.8.9-.4,1.8ZM171.9,107.2c-.5-.5-.8-.8-1.1-1.2-.4.4-.7.7-1.1,1.1.8.8,1.2,1.1,2.1.1h0ZM172.5,176.6c-1.1.9-2,2-.1,2.4,1.8-.1,1.3-1.4.1-2.4Z"/>
          <path class="cls-2" d="M246.3,192.5c-34.3,2.6-51.7-35.3-47.5-65.5.6-2.3-1.1-3.9.5-6,.6-2.4-.5-4.7.6-7.1,2.8-5.1.8-12.1,5.3-16.2,6.8-13.7,21.6-26.6,37.4-25.2,57.2-1.2,58.9,114.9,3.7,119.9h0ZM242.7,102c-16.3-1.4-15.7,60.3-1.6,61.4,17.2,3.2,17.1-62.9,1.6-61.4ZM270.7,149.8c.4-.3.8-.6,1.1-.8-.5-.8-1.1,0-1.8.2.2.2.4.3.7.6h0Z"/>
          <path class="cls-2" d="M353.2,108c-13.2,7.8-9.9.6-18.2-6.8-7-3-8.2,1.6-11.8,5.7-2.8,4.4-2.6,10.6-3,15.7-2.8,1.8,0,4.1-1.1,5.9-.4.4-1,.9-.4,1.5,1.5,6.9-1.4,15.5,1.5,22.6.7,6.1,6.8,16.7,14.2,11.8,1.9-2.7,6.6-4.1,5.6-7.6,1.5-4.4,2-5.4-1.6-8.6-3,1.1-4.4-1-7.1-1.9-1.2-5.8-2.1-13.4-.6-19.2.5-4,5.5-2.4,8.1-3.2,11.6,1.2,23.6-2.7,34.7,1.7,1.5,7.1-1.3,14.4-2,21.9-2,31.1-17.1,48.5-49,44.8-18.2-3.7-28.7-19.8-33.9-36.6-.9-7.6-2-16.9-1.2-24.4-.6-6.9-.3-14.2,2.1-20.5-.8-4,2.3-7.5,3.7-10.8,1-1.3-.7-3.7,1.7-4.4,3.5-6.1,7.7-13.2,14.8-16.4,12.9-8.7,37.2-9.9,47.6,3.9,14,13.4,18.4,19.6-4.2,25.2,0,0,0-.2,0-.3h0ZM306.3,125.2c.4-2.2-4.3-4.5-3.4-1,.6,2.2,3.1,5.4,3.4,1ZM308.9,101.5c.5-.4.9-.7,1.3-1.1-1-.7-1.6-.8-2.4.3.3.2.6.4,1,.8h0ZM314.9,85.3c-2.8,1.2,1,4,2.4,2.5.8-1.6-1.4-1.7-2.4-2.5ZM317.7,97.8c-.7-.8-1.5.4-.8.8.2-.2.4-.5.8-.8ZM318.1,90.1c-.4-.5-.8-.7-1-.1.1.6.5.5,1,.1ZM328.9,181.1c-2.3-.2-3,4.1-.5,4.6,2.7.1,3.3-4.2.5-4.6ZM337.8,93.1c4.3-.8-3.4-5.6-2.2-1.2.5.8,1.2,1.4,2.2,1.2ZM344.2,180.1c-1,.9-.5,2.8,1.1,2.5,2.4-.4,1.5-2.8-1.1-2.5ZM346.6,171.4c-1-.6-1.1-.7-1.9-.1.6.8.7.6,1.9.1ZM351.4,86.6c-1.1,1.1-.4,2.4.9,1.4-.2-.4-.5-.8-.9-1.4Z"/>
          <path class="cls-2" d="M394.6,153.3c-4.9,0-9.9,0-14.8,0-2.4,0-3.9-1.4-3.8-3.9.1-5.2,0-10.4,0-15.6s0-.9,0-1.3c.3-1.1.6-2,2-2.3.7-.2,1.5-.4,2.2-.4,7.5,0,15,0,22.5,0,1.2,0,2.3.2,3.5,0,1.2-.2,2.4,0,3.6,0s1.1,0,1.7.3c1.4.6,2.1,1.7,2.2,3.1,0,.5,0,1,0,1.5v14.1c0,.7,0,1.3-.2,2-.6,1.7-1.3,2.4-3.1,2.4-4,0-8,0-12,0h-3.8,0Z"/>
          <path class="cls-2" d="M424.3,74.2c3.8,1.8,8.8-.6,13.1,1.2,2.4.7,4.9-1.9,7.2,0,.9.9,3.8-.8,4,1.2,2.9,4.3,1.3,9,1.3,13.9,2.1,7.1,0,14.7.3,22.1,1.5,2-1.5,3.9-.1,5.7,1.3,1.2-1.6,2.8-.4,4.4,1.6,6.2-.3,11.5,1.3,17.6-1.1,4,0,9.4-1,13.6-1.1,1,.5,2.3.7,3.4,1.2,1.5-1.8,1.9-.6,3.4.3,5.7.3,10.7.2,16.7-1.1,3.8,2.3,11.9-3.2,12.5-4.7,1.4-10.4.6-15.6.5-10.2,2.6-14.2-2.1-12.1-12.1-.6-3.5-1.1-7.5-.2-11.1,0-1.6-1.8-3.4.2-4.8.3-1.8-1.4-4.7,0-6.7.6-1.3-.9-2.2,0-3.6-1-7.4-.4-15.2-.4-22.6,1.7-2.6-1.1-5.2,0-7.5,2.1-1.6-.3-3.1.3-4.9.9-.8.6-1.4-.2-2.1.6-8.6-.3-18.5.3-27.5-1.2-2.5,1-4.7-.6-7.3.8-1,.4-2.6,1.2-3.4,2,.1,2.7-2.1,4.5-2.6h0ZM428.8,146c-.3-.3-.5-.5-.7-.7-.6.5-.6.9,0,1.4.2-.2.4-.4.7-.7h0ZM428.1,157.1c.4-.5.5-.9,0-1-.5.2-.4.6,0,1ZM431.1,162.7h0c2,.8,7.7-1.7,3.7-3.1-2.3,1.1-5.8.1-6.7,2.8,1,.3,2,.3,3,.3ZM434.7,153.1c-.3,2.9,3.7,3.2,4.1.7.2-2-4.1-3.8-4.1-.7ZM440.2,162.9c-1.1.9-2.1,1.9-.2,2.4,1.8,0,1.3-1.4.2-2.4Z"/>
          <path class="cls-2" d="M475.3,182.1c1.4-3.2-1.8-5.3-1.7-8-.7-4.4-2.5-8.5-2.3-12.8-2.2-2.9-1.1-7.3-2.5-10.7-1.7-5.5-4.2-11.9-4.3-18-1.1-4.9-2.5-10.3-3.4-14.7-1.1-3.1-.6-7.1-2.5-10.6-2.7-5-.8-12.2-4.2-16.9.6-2-1.5-3.1-.6-4.7,1.3-2.2-1.7-3-1.3-5-2.2-10,12.7-4.5,18.4-5.8,1.9-1.1,3.1.4,5,.4,1.1-.1,2.5-1.6,3.5-.4,4.9,2.2,6.2,4.4,5.9,9.8,4.5,13.8,4.3,29.1,7,42.8.3,3.5,1.1,7.5,1.7,10.9,0,.5-.7,1.2-.4,1.7,2.3,1.7-.5,5.8,1.8,6.8.8-8.2,1.4-17.6,3.2-26.8,2-8.8,3.9-18.8,4.8-27.3,3.8-5.4-.4-19.7,10-18.2,8,2.5,32.5-6.8,25.1,9.9-1.9,14.2-8.7,27.2-11.4,42,.6,3-2.3,5-2.4,8.1-.1,2.5-.3,4.4-1.3,6.6-.3,1.7-.5,3.7-1.1,5.1-3.1.9,0,3.8-1.7,5-1.7,7.4-5.2,16.1-6.7,24.4-.8,2.6-.9,5.6-2.5,8.2,1,1.8-.8,2.4-1.2,3.8-.9,2.6-4.9,2.8-7.1,2.5-9.1-.8-25.2,5.4-27.2-8h0Z"/>
          <path class="cls-2" d="M572,151.1c-4.2,24.6,32.2-.8,26.7,22.9-.8,5.3,3.6,14.2-3.3,16.3-1.8,1.2-3.3.2-5.1.9-2.9.8-5.5-1.1-8.5-.4-11.1-.4-21.8-.7-32.3.3-7.7.2-9.5-3.1-8.3-10.4-.2-5.1-1.4-10.6,0-15.7-1.5-4.7,0-10.8-.1-15.8-.1-3.3-1.6-7.4,0-10.7,0-1.6-1.7-3,0-4.5.7-10.8-1.2-21.6,0-32.4,1-33.2-5.4-24.9,26.1-26.8.9.6,1.5.4,2.3-.2,1.3-.3,2.2,1.6,3.5.5,3.1-.6,6.8-.4,10.2,0,4.8.6,14.6-2.3,15.3,4.4,1,4.5-.5,8.8.6,13.4,1.9,4.5-.5,8.9-5.1,9.1-6,1.8-14.3-2-19.7.8-2.8,2.2-2.1,5.5-1.8,8.6-1.1,4.2,1.5,7.6,5.8,7.6,3.5-.3,7.5,0,10.5.6,4.1-.9,2.7-1.3,5.9,1.3,3.2,3,1.7,17.4.7,22.2-5.6,6-22.6-3.2-23.1,8.1h0ZM554.6,154.8c-.2-1.3-1.7-1-2-.3.2,1.1,1.5,1.2,2,.3ZM560.5,158.6c1.8.2,1.5-2.4.2-2.5-3-1.1-3,2.9-.2,2.5ZM565.2,93.2c-.3,2.9,3.5,2.2,3.6,0,0-2.1-3.5-2.1-3.6,0Z"/>
          <path class="cls-2" d="M635.3,152.4c-1.7,3.1,1.1,6.3-.2,9.2-2,1.7,1.1,3.5,0,5-.6.6-.6,1.1,0,1.7-1.5,6.4,3.7,17.6-3.8,21.6-1.8,0-3.3,1.2-5.1.2-1.5,1.7-2.4-.4-4-.2-1.1-.3-1.6,1-2.5.9-1.5-.9-2.9.7-4.2-.3-2-1.4-4,1.6-6-.4-9.6,1.4-3.7-18.7-4.8-24.2-.9-5.1-.7-10.9-.8-16.3.1-1.4-1.4-3.6.6-4.6.5-.2.6-.7.2-1.3-2-9.4,1.2-20.2-.7-29-.3-1.7,0-3.8.5-5.6,0-1.4-1.9-3.2-.3-4.6-.8-4.5.8-9.6,0-13.9-.6-1.1-1.2-2.6.4-3.6,0-1.7-1.5-3.3-.5-5.3.4-7.4,4.5-8.3,11.5-7,5.2-.5,11.4.4,16.2-1.3,4.1,2.8,8.8-.6,13,2.7,25-1.4,41.3,21.9,35.3,44.4-2,6.4-6.1,11.8-11.2,16.7-8.7,5.7-2.4,8.7-1.6,14.9,2.8,4.1,4.7,8.5,7.4,12.6.6,1.6-.7,3.4,1.4,4.3,2,.6-.5,2.9,1.4,3.3,2.9,2.5,3.3,8.4,5.6,11.8,2.1,1.1.8,3.1,1.4,4.5,0,2.4-3.3.6-4.6,1.5-4.7.4-10.1-1-14.7.4-15.1.4-12.1-2.3-18-13.4,1.1-2.9-3.4-4.3-1.9-7.1-.7-1.5-2.8-2.4-1.5-4.5-3.2-6.1-5-13.7-7.8-20-.7,2.1-.5,4.5-.8,6.7,0,0,.1,0,.2,0h0ZM616.2,85.1c4.5.4-.3-3.4-1.9-1.3.3.9,1.2,1.5,1.9,1.3ZM637.9,128.8c10.3-1.4,15.6-13.9,9.6-22.6-3.2-3.5-6.9-4.6-11-5.1-2-.4-.2,3.9-.7,4.9-1.3,1.7.2,3.1-.2,4.8-1.5,1.8.3,3.5-.5,5.4.5,4.1-1.5,9.8,2.7,12.5h0Z"/>
          <path class="cls-2" d="M742.6,83.6c.9,1.6-.4,3.9-.5,5.7,2.2,1.7-.7,3.2,0,5.1.5,3,2.8,19.6-2.5,16.2-2.5-3.2-6.4-7.3-10.3-8.3-1.5-2.7-4.3.7-6-1.2-.4-.6-.8-.3-1.2,0-23.2,11.6,26.9,23.6,24.1,51.1-1.2,1.4-.7,2.9-.2,4.3-1.3,1.6,0,3.5-1.2,5.3-.8,5-1.8,12.2-6.2,15.1-3.8,5.1-8.4,12.1-15.7,12.7-10.5,6.1-24.3,1.6-34.7-1.8-5.3-4.2-1.5-13.3-2.8-19.5.3-4.5-1.8-11.4,1.2-14.4,2.5-.9,4,3.6,6.2,4.6,6.8,3.3,13.6,8.1,20.4,2.5,7.8-16.1-32-20.8-28.1-55.2-.4-1.3,1.5-2,.5-3.4-.3-.6.4-1,.7-1.5,2.1-2.1.4-5.9,2.6-8.1,3.1-7,9.3-13.6,17-16.5,7.3-5.5,35.7-5.4,36.4,7.2h0ZM699.5,118.6c-.9,1.1,0,2.4,1,1.3-.3-.4-.5-.7-1-1.3ZM715.9,126.8c1.4-.7,1.8-1.3.9-2.6-2.1-.2-3.4,1.4-.9,2.6ZM723.3,94c-1-.4-2.2-1.3-2.2.2.3,1.4,1.3.4,2.2-.2ZM724.2,144.7c-.1-.3-.2-.7-.3-1.1-.5.8-1,1.9-.5,2.8.7-.3.7-1,.9-1.7h0Z"/>
          <path class="cls-2" d="M781.5,151.1c-4.2,24.6,32.2-.8,26.7,22.9-.8,5.3,3.6,14.2-3.3,16.3-1.8,1.2-3.3.2-5.1.9-2.9.8-5.5-1.1-8.5-.4-11.1-.4-21.8-.7-32.3.3-7.7.2-9.5-3.1-8.3-10.4-.2-5.1-1.4-10.6,0-15.7-1.5-4.7,0-10.8-.1-15.8-.1-3.3-1.6-7.4,0-10.7,0-1.6-1.7-3,0-4.5.7-10.8-1.2-21.6,0-32.4,1-33.2-5.4-24.9,26.1-26.8.9.6,1.5.4,2.3-.2,1.3-.3,2.2,1.6,3.5.5,3.1-.6,6.8-.4,10.2,0,4.8.6,14.6-2.3,15.3,4.4,1,4.5-.5,8.8.6,13.4,1.9,4.5-.5,8.9-5.1,9.1-6,1.8-14.3-2-19.7.8-2.8,2.2-2.1,5.5-1.8,8.6-1.1,4.2,1.5,7.6,5.8,7.6,3.5-.3,7.5,0,10.5.6,4.1-.9,2.7-1.3,5.9,1.3,3.2,3,1.7,17.4.7,22.2-5.6,6-22.6-3.2-23.1,8.1h0ZM764,154.8c-.2-1.3-1.7-1-2-.3.2,1.1,1.5,1.2,2,.3ZM770,158.6c1.8.2,1.5-2.4.2-2.5-3-1.1-3,2.9-.2,2.5ZM774.7,93.2c-.3,2.9,3.5,2.2,3.6,0,0-2.1-3.5-2.1-3.6,0Z"/>
        </g>
        <g class="cls-5">
          <g>
            <path class="cls-3" d="M66.6,237.8h0c0-1.8,2.4-3.3,5.4-3.3h732.5c3,0,5.4,1.5,5.4,3.3h0c0,1.8-2.4,3.3-5.4,3.3H72c-3,0-5.4-1.5-5.4-3.3Z"/>
            <path class="cls-3" d="M66.6,42h0c0-1.8,2.4-3.3,5.4-3.3h732.5c3,0,5.4,1.5,5.4,3.3h0c0,1.8-2.4,3.3-5.4,3.3H72c-3,0-5.4-1.5-5.4-3.3Z"/>
          </g>
        </g>
      </g>
    </g>
  </g>
</svg>