<?xml version="1.0" encoding="UTF-8"?>
<svg id="Layer_1" data-name="Layer 1" xmlns="http://www.w3.org/2000/svg" version="1.1" xmlns:xlink="http://www.w3.org/1999/xlink" viewBox="0 0 258 228">
  <defs>
    <style>
      .cls-1 {
        fill: #ea7394;
      }

      .cls-1, .cls-2, .cls-3, .cls-4, .cls-5, .cls-6, .cls-7, .cls-8, .cls-9, .cls-10, .cls-11, .cls-12, .cls-13, .cls-14, .cls-15, .cls-16, .cls-17, .cls-18, .cls-19, .cls-20, .cls-21, .cls-22, .cls-23, .cls-24, .cls-25 {
        stroke-width: 0px;
      }

      .cls-2 {
        fill: #b39a7e;
      }

      .cls-3 {
        fill: #b65973;
      }

      .cls-4 {
        fill: #000;
      }

      .cls-26 {
        fill: #9de29d;
        stroke: #2a2a2a;
      }

      .cls-5 {
        fill: #040203;
      }

      .cls-6 {
        fill: #8c4458;
      }

      .cls-7 {
        fill: #020101;
      }

      .cls-8 {
        fill: #5c2d3a;
      }

      .cls-9 {
        fill: none;
      }

      .cls-10 {
        fill: #645545;
      }

      .cls-11 {
        fill: #050203;
      }

      .cls-12 {
        fill: #ec7495;
      }

      .cls-13 {
        fill: #010000;
      }

      .cls-14 {
        fill: #060304;
      }

      .cls-15 {
        fill: #010101;
      }

      .cls-16 {
        fill: #ffdbb4;
      }

      .cls-17 {
        fill: #de6d8c;
      }

      .cls-27 {
        clip-path: url(#clippath);
      }

      .cls-18 {
        fill: #cfb292;
      }

      .cls-19 {
        fill: #efefef;
      }

      .cls-20 {
        fill: #eb7495;
      }

      .cls-21 {
        fill: #030102;
      }

      .cls-22 {
        fill: #010001;
      }

      .cls-23 {
        fill: #010100;
      }

      .cls-24 {
        fill: #eb7494;
      }

      .cls-25 {
        fill: #2a2a2a;
      }
    </style>
    <clipPath id="clippath">
      <path class="cls-9" d="M1.1,40.9h256v165.8c0,10.6-6.7,19.3-15,19.3H16.1c-8.3,0-15-8.6-15-19.3V40.9Z"/>
    </clipPath>
  </defs>
  <rect class="cls-26" x="1" y="83" width="256" height="144" rx="15" ry="15"/>
  <path class="cls-25" d="M155.6,141.4c-.3-1-.9-2.1-2.9-2.1s-3.3,1.8-3.3,4.5.9,4.5,3.4,4.5,2.8-1,2.9-2.4h-2.7v-2.6h6.4v7.6h-2.6l-.4-1.8h0c-.7,1.3-2,2.1-4.1,2.1-4.1,0-6.5-3.2-6.5-7.5s2.4-7.5,6.9-7.5,6.1,2.3,6.4,5.1h-3.6.1ZM161.2,151v-14.3h6.7c3.2,0,5.1,1.5,5.1,4.2s-1.1,3.1-2.9,3.5h0c3.6.7,2.3,6.2,3.1,6.4v.2h-3.7c-.7-.6.6-5-2.5-5h-2.2v5h-3.6ZM164.8,139.6v3.4h2.4c1.4,0,2.2-.5,2.2-1.7s-.8-1.7-2.2-1.7h-2.4ZM183.2,148h-4.9l-.9,3h-3.6l5.2-14.3h3.6l5.2,14.3h-3.6l-.9-3h-.1ZM179.1,145.3h3.3l-1.6-5.3h0l-1.6,5.3h0ZM188.7,151v-14.3h6.9c3,0,4.8,1.6,4.8,4.6s-1.9,4.6-4.8,4.6h-3.3v5.2h-3.6,0ZM192.3,139.6v3.2h2.6c1.2,0,2-.4,2-1.6s-.8-1.6-2-1.6h-2.6ZM201.8,136.7h3.6v5.6h4.9v-5.6h3.6v14.3h-3.6v-5.8h-4.9v5.8h-3.6v-14.3ZM215.9,136.7h3.6v14.3h-3.6v-14.3ZM230.6,142c-.3-1.6-1-2.7-2.9-2.7s-3.2,1.8-3.2,4.5.8,4.5,3.2,4.5,2.6-1.1,2.9-2.7h3.6c-.3,3.4-2.4,5.7-6.3,5.7s-6.9-3.2-6.9-7.5,2.4-7.5,6.9-7.5,6,2.3,6.3,5.6h-3.6ZM146.4,171v-14.3h6.3c4,0,6.4,2.6,6.4,7.2s-2.2,7.1-6.2,7.1h-6.5ZM150,159.6v8.4h2.4c2.2,0,3.1-1.6,3.1-4.2s-.9-4.2-3.1-4.2h-2.4ZM164.1,162.2h6.2v2.9h-6.2v2.9h7.4v2.9h-11v-14.3h10.8v2.9h-7.2v2.7ZM179,162.1c2.7.7,5.5,1.6,5.5,4.7s-2.1,4.5-5.7,4.5-6.5-1.8-6.5-5h3.6c0,1.5,1.3,2.1,2.9,2.1s2.1-.5,2.1-1.2c0-1.1-1.5-1.4-3.6-2-2.5-.7-4.6-1.8-4.6-4.4s2.4-4.3,5.5-4.3,6,1.8,6.1,4.7h-3.6c-.2-1.1-1.1-1.7-2.5-1.7s-1.9.3-1.9,1.1.9,1.2,2.7,1.7v-.2ZM185.9,156.7h3.6v14.3h-3.6v-14.3ZM200.8,161.4c-.3-1-.9-2.1-2.9-2.1s-3.3,1.8-3.3,4.5.9,4.5,3.4,4.5,2.8-1,2.9-2.4h-2.7v-2.6h6.4v7.6h-2.6l-.4-1.8h0c-.7,1.3-2,2.1-4.1,2.1-4.1,0-6.5-3.2-6.5-7.5s2.4-7.5,6.9-7.5,6.1,2.3,6.4,5.1h-3.6.1ZM206.4,171v-14.3h3.6l5,8.5h0v-8.5h3.6v14.3h-3.6l-5-8.5h0v8.5h-3.6ZM224.2,162.2h6.2v2.9h-6.2v2.9h7.4v2.9h-11v-14.3h10.8v2.9h-7.2v2.7ZM233.1,171v-14.3h6.7c3.2,0,5.1,1.5,5.1,4.2s-1.1,3.1-2.9,3.5h0c3.6.7,2.3,6.2,3.1,6.4v.2h-3.7c-.7-.6.6-5-2.5-5h-2.2v5h-3.6ZM236.7,159.6v3.4h2.4c1.4,0,2.2-.5,2.2-1.7s-.8-1.7-2.2-1.7h-2.4Z"/>
  <g class="cls-27">
    <g>
      <path class="cls-4" d="M6.5,256c-.5,1-1.1,1.4-2,1.3-.9-.2-1.5-.9-1.6-1.9,0-.5,0-1,0-1.4-.5-.3-1-.2-1.5-.3-7-1.4-12-5.4-15.3-11.8-1.7-3.4-2.8-7.1-3.4-10.9-.9-5.5-1-11.1-.6-16.6.7-10.9,3.1-21.5,6.5-31.9,2.6-7.9,5.7-15.5,9.8-22.8,1.9-3.4,4-6.6,6.5-9.5.2-.3.4-.5,0-.8-4.2-5.5-4.6-11.6-2.3-17.9,1.5-4.1,3.9-7.6,6.9-10.8,1.1-1.2,2.3-2.4,3.4-3.5.6-.6,1.2-1.2,1.7-1.9q.5-.6.1-1.2c-1.3-2.4-2.3-4.9-2.9-7.6-.9-4.1-1.2-8.2-.7-12.3,1.3-11.4,5.9-21.4,13.2-30.1,2.8-3.4,5.9-6.5,9.3-9.4,4.1-3.4,8.9-5,14.1-5.2,2.6,0,5.2,0,7.8.5h0c1.4.7,2.8.4,4.3,0,6.8-1.2,13.4-.6,19.6,2.6,5.3,2.7,9.2,6.8,12.1,11.9,1.7,2.9,2.8,6,4.1,9,3.3,8.3,6.3,16.6,8.8,25.1.8,2.8,1.6,5.5,2.2,8.4.5,2.8.6,5.5-.4,8.2-.6,1.5-1.4,2.8-2.3,4s-1.9,2.3-3,3.4-2.1,2.3-3.2,3.5c-.7.8-1.4,1.7-1.9,2.6-1.3,2.3-1.5,4.6-.5,7s1.2,2.4,1.9,3.5c.7,1,1.3,1.9,2,2.9,1.8,2.6,3,5.6,3.5,8.8,0,.3,0,.6.3.8,3.2,3.2,5.3,7.1,7.1,11.2,1.9,4.5,3.3,9.1,4.7,13.8,1.3,4.4,2.6,8.7,4.3,12.9.7,1.7,1.5,3.3,2.5,4.7,1.2,1.7,2.4,3.5,3.4,5.4.8,1.5,1.5,3,1.9,4.7.7,2.8.3,5.4-1.2,7.9-.4.6-.3,1,0,1.7,1.2,3.1,1.8,6.3,1.7,9.7-.2,3-1,5.8-2.3,8.5-1.2,2.5-2.6,4.9-4.2,7.2-1.5,2.4-3.3,4.6-4.9,6.9-.8,1.1-1.7,2-3,2.6-.3.1-.5.3-.7.6-.2.2,0,.5,0,.8,0,1,.3,1.8,1.1,2.4,0,0,.2.2.3.3.5.8.5,1.6,0,2.2-.5.6-1.6.9-2.4.5-.7-.3-1.1-.9-1.6-1.5-.7-.5-.7-1.2-.7-2s0-.7-.7-.5c-4.7,1.6-9.5,1.3-14.2.7-8.6-1.2-16.8-3.8-24.9-6.7-3.5-1.3-7.1-2.5-10.5-4.1-2.4-1.1-4.8-2-7.1-3.3-1.1-.6-2.3-1.1-3.5-1.3-1.1-.2-2,0-3,.4-4.6,2-8.9,4.4-13.2,6.8-6.5,3.5-13,6.9-20.1,8.8-1.5.4-3,.8-4.6,1-.6,0-.9.3-.7,1,.2.4,0,.8-.2,1.2h0l.2-.3Z"/>
      <path class="cls-12" d="M10.8,224.7c-.4.9-.8,1.8-1.2,2.8-.4.9-.7,1.8-.7,2.8s.2,1.7.7,2.5c.5.7,1.2,1,2.1.8.6-.1,1.2-.4,1.7-.7,1-.6,1.8-1.4,2.6-2.2.2-.2.4-.5.7-.6.3.2.2.6.3.8.6,1.5,1.6,2.4,3.2,2.5,2,.1,3.8-.6,5.2-2.1,2-2.1,3.9-4.3,5.6-6.6,1.3-1.7,2.4-3.4,3-5.5,0-.4.5-.4.8-.5,2-.6,3.9-1.1,5.9-1.7,6.5-1.8,12.9-3.7,19.4-5.3,5.2-1.2,10.5-2.2,15.8-2.8,1.6-.2,3.3-.2,4.9-.4.4,0,.6,0,.7.4.8,2.4,1.5,4.7,1.5,7.3v.6q0,.8-.8.9c-2.7.4-5.4.9-8.1,1.6-6.3,1.7-12.2,4.1-18,6.9-6.1,3-12,6.3-17.9,9.6-6.1,3.4-12.2,6.7-18.6,9.5-3.4,1.5-6.8,2.8-10.4,3.8-3.8,1-7.5,1-11.2-.6-3.6-1.6-6.1-4.3-7.9-7.8-1.2-2.2-1.8-4.6-2.4-7-1.5-6-2-12-1.8-18.2.3-7.8,1.5-15.3,3.5-22.8,2.7-10.2,6.3-20.1,10.8-29.7,1.8-3.8,3.9-7.3,6.5-10.6,0-.2.3-.4.5-.6,0,0,0-.1.2-.2.3,0,.4.2.6.4,2.1,1.6,4.4,2.6,7,2.7.4,0,.8,0,1,.4,1.1,1.8,2.6,3.3,4.5,4.2,0,.3-.3.3-.5.5-1.9,1-3.7,2.2-5.2,3.7-.3.3-.8.5-.6.9s.7.2,1.1.1c2.4-.3,4.6-.9,6.8-1.8,1-.4,1.2-.8,1.3-2.1.2-.2.3,0,.5,0,2.1.6,4.3,1,6.5,1.1.5,0,.9.2,1.2.5,2.1,1.7,4.1,3.3,6.5,4.5,1.1.5,1.8,1.2,2.2,2.3.4,1,1,2,1.7,2.9.9,1,2.2,1,2.9,0,.4-.6.4-1.1,0-1.7-.3-.6-.7-1.1-1-1.7.3-.3.6-.3.9-.2,1.5.6,2.8,0,4-1,1.7-1.5,2.5-3.5,2.9-5.7.2-1,.2-2,.2-3s0-.5,0-.7c.6,0,1.1.3,1.6.4,4,1.1,8.1,1.6,12.2,1.4,5.2-.3,10.2-1.6,14.5-4.7.2-.1.3-.3.5-.4.6-.5,1.3-.5,1.9,0,1,.8,1.9,1.6,2.6,2.6.4.6.7,1.1.9,1.8.5,1.8,0,3.4-1.5,4.5-1.5,1-1.5,1.7,0,2.7,1.6,1.2,3.3,2.1,5.1,2.8,1.2.5,2.4.3,3.5,0,2-.4,3.6-1.6,5-3.1,2.6-2.9,4.2-6.2,4.7-10.1.3,0,.4.3.5.5,2,3.1,3.3,6.5,4.5,9.9,1.5,4.4,2.6,8.9,3.8,13.4,1.2,4.5,2.5,8.9,4.5,13.1,1,2.2,2.2,4.2,3.7,6,.9,1.1,1.7,2.2,2.4,3.5,1.3,2.2,1.6,4.5.7,7-.5,1.5-1.2,3-1.8,4.5-.2.5-.4,1.1-.6,1.6-.2.6,0,1.1.5,1.3.4.2.8.1,1.2-.3.6-.5,1.1-1.1,1.8-1.7,0,.6,0,1.2,0,1.7,0,2.2.3,4.4,0,6.6-.3,2.6-1.2,5-2.3,7.4-.8,1.6-1.7,3.2-2.7,4.7-2.2,3.3-4.6,6.4-7.1,9.4-1.8,2.2-4,3.8-6.9,4.3-.8.1-1.5.2-2.3.2-6.3.1-12.4-.9-18.5-2.4-6.2-1.5-12.2-3.6-18.2-5.5-3.6-1.1-7-2.4-10.5-3.7-.3,0-.5-.2-.7-.3-1.7-1-3.4-2-5.4-2.6.3-.3.6-.4.9-.6,7.6-4.2,15.5-7.6,23.6-10.6,2.9-1.1,5.8-2.1,8.8-3.1.5-.2.9-.1,1.4.1,2.7,1.5,5.6,2.5,8.6,3s6,.3,8.8-.8c.6-.2,1.1-.6,1.3-1.2.2-.5.2-.9,0-1.4-1.2-2.9-1.4-5.9-1.5-8.9v-7c0-2.5-.4-5-.8-7.4-.9-5.3-1.8-10.6-2.6-15.9-.4-2.5-.7-5-1.3-7.4,0-.2,0-.5-.2-.7,0-.2-.2-.3-.3-.6,0-.1-.2,0,0,0s0,0,0,.1v.2c-.6,2.2-.5,4.5-.5,6.8,0,5.1.6,10.1,1.1,15.1.5,5.4,1,10.8.8,16.2v.9c-.3,0-.5-.1-.6-.3-2-1.3-4.2-2.5-6.5-3.3-.2,0-.4-.2-.5-.4-.5-1.1-1.5-1.7-2.5-2.1-2.5-.9-5-1.1-7.5,0-.3.1-.6.1-.9.2-1.6.2-3.2.3-4.8.5-.5,0-.8,0-1.2-.3-1-.9-2.3-1.3-3.6-1.7-2.8-.9-5.7-1.3-8.6-1.6-5.2-.6-10.3-.7-15.5-.5-2.5.1-5,.3-7.4,1-.4.1-.7,0-1.1,0-2.3-.3-4.6-.7-6.9-.6-.9,0-1.8.2-2.6.5-1.4.6-2.3,1.5-2.5,3.1,0,.6-.3.7-.8.7-2.8.2-5.4.9-7.8,2.2-.1,0-.2.1-.3,0v-.2c.9-2.9.8-6,1.2-9,.3-1.7.4-3.3.6-5v-2.5c0-.5-.1-1.1-.6-1.5-.6.5-.8,1.1-1.1,1.7-.5,1.3-.8,2.7-1,4.2-.5,2.9-1,5.7-1.6,8.6-.1.7-.3,1.5-.3,2.3s-.1,2.1-.4,3.1c-.1.4-.3.8-.7,1-2.2,1.7-4.2,3.7-5.9,6-2.1,2.7-3.1,5.9-3.2,9.3,0,1.2.5,1.7,1.7,1.4.7-.1,1.4-.5,2-.9,1.4-.8,2.6-1.8,3.9-2.8.2,0,.3,0,.2.2h0l-.2.2Z"/>
      <path class="cls-16" d="M50.9,98.5c-.2,1-.3,1.8-.3,2.7,0,2.4.9,4.4,2.8,5.9,6,4.6,14.2,1.8,16.3-5,.5-1.5.5-3.1.2-4.6q0-.7.5-.9c2.1-.9,4.3-.8,6.5-.3.2,0,.4.2.3.4,0,.4-.2.9-.3,1.3-.2,1.3-.2,2.7.2,4v.3c-.3,0-.6-.2-1-.3-.2,0-.5,0-.7,0-.3,0-.5.2-.5.4,0,.3,0,.5.3.6.6.4,1.1.9,1.6,1.5.4.6.7,1.2.7,1.9,0,1.2-.9,2-2,2s-1.2-.2-1.8-.5c-.7-.3-1.3-.8-1.9-1.3-.6-.4-1.1-.3-1.6.3-.4.6-.4,1.2.2,1.6,1.3,1,2.6,1.7,4.2,1.9,2.6.2,4.5-1.5,4.6-4.1,0-.2,0-.4,0-.7,2.4,1.9,5.1,2.3,8,1.8,0,.6,0,1,0,1.5,0,3.4-.4,6.7-1.4,10-1.5,4.9-4.3,8.8-8.7,11.3-5.6,3.2-11.4,3.2-17.2.5-1.4-.6-2.6-1.4-3.9-2.2-.2-.1-.4-.3-.6-.4,0,0-.3-.3-.5,0,0,.2,0,.3,0,.4.4.6.9,1.1,1.5,1.6,2.5,2.3,5.5,3.5,8.9,4.1,1.5.2,2.9.3,4.4.2.5,0,.7,0,.8.6.4,1.9,1.1,3.7,2.1,5.4.4.8.3,1.7.5,2.5,0,.3-.2.4-.5.4-.8.1-1.5.3-2.3.3-4,.5-7.9.4-11.9,0-2.6-.3-5.1-.9-7.7-1.5q-.8-.2-.9-1c-.4-3.2-.8-6.4-2-9.4-.3-.7-.6-1.5-.9-2.2-.2-.5-.5-1-.6-1.5-.2-.6-.6-1.1-1.1-1.5-1.4-1.4-2.8-2.7-4-4.3-2-2.6-3.8-5.4-5.2-8.4-.3-.7-.6-1.3-.9-2-.3-.5-.4-.5-.7,0,0,0-.2.3-.3.5-.3-.7-.8-.8-1.4-.7-.5,0-1.1,0-1.6,0-.4,0-.5-.3-.5-.6.1-.9.3-1.7.4-2.6.2-1.6.4-3.1.6-4.8,1.3.3,2.4.9,3.3,1.9.3.3.5.6.7.8.5.4.9.5,1.3.2.4-.3.5-.8,0-1.4-.3-.5-.7-.8-1.1-1.2-1.1-.7-2.2-1.1-3.4-1.2-.7,0-.8,0-.7-.9,0-1.2.2-2.4.3-3.5,0-.4,0-.5.5-.6.8-.2,1.6-.3,2.5-.2.4,0,.7.2.9.5,1.3,1.1,2.6,2.2,3.9,3.3,0,0,.3.2.4.3.3.3.6.4,1,.2.4-.2.5-.6.4-.9,0-.9,0-1.9,0-2.8,0-.6,0-.7.7-.6,1.6.2,3.2.4,4.8.5.2,0,.4,0,.5,0,.9.7,2,.8,3.2.7h0l-.2-.3Z"/>
      <path class="cls-16" d="M60.8,89.8c.8,0,1.7-.2,2.5,0,.5,0,.9,0,1.3-.3.8-.4.9-1.3.3-2-.4-.4-.9-.6-1.5-.6-.9,0-1.7,0-2.6.4-2.7.8-4.9,2.2-6.5,4.6-.2.3-.6.6-.3,1,0,.2,0,.3-.2.4-.9,1-1.7,2.1-2.2,3.3,0,.3-.3.4-.6.3-.7,0-1.3-.2-2,0h-.4c-.9.5-1.8,0-2.7,0-1.2-.2-2.4-.5-3.5-.7-.5,0-.5-.3-.4-.7.3-1.4.8-2.7,1.5-3.9,2.6-4.4,5.9-7.9,10.6-10.1,2-.9,4-1.8,6-2.7,3-1.3,5.8-2.8,8.3-5,.9-.8,1.7-1.6,2.4-2.5.2-.3.4-.3.8-.3,2.8.6,5.5,1.6,8,3.1,1.8,1.1,3.2,2.6,4.3,4.6,1.5,2.8,2.3,5.9,2.6,9,0,.4,0,.5-.4.6-.9.3-1.5.3-2.4-.3-1.5-1-3.3-1.5-5.1-1.8-.5,0-1,0-1.4.5-.3.4-.4.9,0,1.4.2.5.6.7,1.1.8,1.1.2,2.2.3,3.3.7.2,0,.5,0,.7.2,0,.2,0,.3-.2.3-1.8,1.1-3.2,2.7-4.1,4.6,0,.3-.2.5-.7.3-2.5-1.1-4.9-.6-7.1.9,0,0-.2,0-.3.2-.3,0-.3-.4-.4-.6-1.1-3-3.4-4.7-6.5-5.3-.6,0-1.3-.2-1.9-.2s-.3,0-.2-.3h0v.3Z"/>
      <path class="cls-16" d="M40.6,215.3c-.7.4-1.5.4-2.2.6-1.7.4-3.3.7-4.8,1.6,0,0-.2.1-.3.1-1.1,0-1.8.7-2.3,1.5-.8,1.3-1.8,2.6-2.7,3.9-1,1.4-2,2.8-3.2,4.2-.8.9-1.5,1.7-2.5,2.4-.5.4-1.1.7-1.7.8-1,.1-1.5-.3-1.3-1.3.2-1.1.5-2.1.9-3.2.5-1.8,1.1-3.6,1.6-5.4.2-.8,0-1.4-.7-1.7s-1.5-.1-1.9.5c-.2.3-.3.6-.4.8-.7,1.9-1.6,3.6-2.7,5.2-1.1,1.6-2.4,3-3.9,4.3-.2.1-.3.3-.5.4h-.2c-.1-.2,0-.5,0-.7.5-2,1.3-4,2.2-5.9.8-1.8,1.6-3.6,2.3-5.5.2-.5.2-1-.2-1.4-.4-.4-.9-.6-1.4-.4-.4,0-.7.4-.9.7-1.3,1.8-2.7,3.4-4.4,4.8-1.2,1-2.5,2-3.9,2.9,0-.3,0-.6,0-.9.7-3.4,2.4-6.3,4.6-8.8.6-.7,1.4-1.2,1.9-2,.6-.9,1.4-1.4,2.3-1.8,2-1,4.2-1.9,6.4-2.3,5.5-.9,10.7,0,15.5,2.8,1.6,1,3,2.2,4.3,3.6h0v.2Z"/>
      <path class="cls-16" d="M59.8,107.9c-1.4,0-2.8-.3-4.1-1-3-1.5-4.4-4.2-3.7-7.5.6-2.8,2-5,4.2-6.7.2,0,.3-.3.5-.3,2.2-.8,4.4-1.2,6.7-.6,3,.8,5,3.5,5.3,6.8.4,5.2-3.6,9.4-8.9,9.4h0Z"/>
      <path class="cls-12" d="M40.5,203.6c4.1-.3,8.1-.4,12.1-.2,3.8.2,7.5.6,11.2,1.3,1.8.4,3.6.9,5.4,1.5.2,0,.5.1.7.3-.8.3-1.6.3-2.5.5-4.9.9-9.8,2.3-14.6,3.8-.5.2-.9,0-1.3-.4-1.4-2.1-3.4-3.4-5.5-4.6-1.5-.8-3.1-1.4-4.7-1.9-.3,0-.5-.2-.8-.3h0Z"/>
      <path class="cls-16" d="M86.7,93.1c.2,4,.3,7.9.5,11.9q0,.9-.9,1.1c-1.7.3-3.4,0-4.9-.8-2.6-1.3-3.8-3.8-3.4-6.7.5-3.3,2.2-5.9,4.9-7.8.5-.3.9-.4,1.4,0,.7.4,1.3.8,2.2.8s.2.4.3.6v1h0Z"/>
      <path class="cls-12" d="M60.5,151.2c0,1.8,0,3.6,0,5.4q0,.6-.5.6c-2.7-.2-5.4-.8-8-1.6-.3,0-.4-.3-.5-.6,0-1.2-.3-2.4-.4-3.5,0-.4,0-.6.3-.9.9-1.7,1.8-3.3,2.6-5,0-.2.3-.3.5-.2,1.8.4,3.6.7,5.5.9.5,0,.4.3.4.6v4.4h0Z"/>
      <path class="cls-12" d="M61.3,157.2c.4-1.2.6-2.4.8-3.7.2-1.7.4-3.4.7-5.1,0-.2,0-.5.3-.6.5-.1.7-.5.6-1,0-.4,0-.5.5-.4,1.5,0,3,0,4.5-.1.5,0,.7.1.8.6.4,1.9.9,3.7,1.3,5.6.3,1.1.6,2.2,1,3.3.3.7.2.7-.5.9-1.1.3-2.3.5-3.5.6-2.1.2-4.2.2-6.3,0h-.2q0-.1,0-.1Z"/>
      <path class="cls-12" d="M79.7,152.5c-2,1.8-4.1,3.1-6.7,3.7,0-1,0-1.9-.3-2.9-.3-1.9-.6-3.7-.9-5.6v-.7c0-.6.4-1.1,1-1.2.5,0,1-.3,1.4-.1s.5.8.7,1.1c1.1,1.9,2.4,3.6,4.2,5,.2.2.5.4.8.6h-.2Z"/>
      <path class="cls-16" d="M91.6,209.1c1.5.9,2.7,2.1,3.8,3.4.2.3.5.6.7.8,1,1.3,2,2.6,2,4.3s0,.7.2,1.1c.1.5,0,.7-.5.8-1,.2-2,0-3,0s-.5-.2-.6-.6c-.2-1.4-.3-2.8-.6-4.2-.4-1.9-1.1-3.8-2.2-5.4,0-.2,0-.3.2-.2h0Z"/>
      <path class="cls-12" d="M39.6,210.1c1.1-.5,2-.5,3-.6.5,0,.9-.1,1.4-.2.4,0,.8-.2,1-.5.4-.6.7-.4,1.1-.1,1.3.9,2.5,1.9,3.6,3.2-2.2.8-4.2,1.6-6.4,2.4-.6-2-2.1-3-3.8-4.1h.1Z"/>
      <path class="cls-20" d="M84.2,211.2c1.5-.2,3,.1,4.5.6,1.8.6,1.4.2,1.7,2.1q.2,1.3-1.1,1.7c-1.1.3-2.2.3-3.3.1-.5,0-.7-.2-.8-.8,0-1.1-.5-2.1-.9-3.1,0-.2-.2-.4,0-.6h0Z"/>
      <path class="cls-20" d="M42.4,206.9c-1.5.5-3,1.2-4.2,2.2-.2.2-.4.1-.7,0-1.5-.7-3.1-1.2-4.6-1.7,0-.3.3-.4.5-.5.7-.5,1.4-.9,2-1.4.5-.4,1.1-.6,1.7-.4,1.6.4,3.2.8,4.7,1.3.2,0,.5.1.7.4h-.1Z"/>
      <path class="cls-24" d="M81.6,205.7c3.1-.4,6.2,1.3,7.2,3.5h-1.1c-1.3,0-2.6.1-3.7.8-.3.2-.5.1-.7-.2-.2-.4-.4-.8-.7-1.2-.3-.4-.5-.8-.3-1.4.2-.4,0-.8-.3-1.1s-.4-.2-.6-.5h.2Z"/>
      <path class="cls-1" d="M25.6,206.4c.5-.9,1.1-1.3,1.9-1.6,1.6-.5,3.2-.4,4.9-.2-.5.7-.9,1.3-1.1,2.1-.1.4-.5.3-.7.3-1.1-.2-2.3-.3-3.5-.4h-1.6v-.2Z"/>
      <path class="cls-17" d="M85.5,216.7c.4.2.9.4,1.3.6,1.1.4,2.2.6,3.3.4q.6,0,.6.5c0,.4-.2.4-.5.4-1.1-.3-2.3-.5-3.4-.8-.2,0-.5,0-.7-.1-.6,0-.8-.4-.6-1h0Z"/>
      <path class="cls-19" d="M73.6,133.6c-.2.8-.4,1.6-.6,2.3-.3-.5-.5-1-.7-1.5,0-.4,0-.6.4-.6s.5-.1.9-.2h0Z"/>
      <path class="cls-18" d="M86.7,93.1c-.2-.2,0-.6-.2-.8,0-.3,0-.6-.2-.8.2-.3.2-.6,0-.8-.2-.3-.4-.6-.6-.9.8-.4.9-.4.9.4s0,2,0,3h0Z"/>
      <path class="cls-3" d="M50.4,144.2c.5.1.6.6,0,1.3,0-.4-.3-.9,0-1.3Z"/>
      <path class="cls-10" d="M60.8,89.8c0,0,0,.2.2.3-.3,0-.6,0-1,0,.3-.3.5-.4.9-.3h-.1Z"/>
      <path class="cls-2" d="M91.6,209.1s0,.1-.2.2c-.2,0-.3-.3-.3-.5.3,0,.4,0,.6.3h0Z"/>
      <path class="cls-8" d="M96.2,172.5v-.4c0,0,.2.2.2.3v.3c0,0-.2-.1-.3-.2h.1Z"/>
      <path class="cls-6" d="M10.8,224.7s-.1-.1-.2-.2c0-.1.2-.3.3-.2.2.1,0,.3,0,.4h-.1Z"/>
      <path class="cls-4" d="M112.3,203.7c.4,0,.8.1,1.1.5.7.7,1.3,1.4,1.8,2.3.2.3.3.7.4,1.1,0,.7,0,1.3-.7,1.7-.5.4-1.1.5-1.7.2,0,0-.2-.1-.3-.2-1.3-.8-2.2-3.2-1.8-4.7.2-.6.6-.9,1.2-.9h0Z"/>
      <path class="cls-13" d="M32.1,187.8c-.8,0-1.3-.4-1.5-1.2-.3-1.1-.5-2.3-.6-3.5,0-.7.3-1.1,1-1.2.5,0,.9,0,1.3.3,1.2.9,1.8,2.1,1.8,3.6s-.8,2-2,2h0Z"/>
      <path class="cls-22" d="M89.5,191.1h.5c.7,0,.8.2.4.8-.5.8-.9,1.6-1.6,2.2-.4.4-.8.8-1.3.9-.9.2-1.8-.3-2-1.2-.3-1,.3-2,1.2-2.2.9-.2,1.9-.3,2.8-.4h0Z"/>
      <path class="cls-15" d="M78.9,179.2c-.6,0-1.1-.3-1.4-.8-.8-1.2-.9-2.5-.7-3.8,0-.3.2-.6.5-.6s.4.2.5.4c.3.7.8,1.3,1.3,1.9.3.3.6.7.8,1.1.3.4.4.8,0,1.2-.3.4-.6.6-1.1.6h0Z"/>
      <path class="cls-7" d="M56.6,181.3c.8-1.4,1.9-2.4,3.5-2.6.2,0,.5,0,.7.1.3.2.5.5.5.9s-.2.7-.6.8c-1.3.4-2.7.8-4.2.8h0Z"/>
      <path class="cls-21" d="M104.7,185.3c.2-.3.5-.3.8-.4,1-.3,1.9-.8,3-1,.4,0,.8-.1,1.2,0,.3,0,.6.2.7.6,0,.4,0,.7-.4.9-.2.1-.4.2-.7.3-1.3.3-2.6.2-3.9,0-.3,0-.5,0-.7-.4h0Z"/>
      <path class="cls-7" d="M43.9,220c.9,0,2.1,1,2.3,1.8s-.5,1.5-1.3,1.3-1.9-1.5-1.9-2.3.3-.8.9-.8h0Z"/>
      <path class="cls-21" d="M10.6,188.6c.8,0,1.2.2,1.3.6.1.5-.2,1-.8,1.3-.3.2-.7.3-1,.2-1,0-1.8-.4-2.6-1-.3-.2-.3-.4,0-.6h.3c.7,0,1.4-.2,2.1-.4.2,0,.5,0,.6-.1Z"/>
      <path class="cls-21" d="M71.7,215.3c-.9,0-1.6-.5-2.3-1.1-.2-.1-.2-.3,0-.5.5-.6,2.1-1,2.8-.6.6.3.9.8.8,1.3s-.7.9-1.3.9h0Z"/>
      <path class="cls-21" d="M64.5,192.2c0-.3-.2-.9.3-1.1.5-.2.7.3,1,.6.3.4.6.9.9,1.3.3.6.2,1.2-.3,1.5s-1.1,0-1.4-.5c-.3-.6-.4-1.2-.4-1.9h0Z"/>
      <path class="cls-5" d="M5.7,178c1.5-.4,2.9-1.2,4.4-1.5.4,0,.9-.3,1.1.3.2.4-.2.9-.7,1.1-.2.1-.5.2-.7.2-1.2,0-2.3.2-3.5.2s-.4,0-.6-.3h0Z"/>
      <path class="cls-11" d="M66.1,169.2c-.6.6-1.2,1.3-1.7,2-.4.5-.8.6-1.3.3-.4-.2-.7-.8-.6-1.2,0-.5.5-.7,1.1-.8h1.3c.4,0,.8-.2,1.2-.3h0Z"/>
      <path class="cls-14" d="M44.6,194.9c.6,0,1.2.2,1.7.3.2,0,.3.1.5.2.4.3.5.9,0,1.3-.4.4-1,.4-1.3,0,0-.1-.2-.3-.3-.6-.2-.4-.4-.8-.7-1.3h0Z"/>
      <path class="cls-4" d="M72.9,120.6c-2.2,0-4-1-5.4-2.8-.6-.8-.4-1.9.5-2.3.6-.3,1.1-.2,1.6.2.2.2.3.4.5.6,1.5,1.8,3.8,2.1,5.7.8.5-.4,1-.8,1.5-1.3s.2-.3.4-.4c.3-.3.5-.4.9-.2.3.2.4.5.3.9-.2.8-.5,1.6-1.1,2.3-1.3,1.5-2.9,2.2-4.9,2.2Z"/>
      <path class="cls-15" d="M59,97.7c0-.8,0-1.7.3-2.5,0-.9.7-1.4,1.6-1.5.9,0,1.5.3,1.6,1.3.2,1.5,0,3-.7,4.4s-.7.9-1.3.9-1.1-.5-1.3-1.3c0-.4,0-.8,0-1.3h0Z"/>
      <path class="cls-23" d="M83.5,96.1c0,.9-.2,1.7-.6,2.5-.5,1.2-1.9,1.3-2.6.2-1-1.5-.9-3.2.2-4.4.9-1.1,2.2-.8,2.8.4.2.4.2.9.2,1.3Z"/>
    </g>
  </g>
</svg>