<?xml version="1.0" encoding="UTF-8"?><svg id="Layer_2" xmlns="http://www.w3.org/2000/svg" viewBox="0 0 1001.29 1104.46"><g id="Layer_1-2"><g id="Master_Character_Bust-2"><g id="Body-2"><g id="Body_Macbook"><path id="Skin-3" d="M977.41,603.49c-14.3,1.4-28.6,2.8-42.8,4.2-68.4,5.2-136.7,16.1-204.6,22.7-1.7-2.8-5-2.3-7-.4-6.8-.6-14.4-5.8-20.5-.4h-.6c-10.9-21-18.5-43.3-25.8-65.7-4.7-13.8-11-27.1-22.6-36.3-19.8-13.8-65.3-41.7-88.6-40.5-.4-4.2-2.3-8.5-5.5-11.3,7-12-21.1-19.8-23.1-18.4,1.3-40.1-17.6-74.9-59.2-82.9-37.3-7.8-90.2-9.1-110.3,29.9-2.2-.2-24.7-.4-26.9-.1-3.4-4.3-40.6,36.4-25.3,50.5-136.3,60.2-213.7,53-251.5,222.5-5.1,15.9-5.5,33.3-10.9,48.9-19.2,44.7-34.7,92.4-38.6,141-9.3,2.4-10.4,18.9.4,21.2,4.1.9,7.6,2.2,10.6,4.5-2.4,39.9,7.3,131,13.4,130.7,12.4,39.4,67.7,50.6,106.8,36.7-6.7,12.7,0,20.7,0,27.5,140.8,5.3,294.8,2.3,435.6,9.6,18-.3,37,4.4,54.7,1.7,10.8-2.6,10.9-19.6-.1-21.7l48-10.4c-1.1-.4,19.8-14.3,35.6-40.2,14.7-29,4.7-64,11.3-95.6,51.9-4.2,104.7-6.1,156.1-14.9,7,21,37.3-4.1,47-14.2h0c4.7-1.3,8.4-5.6,8.5-10.8,3.3-4.7,4-11.3.8-15.8,14.4-83,36.3-167.7,44.2-251.4,2.8-.6,5.4-1.8,7.7-3.7l-.2-.2c3.8-4.2,4.5-11.5-1.8-15.1-5-3-9.2-2.1-14.8-1.5v-.1Z" style="fill:#edb98a; fill-rule:evenodd; stroke-width:0px;"/><path id="Top-3" d="M434.41,913.99l11,7,90,29,55,7,45-7v77l9,72c-4,7.3-42,7.3-114,0-45.9-4.7-213.6-6.9-251.8-7.9h-2.2c-44.9-1.4-89.2-1.4-133-.1v-27l125-62,112-63,54-25ZM370.61,397.89l8.3,6.2-18,29.7,87.9,71.1v56.8l27.8,26.3,15.9-26.3,22.4-29.8,15.9-48.3-5.4-31.8,10.9-1c.1,2.2,0,4.4,0,6.6,2-1.4,30.1,6.4,23.1,18.4,3.2,2.8,5.1,7.1,5.5,11.3,23.3-1.2,68.8,26.8,88.6,40.5,11.6,9.2,17.9,22.6,22.6,36.3l1.1,3.4,1.1,3.4,1.1,3.4c6.3,18.9,13.2,37.7,22.4,55.5h.6c6.1-5.4,13.7-.2,20.5.4,2-1.9,5.2-2.3,6.9.2v.2c.1,0-84.3,16.6-84.3,16.6l-55.7,195.2-48.5-39.3-26,3.9-68.7,24.8-79.9,20.8-182.4,50.3h-23.2l-135.2-32.6-12.2-4c4-48.3,19.5-95.5,38.5-139.8,5.4-15.6,5.8-33,10.9-48.9,37.8-169.8,115.2-162.6,251.5-222.9-15.2-14.1,21.9-54.8,25.3-50.5h1.3c5.3-.2,23.6,0,25.6.2,1.2-2.3,2.4-4.4,3.8-6.4v.1Z" style="fill:#474747; fill-rule:evenodd; stroke-width:0px;"/><path id="Computer" d="M990.91,609.39l-2.5,14c-.6.2-1.2.4-1.8.5-.8,8.3-1.7,16.7-2.8,25.1l-15.6,86.8c-2.7,15.4-5.2,30.8-7.8,46.2l-3.4,16.5-2.1,10.3c-4.5,22.3-8.8,44.5-12.7,66.5.6.8,1,1.7,1.4,2.7l-.3,1.2-.2.8-.2.8c-3,11.6-8.3,22.9-20.6,26.3-9.3,2.6-19.6,2.8-29.2,3.8h-1.1c0,.1-168.7,19.1-168.7,19.1-20.4,2.3-40.7,4.7-61.1,7l-17.7,2.1c-24.6,2.8-49.4,5.1-73.6,10.3-.9.2-1.6.5-2.2,1,4.9-18.5,9.6-36.9,13.8-55.6,4.8-21,9.3-42.1,14.4-63,10.3-42.2,21.8-84.1,34.4-125.6,2.6-8.7,5.4-17.4,8.1-26.1l1.9-6.1,1.5-4.8c2.3-7.4,5.2-15,12-19,7.9-4.8,18.8-5.5,27.8-7.2l6.1-1.1c9.1-1.7,18.2-3.3,27.4-4.9,43.8-7.5,87.8-13.6,131.9-18.1,46-4.7,92.1-7.8,138.3-9.3l4.6-.2h0ZM572.31,898.99h.4l-6.3,50.4c-1-.7-2.3-1.1-3.8-1.1-20.7.1-40.5-6.5-59.6-13.8l-2.9-1.1-8.1-3.1c-8.3-3.2-16.6-6.3-25-8.8l-3.4-1-1.7-.5c-6.4-1.9-13.2-3.6-19.8-4h-.9l1.9-1c.3-.1.5-.3.8-.5,3.7.3,7.3.2,11.2-.5,7.3-1.3,14.4-3.8,20.9-7.4l2.9-1.6,1.2-.6.8-.4.8-.4c5.6-2.8,10.9-4.5,18-3,8,1.7,15,6,22.2,9.6l1.3.6.9.4.9.4.9.4c9.8,4.4,25.3,9.1,29-4.1,1.5-5.3.3-10.3-2.3-14.7,4.5-.6,13.2,5.1,19.7,5.8h0Z" style="fill:#fff; fill-rule:evenodd; stroke-width:0px;"/><path id="Ink-5" d="M369.41,395.19c4.2-10.7,18.6-6.5,17,4.7-1,6.7-4.6,13.8-7.9,19.7-2.7,4.8-5.8,9.5-9.9,13,7.4,6.9,15.1,13.6,23,19.9,8.6,6.9,17.6,13.2,27,19.1,8.2,5.1,16.8,9.7,24.5,15.5,7.2,5.4,13.7,12,17,20.5,3.5,9.1,2,18.5-.6,27.5l-.3,1c-2.7,9-7.3,19.8-.9,28.3,3.3,4.3,8,7.4,12.1,10.8,3.6,3.1,7,6.4,10.2,10,6.8,7.8,12.4,16.6,15.9,26.4l.3.9c3,8.7,5.2,19.3,1.1,27.8-1.2,2.4-4.9,1.6-5.6-.7-1.5-5.4-1.4-11-2.6-16.5-1.3-5.7-3.4-11.1-6.2-16.1-5.4-9.9-12.7-18.3-21.4-25.4l-2.6-2.1c-6.8-5.5-13-11.4-14.3-20.6-1.5-9.8,2.5-19.2,5-28.4,1.8-6.5,2.3-12.7.4-18.5-2.3,3.8-5.5,7.4-8,10.6-5,6.4-10,12.8-15.1,19.1-5.2,6.5-10.2,13.2-15,20-2.1,3-4.3,6.1-6.4,9.2-1.6,2.3-3.8,4.6-5.5,7,.4,1.3.4,2.7-.4,3.7-9.2,12.4-22.3-13.5-25.7-20-6.9-13.3-12.1-27.5-19.1-40.8-7.2-13.8-15.4-27.2-24.6-39.9-5.5-7.6-11.7-14.8-16.8-22.7-11.9,10.8-27.6,18.1-42.1,24.7-15.9,7.2-32.3,13.1-48.6,19.4l-4.8,1.9c-28,10.9-56.7,22.9-80,42.3-27.4,22.8-43.5,54.6-55.6,87.5-13.9,37.9-25.3,76.8-36,115.7-5.5,19.9-10.7,39.9-15.5,60-4.3,17.7-7.9,35.5-12.8,53,10.1-.4,21.6,3.6,30.2,4.7,39.3,5.1,78.1,13.3,115.2,27.5,4.6,1.8,5.9,6.3,4.9,10,2.6-.7,5.3-1.5,7.9-2.2-2.9-4.4-1.5-12.4-1.3-17.3v-.3c.2-6.6.9-13.1,1.4-19.7.9-12.5,2-24.8,3.5-37.2l.4-3.1c1.7-13.5,3-27.1,4.9-40.5l.2-1.5c-.9-3.4-1.9-6.8-3.1-10.2-2.9-9-7.1-17.5-10.7-26.3-.4-1,1-1.6,1.7-1,6.1,5.5,11,12.5,14.9,19.9.1-.3.1-.7.2-1l.4-2.2c1.1-5.4,2.4-11,5.7-15.4.4-.5,1-.6,1.4,0,3.2,5.3,3.5,12.1,4,18.2.5,6.9.6,13.8.5,20.7-.2,13.5-1.1,27-1.9,40.4-.7,13.2-2.2,26.2-4.1,39.3l-.4,2.5c-.9,6.2-1.7,12.5-2.9,18.7l-.3,1.7c-.6,3.1-1,7.4-2.3,11,33.1-9.2,66.3-18.3,99.6-27.1,24-6.4,48.1-12.7,72.1-19.1,1.3-2.3,2.8-4.4,4.8-6.3,6.5-6.3,15.1-9.1,23-4.3.6.4.7,1.4,0,1.8-1.5.8-3,1.7-4.5,2.6l14.4-3.9c10.8-2.9,21.7-6.6,32.8-8.6,20.3-10,42.2-17.3,63.7-24.5l2.5-.9c11-3.7,22.3-7.9,33.7-10,8.3-1.5,18,.3,21.4,8.8,4.2,2.8,8.2,6.1,12,9.3,2.8,2.3,5.4,4.8,8.1,7.2l.5.4c2.2,1.9,4,3.2,4.5,6.3.3,1.6-.7,3.7-2.7,3.5-6-.6-10.8-7.5-14.8-11.7-3.1-3.2-6.3-6.5-9.1-10-1.7.9-3.9.7-5-1.3-5.5-10.4-20.5-3.2-28.8-.7l-11.9,3.5c-5.9,1.8-11.9,3.5-17.8,5.3-16.3,5-32.5,10.5-49,15,1.5,1.6,1.3,4.5-1.5,5.6-12.9,5.1-27,7.7-40.4,11.1-8.4,2.2-16.9,4.4-25.3,6.6-1.4,2.3-2.5,5-2.9,8.1-1.6,11.4,1.5,24.4,4.5,35.4l.5,1.6c2.5,8.8,6.1,19.6,13.8,25.2,1.9,1.4,4.2,2.3,6.6,2.5,14.9-7.7,29.8-15.3,44.7-23,2.8-1.4,5.3.5,5.9,2.8,5.3-.9,10.5-2.2,15.3-3.8,8-2.7,14.3-7.9,21.8-11.5,14.6-7,29.4,1.6,42.5,8.1l3,1.5c5.8,2.8,18,8.3,20.8.5,2.7-7.5-5.9-15.5-11.4-18.9-6.6-4-14.3-6.2-21.8-8-4.3-1-8.6-1.9-12.9-2.5-4.9-.7-10-.6-14.8-2.2-2.4-.8-2.7-4.5,0-5.2,7.3-1.7,16,.2,23.6,2l4,1c7.7,1.9,15.4,4.2,22.4,8,5.1,2.7,10.4,6.9,14,12,3-2.8,6.8-2.7,10.8-1.7l2.1.6c3.5,1,6.4,1.7,9.8,1,.5-2.5.9-5,1.4-7.5,4.9-24.6,10.3-49.1,16.2-73.5,10.2-42.1,22.1-83.7,35.4-124.9l1.3-4.1c3.1-9.4,5.6-19.7,10.5-28.3,4.7-8.2,12.2-12.9,21.2-15.4,10.1-2.8,20.8-4.3,31.1-6.2,2.3-.4,4.6-.8,6.9-1.3-2-3.5-3.4-7.5-4.7-10.6l-.2-.5c-2.8-6.4-5.4-13-7.8-19.6l-1.8-4.9c-4.4-11.9-9-23.6-15.2-34.8-6.5-11.7-15.2-21.3-26-29.2-22-16.2-48.6-24.4-70-41.7-.9-.7.2-1.9,1.1-1.5,14.4,7.3,30,12.2,45,18.1l3,1.2c11.9,4.7,23.9,9.8,34.2,17.4,11.5,8.5,20.5,19,27.2,31.6,6.7,12.4,11,26.2,15.7,39.4l1.3,3.5c1.9,5.3,3.9,10.5,6.1,15.7,1.8,4.1,5.1,8.7,6.6,13.4,4.1-.7,8.3-1.4,12.4-2.1,89.9-15,180.7-23.8,271.8-26.4,3.6-.1,5.4,3.3,4.9,6.4-8.7,51.7-16.5,103.5-25,155.3-3.7,22.6-7.5,45.1-11.4,67.7-2,11.4-4.2,22.8-6.1,34.2-1.5,9.2-2.6,18.5-5.2,27.6-2.3,8.1-5.9,15.9-11.7,22.1-6.3,6.7-15.1,9.9-23.9,11.4-22.4,3.9-45.5,5.4-68.1,8l-120.4,13.7c1.8,16,1.9,31.7,1.1,47.9l-.5,8.8c-.4,7.1-.8,14.2-1.8,21.3-1.3,8.8-5.3,16.3-11.3,22.9-5.5,6.1-12.1,11.2-18.5,16.2-6.7,5.1-13.6,10.1-21.5,13.3l-1,.4c-6.9,2.7-19.9,6.9-29.3,5.3,1.2,6.2,3.6,12.8,1.5,18.9-1,2.8-4.7,4.3-7,1.8-4.5-4.8-4.9-11.1-5.9-17.4-1.1-6.5-2.1-13-2.9-19.6-1.6-12.7-2.9-25.4-3.3-38.2-.4-13.1-.2-26.2.5-39.3.4-6.7.8-13.4,1.7-20.1.4-2.8.7-5.7,1.2-8.5.2-1,.3-2.1.5-3.1l-10.8,1.2c-16.6,1.9-33.2,3.5-49.9,3.8-2,0-3.5-.9-4.5-2.2-1.1,1.7-2.9,3-5.5,2.9-23.3-.1-45-7.7-66.2-16.7-10.7-4.5-21.2-9.4-31.9-13.9-10-4.2-20.7-7.2-30.4-11.9l-25.6,13.4c-.2.7-.4,1.3-.7,1.8-1.7,3.4-5,5.3-8.3,6.6-3.2,1.3-6.6,1.8-9.8,1.4-19.4,10.2-38.9,20.4-58.3,30.5l-19.5,10.1c-38.8,20.2-77.4,40.7-116.4,60.4l-2.9,1.4c-13.5,6.8-27.9,13.6-42.9,18.7-.3,3.8-.1,7.5.2,11.5v.9c.5,4.7,1.5,10.7-2.3,14-2,1.8-5.5,1.8-6.8-.9-2.4-4.8-.2-12.3.5-17.5.3-1.9.6-3.8,1.1-5.6-17.1,5.1-34.8,7.6-52.2,4.7-17-2.8-30.1-13.5-40.7-26.6-11.2-13.8-19.1-29.9-23.4-47.1-4.9-19.6-5.2-39.9-5.1-60,.1-21.4.9-42.9,3.5-64.2-2.9-.7-6-1.3-8.9-1.1-1.4,2.3-4.2,3.2-6.7,3-5.4,6,8.4,12.1,12.8,13.7,1.5.5,1.4,3-.4,2.9h-1.1c-6.8-.5-13.9-1.6-17.9-8-3.2-5.1-2.2-11.1,1.6-15.2,2.5-23.9,8.6-47.2,14.2-70.5,5.5-22.9,11.7-45.6,18.2-68.3l2.9-10.1c10.2-35.5,21-71.3,35.1-105.3,7.1-17,15.2-33.7,26.2-48.6,10.3-13.8,22.4-25.7,36.4-35.8,26-18.8,56.5-30.2,86.5-41.1l1.3-.5c15.5-5.6,31-11.3,46.4-17.4,13.6-5.4,26.6-12.2,40.1-17.7-.4-.8-.9-1.6-1.3-2.4l-.3.2h-.1c-1.4,1-3.4.6-4.5-.5-3.2-3-2.1-6.3,0-9.4l.3-.4c2.6-3.6,4.9-7.4,7.3-11.2l1.5-2.3c4-6.3,8.2-12.6,13.5-17.7,2.5-2.4,5.2-4.2,8-5.5-.2-.5,1.9-1.6,2.5-1,9.1-3.3,19.5-2.6,29.4-1.7M724.21,946.09l-12.6,1.4c-13.9,1.6-27.8,3.1-41.7,4.6l-30.2,3.3c-.1,1.7-.3,3.4-.3,4.7-.2,6.7-.3,13.4-.5,20.1-.3,13.4,0,26.9.9,40.3.9,13,2,26,3.7,38.9l.4,2.6.2,1.4c1.4.1,2.8.8,4,2.2,2.6,3,11.8.1,15.4-1.2,5.9-2.1,11.5-5.7,16.7-9.3,5-3.5,9.6-7.6,13.9-11.9l3.6-3.5c3.5-3.5,7.1-7.3,9.3-11.7,2.9-6,3.3-13.4,4.2-19.9,1.1-8.1,2.3-16.1,3.7-24.1M357.81,861.59l-1.3.3c-47.6,12.6-95,25.6-142.7,37.7-23.6,6-47.3,11.5-71,17.4l-3.8,1c-18.6,4.7-37.5,10.4-51.8,23.9-.5.5-1.3-.3-.8-.8,15.4-16.4,37.3-23.3,58.3-29.3,3.9-1.1,7.8-2.2,11.7-3.3-28.6-10.2-57.6-19.1-87.3-25.4-7.6-1.6-15.4-2.8-23-4.5-5.3-1.1-10.5-2.8-15.8-4.2l-4.1-1v13.1c-.2,18.6-.1,37.1.8,55.7l.2,3.4c1.1,20.7,2.8,41.7,10.2,61.2,6,15.8,15.5,30.7,27.9,42.3,6.3,5.8,13,10.4,21.4,12.6,7.8,2.1,15.9,2.3,23.8,1.8,38.2-2.7,72.3-23.4,105.5-40.6,54.3-28.1,108.6-56.2,163-84.2-1.5-1-2.9-2.2-4.1-3.5-7.3-7.5-11.1-17.8-13.7-27.8-2.7-10.6-4.3-22-4.5-33M427.01,949.49c.5-.3,1,.1,1.1.6.2,4.2-2.1,8.2-3.8,12l-.2.4c-2.1,4.6-4.4,9.2-6.7,13.7-4.7,9-9.6,17.9-14.7,26.7-10.3,17.6-21.7,34.5-35.2,49.9-3.1,3.5-8.1-1-6.1-4.7,9.4-18,20.4-35,31.8-51.9,5.7-8.4,11.3-16.9,17.1-25.3,2.4-3.5,4.8-7,7.3-10.4l1.5-2.1M991.01,609.49c-47.7,1.4-95.4,4.6-142.9,9.4-44.2,4.5-88.2,10.6-131.9,18.1-9.1,1.6-18.3,3.2-27.4,4.9l-5.5,1c-9.1,1.7-20.3,2.4-28.4,7.3-8.6,5.1-10.9,15.9-13.7,24.7-3.3,10.4-6.6,20.8-9.8,31.3-12.6,41.5-24.1,83.4-34.4,125.6-5.1,20.9-9.6,42-14.4,63-4.2,18.7-8.9,37.1-13.8,55.6.6-.5,1.3-.8,2.2-1,24.2-5.2,49-7.4,73.6-10.3l2.4-.3c25.5-3,50.9-6,76.4-8.8l168.7-19c9.9-1.1,20.6-1.3,30.3-3.9,16.5-4.5,20.3-22.9,23.1-37.6v-.4c8.4-44.3,15.1-88.9,22.8-133.3M572.81,898.99c-6.5-.4-15.5-6.4-20.5-6,2.6,4.4,3.8,9.4,2.3,14.7-4.2,14.8-23.1,7.2-32.2,2.6-7.5-3.7-14.7-8.3-23-10-9.4-2-15.7,1.8-23.6,6.1-6.5,3.5-13.6,6.1-20.9,7.4-3.9.7-7.6.8-11.2.5-.2.2-.5.3-.8.5l-1.9,1c8.8.4,17.7,3.1,25.9,5.6,8.5,2.6,16.8,5.7,25,8.8l8.1,3.1c20.1,7.7,40.8,15,62.6,14.9,1.6,0,2.8.4,3.8,1.1M536.11,852.59c6.5-.8,12.4.1,17.6,4.3,6.2,5.1,10.4,13.5,19.4,14.1,2.6.2,3.2,3.8.6,4.6-6.7,2-12.1-1.6-16.6-6.3l-3.1-3.2c-4.5-4.7-8.6-8.2-16.3-8-8.2.3-16.3,2.2-24.4,3.1-9.2,1.1-18.4,2-27.6,2.8-.4,0-.5-.6-.1-.7l10.3-2.6M529.91,826.09h1.1c9.4-1,18-1,26.4,4l1.6,1c7.6,4.6,15.8,10,20.5,17.5.8,1.2-.5,2.7-1.8,2.3-9.1-2.2-15.7-8.9-23.4-13.8-8.6-5.6-17.4-4.7-27.2-3.8-9.5.8-18.9,2-28.3,3.6-8.8,1.5-17.7,3.8-26.6,4.6h0c-1,0-1.6-1.5-.6-2,9-4.5,19.5-6.6,29.3-8.7M208.21,570.69c0-.7,1-1,1.4-.4,6.1,10.8,9.3,23.9,12.6,35.8,3.4,12.4,6.2,24.9,8.6,37.6,5,25.6,7.7,51,7.9,77.1,0,3.7-6,4.7-6.6.9-3.9-25.4-7.7-50.7-11.7-76.1s-4.3-25.4-6.5-38.2M268.71,589.39c-.5-1.5,1.7-2,2.3-.6,12.3,30.1,16.4,64.2,8.5,96-1.2,4.9-8.3,2.8-7.4-2M427.01,562.69c-.1-1.1,1.4-1.3,1.9-.5,5.8,8.2,8.2,19.2,18.4,23.4,5.1,2.1,10.8,1.7,15.3,5.3,3,2.4,5.3,6.2,3.1,9.8-.7,1.2-2.8,1.8-3.8.5-1.4-1.8-2.2-4.1-4.2-5.4-2.8-2-6.5-2.1-9.7-3-4.1-1.2-7.7-3.3-10.7-6.4M524.11,426.09c.6-.3,1.2-.1,1.6.4.5.7.5,1.5-.2,2,.9,1.8,2,6.4,2.1,7.1.6,2.7,1.3,5.4,1.9,8.1,1.4,5.4,2.6,10.9,4,16.3,1.5,5.7,3.2,11.4,5.1,17,.1.4.3.7.4,1.1l.2.6h.1c.4-.7,1.2-.3,1.1.4-.1.6-.2,1.2-.3,1.8l.2.5c1.3,3.4,2.1,7-.2,10-.9,1.1-1.8,1.8-3,2-1.9,6.3-4.3,12.5-6.9,18.4l-.8,1.7c-3.8,8.7-7.8,17.2-13.8,24.6-6.6,8-15.6,13.5-21.3,22.3-2.7,4.1-4.5,8.4-6,13l-.6,1.8c-1.1,3.3-2.3,6.4-5.4,8.4-1,.6-2.4.4-3.2-.4-6.3-6.7.3-19.1,4.1-25.5,5.3-9,12.9-14.7,20.6-21.5,8.2-7.3,13.5-17,18.6-26.7,3.1-5.9,6.1-11.9,9.3-17.8-3.3-2.9-4.4-8.7-5.5-12.8v-.4c-2-6.5-3.4-13.1-4.4-19.8-.9-6.4-1.3-12.7-1-19.2v-1.6M536.41,456.59c-.7-1,.5-2.1,1.5-1.9,6.1,1.3,12.1,5,17.5,7.9l.6.3c4.4,2.4,8.8,5.2,11.1,9.8,2.5,5,2.3,10.7,1.9,16.1v.5c-.4,6.5-.5,13.2-1.9,19.6-.7,3.3-3.7,4.2-6.2,3.4-3,9.5-11.4,16.5-17.6,23.9-7.9,9.5-6.4,22.4-5.6,33.9.3,4.6-5.5,6-8.4,3.5l-6.9-5.7c-1.1-1-2.3-1.9-3.4-2.9-1-.8-1.9-1.6-2.9-2.5l-1.4-1.3c-.6-.6-3.4-3.7-4.3-3.8-2-.3-6.7,4.9-8.3,6.6l-.2.2c-3,3-5.8,6.2-8.3,9.6-.5.6-1.4,0-1.1-.6,2.3-4.9,5-9.6,8.1-14l.6-.9c2.1-2.8,4.9-7.8,8.6-8.7,4.5-1,9.1,3.5,12.4,6l.2.2c1.6,1.2,3.1,2.4,4.7,3.6-.2-8.6.9-17.2,5.3-24.6,3.1-5.2,7.8-9,11.8-13.5,4.4-5,6.8-11.1,10.8-16.3.5-.7,1.2-1,2-1.1.2-4.2.8-8.4,1.2-12.5v-1.2c.6-4.5,1.7-9.9-.5-14.1-2.1-4-6.8-6.8-10.3-9.4l-2.9-2.2M338.41,409.29c-1.8,1.1-3.6,2.4-5.1,4-4.9,5.2-8.4,11.7-11.8,17.9-1.8,3.4-3.6,6.7-5.5,10.1-.8,1.5-1.6,2.9-2.5,4.3-.4.7-1.5,2-2.1,2.8.6.9,1.3,1.8,2,2.6.3.3,17.8,19.5,24,27,9.4,11.5,17.8,23.6,24.9,36.6,7,12.7,12.4,26.2,18.9,39.1,3.3,6.5,6.9,12.9,11.5,18.5.2.2.4.4.6.6,1.8-4.8,6.3-9.9,8.5-12.8l.2-.3c5-6.8,10.4-13.4,15.8-19.9,5-5.9,10.1-11.7,15.3-17.4l2-2.1c3.6-3.9,8.3-9.8,13.6-12.6-.6-1-1.2-2-2-3-5-6.5-12.1-11.3-19-15.5l-4.5-2.7c-17-10.4-33.8-21.2-48.6-34.7-7.8-7.1-15.5-14.6-22.1-22.9l-2.3-2.9M366.91,404.09c-8,.7-16.6.5-24,3.1,6.6,6.2,12.8,12.9,19.2,19.2.6-4.3,1.7-8.5,2.7-12.6" style="fill:#000; fill-rule:evenodd; stroke-width:0px;"/><path d="M813.31,804.69l-16.6.6c-.5,0-.9-.4-.8-.9s.5-.9,1-.9l16.6-.6c.5,0,.9.4.8.9,0,.4-.4.9-1,.9Z" style="fill:#000; stroke-width:0px;"/><path d="M840.91,736.19l-14,24.7-35.3,1.2-9.3-23.9-3.3,33.8h.1c-.2.5-.2.9-.3,1.5l-3.8,39.3c-.6,6,3.9,10.8,10,10.5l36.4-1.3c6.1-.2,11.6-5.3,12.1-11.3l3.8-39.3c0-.4.1-.9,0-1.4h.2l3.4-33.8c.1,0,0,0,0,0h0ZM825.01,780.39c-.4,4.1-4.2,7.7-8.4,7.9-4.2.1-7.4-3.2-7-7.3l15.4-.6h0ZM804.21,781.09c-.4,4.1-4.2,7.7-8.4,7.9h0c-4.2.1-7.4-3.2-7-7.3l15.4-.6h0ZM823.61,803.99c-.4,4.1-4.2,7.7-8.4,7.9l-21.6.8c-4.2.1-7.4-3.2-7-7.3h0c.4-4.1,4.2-7.7,8.4-7.9l21.6-.8c4.3-.1,7.4,3.1,7,7.3h0Z" style="fill:#000; stroke-width:0px;"/></g></g><g id="Head-2"><g id="Head_Short_2"><path id="Skin-4" d="M610.81,160.29c11.4-8.2-5.6-35.1-11.4-43.1-5-10.4-10-20.9-15-31.3.6-8.6-7.7-16.2-16-13.6-7.2-5.2-19.2-2.7-22.9,5.4-79.2-34.6-216.4-20.2-223.5,86.6-15.4,30.4-30.5,61.1-44.1,92.3-18.9,1-28,24-16.8,38.9,1.5,24.1,16.8,26,37.1,25,8.2,2.2,16.7,3.3,22.8,9.7,4.7,4.8,7.8,10.8,10.9,16.7,14.1,27.1,32,50.6,56.4,69.3,37.8,28.4,89,48.7,136.1,34.9,101.3-40,121.1-199.4,86.3-290.8h.1Z" style="fill:#edb98a; fill-rule:evenodd; stroke-width:0px;"/><path id="Ink-6" d="M399.31,4.99c66.2-15.4,140.6,5.3,186.5,56.2,3.2,3.6,2.9,8.2,0,11.3,1.3,1.1,2.6,2.2,3.9,3.3,1.4,1.2,1.2,3.5,0,4.7s-3.6,1.4-4.7,0l-1.6-2.1c-.8-1-1.6-2.1-2.4-3.1-1,.3-1.9.7-2.8,1.1,14.1,9.3,25.7,21.8,33.7,36.7,8.7,16.2,14.3,33.4,17.9,51.4,6.4,32,7.4,64.9,6.5,97.5v1.7c-1.1,39.3-4.9,79.2-21.5,115.3-13.3,28.9-36.8,55.5-66.4,68.2-17,7.3-35.3,10.4-53.8,9.1-9.8-.7-19.5-2.2-28.9-4.6l-2.3-.6c-8.7-2.2-17.6-4.7-24.9-9.6-7.6-5.1-2.5-15.2,5.9-14,10.1,1.5,19.7,5.7,29.5,7.9,9.8,2.1,19.7,3.3,29.6,3,17.7-.5,33.7-5.9,48.4-15.8,55.9-37.8,62.7-113.8,64.1-175.2.7-30-.4-60.4-7.3-89.7-6.6-28.2-18-55.9-34.1-80-3.6,1.3-7.1,2.4-10.9,2.8-6.8,4.1-14.8,4.2-22.6,4.2h-1.1c-8.1,0-16.3-.5-24.3-1.2-28.5-2.5-58-9-86.7-4.9l-1.2.2c-11.9,1.8-26.4,5.5-35.1,14-9.4,9.2-3.1,26.6,4.3,32.1,4.8,3.6,6.3,11.6,0,14.9-12.5,6.4-42.5,2.9-45.9,6.4-4.1,4.3-3.8,10.7-3.9,16.3v.4c-.4,15.7,0,31.4,1.3,47.1,1.3,15.2,4.2,30.4,4.8,45.5.2,5-5.8,6.5-9.1,3.8-.6-.5-1.3-1-2-1.5-6-4.3-12.8-6.1-20.2-7.2-.4-.1-.7-.3-.9-.5h0c0-.1-.8.5-.8.5,1.5,1.9,2.8,4,3.9,6.4.2.5-.2,1.1-.8.8-10.1-6-21.2-8.6-32.8-6.1-10.5,2.2-20,8.9-23.1,19.5-2.8,9.8-.8,21.1,5.6,29.2,9.4,12,24.5,10.9,38.2,11.4,2.7.1,5.7,1.4,6.9,4,1.5,3,1.4,5.1,0,8.1-.2.4-.4.8-.7,1.2,1.2,1,2.3,2,3.3,3.1l3.6,3.6c2.4,2.5,4.9,5,7.2,7.5,6.9,7.5,13.3,15.5,19.4,23.6l.6.8c7.1,9.8,14.5,23.8,26.8,26.9,4.2,1.1,8.2,3.2,9.4,7.7,1.3,4.6-1.7,9-5.7,11-6.9,3.3-15.7-.6-21.4-4.8-12.3-9.1-20.4-23.9-27.8-36.9l-2.1-3.6c-3.9-6.7-7.7-13.5-10.9-20.6-1.8-4-3.8-8-5.6-12.1-.5-1.2-1-2.4-1.4-3.6-.6.1-1.1.2-1.6.2-16.5,1.1-35.4-1.5-47.3-14.1-16.5-17.3-18.4-48.1.3-64.6,2-1.7,4.2-3.3,6.6-4.6-3.3-5.7-5.6-12.2-7.2-18.4-2.4-9-3.7-18.1-4.4-27.4-1.3-18.9.9-38.1,5.4-56.5,16.9-66.5,67.3-121.6,134.6-137.3h0ZM279.91,280.99c-3.3-18.9,34.5-4.9,42.8-3.6h.2c9.5,1.3,4.2,18-5.1,13l-.3-.2c-5-2.9-10.6-5-15.9-7.4l-1.1-.5c-4.2-2-18.1-11.1-19.6-1.3,0,.5-1,.5-1.1,0h.1Z" style="fill:#000; fill-rule:evenodd; stroke-width:0px;"/></g></g><g id="Face-2"><g id="Face_Contempt"><path id="Ink-7" d="M555.91,340.79c-3.3,4.3-9.3,7.6-16,9.2-6.4,1.5-13.4,1.4-19.5-.9l-.5-.2c-4.5-1.9-8.9-5.7-10.6-9.7-.7-1.6-.9-3.2-.4-4.7.4-1.3,1.4-2.6,2.9-3.7.5-.3,1.2-.4,1.8-.2.8.1,1.6.5,2,1,2.6,2.8,6.4,5.5,10.8,5.4,3.4,0,6.3-1.4,9-2.9l1.9-1.1c1.9-1.1,3.7-2,5.9-2.5,3.8-.8,8.4.7,11.2,3.1,1.2,1.1,2.1,2.3,2.4,3.7.3,1.2,0,2.4-.9,3.5h0ZM536.21,265.39c7.6,4.6,19.1,15.3,10.9,26.7-9.6,10-23.3-1.5-30.1-6.7-6.3-4-13.4,6.3-7.5,11,49,36.3,68.9-29.8,30.5-36.4-4.2-.7-5.8,4-3.8,5.4ZM451.01,194.79l2.2-.6,2.2-.6,1.5-.4c10.3-2.7,21.6-5.1,31.8-3.9,3.7.4,6.7,2.5,7.3,6.4.4,3.3-1.7,7.5-5.3,8.1-12,1.9-24.2,1.3-36.2,3.3s-11.9,2.2-17.9,3.3c-4.5.8-9.2,1.1-13.8,1.8h1.1c.4.2.3.8-.1.7-1.5-.2-3-.2-4.5,0h-.6c-1,.2-1.6-.9-.7-1.5,5.6-3.8,10.3-7.9,16.5-10.7,5.2-2.2,10.8-4.2,16.5-5.8v-.1ZM544.51,188.99c7.9-8,24.7-4.9,34.1-1.3,5.4,2.1,10.5,4.7,14.7,8.7l.4.4.6.6c2.9,2.8,6.1,6.7,5.6,10.7-.1.6-.4,1.3-1.1,1.4-3.8.7-7.5-1.3-10.9-2.5l-2.3-.8c-3.5-1.2-6.9-2.3-10.5-3.1-4.4-1-9-1.6-13.5-1.5-4.6,0-9.5,1.4-13.9-.5-4.8-1.9-7.4-7.8-3.2-12.1h0ZM466.51,253.39c-2,2.1-4.7,3.2-8.1,2.5-2.7-.5-7.7-3.2-11.8-7.3-2.8-2.8-5.1-6.3-5.7-10.4-.1-.9-.6-1.6-1.3-1.9-.5-.3-1.2-.5-2-.4-.6,0-1.3.3-1.8.6-1,.6-1.4,1.4-1.5,2-.8,5.9,1.5,11.8,5.1,16.8,4.8,6.7,11.9,11.6,16.1,12.8,7.1,2,14.7.4,20.2-4.6,4.4-4,6.7-9.1,8.8-14.5l.4-1c.5-1.2.9-2.4,1.4-3.6,1-2.4.7-4.4-.3-6-1.1-1.8-3.1-3-5.3-3.4-2-.4-4.2,0-5.9,1.3-1.5,1.1-2.6,2.7-3,5.2-.7,4-2.2,8.6-5,11.6l-.3.3h0ZM588.81,230.29c-1.7-.9-3-1.1-4.8-.6-1,.3-2,.9-2.8,1.7-.8.8-1.3,1.8-1.6,2.8-.5,2.7-2,5.2-4.1,6.8-1.8,1.4-4,2.1-6.5,1.7-2.7-.4-5.2-2.2-7-4.2-.5-.6-.9-1.2-1.3-1.8l-.2-.4c-.9-1.4-1.7-2.8-2.9-3.8-.5-.4-1.1-.7-1.8-.7h-.8c-2.7,2.7-3.2,4.7-3.1,6.7.1,2.1.9,4.3,2.3,6.2,3.2,4.7,9.2,8.5,13.2,9.4,5.5,1.2,11-.2,15.5-3.3,4.5-3.2,7.9-8.1,9-13.7.3-1.3.1-2.8-.4-4s-1.4-2.3-2.7-2.9v.1Z" style="fill:#000; fill-rule:evenodd; stroke-width:0px;"/></g></g><g id="Beard-2"><g id="Beard_Full_Beard"><path id="Ink-8" d="M447.11,368.19c8.1-19,25.8-32.9,46.1-38,14.9-3.7,30.6-3.6,45.8-2.1,8,.8,16.5,1.4,24.1,4.4,6.4,2.5,11.7,7.3,15.6,12.9,4.7,6.7,7.9,14.3,10.1,22.1.3,1.1.6,2.2.9,3.4-1,5.9-3,10.9-8.5,14.6-5.3,3.6-11.7,5.1-18,5.6-.6-.3-1.2-.6-1.8-.9-9.9-5.7-16.8-19-29.3-17.2-11.1,1.6-18.4,15.6-25,23.8-21.2,2.5-42.4-3.9-59.7-16-.9-4.3-.9-8.4-.3-12.6M604.11,353.79c-1.7-4.8-3.8-9.4-6.4-13.7-8.4-14.4-21.2-25.8-36.5-32.4-36.1-15.5-82.9-4.6-112,20.8-10,8.7-20,21.4-23.1,35.1-.9.2-1.8.7-2.5,1.3-21.1-13.3-42.8-26-59.8-44.4-12.3-13.4-20.9-29.2-26.2-46.6-.4-1.4-2.7-1.2-2.7.4s0,.7.1,1.1c-.2-.7-1.3-.3-1.3.3-2.8,21.1-6.4,43.5-3.1,64.7,1.9,12.7,7.7,21.9,15.4,31.9,8.2,10.7,17.6,20.7,27.1,30.3,6.1,6.1,12.4,13.1,19.8,17.5,8.6,5.2,18.4,9.1,27.6,13.1,9.4,4.1,18.9,7.8,28.5,11.1,19.3,6.5,39.3,11.1,59.7,13.1,16.3,1.6,34.9,3.3,50.5-2.8,12-4.7,21.6-13.2,29.3-23.4,8.3-11.1,14.9-23.8,18.6-37.1,3.8-13.8-2.2-38-3-40.3" style="fill:#000; fill-rule:evenodd; stroke-width:0px;"/></g></g></g></g></svg>