<?xml version="1.0" encoding="UTF-8"?>
<svg id="Layer_1" data-name="Layer 1" xmlns="http://www.w3.org/2000/svg" version="1.1" xmlns:xlink="http://www.w3.org/1999/xlink" viewBox="0 0 258 227">
  <defs>
    <style>
      .cls-1 {
        fill: #fff;
      }

      .cls-1, .cls-2, .cls-3, .cls-4, .cls-5, .cls-6, .cls-7, .cls-8 {
        stroke-width: 0px;
      }

      .cls-1, .cls-4, .cls-5, .cls-7 {
        fill-rule: evenodd;
      }

      .cls-2, .cls-5 {
        fill: #000;
      }

      .cls-3 {
        fill: none;
      }

      .cls-4 {
        fill: #474747;
      }

      .cls-6 {
        fill: #a0a9eb;
      }

      .cls-9 {
        clip-path: url(#clippath);
      }

      .cls-7 {
        fill: #edb98a;
      }

      .cls-8 {
        fill: #2a2a2a;
      }
    </style>
    <clipPath id="clippath">
      <rect class="cls-3" x="1.2" y="-27.4" width="254.9" height="253.3" rx="15" ry="15"/>
    </clipPath>
  </defs>
  <g>
    <rect class="cls-6" x="1" y="82" width="256" height="144" rx="15" ry="15"/>
    <path class="cls-8" d="M242,226.5H16c-8.5,0-15.5-7-15.5-15.5v-114c0-8.5,7-15.5,15.5-15.5h226c8.5,0,15.5,7,15.5,15.5v114c0,8.5-7,15.5-15.5,15.5ZM16,82.5c-8,0-14.5,6.5-14.5,14.5v114c0,8,6.5,14.5,14.5,14.5h226c8,0,14.5-6.5,14.5-14.5v-114c0-8-6.5-14.5-14.5-14.5H16Z"/>
  </g>
  <path class="cls-8" d="M122.1,152c-.3-1.6-1-2.7-2.9-2.7s-3.2,1.8-3.2,4.5.8,4.5,3.2,4.5,2.6-1.1,2.9-2.7h3.6c-.3,3.4-2.4,5.7-6.3,5.7s-6.9-3.2-6.9-7.5,2.4-7.5,6.9-7.5,6,2.3,6.3,5.6h-3.6ZM133.4,161.3c-4.5,0-7.1-3.2-7.1-7.5s2.5-7.5,7.1-7.5,7.1,3.2,7.1,7.5-2.6,7.5-7.1,7.5ZM133.4,158.4c2.6,0,3.5-2,3.5-4.5s-.9-4.5-3.5-4.5-3.5,2-3.5,4.5.9,4.5,3.5,4.5ZM141.5,154.6h5.4v2.7h-5.4v-2.7ZM152.2,152.8h5.7v2.9h-5.7v5.3h-3.6v-14.3h10.6v2.9h-7v3.1h0ZM166.7,161.3c-4.5,0-7.1-3.2-7.1-7.5s2.5-7.5,7.1-7.5,7.1,3.2,7.1,7.5-2.6,7.5-7.1,7.5ZM166.7,158.4c2.6,0,3.5-2,3.5-4.5s-.9-4.5-3.5-4.5-3.5,2-3.5,4.5.9,4.5,3.5,4.5ZM187,155.8c0,3.6-1.7,5.5-6,5.5s-6-1.9-6-5.5v-9.1h3.6v9.1c0,1.9.8,2.5,2.4,2.5s2.4-.7,2.4-2.5v-9.1h3.6v9.1ZM188.9,161v-14.3h3.6l5,8.5h0v-8.5h3.6v14.3h-3.6l-5-8.5h0v8.5h-3.6ZM203.1,161v-14.3h6.3c4,0,6.4,2.6,6.4,7.2s-2.2,7.1-6.2,7.1h-6.5ZM206.7,149.6v8.4h2.4c2.2,0,3.1-1.6,3.1-4.2s-.9-4.2-3.1-4.2h-2.4ZM220.8,152.2h6.2v2.9h-6.2v2.9h7.4v2.9h-11v-14.3h10.8v2.9h-7.2v2.7ZM229.8,161v-14.3h6.7c3.2,0,5.1,1.5,5.1,4.2s-1.1,3.1-2.9,3.5h0c3.6.7,2.3,6.2,3.1,6.4v.2h-3.7c-.7-.6.6-5-2.5-5h-2.2v5h-3.6ZM233.4,149.6v3.4h2.4c1.4,0,2.2-.5,2.2-1.7s-.8-1.7-2.2-1.7h-2.4Z"/>
  <g class="cls-9">
    <g>
      <path class="cls-7" d="M163.1,177.1c-3,.3-5.9.6-8.8.9-14.1,1.1-28.3,3.3-42.3,4.6-.4-.6-1-.5-1.4,0-1.4-.1-3-1.2-4.2,0h0c-2.3-4.3-3.8-8.8-5.3-13.4-1-2.8-2.3-5.5-4.7-7.4-4.1-2.8-13.5-8.5-18.3-8.3,0-.9-.5-1.7-1.1-2.3,1.4-2.4-4.4-4-4.8-3.8.3-8.2-3.6-15.3-12.2-16.9-7.7-1.6-18.6-1.9-22.8,6.1h-5.6c-.7-.9-8.4,7.4-5.2,10.3-28.2,12.3-44.2,10.8-52,45.4-1.1,3.2-1.1,6.8-2.3,10-4,9.1-7.2,18.8-8,28.7-1.9.5-2.2,3.9,0,4.3.8.2,1.6.4,2.2.9-.5,8.1,1.5,26.7,2.8,26.6,2.6,8,14,10.3,22.1,7.5-1.4,2.6,0,4.2,0,5.6,29.1,1.1,60.9.5,90.1,2,3.7,0,7.6.9,11.3.3,2.2-.5,2.3-4,0-4.4l9.9-2.1c-.2,0,4.1-2.9,7.4-8.2,3-5.9,1-13,2.3-19.5,10.7-.9,21.6-1.2,32.3-3,1.4,4.3,7.7-.8,9.7-2.9,1-.3,1.7-1.1,1.8-2.2.7-1,.8-2.3.2-3.2,3-16.9,7.5-34.2,9.1-51.2.6-.1,1.1-.4,1.6-.8h0c.8-.9.9-2.4-.4-3.1-1-.6-1.9-.4-3.1-.3h0l-.2-.2Z"/>
      <path class="cls-4" d="M50.8,240.4l2.3,1.4,18.6,5.9,11.4,1.4,9.3-1.4v15.7l1.9,14.7c-.8,1.5-8.7,1.5-23.6,0-9.5-1-44.2-1.4-52.1-1.6h-.5c-9.3-.3-18.4-.3-27.5,0v-5.5l25.8-12.6,23.2-12.8,11.2-5.1h0ZM37.6,135.2l1.7,1.3-3.7,6.1,18.2,14.5v11.6l5.7,5.4,3.3-5.4,4.6-6.1,3.3-9.8-1.1-6.5,2.3-.2v1.3c.4-.3,6.2,1.3,4.8,3.8.7.6,1.1,1.4,1.1,2.3,4.8-.2,14.2,5.5,18.3,8.3,2.4,1.9,3.7,4.6,4.7,7.4l.2.7.2.7.2.7c1.3,3.9,2.7,7.7,4.6,11.3h0c1.3-1.1,2.8,0,4.2,0,.4-.4,1.1-.5,1.4,0h0l-17.4,3.4-11.5,39.8-10-8-5.4.8-14.2,5.1-16.5,4.2L-.9,238.1h-4.8l-28-6.6-2.5-.8c.8-9.8,4-19.5,8-28.5,1.1-3.2,1.2-6.7,2.3-10,7.8-34.6,23.8-33.1,52-45.4-3.1-2.9,4.5-11.2,5.2-10.3h5.6c.2-.5.5-.9.8-1.3h0Z"/>
      <path class="cls-1" d="M165.9,178.3l-.5,2.9c-.1,0-.2,0-.4.1-.2,1.7-.4,3.4-.6,5.1l-3.2,17.7c-.6,3.1-1.1,6.3-1.6,9.4l-.7,3.4-.4,2.1c-.9,4.5-1.8,9.1-2.6,13.6.1.2.2.3.3.6v.4c-.1,0-.1.2-.1.2-.7,2.4-1.8,4.7-4.3,5.4-1.9.5-4.1.6-6,.8h-.2l-34.9,3.9c-4.2.5-8.4,1-12.6,1.4l-3.7.4c-5.1.6-10.2,1-15.2,2.1-.2,0-.3.1-.5.2,1-3.8,2-7.5,2.9-11.3,1-4.3,1.9-8.6,3-12.8,2.1-8.6,4.5-17.1,7.1-25.6.5-1.8,1.1-3.5,1.7-5.3l.4-1.2.3-1c.5-1.5,1.1-3.1,2.5-3.9,1.6-1,3.9-1.1,5.7-1.5l1.3-.2c1.9-.3,3.8-.7,5.7-1,9.1-1.5,18.2-2.8,27.3-3.7,9.5-1,19-1.6,28.6-1.9h1l-.3-.3ZM79.3,237.4h0l-1.3,10.3c-.2-.1-.5-.2-.8-.2-4.3,0-8.4-1.3-12.3-2.8l-.6-.2-1.7-.6c-1.7-.7-3.4-1.3-5.2-1.8l-.7-.2h-.4c-1.3-.5-2.7-.8-4.1-.9h-.2l.4-.2s0,0,.2-.1c.8,0,1.5,0,2.3-.1,1.5-.3,3-.8,4.3-1.5l.6-.3h.2c0-.1.2-.2.2-.2h.2c1.2-.7,2.3-1,3.7-.7,1.7.3,3.1,1.2,4.6,2h.3c0,.1.2.2.2.2h.2l.2.2c2,.9,5.2,1.9,6-.8.3-1.1,0-2.1-.5-3,.9-.1,2.7,1,4.1,1.2v-.3Z"/>
      <path class="cls-5" d="M37.4,134.7c.9-2.2,3.8-1.3,3.5,1-.2,1.4-1,2.8-1.6,4-.6,1-1.2,1.9-2,2.7,1.5,1.4,3.1,2.8,4.8,4.1,1.8,1.4,3.6,2.7,5.6,3.9,1.7,1,3.5,2,5.1,3.2,1.5,1.1,2.8,2.4,3.5,4.2.7,1.9.4,3.8,0,5.6v.2c-.6,1.8-1.6,4-.2,5.8.7.9,1.7,1.5,2.5,2.2.7.6,1.4,1.3,2.1,2,1.4,1.6,2.6,3.4,3.3,5.4v.2c.7,1.8,1.1,3.9.3,5.7-.2.5-1,.3-1.2-.1-.3-1.1-.3-2.2-.5-3.4-.3-1.2-.7-2.3-1.3-3.3-1.1-2-2.6-3.7-4.4-5.2l-.5-.4c-1.4-1.1-2.7-2.3-3-4.2-.3-2,.5-3.9,1-5.8.4-1.3.5-2.6,0-3.8-.5.8-1.1,1.5-1.7,2.2-1,1.3-2.1,2.6-3.1,3.9-1.1,1.3-2.1,2.7-3.1,4.1-.4.6-.9,1.2-1.3,1.9-.3.5-.8.9-1.1,1.4v.8c-1.9,2.5-4.6-2.8-5.3-4.1-1.4-2.7-2.5-5.6-3.9-8.3-1.5-2.8-3.2-5.5-5.1-8.1-1.1-1.5-2.4-3-3.5-4.6-2.5,2.2-5.7,3.7-8.7,5-3.3,1.5-6.7,2.7-10,4l-1,.4c-5.8,2.2-11.7,4.7-16.5,8.6-5.7,4.6-9,11.1-11.5,17.8-2.9,7.7-5.2,15.7-7.4,23.6-1.1,4.1-2.2,8.1-3.2,12.2-.9,3.6-1.6,7.2-2.6,10.8,2.1,0,4.5.7,6.2,1,8.1,1,16.1,2.7,23.8,5.6,1,.4,1.2,1.3,1,2,.5-.1,1.1-.3,1.6-.4-.6-.9-.3-2.5-.3-3.5h0c0-1.4.2-2.7.3-4.1.2-2.5.4-5.1.7-7.6v-.6c.4-2.8.7-5.5,1.1-8.3v-.3c0-.7-.4-1.4-.6-2.1-.6-1.8-1.5-3.6-2.2-5.4,0-.2.2-.3.4-.2,1.3,1.1,2.3,2.5,3.1,4.1v-.6c.3-1.1.6-2.2,1.3-3.1,0-.1.2-.1.3,0,.7,1.1.7,2.5.8,3.7,0,1.4,0,2.8,0,4.2,0,2.8-.2,5.5-.4,8.2,0,2.7-.5,5.3-.8,8v.5c-.3,1.3-.4,2.5-.7,3.8v.3c-.2.6-.3,1.5-.5,2.2,6.8-1.9,13.7-3.7,20.6-5.5,5-1.3,9.9-2.6,14.9-3.9.3-.5.6-.9,1-1.3,1.3-1.3,3.1-1.9,4.8-.9,0,0,0,.3,0,.4-.3.2-.6.3-.9.5l3-.8c2.2-.6,4.5-1.3,6.8-1.8,4.2-2,8.7-3.5,13.2-5l.5-.2c2.3-.8,4.6-1.6,7-2,1.7-.3,3.7,0,4.4,1.8.9.6,1.7,1.2,2.5,1.9.6.5,1.1,1,1.7,1.5h0c.5.5.8.7.9,1.4,0,.3,0,.8-.6.7-1.2-.1-2.2-1.5-3.1-2.4-.6-.7-1.3-1.3-1.9-2-.4.2-.8.1-1-.3-1.1-2.1-4.2-.7-6-.1l-2.5.7c-1.2.4-2.5.7-3.7,1.1-3.4,1-6.7,2.1-10.1,3.1.3.3.3.9-.3,1.1-2.7,1-5.6,1.6-8.4,2.3-1.7.4-3.5.9-5.2,1.3-.3.5-.5,1-.6,1.7-.3,2.3.3,5,.9,7.2v.3c.6,1.8,1.4,4,3,5.1.4.3.9.5,1.4.5,3.1-1.6,6.2-3.1,9.2-4.7.6-.3,1.1.1,1.2.6,1.1-.2,2.2-.4,3.2-.8,1.7-.6,3-1.6,4.5-2.3,3-1.4,6.1.3,8.8,1.7l.6.3c1.2.6,3.7,1.7,4.3.1.6-1.5-1.2-3.2-2.4-3.9-1.4-.8-3-1.3-4.5-1.6-.9-.2-1.8-.4-2.7-.5-1-.1-2.1-.1-3.1-.4-.5-.2-.6-.9,0-1.1,1.5-.3,3.3,0,4.9.4l.8.2c1.6.4,3.2.9,4.6,1.6,1.1.6,2.2,1.4,2.9,2.4.6-.6,1.4-.6,2.2-.3h.4c.7.3,1.3.5,2,.3,0-.5.2-1,.3-1.5,1-5,2.1-10,3.3-15,2.1-8.6,4.6-17.1,7.3-25.5l.3-.8c.6-1.9,1.2-4,2.2-5.8,1-1.7,2.5-2.6,4.4-3.1,2.1-.6,4.3-.9,6.4-1.3.5,0,1-.2,1.4-.3-.4-.7-.7-1.5-1-2.2h0c-.6-1.4-1.1-2.8-1.6-4.1l-.4-1c-.9-2.4-1.9-4.8-3.1-7.1-1.3-2.4-3.1-4.3-5.4-6-4.5-3.3-10-5-14.5-8.5-.2-.1,0-.4.2-.3,3,1.5,6.2,2.5,9.3,3.7l.6.2c2.5,1,4.9,2,7.1,3.5,2.4,1.7,4.2,3.9,5.6,6.4s2.3,5.3,3.2,8l.3.7c.4,1.1.8,2.1,1.3,3.2.4.8,1.1,1.8,1.4,2.7.8-.1,1.7-.3,2.6-.4,18.6-3.1,37.4-4.9,56.2-5.4.7,0,1.1.7,1,1.3-1.8,10.5-3.4,21.1-5.2,31.7-.8,4.6-1.5,9.2-2.4,13.8-.4,2.3-.9,4.6-1.3,7-.3,1.9-.5,3.8-1.1,5.6-.5,1.7-1.2,3.2-2.4,4.5-1.3,1.4-3.1,2-4.9,2.3-4.6.8-9.4,1.1-14.1,1.6l-24.9,2.8c.4,3.3.4,6.5.2,9.8v1.8c-.2,1.4-.3,2.9-.5,4.3-.3,1.8-1.1,3.3-2.3,4.7-1.1,1.2-2.5,2.3-3.8,3.3-1.4,1-2.8,2.1-4.4,2.7h-.2c-1.4.6-4.1,1.5-6.1,1.2.2,1.3.7,2.6.3,3.9-.2.6-1,.9-1.4.4-.9-1-1-2.3-1.2-3.5-.2-1.3-.4-2.7-.6-4-.3-2.6-.6-5.2-.7-7.8,0-2.7,0-5.3,0-8,0-1.4.2-2.7.4-4.1,0-.6,0-1.2.2-1.7,0-.2,0-.4,0-.6l-2.2.2c-3.4.4-6.9.7-10.3.8-.4,0-.7-.2-.9-.4-.2.3-.6.6-1.1.6-4.8,0-9.3-1.6-13.7-3.4-2.2-.9-4.4-1.9-6.6-2.8-2.1-.9-4.3-1.5-6.3-2.4l-5.3,2.7c0,.1,0,.3,0,.4-.4.7-1,1.1-1.7,1.3-.7.3-1.4.4-2,.3-4,2.1-8,4.2-12.1,6.2l-4,2.1c-8,4.1-16,8.3-24.1,12.3l-.6.3c-2.8,1.4-5.8,2.8-8.9,3.8v2.5c0,1,.3,2.2-.5,2.9-.4.4-1.1.4-1.4-.2-.5-1,0-2.5.1-3.6,0-.4.1-.8.2-1.1-3.5,1-7.2,1.5-10.8,1-3.5-.6-6.2-2.8-8.4-5.4-2.3-2.8-3.9-6.1-4.8-9.6-1-4-1.1-8.1-1.1-12.2s.2-8.7.7-13.1c-.6-.1-1.2-.3-1.8-.2-.3.5-.9.7-1.4.6-1.1,1.2,1.7,2.5,2.6,2.8.3.1.3.6,0,.6h-.2c-1.4-.1-2.9-.3-3.7-1.6-.7-1-.5-2.3.3-3.1.5-4.9,1.8-9.6,2.9-14.4,1.1-4.7,2.4-9.3,3.8-13.9l.6-2.1c2.1-7.2,4.3-14.5,7.3-21.5s3.1-6.9,5.4-9.9c2.1-2.8,4.6-5.2,7.5-7.3,5.4-3.8,11.7-6.2,17.9-8.4h.3c3.2-1.2,6.4-2.4,9.6-3.6,2.8-1.1,5.5-2.5,8.3-3.6,0-.2-.2-.3-.3-.5h0c-.3.2-.7.1-.9-.1-.7-.6-.4-1.3,0-1.9h0c.5-.8,1-1.6,1.5-2.4l.3-.5c.8-1.3,1.7-2.6,2.8-3.6.5-.5,1.1-.9,1.7-1.1,0-.1.4-.3.5-.2,1.9-.7,4-.5,6.1-.3M110.7,247l-2.6.3c-2.9.3-5.7.6-8.6.9l-6.2.7v1c0,1.4,0,2.7,0,4.1,0,2.7,0,5.5.2,8.2.2,2.6.4,5.3.8,7.9v.8c.4,0,.7.2.9.4.5.6,2.4,0,3.2-.2,1.2-.4,2.4-1.2,3.5-1.9,1-.7,2-1.5,2.9-2.4l.7-.7c.7-.7,1.5-1.5,1.9-2.4.6-1.2.7-2.7.9-4.1.2-1.7.5-3.3.8-4.9M35,229.8h-.3c-9.8,2.6-19.6,5.3-29.5,7.7-4.9,1.2-9.8,2.3-14.7,3.5l-.8.2c-3.8,1-7.8,2.1-10.7,4.9-.1.1-.3,0-.2-.2,3.2-3.3,7.7-4.8,12.1-6,.8-.2,1.6-.4,2.4-.7-5.9-2.1-11.9-3.9-18-5.2-1.6-.3-3.2-.6-4.8-.9-1.1-.2-2.2-.6-3.3-.9l-.8-.2v2.7c0,3.8,0,7.6.2,11.4v.7c.3,4.2.6,8.5,2.1,12.5,1.2,3.2,3.2,6.3,5.8,8.6,1.3,1.2,2.7,2.1,4.4,2.6,1.6.4,3.3.5,4.9.4,7.9-.6,14.9-4.8,21.8-8.3,11.2-5.7,22.5-11.5,33.7-17.2-.3-.2-.6-.4-.8-.7-1.5-1.5-2.3-3.6-2.8-5.7-.6-2.2-.9-4.5-.9-6.7M49.3,247.7c0,0,.2,0,.2.1,0,.9-.4,1.7-.8,2.4h0c-.4,1-.9,2-1.4,2.9-1,1.8-2,3.6-3,5.4-2.1,3.6-4.5,7-7.3,10.2-.6.7-1.7-.2-1.3-1,1.9-3.7,4.2-7.1,6.6-10.6,1.2-1.7,2.3-3.4,3.5-5.2.5-.7,1-1.4,1.5-2.1l.3-.4M165.9,178.4c-9.9.3-19.7.9-29.5,1.9-9.1.9-18.2,2.2-27.3,3.7-1.9.3-3.8.7-5.7,1l-1.1.2c-1.9.3-4.2.5-5.9,1.5-1.8,1-2.3,3.2-2.8,5-.7,2.1-1.4,4.2-2,6.4-2.6,8.5-5,17-7.1,25.6-1.1,4.3-2,8.6-3,12.8-.9,3.8-1.8,7.6-2.9,11.3,0-.1.3-.2.5-.2,5-1.1,10.1-1.5,15.2-2.1h.5c5.3-.7,10.5-1.3,15.8-1.9l34.9-3.9c2-.2,4.3-.3,6.3-.8,3.4-.9,4.2-4.7,4.8-7.7h0c1.7-9.1,3.1-18.2,4.7-27.3M79.4,237.4c-1.3,0-3.2-1.3-4.2-1.2.5.9.8,1.9.5,3-.9,3-4.8,1.5-6.7.5-1.6-.8-3-1.7-4.8-2-1.9-.4-3.2.4-4.9,1.2-1.3.7-2.8,1.2-4.3,1.5-.8.1-1.6.2-2.3.1,0,0,0,0-.2.1l-.4.2c1.8,0,3.7.6,5.4,1.1,1.8.5,3.5,1.2,5.2,1.8l1.7.6c4.2,1.6,8.4,3.1,12.9,3,.3,0,.6,0,.8.2M71.8,227.9c1.3-.2,2.6,0,3.6.9,1.3,1,2.2,2.8,4,2.9.5,0,.7.8,0,.9-1.4.4-2.5-.3-3.4-1.3l-.6-.7c-.9-1-1.8-1.7-3.4-1.6-1.7,0-3.4.4-5,.6-1.9.2-3.8.4-5.7.6,0,0,0-.1,0-.1l2.1-.5M70.6,222.5h.2c1.9-.2,3.7-.2,5.5.8l.3.2c1.6.9,3.3,2,4.2,3.6.2.2,0,.6-.4.5-1.9-.4-3.2-1.8-4.8-2.8-1.8-1.1-3.6-1-5.6-.8s-3.9.4-5.9.7c-1.8.3-3.7.8-5.5.9-.2,0-.3-.3,0-.4,1.9-.9,4-1.3,6.1-1.8M4,170.4c0-.1.2-.2.3,0,1.3,2.2,1.9,4.9,2.6,7.3.7,2.5,1.3,5.1,1.8,7.7,1,5.2,1.6,10.4,1.6,15.7s-1.2,1-1.4.2c-.8-5.2-1.6-10.3-2.4-15.5s-.9-5.2-1.3-7.8M16.6,174.3c-.1-.3.4-.4.5-.1,2.5,6.1,3.4,13.1,1.8,19.6-.2,1-1.7.6-1.5-.4M49.3,168.8c0-.2.3-.3.4-.1,1.2,1.7,1.7,3.9,3.8,4.8,1.1.4,2.2.3,3.2,1.1.6.5,1.1,1.3.6,2,0,.2-.6.4-.8.1-.3-.4-.5-.8-.9-1.1-.6-.4-1.3-.4-2-.6-.8-.2-1.6-.7-2.2-1.3M69.4,141h.3c0,.1,0,.3,0,.4.2.4.4,1.3.4,1.4,0,.6.3,1.1.4,1.7.3,1.1.5,2.2.8,3.3.3,1.2.7,2.3,1.1,3.5v.2h.2v.5h0c.3.8.4,1.5,0,2.1-.2.2-.4.4-.6.4-.4,1.3-.9,2.5-1.4,3.8l-.2.3c-.8,1.8-1.6,3.5-2.9,5-1.4,1.6-3.2,2.8-4.4,4.5-.6.8-.9,1.7-1.2,2.6v.4c-.4.7-.6,1.3-1.2,1.7-.2.1-.5,0-.7,0-1.3-1.4,0-3.9.8-5.2,1.1-1.8,2.7-3,4.3-4.4,1.7-1.5,2.8-3.5,3.8-5.4.6-1.2,1.3-2.4,1.9-3.6-.7-.6-.9-1.8-1.1-2.6h0c-.4-1.4-.7-2.8-.9-4.1-.2-1.3-.3-2.6-.2-3.9v-.3M71.9,147.2c0-.2,0-.4.3-.4,1.3.3,2.5,1,3.6,1.6h0c.9.6,1.8,1.1,2.3,2.1s.5,2.2.4,3.3h0c0,1.4,0,2.8-.4,4.1,0,.7-.8.9-1.3.7-.6,1.9-2.4,3.4-3.6,4.9-1.6,1.9-1.3,4.6-1.2,6.9,0,.9-1.1,1.2-1.7.7l-1.4-1.2c-.2-.2-.5-.4-.7-.6-.2-.2-.4-.3-.6-.5l-.3-.3c0-.1-.7-.8-.9-.8-.4,0-1.4,1-1.7,1.3h0c-.6.7-1.2,1.3-1.7,2,0,.1-.3,0-.2-.1.5-1,1-2,1.7-2.9v-.2c.6-.6,1.1-1.6,1.9-1.8.9-.2,1.9.7,2.6,1.2h0c.3.3.6.5,1,.8,0-1.8.2-3.5,1.1-5,.6-1.1,1.6-1.8,2.4-2.8.9-1,1.4-2.3,2.2-3.3,0-.1.2-.2.4-.2,0-.9.2-1.7.2-2.5v-.2c0-.9.4-2,0-2.9-.4-.8-1.4-1.4-2.1-1.9l-.6-.4M31,137.5c-.4.2-.7.5-1.1.8-1,1.1-1.7,2.4-2.4,3.6-.4.7-.7,1.4-1.1,2.1-.2.3-.3.6-.5.9,0,.1-.3.4-.4.6.1.2.3.4.4.5,0,0,3.7,4,5,5.5,1.9,2.3,3.7,4.8,5.1,7.5,1.4,2.6,2.6,5.3,3.9,8,.7,1.3,1.4,2.6,2.4,3.8h0c.4-.9,1.3-1.9,1.8-2.5h0c1-1.4,2.2-2.8,3.3-4.1,1-1.2,2.1-2.4,3.2-3.5l.4-.4c.7-.8,1.7-2,2.8-2.6,0-.2-.2-.4-.4-.6-1-1.3-2.5-2.3-3.9-3.2l-.9-.6c-3.5-2.1-7-4.3-10-7.1-1.6-1.4-3.2-3-4.6-4.7l-.5-.6M36.9,136.5c-1.7.1-3.4.1-5,.6,1.4,1.3,2.6,2.6,4,3.9,0-.9.4-1.7.6-2.6"/>
      <path class="cls-2" d="M129.1,218.2h-3.4c0,.1-.2,0-.2,0,0-.1,0-.2.2-.2h3.4c.1-.1.2,0,.2,0,0,0,0,.2-.2.2Z"/>
      <path class="cls-2" d="M134.8,204.2l-2.9,5-7.3.2-1.9-4.9-.7,6.9h0v.3l-.8,8c0,1.2.8,2.2,2.1,2.1l7.5-.3c1.3,0,2.4-1.1,2.5-2.3l.8-8v-.3h0l.7-6.9v.2ZM131.6,213.2c0,.8-.9,1.6-1.7,1.6s-1.5-.7-1.4-1.5h3.2-.1ZM127.3,213.3c0,.8-.9,1.6-1.7,1.6s-1.5-.7-1.4-1.5h3.2,0ZM131.3,218c0,.8-.9,1.6-1.7,1.6l-4.5.2c-.9,0-1.5-.7-1.4-1.5,0-.8.9-1.6,1.7-1.6l4.5-.2c.9,0,1.5.6,1.4,1.5h0Z"/>
      <path class="cls-7" d="M87.3,86.8c2.4-1.7-1.2-7.2-2.4-8.8-1-2.1-2.1-4.3-3.1-6.4,0-1.8-1.6-3.3-3.3-2.8-1.5-1.1-4-.6-4.7,1.1-16.4-7.1-44.7-4.1-46.2,17.7-3.2,6.2-6.3,12.5-9.1,18.8-3.9.2-5.8,4.9-3.5,7.9.3,4.9,3.5,5.3,7.7,5.1,1.7.4,3.5.7,4.7,2,1,1,1.6,2.2,2.3,3.4,2.9,5.5,6.6,10.3,11.7,14.1,7.8,5.8,18.4,9.9,28.1,7.1,20.9-8.2,25-40.6,17.8-59.3h0Z"/>
      <path class="cls-5" d="M43.6,55.1c13.7-3.1,29.1,1.1,38.6,11.5.7.7.6,1.7,0,2.3.3.2.5.4.8.7.3.2.2.7,0,1-.2.2-.7.3-1,0l-.3-.4c-.2-.2-.3-.4-.5-.6-.2,0-.4,0-.6.2,2.9,1.9,5.3,4.4,7,7.5,1.8,3.3,3,6.8,3.7,10.5,1.3,6.5,1.5,13.2,1.3,19.9v.3c-.2,8-1,16.1-4.4,23.5-2.7,5.9-7.6,11.3-13.7,13.9-3.5,1.5-7.3,2.1-11.1,1.9-2-.1-4-.4-6-.9h-.5c-1.8-.6-3.6-1.1-5.1-2.1-1.6-1-.5-3.1,1.2-2.9,2.1.3,4.1,1.2,6.1,1.6,2,.4,4.1.7,6.1.6,3.7-.1,7-1.2,10-3.2,11.6-7.7,13-23.2,13.3-35.7,0-6.1,0-12.3-1.5-18.3-1.4-5.7-3.7-11.4-7-16.3-.7.3-1.5.5-2.3.6-1.4.8-3.1.9-4.7.9h-.2c-1.7,0-3.4,0-5-.2-5.9-.5-12-1.8-17.9-1h-.2c-2.5.4-5.5,1.2-7.3,2.9-1.9,1.9-.6,5.4.9,6.5,1,.7,1.3,2.4,0,3-2.6,1.3-8.8.6-9.5,1.3-.8.9-.8,2.2-.8,3.3h0c0,3.3,0,6.5.3,9.7.3,3.1.9,6.2,1,9.3,0,1-1.2,1.3-1.9.8,0,0-.3-.2-.4-.3-1.2-.9-2.6-1.2-4.2-1.5,0,0-.1,0-.2,0h-.2c.3.5.6.9.8,1.4,0,0,0,.2-.2.2-2.1-1.2-4.4-1.8-6.8-1.2-2.2.4-4.1,1.8-4.8,4-.6,2-.2,4.3,1.2,6,1.9,2.4,5.1,2.2,7.9,2.3.6,0,1.2.3,1.4.8.3.6.3,1,0,1.7,0,0,0,.2-.1.2.2.2.5.4.7.6l.7.7,1.5,1.5c1.4,1.5,2.7,3.2,4,4.8v.2c1.6,2,3.1,4.9,5.7,5.5.9.2,1.7.7,1.9,1.6.3.9-.4,1.8-1.2,2.2-1.4.7-3.2-.1-4.4-1-2.5-1.9-4.2-4.9-5.7-7.5l-.4-.7c-.8-1.4-1.6-2.8-2.3-4.2-.4-.8-.8-1.6-1.2-2.5-.1-.2-.2-.5-.3-.7h-.3c-3.4.2-7.3-.3-9.8-2.9-3.4-3.5-3.8-9.8,0-13.2.4-.3.9-.7,1.4-.9-.7-1.2-1.2-2.5-1.5-3.8-.5-1.8-.8-3.7-.9-5.6-.3-3.9.2-7.8,1.1-11.5,3.5-13.6,13.9-24.8,27.8-28v-.2ZM18.9,111.4c-.7-3.9,7.1-1,8.8-.7h0c2,.3.9,3.7-1.1,2.6h0c-1-.6-2.2-1.1-3.3-1.5h-.2c-.9-.5-3.7-2.4-4.1-.4,0,0-.2,0-.2,0h.1Z"/>
      <path class="cls-5" d="M75.9,123.6c-.7.9-1.9,1.5-3.3,1.9-1.3.3-2.8.3-4-.2h0c-.9-.4-1.8-1.2-2.2-2,0-.3-.2-.7,0-1,0-.3.3-.5.6-.8h.4c.2,0,.3,0,.4.2.5.6,1.3,1.1,2.2,1.1s1.3-.3,1.9-.6l.4-.2c.4-.2.8-.4,1.2-.5.8-.2,1.7,0,2.3.6.2.2.4.5.5.8,0,.2,0,.5-.2.7h-.1ZM71.9,108.2c1.6.9,3.9,3.1,2.3,5.4-2,2-4.8-.3-6.2-1.4-1.3-.8-2.8,1.3-1.6,2.2,10.1,7.4,14.2-6.1,6.3-7.4-.9,0-1.2.8-.8,1.1h0ZM54.2,93.8h.5c0,0,.5-.2.5-.2h.3c2.1-.6,4.5-1.1,6.6-.9.8,0,1.4.5,1.5,1.3,0,.7-.4,1.5-1.1,1.7-2.5.4-5,.3-7.5.7s-2.5.4-3.7.7c-.9.2-1.9.2-2.9.4h.2s0,.2,0,0h-1c-.2,0-.3-.2,0-.3,1.2-.8,2.1-1.6,3.4-2.2,1.1-.4,2.2-.9,3.4-1.2h-.1ZM73.6,92.6c1.6-1.6,5.1-1,7-.3,1.1.4,2.2,1,3,1.8h0v.2c.7.6,1.4,1.4,1.3,2.2,0,0,0,.3-.2.3-.8,0-1.6-.3-2.3-.5l-.5-.2c-.7-.2-1.4-.5-2.2-.6-.9-.2-1.9-.3-2.8-.3s-2,.3-2.9,0c-1-.4-1.5-1.6-.7-2.5h.3ZM57.4,105.8c-.4.4-1,.7-1.7.5-.6,0-1.6-.7-2.4-1.5s-1.1-1.3-1.2-2.1c0-.2,0-.3-.3-.4,0,0-.2,0-.4,0,0,0-.3,0-.4,0-.2,0-.3.3-.3.4-.2,1.2.3,2.4,1.1,3.4,1,1.4,2.5,2.4,3.3,2.6,1.5.4,3,0,4.2-.9.9-.8,1.4-1.9,1.8-3v-.2c.2-.2.3-.5.4-.7.2-.5,0-.9,0-1.2-.2-.4-.6-.6-1.1-.7-.4,0-.9,0-1.2.3-.3.2-.5.6-.6,1.1,0,.8-.5,1.8-1,2.4h-.2ZM82.7,101.1c-.4-.2-.6-.2-1,0-.2,0-.4.2-.6.3-.2.2-.3.4-.3.6,0,.6-.4,1.1-.8,1.4s-.8.4-1.3.3c-.6,0-1.1-.4-1.4-.9,0,0-.2-.2-.3-.4h0c-.2-.4-.4-.7-.6-.9,0,0-.2,0-.4,0h-.2c-.6.6-.7,1-.6,1.4,0,.4.2.9.5,1.3.7,1,1.9,1.7,2.7,1.9,1.1.2,2.3,0,3.2-.7.9-.7,1.6-1.7,1.9-2.8v-.8c0-.2-.3-.5-.6-.6h-.2Z"/>
      <path class="cls-5" d="M53.4,129.2c1.7-3.9,5.3-6.7,9.5-7.7,3.1-.8,6.3-.7,9.5-.4,1.7.2,3.4.3,5,.9,1.3.5,2.4,1.5,3.2,2.6,1,1.4,1.6,2.9,2.1,4.5,0,.2,0,.4.2.7-.2,1.2-.6,2.2-1.8,3-1.1.7-2.4,1-3.7,1.1,0,0-.2-.1-.4-.2-2-1.2-3.5-3.9-6.1-3.5-2.3.3-3.8,3.2-5.2,4.9-4.4.5-8.8-.8-12.3-3.3-.2-.9-.2-1.7,0-2.6ZM85.9,126.2c-.4-1-.8-1.9-1.3-2.8-1.7-2.9-4.4-5.3-7.5-6.6-7.5-3.2-17.1-.9-23.2,4.2-2.1,1.8-4.1,4.4-4.8,7.2-.2,0-.4.1-.5.3-4.4-2.7-8.8-5.3-12.4-9.1-2.5-2.7-4.3-6-5.4-9.5,0-.3-.6-.2-.6,0v.2c0,0-.3,0-.3,0-.6,4.3-1.3,8.9-.6,13.2.4,2.6,1.6,4.5,3.2,6.5,1.7,2.2,3.6,4.2,5.6,6.2,1.3,1.2,2.6,2.7,4.1,3.6,1.8,1.1,3.8,1.9,5.7,2.7s3.9,1.6,5.9,2.3c4,1.3,8.1,2.3,12.3,2.7,3.4.3,7.2.7,10.4-.6,2.5-1,4.5-2.7,6.1-4.8,1.7-2.3,3.1-4.9,3.8-7.6.8-2.8-.5-7.7-.6-8.2h0Z"/>
    </g>
  </g>
</svg>