<?xml version="1.0" encoding="UTF-8"?><svg id="Layer_2" xmlns="http://www.w3.org/2000/svg" viewBox="0 0 645.59 907.51"><g id="Layer_1-2"><path d="M213.83,907.15c-62.7,1.5-125.1-1.7-187.2-10.3-1.9-.3-4,.3-6,.5-5.5-4.9-5.7-11.8-6-18.3-1.3-27.8.4-55.3,7.4-82.5,7.8-30.4,15.5-61,18.7-92.4,2.2-21.4,3.3-42.8,4.9-64.2,3.4-46,21.9-86.2,46.9-123.9,31.9-48,69.6-90.3,119.4-120.6,4.6-2.8,9-5.8,14-7.9,3.3-1.7,6.5-3.4,9.5-5.6,5.5-3.3,9.2.1,13,3.4,13.9,12.3,27.5,24.8,40.6,37.9,13.1,13.2,27.7,24.6,45.2,31.8,3.4,1.4,6.8,3,10.5,3.4,2.1.3,4.5.4,5.5-1.7,1.4-3-1-4.6-3.2-5.7-7.7-3.8-15.8-6.8-23.3-11.4-18-11.2-33.1-25.9-48.9-39.6-6.6-5.7-13.4-11-21-15.1-5.9-3.2-12.2-7.7-19.5-2.8-3,2.1-6.3,3.7-9.5,5.4-25.6,14.5-50.2,30.4-72.2,50.1-3.9,3.5-7.7,8.3-13.9,5.6-6.2-2.7-7.4-8.4-7.6-14.5-.4-12.9-.8-25.7,5.6-37.6,8.2-15.1,19.7-25.2,37.8-26.3,13.9-.8,27.1-4.5,31.8-19.3,8.2-25.9,35.2-33.2,59.6-31.8,8.2,2.5,16.6,1.2,25,.9,19.1,8.6,21,13.5,16.6,41.7-6.1,3.9-3.2,7.8,0,11.7,16.3,24.2,36.4,44.6,59.8,62,16.8,12.5,22.7,12.5,39.2-.7,16.6-13.3,29.1-30.2,41.4-47.3,3.3-4.7,4.5-9.6,1.6-15-3.5-6.5-2.2-11.7,4.4-15.7,6.6-4.1,12.9-7.5,20.2-1.3,10.3,8.7,19.2,18.6,21.9,32,1.6,8.4,5.8,13.2,13.3,16l-.3-.3c3.4,3,7.3,5.4,10.9,8.2,29.6,26.3,47.8,59.8,60.9,96.4,12.8,35.6,19.2,72.7,21.2,110.5,4,76,10.5,151.6,25.6,226.3,3.5,17.3,4.8,35.1,5.2,52.8-17.7.9-35.4-2-53-1.7-56,.9-112,3-168,4.7-6.5.2-13.1,1.4-19.6,2.1-6.4-12.5-3.6-25.9-3-38.8,1.7-34.2,4.3-68.4,4.3-102.7s2.7-25.9,25.4-25.9,21.5-.1,32.2-.4c1.2,0,2.5-.2,4.4-1-14.1-2.8-27.2,1.9-40.5,1.5-18.9-.5-21.4-2.4-21.5-21.5-.2-36.8-.3-73.6,0-110.4.3-33.5-1.9-66.9-4.6-100.2-.5-5.9.6-11.5.9-17.3,0-7.3.3-14.6-.5-21.9-.3,3.2.8,6.3.5,9.5-2.6,53.5-3,107-4.2,160.5-.6,27.1-1.4,54.3-1.8,81.5-.3,20.2-1.6,21.6-21.9,21.9-11.5.3-23-1-34.4.8-1.3.4-2.6.7-4,.9-4.5.6-9.1.4-13.5,2-4.3,1-8.7,1-13.2,1-1.7.1-3.5,0-5.2,0-6.3-.6-8.3,2.8-8,8.5-3.7,31.9-20.3,57-43.1,78.1-10.2,9.4-17.1,19.7-19.7,33.1-3,17.1-10.9,33.1-7,50.9h0Z" style="fill:#9ed7e4; stroke-width:0px;"/><path d="M305.33,358.25c0-4.4-1.1-9.2,0-13.3,4.6-14.8-3.7-22.1-14.8-28.2-8.3,1.2-16.5,1.4-24.7,0-12.2-.8-23.7,2.6-35.1,6.3-10.3,3.3-16.4,10.9-19.7,20.8-5.4,16.1-16.3,23.2-33.2,24.5-31.8,2.4-53.4,36.6-43.4,67.2,2.9,8.7,7.4,7.8,13.5,2.2,23.2-21.3,48.9-39.2,77.8-52,2.7-1.2,3,.2,2.6,2.4-62.6,37.3-109.8,89.2-146.6,151.6-19.1,32.3-31.5,66.8-33,104.1-2.3,57.3-13,113.1-26.4,168.6-6.8,28-7.3,56.5-1.9,84.9-1.7,4.4-4.9,6.7-9.6,5.9-5.5-1-6.6-6-7.6-10.3-6.1-26.9-2.7-53.5,3.1-79.9,9.2-41.9,22.2-83.1,25.2-126.3,1.9-27.6,3.1-55.4,9.6-82.5,13.1-54.7,45.6-98.4,80.7-140.5,5.5-6.6,11.1-9.7,3.8-22-19.8-33.3,12.8-84.3,52.2-84.5,10.6,0,18-3.2,21.3-13.1,8.2-24.8,27-33.7,51.1-36.1,9.9-1,19.8-1.1,30.6-1-5-9.4-9.9-18.2-14.3-27.1-1.7-3.4-3.6-1.8-6-1.5-22.8,2.3-41.2-9.8-39-31.9,3.2-32.1-10.3-61-11.7-91.9-1.2-26.2-1-52.1,3.9-77.9,2.2-11.4,8.3-19.9,16.8-28C290.53-8.85,360.53-8.05,433.83,13.55c23.3,6.9,45.7,16.8,68.8,24.6,9.6,3.2,10.1,7.9,5.7,15.5-4.6,7.9-9.3,14.8-3.3,25.4,4.2,7.4-3.4,14.7-10.1,19.2-5.5,3.6-6.3,7.1-4.5,13.4,4.2,14.3,7.9,28.7,10.6,43.3,1.4,7.4,4.7,10.9,11.9,11.3,10.3.7,11.7,4.9,11.8,15.9.3,28.9-10.9,55.5-12.8,83.9-2.1,30-17.1,55.7-40.1,77.8,23.8,10.9,34.4,30.3,37.5,54.5-9.3,1.7-14.7-.8-15.5-11.6-.9-12.5-8.2-22.3-17.1-30.6-9-8.5-16.9-8.1-25.2.6-3.7,3.9-1.2,7.2,1.1,9.8,4.6,5.1,3.1,9.6,0,14.5-13.6,20.9-29.6,39.6-49,55.4-9.6,7.8-19.8,9.9-30.5,2.1-26.5-19.3-50.5-41-67.9-69.3-.8-2.4.5-3.5,2.5-4.2,6.7,0,10.1,5.1,14.1,9.1,16,16.2,32,32.3,50.6,45.6,13.5,9.6,17.8,9.3,30-2.2,10.6-10,19.4-21.5,28.1-33,2.8-3.7,5.5-7.8,3.1-12.5-2.9-5.6-8.1-2.9-12.2-2-19.9,4.2-38.7,1.2-56.5-8.2-6.8-3.6-17.1-9.8-13.7-16.7,4.2-8.3,13.1.3,19.4,2.9,41.2,16.9,87.3.8,111.3-39.4,9.5-15.8,15.2-33,18.1-51.2,1.1-7.3,0-11.5-8.6-10.1-3.7.6-7.6.7-11.1-.7-11.7-4.6-21-4.5-30.2,6.6-6.5,7.9-25.7,3.5-32.4-5.2-2.3-3-2.8-6-.6-9.1,2.1-3.1,5.2-3.8,8.8-2.5,3.1,1.1,5.9,3.1,8.9,4.3,3.2,1.3,6.5,2.1,9.1-1.1,2.4-3,2.1-6.7-.2-9.2-5.8-6.3-4.7-13.5-4.4-21,.2-6.1.4-13-8.7-13.6-8.3-.6-11.4,3.6-12.9,11.5-4.9,26.4-17.5,40-38.4,42.5-27.1,3.3-47.1-7.5-58.6-31.8-6.3-13.1-21.5-21.4-36.1-20.3-6.3.5-10.5,1.8-9.7,9.3,1,9.3-4,11.1-11.4,7.7-7.9-3.6-15-4.5-21.3,2.9-6.8,8-8.3,25-3,35.4,4.4,8.7,11.5,11.4,20.7,9.3,7.7-1.7,11.8,1.2,15.3,8.5,9.9,20.3,22.8,38.5,43.4,49.5,8.6,4.6,8.7,11.8,6.5,19.1-2.8,9.2-7.5,17.5-16.6,22.2-2.5,0-3.9-.7-3.2-3.3v-.1Z" style="fill:#000; stroke-width:0px;"/><path d="M290.73,733.65c1.7,0,3.4,0,5.1.1,10.7,3.3,21.2-.8,31.8-.6,17.6.4,35.4-3.2,52.8,2.3,5.3,10.2,5.7,21.5,5.7,32.4,0,39,3,77.9,3.7,116.9,0,5.9,2.2,12.4-2.8,17.6-5-7.6-12.6-4.5-19.1-4-48.3,3.3-96.5,8.3-145.1,6.5,4-28.8,5.6-57.8,28.3-80.8,22.6-22.9,33.5-51.7,32.5-84.4.6-4.3,4.6-4.3,7.1-6Z" style="fill:#9ed7e4; stroke-width:0px;"/><path d="M632.83,892.35c-7.9-10.5-4.1-23.2-6.1-34.8-6.7-39-13.3-78.1-18.8-117.3-6.3-44.6-5.9-89.8-9.9-134.7-5.6-61.7-19.5-120.6-57.5-171.4-7.4-9.9-16.2-18.7-24.3-28-.5-2.6,0-4.1,3.1-3.1,20.3,10.8,34.5,27.9,47.1,46.5,27.1,40,38.2,85.5,44.3,132.7,7.2,55.8,6.5,112.3,14.7,168,5.1,34.3,14.9,67.8,18.5,102.4,1,9.4,1.1,19,1.6,28.5.6,9.1-3.4,13.2-12.7,11.2h0Z" style="fill:#000; stroke-width:0px;"/><path d="M386.93,902.25c-2.3-55.4-4.6-110.7-7-166.1-12.4-2.8-25-.4-37.4-1.4-3.5-.3-8.4,2.6-10.2-3.4,9.4-3.8,19.4.6,28.8-2.5,19.2.5,18.9.5,19.1-17.5,1.3-81.8-.5-163.8,7.4-245.4,7.5,2,.8,8.9,4.2,12.3,6.7,78.3,5.8,156.8,5.7,235.3,0,11,2.4,14.3,13.6,12.8,15.1-2,30.4-2.2,45.7-2.9,3.8-.2,9.6-1.6,9.7,4.4,0,5.7-5.9,4.9-9.6,5.1-16.9.7-33.8,1.1-50.7,1.3-5.3.1-8.3.9-8.5,7.3-1.7,52-3.7,103.9-5.6,155.9-.2,2-.2,4-.8,5.9-.4,1.4-1.6,3.7-2.2,3.6-2.5-.4-1.5-3-2.2-4.7h0Z" style="fill:#000101; stroke-width:0px;"/><path d="M285.33,739.15c4,31.2-6,58.8-26.9,80.8-18.2,19.2-26.6,40.9-29.8,66-.8,6.5-2.4,13-5.8,18.8-2.3,3.5-5.7,2.7-9,2.4-5.3-4.5-6.2-10-4.6-16.6,3.4-13.5,6.6-27.1,9.8-40.7,2.6-11.3,9.3-19.7,17.8-27.3,23.4-21.2,41-45.9,44.3-78.5,1.8-1.3-.8-6.5,4.2-4.9Z" style="fill:#010101; stroke-width:0px;"/><path d="M519.33,403.15c-1,1-2.1,2-3.1,3.1-3.3-1.9-6.7-3.7-7.2-8,4.4-.6,7.5,1.9,10.3,4.9Z" style="fill:#181a1a; stroke-width:0px;"/><path d="M558.23,585.35c-1,63.2,6.7,125.3,21.8,186.6,7.3,29.7,13.6,59.7,15.7,90.2.5,7.6,3.9,19.5-7.7,20.1-11.7.6-9.1-11.2-9.8-19-3.5-41.3-12.2-81.7-20.9-122.1-9.7-45.3-11.9-90.8-8.1-136.9,1.9-23.1,2.8-46.2,4.3-69.3.2-3.3-2-7.6,2.6-9.9,2.7,15.1.5,30.3,1.2,45.5.3,5-.8,9.9.9,14.8h0Z" style="fill:#010101; stroke-width:0px;"/><path d="M153.83,629.55c12.7,17.4,17,37.7,18,58.6,2.2,45.6-3.6,90.8-5.7,136.2-1,20.6-2.7,41.2-4.1,61.9-.2,2.5,0,5-.5,7.4-1.3,5.6-4.1,11-10.4,10-5.4-.8-7.5-5.9-7.2-11.5,1-18.2,1.9-36.3,3.1-54.5,2.6-42.1,5.1-84.2,8.2-126.2,1.9-27.2-.9-54.3-1.4-81.9Z" style="fill:#000101; stroke-width:0px;"/><path d="M480.43,742.05c13.7,18.8,31,34.2,48,49.9,5.9,5.4,8.8,13.2,10,20.9,3.2,19.5,5.8,39.1,8.1,58.7.7,5.5,1.7,12.9-6.4,13.8-8.6.9-9.2-6.8-9.9-12.9-1.7-14.3-3.1-28.7-4.3-43-1.2-14.9-6-27.7-17.9-37.9-12.9-11.2-22.1-25.5-28.5-41.3-.8-2.2-4-5,.9-8.2h0Z" style="fill:#010101; stroke-width:0px;"/><path d="M233.63,381.05c6.2-6.3,12.6-3.7,18.9-.3,16.6,8.9,29.8,22.1,43.7,34.3,15.6,13.7,31.6,26.6,51.8,32.9,4.7,1.5,10.3,4.3,8.1,10.3-2.3,6.3-8.2,5.5-13.8,3.7-22.6-7.3-40.6-21.7-57.5-37.7-12.3-11.6-24.3-23.6-36.5-35.4-3.5-3.3-6.6-7.7-12.6-5.5-2.3.9-2.8-.1-2.1-2.3Z" style="fill:#010202; stroke-width:0px;"/><path d="M558.23,585.35c-3.1-20-1-40.2-2.1-60.2.8-9.5-3.9-18.9-1.3-28.4,1.1,0,2.3-.1,3.4-.1v88.7h0Z" style="fill:#83b3be; stroke-width:0px;"/><path d="M333.13,731.45c10.9,4.8,22.3.8,33.4,2.2,4.5.6,9.8-2.4,13.5,2.5-23.9,0-47.7.2-71.6,0-4.2,0-9.1,2-12.6-2.4,4.7-.1,9.3-.2,14-.3,4.1-2.1,8.8.1,12.9-1.7.9-.3,1.9-.7,2.8-1,2.6.3,5.2-1,7.6.7h0Z" style="fill:#506e75; stroke-width:0px;"/><path d="M333.13,731.45c-2.6.6-5.2,1.4-7.5-.8,11.7-4.1,23.7-1.2,35.6-1.7-9.1,3.4-18.8,1-28.1,2.5Z" style="fill:#9ed7e4; stroke-width:0px;"/><path d="M392.03,478.25c-3.4-3.4-.4-9-4.2-12.3-.8-2.8-1.1-5.6,1-8.8,4.7,6.8,3.8,13.9,3.2,21.1Z" style="fill:#668c95; stroke-width:0px;"/><path d="M265.93,316.75c8.3-.7,16.5-1.8,24.7,0-8.2,3.3-16.5,3.4-24.7,0Z" style="fill:#b6dee6; stroke-width:0px;"/><path d="M305.33,358.25c.8.9,1.6,1.8,2.4,2.6,1.6,1.4,1.8,3,.8,4.9-1.2,1.1-2.3,2.3-3.5,3.4-2.9-2.7-6-5.7-5.2-9.9.6-2.1,3.7-.7,5.5-1h0Z" style="fill:#19282b; stroke-width:0px;"/><path d="M285.33,739.15c-1.4,1.6-2.8,3.2-4.2,4.8-1.9-8.2,2.4-10.6,9.6-10.3-1.8,1.8-3.6,3.7-5.4,5.5Z" style="fill:#7098a2; stroke-width:0px;"/><path d="M233.63,381.05l2.3,2.3c-1.5,3-4.4,4-7.4,4.8-.9-.8-1.8-1.6-2.6-2.4,2.5-1.6,5.1-3.2,7.7-4.7h0Z" style="fill:#243134; stroke-width:0px;"/><path d="M322.73,731.65c-3.9,3.4-8.6,1.5-12.9,1.7,4.1-2.6,8.5-1.9,12.9-1.7Z" style="fill:#527178; stroke-width:0px;"/><path d="M308.63,365.85c-.3-1.6-.6-3.3-.8-4.9,6.8-9.1,15.9-17,15.8-29.9,0-3.5,0-5.6-4.2-7.5-23.8-10.7-38.1-30.8-48.4-53.6-2.7-6-4.5-6.2-9.6-5.1-16.6,3.6-24.9-2-28-18.6-.3-1.6-.8-3.3-.8-4.9,0-11.4.7-22.8,11.1-30.1,9.8-6.8,18.7-1.9,26.7,4.4,1.1-1.2,2-1.8,2.1-2.4,1.3-6-5-16.5,1.5-17.2,9.5-.9,18.8-5.8,30.8,2.2,11.3,7.6,16.5,16.7,22.9,26.9,11.1,17.9,33.6,26.2,54.2,21.1,19.2-4.7,30.6-18.9,33.2-41.4,1.3-11.1,16.1-18.9,23.9-11.6,6.1,5.7,5.9,17.6,3.4,22.8-3,6.1-.2,6.4,2.3,8.9,5,5.1,8.7,10.9,3.6,17.5-5.4,7-11.8,3.4-17.7,0-2.1-1.2-4.1-2.8-6.2-4.1-2.6-1.7-4.8-.9-6.4,1.3-1.7,2.4-.5,4.5,1.3,6.6,11.1,12.5,30.7,10.6,37.3-4.2,2.3-5.1,3-6.1,8.3-3.5,10.1,4.9,21.1,7.5,32.4,4.3,4.9-1.4,6.8,0,6.5,5.2-2.5,47.1-32.2,105.2-94.7,109.7-16.4,1.2-31.9-3.1-46.7-10.3-3.5-1.7-6.5-5.3-12.1-3.5,5.9,11.4,16.2,16.1,26.8,19.8,16.4,5.8,33.2,5.7,50.1,2.2,3-.6,7.7-4,8.7-.1,1.2,4.6,5.3,9.5,1.3,15.1-12.3,17.3-26.3,33-42.3,46.8-6.1,5.3-12,3.2-18-.9-19.1-13.2-36-29-52.5-45.4-5.3-5.1-10.6-10.4-15.8-15.6h0Z" style="fill:#fedab3; stroke-width:0px;"/><path d="M219.13,130.65c0-5.8.3-11.6,0-17.4-3.2-51.1,37.6-84.1,75.2-94.4,47.9-13.2,95.3-13.8,142.2,4.7,18.4,7.3,37,14.1,55.8,20.2,8.9,2.9,8.7,6.7,4,12.9-2.2,3-4.3,6.1-6.5,9-3.5,4.5-5.8,8.5,2.3,10.8,3.9,1.1,4.9,4.7,2.6,7.9-1.8,2.6-4.4,5.9-7.1,6.4-4.8,1-3.7-4.4-4.5-6.9-4.9-14.8-13.7-19.2-28.1-13.2-1.1.5-2.4.9-3.3,1.7-18.6,18.6-37.3,13.4-58.4,3.1-26.6-13-55.7-14.5-84.7-7.9-14.5,3.3-26.6,10.8-35.9,22.7-13.7,17.6-14.7,32.6-1.9,51,3.7,5.4,4.2,8.7,0,13.7-3.1,3.7-6.6,8.6-6.6,13,0,15.5-9,16.1-20.8,15.7-20.1-.7-20.4-.2-22.7-19.9-1.3-11.1-1.6-22.2-2.3-33.4.3.3.5.3.8.3h-.1Z" style="fill:#ebdbbe; stroke-width:0px;"/><path d="M489.43,162.85c-8.5-5.2-17.1-11-27.3-12.7-4.4-.8-10.9-4.2-12.4,3.1-1.5,7.5,5.7,6.2,10.2,7.2,2.4.5,4.7,1.3,7.6,2.2-40.4,17.5-54.1,18-99.7,4.1,7-3.7,14.2-3.7,21.4-3.9,3.4,0,7-1,6.7-5.4-.2-4-3.3-5.3-7-5.5-10.8-.5-19.9,4-29,9.2-25.6,14.6-53.1,23-82.9,22.7-6.5,0-7.6-2.5-6.4-8.3,1.4-6.7,4.2-12.5,8.7-17.5,5.2-5.7,5.4-11.2,1.2-17.9-15.7-24.7-9.3-46.1,18.2-59,26.1-12.2,53.2-9.7,79.8-1.5,9.4,2.9,18.6,7,27.4,11.3,14.9,7.4,28.6,6.3,41.5-4.4,2.2-1.8,4.6-3.6,7-5.1,11.2-6.8,14.4-5.7,17.8,6.8,6.1,22.3,11.9,44.7,17.7,67,.7,2.4,2.2,4.7-.5,7.6h0Z" style="fill:#fedab3; stroke-width:0px;"/><path d="M399.43,188.85c0,2.9-2.1,4.9-3.6,4-4.3-2.6-9.9-4.1-12.2-9.1-.7-1.6,1.5-3.9,3.9-3.6,5.6.7,9.6,3.9,11.9,8.7h0Z" style="fill:#e2c3a0; stroke-width:0px;"/><path d="M245.93,199.35c-4.2,1.5-8.4,2.8-12.4,4.6-2.1.9-3.4,4.4-6,2.7-1.2-.8-1.1-3.6-1.3-5.5-.5-4.3,2.8-4.3,5.6-4.5,2,0,4.1,0,6.1.2,2.9,0,6.8-3.3,8,2.5h0Z" style="fill:#d7c8ae; stroke-width:0px;"/><path d="M245.93,199.35c-2.7-.9-5.4-1.7-8.1-2.6,8.3-1.2,16.7-4.5,24.9.7-3.3,4-8-.5-11.6,1.9h-5.2Z" style="fill:#b1a58f; stroke-width:0px;"/><path d="M251.13,199.35c3.4-3.2,7.7-1.4,11.6-1.9.3,3.1,4.8,9.4-4.1,5-2.4-1.2-5-2.1-7.5-3.1Z" style="fill:#f0e0c2; stroke-width:0px;"/><path d="M455.63,275.45c1.2,13.9-7.6,23-21.1,24.2-10.6.9-19.3-2.6-26.4-10.4-2.4-2.7-3.3-5.9-1-9,1.9-2.6,5.4-3.6,7.6-1.3,14.4,16.3,27.8,10.7,40.9-3.5h0Z" style="fill:#050404; stroke-width:0px;"/><path d="M238.23,234.35c10.5-7.2,26-7.6,33.8-1.4,3.1,2.5,5.7,5.4,3.1,9.4-2.5,3.7-5.9,2.1-8.6,0-8-6.3-17.5-7.9-28.3-8Z" style="fill:#090806; stroke-width:0px;"/></g></svg>