<?xml version="1.0" encoding="UTF-8"?>
<svg id="Layer_1" data-name="Layer 1" xmlns="http://www.w3.org/2000/svg" version="1.1" xmlns:xlink="http://www.w3.org/1999/xlink" viewBox="0 0 258 226">
  <defs>
    <style>
      .cls-1 {
        fill: #e2c3a0;
      }

      .cls-1, .cls-2, .cls-3, .cls-4, .cls-5, .cls-6, .cls-7, .cls-8, .cls-9, .cls-10, .cls-11, .cls-12, .cls-13, .cls-14, .cls-15, .cls-16, .cls-17, .cls-18, .cls-19, .cls-20, .cls-21, .cls-22, .cls-23, .cls-24 {
        stroke-width: 0px;
      }

      .cls-2 {
        fill: #000;
      }

      .cls-3 {
        fill: #ebdbbe;
      }

      .cls-4 {
        fill: #506e75;
      }

      .cls-5 {
        fill: #fedab3;
      }

      .cls-6 {
        fill: #d7c8ae;
      }

      .cls-7 {
        fill: #243134;
      }

      .cls-8 {
        fill: #19282b;
      }

      .cls-9 {
        fill: none;
      }

      .cls-10 {
        fill: #83b3be;
      }

      .cls-11 {
        fill: #9ed7e4;
      }

      .cls-25 {
        fill: #a0a9eb;
        stroke: #2a2a2a;
      }

      .cls-12 {
        fill: #010202;
      }

      .cls-13 {
        fill: #010101;
      }

      .cls-14 {
        fill: #b1a58f;
      }

      .cls-15 {
        fill: #000101;
      }

      .cls-16 {
        fill: #668c95;
      }

      .cls-26 {
        clip-path: url(#clippath);
      }

      .cls-17 {
        fill: #f0e0c2;
      }

      .cls-18 {
        fill: #527178;
      }

      .cls-19 {
        fill: #181a1a;
      }

      .cls-20 {
        fill: #090806;
      }

      .cls-21 {
        fill: #2a2a2a;
      }

      .cls-22 {
        fill: #050404;
      }

      .cls-23 {
        fill: #7098a2;
      }

      .cls-24 {
        fill: #b6dee6;
      }
    </style>
    <clipPath id="clippath">
      <path class="cls-9" d="M1.1,36h256v169.6c0,10.9-6.7,19.7-15,19.7H16.1c-8.3,0-15-8.8-15-19.7V36Z"/>
    </clipPath>
  </defs>
  <rect class="cls-25" x="1" y="81.4" width="256" height="144" rx="15" ry="15"/>
  <path class="cls-21" d="M131.1,144.8h5.7v2.9h-5.7v5.3h-3.6v-14.3h10.6v2.9h-7v3.1h0ZM151.4,147.8c0,3.6-1.7,5.5-6,5.5s-6-1.9-6-5.5v-9.1h3.6v9.1c0,1.9.8,2.5,2.4,2.5s2.4-.7,2.4-2.5v-9.1h3.6v9.1ZM153.2,138.7h3.6v11.4h6.4v2.9h-10v-14.3h0ZM164.5,138.7h3.6v11.4h6.4v2.9h-10v-14.3h0ZM185.3,144.1c2.7.7,5.5,1.6,5.5,4.7s-2.1,4.5-5.7,4.5-6.5-1.8-6.5-5h3.6c0,1.5,1.3,2.1,2.9,2.1s2.1-.5,2.1-1.2c0-1.1-1.5-1.4-3.6-2-2.5-.7-4.6-1.8-4.6-4.4s2.4-4.3,5.5-4.3,6,1.8,6.1,4.7h-3.6c-.2-1.1-1.1-1.7-2.5-1.7s-1.9.3-1.9,1.1.9,1.2,2.7,1.7v-.2ZM195.2,153v-11.4h-4.2v-2.9h11.9v2.9h-4.1v11.4h-3.6,0ZM210.9,150h-4.9l-.9,3h-3.6l5.2-14.3h3.6l5.2,14.3h-3.6l-.9-3h-.1ZM206.8,147.3h3.3l-1.6-5.3h0l-1.6,5.3h0ZM224.6,144c-.3-1.6-1-2.7-2.9-2.7s-3.2,1.8-3.2,4.5.8,4.5,3.2,4.5,2.6-1.1,2.9-2.7h3.6c-.3,3.4-2.4,5.7-6.3,5.7s-6.9-3.2-6.9-7.5,2.4-7.5,6.9-7.5,6,2.3,6.3,5.6h-3.6ZM229.5,138.7h3.6v5.8l5-5.8h4.2l-5.4,6.3,5.6,8h-4.2l-3.7-5.4-1.4,1.6v3.8h-3.6v-14.3h-.1ZM127.5,173v-14.3h6.3c4,0,6.4,2.6,6.4,7.2s-2.2,7.1-6.2,7.1h-6.5ZM131.1,161.6v8.4h2.4c2.2,0,3.1-1.6,3.1-4.2s-.9-4.2-3.1-4.2h-2.4ZM145.2,164.2h6.2v2.9h-6.2v2.9h7.4v2.9h-11v-14.3h10.8v2.9h-7.2v2.7ZM153.1,158.7h3.8l2.7,10h0l2.7-10h3.8l-4.6,14.3h-3.8l-4.6-14.3h0ZM170.8,164.2h6.2v2.9h-6.2v2.9h7.4v2.9h-11v-14.3h10.8v2.9h-7.2v2.7ZM179.7,158.7h3.6v11.4h6.4v2.9h-10v-14.3h0ZM197,173.3c-4.5,0-7.1-3.2-7.1-7.5s2.5-7.5,7.1-7.5,7.1,3.2,7.1,7.5-2.6,7.5-7.1,7.5ZM197,170.4c2.6,0,3.5-2,3.5-4.5s-.9-4.5-3.5-4.5-3.5,2-3.5,4.5.9,4.5,3.5,4.5ZM205.5,173v-14.3h6.9c3,0,4.8,1.6,4.8,4.6s-1.9,4.6-4.8,4.6h-3.3v5.2h-3.6,0ZM209.1,161.6v3.2h2.6c1.2,0,2-.4,2-1.6s-.8-1.6-2-1.6h-2.6ZM222.1,164.2h6.2v2.9h-6.2v2.9h7.4v2.9h-11v-14.3h10.8v2.9h-7.2v2.7ZM231.1,173v-14.3h6.7c3.2,0,5.1,1.5,5.1,4.2s-1.1,3.1-2.9,3.5h0c3.6.7,2.3,6.2,3.1,6.4v.2h-3.7c-.7-.6.6-5-2.5-5h-2.2v5h-3.6ZM234.7,161.6v3.4h2.4c1.4,0,2.2-.5,2.2-1.7s-.8-1.7-2.2-1.7h-2.4Z"/>
  <g class="cls-26">
    <g>
      <path class="cls-11" d="M15.2,251.9c-14.4.3-28.7-.4-42.9-2.4-.4,0-.9,0-1.4.1-1.3-1.1-1.3-2.7-1.4-4.2-.3-6.4,0-12.7,1.7-18.9,1.8-7,3.6-14,4.3-21.2.5-4.9.8-9.8,1.1-14.7.8-10.5,5-19.8,10.8-28.4,7.3-11,16-20.7,27.4-27.6,1.1-.6,2.1-1.3,3.2-1.8.8-.4,1.5-.8,2.2-1.3,1.3-.8,2.1,0,3,.8,3.2,2.8,6.3,5.7,9.3,8.7s6.3,5.6,10.4,7.3c.8.3,1.6.7,2.4.8.5,0,1,0,1.3-.4.3-.7-.2-1.1-.7-1.3-1.8-.9-3.6-1.6-5.3-2.6-4.1-2.6-7.6-5.9-11.2-9.1-1.5-1.3-3.1-2.5-4.8-3.5-1.4-.7-2.8-1.8-4.5-.6-.7.5-1.4.8-2.2,1.2-5.9,3.3-11.5,7-16.6,11.5-.9.8-1.8,1.9-3.2,1.3-1.4-.6-1.7-1.9-1.7-3.3,0-3-.2-5.9,1.3-8.6,1.9-3.5,4.5-5.8,8.7-6,3.2-.2,6.2-1,7.3-4.4,1.9-5.9,8.1-7.6,13.7-7.3,1.9.6,3.8.3,5.7.2,4.4,2,4.8,3.1,3.8,9.6-1.4.9-.7,1.8,0,2.7,3.7,5.5,8.3,10.2,13.7,14.2,3.9,2.9,5.2,2.9,9-.2,3.8-3,6.7-6.9,9.5-10.8.8-1.1,1-2.2.4-3.4-.8-1.5-.5-2.7,1-3.6s3-1.7,4.6-.3c2.4,2,4.4,4.3,5,7.3.4,1.9,1.3,3,3,3.7h0c.8.6,1.7,1.2,2.5,1.8,6.8,6,11,13.7,14,22.1,2.9,8.2,4.4,16.7,4.9,25.3.9,17.4,2.4,34.7,5.9,51.9.8,4,1.1,8,1.2,12.1-4.1.2-8.1-.5-12.1-.4-12.8.2-25.7.7-38.5,1.1-1.5,0-3,.3-4.5.5-1.5-2.9-.8-5.9-.7-8.9.4-7.8,1-15.7,1-23.5s.6-5.9,5.8-5.9h7.4c.3,0,.6,0,1-.2-3.2-.6-6.2.4-9.3.3-4.3-.1-4.9-.6-4.9-4.9v-25.3c0-7.7-.4-15.3-1.1-23,0-1.4,0-2.6.2-4,0-1.7,0-3.3,0-5,0,.7.2,1.4,0,2.2-.6,12.3-.7,24.5-1,36.8,0,6.2-.3,12.4-.4,18.7,0,4.6-.4,5-5,5s-5.3-.2-7.9.2c-.3,0-.6.2-.9.2-1,.1-2.1,0-3.1.5-1,.2-2,.2-3,.2h-1.2c-1.4-.1-1.9.6-1.8,1.9-.8,7.3-4.7,13.1-9.9,17.9-2.3,2.2-3.9,4.5-4.5,7.6-.7,3.9-2.5,7.6-1.6,11.7l-.4-.4Z"/>
      <path class="cls-2" d="M36.1,126.1c0-1-.3-2.1,0-3,1.1-3.4-.8-5.1-3.4-6.5-1.9.3-3.8.3-5.7,0-2.8-.2-5.4.6-8,1.4-2.4.8-3.8,2.5-4.5,4.8-1.2,3.7-3.7,5.3-7.6,5.6-7.3.6-12.2,8.4-9.9,15.4.7,2,1.7,1.8,3.1.5,5.3-4.9,11.2-9,17.8-11.9.6-.3.7,0,.6.6-14.4,8.5-25.2,20.4-33.6,34.7-4.4,7.4-7.2,15.3-7.6,23.9-.5,13.1-3,25.9-6.1,38.6-1.6,6.4-1.7,12.9-.4,19.5-.4,1-1.1,1.5-2.2,1.4-1.3-.2-1.5-1.4-1.7-2.4-1.4-6.2-.6-12.3.7-18.3,2.1-9.6,5.1-19,5.8-28.9.4-6.3.7-12.7,2.2-18.9,3-12.5,10.5-22.6,18.5-32.2,1.3-1.5,2.5-2.2.9-5-4.5-7.6,2.9-19.3,12-19.4,2.4,0,4.1-.7,4.9-3,1.9-5.7,6.2-7.7,11.7-8.3,2.3-.2,4.5-.3,7-.2-1.1-2.2-2.3-4.2-3.3-6.2-.4-.8-.8-.4-1.4-.3-5.2.5-9.4-2.2-8.9-7.3.7-7.4-2.4-14-2.7-21.1-.3-6-.2-11.9.9-17.9.5-2.6,1.9-4.6,3.9-6.4,13.8-13.2,29.8-13,46.6-8.1,5.3,1.6,10.5,3.9,15.8,5.6,2.2.7,2.3,1.8,1.3,3.6-1.1,1.8-2.1,3.4-.8,5.8,1,1.7-.8,3.4-2.3,4.4-1.3.8-1.4,1.6-1,3.1,1,3.3,1.8,6.6,2.4,9.9.3,1.7,1.1,2.5,2.7,2.6,2.4.2,2.7,1.1,2.7,3.6,0,6.6-2.5,12.7-2.9,19.2-.5,6.9-3.9,12.8-9.2,17.8,5.5,2.5,7.9,6.9,8.6,12.5-2.1.4-3.4-.2-3.6-2.7-.2-2.9-1.9-5.1-3.9-7-2.1-1.9-3.9-1.9-5.8,0-.8.9-.3,1.7.3,2.2,1.1,1.2.7,2.2,0,3.3-3.1,4.8-6.8,9.1-11.2,12.7-2.2,1.8-4.5,2.3-7,.5-6.1-4.4-11.6-9.4-15.6-15.9-.2-.6,0-.8.6-1,1.5,0,2.3,1.2,3.2,2.1,3.7,3.7,7.3,7.4,11.6,10.5,3.1,2.2,4.1,2.1,6.9-.5,2.4-2.3,4.4-4.9,6.4-7.6.6-.8,1.3-1.8.7-2.9-.7-1.3-1.9-.7-2.8-.5-4.6,1-8.9.3-13-1.9-1.6-.8-3.9-2.2-3.1-3.8,1-1.9,3,0,4.4.7,9.4,3.9,20,.2,25.5-9,2.2-3.6,3.5-7.6,4.1-11.7.3-1.7,0-2.6-2-2.3-.8,0-1.7.2-2.5-.2-2.7-1.1-4.8-1-6.9,1.5-1.5,1.8-5.9.8-7.4-1.2-.5-.7-.6-1.4,0-2.1s1.2-.9,2-.6c.7.3,1.4.7,2,1,.7.3,1.5.5,2.1-.3.6-.7.5-1.5,0-2.1-1.3-1.4-1.1-3.1-1-4.8,0-1.4,0-3-2-3.1-1.9,0-2.6.8-3,2.6-1.1,6.1-4,9.2-8.8,9.7-6.2.8-10.8-1.7-13.4-7.3-1.4-3-4.9-4.9-8.3-4.7-1.4,0-2.4.4-2.2,2.1.2,2.1-.9,2.5-2.6,1.8-1.8-.8-3.4-1-4.9.7-1.6,1.8-1.9,5.7-.7,8.1,1,2,2.6,2.6,4.7,2.1,1.8-.4,2.7.3,3.5,1.9,2.3,4.7,5.2,8.8,9.9,11.3,2,1.1,2,2.7,1.5,4.4-.6,2.1-1.7,4-3.8,5.1-.6,0-.9-.2-.7-.8h0v.4Z"/>
      <path class="cls-11" d="M32.8,212.2h1.2c2.5.8,4.9-.2,7.3-.1,4,0,8.1-.7,12.1.5,1.2,2.3,1.3,4.9,1.3,7.4,0,8.9.7,17.9.8,26.8,0,1.4.5,2.8-.6,4-1.1-1.7-2.9-1-4.4-.9-11.1.8-22.1,1.9-33.3,1.5.9-6.6,1.3-13.2,6.5-18.5,5.2-5.2,7.7-11.8,7.5-19.3.1-1,1.1-1,1.6-1.4Z"/>
      <path class="cls-2" d="M111.2,248.5c-1.8-2.4-.9-5.3-1.4-8-1.5-8.9-3-17.9-4.3-26.9-1.4-10.2-1.4-20.6-2.3-30.9-1.3-14.1-4.5-27.6-13.2-39.3-1.7-2.3-3.7-4.3-5.6-6.4,0-.6,0-.9.7-.7,4.7,2.5,7.9,6.4,10.8,10.7,6.2,9.2,8.8,19.6,10.2,30.4,1.7,12.8,1.5,25.7,3.4,38.5,1.2,7.9,3.4,15.5,4.2,23.5.2,2.2.3,4.4.4,6.5s-.8,3-2.9,2.6h0Z"/>
      <path class="cls-15" d="M54.8,250.8c-.5-12.7-1.1-25.4-1.6-38.1-2.8-.6-5.7,0-8.6-.3-.8,0-1.9.6-2.3-.8,2.2-.9,4.4.1,6.6-.6,4.4.1,4.3.1,4.4-4,.3-18.7,0-37.5,1.7-56.2,1.7.5.2,2,1,2.8,1.5,17.9,1.3,35.9,1.3,53.9s.6,3.3,3.1,2.9c3.5-.5,7-.5,10.5-.7.9,0,2.2-.4,2.2,1s-1.4,1.1-2.2,1.2c-3.9.2-7.7.3-11.6.3s-1.9.2-1.9,1.7c-.4,11.9-.8,23.8-1.3,35.7,0,.5,0,.9-.2,1.4,0,.3-.4.8-.5.8-.6,0-.3-.7-.5-1.1h0Z"/>
      <path class="cls-13" d="M31.5,213.4c.9,7.2-1.4,13.5-6.2,18.5-4.2,4.4-6.1,9.4-6.8,15.1-.2,1.5-.6,3-1.3,4.3-.5.8-1.3.6-2.1.6-1.2-1-1.4-2.3-1.1-3.8.8-3.1,1.5-6.2,2.2-9.3.6-2.6,2.1-4.5,4.1-6.3,5.4-4.9,9.4-10.5,10.2-18,.4-.3-.2-1.5,1-1.1Z"/>
      <path class="cls-19" d="M85.2,136.4l-.7.7c-.8-.4-1.5-.8-1.7-1.8,1-.1,1.7.4,2.4,1.1Z"/>
      <path class="cls-13" d="M94.1,178.2c-.2,14.5,1.5,28.7,5,42.8,1.7,6.8,3.1,13.7,3.6,20.7,0,1.7.9,4.5-1.8,4.6-2.7.1-2.1-2.6-2.2-4.4-.8-9.5-2.8-18.7-4.8-28-2.2-10.4-2.7-20.8-1.9-31.4.4-5.3.6-10.6,1-15.9,0-.8-.5-1.7.6-2.3.6,3.5,0,6.9.3,10.4,0,1.1-.2,2.3.2,3.4h0Z"/>
      <path class="cls-15" d="M1.4,188.3c2.9,4,3.9,8.6,4.1,13.4.5,10.5-.8,20.8-1.3,31.2-.2,4.7-.6,9.4-.9,14.2,0,.6,0,1.1,0,1.7-.3,1.3-.9,2.5-2.4,2.3-1.2-.2-1.7-1.4-1.7-2.6.2-4.2.4-8.3.7-12.5.6-9.6,1.2-19.3,1.9-28.9.4-6.2-.2-12.4-.3-18.8h0Z"/>
      <path class="cls-13" d="M76.3,214.1c3.1,4.3,7.1,7.8,11,11.4,1.4,1.2,2,3,2.3,4.8.7,4.5,1.3,9,1.9,13.5.2,1.3.4,3-1.5,3.2-2,.2-2.1-1.6-2.3-3-.4-3.3-.7-6.6-1-9.9-.3-3.4-1.4-6.3-4.1-8.7-3-2.6-5.1-5.8-6.5-9.5-.2-.5-.9-1.1.2-1.9h0Z"/>
      <path class="cls-12" d="M19.7,131.3c1.4-1.4,2.9-.8,4.3,0,3.8,2,6.8,5.1,10,7.9,3.6,3.1,7.2,6.1,11.9,7.5,1.1.3,2.4,1,1.9,2.4s-1.9,1.3-3.2.8c-5.2-1.7-9.3-5-13.2-8.6-2.8-2.7-5.6-5.4-8.4-8.1-.8-.8-1.5-1.8-2.9-1.3-.5.2-.6,0-.5-.5h0Z"/>
      <path class="cls-10" d="M94.1,178.2c-.7-4.6-.2-9.2-.5-13.8.2-2.2-.9-4.3-.3-6.5h.8v20.3Z"/>
      <path class="cls-4" d="M42.5,211.6c2.5,1.1,5.1.2,7.7.5,1,.1,2.2-.6,3.1.6h-16.4c-1,0-2.1.5-2.9-.6h3.2c.9-.5,2,0,3-.4.2,0,.4-.2.6-.2.6,0,1.2-.2,1.7.2h0Z"/>
      <path class="cls-11" d="M42.5,211.6c-.6.1-1.2.3-1.7-.2,2.7-.9,5.4-.3,8.2-.4-2.1.8-4.3.2-6.4.6h0Z"/>
      <path class="cls-16" d="M56,153.6c-.8-.8,0-2.1-1-2.8-.2-.6-.3-1.3.2-2,1.1,1.6.9,3.2.7,4.8h0Z"/>
      <path class="cls-24" d="M27.1,116.6c1.9-.2,3.8-.4,5.7,0-1.9.8-3.8.8-5.7,0Z"/>
      <path class="cls-8" d="M36.1,126.1c.2.2.4.4.6.6.4.3.4.7.2,1.1-.3.3-.5.5-.8.8-.7-.6-1.4-1.3-1.2-2.3,0-.5.8-.2,1.3-.2h0Z"/>
      <path class="cls-23" d="M31.5,213.4c-.3.4-.6.7-1,1.1-.4-1.9.6-2.4,2.2-2.4-.4.4-.8.8-1.2,1.3h0Z"/>
      <path class="cls-7" d="M19.7,131.3l.5.5c-.3.7-1,.9-1.7,1.1-.2-.2-.4-.4-.6-.6.6-.4,1.2-.7,1.8-1.1h0Z"/>
      <path class="cls-18" d="M40.1,211.7c-.9.8-2,.3-3,.4.9-.6,1.9-.4,3-.4Z"/>
      <path class="cls-5" d="M36.9,127.9c0-.4,0-.8-.2-1.1,1.6-2.1,3.6-3.9,3.6-6.9s0-1.3-1-1.7c-5.5-2.5-8.7-7.1-11.1-12.3-.6-1.4-1-1.4-2.2-1.2-3.8.8-5.7-.5-6.4-4.3,0-.4-.2-.8-.2-1.1,0-2.6.2-5.2,2.5-6.9,2.2-1.6,4.3-.4,6.1,1,.3-.3.5-.4.5-.6.3-1.4-1.1-3.8.3-3.9,2.2-.2,4.3-1.3,7.1.5,2.6,1.7,3.8,3.8,5.2,6.2,2.5,4.1,7.7,6,12.4,4.8,4.4-1.1,7-4.3,7.6-9.5.3-2.5,3.7-4.3,5.5-2.7,1.4,1.3,1.4,4,.8,5.2-.7,1.4,0,1.5.5,2,1.1,1.2,2,2.5.8,4-1.2,1.6-2.7.8-4.1,0-.5-.3-.9-.6-1.4-.9-.6-.4-1.1-.2-1.5.3-.4.6,0,1,.3,1.5,2.5,2.9,7,2.4,8.6-1,.5-1.2.7-1.4,1.9-.8,2.3,1.1,4.8,1.7,7.4,1,1.1-.3,1.6,0,1.5,1.2-.6,10.8-7.4,24.1-21.7,25.1-3.8.3-7.3-.7-10.7-2.4-.8-.4-1.5-1.2-2.8-.8,1.4,2.6,3.7,3.7,6.1,4.5,3.8,1.3,7.6,1.3,11.5.5.7,0,1.8-.9,2,0,.3,1.1,1.2,2.2.3,3.5-2.8,4-6,7.6-9.7,10.7-1.4,1.2-2.8.7-4.1-.2-4.4-3-8.3-6.6-12-10.4-1.2-1.2-2.4-2.4-3.6-3.6l.2.3Z"/>
      <path class="cls-3" d="M16.4,73.9v-4c-.7-11.7,8.6-19.3,17.2-21.6,11-3,21.8-3.2,32.6,1.1,4.2,1.7,8.5,3.2,12.8,4.6,2,.7,2,1.5.9,3-.5.7-1,1.4-1.5,2.1-.8,1-1.3,1.9.5,2.5s1.1,1.1.6,1.8c-.4.6-1,1.4-1.6,1.5-1.1.2-.8-1-1-1.6-1.1-3.4-3.1-4.4-6.4-3-.3,0-.6.2-.8.4-4.3,4.3-8.6,3.1-13.4.7-6.1-3-12.8-3.3-19.4-1.8-3.3.8-6.1,2.5-8.2,5.2-3.1,4-3.4,7.5-.4,11.7.8,1.2,1,2,0,3.1-.7.8-1.5,2-1.5,3,0,3.6-2.1,3.7-4.8,3.6-4.6-.2-4.7,0-5.2-4.6-.3-2.5-.4-5.1-.5-7.7h.2,0Z"/>
      <path class="cls-5" d="M78.3,81.3c-1.9-1.2-3.9-2.5-6.3-2.9-1-.2-2.5-1-2.8.7s1.3,1.4,2.3,1.7c.6,0,1.1.3,1.7.5-9.3,4-12.4,4.1-22.9.9,1.6-.8,3.3-.8,4.9-.9.8,0,1.6-.2,1.5-1.2,0-.9-.8-1.2-1.6-1.3-2.5,0-4.6.9-6.6,2.1-5.9,3.3-12.2,5.3-19,5.2-1.5,0-1.7-.6-1.5-1.9.3-1.5,1-2.9,2-4,1.2-1.3,1.2-2.6.3-4.1-3.6-5.7-2.1-10.6,4.2-13.5,6-2.8,12.2-2.2,18.3-.3,2.2.7,4.3,1.6,6.3,2.6,3.4,1.7,6.6,1.4,9.5-1,.5-.4,1.1-.8,1.6-1.2,2.6-1.6,3.3-1.3,4.1,1.6,1.4,5.1,2.7,10.2,4.1,15.4.2.6.5,1.1,0,1.7h0Z"/>
      <path class="cls-1" d="M57.7,87.3c0,.7-.5,1.1-.8.9-1-.6-2.3-.9-2.8-2.1-.2-.4.3-.9.9-.8,1.3.2,2.2.9,2.7,2Z"/>
      <path class="cls-6" d="M22.5,89.7c-1,.3-1.9.6-2.8,1.1-.5.2-.8,1-1.4.6-.3-.2-.3-.8-.3-1.3-.1-1,.6-1,1.3-1h1.4c.7,0,1.6-.8,1.8.6Z"/>
      <path class="cls-14" d="M22.5,89.7c-.6-.2-1.2-.4-1.9-.6,1.9-.3,3.8-1,5.7.2-.8.9-1.8,0-2.7.4h-1.2.1Z"/>
      <path class="cls-17" d="M23.7,89.7c.8-.7,1.8-.3,2.7-.4,0,.7,1.1,2.2-.9,1.1-.6-.3-1.1-.5-1.7-.7h-.1Z"/>
      <path class="cls-22" d="M70.6,107.1c.3,3.2-1.7,5.3-4.8,5.5-2.4.2-4.4-.6-6.1-2.4-.6-.6-.8-1.4-.2-2.1.4-.6,1.2-.8,1.7-.3,3.3,3.7,6.4,2.5,9.4-.8h0Z"/>
      <path class="cls-20" d="M20.7,97.7c2.4-1.7,6-1.7,7.7-.3.7.6,1.3,1.2.7,2.2-.6.8-1.4.5-2,0-1.8-1.4-4-1.8-6.5-1.8h0Z"/>
    </g>
  </g>
</svg>