<?xml version="1.0" encoding="UTF-8"?>
<svg id="Layer_1" data-name="Layer 1" xmlns="http://www.w3.org/2000/svg" version="1.1" xmlns:xlink="http://www.w3.org/1999/xlink" viewBox="0 0 258 228">
  <defs>
    <style>
      .cls-1 {
        fill: #c39871;
      }

      .cls-1, .cls-2, .cls-3, .cls-4, .cls-5, .cls-6, .cls-7, .cls-8, .cls-9, .cls-10, .cls-11, .cls-12, .cls-13, .cls-14 {
        stroke-width: 0px;
      }

      .cls-2 {
        fill: #000;
      }

      .cls-3 {
        fill: #ecb889;
      }

      .cls-4 {
        fill: #b9906b;
      }

      .cls-5 {
        fill: #c29770;
      }

      .cls-6 {
        fill: #dcdcdc;
      }

      .cls-7 {
        fill: #040905;
      }

      .cls-8 {
        fill: none;
      }

      .cls-9 {
        fill: #ff5097;
      }

      .cls-15 {
        fill: #a0a9eb;
        stroke: #2a2a2a;
      }

      .cls-10 {
        fill: #ebb889;
      }

      .cls-16 {
        clip-path: url(#clippath);
      }

      .cls-11 {
        fill: #c69a72;
      }

      .cls-12 {
        fill: #c49971;
      }

      .cls-13 {
        fill: #2a2a2a;
      }

      .cls-14 {
        fill: #c9c9c9;
      }
    </style>
    <clipPath id="clippath">
      <path class="cls-8" d="M1.5,45.9h256v161.8c0,10.4-6.7,18.8-15,18.8H16.5c-8.3,0-15-8.4-15-18.8V45.9Z"/>
    </clipPath>
  </defs>
  <rect class="cls-15" x="1" y="83" width="256" height="144" rx="15" ry="15"/>
  <path class="cls-13" d="M139.2,142.4c-.3-1-.9-2.1-2.9-2.1s-3.3,1.8-3.3,4.5.9,4.5,3.4,4.5,2.8-1,2.9-2.4h-2.7v-2.6h6.4v7.6h-2.6l-.4-1.8h0c-.7,1.3-2,2.1-4.1,2.1-4.1,0-6.5-3.2-6.5-7.5s2.4-7.5,6.9-7.5,6.1,2.3,6.4,5.1h-3.6.1ZM144.7,152v-14.3h6.7c3.2,0,5.1,1.5,5.1,4.2s-1.1,3.1-2.9,3.5h0c3.6.7,2.3,6.2,3.1,6.4v.2h-3.7c-.7-.6.6-5-2.5-5h-2.2v5h-3.6ZM148.3,140.6v3.4h2.4c1.4,0,2.2-.5,2.2-1.7s-.8-1.7-2.2-1.7h-2.4ZM166.8,149h-4.9l-.9,3h-3.6l5.2-14.3h3.6l5.2,14.3h-3.6l-.9-3h-.1ZM162.7,146.3h3.3l-1.6-5.3h0l-1.6,5.3h0ZM172.3,152v-14.3h6.9c3,0,4.8,1.6,4.8,4.6s-1.9,4.6-4.8,4.6h-3.3v5.2h-3.6,0ZM175.9,140.6v3.2h2.6c1.2,0,2-.4,2-1.6s-.8-1.6-2-1.6h-2.6ZM185.3,137.7h3.6v5.6h4.9v-5.6h3.6v14.3h-3.6v-5.8h-4.9v5.8h-3.6v-14.3ZM199.4,137.7h3.6v14.3h-3.6v-14.3ZM214.2,143c-.3-1.6-1-2.7-2.9-2.7s-3.2,1.8-3.2,4.5.8,4.5,3.2,4.5,2.6-1.1,2.9-2.7h3.6c-.3,3.4-2.4,5.7-6.3,5.7s-6.9-3.2-6.9-7.5,2.4-7.5,6.9-7.5,6,2.3,6.3,5.6h-3.6ZM130,172v-14.3h6.3c4,0,6.4,2.6,6.4,7.2s-2.2,7.1-6.2,7.1h-6.5ZM133.6,160.6v8.4h2.4c2.2,0,3.1-1.6,3.1-4.2s-.9-4.2-3.1-4.2h-2.4ZM147.7,163.2h6.2v2.9h-6.2v2.9h7.4v2.9h-11v-14.3h10.8v2.9h-7.2v2.7ZM162.6,163.1c2.7.7,5.5,1.6,5.5,4.7s-2.1,4.5-5.7,4.5-6.5-1.8-6.5-5h3.6c0,1.5,1.3,2.1,2.9,2.1s2.1-.5,2.1-1.2c0-1.1-1.5-1.4-3.6-2-2.5-.7-4.6-1.8-4.6-4.4s2.4-4.3,5.5-4.3,6,1.8,6.1,4.7h-3.6c-.2-1.1-1.1-1.7-2.5-1.7s-1.9.3-1.9,1.1.9,1.2,2.7,1.7v-.2ZM169.5,157.7h3.6v14.3h-3.6v-14.3ZM184.4,162.4c-.3-1-.9-2.1-2.9-2.1s-3.3,1.8-3.3,4.5.9,4.5,3.4,4.5,2.8-1,2.9-2.4h-2.7v-2.6h6.4v7.6h-2.6l-.4-1.8h0c-.7,1.3-2,2.1-4.1,2.1-4.1,0-6.5-3.2-6.5-7.5s2.4-7.5,6.9-7.5,6.1,2.3,6.4,5.1h-3.6.1ZM189.9,172v-14.3h3.6l5,8.5h0v-8.5h3.6v14.3h-3.6l-5-8.5h0v8.5h-3.6ZM207.7,163.2h6.2v2.9h-6.2v2.9h7.4v2.9h-11v-14.3h10.8v2.9h-7.2v2.7ZM216.7,172v-14.3h6.7c3.2,0,5.1,1.5,5.1,4.2s-1.1,3.1-2.9,3.5h0c3.6.7,2.3,6.2,3.1,6.4v.2h-3.7c-.7-.6.6-5-2.5-5h-2.2v5h-3.6ZM220.3,160.6v3.4h2.4c1.4,0,2.2-.5,2.2-1.7s-.8-1.7-2.2-1.7h-2.4Z"/>
  <g class="cls-16">
    <g>
      <path class="cls-9" d="M-20.1,275.6c-.5-.3-1.1-.6-1.6-1-.2-1.5-1.1-2.8-1.8-4-3.7-6.3-5.3-13.2-5.5-20.5-.6-20.4,3.9-39.6,12.8-57.8,4.6-9.4,9.5-18.6,18.8-24.4,5.2-3.2,10.8-5.2,15.8-6.8-3.2.9-6.9,2.3-10.6,3.9-1.4.6-3.1,1.7-4.3,0-1.3-1.8-.8-3.7.6-5.2,2.3-2.6,5.3-3.8,8.7-4,2.3-.1,4-1,5.4-2.8,3-3.8,6-4.6,10.6-2.7,1.2.5,2.3,1,3.6,1.3.7-.3,1,.3,1.4.6,1.4,1.8-.2,3.1-.8,4.6,0,.6-.2,1.1,0,1.7,1.7,2.8,4.3,4.7,6.3,7.1,3.9,4.6,8.2,8.8,12.3,13.3,2.2,2.4,3.3,2.3,5.4-.2,5-5.8,9.7-11.7,13.9-18.2.4-.1-.5-.5-.3-.1l-.2.2c-.4.3-.7.4-1.2.4s-.6-.2-.8-.5c-.5-1.8-2.3-3.6-.6-5.3,1.8-1.8,4.2-1.7,6.6-1,1.9.5,3.6,1.4,4.8,2.9,1.3,1.7,2.7,3.2,4.6,4.3,1.4.9,2,2.5,1.4,3.9-.8,2.1.4,3.1,1.6,4.3,2.4,2.2,5.1,4,7.2,6.6,5,6,7.3,13.1,8.5,20.7.3,2.2.9,4.4,1.1,6.6.2,2-.3,3.1-2.7,2.4-2.4-.7-5-.7-6.6-3.2-.6-.9-1.9-1-2.9-.3-3.1,2-6.6,2-10.1,2s-4.5-1.2-5.1-4.6c-.2-1.4-1-1.7-1.9-1.1-2.1,1.3-4.4,1.3-6.7,1.3s-1.9.4-2.4,1.3c-1.3,2.3-3.6,3.2-5.8,4.2-2.1.9-3,3-4.4,4.5-3.3,3.7-7.4,6.6-11,10-1,1-2.3,1.8-2.7,3.3-1.5,5.3-1.1,10.3,2.3,14.9,1.5,2.1.3,3.3-1.2,4.5-10.1,8.3-20.7,15.8-32,22.3-5.1,3-10.5,5.5-15.7,8.3-4.7,2.5-9.4,4.2-14.8,2.5h0v-.2Z"/>
      <path class="cls-7" d="M58.6,204.8c2.3-1.6,5.6-2.1,6.7-5.4,0-.3.9-.6,1.4-.6,2.9.1,5.6,0,8.2-1.4,1.3-.7,3,.3,2.4,2.1-1,3.2,1.2,3.6,3.1,3.7,2.7.2,6.1.8,8.1-.5,3.8-2.4,6.1-2.5,8.8,1.4.7,1.1,3.6,0,5.8,1.9-1.9-12.7-3.2-24.8-13.4-33.3-2-1.6-3.8-3.5-5.9-4.8-1.4-.9-.3-.8,0-1.4,1.1-1.8,1.2-3.7-1-4.9-1.7-.9-2.8-2.1-3.9-3.6-2.1-3.1-7.1-4.3-10.5-3-1.1.5-1.1,1-.7,1.9.5,1.1,1.1,2.1.9,3.3-1.7,1.2-2.4-.3-2.7-1.3-.7-2.2-2.3-2.7-4.3-3-4.1-.6-8.1-1.6-11.7-3.7-.6-.4-1.3-.7-1.9-1.2-1-.9-1.8-1.9-1.1-3.3.8-1.5,2.2-1.5,3.6-1,.9.3,1.7.8,2.6,1.2,3.9,1.7,7.9,2.8,12.2,2.9,5.5.1,9.3-2.5,11.9-7,2.9-4.8,4.2-10.2,5.5-15.6.4-1.7-.3-2.1-1.8-2.1s-3.4-.2-5-.8c-1.4-.6-2.4.2-3.5.9-2.4,1.6-5.6,1.3-7.6-.5-.8-.8-1.5-1.6-.8-2.8.6-1,1.6-.7,2.6-.3s.9.5,1.4.7c.8.3,1.7.5,2.3-.3.6-.8.4-1.7,0-2.4-1-1.4-1.4-2.8-1.2-4.5,0-1.2-.4-2.1-1.8-2.1s-2.3.2-2.7,1.6c0,.4-.2.8-.3,1.2-1.5,6.5-4.7,9.7-10.4,10.4-5,.6-10.6-2.7-13-7.9-1-2.2-3.2-4.4-4.5-3.9-3.1,1.1-5.3-1.9-7.9-.7.5.5,1.8,1,1.4,2-.5,1.2-1.8.7-2.8.7-3.5-.2-5.1.8-6,3.8s.3,7.1,2.3,8.4c.6.4,1.4.8,2.1.5,2.8-.9,4.2.8,5.9,2.6,3,3.4,6.1,6.8,9,10.3,1.4,1.7,2.2,3.2-.3,5-1.7,1.2-1.9,3.8-3.4,5.3-1.4,1.5-2.2,3.8-4.9,3.4.5-1.6,2.2-2.8,1.8-4.8,2.1-2.6,2-6,3.2-9.4-1.3.6-2,1.4-3.1,1.2-3-.4-6-1.6-8.9,0h-.3c-2.6-1.8-5.6-2.2-8.7-2.1-1.5,0-1.5-1.4-1.3-2.7.3-1.7,0-2.7-2.2-1.9-2.3.8-2.6-.6-1.8-2.4.8-1.8,1.7-3.6,2.6-5.6-.9-.2-1.6-.3-2.3-.5-1.1-.3-1.9-1.1-1.8-2.3,0-1.4,1-1.7,2.1-1.8,2.3-.2,4-1.5,5.2-3.2s2.5-3.1.2-5.9c-3.2-3.9-4.6-9.2-5.7-14.3-.3-1.5.6-3-1.3-4.4-1.5-1.1,1.3-2.9,1.6-4.7-1.3-.2-2.5-.2-3.7-.5-2.4-.6-3-2.3-1.3-4.2,1.5-1.6,3.2-3.1,4.9-4.6-.3-.2-.6-.3-.8-.4-1-.5-3-.2-2.5-2.1.4-1.6,2-1.4,3.4-1.6,2.1-.4,4.1-.7,5.8-2.8,3.1-3.9,6.3-8.2,12.1-8.3,1.4,0,1.1-.9,1.1-1.7.1-3,.5-6,2.8-8.2,1.5-1.4,2.8-2,3.4.9,2.2-1.7,4.3-3.3,6.8-4.2,2.9-1,5.9-1.3,8.5.6,9.5,6.7,18.3,4.5,26.9-1.7,2.2-1.6,4.3-4.1,6.7-.2.5.9,1-.2,1.4-.5,2.2-1.4,3.4-.5,3.9,1.8.6,3,.3,6,0,9,1.4.2,1.5-2.7,2.9-1.5,1.2,1,1.7,2.5,1.1,4.3-.7,2.4-1.3,4.9-1.9,7.4.4.5.9,0,1.4,0,4.1-1,6.8,1.5,6.3,5.8-.4,3.1-2,5.6-4.4,7.5-1.2,1-2.2,1.9-2.2,3.6,0,3.3-1.9,5.7-4.4,7.4-1.4,1-1.6,1.8-1.3,3.3,3.4,15.7-1.3,30.2-7,44.4-1.3,3.3-4,5.7-6.9,8,2.9,1,5.5,2.2,6.9,5,.3.5.9.9,1.5,1.2,3.1,1.3,4.2,3.7,3.7,6.9-.3,1.7.6,2.6,1.8,3.6,8.9,6.8,13.6,16,15.1,27.1.4,3,1,5.9,1.3,8.8,0,1.1.7,1.3,1.6,1.5,1.3.3,2.7.5,3.5,1.9.5.7.3,1.2-.5,1.4-3.1-1.1-6.2-2.6-10-.5,1.7,1.2,3.4,1.1,4.8,1.5,1.7.5,1.7,1.4.5,2.4-1.1.9-2.4,1.6-3.7,1.8-4.1.8-8.1,2.2-12.2,3.1-.6,0-1-.5-1.6-.7-3.1-1.4-2.9,1.5-3.7,3-.3.1-.6.1-.9,0-.2-.2-.3-.5-.5-.8-.3-.8,0-2.2-1.3-2.2s-1.5.8-1.8,1.6c-1.1,2.8-3.6,3.4-6.1,3.9-1.1.3-2.3.3-3.5.2-1.3-.1-3.3.4-3.3-1.5s1.9-1.3,3.1-1.4c1.5-.1,3,0,4.4-.4.7-.2,1.6-.3,1.6-1.2s-.9-1.1-1.6-1.4c-1.3-.5-2.7-.4-4.1-.4h-3.2c-1.2-.1-2.8.1-3-1.6-.2-1.8,1.4-2.2,2.7-2.6,2.3-.7,4.7-1.2,7.1-1.3s4.8-.6,7.2-.9c1.3-.2,3.3-.4,3.2-1.9,0-1.8-2.2-1.3-3.4-1.1-3.2.4-6.5.4-9.8.9-1.4.2-2.7.3-4.1.3s-1.3,0-1.6-.7c-.2-.7.3-1.2.7-1.6.3-.3,0,0,.2-.2,3.2-1.6,5.5-4.2,8-6.9,0,0,0,0-.4.1-4,.4-7.6,1.4-10.5,4.6-.7.8-2.1,1-3.3,1.1-.5,0-1-.2-1-.9h0l.8-.3Z"/>
      <path class="cls-9" d="M73.3,223c2.4-.6,5-.7,4.9-4.4,0-1.4,2.2-1.3,3.5-1.4,1.5,0,.8,1.4.9,2.2,0,.6,0,1.3,0,1.9,1.7,1.6,2.6,3.5,2.1,5.9-.4,2.1-.2,4.1,2.2,5.3,1.7.9,1.4,2.9,1.5,4.6,0,1.7-.9,3.6.9,5,.8,4.6,1.2,9.2,1.1,13.9v17.8c0,1.4.2,2.8-1.1,3.8-7.2,2.1-14.7,2.5-22.1,3-20,1.2-40,1.2-60,0-5.6-.3-11.1-.8-16.6-1.9-1.7-.3-3.5-.7-5-1.7,4-2.1,8.3-3.5,12.3-5.6,16-8.1,31-17.6,44.7-29.3,1-.8,2.1-1.5,3.3-1.7,1.5-.3,2.6-1.1,2.7-2.7,0-1.6,1.2-1.9,2.4-1.9s2.3-.2,3.5.1c5.7,1.5,10.3-.4,14.2-4.7.8-.9,1.6-1.6,2.4-2.5.8-1.5,3.3-2,2.8-4.4-.2-.5-.6-.9-.6-1.4h-.1Z"/>
      <path class="cls-7" d="M32.4,151.5c-2.2-.5-4.5-1.1-6.8-1.4-2.8-.4-5.3.4-6.6,3.2-1,2.1-2.7,3.1-5.1,3.1s-5.2.9-7.5,2.2c-1.1.7-2.1,1.4-2.6,2.7-.4,1.2-.8,2.7.2,3.6.9,1,1.9-.3,2.8-.7,4.4-1.7,8.7-3.7,13.6-3.5-3.8,1.5-7.6,3-11.3,4.6-7.4,3.1-13.3,8.1-17.6,15-13.6,21.8-20.4,45.4-19.5,71.2.3,7,2.1,13.6,5.8,19.7.5.9,2.2,1.9.5,3.3-2.1-.9-3-2.9-3.9-4.8-2.8-5.5-4.1-11.4-4.4-17.5-1.2-27.2,6.2-51.9,20.8-74.6,2.4-3.8,5.5-7,9.2-9.6.8-.5,1.4-.8,1.1-2.2-1.2-4.9.5-8.2,5-10.4,1.1-.5,2.4-1.1,3.6-1.2,4-.2,7.3-1,9.9-4.7,1.6-2.3,4.8-1.9,7.4-1,2,.7,3.8,1.9,5.6,2.8h0l-.2.2Z"/>
      <path class="cls-10" d="M88.4,218.8c3.7-1.6,7.4-2.8,11.4-3.4,1.9-.3,3.7-1.6,5.5-3.1-1.8-.1-3.6-.3-5.4-.5-.7,0-1.6,0-1.8-.8-.2-1,.6-1.5,1.3-2,2.3-1.6,7.4-.9,9.9,1.4,1.3,1.5-.5,2.2-.8,3.4-.4.4-.8.8-1.2,1.3,0,2.2,2.5,3.5,1.7,5.8-2,2-2.5,4.5-2.5,7.2-.2.6-.7,1-1.2,1.4-2,1.2-2.5,3.4-3.8,5.1-.5.6-1,1.2-1.7,1.5-2.9,1.1-4.9-1.1-7.2-1.9-2.3-.6-4.7-.9-6.8-2.1-1.1-.6-1.6-1.6-1.6-2.8s.7-1.4,1.7-1.1c4.3.5,8.6,0,11.4.2-2.6,0-6.8.2-11,0-2.5-1.3-2.5-1.4,0-4.1.5-.2,1-.4,1.5-.5,2-.4,4-.6,5.4-.4h-3.6c-1.3.1-2.6,0-2.9-1.6-.3-1.4.2-2.5,1.7-2.9h0Z"/>
      <path class="cls-7" d="M71.9,229c-4.3,5.9-9.4,9.6-17.2,8-1.7-.4-3.5-.3-5.4-.4.6,3.4,0,4.5-3.1,4.7-1.1,0-1.7.6-2.4,1.2-15.3,13-32.2,23.6-50.3,32.2-2.5,1.2-5,2.1-7.8,2.5-2.1,0-4.1-.4-5.9-1.5.2-.2.5-.5.7-.5,4.3,1.5,8.1,0,11.8-1.8,18-8.4,34.5-19.1,49.9-31.7,1.2-1,1.9-1.6.6-3.2-3.8-4.7-3.9-10.1-2.3-15.7,1.6,1.3,1.2,3.3,1.7,4.9.3,1.1.5,2.3.8,3.4,1.2,4.1,1.7,4.4,5.9,4.2,2.8-.1,5.7-.2,8.5,0,4.2.2,7.2-1.9,10-4.7.4-.3.9-.6.7-1.3-.6-2.3-.5-2.4,2-2.3.4,0,.8.1,1.2.3.6.4,1,1,.5,1.7h.1Z"/>
      <path class="cls-7" d="M107.4,229c-.4-.2-.9-.4-1.3-.7,0-2.9,0-5.7,2.6-7.7.6,0,.9,0,.6.7-2.3,2.1-1.9,4.9-1.9,7.6h0Z"/>
      <path class="cls-7" d="M109.3,221.4c-.2-.2-.4-.5-.6-.7.5-2.1-2.3-3.4-1.4-5.6.6,2.2,3.7,3.5,2,6.4h0Z"/>
      <path class="cls-7" d="M108.6,213.8c-.9-1.4,1.4-2.1.8-3.4.6-.2.5-.8.6-1.2,1.7,2.2.4,3.4-1.3,4.6h0Z"/>
      <path class="cls-3" d="M32,156.8c3.7-1.4,5-4.9,6.7-8,.5-.9.2-2.3,2.2-2,1.1.2.8-1.2.3-1.9-4-4.6-8-9.3-12.1-13.9-.6-.6-1.4-.3-2.1-.1-1,.3-2,.5-3.1,0-2.9-1.2-4.5-5.9-3.4-10.1.9-3.4,3.2-4.9,6.9-4.3.8,0,1.6.3,2.8.5-1-1.9-2.9-1.9-4.3-2.8,4.9-1.3,6.7-1.1,8.6,1.1.5-1.2-.3-3.2,2.5-1.2s4.2,4.3,5.9,6.9c2.8,4.3,7.9,6.1,13.1,4.8,4.3-1.1,7-4.5,7.7-9.8.4-2.9,2.7-4.1,5.3-3.1,1.6.6.8,2,1,3,.3,1.4-.5,2.9,1.2,4.1,1.1.8,1.5,2.4.4,3.7-1.1,1.2-2.4.7-3.8.2-1.1-.4-2.3-2.8-3.3-.7-.8,1.8,1.5,2.1,2.7,2.7,2.3,1.1,4.3.8,5.9-1.4.5-.7.7-1.6,1.9-.8,2.8,1.8,6,1.6,9.4,1.5-1.3,5.9-2.6,11.6-5.2,16.9-3.9,8.1-9.7,10.8-18.4,9-3.4-.7-6.7-1.9-9.7-3.6-1.2-.7-2.6-1.4-3.5.3-1,1.8.5,2.4,1.7,3.1,4.4,2.5,9.1,4,14.1,4.3,1.8.1,2.9.4,3.1,2.6,0,1.1.2,3.1,2.4,2.4.2.1.3.2.5.2.7,1.2-.2,2-.7,2.9-3.4,5.3-7.2,10.2-11.5,14.8-2.4,2.6-3.2,2.5-5.7,0-4-4.1-7.7-8.5-11.7-12.6-2.5-2.5-5-4.9-7.6-7.2v-1.6h-.2Z"/>
      <path class="cls-3" d="M71.2,227.6h-4.6c1.2,1.5,2.6.4,3.8,1.3-3.6,4-7.2,7.5-13,7.1-2.7-.2-5.5-.2-8.2-.2s-1-.2-1.2,0c-4,2.6-4.1-1.3-5-3.2-1.5-3.1-1.5-6.6-2.3-9.9.4-1.5,1.4-2.4,2.7-3,5.1-4.2,10.1-8.3,14.3-13.5.4-.5,1-.7,1.6-.9,2.5-1.1,5.3-1.6,6.4-4.7,0-.4.8-.9,1.2-.9,2.9.2,5.7.3,8.2-1.4.2-.1.9.2,1,.4.3.9-.4,1.4-.9,1.8-3.1,2.4-5.8,5.5-9.5,7.1-.3.2-.8.3-.6,1,5.6-.5,11.2-.9,16.8-1.3,1.3,0,3.1-.5,3.4,1.4.3,1.8-1.3,2.5-2.8,2.9-4.2,1.3-8.6.9-12.8,1.9-1.4.3-2.9.6-4.3,1s-1.5.4-1.4,1.4c.2,1.2,1.1.7,1.7.7,2.5.1,5.1.1,7.6.4,1.6.2,3.8.6,3.6,2.8-.2,1.9-2.3,1.5-3.6,1.8-2.3.4-4.8-.3-7.8,1.1,3.1,1,5.5.1,7.9.2.4.3.8.6,1.2,1,.6,2.8-1.3,3.3-3.3,3.6h0Z"/>
      <path class="cls-7" d="M32,158.4c1.3-.1,1.8.9,2.6,1.6,6.1,5.6,11.8,11.6,17.2,17.8,1.6,1.9,2.6,2.3,4.4.2,4.7-5.6,9.5-11.1,13-17.6,1-.5,1-2.2,2.5-2.2.9,1.2,0,2-.5,2.8-4.2,6.7-9,12.9-14.3,18.7-1.8,1.9-3.4,2.3-5.3.3-6.5-7-13-14-19.4-21-.1-.1,0-.4-.1-.6h-.1Z"/>
      <path class="cls-7" d="M-11.7,242.1c3.8-1.6,7.4-3.3,11.2-4.7,1.9-.7,3.1-1.7,3.6-3.9.6-2.6,1.7-5,2.8-8.3.4,3.8-1.4,6.4-1,9.5,1.2.2,2.1-.5,3.1-.9,9.2-3.7,18.4-7.4,27.6-11.2.7-.3,1.4-.6,2.1-.8.6-.2,1.5-.9,1.9.1.4,1.1-.7,1.2-1.3,1.4-4.2,1.7-8.4,3.4-12.6,5.1-11.1,4.4-22.2,8.7-33.3,13-1.2.5-2.4,1.3-4,.5v.2Z"/>
      <path class="cls-7" d="M60.1,182.7c1.6-3.5,4.5-5.8,7.1-8.3,4-3.7,8.3-7.2,11.9-11.4.5-.6,1-1.7,2-.9.9.8,0,1.7-.4,2.2-1.7,1.9-3.5,3.6-5.4,5.3-5,4.4-10.5,8.2-15.1,13.1h-.1Z"/>
      <path class="cls-7" d="M31.3,172.6c4,3.8,7.3,8.3,11.8,11.5,1.7,1.2,3.5,2.4,5.5,3.1.7.3,1.5.7,1.2,1.5-.4,1-1.3.3-1.9,0-5.2-2.1-9.2-5.9-12.9-10-1.5-1.7-2.9-3.6-4.4-5.4-.2-.7.1-.8.7-.7h0Z"/>
      <path class="cls-7" d="M10.9,197.9c-2.8-5.8-4-12.1-5.6-18.2,2.7,5.8,5.2,11.7,5.6,18.2Z"/>
      <path class="cls-7" d="M2.1,197c1.7,5.6,3.5,11.2,3.3,17.2-.4,0-.7.2-1.1.2-.9-5.4-1.8-10.7-2.8-16.1-.2-.6-.6-1.3.6-1.3h0Z"/>
      <path class="cls-7" d="M59.3,205.3c-4.6,5.6-9.8,10.5-15.9,14.4,0-.3,0-.8.2-.9,5.6-4,10.2-9.2,15.1-14,.2.2.5.4.7.6h-.1Z"/>
      <path class="cls-7" d="M31.3,172.6c-.2.2-.5.5-.7.7-1.3-1.6-2.6-3.2-3.9-4.7.2-.2.4-.4.6-.6,1.3,1.5,2.7,3.1,4,4.6Z"/>
      <path class="cls-3" d="M81.5,79.8c-2.4,2-3.6,3.3-.8,6.8,3.9,4.9,5.4,11.2,5.8,17.6,0,1.8-.2,2.5-2.2,1.9-3.6-1-7.3,0-10.9.2-1.5,0-3.3,2.1-5.2,2.4-2.2.4-4.9,2.1-6-1.9-.3-1.3-2-1.3-3-.6-1.8,1.4-3.6,1.3-5.6.9-5.6-.9-10.5,1.5-15.7,3-3.5,1.1-7.1.4-10.7.6-1.4,0-1.6-.7-1.4-1.8,1.2-9.5,2.9-18.8,11.4-24.9.3-.2.7-.5.9-.9,2.8-5.6,7.7-5,12.6-4.4,5.5.6,10.8,1.8,16.2,3,5.1,1.1,9.8,1.1,13.8-2.8.7-.2,1,0,.9.9h-.1Z"/>
      <path class="cls-7" d="M85.8,228.5c-2.6,2.3,0,2.9,1.2,3.6,2,1,4.4.4,6.4,1.6,0,.3,0,.6-.2.8-1.8.3-4.2-.1-4.3,2.9,0,.3-.8.5-1.1-.2,0-2,0-3.9-2.4-4.7-1.2-.4-1.9-1.8-1.6-3.1.6-2.8,0-5.4-1-8h.6c1.9.3,2.1,2.2,3.1,3.3,0,1.1-3.5,1.5-.7,3.1.2.2.2.3.2.5s0,.2-.2.2h0Z"/>
      <path class="cls-9" d="M86.5,224.6c-1.9-.3-2-2.3-3.1-3.3v-1.2c-.5-2.4.2-3.6,2.8-2.7.5.2,1,.1,1.5.2.7.6.3,1.1,0,1.6-1.2,1.5-1.9,2.8.6,3.9.9.4,0,1-.4,1.4-.4,0-.8,0-1.2.1h-.1Z"/>
      <path class="cls-7" d="M87.7,224.5c0-.4.4-.8,0-1.1-2.8-1.4-2-3-.4-4.7.2-.3.3-.7.4-1.1.8,0,.7.7.8,1.2-.6.9-2,1.6-1.2,3,.6,1.1,1.9.6,2.9.7,1.7.2,3.6-.4,5.1,1.1-2.6-.2-5,.6-7.5.8h-.1Z"/>
      <path class="cls-4" d="M31.3,68.9c1.9,1.1,3.2,2.2,4.2,4.7-1.5-1.7-2.7-2.9-4.2-4.7Z"/>
      <path class="cls-1" d="M86.5,110.9c0,.9-.2,1.6-.8,1.4-1.1-.3-1.4-1.4-1.6-2.4,0-.6.4-1,1-.8.9.3,1.4,1.1,1.5,1.8h0Z"/>
      <path class="cls-11" d="M87.8,205.8c-.2,1-1,.8-1.7.8s-1.6,0-1.5-1c0-.9,1-.9,1.7-.9s1.5.2,1.6,1.1h0Z"/>
      <path class="cls-12" d="M59.9,112.1c0,.6-.3,1.1-.9,1-.7,0-1.4-.6-1.6-1.4,0-.6.5-.6.8-.7.9-.3,1.3.3,1.6,1.1h.1Z"/>
      <path class="cls-5" d="M81.5,79.9l-.9-.9c.8-.8,1.5-1.6,2.5-2.7.3,2-.7,2.8-1.7,3.6h0Z"/>
      <path class="cls-7" d="M71.2,227.6c1.4-.9,3.7-1,3.3-3.6,1.9,3.1-1.7,3.4-2.6,5,0-.6-.2-1.1-.7-1.4Z"/>
      <path class="cls-7" d="M71,130.4c-1.3,2.9-.9,5.7-.7,8.4,0,2.6,2.8.9,4.1,2.1-.7,1.8-2.3,1.8-3.8,1.7-3.3-.3-6.5-.1-9.7.4-2.6.4-5-.2-5.9-3-.9-2.7,0-5.1,2.4-6.7,4-2.7,8.6-3.2,13.7-2.9h0Z"/>
      <path class="cls-7" d="M24.1,121.2c3.2-1,5.1-.5,6.4,2,.5,1,.2,1.8-.7,2.4-.9.6-1.7,0-2.2-.5-.8-1.3-1.7-2.6-3.5-3.9h0Z"/>
      <path class="cls-7" d="M26.4,105.9c.9-5,2.1-9.8,2.6-14.7.6,5.2,1.2,10.4-2.6,14.7Z"/>
      <path class="cls-6" d="M59.1,135.5c2.3-2.2,5.1-2.8,7.8-3.6.8-.2,1.7-.6,1.8.8,0,1.1,0,1.9-1.4,2-2.7.2-5.4.5-8.1.8h-.1Z"/>
      <path class="cls-14" d="M61.4,139.9c1.9-1.7,4.1-1.6,5.9-2.4.4-.2.7.3.8.8,0,.6-.2.9-.8,1.1-1.8.8-3.6.6-5.8.5h-.1Z"/>
      <path class="cls-7" d="M81.3,78.6c-.7,1.5-2.2,2.4-3.7,3.1-2,.9-4,1.6-6.1,2.1-1.5.3-2.9,4-4.4,4.1-5.4.6-11-3.3-16.5-3.4-2,0-2.7,1.8-4.7,1.9-2.5,0-6.3-1.6-8.8-1.2-3.3.6-6.6,1.6-9.2,3.7,2.5-4.2,4.8-8.8,9.1-11.1,2.4-1.3,5.1-1.8,7.7-2.6,2.8-.8,5.5-1.9,8.2-2.8,1.3-.4,2.7-.7,4.1-.7s2.9.4,4.3.9c2.2.7,4.4,1.3,6.7,2,1.4.4,2.9.9,3.9,2,.4.4.6.9,1,1.2.5.4,1.1.5,1.7.7,2.2.5,4.7.7,6.9.2h-.2Z"/>
      <path class="cls-7" d="M46.4,81.2c-1.4-.3-2.8.5-3.9,1.4-1.7,1.4-3,3.2-4.1,5.1-3.2,5.7-5,12.5-3.1,18.8.5,1.5,1.2,3.1,2.6,3.9-1.3-1.6-2.5-3.1-3.6-4.8-2.2-3.7-3.3-7.9-4.2-12.1-.8-3.8-1.4-8,0-11.6"/>
      <path class="cls-7" d="M81.1,79.2c-.7,5-2.5,9.9-5.3,14.1s-6.7,7.7-11.3,9.7c2.4-3.9,4.3-8.4,4.7-13,.5-4.6-.4-9.4-2.6-13.3"/>
      <path class="cls-7" d="M64.9,79.7c1.1,7.6-4.5,15.4-10,20.8,1.7-2.7,2.5-5.4,3.2-8,1-3.3.9-6.4.9-9.7s-.5-3-1.2-4.3"/>
      <path class="cls-7" d="M49.3,79.4c-.9,1.8-1.3,3.8-1.3,5.8s.4,4,.8,5.9c1,4.3,2.4,8.5,4.2,12.5-2.6-3.3-4.9-6.9-6.6-10.7-1.8-3.8-2.9-8-2.8-12.2,0-.6,0-1.3.3-1.9"/>
      <path class="cls-7" d="M39.8,82.9c-1,1.7-1.4,3.7-1.5,5.7,0,2,.2,4,.6,5.9.8,4.3,2.1,8.6,3.7,12.6-2.5-3.4-4.6-7.1-6.2-11-1.6-3.9-2.6-8.1-2.3-12.3,0-.6,0-1.3.4-1.9"/>
      <path class="cls-7" d="M76.2,77.4c1.2,1.6,1.9,3.5,2.2,5.5.3,2,.3,4,.2,6-.3,4.4-1,8.8-2.1,13,2-3.7,3.7-7.6,4.8-11.7,1.1-4.1,1.5-8.3.8-12.5,0-.6-.3-1.3-.6-1.8"/>
      <path class="cls-7" d="M49.6,76c1.3,1.7,2.1,3.9,2.4,6,.4,2.2.3,4.4.2,6.6-.3,4.8-1.1,9.6-2.3,14.3,2.2-4,4-8.4,5.2-12.8s1.7-9.2.8-13.7c0-.7-.3-1.4-.7-2"/>
      <path class="cls-7" d="M64.8,74.2c4.1,8,4.2,16.7,1.8,25.4-.3-3.6,0-7.5-.6-11.1-.3-1.6-.7-3-1-4.7-.3-1.9-1.2-4-1.8-5.9s-1.5-3.7-2.9-5.1"/>
      <path class="cls-2" d="M41.2,60.8c-1.2.6-1.6,2.1-1.8,3.4-.2.7-.4,1.9-.5,2.6,0,.6-.2,1.4-.2,2v3.3c0,5.2,1.4,10.3,3.8,14.9,1.5,2.8,3.3,5.5,5.8,7.5,1.4,1.1,3,1.9,4.7,2.3-1.8-.2-3.4-1-4.9-2.1-2.5-1.8-4.4-4.4-6-7.2-2.8-5.1-4.2-11-3.9-16.8,0-2.2.4-4.5,1.1-6.6.3-1.2.8-2.8,2.1-3.3h-.2Z"/>
      <path class="cls-2" d="M58,72.1c1.4,4.8,1.7,10,.9,14.9-.6,3.8-1.8,7.7-3.6,11,1.7-4.1,2.8-8.4,3.3-12.8s.3-8.8-.5-13.2h-.1Z"/>
      <path class="cls-2" d="M86.1,77.4c-1.6,8.2-6.1,15.7-12.4,21.1l-1.3,1,1.3-1.1c6.1-5.5,10.6-12.9,12.5-21h0Z"/>
      <path class="cls-2" d="M39.1,77c1.4,4.8,1.7,10,.9,14.9-.6,3.8-1.8,7.7-3.6,11,1.7-4.1,2.8-8.4,3.3-12.8s.3-8.8-.5-13.2h-.1Z"/>
      <path class="cls-2" d="M83.6,88.4c1.2,5.4.9,11.1-.8,16.4-.7,2.1-1.5,4.2-3,5.9-.7.8-1.7,1.5-2.7,1.8,2-.9,3.3-2.8,4.1-4.8,2.5-6.1,3.2-12.8,2.4-19.3Z"/>
    </g>
  </g>
</svg>