<?xml version="1.0" encoding="UTF-8"?><svg id="Layer_2" xmlns="http://www.w3.org/2000/svg" viewBox="0 0 703.53 1134.77"><g id="Layer_1-2"><path d="M50.18,1105.33c-2.69-1.57-5.39-3.14-8.08-4.71-1.11-7.5-5.44-13.57-9.17-19.81-18.57-30.96-26.13-64.94-27.15-100.51-2.89-100.01,19.38-194.77,63.44-284.02,22.68-45.95,47.16-91.54,93.34-119.96,25.61-15.76,53.46-25.36,78.44-33.54-15.75,4.55-34.39,11.1-52.62,18.98-7.04,3.04-15.29,8.31-21.47.18-6.61-8.69-3.77-18.15,3.22-25.76,11.57-12.6,26.5-18.52,43.31-19.51,11.19-.66,19.77-5.03,26.85-13.93,15.01-18.88,29.86-22.38,52.63-13.48,5.84,2.28,11.56,4.87,17.66,6.44,3.28-1.37,4.86,1.65,7.18,2.78,7.19,8.97-1.23,15.23-3.86,22.49-.71,2.72-.79,5.47-.27,8.24,8.3,13.55,21.13,23.05,31.26,34.99,19.25,22.68,40.95,43.18,60.95,65.26,10.71,11.82,16.42,11.09,27.01-.97,24.84-28.29,48.27-57.72,68.82-89.58,1.74-.64-2.5-2.45-1.32-.71.11.17-.38.38-1.21,1-1.74,1.29-3.61,2.04-5.79,2.03-1.57-.36-2.86-1.13-3.88-2.38-2.25-8.63-11.52-17.68-3.06-25.99,8.77-8.62,20.92-8.35,32.62-4.92,9.22,2.7,17.89,6.64,24.02,14.14,6.68,8.17,13.65,15.69,22.71,21.35,7.01,4.37,9.73,12.07,6.87,19.27-4.15,10.46,1.75,15.43,8.19,21.11,12.08,10.65,25.17,19.8,35.8,32.53,24.81,29.71,36.29,64.31,42.09,101.5,1.69,10.87,4.71,21.5,5.58,32.48.76,9.59-1.42,15.26-13.33,11.71-11.84-3.53-24.73-3.49-32.6-15.89-2.92-4.59-9.46-4.73-14.36-1.6-15.43,9.83-32.81,9.88-49.97,9.71-16.73-.16-22.59-5.75-25.44-22.65-1.13-6.7-4.74-8.52-9.63-5.43-10.45,6.6-21.87,6.41-33.38,6.54-5.1.06-9.39,1.93-11.97,6.27-6.66,11.18-17.94,15.58-28.92,20.51-10.38,4.27-14.73,14.57-21.66,22.18-16.62,18.26-36.75,32.49-54.67,49.23-4.85,5.11-11.22,8.97-13.25,16.38-7.39,26.16-5.24,50.84,11.35,73.23,7.48,10.1,1.42,16.02-6.07,22.15-49.95,40.92-102.84,77.55-158.81,109.77-25.46,14.65-52.09,26.98-78.04,40.64-23.2,12.21-46.77,20.8-73.33,12.26Z" style="fill:#ff5097; stroke-width:0px;"/><path d="M441.11,757.37c11.59-8,27.59-10.41,33.02-26.4.56-1.64,4.44-3.14,6.71-3.05,14.15.55,27.62-.11,40.91-6.97,6.62-3.42,14.88,1.28,12.03,10.36-4.95,15.78,6.17,17.57,15.58,18.21,13.49.93,30.11,3.79,40.14-2.52,18.99-11.95,30.41-12.31,43.73,6.95,3.63,5.25,18.05.16,28.58,9.48-9.22-62.58-15.84-121.89-66.46-163.59-9.7-7.99-18.72-17.01-29.21-23.75-6.79-4.37-1.39-4.12.34-6.94,5.55-9.06,6.03-18.27-4.75-23.91-8.2-4.29-13.93-10.24-19.18-17.78-10.53-15.14-35.38-21.31-52.07-14.72-5.7,2.25-5.53,5.14-3.48,9.57,2.4,5.19,5.36,10.27,4.26,16.38-8.27,5.69-11.9-1.31-13.6-6.55-3.58-11-11.28-13.31-21.4-14.74-20.28-2.87-40.14-7.75-58.13-18.27-3.16-1.85-6.52-3.41-9.31-5.83-5.03-4.36-9.06-9.48-5.48-16.35,3.9-7.49,10.77-7.33,17.79-5.15,4.52,1.4,8.58,3.9,12.89,5.8,19.33,8.53,39.19,13.7,60.69,14.23,27.39.69,45.96-12.24,59.27-34.25,14.28-23.61,20.85-50.18,27.33-76.69,1.99-8.13-1.63-10.5-8.9-10.27-8.46.26-16.78-.78-24.68-3.91-7-2.77-11.73,1.06-17.16,4.56-12.09,7.8-27.67,6.4-37.98-2.64-4.22-3.7-7.52-8.05-4.06-13.58,3.17-5.06,8.14-3.49,12.67-1.6,2.42,1.01,4.64,2.45,7.11,3.34,4.06,1.46,8.39,2.62,11.54-1.38,3-3.8,2.02-8.31-.6-11.71-5.1-6.64-6.79-13.83-6.16-22.04.46-5.99-2.16-10.2-8.86-10.5-6.17-.27-11.6.83-13.57,7.86-.57,2.02-.84,4.11-1.32,6.14-7.48,32.15-23.16,47.64-51.53,50.98-24.97,2.93-52.78-13.09-64.41-38.96-4.85-10.8-15.77-21.56-22.12-19.3-15.2,5.43-26.24-9.44-39.27-3.32,2.44,2.69,9.07,4.75,7.01,10.05-2.35,6.06-8.84,3.66-13.92,3.36-17.48-1.04-25.23,3.88-29.74,18.84-4.39,14.57,1.37,35.01,11.65,41.44,3.21,2.01,6.95,3.79,10.4,2.66,13.77-4.51,20.99,3.73,29.05,12.77,14.97,16.8,30.22,33.37,44.69,50.61,6.97,8.31,11.02,15.91-1.26,24.73-8.31,5.98-9.6,18.49-16.8,26.2-6.77,7.25-11.06,18.56-24.24,16.56,2.45-7.97,10.76-13.72,8.89-23.34,10.53-12.76,9.79-29.28,16.1-46.33-6.26,2.72-9.88,6.73-15.23,6.02-14.77-1.96-29.65-7.99-44.4.23-.38.21-1.15.14-1.53-.12-13.12-8.92-27.72-10.64-43.25-10.51-7.35.06-7.43-6.69-6.3-13.14,1.45-8.22.02-13.03-10.86-9.38-11.23,3.76-12.91-3.11-9.11-12,3.87-9.05,8.36-17.82,13-27.59-4.38-.99-7.85-1.62-11.22-2.58-5.61-1.58-9.23-5.17-9.12-11.21.12-6.74,4.93-8.51,10.66-9,11.31-.96,20-7.46,26.06-15.92,6.11-8.53,12.44-15.11.8-29.01-15.96-19.04-23.03-45.14-28.06-70.36-1.47-7.38,3.1-14.5-6.54-21.8-7.24-5.49,6.46-14.23,8.05-23.16-6.23-.76-12.52-1.02-18.55-2.38-12.13-2.73-14.97-11.51-6.37-20.6,7.49-7.93,15.88-15,24.21-22.77-1.62-.76-2.92-1.35-4.19-1.97-5.09-2.49-14.82-.93-12.62-10.24,1.84-7.78,10.1-6.68,16.85-8.09,10.3-2.15,20.53-3.48,28.72-13.76,15.46-19.38,31.43-40.14,60.14-40.58,6.78-.1,5.37-4.38,5.58-8.55.73-14.81,2.55-29.4,13.96-40.5,7.26-7.07,13.98-9.96,16.64,4.26,11.09-8.12,21.28-16.33,33.92-20.59,14.56-4.9,29.26-6.24,42.26,2.85,46.93,32.8,90.7,22.24,133.36-8.51,10.87-7.83,21.32-20.16,33.31-1.04,2.63,4.19,4.93-.78,7.17-2.23,10.84-7.02,17.03-2.39,19.19,8.64,2.83,14.5,1.5,29.24.37,44.04,6.98.92,7.28-13.04,14.48-7.45,6.04,4.7,8.28,12.49,5.7,21.08-3.59,11.95-6.23,24.18-9.3,36.39,2.22,2.44,4.68.65,7.05.11,20.6-4.68,33.84,7.24,31.21,28.29-1.92,15.39-9.83,27.44-21.64,37.02-5.85,4.74-10.8,9.54-11.1,17.88-.58,15.97-9.54,28.11-21.66,36.55-7.13,4.97-7.85,8.83-6.26,16.1,16.82,77.22-6.55,148.2-34.87,218.16-6.57,16.22-19.89,27.95-34.26,39.1,14.57,4.86,27.28,10.58,34.25,24.48,1.25,2.5,4.46,4.56,7.23,5.68,15.58,6.36,20.94,18.09,18.23,34-1.45,8.48,2.75,12.97,9.12,17.75,44.33,33.33,67.62,78.72,75.07,133.01,1.99,14.52,4.95,28.91,6.61,43.46.64,5.59,3.23,6.57,7.76,7.49,6.56,1.33,13.51,2.5,17.2,9.35,2.7,3.6,1.6,5.85-2.48,7.05-15.49-5.29-30.9-12.59-49.84-2.33,8.65,5.75,16.64,5.4,23.83,7.39,8.52,2.35,8.57,6.84,2.34,11.86-5.33,4.3-11.7,7.67-18.2,8.93-20.54,3.97-40.36,10.6-60.66,15.43-2.97-.35-5.21-2.5-8.03-3.24-15.5-6.77-14.26,7.36-18.41,14.75-1.41.62-2.82.65-4.24.02-1.06-1.18-1.71-2.58-2.33-4.04-1.66-3.94.35-10.59-6.63-10.69-4.67-.07-7.43,3.76-8.98,7.78-5.38,13.95-17.68,16.64-30.24,19.11-5.69,1.23-11.5,1.55-17.22,1.01-6.32-.59-16.23,1.74-16.21-7.56.01-7.81,9.38-6.46,15.36-6.91,7.3-.55,14.72.07,21.86-1.98,3.39-.98,8.03-1.47,7.99-6.06-.03-4.31-4.35-5.51-7.79-6.7-6.56-2.28-13.43-2.03-20.24-2.08-5.24-.04-10.51.28-15.72-.17-6.06-.53-13.97.57-15.11-7.79-1.21-8.95,6.73-10.96,13.2-12.8,11.59-3.3,23.37-5.96,35.49-6.57,12.06-.6,23.94-2.81,35.87-4.37,6.4-.84,16.5-1.73,15.88-9.54-.7-8.8-10.85-6.31-16.88-5.57-16.13,1.99-32.42,2.08-48.47,4.62-6.76,1.07-13.55,1.53-20.37,1.41-3.06-.05-6.69.18-7.84-3.62-1.05-3.5,1.49-5.81,3.72-8.05,1.48-1.49-.58-.06,1.23-.95,15.74-7.78,27.31-20.63,39.58-33.77,0,0-.65.43-2,.55-19.78,1.78-37.86,6.83-51.96,22.4-3.58,3.95-10.21,5.14-16.17,5.24-2.6-.4-4.86-1.19-4.78-4.46Z" style="fill:#040905; stroke-width:0px;"/><path d="M514,846.98c12.07-2.71,24.76-3.25,24.54-21.72-.08-7,11.16-6.4,17.31-6.72,7.57-.39,3.77,6.7,4.34,10.7.43,3.06.39,6.18.57,9.27,8.51,7.91,12.7,16.98,10.57,29.15-1.84,10.52-.93,20.21,11.11,26.16,8.64,4.27,7.16,14.14,7.3,22.42.25,8.47-4.3,17.77,4.36,24.81,3.74,22.64,5.72,45.34,5.47,68.32-.32,29.2-.43,58.4.13,87.6.13,6.71.75,13.73-5.31,18.76-35.92,10.36-73.06,12.53-109.96,14.67-99.2,5.75-198.49,5.83-297.71.17-27.57-1.57-55.22-3.77-82.41-9.16-8.61-1.71-17.38-3.48-24.91-8.57,19.81-10.3,41.04-17.32,61.07-27.32,79.39-39.62,153.83-86.64,221.81-143.76,4.89-4.11,10.23-7.18,16.52-8.58,7.22-1.6,12.72-5.18,13.28-13.29.53-7.72,5.78-9.13,11.92-9.52,5.75-.37,11.63-.86,17.19.59,28.47,7.42,51.27-1.91,70.33-23.06,3.85-4.27,8.17-8.1,11.96-12.41,3.98-7.53,16.23-9.76,13.67-21.44-1.14-2.32-3.12-4.27-3.14-7.08Z" style="fill:#ff5097; stroke-width:0px;"/><path d="M310.58,495.69c-11.17-2.32-22.26-5.27-33.54-6.81-14.03-1.92-26.09,1.87-32.89,15.68-5.19,10.54-13.63,15.07-25.25,15.26-13.31.22-25.72,4.26-37.23,10.94-5.53,3.21-10.63,7.1-12.68,13.4-1.94,5.97-3.9,13.11.79,17.88,4.66,4.73,9.33-1.59,13.83-3.27,21.81-8.16,43.07-18.19,67.46-17.26-18.74,7.57-37.56,14.97-56.22,22.73-36.85,15.34-65.99,39.84-87.42,73.64C39.68,744.73,6,861.08,10.66,987.82c1.26,34.42,10.35,67.04,29.04,96.64,2.73,4.32,10.78,9.52,2.39,16.16-10.42-4.61-14.76-14.42-19.45-23.63-13.74-26.98-20.58-56-21.97-86-6.19-133.55,30.96-255.1,103.1-366.66,12.03-18.61,27.3-34.4,45.66-47.02,3.75-2.58,7-3.79,5.23-10.63-6.17-23.88,2.32-40.49,24.61-50.94,5.63-2.64,11.73-5.5,17.76-5.84,19.66-1.13,36.32-4.78,48.97-23.31,7.71-11.3,23.86-9.41,36.61-4.79,9.73,3.52,18.68,9.18,27.98,13.89Z" style="fill:#040905; stroke-width:0px;"/><path d="M588.79,826.35c18.2-7.93,36.88-13.68,56.69-16.67,9.63-1.45,18.54-7.63,27.51-15.1-8.89-.73-17.8-1.31-26.67-2.25-3.41-.36-8.12.35-9.13-4.16-1.06-4.76,2.83-7.46,6.31-9.82,11.61-7.85,36.76-4.41,49.21,6.65,6.43,7.28-2.53,11.02-3.79,16.54-2.07,2.07-4.14,4.13-6.21,6.2-.49,10.58,12.29,17.18,8.61,28.72-9.94,9.81-12.28,22.24-12.21,35.51-1.14,2.93-3.32,4.97-5.75,6.8-9.83,5.71-12.48,16.9-19.06,25.11-2.24,3.17-5.01,5.73-8.51,7.47-14.18,5.62-24.11-5.32-35.89-9.18-11.37-2.96-23.1-4.58-33.6-10.41-5.67-3.15-7.72-8.05-7.82-13.97-.09-5.75,3.44-6.79,8.28-5.52,21.42,2.24,42.92.05,56.7.77-13.07-.35-33.83.94-54.56-.46-12.54-6.26-12.55-7.08-.21-20.08,2.3-1.2,4.77-1.93,7.32-2.31,9.89-1.93,19.88-2.8,26.59-2.05-3.68.13-10.76-.39-17.83.15-6.5.5-13.02-.09-14.64-7.93-1.41-6.85,1.13-12.19,8.64-14Z" style="fill:#ebb889; stroke-width:0px;"/><path d="M507,876.33c-21.2,28.79-46.89,47.37-85.28,39.15-8.54-1.83-17.58-1.3-26.65-1.87,3.21,16.69-.11,22.24-15.4,23.26-5.59.37-8.54,3.08-11.99,5.98-76.13,63.88-159.82,115.77-249.67,157.95-12.35,5.8-24.98,10.51-38.63,12.05-10.41.16-20.26-1.88-29.2-7.5,1.14-.85,2.62-2.66,3.4-2.4,21.19,7.2,40.15-.29,58.83-8.92,89.26-41.24,171.26-94.04,247.62-155.82,5.84-4.72,9.53-7.73,3.04-15.79-18.67-23.16-19.44-49.65-11.31-77.11,7.78,6.34,6.14,16.07,8.6,24.3,1.64,5.49,2.51,11.21,4.14,16.73,5.98,20.22,8.2,21.58,29.12,20.64,14.09-.64,28.24-.79,42.3-.05,20.81,1.1,35.73-9.47,49.52-22.94,1.75-1.71,4.26-3.19,3.37-6.44-3.11-11.32-2.62-11.86,9.85-11.21,2.11.11,4.11.72,6.05,1.55,3.19,2.17,4.83,4.75,2.28,8.45Z" style="fill:#040905; stroke-width:0px;"/><path d="M670.85,877.06c1.93-1.34,3.85-2.67,5.78-4.01,3.7-1.99,4.66,1.49,6.48,3.25,6.15,44.98,18.77,89.01,20.33,134.66,1.04,30.37-6.56,58.33-27.25,81.21-17.06,18.87-38.07,29.03-64.5,23.54-2.37-.49-5.06-4.06-7.88.54-3.71,6.05-4.13,5.79-9.43-.51-1.18-54.82,4.85-109.76-2.93-164.46-.58-4.09-1.5-8.12-2.26-12.18-3.25-3.86-4.02-8.16,1.42-9.88,5.48-1.73,7.16,3.42,7.87,7.46,3.62,20.62,7.13,41.28,7.3,62.29.2,25.13-.21,50.26.15,75.39.27,19.28,9.16,26.99,28.04,22.77,26.1-5.83,40.79-24.93,48.81-48.67,9.66-28.6,6.1-57.98.36-86.91-4.79-24.16-9.15-48.33-10.88-72.9.61-3.97-2.55-7.52-1.42-11.58Z" style="fill:#040905; stroke-width:0px;"/><path d="M683.11,876.29c-2.16-1.08-4.32-2.16-6.48-3.25-.05-14.04.61-27.83,12.96-37.59,2.91-.48,4.68.06,3.19,3.54-11.46,10.3-9.35,24.11-9.67,37.3Z" style="fill:#040905; stroke-width:0px;"/><path d="M692.78,838.99c-1.06-1.18-2.13-2.36-3.19-3.54,2.52-10.43-11.58-16.75-6.87-27.72,2.73,10.62,18.33,17.1,10.06,31.26Z" style="fill:#040905; stroke-width:0px;"/><path d="M688.93,801.54c-4.3-6.79,6.71-10.07,3.79-16.54,2.76-1.11,2.3-3.76,2.83-5.93,8.23,10.57,1.85,16.83-6.62,22.47Z" style="fill:#040905; stroke-width:0px;"/><path d="M308.86,521.8c18.41-7.01,24.85-23.97,33.1-39.54,2.25-4.25.99-11.45,10.71-9.9,5.36.86,4.2-5.87,1.34-9.16-19.82-22.82-39.76-45.53-59.84-68.11-2.81-3.16-6.91-1.64-10.41-.61-5.11,1.5-10.03,2.27-15.27.15-14.45-5.84-22.48-28.77-17.11-49.45,4.38-16.86,16.08-24.07,34.5-21.21,4.07.63,8.1,1.45,13.91,2.51-5.02-9.38-14.18-9.35-21.12-13.65,24.37-6.42,33.27-5.29,42.52,5.46,2.34-5.66-1.61-15.88,12.64-5.83,13.8,9.73,20.84,21.22,29.08,34.04,13.67,21.26,39.46,29.91,64.95,23.63,21.22-5.23,34.57-22.07,38.28-48.28,1.98-14.01,13.21-20.23,26.32-15.2,8.13,3.11,3.91,9.74,5,14.75,1.49,6.85-2.48,14.46,5.87,20.31,5.69,3.98,7.44,11.93,1.8,18.14-5.52,6.08-12.05,3.57-18.77,1.01-5.35-2.04-11.49-13.54-16.3-3.53-4.14,8.62,7.48,10.41,13.5,13.24,11.19,5.26,21.48,3.78,29.27-6.64,2.48-3.31,3.63-7.81,9.34-4.16,14.02,8.95,29.88,7.92,46.57,7.14-6.43,28.96-12.85,56.91-25.64,82.82-19.58,39.65-48.14,53.24-91.6,44.28-17.02-3.51-33.22-9.22-48.37-17.8-6.2-3.51-12.76-7.06-17.44,1.42-4.9,8.88,2.64,11.92,8.53,15.24,21.73,12.25,45.06,19.67,69.93,21.16,9.09.54,14.34,2.17,15.15,12.78.42,5.45.96,15.11,11.95,11.92.81.59,1.71.92,2.71.97,3.23,5.86-.95,10.01-3.66,14.19-16.83,26-35.97,50.24-57.22,72.75-11.85,12.55-16,12.51-28.35.09-19.93-20.04-38.14-41.7-58.2-61.66-12.24-12.18-24.89-23.86-37.54-35.57-.04-2.55-.08-5.11-.11-7.66Z" style="fill:#ecb889; stroke-width:0px;"/><path d="M503.41,869.53h-22.6c6.11,7.55,12.8,1.99,18.97,6.54-17.81,19.5-35.81,36.63-64.72,34.93-13.58-.79-27.21-.74-40.82-1.07-2.09-.05-4.75-.97-6.2-.03-19.62,12.7-20.56-6.39-25.05-15.8-7.24-15.18-7.46-32.5-11.21-48.8,2.07-7.16,6.76-11.85,13.6-14.53,25.09-20.55,50.34-40.94,71.06-66.19,2.08-2.53,5.19-3.27,8.06-4.4,12.23-5.29,26.28-7.95,31.54-23.06.69-1.97,4.14-4.43,6.12-4.28,14.17,1.1,28.06,1.66,40.63-6.88.91-.62,4.63.78,5.08,1.97,1.61,4.27-1.94,6.94-4.69,8.99-15.6,11.69-28.61,26.92-47.06,34.77-1.73.74-4.15,1.37-3.18,4.85,27.69-2.23,55.45-4.64,83.25-6.56,6.38-.44,15.37-2.61,16.86,6.68,1.43,8.93-6.47,12.22-13.73,14.38-20.72,6.16-42.6,4.45-63.54,9.19-7.12,1.61-14.3,3.06-21.31,5.06-3.3.94-7.63,1.83-6.89,6.96.83,5.82,5.36,3.37,8.62,3.55,12.51.69,25.12.63,37.52,2.21,8.04,1.02,18.72,2.78,17.78,13.68-.81,9.44-11.28,7.38-18.01,8.67-11.4,2.17-23.63-1.43-38.71,5.65,15.62,5,27.53.62,39.22.94,2.02,1.59,4.03,3.18,6.04,4.77,2.94,13.86-6.31,16.32-16.63,17.79Z" style="fill:#ecb889; stroke-width:0px;"/><path d="M308.98,529.46c6.27-.64,9.15,4.52,12.86,7.87,30.35,27.41,58.78,56.76,85.59,87.59,7.96,9.15,12.95,11.44,21.74,1.08,23.34-27.5,47.32-54.44,64.77-86.33,4.98-2.58,4.91-10.75,12.28-11.04,4.47,5.69-.18,9.87-2.7,13.84-20.81,32.77-44.71,63.14-70.99,91.7-8.75,9.51-17.12,11.34-26.49,1.33-32.19-34.37-64.39-68.72-96.53-103.13-.57-.61-.37-1.93-.53-2.91Z" style="fill:#040905; stroke-width:0px;"/><path d="M91.91,940.83c18.87-7.93,36.89-16.09,55.36-23.05,9.57-3.61,15.35-8.42,17.75-19.05,2.83-12.55,8.24-24.53,13.89-40.61,2.1,18.55-6.94,31.64-5.06,46.91,5.8.83,10.65-2.65,15.6-4.62,45.67-18.16,91.24-36.56,136.85-54.87,3.4-1.36,6.8-2.82,10.33-3.7,3.19-.79,7.48-4.31,9.56.65,2.17,5.18-3.38,5.72-6.33,6.92-20.83,8.45-41.73,16.73-62.68,24.88-55.05,21.42-110.11,42.84-165.26,64-5.97,2.29-12.05,6.57-20.01,2.54Z" style="fill:#040905; stroke-width:0px;"/><path d="M448.11,649c7.92-17.01,22.12-28.49,35.32-40.66,19.97-18.4,41.19-35.46,58.98-56.19,2.39-2.78,5.08-8.32,9.92-4.26,4.65,3.9.11,8.34-2.21,10.8-8.57,9.1-17.53,17.92-27.02,26.04-24.97,21.37-52.1,40.24-74.99,64.26Z" style="fill:#040905; stroke-width:0px;"/><path d="M305.54,599.48c19.64,18.63,36.06,40.57,58.39,56.44,8.53,6.07,17.24,11.73,27.08,15.42,3.6,1.35,7.69,3.26,5.85,7.52-2.16,5.01-6.27,1.37-9.29.13-25.77-10.56-45.66-28.88-63.87-49.22-7.62-8.52-14.44-17.76-21.62-26.68-.99-3.25.51-4.12,3.45-3.61Z" style="fill:#040905; stroke-width:0px;"/><path d="M204.19,723.64c-14.06-28.55-19.75-59.36-27.76-89.49,13.38,28.62,25.83,57.52,27.76,89.49Z" style="fill:#040905; stroke-width:0px;"/><path d="M160.37,719.27c8.55,27.6,17.26,55.16,16.16,84.39-1.8.37-3.6.75-5.4,1.12-4.57-26.31-9.15-52.62-13.72-78.93-.94-3.06-2.95-6.59,2.95-6.57Z" style="fill:#040905; stroke-width:0px;"/><path d="M444.5,760.18c-22.99,27.33-48.61,51.71-79.13,70.59.3-1.5.07-3.74.98-4.39,27.83-19.86,50.42-45.38,74.75-69.01,1.13.94,2.26,1.87,3.39,2.81Z" style="fill:#040905; stroke-width:0px;"/><path d="M305.54,599.48c-1.15,1.2-2.3,2.41-3.45,3.61-6.49-7.74-12.97-15.49-19.46-23.23,1-.97,2-1.94,3.01-2.91,6.63,7.51,13.27,15.02,19.9,22.53Z" style="fill:#040905; stroke-width:0px;"/><path d="M160.37,719.27c-.98,2.19-1.97,4.38-2.95,6.57-2.68-8.13-5.36-16.26-8.05-24.39,8.13,3.91,8.73,11.29,11,17.81Z" style="fill:#040905; stroke-width:0px;"/><path d="M62.31,962.13c3.35-8.27,7.95-14.48,21.53-15.17-9.51,6.7-15.52,10.94-21.53,15.17Z" style="fill:#040905; stroke-width:0px;"/><path d="M554.42,143.65c-11.71,9.88-17.81,16.44-4.07,33.45,19.33,23.93,26.75,55.06,28.7,86.54.55,8.87-1.21,12.33-11.13,9.58-17.89-4.95-36.29-.5-54.12.82-7.59.56-16.27,10.12-25.58,11.92-10.84,2.1-24.54,10.44-29.77-9.41-1.72-6.52-9.87-6.59-14.72-2.87-8.85,6.8-18.02,6.18-28.04,4.65-27.57-4.21-52.33,7.26-77.71,14.87-17.52,5.25-35.35,2.04-53.02,3.1-6.79.41-7.75-3.62-7.05-9.05,5.98-46.74,14.21-92.44,56.42-122.5,1.69-1.2,3.59-2.6,4.47-4.36,13.79-27.69,38.16-24.47,62.48-21.68,27.06,3.1,53.67,8.77,80.19,14.7,25.2,5.64,48.72,5.27,68.65-13.96,3.58-.79,5.01.62,4.32,4.21Z" style="fill:#ecb889; stroke-width:0px;"/><path d="M576.04,873.77c-13.15,11.12-.4,14.24,6.2,17.51,9.78,4.84,21.8,2.13,31.6,7.89.7,1.49.45,2.76-.87,3.78-9.14,1.63-20.75-.72-21.49,14.2-.08,1.64-4.16,2.67-5.53-.98.45-10.05-.16-18.97-12.14-23.16-6.13-2.14-9.38-8.82-7.87-15.44,3.17-13.83.21-26.53-5.17-39.06,1.01-.02,2.03,0,3.04.03,9.2,1.65,10.66,10.62,15.5,16.39-.52,5.27-17.21,7.14-3.25,15.45.76.76,1.01,1.51.75,2.26-.26.75-.51,1.13-.77,1.13Z" style="fill:#040905; stroke-width:0px;"/><path d="M579.3,854.93c-9.33-1.53-10.01-11.23-15.5-16.39-.09-2.02.06-4.08-.32-6.05-2.25-11.87.78-17.82,14.07-13.18,2.33.81,5,.64,7.51.93,3.6,2.91,1.31,5.64-.55,7.98-5.98,7.53-9.22,13.93,2.87,19.3,4.4,1.96.17,4.93-2.12,6.81-1.99.21-3.98.41-5.97.62Z" style="fill:#ff5097; stroke-width:0px;"/><path d="M585.27,854.31c.06-1.82,2.21-4.11-.39-5.38-13.74-6.75-9.91-14.69-1.95-23.25,1.23-1.33,1.44-3.61,2.12-5.45,3.96.38,3.26,3.61,3.73,6.12-3.01,4.53-9.7,8.07-5.87,14.72,3.14,5.45,9.46,3.11,14.44,3.63,8.53.89,17.82-2.09,25.2,5.59-12.84-.98-24.91,2.83-37.29,4.03Z" style="fill:#040905; stroke-width:0px;"/><path d="M305.18,89.78c9.56,5.52,15.79,10.59,21.04,22.85-7.52-8.17-13.16-14.3-21.04-22.85Z" style="fill:#b9906b; stroke-width:0px;"/><path d="M579.35,296.09c-.24,4.58-1.19,7.86-4.13,6.91-5.31-1.71-7.05-7.04-8.06-11.93-.61-2.93,2.23-4.71,4.96-3.71,4.69,1.72,7.18,5.45,7.24,8.73Z" style="fill:#c39871; stroke-width:0px;"/><path d="M585.7,762.38c-1.17,4.93-5.17,3.81-8.55,3.75-3.51-.06-8.11.18-7.68-4.87.38-4.54,4.74-4.58,8.4-4.41,3.69.17,7.2.75,7.84,5.52Z" style="fill:#c69a72; stroke-width:0px;"/><path d="M447.38,302.11c-.03,3.04-1.46,5.44-4.51,4.92-3.64-.62-6.84-2.88-7.71-6.78-.68-3.01,2.36-2.89,4.11-3.38,4.53-1.26,6.69,1.53,8.11,5.24Z" style="fill:#c49971; stroke-width:0px;"/><path d="M554.42,143.65c-1.44-1.4-2.88-2.81-4.32-4.21,3.75-3.95,7.5-7.9,12.6-13.27,1.54,9.98-3.68,13.57-8.28,17.48Z" style="fill:#c29770; stroke-width:0px;"/><path d="M585.94,916.16c2.54.56,6.19,1.36,4.9-2.81-5.34-17.22,4.06-15.62,15.12-12.34,2.51.74,5.05,1.39,7.57,2.07,12.06,5.42,24.15,10.71,37.86,9.48,7.03,15.63,10.31,32.85,20.07,47.37-7.56-17.95-19.02-34.66-18.12-55.37,3.14-6.02,6.42-11.97,10.53-17.35,3.09-4.05,6.46-8.72,12.55-4.01.69,32.11,9.31,63.03,13.99,94.55,3.32,22.36,4.67,44.92-1.53,66.99-7.11,25.32-20.92,45.42-46.57,55.48-7.03,2.76-14.23,3.91-21.52,2.63-12.44-2.18-20.56-7.44-19.85-22.64,2.17-46.05,2.06-92.11-5.61-137.8-.65-3.89-1.54-7.73-2.34-11.73-5.53,1.97-2.5,5.91-3.82,8.4-5.36-.2-7.01-2.83-5.8-8.03,1.14-4.9,1.71-9.93,2.54-14.9Z" style="fill:#ff5097; stroke-width:0px;"/><path d="M503.41,869.53c7.03-4.54,18.27-5.14,16.62-17.79,9.31,15.43-8.4,16.54-13.03,24.58-.36-2.71-.85-5.34-3.59-6.79Z" style="fill:#040905; stroke-width:0px;"/><path d="M655.28,905.23c1.17,19.47,12.79,34.97,19.67,52.28,1.63,4.09,8.05,9.9.28,12.98-6.42,2.54-6.31-5.33-8-9.04-6.88-15.14-14.99-29.93-15.67-47.14-1-2.99-7.51-.36-6-5.9,2.25-2.22,4.5-4.44,6.76-6.66,2.81-.4,4.37.27,2.97,3.47Z" style="fill:#040905; stroke-width:0px;"/><path d="M576.04,873.77c0-1.13.01-2.26.02-3.39,24.31,0,48.61,0,72.92,0-24.08,7.23-48.39,8.37-72.93,3.39Z" style="fill:#040905; stroke-width:0px;"/><path d="M655.28,905.23c-.99-1.16-1.98-2.32-2.97-3.47,4.94-9.16,7.81-19.88,18.54-24.7,1.42,2.45,5.9,2.13,5.6,6.15-14.44.24-13.15,15.6-21.16,22.02Z" style="fill:#040905; stroke-width:0px;"/><path d="M645.55,908.42c2,1.97,4,3.93,6,5.9-14.64,2.9-26.88-2.28-38.01-11.24.1-1.3.2-2.61.3-3.91,10.31,3.98,18.83,14.09,31.71,9.25Z" style="fill:#040905; stroke-width:0px;"/><path d="M502.46,392.1c-6.27,14.21-4.3,27.94-3.54,41.25.73,12.86,14.04,4.48,20.47,10.12-3.65,8.86-11.54,8.95-19.08,8.2-16.27-1.61-32.27-.52-48.35,2.19-12.94,2.17-24.82-.95-29.46-14.58-4.54-13.34.42-24.96,12.08-32.72,20.04-13.32,42.6-15.95,67.87-14.46Z" style="fill:#040905; stroke-width:0px;"/><path d="M269.42,346.58c15.83-5.14,25.35-2.33,31.61,9.7,2.66,5.11,1.01,8.95-3.4,11.95-4.51,3.07-8.59.72-10.71-2.7-4.09-6.6-8.54-12.73-17.51-18.95Z" style="fill:#040905; stroke-width:0px;"/><path d="M281.07,271.59c4.39-24.42,10.6-47.94,12.71-72.27,2.98,25.6,5.83,51.17-12.71,72.27Z" style="fill:#040905; stroke-width:0px;"/><path d="M443.38,417.08c11.45-10.8,25.27-13.57,38.5-17.75,3.76-1.19,8.61-3.18,8.97,4.01.25,5.16-.58,9.3-7.07,9.85-13.48,1.15-26.93,2.58-40.4,3.89Z" style="fill:#dcdcdc; stroke-width:0px;"/><path d="M454.94,438.81c9.27-8.57,20.16-7.98,29.11-11.93,1.97-.87,3.57,1.33,3.73,3.76.19,2.99-1.18,4.18-3.99,5.49-8.77,4.08-17.72,3.04-28.85,2.68Z" style="fill:#c9c9c9; stroke-width:0px;"/><path d="M553.67,137.31c-3.59,7.24-11.07,11.66-18.39,15.08-9.7,4.53-19.86,8.07-30.28,10.53-7.25,1.71-14.57,19.49-21.93,20.29-27.05,2.94-54.75-15.98-82.09-16.87-9.95-.33-13.52,8.87-23.47,9.15-12.5.35-31.38-7.98-43.71-5.91-16.39,2.76-32.98,7.68-45.75,18.32,12.19-20.66,24.02-43.07,45.2-54.33,11.88-6.32,25.33-8.87,38.25-12.61,13.79-3.99,27.13-9.41,40.88-13.51,6.59-1.97,13.36-3.65,20.24-3.55,7.22.1,14.26,2.15,21.19,4.18,11.02,3.23,22.04,6.46,33.07,9.68,7.01,2.05,14.39,4.33,19.33,9.71,1.76,1.91,3.16,4.18,5.2,5.79,2.34,1.85,5.3,2.67,8.22,3.28,10.84,2.25,23.33,3.54,34.05.77Z" style="fill:#040905; stroke-width:0px;"/><path d="M380.3,150.07c-6.88-1.25-13.73,2.37-19.13,6.82-8.35,6.87-14.69,15.87-20.11,25.22-16.11,27.79-24.86,61.64-15.47,92.36,2.31,7.55,6.07,15.24,12.89,19.21-6.24-7.8-12.62-15.2-17.75-23.77-10.83-18.05-16.32-38.77-20.66-59.37-3.97-18.85-6.98-39.09.41-56.89" style="fill:#040905; stroke-width:0px;"/><path d="M552.55,140.69c-3.6,24.68-12.26,48.76-26.28,69.4-14.02,20.64-33.49,37.73-56.3,47.82,11.93-19.25,21.23-41.25,23.51-63.79,2.28-22.54-1.76-45.94-13.07-65.57" style="fill:#040905; stroke-width:0px;"/><path d="M472.34,142.97c5.29,37.16-22.29,75.78-49.86,102.02,8.23-13.41,12.18-26.32,16.1-39.2,4.92-16.17,4.49-31.32,4.37-47.85-.05-7.32-2.39-14.84-5.94-21.24" style="fill:#040905; stroke-width:0px;"/><path d="M394.93,141.38c-4.55,8.69-6.33,18.64-6.3,28.45.03,9.81,1.8,19.54,4,29.1,4.85,21.05,11.84,41.6,20.83,61.24-12.83-16.19-24.11-33.89-32.83-52.61-8.71-18.73-14.22-39.19-13.91-59.84.05-3.15.25-6.4,1.64-9.23" style="fill:#040905; stroke-width:0px;"/><path d="M347.38,158.87c-4.89,8.51-7.04,18.39-7.39,28.19-.35,9.8,1.04,19.59,2.88,29.23,4.03,21.22,10.23,42.03,18.45,62-12.2-16.67-22.79-34.79-30.77-53.84-7.99-19.05-12.7-39.71-11.59-60.33.17-3.15.5-6.39,1.99-9.16" style="fill:#040905; stroke-width:0px;"/><path d="M528.25,131.43c5.93,7.81,9.34,17.33,10.94,27.01,1.6,9.68,1.47,19.56.89,29.36-1.29,21.56-4.77,42.99-10.37,63.85,9.96-18.09,18.15-37.42,23.63-57.34,5.48-19.91,7.51-41.01,3.77-61.32-.57-3.1-1.31-6.27-3.15-8.83" style="fill:#040905; stroke-width:0px;"/><path d="M396.02,124.69c6.52,8.59,10.27,19.06,12.03,29.7,1.76,10.64,1.62,21.51.98,32.28-1.41,23.71-5.24,47.27-11.4,70.21,10.95-19.89,19.95-41.15,25.98-63.04,6.03-21.89,8.26-45.09,4.15-67.42-.63-3.41-1.44-6.89-3.46-9.71" style="fill:#040905; stroke-width:0px;"/><path d="M471.47,115.73c20.49,39.15,20.84,82.08,8.99,124.59-1.32-17.74-.11-36.92-2.83-54.5-1.25-8.06-3.62-14.97-4.87-23.03-1.48-9.56-6.2-19.53-9.15-28.74-2.95-9.21-7.45-18.09-14.25-24.96" style="fill:#040905; stroke-width:0px;"/><path d="M354.53,50.16c-6.07,3.07-7.78,10.33-9.13,16.46-.87,3.61-1.85,9.09-2.42,12.82-.48,2.94-.76,6.73-1.12,9.71-.09,1.64-.29,4.87-.39,6.5-.17,2.06-.11,7.6-.14,9.76.45,25.45,6.91,50.77,18.76,73.3,7.49,13.68,16.54,27.03,28.92,36.74,6.79,5.41,14.68,9.5,23.21,11.34-8.71-1.19-16.92-5.06-24.1-10.16-12.56-9.06-22.03-21.84-29.63-35.18-14.1-24.96-20.82-54.03-19.47-82.63.6-10.99,2.19-21.93,5.28-32.48,1.66-6.12,3.84-13.53,10.22-16.18h0Z" style="fill:#000; stroke-width:0px;"/><path d="M437.89,105.34c7.11,23.44,8.2,48.96,4.6,73.16-2.97,18.8-8.84,37.59-18.09,54.22,8.32-19.94,13.88-41.22,16.18-62.69,2.25-21.48,1.27-43.44-2.69-64.69h0Z" style="fill:#000; stroke-width:0px;"/><path d="M577.65,131.6c-8.11,40.07-30.42,77.1-61.65,103.44,0,0-6.38,5.1-6.38,5.1,0,0,6.21-5.3,6.21-5.3,30.48-27.06,52.43-63.55,61.82-103.24h0Z" style="fill:#000; stroke-width:0px;"/><path d="M344.18,129.54c7.11,23.44,8.2,48.96,4.6,73.16-2.97,18.8-8.84,37.59-18.09,54.22,8.32-19.94,13.88-41.22,16.18-62.69,2.25-21.48,1.27-43.44-2.69-64.69h0Z" style="fill:#000; stroke-width:0px;"/><path d="M565.09,185.86c6.15,26.5,4.49,54.68-3.89,80.52-3.42,10.33-7.58,20.79-15.04,28.93-3.69,4.06-8.41,7.27-13.61,8.82,10.09-4.32,16.29-13.81,20.54-23.5,12.34-29.78,15.85-62.85,12-94.77h0Z" style="fill:#000; stroke-width:0px;"/></g></svg>