<svg width="487" height="171" viewBox="0 0 487 171" fill="none" xmlns="http://www.w3.org/2000/svg">
<path d="M9.21654 11.4857C9.6913 5.14231 15.2185 0.384869 21.5619 0.85963L475.257 34.8158C481.601 35.2906 486.358 40.8178 485.883 47.1611L477.527 158.813C477.052 165.157 471.525 169.914 465.182 169.439L11.4862 135.483C5.14278 135.008 0.385336 129.481 0.860097 123.138L9.21654 11.4857Z" fill="#9DE29D" stroke="#2A2A2A" stroke-width="0.767854"/>
<path d="M414.671 133.99L420 62.7891L448.48 64.9206L447.491 78.1437L434.166 77.1464L433.062 91.8951L441.911 92.5574L440.769 107.815L431.92 107.152L430.809 122.003L444.133 123L443.151 136.122L414.671 133.99Z" fill="#2A2A2A"/>
<path d="M386.613 131.889L390.953 73.9111L381.29 73.1879L382.279 59.9648L416.863 62.5532L415.873 75.7762L406.21 75.053L401.871 133.031L386.613 131.889Z" fill="#2A2A2A"/>
<path d="M342.308 128.574L356.283 58.0201L374.591 59.3904L377.908 131.238L363.668 130.173L363.735 116.983L358.344 116.579L356.65 129.647L342.308 128.574ZM360.299 101.383L364.165 101.672L364.83 79.1169L363.101 78.9875L360.299 101.383Z" fill="#2A2A2A"/>
<path d="M301.605 125.527L306.934 54.3262L322.496 55.4909C326.158 55.765 329.446 56.9316 332.36 58.9909C335.28 60.9824 337.507 63.5698 339.042 66.7532C340.649 69.8739 341.313 73.299 341.034 77.0286L340.144 88.9293C340.012 90.6924 339.398 92.9649 338.304 95.747C337.214 98.4612 335.365 100.846 332.756 102.901L332.642 104.427L337.205 128.192L321.948 127.05L319.145 107.099L318.23 107.03L316.76 126.661L301.605 125.527ZM319.212 93.9089L320.025 93.9698C321.246 94.0612 322.288 93.7983 323.153 93.1811C324.09 92.5011 324.668 90.7032 324.886 87.7874L325.8 75.5815C326.013 72.7335 325.707 70.9035 324.881 70.0916C324.123 69.2848 323.134 68.8357 321.913 68.7444L321.1 68.6835L319.212 93.9089Z" fill="#2A2A2A"/>
<path d="M279.52 124.897C276.265 124.654 273.34 123.651 270.744 121.888C268.154 120.058 266.144 117.759 264.714 114.993C263.358 112.164 262.804 109.088 263.052 105.765L265.869 68.1303C266.118 64.8076 267.121 61.8823 268.878 59.3544C270.709 56.7638 273.039 54.7902 275.868 53.4336C278.702 52.0091 281.746 51.4187 285.001 51.6623C288.256 51.9059 291.179 52.943 293.77 54.7734C296.365 56.536 298.342 58.8319 299.698 61.6611C301.128 64.4275 301.718 67.4721 301.469 70.7948L298.653 108.43C298.404 111.752 297.364 114.709 295.534 117.299C293.776 119.827 291.48 121.804 288.646 123.228C285.817 124.585 282.775 125.141 279.52 124.897ZM280.525 111.471C281.271 111.527 281.899 111.335 282.409 110.896C282.925 110.389 283.208 109.797 283.258 109.118L286.357 67.7203C286.413 66.9743 286.221 66.3463 285.782 65.8361C285.348 65.2581 284.758 64.9412 284.012 64.8853C283.266 64.8295 282.601 65.0525 282.018 65.5544C281.508 65.9936 281.225 66.5861 281.169 67.332L278.071 108.73C278.02 109.408 278.212 110.036 278.646 110.614C279.153 111.13 279.779 111.415 280.525 111.471Z" fill="#2A2A2A"/>
<path d="M223.081 119.65L228.41 48.4492L246.21 49.7815C249.533 50.0301 252.458 51.0333 254.986 52.7908C257.587 54.4857 259.571 56.6798 260.938 59.3734C262.372 62.072 262.965 65.0826 262.716 68.4053C262.584 70.1684 262.074 71.9714 261.186 73.8142C260.304 75.5893 259.131 77.1381 257.668 78.4606C256.205 79.7831 254.504 80.6445 252.565 81.0449L252.489 82.0621C255.188 83.3551 257.26 85.2831 258.704 87.8461C260.217 90.4142 260.877 92.9866 260.684 95.5634L260.014 104.514C259.765 107.837 258.726 110.794 256.895 113.384C255.138 115.912 252.842 117.888 250.008 119.313C247.246 120.674 244.204 121.231 240.881 120.982L223.081 119.65ZM241.899 71.8592L243.119 71.9506C244.204 72.0318 245.15 71.6934 245.957 70.9355C246.837 70.1149 247.325 69.0604 247.421 67.772C247.517 66.4836 247.192 65.3682 246.444 64.4257C245.764 63.4884 244.882 62.9791 243.797 62.8979L242.576 62.8065L241.899 71.8592ZM239.219 107.663L239.931 107.716C241.151 107.808 242.253 107.208 243.236 105.918C244.219 104.628 244.782 103.033 244.924 101.135L245.274 96.4558C245.421 94.4893 245.102 92.8288 244.317 91.4745C243.537 90.0523 242.537 89.2955 241.316 89.2041L240.604 89.1509L239.219 107.663Z" fill="#2A2A2A"/>
<path d="M184.366 116.754L198.341 46.1998L216.65 47.5701L219.967 119.418L205.727 118.352L205.793 105.162L200.402 104.759L198.708 117.827L184.366 116.754ZM202.358 89.5626L206.223 89.8518L206.888 67.2966L205.159 67.1672L202.358 89.5626Z" fill="#2A2A2A"/>
<path d="M150.816 114.242L156.145 43.041L171.3 44.1753L166.953 102.255L180.278 103.252L179.296 116.373L150.816 114.242Z" fill="#2A2A2A"/>
<path d="M117.265 111.73L122.594 40.5293L137.749 41.6636L133.402 99.7432L146.727 100.74L145.745 113.862L117.265 111.73Z" fill="#2A2A2A"/>
<path d="M95.1804 111.101C91.9255 110.857 89.0002 109.854 86.4045 108.091C83.8139 106.261 81.8038 103.962 80.3743 101.196C79.0177 98.3668 78.4637 95.2909 78.7124 91.9682L81.5291 54.3334C81.7778 51.0107 82.7809 48.0854 84.5385 45.5575C86.3689 42.9669 88.6987 40.9933 91.5279 39.6367C94.3621 38.2122 97.4066 37.6218 100.662 37.8654C103.916 38.109 106.839 39.1461 109.43 40.9765C112.025 42.7392 114.002 45.0351 115.358 47.8642C116.788 50.6306 117.378 53.6752 117.13 56.9979L114.313 94.6326C114.064 97.9553 113.025 100.912 111.194 103.503C109.437 106.03 107.141 108.007 104.306 109.431C101.477 110.788 98.4353 111.344 95.1804 111.101ZM96.1852 97.6742C96.9312 97.73 97.5592 97.5383 98.0694 97.0992C98.5847 96.5922 98.8677 95.9997 98.9184 95.3216L102.017 53.9234C102.073 53.1775 101.881 52.5494 101.442 52.0392C101.008 51.4612 100.418 51.1443 99.6719 51.0885C98.926 51.0326 98.2615 51.2557 97.6784 51.7575C97.1682 52.1967 96.8852 52.7892 96.8293 53.5351L93.731 94.9333C93.6802 95.6114 93.8719 96.2395 94.3059 96.8175C94.8129 97.3328 95.4393 97.6183 96.1852 97.6742Z" fill="#2A2A2A"/>
<path d="M55.9811 108.167C52.7262 107.923 49.801 106.92 47.2053 105.158C44.6147 103.327 42.6046 101.029 41.1751 98.2623C39.8184 95.4332 39.2645 92.3573 39.5132 89.0346L42.3299 51.3998C42.5786 48.0771 43.5817 45.1518 45.3393 42.624C47.1697 40.0333 49.4995 38.0597 52.3287 36.7031C55.1629 35.2786 58.2074 34.6882 61.4623 34.9318C64.785 35.1805 67.7078 36.2176 70.2306 38.0429C72.8263 39.8056 74.8024 42.1015 76.1591 44.9306C77.5886 47.697 78.179 50.7416 77.9303 54.0643L77.0929 65.253L62.039 64.1263L62.9449 52.0222C63.0008 51.2762 62.7752 50.6457 62.2682 50.1304C61.7664 49.5473 61.1425 49.2278 60.3965 49.172C59.7184 49.1213 59.0878 49.3468 58.5048 49.8487C57.9267 50.2828 57.6098 50.8728 57.554 51.6187L54.5926 91.186C54.5419 91.8641 54.7675 92.4947 55.2693 93.0778C55.7712 93.6609 56.3612 93.9778 57.0393 94.0286C57.7852 94.0844 58.4497 93.8614 59.0328 93.3595C59.6159 92.8576 59.9328 92.2676 59.9836 91.5895L60.8971 79.3836L75.951 80.5103L75.1136 91.699C74.8649 95.0217 73.8253 97.9784 71.9949 100.569C70.2373 103.097 67.9414 105.073 65.1072 106.497C62.3459 107.859 59.3038 108.416 55.9811 108.167Z" fill="#2A2A2A"/>
</svg>
