<?xml version="1.0" encoding="UTF-8"?>
<svg id="Layer_2" data-name="Layer 2" xmlns="http://www.w3.org/2000/svg" version="1.1" viewBox="0 0 785 232.8">
  <defs>
    <style>
      .cls-1 {
        fill: #000;
        stroke-width: 0px;
      }

      .cls-2 {
        fill: #a4ffa4;
        stroke: #2a2a2a;
        stroke-miterlimit: 10;
        stroke-width: 3px;
      }
    </style>
  </defs>
  <g id="Layer_1-2" data-name="Layer 1-2">
    <rect class="cls-2" x="1.5" y="1.5" width="782" height="229.8" rx="21.3" ry="21.3"/>
    <g>
      <path class="cls-1" d="M100.3,173.5c-5,0-9.7-1.2-13.8-3.7-4.2-2.5-7.5-5.8-10-9.9-2.5-4.1-3.7-8.8-3.7-13.9v-58.2c0-5.1,1.2-9.8,3.7-13.9,2.5-4.1,5.8-7.4,10-9.9,4.2-2.5,8.8-3.7,13.8-3.7s9.8,1.2,13.9,3.7c4.1,2.5,7.4,5.8,9.9,9.9,2.5,4.2,3.7,8.8,3.7,13.9v17.3h-23.3v-18.7c0-1.2-.4-2.1-1.3-2.9-.8-.8-1.8-1.2-3-1.2s-2,.4-2.8,1.2c-.8.8-1.3,1.8-1.3,2.9v61.2c0,1.1.4,2,1.3,2.8.8.8,1.8,1.3,2.8,1.3s2.2-.4,3-1.3,1.3-1.8,1.3-2.8v-18.9h23.3v17.3c0,5.1-1.2,9.8-3.7,13.9-2.5,4.1-5.8,7.4-9.9,9.9-4.2,2.5-8.8,3.7-13.9,3.7h0Z"/>
      <path class="cls-1" d="M162.3,173.5c-5,0-9.7-1.2-13.9-3.7-4.2-2.5-7.5-5.8-10-9.9-2.5-4.1-3.7-8.8-3.7-13.9v-58.2c0-5.1,1.2-9.8,3.7-13.9,2.5-4.1,5.8-7.4,10-9.9,4.2-2.5,8.8-3.7,13.9-3.7s9.6,1.2,13.9,3.7c4.2,2.5,7.5,5.8,10,9.9,2.5,4.2,3.7,8.8,3.7,13.9v58.2c0,5.1-1.2,9.8-3.7,13.9-2.5,4.1-5.8,7.4-10,9.9-4.2,2.5-8.8,3.7-13.9,3.7h0ZM162.3,152.7c1.1,0,2.1-.4,2.8-1.2s1.1-1.7,1.1-2.8v-64.1c0-1.2-.4-2.1-1.1-2.9-.7-.8-1.7-1.2-2.8-1.2s-2.1.4-2.9,1.2-1.2,1.8-1.2,2.9v64.1c0,1.1.4,2,1.2,2.8s1.8,1.2,2.9,1.2Z"/>
      <path class="cls-1" d="M197.8,171.9V61.7h23.5v89.9h20.6v20.3h-44.1,0Z"/>
      <path class="cls-1" d="M251.1,171.9V61.7h23.5v89.9h20.6v20.3h-44.1Z"/>
      <path class="cls-1" d="M304.5,171.9l13.4-110.2h28.3l13.4,110.2h-22l-1.4-20.3h-8.3l-1.1,20.3h-22.2,0ZM329,128h6l-1.6-34.8h-2.7l-1.7,34.8Z"/>
      <path class="cls-1" d="M365.7,171.9V61.7h27.5c5.1,0,9.8,1.2,13.9,3.5,4.1,2.4,7.5,5.5,9.9,9.5,2.5,4,3.7,8.6,3.7,13.7s-.6,5.5-1.7,8.4c-1.2,2.9-2.8,5.4-4.9,7.6s-4.6,3.7-7.6,4.6v1.6c4.3,1.7,7.7,4.4,10.3,8.2,2.6,3.8,3.9,7.7,3.9,11.7v13.9c0,5.1-1.2,9.8-3.7,13.9-2.5,4.1-5.8,7.4-9.9,9.9-4.1,2.5-8.8,3.7-13.9,3.7h-27.5,0ZM389.2,96.2h1.9c1.7,0,3.1-.7,4.3-2,1.2-1.3,1.8-3,1.8-5s-.6-3.7-1.8-5c-1.2-1.4-2.6-2.1-4.3-2.1h-1.9v14h0ZM389.2,151.6h1.1c1.9,0,3.5-1.1,4.9-3.1,1.4-2.1,2-4.6,2-7.6v-7.2c0-3-.7-5.6-2-7.6-1.4-2.1-3-3.1-4.9-3.1h-1.1v28.6Z"/>
      <path class="cls-1" d="M454.5,173.5c-5,0-9.7-1.2-13.9-3.7-4.2-2.5-7.5-5.8-10-9.9-2.5-4.1-3.7-8.8-3.7-13.9v-58.2c0-5.1,1.2-9.8,3.7-13.9,2.5-4.1,5.8-7.4,10-9.9,4.2-2.5,8.8-3.7,13.9-3.7s9.7,1.2,13.9,3.7c4.2,2.5,7.5,5.8,10,9.9,2.5,4.2,3.7,8.8,3.7,13.9v58.2c0,5.1-1.2,9.8-3.7,13.9-2.5,4.1-5.8,7.4-10,9.9-4.2,2.5-8.8,3.7-13.9,3.7h0ZM454.5,152.7c1.1,0,2.1-.4,2.8-1.2.7-.8,1.1-1.7,1.1-2.8v-64.1c0-1.2-.4-2.1-1.1-2.9-.7-.8-1.7-1.2-2.8-1.2s-2.1.4-2.9,1.2-1.2,1.8-1.2,2.9v64.1c0,1.1.4,2,1.2,2.8s1.8,1.2,2.9,1.2Z"/>
      <path class="cls-1" d="M489.9,171.9V61.7h24.1c5.7,0,10.9,1.4,15.6,4.2,4.7,2.8,8.5,6.5,11.3,11.2,2.8,4.7,4.2,9.9,4.2,15.7v18.4c0,2.7-.7,6.3-2,10.6s-3.9,8.3-7.7,11.7v2.4l9.8,36.1h-23.6l-6.6-30.4h-1.4v30.4h-23.5ZM513.4,121.2h1.3c1.9,0,3.5-.6,4.8-1.7s2-3.9,2-8.4v-18.9c0-4.4-.7-7.2-2-8.3s-2.9-1.7-4.8-1.7h-1.3v39h0Z"/>
      <path class="cls-1" d="M554.3,171.9l13.4-110.2h28.3l13.4,110.2h-22l-1.4-20.3h-8.3l-1.1,20.3h-22.2ZM578.9,128h6l-1.6-34.8h-2.7l-1.7,34.8Z"/>
      <path class="cls-1" d="M624.2,171.9v-89.7h-15v-20.5h53.5v20.5h-15v89.7h-23.6,0Z"/>
      <path class="cls-1" d="M668.9,171.9V61.7h44.1v20.5h-20.6v22.8h13.7v23.6h-13.7v23h20.6v20.3h-44.1Z"/>
    </g>
  </g>
</svg>