<svg width="488" height="171" viewBox="0 0 488 171" fill="none" xmlns="http://www.w3.org/2000/svg">
<path d="M10.1404 11.4857C10.6151 5.14231 16.1423 0.384869 22.4857 0.85963L476.181 34.8158C482.524 35.2906 487.282 40.8178 486.807 47.1611L478.451 158.813C477.976 165.157 472.449 169.914 466.105 169.439L12.41 135.483C6.06661 135.008 1.30916 129.481 1.78393 123.138L10.1404 11.4857Z" fill="#9DE29D" stroke="#2A2A2A" stroke-width="0.767854"/>
<path d="M415.595 133.99L420.924 62.7891L449.404 64.9206L448.415 78.1437L435.09 77.1464L433.986 91.8951L442.835 92.5574L441.693 107.815L432.844 107.152L431.733 122.003L445.057 123L444.075 136.122L415.595 133.99Z" fill="#2A2A2A"/>
<path d="M387.537 131.889L391.876 73.9111L382.213 73.1879L383.203 59.9648L417.786 62.5532L416.797 75.7762L407.134 75.053L402.794 133.031L387.537 131.889Z" fill="#2A2A2A"/>
<path d="M343.232 128.574L357.206 58.0201L375.515 59.3904L378.832 131.238L364.592 130.173L364.658 116.983L359.268 116.579L357.573 129.647L343.232 128.574ZM361.223 101.383L365.088 101.672L365.754 79.1169L364.024 78.9875L361.223 101.383Z" fill="#2A2A2A"/>
<path d="M302.528 125.527L307.857 54.3262L323.42 55.4909C327.082 55.765 330.37 56.9316 333.284 58.9909C336.204 60.9824 338.431 63.5698 339.965 66.7532C341.573 69.8739 342.237 73.299 341.958 77.0286L341.067 88.9293C340.936 90.6924 340.322 92.9649 339.227 95.747C338.138 98.4612 336.289 100.846 333.68 102.901L333.566 104.427L338.129 128.192L322.872 127.05L320.069 107.099L319.153 107.03L317.684 126.661L302.528 125.527ZM320.135 93.9089L320.949 93.9698C322.17 94.0612 323.212 93.7983 324.077 93.1811C325.014 92.5011 325.592 90.7032 325.81 87.7874L326.724 75.5815C326.937 72.7335 326.631 70.9035 325.805 70.0916C325.047 69.2848 324.058 68.8357 322.837 68.7444L322.023 68.6835L320.135 93.9089Z" fill="#2A2A2A"/>
<path d="M280.444 124.897C277.189 124.654 274.264 123.651 271.668 121.888C269.078 120.058 267.067 117.759 265.638 114.993C264.281 112.164 263.727 109.088 263.976 105.765L266.793 68.1303C267.041 64.8076 268.045 61.8823 269.802 59.3544C271.633 56.7638 273.962 54.7902 276.792 53.4336C279.626 52.0091 282.67 51.4187 285.925 51.6623C289.18 51.9059 292.103 52.943 294.693 54.7734C297.289 56.536 299.265 58.8319 300.622 61.6611C302.051 64.4275 302.642 67.4721 302.393 70.7948L299.576 108.43C299.328 111.752 298.288 114.709 296.458 117.299C294.7 119.827 292.404 121.804 289.57 123.228C286.741 124.585 283.699 125.141 280.444 124.897ZM281.449 111.471C282.195 111.527 282.823 111.335 283.333 110.896C283.848 110.389 284.131 109.797 284.182 109.118L287.281 67.7203C287.336 66.9743 287.145 66.3463 286.706 65.8361C286.271 65.2581 285.681 64.9412 284.936 64.8853C284.19 64.8295 283.525 65.0525 282.942 65.5544C282.432 65.9936 282.149 66.5861 282.093 67.332L278.995 108.73C278.944 109.408 279.136 110.036 279.57 110.614C280.077 111.13 280.703 111.415 281.449 111.471Z" fill="#2A2A2A"/>
<path d="M224.005 119.65L229.334 48.4492L247.134 49.7815C250.457 50.0301 253.382 51.0333 255.91 52.7908C258.511 54.4857 260.495 56.6798 261.861 59.3734C263.296 62.072 263.889 65.0826 263.64 68.4053C263.508 70.1684 262.998 71.9714 262.11 73.8142C261.227 75.5893 260.054 77.1381 258.592 78.4606C257.129 79.7831 255.428 80.6445 253.489 81.0449L253.412 82.0621C256.111 83.3551 258.183 85.2831 259.628 87.8461C261.141 90.4142 261.801 92.9866 261.608 95.5634L260.938 104.514C260.689 107.837 259.649 110.794 257.819 113.384C256.061 115.912 253.766 117.888 250.931 119.313C248.17 120.674 245.128 121.231 241.805 120.982L224.005 119.65ZM242.822 71.8592L244.043 71.9506C245.128 72.0318 246.074 71.6934 246.881 70.9355C247.76 70.1149 248.248 69.0604 248.345 67.772C248.441 66.4836 248.116 65.3682 247.368 64.4257C246.688 63.4884 245.805 62.9791 244.721 62.8979L243.5 62.8065L242.822 71.8592ZM240.143 107.663L240.855 107.716C242.075 107.808 243.177 107.208 244.16 105.918C245.143 104.628 245.706 103.033 245.848 101.135L246.198 96.4558C246.345 94.4893 246.026 92.8288 245.241 91.4745C244.461 90.0523 243.461 89.2955 242.24 89.2041L241.528 89.1509L240.143 107.663Z" fill="#2A2A2A"/>
<path d="M185.29 116.754L199.265 46.1998L217.574 47.5701L220.891 119.418L206.65 118.352L206.717 105.162L201.326 104.759L199.632 117.827L185.29 116.754ZM203.282 89.5626L207.147 89.8518L207.812 67.2966L206.083 67.1672L203.282 89.5626Z" fill="#2A2A2A"/>
<path d="M151.739 114.242L157.068 43.041L172.224 44.1753L167.877 102.255L181.202 103.252L180.22 116.373L151.739 114.242Z" fill="#2A2A2A"/>
<path d="M118.189 111.73L123.518 40.5293L138.673 41.6636L134.326 99.7432L147.651 100.74L146.669 113.862L118.189 111.73Z" fill="#2A2A2A"/>
<path d="M96.1042 111.101C92.8493 110.857 89.924 109.854 87.3283 108.091C84.7377 106.261 82.7276 103.962 81.2981 101.196C79.9415 98.3668 79.3875 95.2909 79.6362 91.9682L82.4529 54.3334C82.7016 51.0107 83.7047 48.0854 85.4623 45.5575C87.2928 42.9669 89.6226 40.9933 92.4517 39.6367C95.2859 38.2122 98.3305 37.6218 101.585 37.8654C104.84 38.109 107.763 39.1461 110.354 40.9765C112.949 42.7392 114.925 45.0351 116.282 47.8642C117.712 50.6306 118.302 53.6752 118.053 56.9979L115.237 94.6326C114.988 97.9553 113.948 100.912 112.118 103.503C110.36 106.03 108.064 108.007 105.23 109.431C102.401 110.788 99.3591 111.344 96.1042 111.101ZM97.1091 97.6742C97.855 97.73 98.483 97.5383 98.9932 97.0992C99.5085 96.5922 99.7915 95.9997 99.8423 95.3216L102.941 53.9234C102.996 53.1775 102.805 52.5494 102.366 52.0392C101.932 51.4612 101.342 51.1443 100.596 51.0885C99.8498 51.0326 99.1853 51.2557 98.6022 51.7575C98.092 52.1967 97.809 52.7892 97.7532 53.5351L94.6548 94.9333C94.604 95.6114 94.7957 96.2395 95.2298 96.8175C95.7367 97.3328 96.3632 97.6183 97.1091 97.6742Z" fill="#2A2A2A"/>
<path d="M56.905 108.167C53.6501 107.923 50.7248 106.92 48.1291 105.158C45.5385 103.327 43.5284 101.029 42.0989 98.2623C40.7423 95.4332 40.1883 92.3573 40.437 89.0346L43.2537 51.3998C43.5024 48.0771 44.5055 45.1518 46.2631 42.624C48.0935 40.0333 50.4233 38.0597 53.2525 36.7031C56.0867 35.2786 59.1313 34.6882 62.3862 34.9318C65.7089 35.1805 68.6316 36.2176 71.1544 38.0429C73.7501 39.8056 75.7263 42.1015 77.0829 44.9306C78.5124 47.697 79.1028 50.7416 78.8541 54.0643L78.0167 65.253L62.9628 64.1263L63.8688 52.0222C63.9246 51.2762 63.699 50.6457 63.1921 50.1304C62.6902 49.5473 62.0663 49.2278 61.3204 49.172C60.6423 49.1213 60.0117 49.3468 59.4286 49.8487C58.8506 50.2828 58.5337 50.8728 58.4778 51.6187L55.5165 91.186C55.4657 91.8641 55.6913 92.4947 56.1932 93.0778C56.695 93.6609 57.285 93.9778 57.9631 94.0286C58.7091 94.0844 59.3736 93.8614 59.9566 93.3595C60.5397 92.8576 60.8566 92.2676 60.9074 91.5895L61.8209 79.3836L76.8748 80.5103L76.0374 91.699C75.7887 95.0217 74.7492 97.9784 72.9187 100.569C71.1611 103.097 68.8652 105.073 66.031 106.497C63.2697 107.859 60.2277 108.416 56.905 108.167Z" fill="#2A2A2A"/>
</svg>
