<?xml version="1.0" encoding="UTF-8"?>
<svg id="Layer_2" data-name="Layer 2" xmlns="http://www.w3.org/2000/svg" version="1.1" viewBox="0 0 574.5 232.8">
  <defs>
    <style>
      .cls-1 {
        fill: #000;
        stroke-width: 0px;
      }

      .cls-2 {
        fill: #ff8af6;
        stroke: #2a2a2a;
        stroke-miterlimit: 10;
        stroke-width: 3px;
      }
    </style>
  </defs>
  <g id="Layer_1-2" data-name="Layer 1-2">
    <rect class="cls-2" x="1.5" y="1.5" width="571.5" height="229.8" rx="21.3" ry="21.3"/>
    <g>
      <path class="cls-1" d="M106.6,172.4c-5,0-9.7-1.2-13.8-3.7-4.2-2.5-7.5-5.8-10-9.9-2.5-4.1-3.7-8.8-3.7-13.9v-58.2c0-5.1,1.2-9.8,3.7-13.9,2.5-4.1,5.8-7.4,10-9.9,4.2-2.5,8.8-3.7,13.8-3.7s9.8,1.2,13.9,3.7c4.1,2.5,7.4,5.8,9.9,9.9,2.5,4.2,3.7,8.8,3.7,13.9v17.3h-23.3v-18.7c0-1.2-.4-2.1-1.3-2.9-.8-.8-1.8-1.2-3-1.2s-2,.4-2.8,1.2c-.8.8-1.3,1.8-1.3,2.9v61.2c0,1.1.4,2,1.3,2.8.8.8,1.8,1.3,2.8,1.3s2.2-.4,3-1.3,1.3-1.8,1.3-2.8v-18.9h23.3v17.3c0,5.1-1.2,9.8-3.7,13.9-2.5,4.1-5.8,7.4-9.9,9.9-4.2,2.5-8.8,3.7-13.9,3.7h0Z"/>
      <path class="cls-1" d="M168.6,172.4c-5,0-9.7-1.2-13.9-3.7-4.2-2.5-7.5-5.8-10-9.9-2.5-4.1-3.7-8.8-3.7-13.9v-58.2c0-5.1,1.2-9.8,3.7-13.9,2.5-4.1,5.8-7.4,10-9.9,4.2-2.5,8.8-3.7,13.9-3.7s9.6,1.2,13.9,3.7c4.2,2.5,7.5,5.8,10,9.9,2.5,4.2,3.7,8.8,3.7,13.9v58.2c0,5.1-1.2,9.8-3.7,13.9-2.5,4.1-5.8,7.4-10,9.9-4.2,2.5-8.8,3.7-13.9,3.7ZM168.6,151.7c1.1,0,2.1-.4,2.8-1.2s1.1-1.7,1.1-2.8v-64.1c0-1.2-.4-2.1-1.1-2.9-.7-.8-1.7-1.2-2.8-1.2s-2.1.4-2.9,1.2-1.2,1.8-1.2,2.9v64.1c0,1.1.4,2,1.2,2.8s1.8,1.2,2.9,1.2Z"/>
      <path class="cls-1" d="M204,170.9V60.7h18.9l13.4,43.3h2.4v-43.3h20.5v110.2h-18.9l-13.4-43.3h-2.4v43.3h-20.5,0Z"/>
      <path class="cls-1" d="M268.4,170.9V60.7h18.9l13.4,43.3h2.4v-43.3h20.5v110.2h-18.9l-13.4-43.3h-2.4v43.3h-20.5Z"/>
      <path class="cls-1" d="M332.8,170.9V60.7h44.1v20.5h-20.6v22.8h13.7v23.6h-13.7v23h20.6v20.3h-44.1Z"/>
      <path class="cls-1" d="M409.8,172.4c-5,0-9.7-1.2-13.9-3.7-4.2-2.5-7.5-5.8-10-9.9-2.5-4.1-3.7-8.8-3.7-13.9v-58.2c0-5.1,1.2-9.8,3.7-13.9,2.5-4.1,5.8-7.4,10-9.9,4.2-2.5,8.8-3.7,13.9-3.7s9.8,1.2,13.9,3.7c4.1,2.5,7.5,5.8,9.9,9.9,2.5,4.2,3.7,8.8,3.7,13.9v17.3h-23.3v-18.7c0-1.2-.4-2.1-1.3-2.9s-1.8-1.2-3-1.2-2,.4-2.8,1.2-1.3,1.8-1.3,2.9v61.2c0,1.1.4,2,1.3,2.8s1.8,1.3,2.8,1.3,2.1-.4,3-1.3,1.3-1.8,1.3-2.8v-18.9h23.3v17.3c0,5.1-1.2,9.8-3.7,13.9-2.5,4.1-5.8,7.4-9.9,9.9-4.1,2.5-8.8,3.7-13.9,3.7h0Z"/>
      <path class="cls-1" d="M457.6,170.9v-89.7h-15v-20.5h53.5v20.5h-15v89.7h-23.6,0Z"/>
    </g>
  </g>
</svg>