<svg width="340" height="165" viewBox="0 0 340 165" fill="none" xmlns="http://www.w3.org/2000/svg">
<path d="M1.16415 42.9097C0.521207 35.6019 5.92417 29.1565 13.232 28.5136L314.502 2.00793C321.81 1.36499 328.255 6.76795 328.898 14.0758L338.401 122.092C339.044 129.4 333.641 135.846 326.334 136.488L25.0636 162.994C17.7557 163.637 11.3104 158.234 10.6674 150.926L1.16415 42.9097Z" fill="#EAA2CD" stroke="#2A2A2A" stroke-width="0.885541"/>
<path d="M279.85 108.876L274.754 50.9593L265.102 51.8086L263.939 38.5996L298.486 35.5602L299.648 48.7692L289.995 49.6184L295.091 107.535L279.85 108.876Z" fill="#2A2A2A"/>
<path d="M250.001 112.527C246.749 112.813 243.7 112.296 240.854 110.976C238.001 109.589 235.646 107.646 233.788 105.147C231.991 102.575 230.947 99.6289 230.655 96.3097L227.348 58.7149C227.056 55.3957 227.572 52.3467 228.898 49.5678C230.285 46.7153 232.265 44.3908 234.838 42.5944C237.404 40.7303 240.313 39.6553 243.565 39.3692C246.884 39.0772 249.936 39.6278 252.721 41.0211C255.567 42.3407 257.889 44.2867 259.685 46.8592C261.543 49.358 262.618 52.2669 262.91 55.5861L263.894 66.7629L248.856 68.086L247.792 55.9947C247.726 55.2496 247.402 54.6638 246.818 54.2373C246.229 53.743 245.561 53.5287 244.816 53.5942C244.139 53.6538 243.553 53.9784 243.059 54.568C242.558 55.0899 242.341 55.7234 242.407 56.4685L245.884 95.9938C245.944 96.6712 246.268 97.257 246.858 97.7512C247.447 98.2454 248.081 98.4628 248.758 98.4032C249.503 98.3376 250.123 98.01 250.617 97.4205C251.112 96.8309 251.329 96.1974 251.269 95.52L250.197 83.3271L265.234 82.0041L266.218 93.1809C266.51 96.5001 265.962 99.586 264.575 102.439C263.249 105.217 261.303 107.539 258.737 109.403C256.232 111.193 253.32 112.235 250.001 112.527Z" fill="#2A2A2A"/>
<path d="M201.183 115.797L194.926 44.6719L223.376 42.1688L224.538 55.3778L211.227 56.5489L212.524 71.282L221.363 70.5042L222.704 85.7454L213.865 86.5231L215.17 101.358L228.48 100.187L229.633 113.294L201.183 115.797Z" fill="#2A2A2A"/>
<path d="M160.523 119.373L154.266 48.248L166.459 47.1753L177.554 74.3575L179.078 74.2234L176.619 46.2814L189.828 45.1193L196.086 116.245L183.893 117.317L172.798 90.135L171.274 90.2691L173.732 118.211L160.523 119.373Z" fill="#2A2A2A"/>
<path d="M119.865 122.951L113.607 51.8262L125.8 50.7534L136.895 77.9357L138.419 77.8016L135.961 49.8595L149.17 48.6974L155.428 119.823L143.235 120.895L132.14 93.7132L130.616 93.8472L133.074 121.789L119.865 122.951Z" fill="#2A2A2A"/>
<path d="M97.9696 125.902C94.7182 126.188 91.6692 125.671 88.8226 124.351C85.97 122.964 83.6147 121.021 81.7565 118.522C79.9601 115.95 78.9159 113.004 78.6239 109.685L75.3163 72.0899C75.0243 68.7707 75.5411 65.7217 76.8667 62.9428C78.254 60.0903 80.2339 57.7658 82.8064 55.9694C85.3729 54.1053 88.2818 53.0303 91.5333 52.7442C94.7847 52.4581 97.8367 53.0088 100.689 54.3961C103.536 55.7157 105.857 57.6617 107.654 60.2342C109.512 62.733 110.587 65.6419 110.879 68.9611L114.187 106.556C114.479 109.875 113.931 112.961 112.544 115.814C111.218 118.592 109.272 120.914 106.705 122.778C104.133 124.574 101.221 125.616 97.9696 125.902ZM96.7896 112.489C97.5348 112.424 98.1235 112.133 98.556 111.617C98.9825 111.034 99.1659 110.403 99.1063 109.726L95.468 68.3715C95.4024 67.6264 95.1117 67.0376 94.5958 66.6051C94.074 66.1049 93.4405 65.8876 92.6954 65.9532C91.9503 66.0187 91.3306 66.3463 90.8364 66.9359C90.4039 67.4518 90.2205 68.0823 90.286 68.8274L93.9244 110.182C93.984 110.859 94.2747 111.448 94.7965 111.948C95.3801 112.375 96.0445 112.555 96.7896 112.489Z" fill="#2A2A2A"/>
<path d="M58.8114 129.347C55.56 129.633 52.511 129.116 49.6644 127.797C46.8118 126.409 44.4564 124.466 42.5983 121.967C40.8019 119.395 39.7577 116.449 39.4657 113.13L36.1581 75.5352C35.8661 72.216 36.3829 69.167 37.7085 66.3882C39.0958 63.5356 41.0757 61.2111 43.6482 59.4148C46.2147 57.5507 49.1236 56.4756 52.3751 56.1895C55.6942 55.8975 58.7462 56.4481 61.5311 57.8414C64.3777 59.161 66.6992 61.1071 68.4955 63.6795C70.3537 66.1783 71.4288 69.0873 71.7208 72.4064L72.7041 83.5833L57.6662 84.9063L56.6024 72.815C56.5369 72.0699 56.2123 71.4841 55.6286 71.0576C55.0391 70.5633 54.3717 70.349 53.6266 70.4146C52.9492 70.4742 52.3634 70.7987 51.8692 71.3883C51.369 71.9102 51.1517 72.5437 51.2172 73.2888L54.6946 112.814C54.7542 113.491 55.0788 114.077 55.6684 114.572C56.258 115.066 56.8915 115.283 57.5689 115.223C58.314 115.158 58.9337 114.83 59.4279 114.241C59.9221 113.651 60.1394 113.018 60.0798 112.34L59.0071 100.147L74.045 98.8244L75.0284 110.001C75.3204 113.32 74.7727 116.406 73.3854 119.259C72.0598 122.038 70.1138 124.359 67.5473 126.223C65.0426 128.014 62.1306 129.055 58.8114 129.347Z" fill="#2A2A2A"/>
</svg>
