<svg width="292" height="172" viewBox="0 0 292 172" fill="none" xmlns="http://www.w3.org/2000/svg">
<path d="M1.68023 49.7443C0.752265 42.9755 5.48719 36.736 12.256 35.808L261.186 1.68095C267.955 0.752981 274.195 5.4879 275.123 12.2567L290.098 121.494C291.026 128.262 286.291 134.502 279.523 135.43L30.5923 169.557C23.8235 170.485 17.584 165.75 16.6561 158.981L1.68023 49.7443Z" fill="#A0A9EB" stroke="#2A2A2A" stroke-width="0.824708"/>
<path d="M227.399 110.699L217.701 39.9609L245.997 36.0818L247.798 49.2189L234.559 51.0338L236.568 65.6867L245.36 64.4814L247.438 79.6396L238.646 80.845L240.669 95.599L253.907 93.7841L255.694 106.82L227.399 110.699Z" fill="#2A2A2A"/>
<path d="M199.523 114.522L191.626 56.9206L182.026 58.2367L180.225 45.0996L214.583 40.3892L216.384 53.5263L206.784 54.8425L214.681 112.444L199.523 114.522Z" fill="#2A2A2A"/>
<path d="M155.506 120.557L154.398 48.6408L172.588 46.147L190.876 115.708L176.728 117.647L174.031 104.736L168.675 105.47L169.755 118.603L155.506 120.557ZM167.406 90.2012L171.246 89.6747L167.173 67.4802L165.456 67.7157L167.406 90.2012Z" fill="#2A2A2A"/>
<path d="M124.147 124.857L114.449 54.1191L142.745 50.24L144.546 63.3771L131.307 65.192L133.316 79.8449L142.108 78.6396L144.186 93.7978L135.394 95.0032L137.417 109.757L150.655 107.942L152.442 120.978L124.147 124.857Z" fill="#2A2A2A"/>
<path d="M85.6822 130.129L75.9844 59.3906L91.4458 57.2709C95.0837 56.7722 98.5432 57.2245 101.824 58.6279C105.096 59.9639 107.816 62.0276 109.983 64.8191C112.208 67.534 113.575 70.7441 114.083 74.4495L115.704 86.2729C115.944 88.0245 115.82 90.3751 115.332 93.3247C114.835 96.2069 113.526 98.9259 111.406 101.482L111.613 102.997L121.051 125.28L105.893 127.358L98.9751 108.436L98.0656 108.561L100.739 128.065L85.6822 130.129ZM96.2784 95.5251L97.0868 95.4142C98.2995 95.248 99.2638 94.7726 99.9799 93.9881C100.754 93.1269 100.943 91.2479 100.546 88.351L98.883 76.2244C98.4951 73.3949 97.8124 71.6696 96.835 71.0486C95.925 70.4184 94.8637 70.1864 93.651 70.3526L92.8426 70.4635L96.2784 95.5251Z" fill="#2A2A2A"/>
<path d="M63.5736 134.19C60.3398 134.634 57.2694 134.265 54.3621 133.085C51.4457 131.838 48.9989 130.011 47.0218 127.606C45.1029 125.123 43.9171 122.231 43.4645 118.93L38.3385 81.5401C37.886 78.2389 38.2543 75.1684 39.4436 72.3286C40.6911 69.4121 42.556 66.9944 45.0383 65.0755C47.5115 63.0892 50.3649 61.8743 53.5986 61.431C56.8998 60.9784 59.9749 61.3805 62.824 62.6372C65.7312 63.8172 68.1443 65.6484 70.0632 68.1308C72.0403 70.5366 73.2551 73.39 73.7077 76.6911L75.2316 87.8071L60.2755 89.8575L58.6269 77.832C58.5253 77.091 58.1727 76.5216 57.5691 76.1239C56.9562 75.6588 56.2793 75.4771 55.5382 75.5787C54.8645 75.671 54.2951 76.0236 53.8301 76.6365C53.3558 77.182 53.1694 77.8252 53.271 78.5663L58.6603 117.877C58.7526 118.55 59.1052 119.12 59.7181 119.585C60.3309 120.05 60.9742 120.236 61.6479 120.144C62.3889 120.042 62.992 119.685 63.4571 119.072C63.9222 118.459 64.1085 117.816 64.0162 117.142L62.3537 105.016L77.3098 102.965L78.8337 114.081C79.2863 117.383 78.8888 120.491 77.6414 123.408C76.4521 126.248 74.6209 128.661 72.1478 130.647C69.7328 132.557 66.8747 133.738 63.5736 134.19Z" fill="#2A2A2A"/>
</svg>
