<?xml version="1.0" encoding="UTF-8"?>
<svg id="Layer_2" data-name="Layer 2" xmlns="http://www.w3.org/2000/svg" version="1.1" viewBox="0 0 514.7 229.5">
  <defs>
    <style>
      .cls-1 {
        fill: #000;
        stroke-width: 0px;
      }

      .cls-2 {
        fill: #a1adff;
        stroke: #2a2a2a;
        stroke-miterlimit: 10;
        stroke-width: 3px;
      }
    </style>
  </defs>
  <g id="Layer_1-2" data-name="Layer 1-2">
    <rect class="cls-2" x="1.5" y="1.5" width="511.7" height="226.5" rx="21.3" ry="21.3"/>
    <g>
      <path class="cls-1" d="M118.8,173.6c-5,0-9.6-1.2-13.8-3.7-4.2-2.5-7.5-5.8-10-9.9-2.5-4.1-3.7-8.8-3.7-13.9v-58.1c0-5.1,1.2-9.8,3.7-13.9,2.5-4.1,5.8-7.4,10-9.9,4.2-2.5,8.8-3.7,13.8-3.7s9.8,1.2,13.9,3.7c4.1,2.5,7.4,5.8,9.9,9.9,2.5,4.1,3.7,8.8,3.7,13.9v17.3h-23.2v-18.7c0-1.2-.4-2.1-1.3-2.9-.8-.8-1.8-1.2-3-1.2s-2,.4-2.8,1.2c-.8.8-1.3,1.8-1.3,2.9v61c0,1.1.4,2,1.3,2.8.8.8,1.8,1.2,2.8,1.2s2.1-.4,3-1.2c.8-.8,1.3-1.8,1.3-2.8v-18.8h23.2v17.3c0,5.1-1.2,9.8-3.7,13.9s-5.8,7.4-9.9,9.9c-4.1,2.5-8.8,3.7-13.9,3.7h0Z"/>
      <path class="cls-1" d="M154.8,172V62.1h24c5.6,0,10.8,1.4,15.5,4.2,4.7,2.8,8.4,6.5,11.2,11.1,2.8,4.7,4.2,9.9,4.2,15.6v18.4c0,2.7-.7,6.2-2,10.6-1.4,4.3-3.9,8.2-7.7,11.7v2.4l9.7,35.9h-23.5l-6.6-30.3h-1.4v30.3h-23.4ZM178.2,121.4h1.3c1.9,0,3.5-.6,4.8-1.7s2-3.9,2-8.4v-18.8c0-4.4-.6-7.2-2-8.3-1.3-1.2-2.9-1.7-4.8-1.7h-1.3v38.9h0Z"/>
      <path class="cls-1" d="M215.8,172V62.1h43.9v20.4h-20.6v22.8h13.6v23.5h-13.6v22.9h20.6v20.2h-43.9Z"/>
      <path class="cls-1" d="M265.9,172l13.3-109.8h28.2l13.3,109.8h-22l-1.4-20.2h-8.3l-1.1,20.2h-22.1,0ZM290.4,128.2h6l-1.6-34.7h-2.7l-1.7,34.7h0Z"/>
      <path class="cls-1" d="M335.6,172v-89.4h-14.9v-20.4h53.4v20.4h-14.9v89.4h-23.5Z"/>
      <path class="cls-1" d="M380.1,172V62.1h43.9v20.4h-20.6v22.8h13.6v23.5h-13.6v22.9h20.6v20.2h-43.9Z"/>
    </g>
  </g>
</svg>