<svg width="110" height="90" viewBox="0 0 110 90" fill="none" xmlns="http://www.w3.org/2000/svg">
<path d="M86.632 46.32C71.4 46.32 60.792 37.888 60.792 23.2C60.792 8.51201 71.4 0.0800084 85 0.0800072C101.592 0.0800057 109.752 12.592 109.752 32.72C109.752 64.272 92.344 85.488 63.512 89.296L63.512 70.256C77.112 68.352 86.632 57.472 86.632 46.32ZM26.792 46.32C11.56 46.32 0.951991 37.888 0.95199 23.2C0.951989 8.51202 11.56 0.0800136 25.16 0.0800124C41.752 0.080011 49.912 12.592 49.912 32.72C49.912 64.272 32.504 85.488 3.67199 89.296L3.67199 70.256C17.272 68.352 26.792 57.472 26.792 46.32Z" fill="#2A2A2A"/>
</svg>
