<?xml version="1.0" encoding="UTF-8"?>
<svg id="Layer_1" data-name="Layer 1" xmlns="http://www.w3.org/2000/svg" version="1.1" xmlns:xlink="http://www.w3.org/1999/xlink" viewBox="0 0 258 228">
  <defs>
    <style>
      .cls-1 {
        fill: #9de29d;
        stroke: #2a2a2a;
      }

      .cls-2 {
        fill: #c61a1a;
      }

      .cls-2, .cls-3, .cls-4, .cls-5, .cls-6, .cls-7 {
        stroke-width: 0px;
      }

      .cls-2, .cls-4, .cls-5 {
        fill-rule: evenodd;
      }

      .cls-3 {
        fill: none;
      }

      .cls-4 {
        fill: #000;
      }

      .cls-8 {
        clip-path: url(#clippath);
      }

      .cls-5 {
        fill: #edb98a;
      }

      .cls-6 {
        fill: #fff;
      }

      .cls-7 {
        fill: #2a2a2a;
      }
    </style>
    <clipPath id="clippath">
      <path class="cls-3" d="M16.2-26.7h225.7c8.3,0,15.1,6.7,15.1,15v223.6c0,8.3-6.7,15-15.1,15H16.2c-8.3,0-15.1-6.7-15.1-15V-11.7c0-8.3,6.7-15,15.1-15Z"/>
    </clipPath>
  </defs>
  <rect class="cls-1" x="1" y="83" width="256" height="144" rx="15" ry="15"/>
  <path class="cls-7" d="M145,152v-14.3h6.9c3,0,4.8,1.6,4.8,4.6s-1.9,4.6-4.8,4.6h-3.3v5.2h-3.6,0ZM148.6,140.6v3.2h2.6c1.2,0,2-.4,2-1.6s-.8-1.6-2-1.6h-2.6ZM158,152v-14.3h6.7c3.2,0,5.1,1.5,5.1,4.2s-1.1,3.1-2.9,3.5h0c3.6.7,2.3,6.2,3.1,6.4v.2h-3.7c-.7-.6.6-5-2.5-5h-2.2v5h-3.6ZM161.6,140.6v3.4h2.4c1.4,0,2.2-.5,2.2-1.7s-.8-1.7-2.2-1.7h-2.4ZM177.9,152.3c-4.5,0-7.1-3.2-7.1-7.5s2.5-7.5,7.1-7.5,7.1,3.2,7.1,7.5-2.6,7.5-7.1,7.5ZM177.9,149.4c2.6,0,3.5-2,3.5-4.5s-.9-4.5-3.5-4.5-3.5,2-3.5,4.5.9,4.5,3.5,4.5ZM195.4,147.2c0,2.8-1,5.1-4.9,5.1s-4.9-2.3-4.9-5.1v-1.2h3.2v1.2c0,1.4.3,2.1,1.5,2.1s1.5-.8,1.5-2.1v-9.5h3.6v9.5h0ZM200.8,143.2h6.2v2.9h-6.2v2.9h7.4v2.9h-11v-14.3h10.8v2.9h-7.2v2.7ZM218.6,143c-.3-1.6-1-2.7-2.9-2.7s-3.2,1.8-3.2,4.5.8,4.5,3.2,4.5,2.6-1.1,2.9-2.7h3.6c-.3,3.4-2.4,5.7-6.3,5.7s-6.9-3.2-6.9-7.5,2.4-7.5,6.9-7.5,6,2.3,6.3,5.6h-3.6ZM226.6,152v-11.4h-4.2v-2.9h11.9v2.9h-4.1v11.4h-3.6,0ZM145,172v-14.3h4.4l2.9,9.1h0l2.9-9.1h4.4v14.3h-3.4v-8.9h0l-2.7,8.9h-2.5l-2.7-8.9h0v8.9h-3.4.1ZM169.9,169h-4.9l-.9,3h-3.6l5.2-14.3h3.6l5.2,14.3h-3.6l-.9-3h-.1ZM165.8,166.3h3.3l-1.6-5.3h0l-1.6,5.3h0ZM175.4,172v-14.3h3.6l5,8.5h0v-8.5h3.6v14.3h-3.6l-5-8.5h0v8.5h-3.6ZM197.8,169h-4.9l-.9,3h-3.6l5.2-14.3h3.6l5.2,14.3h-3.6l-.9-3h-.1ZM193.8,166.3h3.3l-1.6-5.3h0l-1.6,5.3h0ZM211.7,162.4c-.3-1-.9-2.1-2.9-2.1s-3.3,1.8-3.3,4.5.9,4.5,3.4,4.5,2.8-1,2.9-2.4h-2.7v-2.6h6.4v7.6h-2.6l-.4-1.8h0c-.7,1.3-2,2.1-4.1,2.1-4.1,0-6.5-3.2-6.5-7.5s2.4-7.5,6.9-7.5,6.1,2.3,6.4,5.1h-3.6.1ZM220.8,163.2h6.2v2.9h-6.2v2.9h7.4v2.9h-11v-14.3h10.8v2.9h-7.2v2.7ZM229.8,172v-14.3h6.7c3.2,0,5.1,1.5,5.1,4.2s-1.1,3.1-2.9,3.5h0c3.6.7,2.3,6.2,3.1,6.4v.2h-3.7c-.7-.6.6-5-2.5-5h-2.2v5h-3.6ZM233.4,160.6v3.4h2.4c1.4,0,2.2-.5,2.2-1.7s-.8-1.7-2.2-1.7h-2.4Z"/>
  <g class="cls-8">
    <g>
      <path class="cls-5" d="M112,162.4c-1.7-.6-3.4-1.3-4.9-2.4-4.3-3.3-7.2-8.2-9.8-12.9-3.8-6.8-6.5-14.1-8.3-21.7-.8-3.3-1.1-7-2.9-9.9-4.1-6-16.1-5.3-22.5-4.2-4.3.8-5.2,5.6-6.1,9.3-.8,3-1.3,6-1.8,9.1-1.1.7-2.2,1.3-3.4,1.8-12.4,3.9-14.6,11.1-19.3,22.1-8.1,16.1-29.8,22.4-33,41.5-2.1,12.6,3.9,24.5,10.1,34.9,5.8,11.4,13.8,16.9,26.7,14.2,12-2.8,23.6-7.4,35.4-10.9,5.7-1.4,11.4-5.2,17.5-3.9,12.4,2.8,25.2,4.2,37.9,3.8,17.9.7,17.9-16.7,16-30.2-1.3-21-11.7-34.5-31.5-40.7h-.1Z"/>
      <path class="cls-4" d="M113.2,192.9c1.5,1,2.7,2.5,3.7,4.1-4.2-.4-8.4-1-12.6-1.5.6-.4,1.1-.7,1.7-1,2.1-1.2,4.9-3.1,7.2-1.5h0ZM43.3,205.5c-.8-.3-1.1-1.5-1.4-2.2-.9-2.2-1.8-4.3-2.7-6.5,3.4-1,6.7-2.1,10.2-2.6,3.8-.6,7.6-.7,11.4-.6,7.7.3,15.4,1.5,23,2.9s15.2,2.7,22.8,3.7c7.5,1,15,1.8,22.5,2.4,1.5.1,3.9.7,5.1-.5.9-.9,1-2.6-.2-3.4-.7-.5-1.8-.5-2.6-.6-1-.1-2.1-.2-3.1-.3h-1.3c3.4-1.3,7-2,10.8-1.8.2,1.3,1.2,2.7,1.7,3.7.9,1.9,1.6,3.8,2.1,5.8,1,4.3,1,8.7.7,13-.3,3.6-.8,7.6-3.6,10.2-2.1,1.9-5.1,2.7-7.9,2.9-3.2.3-6.5,0-9.7-.5-4.5-.6-9-1.4-13.4-2.5-8.5-2.1-16.7-5.5-24.2-10-3.7-2.2-7.2-4.7-10.9-6.9-3.8-2.2-7.8-3.9-12-4.9-4.7-1.2-9.7-1.7-14.5-1.4-.9,0-2.1.4-2.9,0h.1ZM37.8,203.3c.5,1.6.9,3.5,1.9,4.9s2.6,1.8,4.3,2c2,.1,4,0,6,.1,4.1.2,8.1.8,12,2.1,3.6,1.1,7,3,10.2,4.9,3,1.8,5.9,3.8,8.9,5.7-.8.4-1.6.8-2.4,1.1-1.7.7-3.3,1.4-5,2.2-3.3,1.4-6.7,2.7-10,3.9-6.8,2.5-13.7,4.7-20.7,6.5-3.3.9-6.7,1.9-10.2,2.1-3.1.1-5.9-.7-8.4-2.6-5.1-3.9-9.2-9.4-12.5-14.9-2-3.3-3.7-6.7-5.1-10.2-.7-1.8-1.4-3.6-2-5.4-.3-.9-.5-1.7-.8-2.6,0-.4-.2-.8-.3-1.1,5.2-1.6,10.6-3.1,16-3.9,2.9-.4,5.8-.7,8.8-.6,1.5,0,2.9,0,4.4.2.8,0,1.6.2,2.3.3.3,0,.7.1,1,.2.5,1.7,1,3.5,1.6,5.2h0ZM146.4,196.3c.3-.6.4-1.2.5-1.8,0-.5.3-1.2,0-1.8-.2-.7-.8-1.3-1.1-1.9-.4-.7-.9-1.3-1.3-2-.9-1.3-1.7-2.7-2.6-4-3.5-5.4-7-10.9-10.5-16.3-3.1-4.8-6.2-9.7-9.4-14.5-2.7-4.1-5.7-8.1-9.5-11.3-4.8-4-10.4-5.9-16.3-7.4-.7-.7-1.5-1-2.4-1-1.3-1.5-2.3-2.6-2.8-4.5-.2-.9-.2-3.5-1-4-1-.6-1.6.2-1.9,1.2-1,3.2,0,7.5,2.7,10.8-1.1,3.8-2.5,9.1-5,12.1-2.7,3.2-6.5,4.2-10.5,4.3-7.7.1-15.4-2.8-21.3-7.8-1.8-1.5-3.4-3.3-4.9-5.1-1.1-1.4-2.4-3.5-3.3-5.1,0-.6-.7-1.3,6.6-1.8s7.9-10.7,8.1-12.1c0-1.1.7-2.9,0-3.8-.3-.4-1-.5-1.4-.2-.8.5-1,1.8-1.3,2.7-.4,1.2-1.5,8.8-3.7,9.7-1,.4-2.2.4-3.3.5-1.3,0-2.6.2-4,.3-.5,0-1,.2-1.5.2s-.6-.2-.9-.3c-1-.4-2,0-3.1,0-9.3,1.3-18.8,4.2-26.8,9.4-7,4.6-11.9,11.2-15.2,18.9-3.3,7.9-5.2,16.4-6.8,24.8-.5,2.8-1,5.6-1.4,8.5-.4,2.7-.9,5.5-1,8.3,0,1.1.2,2.1.6,3.1.5,1.1,1.5,1.6,2.5,2.1,2.2,1.1,4.6,2.1,7,2.7,1.5,2.7,2.7,5.6,3.7,8.5-.4.7-.4,1.8-.5,2.6-.2,1.8-.3,3.6-.3,5.4,0,3.6.2,7.3.4,10.9.2,3.7.7,18.2.8,20,0,1.4,0,3.3.7,4.5,1.1,1.9,3.8,1.8,5.1.3,31.1,6.8,89.5,4.8,113.1,1.3,3.1-.4,2.1,0,2.9-.7.6-.6,1.1-1.6,1.2-2.4.2-1.1,0-2.1-.8-3-.7-.9-.8-2.4-1-3.5-.6-2.6-.8-14-1.1-15.3,0-.4-.2-.8-.3-1.2,4.3.4,8.8.4,12.9-1,2.3-.8,4.5-2.2,6.2-4,2-2.3,3.2-5.1,3.7-8.1.7-3.8.9-7.8.7-11.7-.2-4.6-.9-9.3-2.8-13.5.6-.6,1.1-1.3,1.5-2h.1Z"/>
      <path class="cls-2" d="M67.2,263.7c-16.6,0-39.8-.8-56.6-4.5l-1.4-.3-.9,1.1c-.1.2-.4.3-.7.3s-.4,0-.5-.2c-.3-.5-.3-1.7-.3-2.6v-.9c0-.9-.2-4.8-.4-9.1-.2-4.4-.4-9-.5-10.9v-1.7c0-3-.3-6-.3-9s0-3.6.3-5.2v-.5c0-.4,0-1,.2-1.2l.5-.9-.3-1c-1-3-2.3-6-3.9-8.9l-.5-.9-1-.3c-2.3-.6-4.4-1.4-6.5-2.5,0,0-.2-.1-.3-.2-.4-.2-1-.5-1.1-.7-.3-.8-.5-1.5-.4-2.1,0-2.1.4-4.3.7-6.5,0-.5.2-1.1.2-1.6.4-2.8.9-5.6,1.4-8.4,1.5-8,3.4-16.5,6.6-24.3,3.3-7.8,8.1-13.8,14.2-17.9,6.9-4.5,15.8-7.7,25.8-9,.2,0,.4,0,.6-.1.4,0,.8-.1,1-.1h.4c0,0,.3.1.5.2h0c-.8,1-.7,2-.7,2.3v.6l.3.5c.8,1.5,2.3,3.9,3.6,5.4,1.6,2,3.4,3.8,5.2,5.4,6.2,5.3,14.3,8.4,22.3,8.4h.5c5.4,0,9.4-1.8,12.3-5.1,2.7-3.3,4.2-8.5,5.3-12.4l.5-1.8-.3-.4h.9c.2,0,.4.1.5.2l.5.5.7.2c5.3,1.3,10.9,3.1,15.4,6.9,3.7,3.1,6.7,7.2,9.1,10.8,2.3,3.5,4.6,7,6.8,10.5.8,1.3,1.7,2.6,2.5,3.9l1.9,3c2.8,4.4,5.7,8.9,8.6,13.3.9,1.3,1.7,2.7,2.6,4,.4.7.9,1.3,1.3,2,.1.2.2.4.4.5.1.2.4.5.4.7v.8c0,.5-.2.8-.3,1.1-.2.5-.6,1-1,1.3l-1.2,1.2.7,1.6c1.5,3.5,2.4,7.6,2.6,12.6.2,4.2,0,7.8-.7,11.1-.6,2.9-1.6,5.2-3.2,6.9-1.3,1.5-3.1,2.6-5.2,3.4-2.2.8-4.7,1.2-7.6,1.2s-2.7,0-4.3-.2l-3.3-.3.8,3.3c0,.3,0,.5.2.8v.4c0,.5.2,2.9.3,4.9.3,5.1.5,8.8.8,10.4,0,.2,0,.5,0,.7.2,1.1.4,2.5,1.2,3.7.4.6.4.9.4,1.1,0,.3-.3.8-.5,1-.4,0-.9.1-1.7.2-13.2,1.8-35,3.1-55.6,3.1v.2ZM28.1,194.9c-2.8,0-5.7.2-8.6.7-5.9.9-11.6,2.5-16.3,4l-2.2.7.6,2.2c0,.4.2.8.3,1.2.3.9.5,1.8.8,2.7.6,1.9,1.3,3.8,2,5.6,1.4,3.6,3.2,7.2,5.3,10.6,4.2,7,8.5,12.1,13.1,15.6,2.7,2.1,5.8,3.1,9.2,3.1s.5,0,.7,0c3.3-.1,6.4-1,9.4-1.8.4-.1.9-.2,1.3-.3,7-1.9,14.1-4.1,20.9-6.6,3-1.1,6.1-2.3,10.1-4,1.8-.7,3.5-1.5,5.1-2.2.5-.2,1-.5,1.5-.7.3-.1.6-.3.9-.4l4.1-1.9-3.8-2.4c-1.5-.9-3-1.9-4.5-2.8-1.4-.9-2.9-1.9-4.4-2.8-4.1-2.5-7.4-4.1-10.8-5.2-4-1.3-8.3-2-12.6-2.2h-3.6,2.5c3.7,0,7.5.5,11.3,1.4,3.9,1,7.7,2.5,11.4,4.7,2.1,1.2,4.1,2.5,6.1,3.8,1.6,1,3.2,2,4.8,3.1,7.7,4.7,16,8.1,24.8,10.3,4.2,1,8.7,1.9,13.6,2.6,2.9.4,5.2.6,7.4.6h2.8c4-.3,7.1-1.5,9.3-3.5,3.3-3.1,4.1-7.5,4.4-11.8.4-5.5,0-9.9-.8-13.8-.5-2.1-1.2-4.2-2.3-6.3-.2-.4-.4-.7-.6-1.1-.4-.7-.8-1.4-.9-1.9l-.3-1.9h-1.9c-.5-.1-.9-.1-1.4-.1-3.4,0-6.8.7-10.4,2l.7,4.5c-1.9-.2-3.8-.3-5.5-.5l-2.4-3.9c-1.3-2.1-2.8-3.8-4.4-4.8-1-.6-2.1-1-3.2-1-2.2,0-4.2,1.2-5.9,2.1-.2,0-.4.2-.5.3-.5.3-1.1.7-1.8,1.1l-4.9,3.2c-4.7-.8-9.4-1.6-13.9-2.4-7.5-1.3-15.4-2.7-23.3-3h-2.7c-3.3,0-6.3.2-9.2.6-3.1.5-5.9,1.3-8.7,2.2-.6.2-1.2.4-1.8.5l-2.6.7v.3s-.2,0-.3-.1c-.8-.1-1.6-.3-2.5-.3-1.5-.2-3-.2-4.6-.3h-.6l-.2-.4Z"/>
      <path class="cls-5" d="M84.8,55.5c-22.7-.8-44.3,14.7-51.6,36.7-.5,1.7,1.1,3.3,2.8,3-1.7,8.7,2,20.5,11.7,21.7,2,.3,4,0,6,.3,1.8.2,11.4,5.7,15,7,7.6,2.7,26.7,2.2,34.3,0,.3.6,6.2-24.1,7.5-31.8.5-3.3-4-5.8-3.7-9.2.4-4.4,5.4-9.8,3.9-13.9-4.1-10.6-15.9-13.6-26-13.8h0Z"/>
      <path class="cls-4" d="M73.5,36.2c1,0,2.1.2,3.1.4,3.1-.5,6.2,0,9.2,1,6.9,2.3,13.6,6.3,18.9,11.5,2.7,2.7,4.9,5.8,6.3,9.4.7,1.8,1.1,3.8,1.2,5.7v2.4c.2,1.5.5,3.1.5,4.7s0,1.4,0,2.2h0c0,.9-.3,1.8-.5,2.6h0v.6c0,.4-.2.9-.3,1.3-.2.9-.5,1.9-.7,2.8v.4c-.2.7-.4,1.4-.7,2.1,0,.6.2,1.2.4,1.8.7,3.2,1.2,6.3,1.9,9.5,1.5,6.4,3.8,12.6,4.4,19.2.5,5.1-.3,10.6-3.4,14.8-2.7,3.6-6.7,5.7-11,6.2-2.1.3-4.2.1-6.2-.4h-.2c-1-.3-2.3-.8-3.3-1.5-1-.4-2-1-2.6-1.7-.8-.9-1.7-2.5-1.5-3.7-1.2,0-2.4,0-3.6,0-2.9,0-5.8-.2-8.6-1.1-2.5-.8-5.3-2-6.8-4.3,0,0,0-.3.2-.2,1.2.4,2.3,1,3.5,1.3s2.4.6,3.7.7c2.4.3,4.9.2,7.3,0h.8c2.6-.2,5.3-.4,7.7-1.4.9-.4,1.8-.9,2.6-1.6h0c.4-.5.9-.8,1.3-1,0,0,0-.2.2-.3,1-1.3,2.2-2.7,3.1-4.1,1.9-2.8,2.6-5.8,2.7-9.1,0-3.6,0-7.1.2-10.7v-1.2c0-4.1,0-8.2.4-12.2,0-1.9.3-3.8.7-5.6v-.4l.6-2.9c0-.7.2-1.4.3-2.1-.2-.3-.4-.6-.6-.8-.2-.2-.4-.5-.7-.7h-.2c-.4-.5-.7-.8-.9-1.2h0c-.3-.5-.6-.9-.9-1.3h0c0-.2,0-.2-.2-.3-.2-.3-.4-.5-.7-.7-.8,1.5-1.9,2.9-3.5,3.7-.6.3-1.3,0-1.4-.6-.5-1.6-1.2-3.1-2.1-4.5-1.6,2.7-4.1,4.8-7,5.8-.7.3-1.4-.5-1.2-1.2.5-2.2.6-4.4.3-6.5-1.1.8-2.3,1.6-3.4,2.3-2.6,2.1-5.4,3.9-8.4,5.3-.7.3-1.8-.2-1.4-1.1.3-.8.5-1.6.6-2.4v-.2c-7,9.9-24.2,19.5-25.5,19.6h0c.8.8,1.5,1.8,1.9,2.9.5,1.2-1.4,1.7-1.9.6h0c-.8-2-2.6-3.4-4.6-3.7-1.2.2-2.3.8-3.1,1.7-1.5,1.8-1.5,3.9-.5,5.9l.2.3c.6,1.1,1.2,2.2,1.5,3.3.4,1.4,0,2.9.4,4.4h0c0,.7.4,1.4,1.1,1.3h.2c.2,0,.4.2.6.3.6.2,1.2,0,1.8,0,.6,0,1.1-.3,1.6-.6v.4c0,.7-.3,1.4-.7,1.9.7,1,1.4,2,2.1,3,1,1.4,2.1,2.8,3.2,4.1,1.2,1.4,2.4,2.7,3.8,3.9.9.9,2.4,1.8,3,3.1.7.2,1.2.7,1.4,1.6.4,1.5.5,5.2.2,6.8-.3,1.6-1.4,2.5-2.7,3.4-.3.2-.7.2-1,0-.3.3-.6.5-.9.8-1.3.8-2.9,1.1-4.4,1.3-2.1.7-4.3.8-6.5.4-.7,0-1.4.2-2.2.2-7.3.7-14.8.1-22-1.7-3.3-.8-6.4-2.3-9.3-4.2-5-3.3-7.1-12.6-4.2-21.4l.2-.7c1.3-4,2.7-7.9,4.6-11.6l.2-.4c1.7-3.4,3.7-6.7,6.2-9.5,1.3-1.4,2.7-2.7,4.4-3.6.6-.3,1.4-.6,2.1-.8v-.4c0-.6.1-1.2.2-1.8.3-2.2.7-4.4,1.3-6.5.6-2.1,1.3-4.2,2.2-6.3,1.4-3.4,3.3-6.6,5.3-9.6.2-.3.3-.6.5-.9,1.8-3.5,4-6.9,7-9.5,3.4-3,7.4-4.8,11.7-6.1,4.4-1.3,9-2.3,13.6-2.6,2.5-.2,4.9-.2,7.3,0h-.4ZM41.3,92.6c2.2-1.5,5.2-.5,6.3,1.9.8,1.7-1.9,2.7-2.3,1-.4-1.7-2.2-3-4-2.7,0,0-.2,0,0-.2h0Z"/>
      <path class="cls-4" d="M95.2,107.9c-.7.9-1.8,1.5-3.2,1.8-1.3.3-2.6.3-3.8-.2h0c-.9-.4-1.8-1.2-2.1-2,0-.3-.2-.6,0-.9,0-.3.3-.5.6-.7h.4c.2,0,.3,0,.4.2.5.6,1.3,1.1,2.1,1.1s1.2-.3,1.8-.6l.4-.2c.4-.2.7-.4,1.2-.5.7-.2,1.7,0,2.2.6s.4.5.5.7c0,.2,0,.5-.2.7h-.3ZM91.3,92.7c1.5.9,3.8,3.1,2.2,5.4-1.9,2-4.6-.3-5.9-1.3-1.2-.8-2.6,1.3-1.5,2.2,9.7,7.3,13.6-6,6-7.3-.8,0-1.1.8-.8,1.1h0ZM74.4,78.6h.4c0,0,.4-.2.4-.2h.3c2-.6,4.3-1.1,6.3-.9.7,0,1.3.5,1.4,1.3,0,.7-.3,1.5-1,1.6-2.4.4-4.8.3-7.1.7-2.4.4-2.3.4-3.5.7-.9.2-1.8.2-2.7.4h.2s0,.2,0,0h-1c-.2,0-.3-.2,0-.3,1.1-.8,2-1.6,3.3-2.2,1-.5,2.1-.9,3.3-1.2h-.2ZM92.9,77.4c1.6-1.6,4.9-1,6.7-.3,1.1.4,2.1.9,2.9,1.7h0v.2c.7.6,1.3,1.3,1.2,2.2,0,0,0,.3-.2.3-.8,0-1.5-.3-2.2-.5l-.5-.2c-.7-.2-1.4-.5-2.1-.6-.9-.2-1.8-.3-2.7-.3s-1.9.3-2.7,0c-.9-.4-1.5-1.6-.6-2.4h.2ZM77.5,90.4c-.4.4-.9.6-1.6.5-.5,0-1.5-.6-2.3-1.5-.6-.6-1-1.3-1.1-2.1,0-.2,0-.3-.3-.4,0,0-.2,0-.4,0,0,0-.3,0-.4,0-.2,0-.3.3-.3.4-.2,1.2.3,2.4,1,3.4.9,1.3,2.3,2.3,3.2,2.6,1.4.4,2.9,0,4-.9.9-.8,1.3-1.8,1.7-2.9v-.2c.2-.2.3-.5.4-.7.2-.5,0-.9,0-1.2-.2-.4-.6-.6-1-.7-.4,0-.8,0-1.2.3-.3.2-.5.5-.6,1,0,.8-.4,1.7-1,2.3h0ZM101.6,85.7c-.3-.2-.6-.2-.9,0-.2,0-.4.2-.6.3-.2.2-.3.4-.3.6,0,.5-.4,1-.8,1.4-.4.3-.8.4-1.3.3-.5,0-1-.4-1.4-.8,0,0-.2-.2-.3-.4h0c-.2-.4-.3-.6-.6-.8,0,0-.2,0-.4,0h-.2c-.5.5-.6.9-.6,1.3s.2.9.5,1.2c.6.9,1.8,1.7,2.6,1.9,1.1.2,2.2,0,3.1-.7.9-.6,1.6-1.6,1.8-2.8v-.8c0-.2-.3-.4-.5-.6h0Z"/>
      <path class="cls-4" d="M107.9,94.6c-1.3,1.8-3.8,2.4-6.1,2.2-4.9-.5-6.4-6.1-6.6-10.6,3.3.9-.3-5.7,11-6.5,4-.3,2.9,2.1,4.6,3.9,0,3.7-.6,7.8-2.9,10.9h0ZM84.5,90.3c-2.9,13.8-18.7,10.5-20.4-1.9,1.5-1.1,1.1-3.8,3-4.8,3-2,6.8-1.9,10.2-1.8,4.4.3,5.6,2.2,7.9,4.2,0,1.4-.4,3-.8,4.4h.1ZM114.2,77.5h-.5c0,0-.3,0-.5-.2-.4,0-.8-.2-1.2-.2-5.6-1.3-18.6.5-19.2,5.4-1.8.6-3.3,0-5.4,0-1.6-6.7-28.9-5.8-30.3-1.7h0c-1.3-.4-3.1-.3-4.6-.4-3.1,0-6.2.2-9.2.9-5.7.9-13.4,2-9.5,9.2.7.7,1.8,0,1.9-.8-1.3-3.4,1.7-3.8,4-4.8,5.7-2.1,11.5-2.4,17.5-1.7.5.5,1.1,1,1.8,1.2,3.9.7,1.9,3.7,4.4,4.1-.4,10.4,12,16.1,19.2,9.2,2.9-2.9,3.6-7.1,4.2-10.9.4,0,.6-.3.7-.5.8-.9,1.4-1.6,3.1-1.9,1.7-.2,3,.2,3.1.4,0,0,0,.2,0,.3,0,0,.2.2.3.3-1.7,10.4,6.3,16.9,14.2,11.6,3.5-3.3,4.2-8.4,4.3-13,.5-.3.8-.8.6-1.5-.2-1,.3-1.8,1.1-2.2,1.1-.5.9-2.6-.4-2.8h.3Z"/>
      <path class="cls-6" d="M87.5,179.5c-.9-.2-1.7-.2-2.5-.3-.3,0-.6,0-.9-.1-.2,0-.3-.1-.3-.3s.2-.3.3-.3c.4,0,.8,0,1.2.1.7.1,1.4.2,2,.4.2,0,.3,0,.4-.2.9-1.4,2.2-2.4,3.5-3.3.2-.1,1.6-2.3,2-3.1s.2-.5.5-.5.4.3.5.6c.2.4.3.8.5,1.2,0,.2.2.3.4.2.9-.2,1.8-.3,2.7-.2q.4,0,.5-.3l.9-1.8c0-.1,0-.2.2-.3.2-.2.5-.2.6.1v.3c.2.9.4,3.2.6,3.3.7.3,1.4.8,2,1.3,1.1.9,1.9,2,2.4,3.4q0,.3.4.2c.8-.3,1.6-.5,2.5-.8.2,0,.4-.1.6,0,0,0,.3,0,.3.2s0,.3-.2.3-.2.1-.4.1c-.8.2-1.6.4-2.4.6h-.3c-.2,0-.2.2-.2.3.2.7,0,.7.7.5.5-.1,1.1-.2,1.6-.3h.7s.2.1.2.2,0,.2,0,.2c-.2.1-.4.2-.7.2-.6,0-1.2.1-1.8.2q-.5,0-.5.5v1c0,.2,0,.3.2.4.2,0,.5.2.7.3.2,0,.3.2.2.4,0,.2-.3.2-.4,0-.3-.1-.5-.4-.8-.3-.2.1-.2.5-.3.8-.9,2.9-2.9,4.9-5.6,6-2.5,1-5,1-7.5.2-1.1-.3-2.1-.8-3.1-1.2-.7-.3-1.3-.7-1.9-1.2-.9-.8-1.3-1.9-1.5-3.1v-.4c-.2,0-.4.3-.5.4l-.3.3c-.2.1-.4.1-.6,0,0-.1,0-.4,0-.6.3-.3.6-.5.9-.7.4-.2.6-.5.6-1s.3-1.2.4-1.8c-.4,0-.8.2-1.1.3-.6.2-1.1.3-1.7.5h-.2c-.3,0-.5,0-.5-.3s0-.4.3-.5c.5-.1.9-.2,1.4-.3.6-.1,1.2-.2,1.8-.3.3,0,.4-.1.5-.4,0-.4.4-.8.6-1.3h0l.5.2ZM86.6,183.9c.5-.2.8-.4,1.2-.6,0,0,.2-.1.4-.1,0,0,.2,0,.2.1v.2s-.2.1-.3.2c-.4.3-.9.6-1.3.9-.4.3-.3.3-.3.5,0,.5,0,1,.3,1.5.4,1.1,1.1,1.9,2,2.4,1.4.8,2.9,1.3,4.5,1.8,1.7.5,3.4.5,5.1,0,1.8-.5,3.3-1.3,4.6-2.7,1.1-1.1,1.8-2.5,2.1-4,0-.3,0-.4-.3-.5-.2,0-.5-.1-.7-.2,0,0-.3-.1-.2-.3,0-.2.2-.2.3-.2.3,0,.5.1.8.2.2,0,.3,0,.3-.2v-.9c0-.2,0-.3-.3-.2-.3,0-.6.1-.8.2,0,0-.2,0-.3-.1,0-.1,0-.2.2-.2.3,0,.6-.2.8-.2,0,0,.3,0,.3-.2s0-.5,0-.7c0-.2-.3,0-.4,0-.3,0-.5.2-.8.3h-.4v-.2s.2-.1.3-.1c.3-.1.6-.3.8-.4.3-.1.3-.2.2-.5-.3-.7-.7-1.3-1.1-1.9-.8-1-1.5-2.7-5.5-3.5-1.1-.2-2-.2-2.9,0-2.4.6-4.5,1.8-6.2,3.7-.2.3-.5.5-.7.9.2,0,.4.1.5.1s.2.1.2.2c0,.2-.2.2-.3.2h-.8c-.2.4-.5.9-.6,1.5.4,0,.7,0,1-.1,0,0,.2,0,.3.1,0,.1,0,.2-.2.2-.3,0-.6.1-.9.2-.2,0-.3,0-.4.3-.2.6-.4,1.2-.4,1.9h0l-.2.4Z"/>
      <path class="cls-6" d="M95.3,187.1v-1.2c0-.7,0-1.3-.2-2,0-.2,0-.3-.3-.3s-.3,0-.4-.1c-.9-.3-1.2-1.3-.7-2.2.5-.8,1.2-1.2,2.1-1.3.7-.1,1.2,0,1.7.5.6.5.7,1.2.3,1.9-.4.7-.9,1.1-1.7,1.2q-.5,0-.4.5v2.6c.2,0,.3-.2.5-.4,0,0,.2-.1.3-.2,0-.1.2,0,.3,0v.4c-.4.4-.8.7-1.3,1-.2.1-.4,0-.5,0-.3-.2-.7-.5-1-.7,0,0,0-.1,0-.2,0-.1,0,0,.2,0,.2,0,.4.2.6.3,0,0,.2.2.5.2ZM96.5,181.1c-.5.3-.8.7-1.2,1,0,0-.2.2,0,.3,0,.1.2,0,.3,0,.4-.2.7-.4.9-.7,0-.2.2-.4,0-.7h0ZM94.6,182c.4-.4.8-.8,1.2-1.2-1,.1-1.3.4-1.2,1.2Z"/>
      <path class="cls-6" d="M100.4,178c0,.3,0,.5-.4.7s-.5.2-.8,0c0,0,0-.1-.2-.2-.2-.2,0-.9.4-1.1.3-.2.6-.1.8.1,0,0,0,.2,0,.3v.2Z"/>
      <path class="cls-6" d="M92.8,178.2c-.3,0-.6-.2-.6-.5s0-.5.4-.5.7.2.8.4c0,.2-.3.5-.6.6Z"/>
    </g>
  </g>
</svg>