<?xml version="1.0" encoding="UTF-8"?><svg id="Layer_2" xmlns="http://www.w3.org/2000/svg" viewBox="0 0 799.1 1144.92"><g id="Layer_1-2"><g id="Master_Character_Bust-8"><g id="Body-7"><g id="Body_Tee_Arms_Crossed"><path id="Skin-15" d="M617.92,628.97c-8.7-3.1-17.1-6.7-24.7-11.9-22-16.4-36.3-41-49.9-64.3-19.1-33.9-32.7-70.1-42.1-107.8-4-16.2-5.4-35-14.6-49.4-20.8-30.1-81.8-26.2-114.1-20.9-21.7,3.8-26.2,28.1-31.1,46.1-4.1,14.9-6.8,30-9,45.3-5.4,3.5-11.4,6.4-17.2,8.9-62.9,19.3-73.9,55-97.9,110.2-40.5,80.2-150.5,111.6-167.1,206.5-10.7,62.7,19.7,121.7,51.1,173.8,29.2,56.9,70.1,84.2,135.1,70.8,61-13.7,119.6-36.6,179.5-54.2,29-7.1,58-25.7,88.5-19.2,62.9,14.1,127.5,20.8,191.9,18.9,90.5,3.7,90.5-83.2,81.2-150.4-6.5-104.7-59.3-171.9-159.6-202.4h0Z" style="fill:#edb98a; fill-rule:evenodd; stroke-width:0px;"/><path id="Ink-27" d="M624.02,780.47c7.6,5,13.9,12.6,19,20.6-21.3-2.2-42.6-4.8-63.8-7.7,2.8-1.8,5.6-3.5,8.5-5.2,10.4-5.9,24.6-15.4,36.3-7.7h0ZM269.92,843.47c-3.9-1.5-5.4-7.5-6.9-10.9-4.8-10.7-9.1-21.6-13.7-32.4,17.2-4.9,33.9-10.3,51.8-13,19.2-2.8,38.6-3.5,57.9-2.9,39.2,1.3,78,7.7,116.5,14.5,38.5,6.9,76.9,13.4,115.7,18.6,38,5.1,76,8.8,114.2,12,7.4.6,19.8,3.3,25.7-2.5,4.7-4.6,4.9-13.1-1-16.9-3.7-2.3-9-2.4-13.2-2.9-5.3-.7-10.6-1.1-15.9-1.5-2.2-.1-4.3-.3-6.5-.4,17.4-6.6,35.6-10.1,54.5-9.1,1.1,6.5,5.9,13.2,8.5,18.5,4.6,9.3,8.2,18.8,10.5,28.9,4.9,21.2,5.1,43.3,3.7,64.9-1.3,18.1-4,38-18.2,50.8-10.7,9.7-25.8,13.3-39.9,14.4-16.3,1.3-32.9-.1-49-2.3-22.7-3.1-45.5-7.1-67.7-12.6-43.1-10.5-84.4-27.3-122.4-50-18.6-11.1-36.3-23.5-55.1-34.2-19.2-10.9-39.6-19.3-61-24.5-24-5.9-49.1-8.4-73.7-6.9-4.5.5-10.7,2-14.8.4h0ZM242.12,832.57c2.5,8.2,4.4,17.5,9.8,24.4,5.3,6.8,13.4,9.2,21.7,9.8,10,.7,20.2.3,30.3.6,20.6.8,41,4.1,60.7,10.3,18.4,5.7,35.5,14.7,51.9,24.6,15.2,9.2,30,19,45.2,28.2-4,1.9-8.1,3.9-12.1,5.6-8.4,3.7-16.9,7.2-25.5,10.7-16.8,6.8-33.7,13.4-50.8,19.6-34.4,12.4-69.4,23.3-104.8,32.5-16.9,4.4-34,9.6-51.6,10.3-15.6.7-30-3.7-42.5-13-26-19.2-46.7-46.9-63.5-74.2-9.9-16.2-18.6-33.3-25.8-50.9-3.6-8.9-6.9-18-9.9-27.1-1.4-4.3-2.7-8.6-4-13-.5-1.9-1.1-3.8-1.6-5.7,26.6-8.1,53.5-15.5,81.1-19.5,14.7-2.2,29.6-3.3,44.5-3.1,7.4.1,14.8.5,22.1,1.2,4,.4,7.9.9,11.8,1.6,1.6.3,3.3.7,5,1,2.7,8.7,5.3,17.4,8,26.1h0ZM792.12,797.87c1.4-2.9,2-5.8,2.6-8.9.4-2.4,1.4-5.8.5-8.9-1-3.5-3.8-6.6-5.8-9.6-2.2-3.3-4.4-6.6-6.6-9.9-4.4-6.6-8.8-13.2-13.2-19.9-17.9-27-35.7-54.2-53.4-81.3-15.8-24.1-31.3-48.3-47.6-72-13.9-20.3-29.1-40.2-48.1-56-24.1-20-52.8-29.4-82.7-36.7-3.3-3.4-7.6-5.2-12.3-4.9-6.6-7.5-11.8-12.7-14.2-22.2-1.1-4.6-.8-17.4-5.2-20.1-5.3-3.2-8,1-9.5,5.8-4.9,16,.7,37.5,13.6,53.5-5.4,18.7-12.6,45.3-25.4,60.3-13.7,16.1-32.7,21-53.1,21.4-39,.6-78-13.9-107.8-39-9-7.6-17.4-16.2-25-25.2-5.7-6.8-12.4-17.3-16.9-25.3,0-3.1-3.7-6.3,33.5-8.8s40-53.4,40.8-60.4c.7-5.6,3.5-14.4-.4-19-1.7-1.9-5.1-2.3-7.3-.9-4,2.5-5.3,8.9-6.6,13.2-1.8,6.1-7.6,43.8-18.5,48.2-5.1,2-11,2.1-16.5,2.5-6.7.5-13.4.8-20.1,1.6-2.5.3-5.2,1.1-7.6,1.1s-3.2-.8-4.7-1.3c-5.2-1.8-10.3-.5-15.6.3-47,6.3-95.5,20.7-135.6,46.7-35.5,22.8-60.4,55.7-76.9,94.2-16.8,39.2-26.4,81.7-34.4,123.5-2.7,14-5.1,28.1-7.1,42.2-2,13.6-4.4,27.6-5,41.4-.2,5.5,1.1,10.5,3.1,15.5,2.3,5.6,7.6,7.8,12.7,10.4,11.2,5.7,23.1,10.2,35.3,13.4,7.5,13.6,13.7,27.7,18.8,42.3-1.9,3.7-1.9,9.2-2.3,12.9-.9,9-1.3,18-1.4,27-.2,18.1.9,36.1,1.8,54.2.9,18.3,3.7,90.5,4.2,99.3.4,6.9-.1,16.4,3.5,22.5,5.5,9.3,19.2,9,25.6,1.5,157.5,33.9,453.6,23.7,572.9,6.6,15.5-2.2,10.6.2,14.6-3.7,3-2.9,5.5-8,6.3-12,1.1-5.4-.7-10.3-3.8-14.7-3.3-4.6-3.8-12-5.1-17.5-2.9-12.9-4.3-69.7-5.6-76-.4-2-.8-4-1.3-6.1,21.9,2.1,44.7,2.1,65.5-5.2,11.8-4.1,22.8-10.7,31.3-20,10.3-11.3,16-25.5,18.9-40.3,3.8-19.1,4.6-38.9,3.8-58.3-1-22.9-4.8-46.2-14.3-67.3,3.2-2.9,5.8-6.4,7.6-10.1h0Z" style="fill:#000; fill-rule:evenodd; stroke-width:0px;"/><path d="M390.82,1132.77c-83.9,0-201.8-3.8-287-22.2l-7.1-1.5-4.6,5.6c-.7.8-2,1.3-3.4,1.3s-2.1-.2-2.7-1.2c-1.4-2.3-1.5-8.6-1.7-12.8,0-1.5-.1-2.9-.2-4.3-.2-4.3-1-24.1-1.9-45.2-.9-22-1.8-44.8-2.3-54.1-.1-2.9-.3-5.7-.4-8.6-.7-14.8-1.5-30-1.3-44.9.1-9.5.5-18,1.3-25.9.1-.8.1-1.6.2-2.5.1-1.8.4-5,.8-6.1l2.3-4.5-1.7-4.8c-5.2-15.1-11.8-30-19.6-44.2l-2.4-4.5-5-1.3c-11.5-3-22.5-7.1-32.8-12.4-.5-.3-1-.5-1.5-.8-2.2-1.1-5.2-2.6-5.5-3.5-1.7-4.1-2.4-7.4-2.2-10.5.4-10.5,2.1-21.4,3.7-32.1.4-2.7.8-5.4,1.2-8.1,2-14,4.4-28,7-41.6,7.6-39.9,17-82.2,33.6-121,16.5-38.7,40.8-68.6,72.2-88.9,34.9-22.6,80.1-38.1,130.7-44.9,1-.1,2-.3,3-.5,2-.3,3.9-.6,5.3-.6s1.4.1,1.7.2c.2.1.5.2.7.3.7.3,1.5.6,2.5.9-.1.2-.3.3-.4.5-3.9,4.6-3.5,9.5-3.3,11.2v2.8l1.5,2.7c4.2,7.5,11.5,19.2,18.2,27.1,8.2,9.8,17.1,18.8,26.5,26.7,31.5,26.6,72.7,41.9,113.1,41.9h2.6c27.4-.4,47.7-8.8,62.1-25.6,13.8-16.2,21.4-42.5,26.9-61.7l2.6-9-1.6-2,4.7-.4h.2c1.1,0,1.9.7,2.5,1.2l2.4,2.5,3.4.8c26.9,6.6,55,15.3,77.9,34.3,18.7,15.5,33.7,35.8,45.9,53.6,11.8,17.2,23.4,35,34.7,52.3,4.3,6.5,8.5,13.1,12.8,19.6l9.8,15c14.3,21.7,29,44.2,43.6,66.3,4.4,6.6,8.8,13.3,13.2,19.9,2.2,3.3,4.4,6.6,6.6,9.9.6.9,1.2,1.8,1.9,2.7.7,1,1.8,2.5,2.2,3.4,0,.5-.2,1.4-.4,2,0,.7-.3,1.3-.4,1.9-.4,2.4-.8,4.1-1.5,5.5-1.2,2.5-2.9,4.8-5,6.7l-6.3,5.9,3.5,7.9c7.8,17.4,12.1,37.9,13.2,62.9.8,20.9-.4,39-3.6,55.4-2.8,14.4-8.2,26-16,34.5-6.6,7.3-15.5,12.9-26.4,16.7-11,3.9-23.6,5.8-38.5,5.8h0c-6.6,0-13.8-.4-21.9-1.1l-16.6-1.6,3.8,16.3c.3,1.3.6,2.7.9,4,0,.6.2,1.2.4,1.8.4,2.5,1,14.6,1.5,24.4,1.3,25.3,2.4,43.8,4.1,51.8.2,1,.5,2.3.7,3.6,1,5.6,2.2,12.5,6.3,18.2,2.2,3.2,1.9,4.7,1.8,5.4-.3,1.7-1.5,3.9-2.4,5.2-1.9.2-4.6.5-8.4,1-66.7,9.2-177.3,15.3-281.7,15.3h0ZM192.62,790.57c-14.2,0-28.8,1.1-43.4,3.3-30,4.4-58.7,12.6-82.8,19.9l-11.1,3.4,3,11.2c.5,2,1.1,3.9,1.6,5.9,1.3,4.5,2.7,9,4.1,13.3,3.1,9.5,6.5,18.9,10.2,28,7.3,18,16.3,35.7,26.7,52.7,21.4,35,43.2,60.4,66.6,77.6,13.9,10.2,29.6,15.4,46.6,15.4s2.3,0,3.5-.1c16.6-.7,32.3-4.9,47.5-8.9,2.2-.6,4.4-1.2,6.5-1.7,35.6-9.3,71.3-20.4,105.8-32.9,15.1-5.4,30.9-11.5,51.2-19.8,9.2-3.7,17.7-7.3,25.8-10.8,2.6-1.1,5.2-2.4,7.7-3.6,1.5-.7,3.1-1.5,4.6-2.2l20.7-9.5-19.5-11.7c-7.6-4.6-15.3-9.4-22.7-14.1-7.3-4.6-14.9-9.4-22.5-14-20.8-12.6-37.6-20.5-54.5-25.8-20.4-6.4-41.9-10-63.9-10.8-4.4-.2-8.7-.2-12.9-.2h-5.8c4.2-.2,8.4-.4,12.6-.4,19,0,38.2,2.3,57.1,7,19.6,4.8,39.1,12.6,58,23.3,10.4,5.9,20.7,12.5,30.7,18.9,7.9,5,16,10.2,24.2,15.2,38.9,23.2,81.2,40.4,125.7,51.3,21.1,5.2,44.3,9.5,69,12.8,14.6,2,26.5,2.9,37.5,2.9s9.6-.2,14.1-.5c20.1-1.6,35.9-7.5,47-17.4,16.8-15.2,20.6-37.3,22.1-58.9,1.8-27.3.5-49.1-4-68.5-2.4-10.5-6.2-20.8-11.5-31.5-.9-1.8-1.9-3.7-2.9-5.4-1.9-3.4-4.1-7.2-4.5-9.7l-1.6-9.5-9.6-.5c-2.3-.1-4.6-.2-6.9-.2-17.1,0-34.7,3.4-52.5,10.1l3.4,22.4c-9.8-.9-19.2-1.7-28.1-2.6l-12.3-19.4c-6.8-10.6-14.4-18.7-22.5-24.1-4.9-3.2-10.4-4.9-16.4-4.9-11.3,0-21.5,5.9-29.7,10.6-.9.5-1.8,1.1-2.7,1.6-2.7,1.6-5.6,3.3-9,5.5l-24.8,15.8c-24-3.8-47.7-7.9-70.3-12-37.8-6.7-78-13.4-118.2-14.7-4.6-.1-9.1-.2-13.5-.2-16.7,0-31.9,1-46.6,3.2-15.5,2.3-30.1,6.5-44.3,10.7-3,.9-6,1.8-9,2.6l-13,3.7.7,1.7c-.8-.2-1.6-.3-2.4-.5-4.1-.7-8.3-1.3-12.5-1.7-7.5-.8-15.3-1.2-23.2-1.3h-3.1Z" style="fill:#c61a1a; fill-rule:evenodd; stroke-width:0px;"/></g></g><g id="Head-8"><g id="Head_Medium_Bangs-2"><path id="Skin-16" d="M480.02,97.17c-114.9-4.2-224.6,73.2-261.5,182.5-2.7,8.6,5.7,16.6,14.1,15.1-8.6,43.5,10.2,102.1,59.3,108.2,10.1,1.3,20.2.5,30.2,1.5,9,.8,57.8,28.4,76.1,34.8,38.5,13.5,135.4,11,174,0,1.4,3.2,31.3-119.8,38.1-158,2.5-16.5-20.3-28.8-18.6-45.8,2.2-21.9,27.6-48.6,19.9-69.4-20.6-52.9-80.4-67.7-131.6-68.9h0Z" style="fill:#edb98a; fill-rule:evenodd; stroke-width:0px;"/><path id="Ink-28" d="M422.92.77c5.2.4,10.4,1.2,15.5,2.1,15.5-2.5,31.5.3,46.6,5.2,35.2,11.4,69.1,31.3,95.6,57.3,13.7,13.4,24.8,28.8,31.7,46.7,3.5,9.1,5.5,18.8,6,28.5v1.2c.3,3.2.3,7.1,0,10.9,1.2,7.7,2.3,15.5,2.4,23.3,0,3.6-.2,7.2-.6,10.8l.2.3h0c-.6,4.3-1.4,8.6-2.3,12.8l-.2.3c0,.9-.3,1.7-.4,2.6-.5,2.2-1,4.4-1.5,6.5-1.1,4.7-2.4,9.4-3.7,14-.2.8,0,1.5.4,1.9-1,3.5-2.1,7-3.3,10.5.6,3,1.2,6.1,1.8,9.1,3.3,15.7,6,31.5,9.8,47.2,7.5,31.7,19,62.9,22.1,95.5,2.4,25.3-1.6,52.9-17.3,73.6-13.6,17.8-33.8,28.3-55.8,31.1-10.5,1.3-21.3.7-31.5-1.9l-1.1-.3c-5.2-1.4-11.7-3.6-16.5-7.1-5.2-1.8-10.1-5.2-13.1-8.5-4-4.5-8.5-12.2-7.4-18.6-6,.5-12.1.6-18,.6-14.7,0-29.3-1.2-43.5-5.4-12.6-3.8-27.1-10.1-34.6-21.6-.4-.5.2-1.3.8-1.1,6,2.1,11.6,5,17.8,6.6,6.1,1.6,12.2,3.1,18.5,3.7,12.3,1.3,24.7,1.1,37,.5l4.2-.2c13.2-.7,26.7-1.7,39.1-6.7,4.8-1.9,9.3-4.6,13.4-7.9l.6-.5c2.2-1.8,4.4-3.3,6.8-4.7.3-.4.7-.8,1-1.3,5.2-6.7,10.9-13.2,15.6-20.3,9.4-14.1,13-28.7,13.5-45.5.5-17.7.6-35.4.8-53.2v-5.9c.4-20.3.4-40.6,2-60.8.7-9.4,1.7-18.7,3.3-28l.3-2,2.5-14.3c.6-3.4,1-7,1.7-10.4-.9-1.4-1.9-2.8-3.1-4.1-1.1-1.2-2.2-2.4-3.3-3.6l-.8-.7c-1.8-1.6-3.4-3.2-4.8-5.4l-.4-.6h0c-1.6-1.9-3-3.9-4.4-6l-.2-.4h0c-.3-.4-.6-.8-1-1.2-1-1.3-2.1-2.4-3.3-3.6-4,7.7-9.6,14.4-17.6,18.5-2.9,1.5-6.4.2-7.3-3-2.4-8.1-6-15.6-10.8-22.4-8,13.3-20.7,23.7-35.5,28.8-3.7,1.3-7-2.6-6.1-6.2,2.7-10.8,3.2-21.7,1.6-32.5-5.6,4-11.5,7.8-17.4,11.4-13.3,10.3-27.3,19.5-42.8,26.2-3.6,1.5-9-1-7.3-5.6,1.4-3.9,2.5-7.8,3.2-11.9l.2-.9h0c-35.8,49.4-122.7,97.2-129.4,97.6h-.2c4.2,4,7.5,8.9,9.7,14.6,2.3,5.9-7.1,8.5-9.6,2.8v-.2c-3.9-9.6-13.1-16.6-23.2-18.2-6.1,1.1-11.9,4.1-15.8,8.5-7.7,8.8-7.8,19.4-2.5,29.4l.8,1.5c2.9,5.3,5.9,10.7,7.5,16.6,2,7.2.5,14.5,1.8,21.7v.4c.7,3.2,2,6.8,5.8,6,.3-.1.6-.2.9-.3.8.6,1.8,1.2,3,1.5,2.9.9,6.2.4,9.1-.3,2.8-.7,5.6-1.7,8.2-3,.3.7.5,1.5.5,2.2,0,3.7-1.5,6.8-3.8,9.3,3.8,4.8,7,10,10.7,14.9,5.2,7,10.6,13.9,16.3,20.5,5.9,6.9,12.4,13.4,19.1,19.6,4.7,4.3,12.4,8.9,15.4,15.2,3.4,1.1,6.3,3.6,7.3,7.9,1.9,7.7,2.5,25.8,1,33.7-1.5,7.8-7.2,12.6-13.5,16.7-1.7,1.1-3.7,1-5.3.2-1.4,1.4-3,2.6-4.8,3.8-6.7,4.2-14.5,5.7-22.3,6.5-10.5,3.3-21.8,4.2-32.9,2.1-3.6.4-7.3.8-10.9,1.1-37.2,3.3-75.1.5-111.5-8.4-16.7-4.1-32.4-11.5-47.1-21-25.2-16.4-36-62.5-21.4-106.5l1.2-3.5c6.6-19.7,13.8-39.3,23.3-57.6l1.1-2.2c8.8-16.7,18.5-33.5,31.2-47.4,6.4-7,13.9-13.3,22.4-17.8,3.2-1.7,7-2.9,10.6-4.2v-.9h0v-.9c.3-2.9.6-5.9,1-8.8,1.5-10.9,3.6-21.7,6.5-32.3,3-10.6,6.6-21.1,11-31.3,7.3-16.9,16.5-33,27-48,.8-1.6,1.5-3.1,2.3-4.6,9-17.5,20.5-34.2,35.4-47.1,17.2-14.8,37.7-24,59.3-30.5,22.4-6.7,45.6-11.3,68.9-12.8,12.5-.9,24.7-.9,36.9,0l-.1.1ZM259.62,281.77c11.2-7.3,26.4-2.3,32.1,9.6,4.1,8.6-9.5,13.5-11.6,4.9s-11.3-14.8-20.1-13.5c-.7,0-1-.6-.5-1h.1Z" style="fill:#000; fill-rule:evenodd; stroke-width:0px;"/></g></g><g id="Face-8"><g id="Face_Contempt-2"><path id="Ink-29" d="M532.62,357.87c-3.3,4.3-9.3,7.6-16,9.2-6.4,1.5-13.4,1.4-19.5-.9l-.5-.2c-4.5-1.9-8.9-5.7-10.6-9.7-.7-1.6-.9-3.2-.4-4.7.4-1.3,1.4-2.6,2.9-3.7.5-.3,1.2-.4,1.8-.2.8,0,1.6.5,2,1,2.6,2.8,6.4,5.5,10.8,5.4,3.4,0,6.3-1.4,9-2.9l2-1.1c1.9-1.1,3.7-2,5.9-2.5,3.8-.8,8.4.7,11.2,3.1,1.2,1.1,2.1,2.3,2.4,3.7,0,1.1-.2,2.3-1,3.5h0ZM512.82,282.37c7.6,4.6,19.1,15.3,10.9,26.7-9.6,10-23.3-1.5-30.1-6.7-6.3-4-13.4,6.3-7.5,11,49,36.3,68.9-29.8,30.5-36.4-4.2-.7-5.8,4-3.8,5.4h0ZM427.62,211.87l2.2-.6,2.2-.6,1.5-.4c10.3-2.7,21.6-5.1,31.8-3.9,3.7.4,6.7,2.5,7.3,6.4.4,3.3-1.7,7.5-5.3,8.1-12,1.9-24.2,1.3-36.2,3.3s-11.9,2.2-17.9,3.3c-4.5.8-9.2,1.1-13.8,1.8h1.1c.4.2.3.8,0,.7-1.5-.2-3-.2-4.5,0h-.6c-1,.2-1.6-.9-.7-1.5,5.6-3.8,10.3-7.9,16.5-10.7,5.2-2.3,10.8-4.3,16.5-5.8l-.1-.1ZM521.12,206.07c7.9-8,24.7-4.9,34.1-1.3,5.4,2.1,10.5,4.7,14.7,8.7l.4.4.6.6c2.9,2.8,6.1,6.7,5.6,10.7-.1.6-.4,1.3-1.1,1.4-3.8.7-7.5-1.3-10.9-2.5l-2.3-.8c-3.5-1.2-6.9-2.3-10.5-3.1-4.4-1-9-1.6-13.5-1.5-4.6,0-9.5,1.4-13.9-.5-4.8-2-7.4-7.9-3.2-12.1h0ZM443.12,270.47c-2,2.1-4.7,3.2-8.1,2.5-2.7-.5-7.7-3.2-11.8-7.3-2.8-2.8-5.1-6.3-5.7-10.4-.1-.9-.6-1.6-1.3-1.9-.5-.3-1.2-.5-2-.4-.6,0-1.3.3-1.8.6-1,.6-1.4,1.4-1.5,2-.8,5.9,1.5,11.8,5.1,16.8,4.8,6.7,11.9,11.6,16.1,12.7,7.1,2,14.7.4,20.2-4.6,4.4-4,6.7-9.1,8.8-14.5l.4-1c.5-1.2.9-2.4,1.4-3.6,1-2.4.7-4.4-.3-6-1.1-1.8-3.1-3-5.3-3.4-2-.4-4.2,0-5.9,1.3-1.5,1.1-2.6,2.7-3,5.2-.7,4-2.2,8.6-5,11.6l-.3.4h0ZM565.42,247.27c-1.7-.9-3-1.1-4.8-.6-1,.3-2,.9-2.8,1.7-.8.8-1.3,1.8-1.6,2.8-.5,2.7-2,5.2-4.1,6.8-1.8,1.4-4,2.1-6.5,1.7-2.7-.4-5.2-2.2-7-4.2-.5-.6-.9-1.2-1.3-1.8l-.2-.4c-.9-1.4-1.7-2.8-2.9-3.8-.5-.4-1.1-.7-1.8-.7h-.8c-2.7,2.7-3.2,4.7-3.1,6.7,0,2.1.9,4.3,2.3,6.2,3.2,4.7,9.2,8.5,13.2,9.4,5.5,1.2,11-.2,15.5-3.3,4.5-3.2,7.9-8.1,9-13.7.3-1.3.1-2.8-.4-4s-1.4-2.2-2.7-2.9v.1Z" style="fill:#000; fill-rule:evenodd; stroke-width:0px;"/></g></g><g id="Accessories-8"><g id="Accessories_Glasses_3-2"><path id="Ink-30" d="M597.12,291.37c-6.7,9-19.2,11.9-30.7,10.9-24.8-2.4-32.6-30.6-33.5-52.5,16.7,4.7-1.4-28.5,55.5-32.1,20.1-1.7,14.5,10.4,23.4,19.3-.2,18.5-3.2,38.7-14.7,54.4M478.82,269.97c-14.7,68.7-94.9,52.3-103.4-9.6,7.8-5.5,5.7-19.1,15.4-24,15.3-9.8,34.5-9.4,51.9-9.1,22.3,1.5,28.6,10.7,40,20.8-.4,6.8-2,14.7-3.9,21.9M628.92,206.27c-.8-.1-1.6-.3-2.5-.4-.6-.4-1.4-.6-2.3-.8-2-.5-4-.9-6-1-28.5-6.4-94.5,2.7-97.3,27-9.1,3-16.9.3-27.5.6-8-33.5-146.6-28.8-153.3-8.6h-.1c-6.4-2-15.8-1.5-23.2-1.8-15.7-.3-31.3,1.1-46.6,4.4-28.7,4.6-67.8,9.9-47.9,45.7h0c3.4,3.5,9.3.7,9.5-4.1-6.7-17,8.4-19,20.1-23.9,29-10.4,58.5-11.9,88.5-8.6,2.3,2.7,5.7,5,9.3,6.2,20,3.3,9.5,18.2,22.2,20.4-2.2,51.7,60.8,80,97.2,46,14.6-14.2,18-35.3,21.4-54.3,1.8-.4,2.9-1.4,3.6-2.7,4.3-4.3,7-8.2,15.5-9.4s15,1.2,15.9,1.9c.2.4.5.9.7,1.3.4.7.9,1.2,1.5,1.6-8.4,51.6,31.7,84.3,72.2,57.5,17.6-16.5,21.3-41.9,22-64.5,2.4-1.4,3.9-4.2,3.1-7.7-1.1-4.8,1.5-9,5.8-11.1,5.5-2.7,4.5-12.7-1.8-13.7" style="fill:#000; fill-rule:evenodd; stroke-width:0px;"/></g></g></g><path d="M493.72,714.17c-4.4-.8-8.5-1-12.6-1.4-1.5,0-2.9-.3-4.4-.5-1,0-1.5-.7-1.4-1.7s.8-1.4,1.7-1.5c2.1,0,4.2.3,6.3.6,3.4.6,6.9,1.1,10.3,1.8,1.1.2,1.6,0,2.2-1,4.6-7,10.9-12,17.9-16.2,1-.6,8.1-11.5,10.2-15.6.6-1.2,1.1-2.6,2.7-2.6,1.7,0,2.1,1.5,2.6,2.8.8,2,1.6,4.1,2.3,6.2.4,1,.9,1.6,2.1,1.2,4.6-1.2,9.2-1.4,13.9-1,1.9.2,1.9,0,2.7-1.7,1.3-3.2,2.9-6.1,4.7-9.1.3-.6.7-1.2,1.1-1.7,1.1-1.2,2.5-1,3.1.5.2.5.3,1.1.4,1.7.9,4.6,1.9,16,3,16.5,3.6,1.7,6.9,3.8,9.9,6.3,5.5,4.5,9.8,10,12.4,16.7.6,1.6.7,1.6,2.2,1.1,4.1-1.4,8.3-2.6,12.5-3.8,1-.3,1.9-.5,2.9-.4.7,0,1.3.3,1.5,1,.2.8-.3,1.3-.9,1.6-.6.3-1.2.5-1.9.6-4.2,1-8.3,1.9-12.4,3.2-.5.2-.9.3-1.4.4-1,.2-1.1.8-.9,1.6.9,3.4,0,3.3,3.6,2.5,2.7-.6,5.5-1.1,8.2-1.6,1.2-.2,2.4-.3,3.6,0,.5.2.8.5.9,1,0,.5-.2,1-.7,1.2-1,.6-2.1.8-3.3,1-3,.4-6,.7-9,1.2-2.4.4-2.3.4-2.4,2.7,0,1.7,0,3.5-.3,5.2,0,1,0,1.5,1.1,1.8,1.2.4,2.4.9,3.6,1.4.8.4,1.6.9,1,2-.5,1-1.3.8-2.1.4-1.3-.5-2.7-2-3.9-1.3-1.1.6-.9,2.5-1.3,3.8-4.8,14.5-14.7,24.3-28.6,29.9-12.6,5.1-25.2,5.1-37.8,1.1-5.4-1.7-10.6-3.8-15.8-6-3.4-1.5-6.6-3.3-9.4-5.8-4.5-4.1-6.8-9.3-7.6-15.3,0-.7,0-1.5-.4-2.2-1.1.3-1.8,1.4-2.7,2-.5.4-1,.9-1.5,1.3-1.1.7-2.2.7-2.9,0s-.6-2,.4-2.9c1.4-1.3,2.9-2.5,4.5-3.5,1.9-1.2,3-2.6,3.1-4.9.2-2.9,1.4-5.8,2.1-8.8-2.1,0-4,.8-5.8,1.3-2.9.8-5.8,1.7-8.7,2.6-.4,0-.8.2-1.2.3-1.5.2-2.3-.3-2.6-1.5-.3-1.3.2-2.2,1.7-2.6,2.3-.6,4.6-1.1,7-1.6,3.1-.6,6.1-1.2,9.2-1.6,1.3-.2,2-.6,2.5-1.9.7-1.9,1.8-4.1,2.8-6.7h0v-.1ZM489.42,735.97c2.3-1.1,4.2-2,6.2-2.8.6-.3,1.2-.5,1.9-.6.4,0,.8,0,1,.6.2.4,0,.8-.2,1.1s-1,.7-1.4,1c-2.2,1.5-4.4,3-6.6,4.4s-1.4,1.5-1.3,2.7c.2,2.6.5,5,1.3,7.5,1.8,5.5,5.4,9.3,10.3,11.9,7.2,3.8,14.8,6.7,22.7,8.9,8.5,2.3,17.1,2.6,25.8.4,9-2.3,16.9-6.4,23.4-13.2,5.4-5.6,8.9-12.2,10.6-19.7.27-1.27-.23-2.1-1.5-2.5-1.2-.3-2.3-.6-3.5-.9-.7-.2-1.3-.5-1.1-1.3s.9-.9,1.6-.8c1.3.2,2.7.5,4,.8.8.2,1.3,0,1.3-.9,0-1.6,0-3.1.2-4.7,0-1.2-.6-1.3-1.6-1.1-1.4.3-2.9.6-4.3.9-.6,0-1.2,0-1.3-.6,0-.7.5-1,1-1.2,1.4-.4,2.9-.8,4.3-1.2.5-.2,1.3-.2,1.4-.8.3-1.2,0-2.3-.6-3.3-.4-.8-1.3-.2-2,0-1.3.4-2.6.9-4,1.4-.4,0-.8.3-1.2.4-.3,0-.6,0-.8-.3s0-.7.2-.9c.4-.3.8-.5,1.3-.7,1.4-.7,2.8-1.3,4.3-2s1.6-.8.9-2.4c-1.4-3.5-3.4-6.6-5.8-9.5-4.2-5-7.8-13.4-27.9-17.3-5.5-.9-10.3-.8-14.9.3-12.2,3.1-22.8,9-31.6,18.2-1.2,1.3-2.4,2.7-3.4,4.5,1,.3,1.9.5,2.7.7.6.2,1.1.5,1,1.2,0,.9-.8.9-1.5.9-.9,0-1.8-.2-2.6-.4-.5,0-1,0-1.3.4-1.2,2.2-2.3,4.5-3.2,7.3,1.9-.2,3.4-.4,4.9-.5.6,0,1.2,0,1.3.7,0,.7-.5,1-1.1,1.1-1.6.4-3.2.7-4.8,1.1-.8.2-1.6.4-1.9,1.4-.8,3-1.8,6.1-2.2,9.7h0v.1Z" style="fill:#fff; stroke-width:0px;"/><path d="M533.42,751.97c-.2-2.2-.3-4.1-.5-6-.3-3.3-.6-6.5-.8-9.8,0-1-.4-1.5-1.4-1.6-.7,0-1.4-.3-2.1-.5-4.6-1.7-6.3-6.4-3.7-10.8,2.4-4.1,6.3-6,10.8-6.7,3.3-.6,6.1.5,8.4,2.7,2.8,2.6,3.3,6.1,1.5,9.6-1.8,3.6-4.6,5.7-8.7,5.9-2.6,0-2.5,0-2.2,2.5.5,3.8.3,7.7.5,11.5,0,.6,0,1.1.4,1.7,1-.4,1.7-1.2,2.5-1.8.5-.3.9-.7,1.4-1.1.6-.5,1.2-.4,1.7.2.5.6.4,1.3-.2,1.8-2.1,1.8-4.2,3.5-6.4,5.1-.9.7-1.9,0-2.7-.4-1.7-1.2-3.4-2.5-5-3.7-.3-.2-.6-.6-.2-1,.4-.5.7-.2,1.1,0,1.1.5,2.1,1.1,3.2,1.6.5.4,1.1.8,2.4.8h0ZM539.32,722.07c-2.4,1.6-4.3,3.4-6.2,5.2-.4.4-.9.9-.5,1.5s1.1.4,1.6.2c1.9-.8,3.5-1.9,4.7-3.6.6-.8,1-1.8.4-3.3h0ZM530.02,726.67c2.1-2,4.1-3.8,6.3-5.9-5.2.7-6.4,1.9-6.3,5.9Z" style="fill:#fff; stroke-width:0px;"/><path d="M559.42,706.57c0,1.5-.6,2.7-1.8,3.5-1.3.8-2.6,1-3.9.3-.3-.2-.7-.5-.9-.8-.8-1.1.3-4.4,1.8-5.4,1.3-.9,3-.6,4.1.7.4.4.7,1,.7,1.7h0Z" style="fill:#fff; stroke-width:0px;"/><path d="M520.82,707.37c-1.7.2-3-.9-3.1-2.6-.2-1.4.6-2.3,2.2-2.4,1.9-.2,3.7.8,3.9,2.1,0,1.2-1.5,2.7-3,2.9h0Z" style="fill:#fff; stroke-width:0px;"/></g></svg>