<?xml version="1.0" encoding="UTF-8"?>
<svg id="Layer_2" data-name="Layer 2" xmlns="http://www.w3.org/2000/svg" version="1.1" viewBox="0 0 858.7 310.4">
  <defs>
    <style>
      .cls-1 {
        fill: #a4ffa4;
        stroke: #2a2a2a;
        stroke-miterlimit: 10;
        stroke-width: 6px;
      }

      .cls-2 {
        fill: #2a2a2a;
        stroke-width: 0px;
      }
    </style>
  </defs>
  <g id="set">
    <rect class="cls-1" x="3" y="3" width="852.7" height="304.4" rx="152.2" ry="152.2"/>
    <g>
      <path class="cls-2" d="M180.6,88.7c-1.9,4.7.6,9.4-.6,13.9-2.3,2.6.7,5.6-1.4,8.1.2,1.1,1.8,1.8.8,3.2-.3,3.6.1,7.5.3,11.1,0,3.3-1.8,8.2,1.1,10.5,3.3-9.6,5.8-20.6,10.8-29.5-1.2-3.2,1.9-5.8,3.4-8.1-.8-2.8,1.4-4.6,2.1-6.9,1.4-8.4,8.9-18.2,18.3-15.5,8.5,1.2,17.4-3.2,25.2.7,9.8-.9-12.5,30-10.5,35-3.7,6.5-7.1,12.5-9.8,19.5,1.6,5-5.7,8.7-4.2,12,0,2.8-1.8,5.9-1,8.2.8,1.3,2.2,2.5,1.3,4.4,3.6,4.5,4.6,11,8,16.1.4,5.6,7.6,9.3,5.9,14.9,3.9,7.1,8.5,14.5,10.6,22.5,4.1,2.7,5.9,8.8,6,13.4-.1,5.6-13.9,1.2-18.5,2.6-16.4,1.2-25.4,1.7-28.9-17.2-2.2-.2-1.4-1.9-1.8-3.2-.8-3.2-3.7-5.5-2.9-8.9-3-1.6-1.4-4.6-2.7-6.9-4.4-8.9-6.5-18.8-12-27.4-3.6,21.1,1.9,40.1-1.4,61.6-2.9,3.5-6.3.3-9.5,2.7-1.5.4-3-1.1-4.6.3-6.4-1.7-13.4.1-20.4-.7-6.9-5.5-4.3-14.5-3.9-21.5-1.6-14.1-.8-27.9-.8-41.9,1.8-13.2-1.1-26,0-38.6-.9-4.4.7-9.8.1-14.6,2.6-2.7-2.6-5.2.1-7.6.7-2.6-1.6-5.2,0-8,1.2-3.4-.9-5.9,0-9.3-2.2-9.6,12.6-8.7,18.6-8,12.7.2,21.8-3.9,22.2,13.3h0ZM208.2,88.4c.1-.2.2-.4.3-.6-1.7-1-2.7,1.6-.3.6ZM211.1,105.3c-2.2.2-1.8,3.5.3,3.3,2.1-.2,1.8-3.5-.3-3.3ZM215.6,97.9c.6-2.9-3.1-1.3-3.2,0,.6,2.3,3.2,2.8,3.2,0ZM223.6,85.9c-1.2,1-.1,1.3.5,2.1,1.1-.5,0-1.2-.5-2.1ZM227.7,93.2c-.8-.5-1.6-1.7-2.1-.5.8.6,1.1,1.8,2.1.5Z"/>
      <path class="cls-2" d="M289.5,175.4c-2.2,4,1.4,8.1-.2,11.9-2.5,2.2,1.4,4.6,0,6.5-.8.8-.8,1.5,0,2.2-2,8.2,4.8,22.8-5,27.9-2.3.1-4.3,1.5-6.6.3-1.9,2.2-3.1-.5-5.2-.2-1.4-.4-2.1,1.3-3.2,1.2-1.9-1.2-3.8.9-5.5-.4-2.5-1.8-5.1,2.1-7.8-.5-12.4,1.8-4.8-24.2-6.1-31.3-1.1-6.6-.9-14.1-1.1-21,.2-1.9-1.8-4.6.8-5.9.6-.3.8-.9.2-1.6-2.6-12.1,1.5-26.2-.9-37.4-.4-2.2,0-4.9.6-7.2,0-1.9-2.4-4.1-.4-5.9-1.1-5.8,1-12.4.1-18-.8-1.4-1.6-3.3.6-4.6,0-2.2-1.9-4.2-.6-6.8.5-9.6,5.8-10.7,14.8-9,6.7-.7,14.8.5,20.9-1.7,5.3,3.7,11.4-.7,16.8,3.5,32.3-1.9,53.5,28.3,45.7,57.4-2.6,8.3-7.9,15.2-14.5,21.5-11.2,7.3-3.1,11.3-2,19.2,3.6,5.3,6.1,11,9.5,16.3.8,2-.9,4.4,1.8,5.6,2.6.8-.6,3.8,1.8,4.3,3.7,3.3,4.2,10.9,7.2,15.2,2.7,1.4,1,4,1.8,5.9,0,3.1-4.3.8-5.9,1.9-6.1.6-13-1.4-19,.5-19.5.5-15.6-3-23.3-17.4,1.5-3.8-4.4-5.5-2.5-9.2-.9-2-3.6-3.1-2-5.8-4.1-7.9-6.5-17.7-10.1-25.9-.9,2.7-.6,5.8-1,8.7,0,0,.1,0,.2,0h0ZM264.8,88.4c5.9.6-.3-4.4-2.5-1.6.4,1.2,1.5,1.9,2.5,1.6ZM292.9,144.9c13.3-1.9,20.1-18,12.4-29.2-4.1-4.5-8.9-5.9-14.2-6.5-2.5-.6-.2,5.1-.9,6.3-1.7,2.2.2,4.1-.2,6.2-1.9,2.4.4,4.5-.6,7,.6,5.2-1.9,12.6,3.5,16.2h0Z"/>
      <path class="cls-2" d="M397,173.7c-5.4,31.9,41.7-1,34.5,29.6-1,6.8,4.7,18.3-4.2,21.1-2.3,1.6-4.2.2-6.6,1.2-3.8,1-7.1-1.5-10.9-.5-14.3-.6-28.2-.9-41.8.4-9.9.3-12.3-4.1-10.8-13.4-.2-6.5-1.8-13.7,0-20.3-2-6.1,0-13.9-.2-20.4-.2-4.2-2.1-9.6-.1-13.9,0-2-2.2-3.8-.1-5.9,1-13.9-1.5-28,0-42,1.2-43-7-32.2,33.8-34.7,1.1.8,2,.5,3-.3,1.6-.4,2.9,2,4.6.6,4-.7,8.8-.5,13.2,0,6.2.7,18.9-3,19.8,5.7,1.3,5.8-.6,11.3.7,17.3,2.5,5.9-.6,11.4-6.5,11.8-7.8,2.3-18.5-2.6-25.5,1-3.6,2.8-2.8,7.2-2.4,11.1-1.4,5.5,1.9,9.8,7.5,9.9,4.6-.4,9.7,0,13.6.7,5.3-1.2,3.5-1.7,7.6,1.7,4.1,3.8,2.1,22.6.9,28.7-7.2,7.8-29.3-4.1-29.9,10.4h0ZM374.4,178.5c-.3-1.6-2.2-1.3-2.6-.3.3,1.5,1.9,1.5,2.6.3ZM382,183.4c2.3.3,1.9-3,.2-3.2-3.9-1.4-3.8,3.8-.2,3.2ZM388.2,98.8c-.5,3.8,4.6,2.8,4.6,0,0-2.7-4.6-2.7-4.6,0Z"/>
      <path class="cls-2" d="M517.9,85c3.4,13.6,6.3,30.4,9.5,45.2,3.2,5.7,2,14.5,5.6,20.9.6,5.4,1.5,10.6,2.2,15.7,1.2,1.1.7,2.2.4,3.6.2,1.4,2.4,2.3.9,4.1,3.2,9.4,5.3,18.2,5.7,27,1.8,5.2,8.8,21.2.9,22.4-5.5,1.9-12.4.9-18.6.6-3.6,2.7-7.1-.7-10.4.6-10.9,1.7-7.6-11.9-12.3-16.9-2.3.4-3.1-2.4-5.2-2.2-1.9.5-4.1,1.2-6,.1-2.7-.7-5.2,1.7-8-.8-17.5,6.5,1.2,24.1-28.8,19.7-4.2-1.4-9,.8-13.1,0-1.6-2.6-4.3.8-5.6-.7-.7-1.6-4.5-1.7-3-4,3.8-12.9,5.4-27.1,9.6-38.8-1.5-2,.8-3.4.5-5.2-1.5-2.1,1.8-2.2,1.5-4.3-.3-5.6,2.2-11.1,3.4-16.7,3.8-3.1.5-8.2,3.5-11.5,1.8-2-1.1-5.5,1.9-6.8,1.6-2.9-.1-7.1,1.8-10.2,3.2-10.2,3.3-20.9,7.5-30.6,1.9-7.3,2-18,10.6-20.6,10-1,20.2-.8,30.6,0,3.2-.7,5.6,1,8.6,0,2.7-.6,2.2,1.6,3.4,3.3,3.2,1,2.8,3.7,2.8,6.3h0ZM448.4,199.9c-1.1-2-2.2-.6-3.2.6,0,1.7,3.4,1.8,3.2-.6ZM455.5,179.4c-.5-.2-.9-.4-1.4-.5-.1.3-.2.5-.3.8.7,0,1.5.8,1.7-.3ZM457.4,173.6c-1.2,1.2-1.5,2.8.2,3,1.1-.8.5-1.8-.2-3ZM466.4,152.2c-.5-.5-.8-.8-1.1-1.1-.3.3-.6.6-.8.9.8.5,1.1,1.3,2,.3h0ZM474.8,185.3c2.2.4,5-.2,4.2-2.6-2.8-1.6-.3-6.3-3.8-7.1-3.3,1.4.7,5.2-2.6,7.1-1.6,1.5.7,3.1,2.1,2.7h0ZM483.6,190.4c-.6-2.2-3.1-.6-3.4.8.9,1.2,2.9.6,3.4-.8ZM483.2,182c-4.3-.5-1.1,2.8,1.2,2.7,2.9-.6.2-2.6-1.2-2.7ZM490.8,117.2c.8-3.5-2.6-1.8,0,0-3.4,10.6-3.5,21.9-5.2,33.2-2.1,10.8-8.8,29.3,9.3,21.9,4.4-6.6.8-13.9.1-20.8-2.6-11.1-1.5-23.9-4.2-34.3h0ZM507.1,179c.3-.4.6-.7.8-1-.7-.7-1.2-.7-1.8.1.3.2.5.5,1,.9ZM514.6,201.1c.5-3.2-4.4-3.9-5.8-1.5-.9,1.8,6.2,5,5.8,1.5ZM511,168.6c.4.6.7,1,1,1.5.4-.4.8-.9,1.2-1.3l-1.3-1.2c-.2.3-.5.6-.9,1h0ZM514.1,186c4.8,0-1.3-5.1-1.6-1.3,0,1.3.7,1.4,1.6,1.3ZM517.2,179.6c-1,3.8,4.8,4.3,3.9.5-.3-2.7-4-3.9-3.9-.5Z"/>
      <path class="cls-2" d="M595.8,190.4c-2.1,7.9-.6,14-1,22,2.2,9.1-3.9,13.9-12.6,11.7-8.6-.8-20.8,4-26.8-2.8-2.2-3.8-.2-10-.4-14.5-1.5-2.3-.7-4.4-.7-7.4-.8-2.8.2-4.5.3-7-1.5-1.7-1.1-3.3.2-4.8.3-3.3-1.5-6.9.7-10.3-2-6.8-.4-15.2-1.2-22.1-1.6-6.3,2.3-12.3-.2-18.4-.8-2.3,2.9-4.4,1-6.5-2.5-5.4,3.9-13.7-3.4-17.8-6-4.9-20.8,1.7-19.3-10,1.6-2.2-.4-3.8-.5-6.1.4-1.1.7-2-.3-2.9-.3-1.8,2.3-2.8.5-4.7-1.5-2.2.5-4,0-6.3-1.6-9.3,11.5-8.1,17-7.1,1.8.9,3.7-1.1,5.5-.9,1,0,1.3,2,2.7,1.1,9.5-1.1,19.3-.3,29.4-1.4,6.6,2.2,15.4-.6,22.7,1.5,6.2-2.2,9.9,6.7,8.7,11.6-.2,5,.3,10.2,0,15.1,2.4,14.7-21.5,2.3-24,14.9,2,9.8.3,20.2.5,30.3.9,14.2-.6,28.3,1.2,42.8h0ZM581.4,118.7c-.6.5-.8,1-.1,1.3.8-.2.6-.7.1-1.3ZM603.7,89.1c-.2-1-2.6-.9-3-.2,0,1.8,2.6,1.4,3,.2Z"/>
      <path class="cls-2" d="M660.7,175.4c-2.2,4,1.4,8.1-.2,11.9-2.5,2.2,1.4,4.6,0,6.5-.8.8-.8,1.5,0,2.2-2,8.2,4.8,22.8-5,27.9-2.3.1-4.3,1.5-6.6.3-1.9,2.2-3.1-.5-5.2-.2-1.4-.4-2.1,1.3-3.2,1.2-1.9-1.2-3.8.9-5.5-.4-2.5-1.8-5.1,2.1-7.8-.5-12.4,1.8-4.8-24.2-6.2-31.3-1.1-6.6-.9-14.1-1.1-21,.2-1.9-1.8-4.6.8-5.9.6-.3.8-.9.2-1.6-2.6-12.1,1.5-26.2-.9-37.4-.4-2.2,0-4.9.6-7.2,0-1.9-2.4-4.1-.4-5.9-1-5.8,1-12.4,0-18-.8-1.4-1.6-3.3.6-4.6,0-2.2-1.9-4.2-.6-6.8.5-9.6,5.8-10.7,14.8-9,6.7-.7,14.8.5,20.9-1.7,5.3,3.7,11.4-.7,16.8,3.5,32.3-1.9,53.5,28.3,45.7,57.4-2.6,8.3-7.9,15.2-14.5,21.5-11.2,7.3-3.1,11.3-2,19.2,3.6,5.3,6.1,11,9.5,16.3.8,2-.9,4.4,1.8,5.6,2.6.8-.6,3.8,1.8,4.3,3.7,3.3,4.2,10.9,7.2,15.2,2.7,1.4,1,4,1.8,5.9,0,3.1-4.3.8-5.9,1.9-6.1.6-13-1.4-19,.5-19.5.5-15.6-3-23.3-17.4,1.5-3.8-4.4-5.5-2.5-9.2-.8-2-3.6-3.1-2-5.8-4.1-7.9-6.5-17.7-10.1-25.9-.9,2.7-.6,5.8-1,8.7,0,0,.2,0,.2,0h0ZM636,88.4c5.9.6-.3-4.4-2.5-1.6.4,1.2,1.5,1.9,2.5,1.6ZM664.1,144.9c13.3-1.9,20.2-18,12.4-29.2-4.1-4.5-8.9-5.9-14.2-6.5-2.5-.6-.2,5.1-.8,6.3-1.7,2.2.2,4.1-.2,6.2-1.9,2.4.4,4.5-.6,7,.6,5.2-1.9,12.6,3.5,16.2h0Z"/>
    </g>
  </g>
</svg>