<?xml version="1.0" encoding="UTF-8"?>
<svg id="Layer_1" data-name="Layer 1" xmlns="http://www.w3.org/2000/svg" version="1.1" xmlns:xlink="http://www.w3.org/1999/xlink" viewBox="0 0 258 228">
  <defs>
    <style>
      .cls-1 {
        fill: #fff;
      }

      .cls-1, .cls-2, .cls-3, .cls-4, .cls-5, .cls-6, .cls-7, .cls-8, .cls-9, .cls-10, .cls-11 {
        stroke-width: 0px;
      }

      .cls-1, .cls-2, .cls-3, .cls-6, .cls-7, .cls-9, .cls-10 {
        fill-rule: evenodd;
      }

      .cls-2, .cls-5 {
        fill: #b2182b;
      }

      .cls-3 {
        fill: #1c1c1c;
      }

      .cls-4 {
        fill: none;
      }

      .cls-6 {
        fill: #ff8181;
      }

      .cls-7 {
        fill: #000;
      }

      .cls-12 {
        clip-path: url(#clippath);
      }

      .cls-8 {
        fill: #eaa2cd;
      }

      .cls-9 {
        fill: #d1e9ed;
      }

      .cls-10 {
        fill: #eaae86;
      }

      .cls-11 {
        fill: #2a2a2a;
      }
    </style>
    <clipPath id="clippath">
      <path class="cls-4" d="M16.2-26.7h225.7c8.3,0,15.1,6.7,15.1,15v223.6c0,8.3-6.7,15-15.1,15H16.2c-8.3,0-15.1-6.7-15.1-15V-11.6c0-8.3,6.7-15,15.1-15Z"/>
    </clipPath>
  </defs>
  <g>
    <rect class="cls-8" x="1" y="83" width="256" height="144" rx="15" ry="15"/>
    <path class="cls-11" d="M242,227.5H16c-8.5,0-15.5-7-15.5-15.5v-114c0-8.5,7-15.5,15.5-15.5h226c8.5,0,15.5,7,15.5,15.5v114c0,8.5-7,15.5-15.5,15.5ZM16,83.5c-8,0-14.5,6.5-14.5,14.5v114c0,8,6.5,14.5,14.5,14.5h226c8,0,14.5-6.5,14.5-14.5v-114c0-8-6.5-14.5-14.5-14.5H16Z"/>
  </g>
  <path class="cls-11" d="M126.1,153c-.3-1.6-1-2.7-2.9-2.7s-3.2,1.8-3.2,4.5.8,4.5,3.2,4.5,2.6-1.1,2.9-2.7h3.6c-.3,3.4-2.4,5.7-6.3,5.7s-6.9-3.2-6.9-7.5,2.4-7.5,6.9-7.5,6,2.3,6.3,5.6h-3.6ZM137.4,162.3c-4.5,0-7.1-3.2-7.1-7.5s2.5-7.5,7.1-7.5,7.1,3.2,7.1,7.5-2.6,7.5-7.1,7.5ZM137.4,159.4c2.6,0,3.5-2,3.5-4.5s-.9-4.5-3.5-4.5-3.5,2-3.5,4.5.9,4.5,3.5,4.5ZM145.5,155.6h5.4v2.7h-5.4v-2.7ZM156.2,153.8h5.7v2.9h-5.7v5.3h-3.6v-14.3h10.6v2.9h-7v3.1h0ZM170.7,162.3c-4.5,0-7.1-3.2-7.1-7.5s2.5-7.5,7.1-7.5,7.1,3.2,7.1,7.5-2.6,7.5-7.1,7.5ZM170.7,159.4c2.6,0,3.5-2,3.5-4.5s-.9-4.5-3.5-4.5-3.5,2-3.5,4.5.9,4.5,3.5,4.5ZM191,156.8c0,3.6-1.7,5.5-6,5.5s-6-1.9-6-5.5v-9.1h3.6v9.1c0,1.9.8,2.5,2.4,2.5s2.4-.7,2.4-2.5v-9.1h3.6v9.1ZM192.9,162v-14.3h3.6l5,8.5h0v-8.5h3.6v14.3h-3.6l-5-8.5h0v8.5h-3.6ZM207.1,162v-14.3h6.3c4,0,6.4,2.6,6.4,7.2s-2.2,7.1-6.2,7.1h-6.5ZM210.7,150.6v8.4h2.4c2.2,0,3.1-1.6,3.1-4.2s-.9-4.2-3.1-4.2h-2.4ZM224.8,153.2h6.2v2.9h-6.2v2.9h7.4v2.9h-11v-14.3h10.8v2.9h-7.2v2.7ZM233.8,162v-14.3h6.7c3.2,0,5.1,1.5,5.1,4.2s-1.1,3.1-2.9,3.5h0c3.6.7,2.3,6.2,3.1,6.4v.2h-3.7c-.7-.6.6-5-2.5-5h-2.2v5h-3.6ZM237.4,150.6v3.4h2.4c1.4,0,2.2-.5,2.2-1.7s-.8-1.7-2.2-1.7h-2.4Z"/>
  <g class="cls-12">
    <g>
      <path class="cls-2" d="M42.6,141.2l-2.6,5.9,1.4,18.8,1.1.2c11.2,1.6,18.7,2.4,22.7,2.4h0c4,0,8.9-.8,14.5-2.5h.3l.7-14.2h-1.5l-2.8-6.1h0c1.2,1.7,1.8.4,4.5,1,3.2.7,4.7,3.7,7.6,6,1.3,1.1,4.1,1.6,5.5,2.3l1.4.8c4.4,2.4,9.5,5.4,12.1,9.2,3.1,4.5,5.2,8.7,7.2,13.7,4.3,10.8,7.2,21.7,9.3,33,2.1,11.4,3.4,23,4.4,34.6.5,5.4.8,10.7,1.2,16.1v1.3c.3,2.9.1,5.8-2.7,7.6-2,1.3-4.8,1.5-7.1,1.6h0c-17.7,1-35.4,1.9-53.1,2.9l-26.5,1.5c-4.4.2-8.8.5-13.3.7l-10.8.6c-5.1.3-10.2.5-15.3.5s-12.8-.5-19.1-1.3h-.6c-4-.6-9.8-1.9-10.5-6.4-.1-.6.5-1,1-.9-.2-.7-.3-1.5-.4-2.1-.4-2.7-.7-5.4-.8-8.1-.3-5.5,0-10.9.5-16.4,1-9,2.3-18,3.7-26.9l.3-2c1.5-9.5,3.3-18.9,6-28.1,2.6-8.5,6.6-17.4,12.1-22.8,5.5-5.4,13.4-10.1,21.4-12.9.7-.3,14.6-3.1,15.5-2.7h.2c2.8-2.2,6.7-5.7,10.8-4.6,0-.2.5-1.3,1-2.7h.6Z"/>
      <path class="cls-10" d="M45.5,133.3c3.4-4,6.9-5.2,12.1-4.9,3.6-.1,7.1.7,10.1,2.7,2.8,1.3,5.2,3.2,6.9,5.6,1.5,2,.4,7.1,1.7,9.2v.6c0,1.9,1.4,4,4.2,6.3h0v13.7c-4.7,1.4-10.6,2-17.5,2s-14-1.1-21.4-3.2h-.3l-1.4-15,1.4-4.1v-3.5l.5-1.6c.9-2.7,2.4-6.7,3.5-7.9h.1Z"/>
      <path class="cls-9" d="M41.4,165.2c8.3,2.3,15.3,3.4,21,3.4s11.6-1.1,17.7-3.4l-1.5,111.5-23.9.3-13.2-111.7h-.1Z"/>
      <path class="cls-7" d="M.4,213.9c0-.2,0-.3.3-.2,3.2,2.6,4.9,6.9,5.3,10.8.4,4.2,0,8.5-.4,12.6-.2,4.6-.4,9.2-.7,13.9-.3,4.7-.6,9.4-.8,14.1l-.6,10.5c0,1.1,0,2.5-.4,3.6-.7,1.6-2.8,1.4-3.3,0h0c-.4-1.2,0-2.7,0-3.9l.6-11.5c.4-8.1.8-16.3,1.3-24.4v-2.7c.4-3.7.5-7.3.7-11v-1.2c.2-3.7,0-7.1-1.8-10.5h0ZM78.5,146.3c1.8-.2,3.2.4,4.8,1,.7.3,1.4.5,2.1.8.9.4,1.4,1.1,1.9,1.8l.3.4c2.2,3,3.7,6.4,5.3,9.7,1.9,3.8,3.9,7.6,5.8,11.4l.9,1.9c.5.9.9,1.9,1.4,2.8l.8,1.6c.8,1.7,1.5,3.4.4,5.2-1.1,1.6-2.9,2.8-4.4,4.1-1.2,1-2.5,2.1-3.7,3.1,2.6,2.4,4.3,5.4,5.3,8.7,1.4-.5,3.2-.7,4.7-.9,2.1-.3,2.3,2.6.4,2.6s-3.2.1-4.7-.2c.3,1.1.4,2.1.6,3.2.6,5.7-.7,11.4-2.2,16.9v.5c-1.7,5.9-3.1,11.9-4.5,17.9-1.3,6-2.5,12-3.6,18.1-1.1,6.2-1.8,12.3-2.6,18.5,0,.9-.8,1.7-1.9,1.7s-2-.8-1.9-1.7c.8-6.7,2-13.4,3.2-20.1,2-11.5,4.6-22.9,7.6-34.3l.5-2c1.3-5.1,2.5-10.4,1.9-15.7-.5-4.3-2.5-8.9-6.3-11.6h0c-.9-.7-1.2-1.8-.4-2.6.6-.5,1.1-1,1.7-1.5l3.4-3.1.7-.6c.6-.5,1.1-1,1.7-1.5.4-.3,1.3-.9,1.4-1.4,0-.3-.4-.9-.5-1.2l-.8-1.4c-.4-.8-.8-1.6-1.3-2.5-.9-1.7-1.7-3.4-2.6-5.1l-5.1-10.2c-1.5-2.9-2.7-5.9-4.6-8.6l-.4-.5c-.3-.4-.6-.9-.8-1.4-.2-.5-.4-1.1-.8-1.5-.8-1-2.4-1.6-3.7-1.8-.2-.1,0-.4,0-.4h0ZM39.1,143.6c0,0,0,.2,0,.2-1.6.5-3.1,1.2-4.3,2.2-.6.5-1.2,1.1-1.5,1.7,0,.3-.2.5-.3.8h0c0,.6-.3.9-.5,1.3h0c-1.6,2.3-2.7,4.8-3.7,7.3l-2.2,5.5-2.2,5.5c-.7,1.8-1.4,3.5-2.1,5.3-.4,1-.8,1.9-1.2,2.9-.2.4-.4.8-.5,1.3,0,0,0,.4-.1.5h0c.4.7,1.6,1.3,2.3,1.8l2.3,1.7c1.6,1.2,3.3,2.4,4.9,3.7,1,.8.4,2.3-.7,2.6-1.9.6-3.7,1.2-5.5,1.9-.7.3-1.5.5-2.2.8l-.4.2c-.2,0,0,0,0,.4s.1.6.1.9c.6,3.5,1.3,6.9,2,10.4,2.4,12.2,5.3,24.4,8.7,36.5,1.7,6.1,3.5,12.1,5.2,18.2,1.7,6.1,4,12.1,6.1,18,.6,1.7-2.3,2.4-2.8.7-2.5-7-4.7-14-7.1-21.1-4.2-12.5-7.4-25.3-10.3-38-1.4-6.3-2.8-12.7-3.9-19.1-.2-1.2-.4-2.4-.7-3.6l-.3-1.8c-.2-1.3-.3-2.6.7-3.6s2.8-1.3,4.2-1.8h.1c.9-.3,1.7-.6,2.6-.9-1.3-.9-2.5-1.9-3.8-2.8-1-.8-2.1-1.5-3.1-2.3-.8-.6-1.5-1.5-1.6-2.5,0-1.1.4-2,.8-3h0c.4-1.1.8-2,1.2-3l2.5-6c1.6-3.8,3.1-7.6,4.7-11.4.7-1.5,1.3-3,2.2-4.4.4-.7.8-1.4,1.3-2,.5-.7,1-1.1,1.8-1.5,1.3-.6,2.3-1.7,3.6-2.4,1.3-.6,2.6-.9,4.1-.9l-.4-.2ZM43.4,136.8h.2c0,1.9-.4,3.8-.7,5.7s-.4,3.9-.8,5.7v.3h0c-.2.5-.7,1-1.2,1.1.2.9.4,1.9.5,2.8.3,1.6.5,3.3.7,4.9l.3,2c.3,1.8.5,3.7.7,5.6.6.2,1.2.4,1.9.6,1.5.4,3,.6,4.5.7,3.1.3,6.3.4,9.4.6h.7c3.5.2,7.1.3,10.6,0,1.7-.2,3.5-.5,5.2-.8.9-.2,1.7-.5,2.6-.7.3,0,.5-.2.8-.4,0-.2.3-.3.5-.3h.7c0-1.5,0-2.9.2-4.3.2-3.9.9-7.9,0-11.8,0-.1.2-.2.2,0,1.7,4.1,1.5,8.5,1.6,12.8v12.6c.3.1.6.3.8.6.5.5.6,1.3,0,1.8-.3.2-.5.4-.8.5v10.9c.7.5.8,1.8,0,2.3,0,11.8-.4,23.6-.6,35.3l-.4,24.7c0,3.3,0,6.6-.2,9.9h0c0,0,.4.2.4.3h0c.3,0,.5.1.7.3.5.5.4,1.1,0,1.6h0c-.3.4-.7.5-1.1.5v6.2c0,2.1,0,1.3,0,1.9v1.5c0,.9,0,1.9-1.1,2.3-1.1.4-2,0-2.4-.9,0-.3,0-.5,0-.8v-3.6h0c-3.8.2-7.6,0-11.4,0h-6.4c-1.1,0-2.1,0-3.2-.2,0,1,.3,2.1.4,3.1,0,1-1,1.8-2,1.8s-1.8-.8-2-1.8c-.7-4.6-.9-9.3-1.6-13.9-.6-4.1-1.1-8.3-1.5-12.4l-.2-1.4c-1.8-15.1-3.6-30.2-5.2-45.3l-.8-7.1c-.8-7.1-1.6-14.2-2.3-21.4-.4-4.1-.7-8.2-1.1-12.2-.3-3-.4-6-.5-9-.4-.4-.6-.9-.4-1.5s.2-.7.3-1v-1c0-.4.3-.5.6-.4.5-1.1,1-2.2,1.5-3.3.6-1.7,1.2-3.6,2.2-5.2h0l-.3-.2ZM3,155.8c7.6-4.4,16.6-7.6,25.6-7.3.2,0,.3.3,0,.3-4.8,1-9.7,2.2-14.2,4-4.6,1.8-8.9,4.2-12.8,7.1-7.1,5.3-12.7,12.2-16.3,20-2.1,4.6-3.6,9.4-4.9,14.2-1.4,5.1-2.5,10.3-3.5,15.4-1.9,10.2-3,20.6-3.5,31-.6,10.6-.4,21.1-.8,31.7,0,1.8-2.9,1.8-3,0-.9-12-.4-24.2.5-36.2.8-10.8,2.2-21.6,4.4-32.2l.2-.9c2.1-9.8,4.6-19.9,9.6-28.8,4.3-7.6,11-13.9,18.8-18.5v.2ZM108,202.8h.2c.9,2.3.9,4.8,1.1,7.2v.2c.2,2.2.4,4.3.6,6.5v.8c.7,8.9,1.5,17.7,2.6,26.5,1.2,8.8,2.7,17.5,4.4,26.1.2,1-.3,1.9-1.4,2.2-1,.3-2.2-.3-2.4-1.3-1.1-5-1.9-10-2.7-15-1.3-8.9-2.3-17.7-3-26.7-.3-4.5-.5-9-.6-13.4,0-2.1,0-4.2,0-6.3v-.5c0-2.1,0-4.4.9-6.4h.2ZM26.3,259.1c.1,0,.2,0,.2.2-1.5,2.2-3.5,4.1-5.4,6-2,2-4,4-6,5.9-1.5,1.4-3.9-.9-2.3-2.1,2.2-1.8,4.5-3.5,6.7-5.3l1-.8c1.8-1.4,3.7-2.9,5.8-3.9h0ZM95.8,258c0-.2,0-.4.3-.2,1.2.9,2.2,2,3.4,2.9,1.1.9,2.3,1.8,3.5,2.7,1.2.9,2.4,1.7,3.7,2.5,1.1.6,2.1,1.2,3.2,1.7.5,0,1,.3,1.4.7.6.7.7,2-.2,2.6h0c-1,.8-2.1.9-3.1.1-1.1-.9-2.1-1.9-3.1-2.8l-.3-.3c-1.1-1-2.2-2-3.2-3.1l-.9-1c-1.7-1.8-3.5-3.8-4.6-5.9h0ZM90.4,154c-.2-.1,0-.5.2-.4h.4c1.9.7,3.8,1.4,5.5,2.3,1.8,1,3.5,2.2,5.1,3.5,3.3,2.6,6.1,5.9,8.5,9.2,4.8,6.8,7.8,14.5,10.2,22.3,2.5,8.3,4.5,16.7,6.1,25.2,1.6,8.6,2.9,17.3,3.7,26,.4,4.3.7,8.6.8,12.9v10.1c0,1.1.2,2.2-.1,3.3-.4,1.7-3.5,1.4-3.4-.4v-6.8c0-2.4-.2-4.8-.3-7.2-.2-4.8-.5-9.6-.9-14.4-1.5-16.7-4.5-33.5-9.7-49.6-2.4-7.5-5.7-14.8-10.4-21.2-2.1-2.9-4.5-5.5-7.1-7.9s-5.5-4.9-8.7-6.8h.1ZM54.7,261.7l.4,2.4c.2,1.2.4,2.4.5,3.6,1.1-.1,2.3-.2,3.4-.3,1.9-.2,3.9-.2,5.8-.3,4-.2,8-.4,12-.4h0l.2-4.8h-17.2c-1.6,0-3.4,0-5.1-.2h0ZM77.3,254.8h-23.6c.2,1.6.4,3.1.6,4.7,1.8-.2,3.8-.1,5.6-.1h17.2c0-1.6,0-3.1,0-4.6h0ZM52.9,247.3c.2,1.8.4,3.7.7,5.6h.4c1.2-.1,2.4-.2,3.6-.3,2.4-.1,4.7-.2,7.1-.3,2.4,0,4.9,0,7.3-.1h5.5v-4.2h-12.8c-2.4,0-4.7-.1-7.1-.3-1,0-1.9-.1-2.9-.2h-.5c-.4,0-.8-.1-1.3-.2ZM77.6,239.4c-4.4.3-8.8.5-13.2.5h-.7c-3.9,0-7.9.2-11.8,0,.2,1.9.5,3.8.7,5.7h19c1.9,0,3.9-.2,5.8-.2v-5.9h.2ZM77.8,231.4c-.5.2-1.1.2-1.8.2h-1.7c-.8.1-1.6.2-2.4.2-2.6,0-5.3.2-7.9.3-2.7,0-5.4.1-8.1,0-1.3,0-2.6,0-4-.2h-1c.3,2.5.6,5,.9,7.5,3.9-.5,7.8-.7,11.7-1.2l3.5-.4c3.5-.4,7-.8,10.6-1.2v-5.2h.2ZM78,223.2c-.8.2-1.6.2-2.3.2h0c-1.4,0-2.7.1-4.1.2h-16c-1.4,0-2.8,0-4.1-.2h-1.3c.3,2.4.6,4.8.9,7.1.5,0,.9-.1,1.3-.2,1.1-.2,2.2-.3,3.3-.4,2.4-.3,4.9-.5,7.3-.6,2.5-.2,5-.3,7.5-.5h1.8c.6-.2,1.2-.2,1.8-.2,1,0,2.2,0,3.2-.2.3,0,.6-.1.9,0v-5.1h-.1ZM78.2,213.6c-.3.3-.7.5-1.1.5-2.4.3-4.9.3-7.3.5h-.4c-2.5.2-5,.3-7.5.4-2.6.1-5.2.2-7.7.3h-5.2c.3,2.2.5,4.4.8,6.7.5,0,1,0,1.4-.1,1.4-.1,2.8-.3,4.1-.4,2.6-.2,5.2-.3,7.9-.4,2.7-.1,5.4-.2,8-.3,1.3,0,2.6-.1,3.9-.2.9,0,2-.4,2.9-.3,0-2.2,0-4.4,0-6.7h0ZM78.4,205.1s0,.1,0,.2c-1.1,1-2.4.9-3.8,1h0c-1.4.1-2.8.2-4.1.3-2.8.2-5.5.3-8.3.4-2.8.1-5.7.2-8.5.1-1.8,0-3.7,0-5.6-.2.3,2.5.6,4.9.9,7.3.5,0,1-.2,1.5-.2,1.2-.2,2.5-.4,3.7-.5,2.5-.3,5-.5,7.5-.7,2.1-.2,4.3-.4,6.4-.6h1.3c2.6-.3,5.2-.6,7.7-.7.4,0,.9.2,1.1.6,0-2.3,0-4.7.2-7h0ZM78.6,198.1h-2c-1.5,0-3.1,0-4.6.1l-9.2.3c-3.1,0-6.3.2-9.4.1h-4.6c-.6,0-1.3,0-1.9-.1l.8,6.9c1.8-.3,3.7-.3,5.6-.5h.4c2.7-.3,5.4-.4,8.1-.6,2.8-.2,5.5-.4,8.3-.6,1.4,0,2.8-.2,4.1-.3h.2c1.3-.1,2.5-.4,3.7.3.2,0,.3.2.4.4,0-2,0-3.9.2-5.9h0ZM78.8,190.1c-5.6.2-11.2.4-16.8.4h-9.4c-1.4,0-2.7,0-4.1-.2h-.5c-.7,0-1.3-.1-2-.2.3,2.4.6,4.8.8,7.1.7-.1,1.4-.2,2-.2h0c1.5-.2,2.9-.3,4.4-.4,2.8-.2,5.7-.4,8.5-.5,2.9-.1,5.8-.2,8.8-.4h2.9c.5-.1,1-.2,1.5-.2h3.3s.2-.1.3-.2h0v-5.1h.2ZM45.1,182.4c.3,2.1.5,4.3.8,6.4.8,0,1.6-.1,2.4-.2,1.5-.1,3.1-.2,4.6-.3h3.1c2-.2,4.1-.3,6.1-.4,5.6-.2,11.2-.4,16.8-.7,0-1.5,0-2.9,0-4.4-.3.3-.7.5-1.2.5h-17.7c-2.9,0-5.9-.1-8.8-.3-1.4,0-2.9-.2-4.3-.4-.6,0-1.3-.1-1.9-.2h0ZM44.1,174.8c.3,2.2.5,4.4.8,6.6.7-.1,1.5-.2,2.2-.3,1.5-.2,2.9-.3,4.4-.4,2.9-.2,5.7-.2,8.6-.3,5.9-.1,11.8-.1,17.7-.2.5,0,1,.2,1.2.5,0-1.4,0-2.7,0-4.1-.6,0-1.1-.1-1.7-.2-1.6,0-3.2-.2-4.8-.3-3.3-.2-6.7-.3-10.1-.5-3.3-.1-6.7-.3-10.1-.4h-1.5c-2.3,0-4.7-.2-7-.5h.2ZM43.1,166.5c.3,2.2.6,4.4.9,6.7v.7c2.9-.5,5.9-.6,8.7-.8,3.3-.1,6.7-.2,10.1-.2s6.7,0,10.1.2c1.7,0,3.3.1,5,.2h1.6v-1c0-1.4,0-2.8,0-4.2-1.1.6-2.6.8-3.7,1h0c-1.9.4-3.8.7-5.7.8-3.8.3-7.6.2-11.3,0h-.7c-3.3-.3-6.7-.7-9.9-1.4-1.5-.4-3.1-.9-4.5-1.6-.2,0-.3-.1-.5-.2h0v-.2ZM74.9,140.2c0-.1.2-.2.3,0,.4.8.6,1.7.9,2.6.3.9.7,1.8,1,2.7.8,1.9,1.7,3.7,2.7,5.4,1.1,1.7-1.9,2.9-2.7,1.1-.8-1.9-1.5-3.9-1.9-6-.2-1-.4-2-.4-3s-.2-1.8,0-2.7h0Z"/>
      <path class="cls-10" d="M99,74.7c0-2.4-3.7-3.3-4.8-1l-.2.2c.3-.3-.4.2-.5.2s-.2,0-.3,0c-.7-5.9-3-12.4-8.9-15.3-8.3-3.8-17.9-4.5-27-4.1-4.6.3-10,.9-14.1-1.2-1.3-.7-2.3-1.7-3.7-2.2-4.6-1.2-6.6,3.2-6,6.8-2,0-3.9,1-4.7,2.7-.5,1-.5,2-.9,3-1.3,2.5-3.2,4.3-2.1,7.3-1.9,2-.8,5,.7,6.9.7,1,1.6,1.9,2.2,3,.5,1.1-.3,2.3-.7,3.3-3.3,7.2-3.1,15.2-1.3,22.7-3.5,1.4-4.6,5.9-2.3,8.7.8,1,1.8,1.4,2.9,2,1.4.7.3,3.6.7,4.9.6,3.4,3.9,5.4,7.1,3.3,2.1-.3,3.7,5.3,5.2,6.7.9,1.1,1.9,2.1,3.1,3.1,3.3,8,20.3,12,28.7,11.5,8.8-.9,14.7-7.8,19.6-14,2.5-3.3,4.2-7,4.8-11,.6-4,.3-8.1,0-12.1-.9-8.6-2.2-21-3.1-29.7,3.2-.2,6-2.7,5.9-5.8h-.3Z"/>
      <path class="cls-3" d="M36.3,52.5c.6-.6,1.6,0,2.3.5h0l.4.4c.9.7,1.9,1.4,2.9,2,1.1.6,2.3,1.2,3.6,1.6,2.4.8,5,1.2,7.5,1.3,10.4.5,22.5-4.6,32,1.5,2.3,1.5,3.8,3.6,4.6,6,.9,2.7.6,5.6,1.3,8.3.3,1.2,2.5,1.4,2.8,0h0l.2-.2h0s0,0,0,0h0c.5-1.1,1.5-1.5,2.4-1.4h0l-.3.7v.2c-.4.8-.8,1.5-1.4,2.2-.9.9-2,1.7-3.3,2.2-.3,0-.2.4,0,.5,2.8.3,6-1.3,7.3-3.7v1.2c0,0-.3,0-.4.2-.9.7-1.4,1.9-2.2,2.6-.9.8-2,1.6-3.2,2h0c0-.3-.2-.6-.3-.9,0,0-.2,0-.2,0,0,.2-3.3-2-5.9-1.6-4.8.7-5.9,3.3-12.7,2.9-3.3-.2-10.4-3.1-16.6-3.3-5.6-.2-15.6,2.8-18.3,4.5-1.4.9,2.5,3.8,1.8,5.2-2,3.8-1.2,8.9-3.3,11.9h0c-1.3,1.9-.5,6.8-1,8.3-.9,2.7-2.5,1.5-2.3,1.9,0,0,.3,0,.2,0-.7-2.2-2.4-3.8-4.6-4.4.1-.5,0-1.2-.4-1.6v-.6c-.1,0-.3-.6-.3-.6-.3-1.3-.6-2.7-.7-4-.2-2.1-.2-4.1,0-6.2.2-2.7.8-5.3,1.5-7.9v-.3l.6-2c1.3.4,2.6.6,3.9.7,1.5,0,3,0,4.5,0,1.3,3.3,1.3,7.1-.4,10.3-1.9,3.8-6.5,7.4-5.2,12,.5,2,3.8,1.6,3.9-.4h0c0-2.1.7-3.7,1.7-5.4v-.2c0,0,.3-.4.3-.4,1.2-2,2.1-4,2.5-6.3.5-3.3-.3-6.8-2-9.7,6.3-.6,12.4-2.9,18.5-4.2h.6c4.5-.9,9.5-1.1,13.6,1.2,0,0,0,0,0,0-6-4-13.7-3.4-20.5-2h-.4l-.4.2c-6.3,1.4-12.9,3.4-19.4,1.6-1.7-.5-3.3-1.2-4.6-2.3h-.1c-.5-.6-1.2-1.2-1.3-1.9,0-.3,0-.4.1-.6.2-.2.5-.2.3-.3,1.9.9,3.6-1.6,1.8-2.7h-.1c-2.3-1.5-1.2-4.6,1.5-4.6h.1c1.5,0,2-1.7,1.2-2.6h0c-1.5-1.9,1-4.1,3-3.1h0c.9.5,1.9,0,2.3-.8.8-1.8.4-3.7.3-5.6v-.6c0-.4,0-.9.3-1.1h0l-.2-.5ZM93.1,80.7h0v.4-.4ZM28.6,81h.1-.1ZM69.8,70.5c0,0-.3.2,0,.3,3.9,1.6,6.8,4.3,9.1,7.6.2.3.5.4.9.4s.3,0,.4-.2h0c.2-.3,0-.6,0-.9-2.3-3.5-6.2-6-10.4-7.1h0ZM79,69.4c-.2,0-.3.2,0,.4,1.1.9,2.2,1.9,3,3,.4.6.7,1.2.9,1.8.3.7.3,1.4.7,2,.6,1.1,2.2.5,2.3-.6,0-1.6-1.3-3.4-2.4-4.5-1.2-1.1-2.6-1.9-4.2-2.1h-.2ZM36.4,68.1c-.5,0-.9.5-.5.8,2,1.8,4.8,2.7,7.6,3h0c2.6.4,6.3.5,8.3-1.4.4-.4.3-1.2-.4-1.3-.9-.2-1.8,0-2.8,0h-1c-1.3.3-2.6.4-3.9.3-2.6,0-5.1-.8-7.6-1.4h.2ZM81.4,62.3c-.3,0-.6.3-.4.5.8,1,1.7,1.9,2.5,2.9s1.5,2.1,2.4,2.9c.5.5,1.4,0,1.2-.6-.7-2.4-3.3-4.8-5.7-5.7h0ZM40.6,63.4c-.3,0-.5.3-.3.5,2.7,2.5,7.4,3.7,10.9,2.3.8-.3.3-1.4-.4-1.4-1.7,0-3.5,0-5.2-.2-1.7-.3-3.3-.7-4.9-1.3h0ZM45,60.1c-.4,0-.5.4-.3.6,1.5,1,3.3,1.5,5.1,1.1.6,0,.5-1,0-1-1.7,0-3.2,0-4.8-.7h0ZM57.3,54.8c2.3,0,4.6,0,6.8,0h-1c0,0-.7.2-.7.2-2.6.3-5.2.6-7.8.6s-3.6,0-5.3-.5c2.6.2,5.4,0,7.9-.3h0Z"/>
      <path class="cls-7" d="M33,52.3c.8-2.9,4.1-3.5,6.6-2.1,1.2.7,2.2,1.6,3.3,2.4,1.1.8,2.4,1.4,3.7,1.8,2.6.9,5.3,1.2,8.1,1.2,6.7,0,13.2-1.7,19.9-1.5,5.2.2,10.7,1.6,14.4,5.1,2,1.9,3.3,4.3,4,6.9.3,1.2.6,2.4.8,3.7v.3c0,.7.3,1.5.3,2.2s-.2,1.3-.3,2c-.2,1.4-2.5,1.2-2.8,0-.7-2.7-.4-5.6-1.3-8.3-.8-2.4-2.3-4.5-4.6-6-9.5-6.1-21.6-1-32-1.5-2.5,0-5.1-.5-7.5-1.3-1.2-.4-2.5-.9-3.6-1.6-1-.6-1.9-1.3-2.9-2l-.4-.3c-.7-.5-1.8-1.2-2.4-.6s-.3.9-.3,1.3v.2c0,1.9.5,3.9-.3,5.7-.4.8-1.3,1.4-2.3.9h0c-2-1.1-4.6,1.1-3.1,2.9h0c.9,1,.4,2.7-1.1,2.7h0c-2.7,0-3.9,3.1-1.6,4.5h0c1.9,1.1.2,3.7-1.7,2.8.2,0-.1,0-.3.3-.2.2-.2.4-.1.6.1.8.8,1.4,1.4,1.9,1.3,1.1,2.9,1.8,4.6,2.3,6.7,1.8,13.6-.4,20.2-1.8,6.8-1.4,14.5-2,20.5,2,0,0,0,.2,0,0-4.3-2.3-9.5-2.1-14.2-1.2-6.1,1.3-12.2,3.6-18.5,4.2,1.8,2.9,2.5,6.3,2,9.7-.3,2.3-1.3,4.3-2.5,6.3l-.2.4c-1,1.8-1.8,3.5-1.8,5.6s-3.3,2.5-3.9.5c-1.3-4.6,3.4-8.2,5.2-12,1.6-3.2,1.7-7,.4-10.3-1.5,0-3,0-4.5,0-1.3,0-2.6-.3-3.9-.7l-.5,2c-.7,2.7-1.3,5.4-1.5,8.2-.1,2.1-.1,4.1,0,6.2.2,1.8.6,3.5,1,5.2.3.4.5,1.1.4,1.6,2.2.6,4,2.2,4.6,4.4,0,0-.2.2-.2,0-1.5-2.4-5.4-3.2-7.9-1.7-2.4,1.5-3.3,4.5-2,6.9.7,1.3,1.7,2.1,3.1,2.7h.3c.7.4,1.3.8,1.8,1.4.6.8.6,1.7.5,2.6v.4c0,.6,0,1.3.1,1.9h0c0,.3.1.4.2.6,0,0,.3.3.4.4h.6c.2-.3.4-.5.7-.6h.3c.7-.8,1.9-.4,2.3.2.4.5.5,1,.5,1.5,0,0,.2,0,.3,0l.5.6c1.8,2.1,3.5,4.2,5.5,6.2,1.1,1.1,2.3,2.1,3.6,3,1.1.8,3.1,1.5,3.1,3s-.3.8-.8.9c-1.4.5-3.1-1.2-4.2-2.1h0c-1.2-1.1-2.4-2.2-3.4-3.4-2-2.3-3.7-5-4.5-7.9,0,.5-.3,1-.7,1.5-.6.6-1.5,1.1-2.3,1.3-2,.4-4-.3-5.2-1.8-1-1.3-1.3-3.1-1.2-4.7v-.2c0-.3,0-.7.1-.9l-.6-.3c-.8-.4-1.5-.9-2.1-1.5-2.6-2.2-3.9-5.9-2.7-9.1.7-2,2.3-3.7,4.3-4.6-.3-.7-.4-1.6-.6-2.3h0c-.2-1.4-.4-2.6-.5-3.9-.1-2.4,0-4.7.4-7,.7-3.8,2-7.8,4.4-11-1.9-.7-3.6-1.7-4.9-3.1-1.4-1.5-2.3-3.5-1.2-5.4.3-.5.6-.9,1-1.2-.7-1.3-.9-2.7-.5-4.1.5-1.7,1.9-3,3.7-3.6-.4-1.6,0-3.3,1.2-4.7,1.3-1.3,3.2-1.8,5-1.5,0-1.7-.4-3.5,0-5.2h0l.2-.2ZM27.9,111.9c1.7-.8,3.6-.6,5.3,0h0c1.8.9,4.2,2.8,3.6,4.8-.3,1.2-1.7,1.6-2.9,1.1-.9-.4-1.1-1.2-1.6-2-.3-.5-.7-1-1.2-1.4-1-.9-2.1-1.6-3.4-2.2-.2,0-.1-.4,0-.5h0v.2ZM69.7,70.7c0,0,0-.3,0-.3,4.2,1.1,8,3.6,10.4,7.1,0,.2.2.6,0,.8h0c0,.2-.2.3-.4.4-.4,0-.7,0-.9-.4-2.3-3.3-5.2-5.9-9.1-7.6h0ZM97.6,71.4c.4-.5,1.3-.5,1.5.2h0c0,.3,0,.3,0,.2.5.4.7.9.5,1.5-.8,3.1-4.5,5.3-7.8,5-.3,0-.3-.4,0-.5,1.3-.5,2.4-1.3,3.3-2.2.9-.9,1.2-2,1.7-3.1.2-.4.4-.7.8-.9v-.2h0ZM79,69.4c1.7.2,3.1,1,4.3,2.1,1.1,1.1,2.6,2.9,2.4,4.5,0,1.1-1.7,1.7-2.3.6-.4-.6-.4-1.4-.7-2-.2-.6-.5-1.2-.9-1.8-.8-1.2-1.9-2.1-3-3,0,0,0-.4,0-.4h0ZM35.9,68.9c-.4-.3,0-.9.5-.8,2.5.6,5,1.3,7.6,1.4,1.3,0,2.6,0,3.9-.2h.7c1-.2,2-.3,3,0,.7,0,.8.9.4,1.3-2,2-5.7,1.8-8.3,1.4-2.8-.4-5.6-1.2-7.7-3h-.1ZM81,62.8c-.2-.2,0-.6.4-.5,2.5.9,5.1,3.2,5.8,5.7.2.6-.7,1.1-1.2.6-.9-.9-1.6-1.9-2.4-2.9s-1.8-1.9-2.5-2.9h-.1ZM40.3,63.9c-.2-.2,0-.5.3-.5,1.6.5,3.2,1,4.9,1.2,1.7.3,3.5,0,5.2.2.7,0,1.2,1.1.4,1.4-3.5,1.4-8.2,0-10.9-2.3h0ZM44.8,60.7c-.3-.2,0-.7.3-.6,1.5.6,3.1.7,4.8.7s.7.9,0,1c-1.8.4-3.7,0-5.1-1.1h0Z"/>
      <path class="cls-1" d="M61.8,127.1c1.1-2.1,6.8-2.7,17.1-1.7l1.3,10c-5,1.5-8.9,2.1-11.9,1.8-4.4-.5-8.2-6.9-6.5-10h0Z"/>
      <path class="cls-6" d="M62.9,132.4c-.5-1.1,10.5-4,13.9-2,2.3,1.3,3.1,2.9,2.4,4.7-9.6,2-15,1.1-16.3-2.7Z"/>
      <path class="cls-7" d="M60.8,125.3c2.6-2.8,6.9-3,10.5-2.3,2.3.5,4.5,1.2,6.9,1.5,1.1,0,2.2.2,3.3.2s2.2-.2,3.2-.2.2.2,0,.3c-1.5.8-3.5,1.1-5.2,1.3v.3c0,.3,0,.5,0,.8,0,.6.2,1.2.3,1.8.2,1.2.2,2.4.5,3.6v.2c0,.3,0,.5,0,.7h.2c0-.1,0-.1,0-.1.5-.3,1.1-.5,1.7-.4.5,0,.9.4.9.8,0,2.2-3.1,2.8-4.9,3.3h-.5c-2.3.6-4.6,1.1-6.9,1.2-3.7.2-7.9-.8-10.4-3.6-2.3-2.6-2.7-6.6-.2-9.2l.3-.2ZM77.8,134.3c-.4-3.2-4.7-3.4-5.9-1.4-.5-2.9-8.6-.3-8,.3,2.4,2.2,6,2.4,9.1,1.9,1.6-.2,3.2-.5,4.7-.9h.1ZM73.1,125.8h-1.1c0,0-.4-.2-.4-.2-2.7-.3-5.6-.5-7.8,1.1-.8.6-1.2,1.3-1.4,2.2,2.1-.3,4.1-.5,6.2-.7h.6c1.3-.2,2.6-.3,3.9-.4h.9l.9-.2c.3,0,2.5,0,2.9,0,0-.4,0-1.1.2-1.4-1.6,0-3.1,0-4.7-.3h-.3,0ZM78,111.3c1.6.9,4,3,2.3,5.2-2,2-4.9-.3-6.3-1.3-1.3-.8-2.8,1.2-1.6,2.2,10.3,7.1,14.5-5.8,6.4-7.1-.9,0-1.2.8-.8,1.1h0ZM80.9,115.1h0ZM60.5,107.1h0c0-1.3.8-4.1,2.7-4.1s1.9,1.9,2.1,3.9h0c0,1.3-.3,4-2.1,4s-2.7-2.6-2.7-3.8ZM89,106.7h0c0-1.3-.8-4.1-2.7-4.1s-1.9,1.8-2.1,3.8v.2c0,1.2.3,4,2,4s2.7-2.6,2.7-3.9h0ZM61.6,94.4c1.6-.2,3.7.2,4.4,1.7.3.7,0,1.4-.9,1.4-2,0-3.8-.3-5.5.9-.8.5-1.4,1.2-1.9,2l-.2.3-.2.2c-.4.5-.7,1-.7,1.6s-.2.4-.4.3c-1.2,0-1.3-1.4-1.1-2.2.3-1.5,1.1-2.9,2.1-4,1.1-1.2,2.6-2,4.3-2.2h.1ZM83.3,96.3c1.1-.6,2.5-.9,3.7-.8,2.5.2,6.7,2.2,6.2,5-.2.9-1.5,1.4-2.3.9s-1-1.3-1.7-2-1.1-.9-1.8-1.3c-.7-.3-1.4-.5-2.2-.6h0c-.4,0-2.7,0-2.4.7,0,.2-.2.3-.3.2-.7-.7,0-1.6.8-2.1h.1Z"/>
      <path class="cls-7" d="M93,80.5h0c1.2-.4,2.3-1.2,3.2-2,.9-.8,1.3-1.9,2.2-2.6,1-.8,2.7,0,2.3,1.3-.4,1.4-2,2.4-3.4,3s-2.8.7-4.3.7h0"/>
      <path class="cls-7" d="M69.6,148.3c-2.1,0-4.2-.4-6-1h-.2c-3.4-1.3-5.4-2.9-5.9-4.7,0-.3,0-.6,0-.7.2-.2.4-.3.7-.3h.4c.7.3,1.1.7,1.7,1.2h0c.6.6.8.8,1.5,1.2,1.3.7,2.3,1.1,3.9,1.5,1.2.3,2.5.4,3.7.4s3.2-.2,4.7-.6c5.8-1.6,10.3-5.8,13.9-9.6,1.7-1.8,3.8-4.2,5.4-7,1.6-2.7,2.4-5.6,2.3-8.8,0-2.5-.3-4.9-.6-7.4,0-.9-.2-1.8-.3-2.7-.4-3.6-.7-6.9-.9-10.1-.2-2.4-.3-4.9-.3-7.4s-.9-11.5-.9-11.8v.3c.2,1.3,1.2,10.9,1.2,11.1,0,.7,0,1.4.2,2.1.2,1.3.5,2.6.7,3.8.2,1.3.4,2.5.6,3.8,0,.7.2,1.5.3,2.2.4,2.7.7,5.4,1.1,8.1,0,.6,0,1.3.2,1.9l.2,1.6c.4,3.3.7,6.5,0,9.6-.6,2.6-2,5.3-4.2,8.2-2,2.6-4,5-6.2,7.1-5,4.8-10.3,7.5-15.8,8h-1.8.2ZM97.9,78.5c.2-.2.3-.5.5-.7.3-.5.6-.9.9-1.1h.3c0,.6-.8,1.2-1.7,1.7h0Z"/>
      <path class="cls-7" d="M95.8,108.4c-.6,1.5-1.5,3.1-2.6,4.4-4.5,3.5-8.8,1.6-11.1-3.2-.8-3.4,1.4-7,3.7-9.5,3.4-3.2,9-1.5,10.5,2.3,0,.5,0,1,.2,1.5,0,1.6-.2,2.9-.8,4.5M52.7,105.4c5.9-6.6,16.9-6.9,16.7,3.2-1.3,12.8-22.6,9.6-16.7-3.2ZM97.6,99.9c-.2-.3-.4-.6-.7-.9,0,0,0-.5-.5-.5-4.5-4.7-12.5-2-15.4,2.7-.5.6-1,1.3-1.3,2-2.8-.5-6.2-.4-8.8.6-2.6-6.4-10.6-7-15.8-4.2-3.3,1.5-5.4,4.6-8.5,6.3-7.5.5-15.5-1.1-22.8.7-5.8,1.1-.9,3.8,0,2,6.9-1.9,15.1-.3,22.2-.7.7,1.2,2.2,2.1,3.6,2.1,1.5,12.7,21.4,10.6,22.1-.7.8-1.1,1.7-2.2,3.1-3,.5,0,1-.2,1.5-.4.8,0,2,.2,2.8.8,2.5,14.1,17,12.5,19.6,0,0,0,.2-.2.3-.5.9-1.1,3.1-1.5,2.7-3.4-.3-1.8-2.8-1.8-4.2-2.9h0Z"/>
      <path class="cls-5" d="M30.7,126.1c1.3,0,2.4-1,2.4-2.2s-1.1-2.2-2.4-2.2-2.4,1-2.4,2.2,1.1,2.2,2.4,2.2Z"/>
    </g>
  </g>
</svg>