<?xml version="1.0" encoding="UTF-8"?><svg id="Layer_2" xmlns="http://www.w3.org/2000/svg" viewBox="0 0 769.5 1176.04"><g id="Layer_1-2"><g id="Master_Character_Bust"><g id="Body"><g id="Body_Shirt_and_Coat"><path id="Top" d="M349.49,467.6l-12.2,30.2,6.7,95.9,5,.8c53,8.2,89,12.4,108,12.4h.6c19.2,0,42.1-4.3,68.9-12.8l1.2-.4,3.1-71.8h-7.3l-13.2-30.9h0c.1.2.3.5.5.7,5.5,8.1,8.7,1.6,21.6,4.4,15.4,3.4,22.3,19.1,35.9,30.7,6.3,5.4,19.6,8,25.9,11.7l6.7,3.9c20.9,12.3,44.9,27.3,57.5,46.8,14.8,22.8,24.9,44.5,34.3,69.9,20.3,54.8,34.3,110.7,44.4,168.1,10.2,58.3,16.3,117.2,21,176.2,2.2,27.3,4,54.6,5.5,82l.4,6.8c.8,14.9.1,29.4-13.4,38.6-9.7,6.6-22.6,7.6-33.9,8.2h-.6c-84.1,4.9-168.2,9.8-252.3,14.7l-126.1,7.4c-21,1.2-42,2.5-63,3.7l-51.2,3c-24.1,1.4-48.3,2.6-72.5,2.4-30.4-.2-60.7-2.4-90.9-6.5l-2.7-.4c-19-2.6-46.5-9.2-49.9-32-.5-3.3,2.4-5.3,4.8-4.8-.8-3.7-1.3-7.4-1.8-10.6-2-13.8-3.3-27.6-3.9-41.5-1.3-27.8-.2-55.7,2.6-83.4,4.6-45.8,11-91.5,17.7-137l1.5-10.1c7.1-48.3,15.5-96.4,28.7-143.4,12.2-43.4,31.2-88.6,57.4-116.1,26.2-27.5,63.5-51.3,101.8-65.9,3.3-1.3,69.3-15.7,73.7-13.6l.8-.6c13.2-10.4,31.9-28.6,51.2-22.9h0c.5-.9,2.2-6.5,4.7-13.9h2.8v.1Z" style="fill:#b2182b; fill-rule:evenodd; stroke-width:0px;"/><path id="Skin" d="M363.49,427.4c16-20.3,32.8-26.7,57.7-25.2,16.9-.6,33.7,3.8,48,13.5,13.1,6.8,24.7,16.3,33,28.4,7.1,10.4,1.7,36,8.2,47.1-.1,1.2-.1,2.3-.1,3.3,0,9.6,6.7,20.3,20,32.1l.5.5v69.5c-22.4,6.9-50.2,10.3-83.3,10.3s-66.6-5.5-101.8-16.4l-1.6-.5-6.7-75.7,6.7-21v-17.6l2.6-7.9c4.5-13.7,11.6-33.9,16.8-40.4h0Z" style="fill:#eaae86; fill-rule:evenodd; stroke-width:0px;"/><path id="Top-2" d="M343.99,590c39.5,11.5,72.7,17.3,99.7,17.3s55-5.8,84-17.3l-7.1,567.9-113.7,1.4-62.9-569.3h0Z" style="fill:#d1e9ed; fill-rule:evenodd; stroke-width:0px;"/><path id="Ink" d="M148.99,838c-.4-.8.6-1.6,1.3-1,15.3,13.4,23.3,35,25,55,1.8,21.2-.7,43.1-1.7,64.2-1.1,23.6-2,47.1-3.3,70.7-1.3,23.9-2.8,47.8-4,71.6l-2.8,53.7h0c-.3,5.7.3,12.8-1.9,18.1-3.4,8.3-13.5,7-15.6,0v-.2c-.1,0-.3.2-.3.2-1.9-6.2-.5-13.7-.2-20.1l2.9-58.7h0c2-41.5,3.9-83,6.1-124.5l.7-13.8c1-18.6,1.8-37.2,2.4-55.8l.2-6.2c.7-18.8.2-36.4-8.8-53.3v.1ZM520.19,493.5c8.5-.8,15,2,22.7,5,3.4,1.3,6.6,2.8,9.8,4.3,4.1,1.9,6.7,5.4,9.2,9l1.3,2c10.4,15.2,17.4,32.8,25.3,49.4,9.2,19.4,18.5,38.7,27.6,58.2l4.5,9.6c2.2,4.8,4.4,9.6,6.6,14.4l3.8,8.4c3.8,8.5,7.2,17.5,1.8,26.3-5,8.2-14,14.5-21,20.8-5.9,5.3-11.8,10.5-17.7,15.8,12.2,12.2,20.4,27.6,25.2,44.1,6.8-2.8,15.2-3.4,22.2-4.6,9.9-1.7,11.1,13.3,1.8,13.1-6.9-.1-15,.6-22.1-.9,1.2,5.4,2.1,10.9,2.7,16.4,3,28.9-3.5,58-10.3,85.9l-.6,2.3c-7.4,30.3-14.3,60.6-20.6,91.1-6.3,30.6-11.9,61.3-16.9,92.1-5.1,31.4-8.7,62.9-12.5,94.4-.6,4.8-3.6,8.9-8.9,8.9s-9.4-4.1-8.9-8.9c4-34.3,9.6-68.5,15.3-102.6,9.7-58.7,21.9-116.9,35.9-174.7l2.4-10.1c6.3-26.1,12-53,8.9-80-2.6-21.9-11.7-45.3-29.9-58.9l-.6-.4c-4.2-3.1-5.9-9-1.7-13.1,2.7-2.6,5.3-5.2,8-7.8l16-15.6,3.2-3.1c2.7-2.6,5.4-5.2,8.2-7.7,1.7-1.5,6.2-4.4,6.6-6.9.2-1.6-1.7-4.5-2.5-6l-3.6-7.3h0c-2-4.1-4-8.3-6-12.5-4.1-8.6-8.3-17.2-12.4-25.9l-24.3-52.1h0c-6.9-14.7-13-30.2-21.9-43.8l-1.8-2.6c-1.5-2.2-2.8-4.4-3.7-7.1-.9-2.6-2-5.5-3.7-7.7-3.9-5.3-11.3-8.2-17.5-9.3-1-.6-.7-1.8.1-1.9h0ZM333.09,479.8c.5,0,.6.8.1.9-7.5,2.3-14.7,5.9-20.5,11.1-2.8,2.5-5.6,5.4-7.3,8.7-.7,1.3-1,2.7-1.3,4.1v.5c-.5,2.6-1.2,4-2.5,6l-.2.3c-7.4,11.5-12.6,24.2-17.4,37l-10.4,27.8h0l-10.4,27.8c-3.3,9-6.7,17.9-10,26.9-1.8,4.9-3.7,9.9-5.6,14.8-.8,2.1-1.7,4.3-2.5,6.4-.1.3-.4,2.1-.7,2.5h.1c2.1,3.6,7.7,6.5,10.8,9.1l10.9,8.8h0c7.8,6.3,15.7,12.4,23.2,18.9,4.7,4.1,1.8,11.5-3.5,13.2-8.8,2.9-17.5,6.3-26.2,9.6-3.5,1.3-7.2,2.5-10.6,3.9l-2.1.9c-.8.4-.4.4-.4,1.9s.5,3.3.7,4.8c2.9,17.7,6,35.4,9.3,53,11.6,62.4,25.4,124.4,41.2,185.8,8,31,16.5,61.9,24.7,92.9,8.1,30.9,18.8,61.4,29.1,91.7,2.9,8.5-10.7,12.2-13.5,3.7-11.8-35.6-22.5-71.5-33.7-107.4-19.8-63.6-35.3-128.7-49.1-193.8-6.8-32.3-13.1-64.7-18.7-97.3-1.1-6.2-2.1-12.3-3.1-18.5l-1.5-9.1c-1-6.5-1.6-13.2,3.4-18.3,4.9-5,13.3-6.8,19.8-9.1l.5-.2c4.1-1.5,8.2-3,12.4-4.5-6.1-4.8-12.1-9.7-18.1-14.4-4.9-3.9-9.8-7.6-14.7-11.6-4-3.3-7.2-7.4-7.6-12.7-.4-5.4,1.9-10.4,3.8-15.4l.2-.5c1.8-4.9,3.7-9.9,5.6-14.8l11.7-30.5h0c7.4-19.4,14.5-38.9,22.3-58.2,3.1-7.6,6.4-15.1,10.4-22.3,1.9-3.5,4-6.9,6.2-10.1,2.5-3.7,4.8-5.5,8.6-7.5,6.2-3.2,11.1-8.7,17.3-12,6.1-3,12.4-4.7,19.3-4.8h0ZM353.29,445.2c.2-.4.9-.2.9.2.2,9.6-2.1,19.5-3.5,29-1.4,9.6-1.9,19.7-3.9,29.1,0,.4-.1.9-.2,1.3v.3h-.1c-.9,2.7-3.1,4.9-5.9,5.6.9,4.8,1.7,9.6,2.4,14.5,1.2,8.3,2.3,16.6,3.3,25l1.3,10c1.2,9.4,2.4,18.8,3.5,28.3,2.9,1.2,5.9,2.2,9,3.1,7,2,14.3,2.8,21.5,3.5,14.8,1.5,29.7,2.1,44.6,2.9l3.2.2c16.7,1,33.5,1.1,50.2-.6,8.3-.8,16.5-2.3,24.5-4.3,4.1-1,8.1-2.6,12.2-3.6,1.4-.3,2.6-1.1,3.9-1.9.6-.8,1.4-1.3,2.6-1.6h3.1c.3-7.4.6-14.7,1-22,1.1-19.7,4.1-40.3.1-59.9-.1-.7.8-.9,1-.3,7.9,20.7,7,43.4,7.4,65.2.4,21.3.2,42.6,0,64,1.5.6,2.9,1.5,4,2.8,2.2,2.5,2.8,6.8,0,9.1-1.2,1.1-2.6,1.8-4,2.3-.1,18.5-.2,37-.4,55.6,3.5,2.7,3.9,9.2-.1,11.9-.7,60-1.8,120-2.7,180l-1.9,125.8h0c-.3,16.8-.7,33.5-.8,50.3h.1l.4.2c.7.3,1.8.9,2,1.4.1.1.1.2.1.3,1.2.2,2.3.7,3.3,1.6,2.4,2.3,1.9,5.8,0,8.2l-.5.6h0c-1.2,1.5-3.5,2-5.4,1.7,0,10.5.1,20.9.1,31.4s-.1,6.4-.1,9.6v7.7c-.2,4.4-.6,9.9-5.1,11.9-5.1,2.2-9.6.4-11.6-4.7-.6-1.4-.4-2.7-.2-4.1-.1-2.1-.4-4.5-.3-6.4l.2-8h0c0-1.2.1-2.5.1-3.7h-.1c-18,.9-36,.4-54,.4h-8c-6.7,0-13.4,0-20-.3h-2.5c-5-.3-10.2-.4-15.4-.9.7,5.3,1.3,10.6,1.8,15.9.5,5-4.7,9.3-9.3,9.3s-8.7-4.3-9.3-9.3c-3.1-23.6-4.4-47.3-7.4-70.9-2.7-21.1-5-42.3-7.3-63.4l-.8-7.1c-8.6-77-17-154-24.9-231l-3.7-36c-3.8-36.3-7.5-72.6-10.7-109-1.8-20.8-3.5-41.6-5.1-62.4-1.2-15.3-1.9-30.5-2.4-45.7-1.9-1.9-2.8-4.7-2-7.6.5-1.7,1-3.4,1.6-5.1,0-1.7-.1-3.3-.1-5s1.6-2.4,2.8-2.1c2.3-5.6,4.9-11.1,7-16.7,2.8-8.5,5.6-18.2,10.5-26.5v-.1ZM161.39,542.1c35.9-22.5,78.7-38.7,121.5-37,1,0,1.2,1.5.2,1.7-22.8,5.1-45.9,11.3-67.6,20.4s-42.3,21.3-60.7,36c-33.9,27.1-60.2,62.3-77.6,102-10.2,23.3-17.3,47.8-23.5,72.4-6.6,26-12,52.3-16.5,78.7-8.9,52.2-14.1,105-16.8,157.8-2.8,53.8-1.7,107.6-3.7,161.4-.3,9.3-13.7,9.1-14.3,0-4.5-61.2-2-123.3,2.2-184.4,3.8-54.9,10.4-109.8,21-163.8l.9-4.7c9.9-50,21.9-101.2,45.8-146.5,20.5-38.7,52.1-70.8,89.1-94ZM660.19,781.1c.2-.5.9-.5,1.1,0,4.1,11.5,4.2,24.4,5.3,36.5v.9c1.1,11,1.9,22.1,2.7,33.1l.3,4.1c2.9,45.1,6.6,90.1,12.1,134.9,5.5,44.6,12.9,89,21,133.2.9,4.9-1.3,9.9-6.5,11.4-4.6,1.3-10.4-1.6-11.4-6.5-5-25.4-9-50.8-12.6-76.4-6.3-45.1-11.1-90.4-14.1-135.9-1.5-22.8-2.5-45.6-2.8-68.5-.2-10.6.1-21.3.7-31.9v-2.4c.6-10.8.5-22.2,4.2-32.5h0ZM271.99,1068c.5-.3,1.1.3.8.8-7,11.3-16.4,21-25.5,30.7-9.5,10-18.8,20.4-28.5,30.2-7,7.1-18.3-4.4-10.9-10.9,10.4-9.2,21.3-17.9,31.9-26.9l4.6-3.9c8.7-7.3,17.7-14.6,27.6-20h0ZM602.39,1062.4c-.5-1,.7-1.8,1.5-1.1,5.6,4.6,10.6,10,16.1,14.8,5.4,4.8,10.9,9.2,16.6,13.6s11.6,8.5,17.6,12.5c5,3.3,10.1,5.9,15.4,8.6,2.4.3,4.7,1.5,6.5,3.8,2.8,3.6,3.1,10.3-.8,13.4l-.7.6h0c-4.6,3.6-10.1,4.1-14.6,0-5.1-4.5-9.8-9.5-14.7-14.3l-1.5-1.4c-5.2-5.1-10.3-10.3-15.1-15.8l-4.3-4.9c-8.1-9.4-16.5-19.3-22-29.8h0ZM576.49,532.8c-.9-.6-.4-2.3.8-1.9l2.1.7c8.8,3.1,17.9,6.5,25.9,11.2,8.6,5.1,16.6,11.1,24.2,17.6,15.7,13.4,29.1,29.9,40.5,47.1,22.8,34.5,36.9,74.1,48.3,113.6,12.1,42.2,21.5,85.3,29.1,128.5,7.8,43.9,13.7,88.2,17.7,132.7,1.9,21.9,3.2,43.8,3.9,65.7.3,11.3.3,22.6.2,33.9v17.4c.2,5.5.8,11.3-.5,16.7-2.1,8.7-16.4,7-16-1.8-.4-2.9-.4-6-.3-9-.1-.4-.1-.8-.2-1.2-.2-1.2,0-2.3.4-3.2.1-1.5.1-2.9.2-4.3.1-5.8.1-11.6-.1-17.4-.3-12.3-.8-24.5-1.3-36.8-1-24.5-2.4-49-4.3-73.5-6.9-85.1-21.5-170.6-46-252.5-11.4-38-27.1-75.3-49.6-108.2-10-14.6-21.3-28-33.8-40.5-12.5-12.4-26.3-24.9-41.2-34.8h0ZM406.89,1081.2l1.7,12.3c.8,6.1,1.7,12.3,2.5,18.4,5.4-.7,11-1.1,16.2-1.5,9.1-.8,18.4-1.2,27.5-1.6,19-.8,38-2.1,57-2h.6l.9-24.2h-13.3c-11.3,0-22.6-.1-33.9-.2-10.2-.1-20.4-.1-30.5-.3h-4.4c-7.7-.3-16.2.1-24.3-.9h0ZM514.49,1046.1c-.5.1-1.1.1-1.7.1-2.6.1-5.3,0-7.9.1-5.6,0-11.3.1-16.9.1-11.3,0-22.5.1-33.8.2-11.6.1-23.2.3-34.8.4-5.6,0-11.2-.1-16.8-.3.9,8,1.9,16,2.9,23.9,8.7-1.2,18.1-.6,26.6-.7h1.1c11.6-.2,23.3-.1,34.9,0,12,0,23.9.1,35.9.2h9.8c0,.1,0-.4,0-.4h0c.4-8,.5-15.8.7-23.6h0ZM398.29,1007.9c1.1,9.4,2.1,18.8,3.2,28.3.7-.1,1.4-.2,2.1-.3,5.6-.6,11.2-1.1,16.9-1.4,11.3-.7,22.5-1.1,33.8-1.4,11.6-.3,23.2-.5,34.8-.7,5.6-.1,11.3-.1,16.9,0,2.6,0,5.3-.1,7.9.1.3,0,.6.1.9.1l.2-14.2c0-2.4.1-4.7.1-7.1-8.7.5-17.6.3-26.3.3h-2c-10.9,0-21.9-.1-32.8-.3-11.3-.2-22.5-.6-33.8-1.3-4.6-.3-9.1-.7-13.6-1.2l-2.3-.3c-2-.2-4-.4-6-.6h0ZM515.89,967.9c-21,1.7-41.8,2.4-62.8,2.6h-3.2c-18.6.1-37.3.9-55.9.4,1.1,9.7,2.2,19.3,3.3,29,2.7-.1,5.3-.1,8-.2,5.3-.2,10.6-.2,15.9-.3,10.9,0,21.9.1,32.8,0,11.3,0,22.5-.2,33.8-.4,9.1-.2,18.4-.9,27.5-.8l.6-30.3h0ZM516.79,926.8c-2.4.8-5.3.9-8.4,1l-8.1.4c-3.8.2-7.5.4-11.3.5-12.5.5-25.1.9-37.6,1.3-12.9.4-25.8.6-38.6.2-6.3-.2-12.5-.5-18.8-1.1-1.6-.1-3.1-.2-4.7-.3,1.5,12.8,2.9,25.6,4.4,38.4,18.5-2.3,37.2-3.7,55.7-6l16.7-2.1c16.7-2.1,33.4-4.2,50.2-6l.5-26.3h0ZM517.69,885.1c-3.6.9-7.6.8-11,1.1h-.6c-6.5.5-13,.7-19.5.9-12.7.3-25.5.5-38.2.5h-7.7c-10.2.1-20.4.1-30.6-.2-6.6-.2-13.1-.5-19.6-.8-2-.1-4-.2-6-.3,1.4,12.1,2.8,24.2,4.1,36.3,2.2-.3,4.3-.6,6.4-1,5.3-.9,10.5-1.6,15.9-2.2,11.5-1.4,23.1-2.4,34.7-3.2,11.9-.9,23.8-1.6,35.6-2.4l8.4-.6c2.8-.2,5.6-.4,8.4-.6,4.8-.3,10.4,0,15.1-1,1.3-.5,2.7-.7,4.1-.4l.5-26.1h0ZM518.79,836.4c-1.2,1.6-3.1,2.4-5.3,2.7-11.4,1.5-23.2,1.7-34.7,2.4h-2c-11.9.9-23.8,1.5-35.7,2.1-12.2.6-24.5,1.2-36.7,1.6-5.2.2-10.4.2-15.6.1h-2.2c-2.1,0-4.4,0-6.6-.1,1.2,11.3,2.5,22.6,3.8,34,2.3-.2,4.6-.4,6.8-.7,6.5-.7,13.1-1.4,19.6-1.9,12.4-1,24.9-1.6,37.3-2.2,12.7-.6,25.5-1.1,38.2-1.6,6.2-.3,12.4-.6,18.5-1.2,4.3-.4,9.4-1.9,14-1.3.1-11.3.3-22.6.6-33.9h0ZM519.79,792.8c-.2.3-.4.6-.7.9-5,5-11.2,4.6-17.9,5.1h-.4c-6.5.6-13.1,1.1-19.6,1.5-13.1.9-26.2,1.6-39.3,2.2-13.4.6-26.9,1-40.3.7-8.6-.2-17.6-.1-26.4-1,1.3,12.5,2.7,24.9,4.1,37.4,2.5-.5,4.9-.8,7.3-1.2,5.9-.9,11.9-1.9,17.8-2.6,11.9-1.4,23.8-2.7,35.8-3.8,10.2-1,20.4-2,30.6-2.9l6.1-.5c12.2-1,24.5-2.7,36.7-3,2,0,4.3,1.1,5.4,2.8.2-11.8.5-23.7.8-35.6h0ZM520.59,757.4c-3.1.4-6.5.2-9.3.3-7.3.2-14.5.5-21.8.7l-43.6,1.3h0c-14.8.4-29.7.8-44.6.6-6.5,0-13.1,0-19.6-.5h-2.2c-2.7-.3-6-.3-9.2-.6l3.8,35.2h0c8.7-1.3,17.7-1.7,26.4-2.5l1.8-.2c12.8-1.2,25.6-1.9,38.4-2.8,13.1-.9,26.2-2,39.3-3.1,6.5-.5,13.1-1.1,19.6-1.7h.8c6.2-.7,12-2.1,17.5,1.5.8.5,1.4,1.2,1.9,2,.3-10,.6-20.1.8-30.2h0ZM521.59,716.4c-26.5,1.1-53.1,1.9-79.6,2.2-14.9.2-29.9,0-44.8-.3-6.5,0-13-.4-19.5-.9l-2.4-.2c-3.1-.3-6.3-.4-9.5-.8,1.3,12.1,2.7,24.2,4,36.3,3.2-.6,6.5-.9,9.3-1.2h.6c6.9-1,13.9-1.6,20.8-2.2,13.5-1.2,27.1-2,40.6-2.6,13.9-.7,27.7-1.2,41.6-1.8l13.9-.6c2.3,0,4.6-.2,6.9-.3,3.3,0,6.6-.3,9.9-.4,1.6,0,3.3-.3,4.9-.2h.5c.2,0,.4,0,.6-.2.4-.3.9-.6,1.4-.8h.3l.5-26h0ZM361.39,677.4c1.2,10.9,2.5,21.8,3.7,32.7,3.8-.4,7.6-.7,11.2-1,7.3-.7,14.6-1.2,21.9-1.6l14.6-.7c9.7-.5,19.5-.9,29.2-1.2,26.7-1,53.3-2.1,80-3.4.2-7.4.4-14.8.6-22.2-1.3,1.4-3.1,2.3-5.6,2.3-28,0-56,0-83.9-.4-14-.2-28-.6-42-1.3-6.8-.4-13.7-1.1-20.5-2-2.9-.4-6.1-.7-9.2-1.2h0ZM356.89,638.6c1.3,11.2,2.6,22.3,3.9,33.5,3.5-.6,7.1-.9,10.3-1.4,7-.9,14-1.7,21-2.1,13.6-.8,27.3-1.2,41-1.5,28-.6,56-.6,83.9-.8,2.6,0,4.6,1,5.9,2.6.2-7,.4-13.9.6-20.9-2.7-.3-5.4-.7-7.9-.9-7.6-.5-15.2-1-22.9-1.5-15.9-.9-31.8-1.7-47.8-2.4-15.9-.7-31.9-1.4-47.8-2l-7-.3c-10.9-.2-22.2-.7-33.2-2.3h0ZM351.89,596.6c1.4,11.3,2.7,22.6,4.1,33.9l.4,3.5h0c13.3-2.6,27.4-3.3,40.8-3.9,15.9-.7,31.8-1,47.8-1s31.8.4,47.8,1.1c8,.3,15.9.7,23.9,1.1h7.4c.1-1.8.1-3.6.2-5.3.2-7.2.5-14.4.7-21.6-5.4,2.8-12.4,3.9-17.8,5.1h-.6c-8.9,2.1-18,3.4-27.1,4.2-17.9,1.6-36,1-53.8-.5l-3.1-.3c-15.7-1.4-32-3.1-47.2-7-7.2-1.8-14.7-4.4-21.2-8.2-.9-.3-1.6-.7-2.3-1.2v.1ZM502.99,462.3c.2-.6,1.1-.8,1.4-.2,2.1,4,2.9,8.8,4.4,13.1,1.6,4.6,3.1,9.3,4.8,13.9,3.6,9.5,7.9,18.7,13,27.6,5.1,8.8-9.1,15-12.9,5.4-3.9-9.9-7-20.1-8.9-30.6-.9-5.1-1.8-10.3-2-15.4-.3-4.4-.9-9.4.2-13.8Z" style="fill:#000; fill-rule:evenodd; stroke-width:0px;"/></g></g><g id="Head"><g id="Head_Short_4"><path id="Skin-2" d="M617.49,128.8c-.3-12-17.7-16.9-22.8-5.1-.3.3-.7.6-1,.9,1.6-1.3-1.7.9-2.3,1.2-.5.2-.9.4-1.4.7-3.2-30.3-14.2-63-42.5-78.2-39.4-19.2-85-22.9-128.3-21-22,1.3-47.3,4.8-66.8-6.3-6.1-3.5-11-8.9-17.8-11.1-21.7-5.9-31.4,16.4-28.5,34.7-9.3.1-18.4,5.2-22.4,13.6-2.3,5-2.3,10.4-4.3,15.4-6.2,12.7-15.1,21.8-10.1,37.3-8.8,10-3.8,25.3,3.3,34.9,3.5,5,7.7,9.8,10.3,15.4,2.5,5.4-1.3,11.7-3.4,16.8-15.5,36.8-14.7,77.4-6.3,115.9-16.8,7.3-21.8,30-10.9,44.4,3.8,5.1,8.4,6.9,13.6,10.1,6.6,3.6,1.2,18.2,3.3,25.2,2.9,17.1,18.5,27.7,33.8,16.6,9.8-1.5,17.7,27,24.7,34.1,4.4,5.8,9.2,10.9,14.5,15.7,15.8,40.5,96.3,61.1,136.1,58.7,41.7-4.4,69.9-39.9,93.2-71.4,12.1-16.8,19.9-35.6,22.7-56,2.9-20.6,1.6-41.2-.3-61.8-4.1-43.8-10.5-106.9-14.6-151.2,15.2-1.2,28.5-14,28-29.5h.2Z" style="fill:#eaae86; fill-rule:evenodd; stroke-width:0px;"/><path id="hair" d="M319.59,15.8c2.9-2.9,7.7.1,10.8,2.4l.7.5,2,1.5c4.5,3.5,8.8,7.3,13.7,10.3,5.3,3.3,11.1,5.9,17,8.1,11.4,4.2,23.7,6,35.7,6.6,49.4,2.4,107-23.6,151.9,7.5,10.7,7.4,18,18.1,21.8,30.5,4.3,13.9,2.8,28.3,6.3,42.2,1.5,6.1,12,6.9,13.2.2v-.5l1-.6.4-.2c.4-.2.5-.3.2,0h0s.2-.2.3-.3l.3-.3c2.2-5.3,6.9-7.2,11.4-6.7v.3l-1.4,3.5-.4,1.1c-1.6,4-3.3,7.8-6.4,11.2-4.3,4.8-9.6,8.8-15.6,11.2-1.2.5-1,2.2.3,2.3,13.4,1.3,28.3-6.8,34.6-19.1v1.3c0,1.5,0,3-.2,4.4-.7.3-1.5.7-2.1,1.2-4.3,3.6-6.5,9.5-10.6,13.5-4.3,4.2-9.5,8.1-15.2,10.1l-.2.1c-.4-1.6-.9-3.3-1.4-4.9-.2-.6-1-.5-1.1.1,0,1.1-15.8-10.1-27.8-8.2-22.7,3.4-27.9,16.7-60.5,14.7-15.9-1-49.5-15.9-78.8-17-26.6-1-74.2,14.2-86.8,23-6.5,4.6,11.9,19.6,8.6,26.5-9.5,19.4-5.6,45.2-15.6,60.5l-.4.6c-6.4,9.3-2.4,34.2-4.9,41.9-4.5,13.8-11.9,7.8-10.8,9.6.4.6,1.3.2,1.1-.5-3.1-11.1-11.4-19.5-22-22.5.5-2.6-.4-5.9-2-8.1l-.7-3.1-.6-2.9c-1.4-6.8-2.7-13.6-3.4-20.6-1-10.5-1.1-21.1-.4-31.6.9-13.8,3.7-27.2,6.9-40.5l.3-1.4,2.5-10.4c6.2,1.8,12.5,2.9,18.6,3.4,7.2.6,14.2.6,21.3,0,6.2,16.9,6,36.2-1.7,52.7-9,19.3-31,37.8-24.9,61.2,2.6,10.2,18.1,8.1,18.5-2.2v-.3c0-10.2,3.5-18.6,8.1-27.3l.6-1.2,1-2c5.5-10.2,10.1-20.4,11.7-32,2.2-16.9-1.3-34.4-9.7-49.2,29.8-3.1,58.7-14.9,87.8-21.3l1.3-.3,1.3-.3c21.5-4.3,45.2-4.9,64.7,6.5.4.2.7-.3.3-.6-28.3-20.5-65-17.5-97.4-10.3l-1.9.4-1.8.4c-30,6.9-61.5,17.1-92.1,8.2-8-2.3-15.7-6.2-22-11.7l-.5-.5c-2.6-2.4-5.7-5.5-6.2-9.1-.2-1.3,0-2.1.6-3.2.8-1.1,2.2-1,1.4-1.4,9.2,4.4,17.1-8.3,8.5-13.8l-.6-.4c-11.1-7-5.5-23,7.2-22.9h.6c7.2,0,9.4-8.5,5.5-13.4l-.4-.5c-7.2-9.2,4.9-20.3,14.3-15.1l.5.3c4.4,2.5,9.1-.3,10.8-4.6,3.6-9.3,1.8-18.9,1.5-28.6v-2.9c.3-2.2.5-4.4,1.6-5.5h-.2ZM589.49,159.4h.3l.2,1.9-.2-1-.3-.9ZM282.89,160.7l-.2-.4.7.3-.3.5-.2-.4h0ZM478.69,107.1c-.7-.2-1.3.9-.5,1.3,18.4,8.4,32.2,21.8,43.1,38.7,1,1.6,2.6,2.1,4.4,1.8.9-.1,1.4-.6,1.8-1.1h0c0-.1.4-.6.4-.6.8-1.1.7-2.8,0-3.9-11.1-17.9-29.5-30.6-49.3-36.2h.1ZM522.39,101.5c-.8,0-1.2,1.2-.6,1.8,5.3,4.5,10.4,9.5,14.2,15.4,1.8,2.9,3.3,5.9,4.4,9.1,1.2,3.5,1.6,7.1,3.3,10.4,2.9,5.5,10.6,2.4,11-3,.6-8.2-6.2-17.4-11.6-22.9-5.5-5.7-12.2-9.5-20-10.7h-.5l-.2-.1h0ZM319.99,95.1c-2.3-.6-4.1,2.3-2.3,4,9.7,9.3,22.9,13.6,35.9,15.5h.7c12.3,1.8,30,2.7,39.3-7.2,2-2.1,1.3-6.2-1.8-6.8-4.3-.9-8.7-.6-13.1,0l-1.2.2-3.1.4c-6.1.8-12.3,1.3-18.4,1.1-12.5-.5-24.2-4.1-36.1-7.2h.1ZM533.89,65.6c-1.3-.5-2.7,1.3-1.9,2.4,3.7,5.2,8.2,9.7,12,14.8,3.8,5.1,7,10.5,11.6,15,2.4,2.4,6.6,0,5.7-3.3-3.2-12.4-15.6-24.3-27.3-28.9h-.1ZM340.19,71.2c-1.4-.5-2.3,1.4-1.4,2.4,12.6,12.5,35,19.1,51.7,11.9,3.7-1.6,1.5-6.9-1.9-7.1-8.3-.5-16.7.4-24.9-.8-8.1-1.3-15.8-3.6-23.5-6.4h0ZM361.19,54.4c-1.8-.7-2.6,1.9-1.2,2.9,7.1,5.3,15.8,7.5,24.4,5.6,2.8-.6,2.2-5.2-.7-5.1-7.9.4-15.3-.3-22.6-3.4h.1ZM419.39,27.2c10.8-.5,21.7-.6,32.5-.2l-4.8.6-3.2.4c-12.4,1.6-24.7,2.9-37.2,2.9s-16.9-.7-25-2.4c12.5.8,25.5-.6,37.7-1.3Z" style="fill:#1c1c1c; fill-rule:evenodd; stroke-width:0px;"/><path id="Fill-6" d="M291.79,103.1l-.2-.2h0c.1,0,.2.2.2.2" style="fill:#4f66af; fill-rule:evenodd; stroke-width:0px;"/><path id="Ink-2" d="M303.79,14.5c3.6-14.7,19.7-18,31.5-10.9,5.7,3.4,10.3,8.3,15.7,12.2,5.3,3.9,11.2,7,17.4,9.2,12.3,4.4,25.3,6,38.3,6,31.6.1,62.7-8.8,94.4-7.8,24.5.8,50.6,8,68.4,25.8,9.6,9.6,15.8,21.9,19.1,35,1.6,6.1,2.7,12.4,3.6,18.6l.2,1.6c.5,3.6,1.3,7.5,1.4,11.2,0,3.3-.8,6.8-1.2,10.1-1,6.9-11.7,6.1-13.2,0-3.5-13.9-2-28.3-6.3-42.2-3.8-12.3-11.1-23.1-21.8-30.5-44.9-31.1-102.4-5.1-151.8-7.5-12.1-.6-24.3-2.5-35.7-6.6-5.9-2.1-11.7-4.8-17-8.1-4.9-3-9.1-6.8-13.7-10.3l-2-1.5c-3.1-2.3-8.4-6-11.5-2.9-1.4,1.3-1.4,4.4-1.4,6.7v1c0,9.9,2.2,19.7-1.5,29.2-1.7,4.3-6.4,7.1-10.8,4.6h-.2c-9.4-5.7-21.8,5.6-14.5,14.9l.2.3c4.1,4.9,1.9,13.6-5.4,13.6h-.3c-13-.4-18.7,15.8-7.5,22.9l.3.2c9.1,5.4,1.1,18.5-8.2,14,.8.4-.6.4-1.4,1.4-.8,1-.8,1.9-.6,3.2.5,3.9,3.9,7.1,6.7,9.6,6.3,5.6,14,9.4,22,11.7,31.9,9.4,64.8-2.1,95.8-9,32.4-7.2,69.1-10.1,97.4,10.3.3.2,0,.8-.3.6-20.4-11.8-45.2-10.8-67.4-5.9-29.1,6.4-58,18.2-87.8,21.3,8.4,14.8,11.9,32.3,9.7,49.2-1.5,11.7-6.2,21.8-11.7,32l-1,2c-4.9,9.2-8.7,17.9-8.7,28.5s-15.8,12.8-18.5,2.5c-6.1-23.4,16-41.9,24.9-61.2,7.7-16.5,7.9-35.8,1.7-52.7-7,.6-14.1.6-21.3,0-6.1-.5-12.5-1.7-18.6-3.4l-2.5,10.4c-3.3,13.8-6.3,27.6-7.2,41.9-.7,10.5-.6,21.1.4,31.6.9,9.1,2.8,17.8,4.7,26.7,1.6,2.2,2.5,5.5,2,8.1,10.6,3.1,19,11.4,22,22.5.2.7-.8,1.1-1.1.5-7.2-12-25.8-16.4-37.6-8.5-11.3,7.6-15.7,22.9-9.3,35,3.4,6.4,8.3,10.8,14.7,13.9l1.3.6c3.4,1.6,6.4,3.3,8.6,6.5,2.8,4.1,2.9,8.5,2.6,13.3v1.9c-.3,3.2-.3,6.4.6,9.5l.2.7c.2.8.5,1.4,1,2.2,0,.2,1.4,1.5,1.8,1.9l.5.2h.6c.7,0,1.5-.3,1.2-.1h0c.2-.2.5-.3.7-.5l.4-.3c.8-1.2,1.9-2.2,3.2-3l1.2-.6h0c3.2-3.4,8.8-1.6,11.1,1.8,1.7,2.4,2.6,4.9,2.6,7.4.3-.4.8-.6,1.2-.2l2.2,2.8c8.4,10.8,16.7,21.6,26.2,31.4,5.3,5.4,10.9,10.5,16.9,15.2,5.1,4,14.7,7.8,14.8,15.1,0,2.4-1.6,4-3.7,4.8-6.7,2.6-14.9-6.3-19.8-10.6l-.4-.3c-5.9-5.2-11.3-10.8-16.3-16.9-9.7-11.8-17.7-25.4-21.3-40.3-.2,2.6-1.3,5.2-3.5,7.6-2.9,3.2-6.9,5.5-11.1,6.4-9.6,2.1-19-1.4-24.6-9.4-4.8-6.8-6.2-15.7-5.6-23.8v-1c.2-1.3.3-3.7.6-4.7l-3-1.7h0c-3.7-2-7.1-4.6-10.2-7.4-12.4-11.4-18.6-30-12.9-46.2,3.5-10.2,11-19,20.5-23.6-1.6-3.7-2.1-8.1-2.7-11.9v-.6c-1.1-6.3-2-12.8-2.3-19.2-.6-12,0-24.1,2-35.9,3.1-19.2,9.4-39.7,21-55.8-8.9-3.5-17-8.6-23.3-15.7-6.6-7.4-10.8-18-5.7-27.4,1.3-2.4,3-4.4,4.9-6-3.4-6.4-4.5-13.9-2.4-21,2.5-8.6,9.2-15.3,17.4-18.4-2-8.1-.4-16.9,5.7-23.7,6-6.7,15.3-9.2,23.8-7.6.7-8.8-2-18,0-26.5h.5ZM279.59,318.2c7.9-3.9,17.3-3.3,25,.4l.5.3c8.6,4.2,20,13.9,17.3,24.3-1.6,6.1-8.3,8.1-13.6,5.5-4.4-2.2-5.4-6.1-7.6-10-1.5-2.8-3.5-5-5.7-7.2-4.7-4.7-10.1-8.2-16.1-11-.8-.5-.7-1.9.1-2.3h.1ZM478.19,108.5c-.7-.3-.2-1.5.5-1.3,19.8,5.7,38.2,18.4,49.3,36,.7,1.1.8,2.9,0,3.9l-.4.5c-.5.7-1,1.2-2,1.3-1.8.3-3.3-.2-4.4-1.8-10.8-16.8-24.6-30.2-43-38.6ZM610.69,111.8c1.7-2.8,6.1-2.3,7,.9v.3c.6,1.1.4,1.3-.5.7,2.2,1.8,3.2,4.5,2.5,7.5-3.7,15.8-21.5,27-37,25.5-1.4-.1-1.5-1.8-.3-2.3,6-2.4,11.3-6.4,15.6-11.2,4.2-4.7,5.9-10.1,8.1-15.7.8-2.1,2.1-3.7,4-4.5.3-.5.5-.8.7-1.2h-.1ZM522.39,101.7h0c8,1,14.9,5,20.5,10.8,5.4,5.6,12.2,14.8,11.6,22.9-.4,5.4-8.1,8.5-11,3-1.7-3.3-2.1-6.9-3.3-10.4-1.1-3.2-2.6-6.3-4.4-9.1-3.8-5.9-8.9-10.9-14.2-15.4-.6-.6,0-1.8.7-1.8h.1ZM317.69,99.3c-1.8-1.7,0-4.6,2.3-4,11.9,3,23.7,6.7,35.9,7,6.2.2,12.3-.3,18.4-1.1l3.1-.4c4.8-.6,9.6-1.1,14.3,0,3.1.7,3.8,4.7,1.8,6.8-9.3,10-27,9-39.3,7.3-13.2-1.8-26.5-6.1-36.4-15.5l-.1-.1ZM532.09,68.2c-.8-1.1.6-2.9,1.9-2.4,11.8,4.6,24.1,16.5,27.4,28.9.9,3.3-3.3,5.8-5.7,3.3-4.5-4.5-7.7-9.9-11.6-15s-8.4-9.7-12.1-14.8h.1ZM338.79,73.7c-.9-.9,0-2.8,1.4-2.4,7.7,2.7,15.4,5.1,23.5,6.3,8.3,1.3,16.6.3,24.9.8,3.4.2,5.7,5.4,1.9,7.1-16.6,7.3-39.1.7-51.7-11.8h0ZM359.99,57.5c-1.3-1-.6-3.7,1.2-2.9,7.3,3.1,14.7,3.8,22.6,3.5,2.9,0,3.5,4.4.7,5.1-8.7,1.8-17.4-.5-24.4-5.7h-.1Z" style="fill:#000; fill-rule:evenodd; stroke-width:0px;"/></g></g><g id="Face"><g id="Face_Explaining"><path id="teeth" d="M440.89,395.7c5.3-10.7,32.5-13.6,81.4-8.8l6.2,50.9c-23.6,7.6-42.4,10.6-56.5,9-21.1-2.4-39.1-35.1-31.1-51.1Z" style="fill:#fff; fill-rule:evenodd; stroke-width:0px;"/><path id="tongue" d="M445.99,422.4c-2.5-5.4,49.9-20.2,66.2-10.1,10.8,6.7,14.6,14.7,11.2,23.9-45.6,10.4-71.4,5.8-77.4-13.8h0Z" style="fill:#ff8181; fill-rule:evenodd; stroke-width:0px;"/><path id="Ink-3" d="M436.29,386.3c12.2-14.2,32.9-15.2,50-11.7,11,2.3,21.6,6.1,32.8,7.5,5.2.7,10.5.9,15.7.8,5.1-.1,10.3-1.1,15.4-.9.8,0,1.1,1.1.4,1.5-7,4.3-16.5,5.7-24.8,6.6,0,.6.1,1.2.1,1.7.2,1.4.4,2.7.6,4.1.4,3.1.8,6.2,1.2,9.2.8,6.1,1.1,12.3,2.6,18.2l.3,1c.3,1.3.4,2.4.3,3.4l.3-.2,1.1-.5.7-.3c2.6-1.2,5-2,8-1.8,2.3.2,4.2,1.8,4.2,4.2.1,11-14.7,14.5-23.2,16.6l-2.5.6c-10.7,2.6-21.7,4.9-32.8,5.5-17.7.9-37.7-4-49.3-18.4-10.8-13.5-12.8-33.6-1.1-47.1h0ZM516.89,432.3c-1.9-16.5-22.1-17.4-28-6.9-2.6-14.6-40.9-1.3-37.9,1.6,11.3,11,28.6,12,43.4,9.9,7.5-1,15.1-2.7,22.5-4.6ZM494.39,389.1l-5.1-.7-2-.3c-12.6-1.7-26.8-2.6-37.2,5.5-3.8,3-5.9,6.8-6.7,11,9.8-1.5,19.7-2.6,29.6-3.5l2.7-.2c6.2-.6,12.4-1.1,18.6-1.8l4.4-.4,4.4-.5c1.5-.2,12-.7,13.9-.3.2-1.8.5-5.6.9-7.3-7.4.3-14.8-.3-22.1-1.3l-1.4-.2h0ZM517.79,315.3c7.6,4.6,19.1,15.3,10.9,26.7-9.6,10-23.3-1.5-30.1-6.7-6.3-4-13.4,6.3-7.5,11,49,36.3,68.9-29.8,30.5-36.4-4.2-.7-5.7,4-3.8,5.4ZM531.39,334.7l.4-.2h.1c.2-.2.1-.2-.4-.1h-.4v.4h.3v-.1ZM434.59,293.9v-.2c0-6.4,3.7-20.9,12.9-20.9s9.2,9.9,9.8,20.1v.4c.3,6.4-1.5,20.2-9.8,20.2s-12.8-13.1-12.9-19.6h0ZM569.79,291.9v-.2c0-6.4-3.7-20.9-12.9-20.9s-9,9.4-9.8,19.4v.8c-.5,6.1,1.2,20.6,9.7,20.6,8.5-.1,12.9-13.2,13-19.7h0ZM439.89,229.3c7.5-1.1,17.4,1,20.9,8.6,1.6,3.4-.3,7.1-4.2,7.3-9.5.5-18-1.7-26.3,4.5-3.6,2.7-6.6,6.3-9.1,10l-1,1.4-.8,1.1c-1.7,2.5-3.3,5.3-3.1,8.3.1.9-.8,1.8-1.7,1.7-5.5-.2-6-7.1-5.3-11.2,1.3-7.6,5-14.8,10.1-20.5,5.4-6,12.5-10,20.5-11.2ZM543.09,238.5c5.2-3.3,11.8-4.6,17.8-4.1,11.9,1,32,11.1,29.3,25.7-.8,4.5-7.1,6.9-10.7,4.4-4-2.7-4.9-6.8-7.9-10.4-2.4-2.8-5.3-4.8-8.5-6.5-3.1-1.7-6.8-2.7-10.4-3.1h-.6c-2.1-.3-13-.2-11.4,3.8.3.8-.9,1.4-1.4.8-3.3-3.7.4-8.4,3.8-10.6h0Z" style="fill:#000; fill-rule:evenodd; stroke-width:0px;"/></g></g></g><path d="M589.19,158.2c.07-.07.13-.1.2-.1,5.7-2,10.9-5.9,15.2-10.1,4.1-4,6.2-9.9,10.5-13.5,4.9-4.1,12.6-.3,11,6.4-1.8,7.3-9.6,12.3-16.1,15.3-6.7,3.1-13.1,3.7-20.4,3.4h-.1" style="fill:#000; fill-rule:evenodd; stroke-width:0px;"/><path d="M477.79,503.7c-10,0-19.8-1.8-28.4-5.1l-.8-.3c-16.1-6.4-25.7-14.5-27.8-23.4-.4-1.7.2-2.9.7-3.6.8-1,2-1.6,3.2-1.6s1.4.2,2.1.5c3.1,1.6,5.4,3.5,8,5.9l.5.5c2.8,2.6,4,3.5,7,5.4,6,3.8,10.8,5.8,18.3,7.7,5.7,1.4,11.7,2.2,17.8,2.2s15.1-1.1,22.4-3.3c27.7-8.1,48.9-29.4,65.9-49.1,7.9-9.2,18-21.5,25.7-35.7,7.6-14,11.2-28.7,11-45-.2-12.6-1.5-25.2-2.7-37.5-.5-4.5-1-9.2-1.4-13.7-1.7-18.4-3.1-35.3-4.3-51.4-.9-12.4-1.2-25.2-1.5-37.6,0-1.9-4.4-58.5-4.4-60.3,0,.1.4.9.4,1.3,1.1,6.6,5.6,55.6,5.7,56.7.2,3.6.5,6.9,1,10.5.9,6.4,2.4,13,3.3,19.4.9,6.5,1.8,12.9,2.7,19.4.5,3.7,1,7.4,1.5,11.1,1.9,13.7,3.5,27.7,5.1,41.3.4,3.2.7,6.4,1.1,9.6l.9,8.1c2,16.8,3.4,33.2-.1,49.1-2.9,13.3-9.4,27-19.8,41.9-9.3,13.4-19.2,25.5-29.6,36-23.8,24.3-49,38-74.9,40.7-2.7,0-5.7.3-8.6.3h0ZM612.19,148.3c.8-1.1,1.6-2.3,2.3-3.4,1.5-2.3,2.9-4.5,4.5-5.8.2-.2.5-.3.8-.3s.6.1.6.2c0,0,0,.1-.1.5-.7,2.9-3.6,6-8.1,8.8h0Z" style="fill:#000; fill-rule:evenodd; stroke-width:0px;"/><g id="Accessories"><g id="Accessories_Glasses_5"><path id="Ink-4" d="M602.09,300.4c-2.8,7.7-7.1,15.7-12.4,22.2-21.3,18-42,8-52.5-16.4-4-17.3,6.6-35.9,17.8-48.6,16.2-16.3,42.7-7.7,50.1,11.6.5,2.5.7,5,.9,7.5-.2,8.1-1.1,15-4,22.7M397.39,284.9c28.1-33.4,80.5-35.2,79.2,16.2-6,65-107.5,49-79.2-16.2ZM610.89,257.1c-1-1.7-2.1-3.3-3.3-4.8-.4-.3-.7-2.6-2.3-2.8-21.6-23.9-59.6-10.3-73.3,13.5-2.5,3-4.6,6.5-6.1,10.2-13.5-2.5-29.3-2-41.9,3.1-12.5-32.6-50.2-35.5-75.1-21.6-15.5,7.6-25.5,23.6-40.6,32.3-35.4,2.5-73.4-5.4-108.1,3.5-27.4,5.7-4.5,19.6.1,10.3,32.8-9.7,71.6-1.5,105.6-3.7,3.5,6,10.3,10.9,17.1,10.7,7.3,64.7,101.7,54,104.9-3.5,3.7-5.8,8.3-11.4,14.9-15.1,2.5-.5,4.9-1.2,7.2-2.2,3.8-.5,9.6,1.1,13.1,4.2,12,71.8,80.9,63.5,93.2.5.2-.3.9-1.2,1.5-2.7,4.2-5.6,14.5-7.6,12.9-17.1-1.4-9.3-13.3-9.2-19.8-14.8h0Z" style="fill:#000; fill-rule:evenodd; stroke-width:0px;"/></g></g><circle cx="292.99" cy="379.3" r="11.3" style="fill:#b2182b; stroke-width:0px;"/></g></svg>