<?xml version="1.0" encoding="UTF-8"?><svg id="Layer_2" xmlns="http://www.w3.org/2000/svg" viewBox="0 0 660.22 923.44"><g id="Layer_1-2"><path d="M647.09,907.99c-82.1-3.1-164.2-.1-246.1,5.2-6.6-12.8-3.7-26.5-3.1-39.7,1.7-34.6,4.4-69.1,4.4-103.8s2.3-27.7,27.3-27.8c11.8-.1,23.6.3,38.2-1.1-16.4-3.2-29.8,1.5-43.4,1.1-19.4-.6-21.9-2.5-22-22-.2-37.6-.3-75.3,0-112.9.3-34.3-1.9-68.4-4.7-102.5-.5-6,.6-11.8,1-17.7,0-7.5.3-14.9-.5-22.4-.3,3.3.9,6.5.5,9.7-2.7,54.7-3,109.5-4.3,164.2-.6,27.8-1.4,55.6-1.8,83.4-.3,20.6-1.7,22.1-22.4,22.4-11.7.3-23.5-1-35.2.8-1.3.5-2.7.8-4.1,1-4.6.6-9.4.4-13.8,2-4.4,1-9,1-13.5,1-1.8.1-3.5,0-5.3,0-6.4-.7-8.5,2.8-8.2,8.7-3.8,32.7-20.8,58.4-44.1,79.9-10.4,9.6-17.5,20.1-20.1,33.9-3.3,17.1-11.4,33.5-7.5,51.7-64.1,1.5-127.9-1.7-191.5-10.5-2-.3-4.1.3-6.1.5-5.7-5-5.9-12-6.2-18.7-1.3-28.5.4-56.6,7.6-84.4,8-31.1,15.8-62.4,19.1-94.5,2.2-21.9,3.4-43.8,5-65.7,3.5-47.1,22.4-88.2,48-126.8,32.6-49.1,71.2-92.4,122.1-123.4,4.7-2.8,9.2-6,14.4-8,3.3-1.8,6.7-3.5,9.8-5.7,5.7-3.4,9.4.1,13.3,3.5,14.2,12.6,28.2,25.4,41.5,38.8,13.4,13.5,28.4,25.2,46.2,32.6,3.5,1.5,7,3,10.8,3.5,2.1.3,4.6.4,5.7-1.7,1.5-3-1-4.7-3.3-5.8-7.9-3.9-16.2-6.9-23.8-11.6-18.4-11.4-33.8-26.4-50-40.5-6.7-5.8-13.7-11.3-21.5-15.5-6-3.2-12.4-8-19.9-2.9-3.1,2.2-6.4,3.8-9.7,5.5-26.3,14.5-51.1,31.1-73.7,51.1-4,3.6-7.9,8.5-14.2,6-6.4-2.6-7.7-8.5-8-14.6-.6-14.4-.7-28.8,7.3-41.7,8.5-13.6,19.8-23,36.6-23.7,4.7-.2,9.2-1.4,13.7-2.4,13.6-3.6,27.6-3.3,41.5-2.9,23.4.7,46.8-4.1,70.1,1.2,4.5-.2,7.8,1.8,10.3,5.5,17.1,27.1,39.7,49,65.5,67.7,13.4,9.7,19.9,9.4,32.9-.2,19-14,32.7-32.7,46.3-51.4,3.9-5.3,3.7-10.7,1-16.6-2.1-4.7-3.7-10.1,4.1-11.7,10.5,2.6,20.2,7.5,31,9.6,8.7,1.8,11.6,10.6,13,18.5,1.5,8.4,5.9,13.5,13.4,16.6l-.3-.3c3.5,3.1,7.4,5.5,11.1,8.4,30.2,26.9,48.9,61.2,62.4,98.7,13.1,36.5,19.6,74.4,21.6,113,4.1,77.7,10.7,155.1,26.2,231.5,3.6,17.6,4.9,35.7,5.4,53.9h0Z" style="fill:#9ed7e4; stroke-width:0px;"/><path d="M304.19,366.39c-2.6,2.3-5.6,3.6-9.2,3-34.5-6.5-68.9-1.6-103.4.4-2.2-6.4-7.5-8.5-13.5-10.5-14.1-4.7-14.3-6.6-2.9-16.5-.5-2,.3-2.8,2.3-2.3,6.1-4.6,6.6-11.1,6.9-18,1.1-23.3-3.1-46.3-2.8-69.7.7-55.1,11.1-107.7,38.5-156,14.2-25.1,29.5-49.5,54.9-65.3,16.2-13,35.4-19.3,55-24.9,5.1,2.3,9.5-1.1,14.2-1.7,4.4-2.4,9.2.3,13.6-1.2,5.2-3.9,11.6-1.4,17.1-3.1,10.6,4.3,22,.3,32.7,3.1,28.3,2.8,54,11.9,74.6,32.2,18.4,18.2,28.3,40.3,28.7,66.4,0,5.5.2,10.9,1.3,16.3-2.7,3.5-5.6,7-5,11.9-1.1.9-2.4,1.4-3.9,1.5-37.7,9.5-74.7,1.5-111.8-4.6-13.2-2.2-27-2.7-39.3-9.2-6.6-7,.7-10.7,4.2-14.4,9.6-10.1,19.1-20.1,26.4-35.8-8.2,4.2-11.2,9.5-14.5,14.3-11.3,16.5-24.8,31-39.5,44.4-3.3,3-9,10.3-10.3-1.9v-6.4c-.4-3.4-2-2.1-1.4-1.6,3,2.3.5,5.9,1.3,8.9,0,2.5.4,5,.6,7.4-.9,5.8-1.7,11.6-3.6,17.3-.6,2.9-1.8,5.6-2.8,8.4-7.3,21.8-7.4,20.7-29.6,23-19.2,2-38.8,2.7-55,7,6-4.4,16.2-1.9,25.5-3.3,11.6-1.7,23.2-4.3,35-3.9,10,.4,11.9,4,7,12.8-2.7,4.8-6,9.2-10.5,12.5-7.7,2-12-6.9-19.3-6.1-2.3-.2-4.6-.6-6.9-.8-12.9-1.2-23.3,3-29.9,14.5-7.3,12.8-6.9,26,0,38.6,8.6,15.6,23,15.9,34.9,1.3,9-.8,10.4,6.6,13.5,12.3,17.7,26.3,24.9,56,27.6,87.1.5,4.4,1.5,8.6-.8,12.6h.1Z" style="fill:#d5b270; stroke-width:0px;"/><path d="M297.09,745.59c1.7,0,3.5,0,5.2.1,10.9,3.3,21.7-.9,32.6-.6,18,.4,36.2-3.3,54,2.4,5.5,10.4,5.8,22,5.8,33.1,0,39.9,3,79.7,3.8,119.6,0,6,2.2,12.7-2.9,18-3.8-6.6-10.1-4.8-15.8-4.4-21,1.4-41.9,3.3-62.8,4.6-31,1.9-62.1,3.3-93.2,5,5.3-18.1,9-36.6,13.5-55,2.2-9.1,6.8-17.2,13.6-23.9,25.8-25.6,39.9-56.1,39-92.9.6-4.2,4.6-4.2,7.2-6h0Z" style="fill:#9ed7e4; stroke-width:0px;"/><path d="M175.29,342.69c0,4.7-4.7,6.8-6.4,11.4,8.9-.3,15.7,8.2,24.1,3.6,3.9,5.8-5.8,7.3-1.4,12-7.5,1.2-15.2,1.6-22.4,3.6-23.6,6.7-41.6,45.8-31.6,68.5,3.5,7.9,8,6.2,13.5,1,23.8-21.8,50-40.1,79.6-53.2,2.7-1.2,3.1.2,2.7,2.5-64,38.1-112.3,91.3-150,155.1-19.5,33.1-32.2,68.3-33.7,106.5-2.4,58.7-13.3,115.7-27,172.5-6.9,28.7-7.5,57.8-1.9,86.9-1.8,4.5-5,7-9.8,6-6.2-1.2-7-6.9-8-11.7-5.9-27.5-2.2-54.7,3.7-81.7,9.3-42.5,22.4-84.1,25.5-127.8,2-28.3,3.2-56.6,9.7-84.3,12.9-54.7,45.1-98.5,79.8-140.9,6.7-8.1,13.3-12.5,6.5-27.6-10.4-23.1-2.7-48,14.4-68.4,3.3-3.9,15-6.1,5-15-.4-.3.8-3.6,1.9-4.1,9.1-4.1,15.3-13.2,25.8-14.9h0Z" style="fill:#000101; stroke-width:0px;"/><path d="M505.09,130.39c.7.4,1.5.5,2.3.3,1.6,3.9,3.8,7.6,4.6,11.6,1.9,9.6,4.5,17.7,16.8,17.5,2.5,0,5.8,2.4,7.3,4.6,4.7,7.3,10.2,11.3,19.3,9.3,2.1-.5,5.7-.4,5.8,3.1,0,3.1-3.4,4.3-5.5,4.1-11.6-1.4-11.7,5.5-12.1,14.2-.7,16.9-6.4,32.4-19.3,44-4.6,4.2-5.2,8.1-3.6,13.4,8.5,27.9,16.2,56,36.8,78.3,3.2,3.4,9.1,7.6,3.5,13.9-7.6,3.5-12.2-1.6-16.1-6.5-16.2-20.1-24.3-43.7-29-67.2-8,31-21.4,61-47.7,83.6-1.6,2-3.4,3.5-6,4.1-4.2,2.5-3,6.4-.9,8.7,7.9,8.4,3.2,15.1-1.8,22.4-13.3,19.2-28.6,36.7-46.7,51.5-9,7.3-19.1,10.8-29.1,3.7-28.1-19.8-53.6-42.4-71.5-72.4-1.3-2.5.2-3.5,2.2-4.3,6.8,0,10.4,5.2,14.4,9.3,16.7,16.9,33.4,33.6,52.8,47.4,12.5,8.9,17.4,8.6,28.7-2,11.2-10.4,20.5-22.5,29.7-34.7,1.8-2.4,3.4-4.9,4-7.9,2-9.5-1.6-14.4-11.1-12.5-12.8,2.4-25.2,1.1-37.8-.8-14.1-2.2-26.8-7.8-38-16.4-3.3-2.5-7.2-6.2-4.6-10.7,2.9-5,7.8-2.2,11.3-.3,18.1,9.8,37.5,11.7,57.7,11.4,18.5-.3,33.4-6.9,46.1-20.3,19.1-20.2,26.9-45.6,34.3-71.3,1.7-6-.8-8.6-6.8-9-6.4-.5-12.7-1.5-16-8.3,0-2.2,1.5-3.4,3.4-4.1,1.7,0-.4-.3,1.2-.2,23.3,1.1,24.6,0,25.5-23.8.5-11.4,0-22.9,0-34.3,0-6.7-1.6-9.7-9.5-9.1-19.5,1.5-25.2,5.8-30.1,25.4-.8,3.3-1.9,6.5-4.6,8.8-1.7.9-3.5,1-5.4.3-3.7-3.1-3.7-7.5-2.9-11.5,1.2-6.4-2.4-9.1-7.2-11.3-.8-.9-1.1-2-.9-3.3,5.6-5.1,14.8-2.7,19.9-10.2-2.7.3-5.2.3-7.7-.3-2.5-.9-4.8-1.9-4.3-5.2,2.3-2.5,5.3-2.5,8.3-2.3h1.9c-.5,0-1.2-.2-2-.3-5.1-1.8-8.3-5.2-6.4-10.6,1.9-5.3,6.8-5.7,11.7-5.2,8.1.9,15.4,4.2,22.7,7.7,3,1.5,6.5,3,9.6.9,3.7-2.5,1-6.1,1-9.3,0-4.5-5.8-10,1.7-13.8l.1-.1Z" style="fill:#010101; stroke-width:0px;"/><path d="M647.09,907.99c-8-10.8-4.2-23.7-6.2-35.6-6.8-39.9-13.6-79.9-19.2-120.1-6.4-45.7-6-91.9-10.2-137.8-5.7-63.1-20-123.4-58.8-175.3-7.6-10.1-16.5-19.1-24.9-28.6-.5-2.7,0-4.2,3.2-3.1,20.7,11.1,35.3,28.6,48.2,47.5,27.8,41,39.1,87.5,45.3,135.7,7.3,57.1,6.7,114.9,15.1,171.9,5.2,35.1,15.2,69.4,19,104.8,1,9.7,1.1,19.4,1.6,29.1.5,9.4-3.7,13.5-13.1,11.5h0Z" style="fill:#000; stroke-width:0px;"/><path d="M395.49,918.09c-2.4-56.6-4.7-113.3-7.1-169.9-12.7-2.9-25.5-.4-38.3-1.4-3.6-.3-8.6,2.6-10.4-3.4,9.6-3.8,19.9.6,29.5-2.5,19.6.5,19.3.5,19.6-17.9,1.4-83.7-.5-167.6,7.6-251.1,7.7,2,.9,9.1,4.3,12.6,6.9,80.1,5.9,160.5,5.8,240.7,0,11.3,2.4,14.6,13.9,13.1,15.4-2.1,31.1-2.2,46.7-2.9,3.9-.2,9.8-1.7,9.9,4.5,0,5.9-6,5-9.8,5.2-17.3.7-34.6,1.1-51.9,1.3-5.4.1-8.5.9-8.7,7.5-1.7,53.2-3.7,106.3-5.7,159.5-.2,2-.3,4.1-.8,6.1-.4,1.4-1.7,3.8-2.3,3.7-2.6-.6-1.6-3.3-2.3-5.1h0Z" style="fill:#000101; stroke-width:0px;"/><path d="M275.09,31.49c-23,23.6-43.8,48.8-58.5,78.8-27.3,55.8-33.9,115.1-30.1,176.2,1,15.2,1.7,30.3,1.6,45.5,0,8-3.2,10.5-10.6,8.4-2-12.8-4.9-25.6-6-38.5-5.6-63.9-1-126.5,26.5-185.7,14.7-31.5,35.2-58.4,63.6-79,4-2.7,7.8-6.6,13.5-5.7h0Z" style="fill:#010101; stroke-width:0px;"/><path d="M464.79,353.79c28.2-23.3,40.5-55.7,51.3-92.4,4.7,17.6,7.5,32.2,13.6,45.9,5.3,12,11.4,23.3,20.5,32.9,3.2,3.4,6.1,5.3,10.6,4.5-.7,3.2-3.2,6.1-5.6,6-16.5-.2-28.7,12.8-44.6,14-11.6,1.5-23.2,1.6-34.4-2.5-4.4-1.6-9.8-2.6-11.4-8.4Z" style="fill:#d4b26f; stroke-width:0px;"/><path d="M291.49,751.29c4.1,31.8-6,60-27.3,82.4-18.9,19.8-27.5,42.4-30.8,68.4-1,7.9-2.5,15.9-9.7,21.2-1.8,0-3.6-.1-5.4-.1-5.4-4.6-6.4-10.3-4.6-17,3.5-13.8,6.8-27.7,10-41.6,2.7-11.6,9.5-20.1,18.2-27.9,24-21.7,42-46.9,45.3-80.3,1.9-1.4-.8-6.7,4.3-5.1h0Z" style="fill:#010101; stroke-width:0px;"/><path d="M512.39,118.69c-5.5-.3-5.1-3.9-5.2-8-1.2-55.6-27.8-88.4-82.2-101.3-5.3-1.3-10.7-2.3-16.1-3.4,2.5-6.5,7.4-2.5,11.3-2.6,48.8,3.1,88.1,33.7,98.9,77.1,3.3,13.6,3.3,26.9-6.7,38.2h0Z" style="fill:#030303; stroke-width:0px;"/><path d="M464.79,353.79c9.8,5.8,20.5,8.2,31.9,8.1,4.7-.1,10.1-1.8,13.9,3,.9,13.3,9.6,24.5,10,37.9-10.5,2.1-14.9-2-16.1-12.9-1.2-11-4.9-20.9-19.6-21.1-8.4-.1-15.6-5.7-22.8-9.9.9-1.7,1.8-3.4,2.7-5.1h0Z" style="fill:#040505; stroke-width:0px;"/><path d="M420.19,3.39c-3.7,1.1-8.1-.8-11.3,2.6-11-3.5-23.3,1.6-33.8-5.4,15.1-1,30.2-1.1,45.1,2.8Z" style="fill:#120f09; stroke-width:0px;"/><path d="M357.89,3.69c-4.4,4.7-10.1,1.8-15.1,2.8-2.6,1-3-.2-2.5-2.5,5.8-1,11.6-5.3,17.6-.3Z" style="fill:#a78e5e; stroke-width:0px;"/><path d="M340.29,3.99c.8.8,1.7,1.6,2.5,2.5-4.2,2.5-8.4,5.5-12.7.2,3.4-.9,6.8-1.8,10.2-2.7Z" style="fill:#b89d69; stroke-width:0px;"/><path d="M530.99,407.49c-1.1,1-2.1,2.1-3.2,3.1-3.4-1.9-6.9-3.7-7.4-8.2,4.6-.5,7.7,2.1,10.6,5.1h0Z" style="fill:#181a1a; stroke-width:0px;"/><path d="M570.79,593.89c-1,64.6,6.9,128.2,22.3,190.9,7.4,30.4,13.9,61,16,92.3.5,7.8,4,19.9-7.9,20.6-11.9.7-9.3-11.5-10-19.5-3.5-42.2-12.5-83.6-21.3-124.9-9.9-46.3-12.2-92.9-8.3-140.1,2-23.6,2.8-47.3,4.4-70.9.2-3.4-2-7.8,2.7-10.1,2.8,15.5.5,31,1.3,46.5,0,5.2-1,10.3.8,15.2Z" style="fill:#010101; stroke-width:0px;"/><path d="M158.09,638.29c12,18.7,16.3,39.3,17.4,60.7,2.3,46.6-3.7,92.9-5.8,139.4-1,21.1-2.8,42.2-4.2,63.3,0,2.1,0,4.3-.3,6.3-1,6.3-3.6,12.5-10.7,11.7-6.3-.7-7.9-6.8-7.5-12.8,1-17.7,1.9-35.5,3-53.2,2.8-44.7,5.6-89.5,8.6-134.2,1.7-24.6-.5-49-2.4-73.4-.3-2.3-2.2-4.9,1.9-7.8Z" style="fill:#000101; stroke-width:0px;"/><path d="M490.79,753.79c14,19,30.7,34.7,48,49.8,5.8,5.1,9,12.2,10.8,19.7,5,21.4,7.7,43.1,9.4,65,.4,5.4.8,12-6.9,12.7-7.2.6-8.8-5.3-9.5-11-2.2-18.4-4.2-36.8-6.2-55.3-1.2-11-6.3-19.8-14.5-27.2-13.9-12.6-24.7-27.6-31.7-45.1-.8-2-3.4-4.3.6-8.6h0Z" style="fill:#010101; stroke-width:0px;"/><path d="M238.69,384.89c6.3-6.4,12.8-3.8,19.4-.3,17,9.1,30.5,22.6,44.7,35.1,16,14,32.3,27.2,53,33.7,4.8,1.5,10.5,4.4,8.3,10.5-2.4,6.4-8.4,5.6-14.1,3.8-23.2-7.4-41.5-22.2-58.8-38.5-12.6-11.9-24.8-24.2-37.3-36.2-3.5-3.4-6.8-7.9-12.9-5.6-2.5.8-3.1-.3-2.3-2.5h0Z" style="fill:#010202; stroke-width:0px;"/><path d="M315.19,369.49c-1.1,1.1-2.1,2.2-3.2,3.2-3-1.6-3.3-6.6-7.8-6.3-4.1-9.9-3.8-20.5-4.8-30.9-2.4-25-13-46.7-25.3-67.9,6.5-4.1,10.1.6,13.6,4.8,11.6,13.7,19.6,29.3,24,46.7,1.9,7.4,5.1,13.2,12.6,16,8.9,3.4,8.4,9.4,4,16.1-4.1,6.2-7.9,12.7-13.1,18.3h0Z" style="fill:#020201; stroke-width:0px;"/><path d="M570.79,593.89c-3.1-20.4-1-41.1-2.2-61.6.8-9.7-4-19.3-1.3-29.1,1.2,0,2.3-.1,3.5-.1v90.8h0Z" style="fill:#83b3be; stroke-width:0px;"/><path d="M340.49,743.39c11.1,4.9,22.8.8,34.1,2.2,4.6.6,10-2.4,13.8,2.5-24.4,0-48.8.2-73.2,0-4.3,0-9.3,2-12.9-2.5,4.8-.1,9.6-.2,14.3-.3,4.2-2.1,9,.1,13.2-1.8,1-.4,1.9-.7,2.9-1.1,2.6.6,5.3-.7,7.8,1h0Z" style="fill:#506e75; stroke-width:0px;"/><path d="M340.49,743.39c-2.7.6-5.4,1.4-7.7-.9,12-4.2,24.3-1.2,36.5-1.7-9.4,3.5-19.3,1.1-28.8,2.6h0Z" style="fill:#9ed7e4; stroke-width:0px;"/><path d="M400.69,484.29c-3.5-3.5-.4-9.2-4.3-12.6v-10.6c5.9,8.6,5,15.9,4.3,23.2h0Z" style="fill:#668c95; stroke-width:0px;"/><path d="M291.49,751.29c-1.4,1.6-2.9,3.3-4.3,4.9-1.9-8.4,2.5-10.9,9.9-10.6-1.9,1.9-3.7,3.8-5.6,5.7h0Z" style="fill:#7098a2; stroke-width:0px;"/><path d="M238.69,384.89c.8.8,1.5,1.6,2.3,2.4-1.6,3.1-4.5,4.1-7.6,4.9-.9-.8-1.8-1.6-2.7-2.5,2.7-1.6,5.3-3.2,8-4.8h0Z" style="fill:#243134; stroke-width:0px;"/><path d="M329.89,743.59c-4,3.5-8.8,1.6-13.2,1.8,4.1-2.7,8.6-2,13.2-1.8Z" style="fill:#527178; stroke-width:0px;"/><path d="M315.19,369.49c-1.6-9.5,7.4-13.4,10.9-20.2,3-5.8,5.4-10-3.2-11.8-9.3-1.9-11.7-7.9-13.7-16.6-4.1-17.8-12.1-34.2-24.9-47.7-2.7-2.9-4.9-7.3-10.3-5.6-1.8-5.4-3.7-10.7-10.1-12.3-16.5,9.1-31,3-35.4-14.9-4.4-17.6,6.2-35.6,23.9-40.9,4.7-.6,9.3.8,14,0,7.1-2,11.7,1.4,15.2,7.1,1.8,8.7-6.7,12.3-9.5,18.7-8.5,3.1-15.8-4.6-24.4-2.2,8.8-2.7,8.1,9,16.6,9.5,8.4.4,8.9-2.7,9.3-8.5,9.9-9.7,17.9-21,24.3-33.2,3.8-7.2,9.2-10.6,17.3-9.2,19.9,3.8,19.7,3.8,20.5,24.7,1.5,37.5,23.4,51.8,55.2,45.9,8.8-1.6,15.1-7.3,20-14.4,8.6-12.7,15.5-26,18-41.5.7-4.4,0-9.4,3.2-13.3,1-.9,2.2-1.6,3.4-2.1,4.5-1.7,9.1-3.1,13.6.2,9.6-.3,14.8,2.5,10.3,13.4-1.1,2.7.2,6.4.4,9.7,4.9,3.7,5.6,8.6,4.4,14.2-3,3.8-8.6,6.2-3.4,13.2,3.3,4.5,1.1,10.7-3.3,14.8-4.3,4-9.1,3.6-14.1,1.5-3.3-1.4-6.4-3.7-11.1-4.3,16.5,13.4,24.8,10.9,34.2-9.3,7.6-2.6,10.5,2.5,13.1,8.1,4.7,4.1,10.4,6.2,16.3,5.5,10.3-1.2,12.1,1.9,9.1,11.7-4.8,15.8-9.8,31.3-16.7,46.3-26.7,58-80.8,56.7-123.2,38.4-3.6-1.6-6.3-5.8-12.3-4.3,2.1,7.4,8.3,10.4,13.6,13.5,21,12.2,43.8,13.9,67.4,11.2,3.8-.4,9.7-5.3,11.1-.3,1.7,5.9,5.9,13.2,1.9,19.2-12.4,18.8-27.2,35.5-44.8,49.6-6.7,5.4-12.6,1.4-18.3-2.6-23.3-16.3-43.5-36.1-63.2-56.5-1.4-1.5-3.5-3-5.3-4.6v-.1Z" style="fill:#ecb889; stroke-width:0px;"/><path d="M466.89,163.39c-3.2.3-6.4.5-9.7.8-3.8,3.6-9.2,2.8-13.6,4.7-6.2,1.3-12.4.8-18.6,1h-7.9c-7.3-1.3-14.9-1-17.5-11-1.7-6.5-9-5.1-13-3-16.3,8.5-35.6,10.5-50.3,22.5-6.5,5.3-14.3,3.9-21.8,4.2-6.9-.6-9.5-4-6.9-10.8,2.5-6.5,4.6-13.1,6.2-19.9,2.9-5,1.4-11.3,4.6-16.2,10.6-6.8,18.5-18,32.2-19.9,35.8,9,72.4,13.7,109,17.6,12.7,1.4,25.1-1.4,37.5-3.7,3-.5,5.6-2,8.1.8-2.2,5.7,1,10.6,1.9,15.9.6,3.4,4.2,7.8.7,10.4-4,3-9.7,3.3-14.2.7-7.3-4.3-14.9-7.4-23.1-9.1-4-.8-8.9-2.5-10.6,3-1.8,5.8,3.1,6.8,7.2,7.8,1.5,1.4,1.5,2.9-.2,4.3v-.1Z" style="fill:#ecb889; stroke-width:0px;"/><path d="M253.49,201.39c-16,7-23.3,18.2-22.2,33.9,1.1,16.3,10.4,23.1,26.5,19.7,2-.4,4.1.2,6.2.3-1.3,12.7-11.5,17.9-24.3,12.3-13.8-6-22-24.6-18.4-41.8,3.7-17.9,17.5-30.1,33.8-29.7,2.1,0,4.1.6,6.2.9.5,6.9-6,1.6-7.8,4.4h0Z" style="fill:#040302; stroke-width:0px;"/><path d="M315.29,151.99c.2,7.4-2.9,13.9-5.4,20.5-2,5.2-1.5,8,4.6,8.2.6.6.9,1.2.8,1.8,0,.7-.3,1-.5,1-6.9-1.5-10.2,1.9-13.4,7.8-6.9,12.7-13.1,26.2-26.9,33.5-1.4.9-2.6.7-3.7-.5,1.9-7,7.5-11.7,10.9-17.8,6.3-5.7,10.7-12.8,15-21.2-12.7-2.8-24.4,1.5-36.2,2-8.4.3-16.8,1.7-25.1,2.9-4,.6-8.7.2-10.7,5.2-.8,2.1-.9,5.9-4.5,4.3-3.4-1.6-2.2-5-1.1-7.8,1.8-4.4,5.5-6,10-6.5,19.7-2.2,39.3-5.6,59.1-6.2,10.3-.3,15.5-3.3,18.2-12.6,1.8-6.1,4.1-11.9,6.2-17.9,2.7-.2,3.6.8,2.7,3.3h0Z" style="fill:#090705; stroke-width:0px;"/><path d="M350.49,115.59c-10.5,6.4-19.1,15.6-30.7,20.2-2.5.3-4-.3-2.9-3.2.2-2.2.5-4.5.7-6.7.7-1.3,1.3-1.3,1.9,0,3.2,7.1,5.3.3,6.7-1,16.9-15.3,31.7-32.4,44.8-51.1,3.3-4.7,7.4-14.2,13.3-10.4,6,3.9-1,11.4-3.9,16.5-7.9,13.5-19.6,24-29.9,35.6v.1Z" style="fill:#040302; stroke-width:0px;"/><path d="M386.59,107.09c6-11.1,14.6-20.1,20.5-31.1,3.4-6.3,6.4-12.7,10-18.9,1.4-2.3,3.1-6,6.5-4.6,4.2,1.6,2.9,5.7,1.8,8.7-7,20.2-20.2,35.3-38.8,45.9Z" style="fill:#090704; stroke-width:0px;"/><path d="M470.19,88.89c2.4-9.2,4.8-18.4,7.2-27.5.5-2,1.5-4.4,4-4,3.4.5,3.3,3.4,2.7,5.9-2,9.6-4.9,19-13.9,25.6Z" style="fill:#130f09; stroke-width:0px;"/><path d="M279.29,328.69c2.3,1.2,2.9,1.3,3,1.6,2.5,7.8,1.8,15.4-2.1,22.6-.8,1.6-3.4,1.2-4.3-.3-5.2-8.8,2.9-15.2,3.4-23.9h0Z" style="fill:#1e190f; stroke-width:0px;"/><path d="M220.79,326.39c1.7,10.1-.8,19.2-3.4,28.2-.7,2.3-2.2,5.1-5.3,3.6-2-.9-2.3-3.5-1.5-5.6,3.3-8.7,6.8-17.5,10.2-26.2h0Z" style="fill:#251f12; stroke-width:0px;"/><path d="M440.49,84.49c2.2-9.9,3.2-20.2,9.9-28.6,2.9,11.7-2.8,20.4-9.9,28.6Z" style="fill:#17130b; stroke-width:0px;"/><path d="M251.79,347.59c0,3.3.6,6.8-1.4,9.7-1.3,1.8-3.1,2.9-5.4,2-2.3-.9-3.1-3-2.3-5.1,2-5.1,4.2-10,6.4-15,6.1,1.2,2.7,5.3,2.7,8.4h0Z" style="fill:#090704; stroke-width:0px;"/><path d="M224.29,306.19c2.2,6,2.5,11.7-1.1,19-4.4-8.3,2.3-13.2,1.1-19Z" style="fill:#7c673f; stroke-width:0px;"/><path d="M316.89,132.59c1,1.1,1.9,2.2,2.9,3.2-3.1,4.9-.7,11.4-4.5,16.2-.9-1.1-1.7-2.2-2.6-3.3,2.5-5.1-.7-11.7,4.2-16.1h0Z" style="fill:#1f180f; stroke-width:0px;"/><path d="M251.79,347.59c-.9-2.8.3-6.2-2.7-8.4.9-3.2,1.8-6.4,2.7-9.7,6.1.5,2.7,4.4,2.6,7.2-.9,3.7-1.8,7.3-2.6,10.9Z" style="fill:#221c10; stroke-width:0px;"/><path d="M254.39,336.69c-.9-2.4.2-5.5-2.6-7.2.2-2.5.9-4.7,4.1-6.5.7,5,1.2,9.5-1.5,13.7Z" style="fill:#8f774a; stroke-width:0px;"/><path d="M253.49,201.39c1.5-3.3,6.4-.7,7.7-4.4,1.7.8,3.5,1.6,5.2,2.4-3.7,4.3-8.5,1.6-12.9,2Z" style="fill:#81644a; stroke-width:0px;"/><path d="M319.49,125.89h-1.9c-.8-3.6-.8-7.2,1-11.6,2.1,4.4,1.7,8.1.9,11.7v-.1Z" style="fill:#625130; stroke-width:0px;"/><path d="M464.59,204.49c3.2-8.5,1.6-18,7.5-26.1,9.1-12.5,23.7-8.3,35.3-13,3.3-1.3,4.3,3.1,4.5,6.1,1.3,21.5,1.1,43-2,64.3-.7,4.7-3.2,6.3-7.4,6.9-6.9,1.1-13.4-.5-19.7-3-5.6-1.1-8.7-5.7-12.6-9.2-2.6-3.4-4.9-7-5.6-11.5-.2-4.8-3.2-9.7,0-14.5h0Z" style="fill:#ebb789; stroke-width:0px;"/><path d="M522.39,228.89c.3-18.6-1.2-36.6-4-54.6-.4-2.6-2.5-6.2.9-7.9,2.6-1.3,5.7.2,8.4,1.7,3.9,2.2,6.9,5.5,7.5,9.7,2.9,18.8-.3,36.2-12.8,51.1h0Z" style="fill:#d4b26f; stroke-width:0px;"/><path d="M415.89,166.49c3,0,6,0,8.9.2,7.2,1.6,14.4,1.2,21.6,0,5.3-1.8,10.6,1.9,15.8,0h10.1c-3.5,12.7-13.6,12-23,12.4-3,2.8-7.7-1-10.4,2.8-1.6.7-3.2,1.4-4.8,2.1-7.6-4.3-14.7-9-18.2-17.6v.1Z" style="fill:#daaa7e; stroke-width:0px;"/><path d="M472.19,229.69c3.5,3.3,7.1,6.6,10.6,10-1,.9-2,1.9-3,2.8-5.3,0-6.4-7.9-12.4-6.9-1.8-4.7,1.6-5.2,4.8-5.9h0Z" style="fill:#2a2017; stroke-width:0px;"/><path d="M462.29,166.79c-5,2.8-10.4,2-15.7,1.8-.9-.9-2.5-1-2.7-2.7,4.2-2.7,8.8-2.2,13.4-1.7,1.6.9,3.3,1.7,5,2.6h0Z" style="fill:#674f39; stroke-width:0px;"/><path d="M464.59,204.49c.8,5.1,1.6,10.2,2.3,15.3-1.4,1.5-2.9,1.4-4.4,0-.8-5.2-1.7-10.4-2.5-15.5h4.6v.2Z" style="fill:#32261b; stroke-width:0px;"/><path d="M466.89,163.39v-4.3c3.5-.4,7.1-1.3,9.9,3.1-3.2,2.5-6.5,1.8-9.9,1.2h0Z" style="fill:#a5805f; stroke-width:0px;"/><path d="M438.89,181.99c2-6.3,6.9-1.9,10.4-2.8v1.9c-3.4.3-6.9.6-10.4.9Z" style="fill:#000101; stroke-width:0px;"/><path d="M506.79,343.69c6.6,1.5,13.2,3,19.7,4.5-7.8,5.3-13.6,0-19.7-4.5h0Z" style="fill:#000; stroke-width:0px;"/><path d="M415.89,166.49c8.5,3.3,12.8,11,18.2,17.6-1.6,21-8.2,40.1-21,57-12.1,16-28.2,18.4-46.5,14.4-17.5-3.9-28.1-14.4-31.7-32.1-2.3-11.7-3.7-23.3-.9-35.2-6.2-3.1-14.1,1.4-19.2-4.7,0-1-.2-1.9-.3-2.9,21.9-5,40.7-17.7,61.5-25.4,6.4-2.4,12.6-5.1,19.5-4.7,5.7.3,10.3,0,8.3,9.5-1.8,8,8,4.1,12.1,6.5h0Z" style="fill:#030302; stroke-width:0px;"/><path d="M462.59,219.79h4.4c1.8,3.3,3.5,6.7,5.3,10-.9,2.6-4.9,2.6-4.8,5.9.8,10.6-4.8,17-14.4,19.2-9.7,2.2-17.9-2.6-25.3-8.6-1.8-1.4-2.1-3.7-.8-5.7,1.5-2.3,3.6-3.5,6.4-1.8,3.2,2,6.3,4.1,9.6,6,5.2,3,10.6,3.9,14.8-1.2,4.5-5.4,2.5-10.8-1.2-16.1-2.1-2.9-6.8-3.5-6.9-7.9,4.5-4.8,8.5,4,12.9.3v-.1Z" style="fill:#090705; stroke-width:0px;"/><path d="M465.79,278.19c1.2,12.5-7.3,21.8-20.6,23.3-11.3,1.3-20.8-2.3-28.3-11-2.4-2.8-3-6.2-.3-9.2,1.8-2,4.7-2.9,6.9-1.1,6.5,5.3,12.1,11.7,22,10.4,8.5-1.2,13-8.8,20.3-12.4h0Z" style="fill:#050403; stroke-width:0px;"/><path d="M270.79,224.39c1.2.2,2.4.3,3.7.5,0,3.9,6.3,7,1.7,11.3-3.3,3.1-7.3,2-10.4-.5-6.7-5.4-5.8,5.4-10.3,4.7-6.4-3.5,4-9.1-1.5-12.7-3.8-2.5-8.1-2.5-12.6-2.1,9.7-11.2,19.6-4.3,29.4-1.2h0Z" style="fill:#0a0705; stroke-width:0px;"/><path d="M443.89,165.89c.9.9,1.8,1.8,2.7,2.7-7.3,0-14.7,2-21.7-1.9,6.3-.2,12.6-.5,19-.8h0Z" style="fill:#0a0805; stroke-width:0px;"/><path d="M471.49,193.99c1.1-6.7,2.6-12.8,10.1-12.6,6.7.2,7.2,6.1,6.8,11.2-.5,5.7-.6,13.3-7.9,13.6-7.6.4-7.4-7.4-9-12.2h0Z" style="fill:#0d0a08; stroke-width:0px;"/><path d="M337.79,203.19c.2-8.5,0-14.8,2.1-21,1.7-4.8,4.6-9,9.3-9.5,20.4-2.4,40.9-7.2,61.4-.8,13.2,4.2,18.5,12.8,15.5,26.2-2.4,10.7-6.1,21.1-11.8,30.6-10.8,18-25,25-43.1,21.5-19.4-3.7-28.5-13.6-32.3-35.4-.9-4.4-.9-9.1-1.1-11.6h0Z" style="fill:#ecb889; stroke-width:0px;"/><path d="M377.39,196.49c1.3-6.4-1.7-14.6,7.9-15.4,7.8-.7,7.3,5.9,6.8,10.6-.7,6.7.3,16.5-8.8,17.1-7.9.5-4.7-8.1-5.9-12.3h0Z" style="fill:#030201; stroke-width:0px;"/></g></svg>