<?xml version="1.0" encoding="UTF-8"?>
<svg id="Layer_1" data-name="Layer 1" xmlns="http://www.w3.org/2000/svg" version="1.1" xmlns:xlink="http://www.w3.org/1999/xlink" viewBox="0 0 258 228">
  <defs>
    <style>
      .cls-1 {
        fill: #000;
      }

      .cls-1, .cls-2, .cls-3, .cls-4, .cls-5, .cls-6, .cls-7, .cls-8, .cls-9, .cls-10, .cls-11, .cls-12, .cls-13, .cls-14, .cls-15, .cls-16, .cls-17, .cls-18, .cls-19, .cls-20, .cls-21 {
        stroke-width: 0px;
      }

      .cls-2 {
        fill: #ce895a;
      }

      .cls-3 {
        fill: #cd8959;
      }

      .cls-4 {
        fill: #cf8a5b;
      }

      .cls-22 {
        fill: #eaa2cd;
        stroke: #2a2a2a;
      }

      .cls-5 {
        fill: #0b0704;
      }

      .cls-6 {
        fill: #080503;
      }

      .cls-7 {
        fill: none;
      }

      .cls-8 {
        fill: #cd895a;
      }

      .cls-9 {
        fill: #c38255;
      }

      .cls-10 {
        fill: #cf8a5a;
      }

      .cls-11 {
        fill: #a26c46;
      }

      .cls-12 {
        fill: #ca8758;
      }

      .cls-13 {
        fill: #764d31;
      }

      .cls-23 {
        clip-path: url(#clippath);
      }

      .cls-14 {
        fill: #8a5b3b;
      }

      .cls-15 {
        fill: #5e3d26;
      }

      .cls-16 {
        fill: #25180e;
      }

      .cls-17 {
        fill: #080502;
      }

      .cls-18 {
        fill: #6a452c;
      }

      .cls-19 {
        fill: #2a2a2a;
      }

      .cls-20 {
        fill: #3b2516;
      }

      .cls-21 {
        fill: #c98658;
      }
    </style>
    <clipPath id="clippath">
      <path class="cls-7" d="M.9,30h256v176.1c0,11.3-6.7,20.5-15,20.5H15.9c-8.3,0-15-9.2-15-20.5V30Z"/>
    </clipPath>
  </defs>
  <rect class="cls-22" x="1" y="83" width="256" height="144" rx="15" ry="15"/>
  <path class="cls-19" d="M143.2,141.4c-.3-1-.9-2.1-2.9-2.1s-3.3,1.8-3.3,4.5.9,4.5,3.4,4.5,2.8-1,2.9-2.4h-2.7v-2.6h6.4v7.6h-2.6l-.4-1.8h0c-.7,1.3-2,2.1-4.1,2.1-4.1,0-6.5-3.2-6.5-7.5s2.4-7.5,6.9-7.5,6.1,2.3,6.4,5.1h-3.6.1ZM148.7,151v-14.3h6.7c3.2,0,5.1,1.5,5.1,4.2s-1.1,3.1-2.9,3.5h0c3.6.7,2.3,6.2,3.1,6.4v.2h-3.7c-.7-.6.6-5-2.5-5h-2.2v5h-3.6ZM152.3,139.6v3.4h2.4c1.4,0,2.2-.5,2.2-1.7s-.8-1.7-2.2-1.7h-2.4ZM170.8,148h-4.9l-.9,3h-3.6l5.2-14.3h3.6l5.2,14.3h-3.6l-.9-3h-.1ZM166.7,145.3h3.3l-1.6-5.3h0l-1.6,5.3h0ZM176.3,151v-14.3h6.9c3,0,4.8,1.6,4.8,4.6s-1.9,4.6-4.8,4.6h-3.3v5.2h-3.6,0ZM179.9,139.6v3.2h2.6c1.2,0,2-.4,2-1.6s-.8-1.6-2-1.6h-2.6ZM189.3,136.7h3.6v5.6h4.9v-5.6h3.6v14.3h-3.6v-5.8h-4.9v5.8h-3.6v-14.3ZM203.4,136.7h3.6v14.3h-3.6v-14.3ZM218.2,142c-.3-1.6-1-2.7-2.9-2.7s-3.2,1.8-3.2,4.5.8,4.5,3.2,4.5,2.6-1.1,2.9-2.7h3.6c-.3,3.4-2.4,5.7-6.3,5.7s-6.9-3.2-6.9-7.5,2.4-7.5,6.9-7.5,6,2.3,6.3,5.6h-3.6ZM134,171v-14.3h6.3c4,0,6.4,2.6,6.4,7.2s-2.2,7.1-6.2,7.1h-6.5ZM137.6,159.6v8.4h2.4c2.2,0,3.1-1.6,3.1-4.2s-.9-4.2-3.1-4.2h-2.4ZM151.7,162.2h6.2v2.9h-6.2v2.9h7.4v2.9h-11v-14.3h10.8v2.9h-7.2v2.7ZM166.6,162.1c2.7.7,5.5,1.6,5.5,4.7s-2.1,4.5-5.7,4.5-6.5-1.8-6.5-5h3.6c0,1.5,1.3,2.1,2.9,2.1s2.1-.5,2.1-1.2c0-1.1-1.5-1.4-3.6-2-2.5-.7-4.6-1.8-4.6-4.4s2.4-4.3,5.5-4.3,6,1.8,6.1,4.7h-3.6c-.2-1.1-1.1-1.7-2.5-1.7s-1.9.3-1.9,1.1.9,1.2,2.7,1.7v-.2ZM173.5,156.7h3.6v14.3h-3.6v-14.3ZM188.4,161.4c-.3-1-.9-2.1-2.9-2.1s-3.3,1.8-3.3,4.5.9,4.5,3.4,4.5,2.8-1,2.9-2.4h-2.7v-2.6h6.4v7.6h-2.6l-.4-1.8h0c-.7,1.3-2,2.1-4.1,2.1-4.1,0-6.5-3.2-6.5-7.5s2.4-7.5,6.9-7.5,6.1,2.3,6.4,5.1h-3.6.1ZM193.9,171v-14.3h3.6l5,8.5h0v-8.5h3.6v14.3h-3.6l-5-8.5h0v8.5h-3.6ZM211.7,162.2h6.2v2.9h-6.2v2.9h7.4v2.9h-11v-14.3h10.8v2.9h-7.2v2.7ZM220.7,171v-14.3h6.7c3.2,0,5.1,1.5,5.1,4.2s-1.1,3.1-2.9,3.5h0c3.6.7,2.3,6.2,3.1,6.4v.2h-3.7c-.7-.6.6-5-2.5-5h-2.2v5h-3.6ZM224.3,159.6v3.4h2.4c1.4,0,2.2-.5,2.2-1.7s-.8-1.7-2.2-1.7h-2.4Z"/>
  <g class="cls-23">
    <g>
      <path class="cls-1" d="M117.2,203.3c-.4-1.2-.6-2.1.3-3.2,1.2-1.7,1.2-3.5,0-5.5-6.8-10.3-13.6-20.7-20.2-31.2-5.6-8.8-12.6-15.5-23-17.7-1.8-.4-4-.9-4.5-3.4,6-1.1,11.3-5.9,11.7-12.1.4-5.2,1.9-10.3,2-15.5,0-1,0-1.8,1.1-2.5,3-2.2,4.5-5.5,4.8-9.1.2-2.5.3-4.7,3.6-4.6,0,0,.3-.4.4-.6-.9-.9-1.9-.8-2.8-.6-.8.2-1.3.2-1.7-.6-.9-2-2.7-2.7-4.8-2.9-1.2,0-1.8-.5-2-1.9-.5-3.8-1.4-7.6-2-11.3,0-.6-.6-1.6.4-1.8,2.6-.4,3.7-2.8,5.2-4.5,1.8-2,4-4.2,2.4-8-.9-2.2-.6-4.8-3.1-6.1-.4-.2-.3-.6-.2-1,.7-1.8-.7-2.2-1.8-2.8-1.9-.9-3.9-1.1-6-1.3-2.3-.2-4.7-1.2-5.9-2.9-1.4-1.9-4.6-1.5-5-4.3,0-.2-1.1-.2-1.7-.2-2,0-4.1,0-6.1,0-.7,0-1.4.6-1.9,0-1.6-2.2-3.7-1.2-5.6-.8-5.8,1.2-11.1,3.7-16.3,6.3-6.7,3.3-10.7,8.9-11.9,16.5-.3,1.7.8,3.1.3,4.9-2.2,7.6-2.9,15.3-2,23.2.1.9.3,1.8-.8,2.5-.9.6-1.6,1.9-.5,2.7,1.3.9.8-1.4,1.8-1.5.3.5.5,1,.8,1.5,1.2,0,1.6-1.3,2.8-1.5,4.7-.5,9.4-1.6,14.1-1.2,3.8.4,3.8.5,4.1,4.3.5,7.1,2.8,10.2,8.5,11.3,1.7.3,3.5.3,5.2,0,6.1-2.4,8.1-7.8,9.2-13.7,0-1.1,0-2.2-.3-3.2s-.9-1.9-1.8-2.5c-.8-.4-1.4-1-1.9-1.7-.6-.7-1.4-1.1-2.3-1.1-3.1.2-6.2-.2-9.3.4-1.9.4-3.9.6-5.5,1.9-2,1.7-4.5,2-6.9,1.8-3.9-.2-7.8,0-11.6.6-2.1.3-3.1-.3-3.1-2.6,0-6.2.8-12.2,2.2-18.2.5-2,1.4-2.8,3.3-1.7,2.4,1.3,4.6,1.1,6.9-.2,5.7-3,12.1-3.1,18.4-4,5.2-.8,9.9,1.5,14.8,2.5,5.4,1.2,9.2,4.5,9.3,10.8,0,1.7.3,3.3.6,5,.4,3-.3,3.6-3.2,3-2.7-.6-5-.4-6.9,1.9-.4.7,0,1.1.6,1.4.6.8,2.7-.3,2.3,1.8-.3.5-.5,1-.7,1.5-.3,1.6-1.1,3.3.3,4.8.5.3,1,.6,1.5.9,2,1.4,3.8,1.1,5.4-.6.8-.8,1.4-1.8.6-2.9-.8-1-1.8-.4-2.6.2-.9.6-2,1.1-2.2-.4-.3-1.8.7-3.2,2.3-3.7,1.3-.4,3.1,0,3.3,1.5.6,4,1.5,8.1.3,12.2-.3.7-1.4,1-1.2,2,1.6,1.6,1.1,3.6.8,5.7-1.2-1.6-2.5-3-4.1-3.7-2.2-1-2.4-2.4-1.6-4.4,0-.6.5-.9.7-1.5.2-1.3-.4-2.2-1.3-3-.3,0-.5-.2-.8-.2-.5,0-1,0-1.5,0-.8,0-1.6-.2-2,.7-.3.7.3,1.3.7,1.8.2.3.5.6.7.9.4.6.6,1.3,0,1.9-.5.6-1.2.6-1.9.3-.7-.3-1.4-.7-2.1-1-1.2-.5-2.4-.3-2.4,1.1s-1,1.6-2,1.9c-1.3.4-2.6.8-3.8,1.4-3.4,1.8-6.6,3.8-8.2,7.6-.7,1.5-1.6,1-2.6.3-5-3.2-9.7-6.6-11.9-12.6-.2-.6-.5-1.4-1.3-1.4s-1,.9-1.3,1.5c-.2.3-.3.7-.3,1.1-.3,3.1,0,6.3-.2,9.6-.8-3.7-3.1-5-6.6-5s-2.6-1.4-2.8-3c-.2-1.9-.5-3.9.3-5.8.6-1.3,1.7-2.1,3-2.5.6-.2,1.3-.5,1.2-1.4,0-.8-.7-1.1-1.4-1.4-1.7-.6-3,0-4.1,1.3-3.2,2.5-3.3,6.1-3,9.7.4,5,3.2,7.5,8.1,7.2,1.4,0,1.8.2,2.2,1.5,1.4,3.9,4,6.9,7.6,8.7,2.1,1.1,2.3,2.2,1.6,4-.3.6-.4,1.3-.5,2-.5,3.3-2.3,4.9-5.7,5-4.8.1-9.7.2-14.5,1.3-17.2,3.9-28.6,13.8-33.3,31.4-2.3,8.6-4,17.3-5.1,26.1s-.2,7.1,5.7,9.4c3.2,1.2,6.3,5.6,5.9,9-.8,6.7,0,13.4,0,20.1.1,5,.4,10.1.6,15.1,0,2,.8,4.4,3,3.7,2.8-.9,5.1,0,7.6.3,31.8,4.4,63.7,3.6,95.5,0,2.1-.3,3.7-2.3,2.8-4.2-2.2-4.7-1.7-9.7-2.1-14.5-.3-4.1-.2-4.1,3.9-4.2,8.8-.2,14.2-3.9,15.7-11.2,1.4-7.2,1.4-14.2-1-21.2h0l.4.4ZM85,95.7c1.5.4,2.4,1.4,2.6,2.9.6,4.6-.4,8.6-4.2,12.7,0-5.2,0-9.5-.7-13.7-.3-2.3.8-2.2,2.3-1.8h0Z"/>
      <path class="cls-4" d="M22,103c.7-1.6,1.6-2.4,3.6-2.5,3.9,0,7.7-.6,11.6-1.1,2.1-.3,3.9.9,6,.7,1,0,.8.8.8,1.5,0,1.3,0,2.6,0,3.8.7,7.5,3.8,10.3,11.2,10,.6,0,1.2,0,1.8,0,.7-.3,1.3-.4,1.3.6-3.4,2.1-6.8,4.3-8.2,8.4-.5,1.3-1.1,1-2,.5-6-3.8-11.8-7.8-13.9-15.3-1,.5-.5,1.7-1.1,2.3-1,.3-1.2-.9-1.9-1.2-2.3-1.6-4.6-2.1-7.2-.9-2.9,1-1.5-1-1.5-2.1.6-2.5,2.7-2.9,5-3.5-2.1-1.7-3.9-.9-5.6-.2,0-.3,0-.6.1-.9h0Z"/>
      <path class="cls-4" d="M101.5,200.6c7.3-2.9,9.5-1.9,11.7,5.5,1.7,5.6,1.7,11.3.6,17-1,5.4-4.6,8-10.7,7.9-13.4-.2-26.1-3.4-38-9.9-3.5-1.9-6.8-4.1-10.2-6.3-7.6-4.9-15.9-7.5-24.9-6.9-3.2.2-4.7-.6-5.8-3.7-1.5-4.5-1.8-4.4,2.8-5.6,10.4-2.8,20.7-1.5,30.9.3,14.3,2.5,28.5,4.9,43,6.1,1.2,0,2.3.2,3.5.2s3,.2,3.1-1.8c0-1.9-1.5-1.9-2.9-2.1-1,0-2,0-3.1-.7Z"/>
      <path class="cls-4" d="M59.9,223.3c-13.1,5.9-26.2,10.5-39.7,13.6-5,1.2-9.3-.3-13.1-4-7.6-7.5-12.4-16.6-15.5-26.7-.4-1.2-.4-1.9,1.1-2.3,7.7-2.3,15.4-4,23.5-3.5,2.7.2,4.7.9,5,4,0,.6.3,1.1.5,1.7,1.5,5,2.2,5.7,7.4,5.6,11.7-.3,21.5,4.6,30.8,11.6h0Z"/>
      <path class="cls-4" d="M61.8,95.7c-.2-1.1-1.1-1.4-2-1.3-3.9.4-7.8,0-11.6.9-.9.2-2.1.5-2.6,1.1-2.3,2.6-5.2,2.3-8.1,2.1-4.3-.2-8.6.3-12.8.8-1.7.3-2.2-.3-2.2-2-.1-7.2.7-14.3,2.5-21.4.5-2.1,1.5-2.3,3-1.3,2.7,1.7,5.1,1.5,8,0,7.6-3.7,16-4.7,24-3.4,5.7.9,12.4,1.1,16.7,6.7.5.7,1.3,1.1,1.4,2.1l1.5,12c.3,2.3-1.4,2.7-2.7,2.2-3.1-1.2-5.8-1.1-8.3,1.1-2.3,1.1-4.5,1.8-6.9.3h.1Z"/>
      <path class="cls-4" d="M41.3,133.7c7.2,4.4,14.6,7.2,22.6,8.1,1.8.2,4.8,5,4.3,6.9-.7,2.9-1.6,5.7-3.1,8.3-1.9,3.2-4.8,4.9-8.4,5.2-12,.8-21-4.5-27.5-14.4-1-1.5-1-2.7,1.1-2.7,7.5.2,10.8-4,11.1-11.4h-.1Z"/>
      <path class="cls-10" d="M49.2,98.3c3.2-.5,6.4-1.2,9.8-1.3,3.8,0,5.7,2,4.9,5.7-.7,3.1-1.8,6-3.8,8.5-2.2,2.7-5.1,3.6-8.4,2.8-3.4-.8-5.7-2.8-6.4-6.5-.5-2.4-.8-4.9-.3-7.3.3-1.8,1.3-3,3.1-3.4.6,0,1.2-.5,1.5,0,.2.3-.9.7-.5,1.5h0Z"/>
      <path class="cls-10" d="M72.8,119.5c2.2.5,3.3,2.2,4.4,4,1.7,2.8,0,4.5-1.8,6.1-1.8,1.7-2.9,0-4.2-1-2.5-2.1-4-1.9-6.1.8-2.2,2.8-10.2,2.1-12-1.1-.7-1.2-.2-2.3.5-3.3,2.4-3.7,5.7-5.8,10.1-6,.5-.3.8,0,1,.4.2,1.6,1.1,2.6,2.7,2.9,1.9.3,3.3-.7,4.2-2.3.3-.3.6-.6,1.1-.4h.1Z"/>
      <path class="cls-2" d="M58.1,116c-.3-.5-.8-.6-1.3-.6,5.3-2.6,7.1-7.6,8.4-13,.4-1.6-.3-3.8,2.3-4.2,1.5-.2,3-.2,4,1.2.2,1.6-1.4,3.2,0,4.8,1,.8.8,1.8.6,2.9-.9,1.4-1.9-.8-3,.3.5.6,1.1,1.3,1.6,2,.7.9,1,1.9.2,3-.9,1.2-2,1.2-3.1.6-.8-.4-1.5-1-2.2-1.4-1.2-.6-2,.4-1.4,1.1,1.3,1.7,0,1.6-1,1.8-1.7.5-3.3.9-5,1.4h0Z"/>
      <path class="cls-8" d="M72.8,104.7c2.5,1.5,4.6,1,5.5-1.2.2-.6.5-1.2-.2-1.6-.6-.4-1.1-.2-1.5.4-.7,1.3-1.6,2.1-3,1.1-1.3-1-1.1-2.4-.4-3.7.8-1.4,1.4-3.2,3.6-2.6,1.9.5,3.8.8,3.6,3.7-.2,3.9.7,7.8-.2,11.7-4,.9-5,.5-6.2-2.5-.5-.9-1-1.9-1.5-2.9-.2-.9-1.7-1.7,0-2.5h.3Z"/>
      <path class="cls-3" d="M22.5,107.7c.1.8-.5,2.5,1.4,1.3,1.8.3,3.5.6,4.9,1.9,1.2,1.2,2.1.2,2.8-.8,1,.2.6,1.4,1.4,1.7,0,3.8-.7,7.6.3,11.5-1.2-1.4-3.3-1.9-3.1-4.5.1-1.1-1.2-1-2-1.1-6.1-.7-7.9-3.8-5.7-10.1h0Z"/>
      <path class="cls-12" d="M78.6,113.6c1.2,0,2.1.3,1.8,1.9-.3,1.6,0,3.3-.9,5.4-2-2.7-4.4-4.8-7.4-5.9-.9-.3-.4-.9,0-1.4.6-.8.9-1.7.7-2.8.3-.6.9-.5,1.2-.2,1.3,1.5,3,2,4.6,2.9h0Z"/>
      <path class="cls-21" d="M91.4,200.2c-3.5-.4-6.9-.9-10.4-1.3,4.3-4.4,7.7-4,10.4,1.3Z"/>
      <path class="cls-9" d="M69.9,95.9c1.1.3,2.1.5,3.2.7,0,.7-.5,1.2-.9,1.7-1.4.6-2.9,0-4.3.2-1-.2-1.7,1-2.7.3-.5-.6-1.1-1.3-1.6-1.9,1.1-1.5,2.8-.8,4.2-1.1.7-.2,1.4.5,2.2,0h0Z"/>
      <path class="cls-11" d="M64.6,119.6l-.7-.7c2.2-.9,4.3-.3,6.5,0,.2.3.2.6,0,.8-3,2-3.8,2-5.8-.3h0Z"/>
      <path class="cls-15" d="M69.9,95.9c-2,1.2-4.4-.2-6.4,1-.7-.3-1.5-.4-1.7-1.3,2.3.5,4.6-.7,7-.3.4.2.7.4,1.1.6Z"/>
      <path class="cls-17" d="M78.6,113.6c-2.6.5-3.6-2.4-5.8-2.7.2-.7.8-.7,1.4-.8,1.6,1.9,3.7,2.7,6.2,2.5-.6.3-1.1.7-1.7,1.1h0Z"/>
      <path class="cls-18" d="M65.1,98.9c.8-.2,1.6-.4,2.4-.6.2,0,.2.3,0,.4,0,0,0,.2-.2.2-2.2.3-1.4,2.4-2.2,3.6,0-1.2,0-2.4-.2-3.6h0Z"/>
      <path class="cls-16" d="M67.5,98.8v-.6h4.6c-.2.3-.4.7-.6,1.1-1.4-.2-2.7-.4-4.1-.6h0Z"/>
      <path class="cls-20" d="M72.8,104.7c-1.1.8.2,1.6,0,2.4h-.6c-.9-.8-.4-1.9-.6-2.9.5,0,1,0,1.3.5h-.1Z"/>
      <path class="cls-13" d="M79,96.1c.3-.3.5-.6.7-.6s.5.3.5.5,0,.5-.2.7c-.3-.2-.6-.4-1-.6Z"/>
      <path class="cls-14" d="M70.4,119.4v-.4c.8,0,1.7-.3,2.5.4l-.7.7c-.9.3-1.4,0-1.8-.8h0Z"/>
      <path class="cls-5" d="M31.7,110.2c.6,2-.5,3-2,2.1-1.9-1-3.5-2.7-5.9-2.7,0-.2.1-.4.2-.6,2.9-1.8,5.3-.5,7.8,1.2h-.1Z"/>
      <path class="cls-6" d="M51,102.9c1.5.4,1.6,1.5,2.2,2.1,2,1.9,3.2,1.7,4.3-.8.4-.8.6-1.9,1.7-1.5,1.3.4.8,1.5.5,2.5-.8,2-2,3.6-4.3,3.2-2.7-.5-4-2.4-4.4-5.4h0Z"/>
      <path class="cls-5" d="M70.4,119.4c.6.3,1.2.5,1.8.7-.5,3.2-3,2.8-5.1,2.6-1.5-.2-3.4-.7-2.5-3.2,2,1.7,3.9,1,5.8,0Z"/>
    </g>
  </g>
</svg>