<?xml version="1.0" encoding="UTF-8"?>
<svg id="Layer_1" data-name="Layer 1" xmlns="http://www.w3.org/2000/svg" version="1.1" xmlns:xlink="http://www.w3.org/1999/xlink" viewBox="0 0 258 228">
  <defs>
    <style>
      .cls-1 {
        fill: #090706;
      }

      .cls-1, .cls-2, .cls-3, .cls-4, .cls-5, .cls-6, .cls-7, .cls-8, .cls-9, .cls-10, .cls-11, .cls-12, .cls-13, .cls-14, .cls-15, .cls-16, .cls-17, .cls-18, .cls-19 {
        stroke-width: 0px;
      }

      .cls-2 {
        fill: #000;
      }

      .cls-3 {
        fill: #fcfcfc;
      }

      .cls-4 {
        fill: #c8c8c8;
      }

      .cls-5 {
        fill: #9d876e;
      }

      .cls-6 {
        fill: #fedab3;
      }

      .cls-20 {
        fill: #eaa2cd;
        stroke: #2a2a2a;
      }

      .cls-7 {
        fill: #eae9e8;
      }

      .cls-8 {
        fill: none;
      }

      .cls-9 {
        fill: #f0efee;
      }

      .cls-10 {
        fill: #e1dfde;
      }

      .cls-11 {
        fill: #b5b5b5;
      }

      .cls-21 {
        clip-path: url(#clippath);
      }

      .cls-12 {
        fill: #e76bba;
      }

      .cls-13 {
        fill: #a2a2a2;
      }

      .cls-14 {
        fill: #efeeee;
      }

      .cls-15 {
        fill: #060504;
      }

      .cls-16 {
        fill: #040303;
      }

      .cls-17 {
        fill: #2a2a2a;
      }

      .cls-18 {
        fill: #fefefe;
      }

      .cls-19 {
        fill: #080706;
      }
    </style>
    <clipPath id="clippath">
      <path class="cls-8" d="M1.1,22.2h256v183.6c0,11.8-6.7,21.3-15,21.3H16.1c-8.3,0-15-9.6-15-21.3V22.2Z"/>
    </clipPath>
  </defs>
  <rect class="cls-20" x="1" y="83" width="256" height="144" rx="15" ry="15"/>
  <path class="cls-17" d="M124.6,142.8h5.7v2.9h-5.7v5.3h-3.6v-14.3h10.6v2.9h-7v3.1h0ZM133,151v-14.3h6.7c3.2,0,5.1,1.5,5.1,4.2s-1.1,3.1-2.9,3.5h0c3.6.7,2.3,6.2,3.1,6.4v.2h-3.7c-.7-.6.6-5-2.5-5h-2.2v5h-3.6ZM136.6,139.6v3.4h2.4c1.4,0,2.2-.5,2.2-1.7s-.8-1.7-2.2-1.7h-2.4ZM152.9,151.3c-4.5,0-7.1-3.2-7.1-7.5s2.5-7.5,7.1-7.5,7.1,3.2,7.1,7.5-2.6,7.5-7.1,7.5ZM152.9,148.4c2.6,0,3.5-2,3.5-4.5s-.9-4.5-3.5-4.5-3.5,2-3.5,4.5.9,4.5,3.5,4.5ZM161.4,151v-14.3h3.6l5,8.5h0v-8.5h3.6v14.3h-3.6l-5-8.5h0v8.5h-3.6ZM178.8,151v-11.4h-4.2v-2.9h11.9v2.9h-4.1v11.4h-3.6,0ZM190.9,144.6h5.4v2.7h-5.4v-2.7ZM205,142.2h6.2v2.9h-6.2v2.9h7.4v2.9h-11v-14.3h10.8v2.9h-7.2v2.7ZM213.9,151v-14.3h3.6l5,8.5h0v-8.5h3.6v14.3h-3.6l-5-8.5h0v8.5h-3.6ZM228.1,151v-14.3h6.3c4,0,6.4,2.6,6.4,7.2s-2.2,7.1-6.2,7.1h-6.5ZM231.7,139.6v8.4h2.4c2.2,0,3.1-1.6,3.1-4.2s-.9-4.2-3.1-4.2h-2.4ZM121,171v-14.3h6.3c4,0,6.4,2.6,6.4,7.2s-2.2,7.1-6.2,7.1h-6.5ZM124.6,159.6v8.4h2.4c2.2,0,3.1-1.6,3.1-4.2s-.9-4.2-3.1-4.2h-2.4ZM138.7,162.2h6.2v2.9h-6.2v2.9h7.4v2.9h-11v-14.3h10.8v2.9h-7.2v2.7ZM146.6,156.7h3.8l2.7,10h0l2.7-10h3.8l-4.6,14.3h-3.8l-4.6-14.3h0ZM164.3,162.2h6.2v2.9h-6.2v2.9h7.4v2.9h-11v-14.3h10.8v2.9h-7.2v2.7ZM173.2,156.7h3.6v11.4h6.4v2.9h-10v-14.3h0ZM190.5,171.3c-4.5,0-7.1-3.2-7.1-7.5s2.5-7.5,7.1-7.5,7.1,3.2,7.1,7.5-2.6,7.5-7.1,7.5ZM190.5,168.4c2.6,0,3.5-2,3.5-4.5s-.9-4.5-3.5-4.5-3.5,2-3.5,4.5.9,4.5,3.5,4.5ZM199,171v-14.3h6.9c3,0,4.8,1.6,4.8,4.6s-1.9,4.6-4.8,4.6h-3.3v5.2h-3.6,0ZM202.6,159.6v3.2h2.6c1.2,0,2-.4,2-1.6s-.8-1.6-2-1.6h-2.6ZM215.6,162.2h6.2v2.9h-6.2v2.9h7.4v2.9h-11v-14.3h10.8v2.9h-7.2v2.7ZM224.6,171v-14.3h6.7c3.2,0,5.1,1.5,5.1,4.2s-1.1,3.1-2.9,3.5h0c3.6.7,2.3,6.2,3.1,6.4v.2h-3.7c-.7-.6.6-5-2.5-5h-2.2v5h-3.6ZM228.2,159.6v3.4h2.4c1.4,0,2.2-.5,2.2-1.7s-.8-1.7-2.2-1.7h-2.4Z"/>
  <g class="cls-21">
    <g>
      <path class="cls-2" d="M48.4,239.6c-8.3.4-16.7.7-25,1.1-3.5.2-6.9.2-10.3.5-1.8.2-2.1-.5-2.2-2.1-.5-17-1.9-33.9-1.7-50.9v-.8c0-.5.1-1.2-.6-1.3-.7,0-.8.6-.8,1.1v3.5c-1.2-.7-2-1.2-2.9-1.7-.4-.2-.8-.5-1.2,0-.4.5,0,1,.4,1.1,4.5,1.4,3.6,5.1,3.7,8.4.6,13.6,1.1,27.1,1.8,40.7,0,1.8-.5,2-2.1,2.1-4.6,0-9.3,0-13.9.6-9.5,1.3-13.5-6.8-13.8-13.7-.2-4.3.9-8.5,2.3-12.6,3.6-10.8,5.4-21.7,5.1-33.1-.3-12.1,2.4-23.8,8.4-34.5,1.6-2.9,3.4-5.7,5.7-8.1,1-1,1.7-1.7-.1-2.7-1-.5-1.8-1.7-1.4-2.7,1.9-4.4.7-10.6,7.2-12.3.5-.2,1-.4,1-1.1,0-3.5,2.7-4.4,5.2-5.2,1.8-.6,2.2-1.4,2.4-3.2,1.2-14.6,4.5-28.7,10.9-42,1.8-3.8,4.2-7.3,6.7-10.6,14.3-18.6,44.5-13.8,53.3,8.2,2.9,7.2,3.5,14.7,4.3,22.3,1.1,9.6,2.3,19.2,3.9,28.7.2,1.3.7,1.9,2.1,2.3,3.4.9,2.8,1.6,2.9,4.9.3,5-5.4,7-5.1,11.7,0,.9-.5,1.7.3,2.7,6.8,8.1,9.9,17.7,11.3,27.9,1.7,12.4,2.2,25.1,6.1,37.2,1.8,5.7,3.2,11.5,3.9,17.5.4,3.4,0,6.7,0,10.1,0,2.1-.8,4.1-3.5,4.3-11.9.9-23.9,2.2-35.8,2.5-.5,0-.9,0-1.4-.1-3.3-.5-5-2.6-5.7-5.6-2.1-9.2-3.3-18.4-3.3-27.8,0-19,1.4-37.9,3.6-56.8.4-3,.2-3.2-2.8-2.4-3.4.9-6.8,1.1-10.2.2-2.1-.5-3.2,0-3.6,2.1-2.8,13-4.6,26.2-5.5,39.4-.6,8.2-.5,16.4-.4,24.6.2,7.2,0,14.4,2.3,21.5.6,1.7.4,3.4-1.6,4.3h0v-.2Z"/>
      <path class="cls-12" d="M48.4,239.6c1.7-1.7,1.4-3.7.5-5.5s-1.1-3.7-1.2-5.6c-2.2-26.5-.6-52.8,5.1-78.8.2-1,.4-1.9.6-2.9.2-.8.5-.9,1.3-.7,5.3,1.1,10.9.9,16.7-.5-.7,6.7-1.5,13.3-2.1,20-1.7,18.2-2.7,36.4-1.2,54.6.4,5.1,1.8,10.1,2.8,15.1s2.5,3.8,4.7,4.8c-9.1,0-18.2.4-27.2-.5h0Z"/>
      <path class="cls-6" d="M51.6,125.5h-.5q-8.1-.5-8.5-8.4c0-.8.4-1.4.7-2,4.2-7.8,9.2-15.1,14.1-22.9.7.9.5,3.2,2.1,2.2s2.1-3.2,1.2-4.8c-1.5-2.6.2-3.7,1.7-4.8.8-.6,1.7-.8.9-1.9-.4-.6,0-1,.3-1.5,3.2-6,6.1-12.1,7.8-18.9,3.5,2.1,5.9,4.8,7.7,8,6.9,12.3,8.4,25.3,4,38.7-2.4,7.4-7.1,13-15.4,14.7-4.6.9-8.8,0-12.6-2.8-.7-.6-1.7-1.9-2.7-.5-.8,1.1.4,2,1.1,2.7.7.7,1.6,1.1,2.4,1.7-1.3,1.3-2.8.5-4.3.5h0Z"/>
      <path class="cls-18" d="M94.3,133.5c-14.1,30.4-20.3,62.4-21.2,95.6-.9-1.7-1.7-3.5-1.8-5.5-.8-17.6-.8-35.1.6-52.7,1.1-12.9,2.2-25.8,3.2-38.7,0-.9.2-1.5,1.3-1.5,2.7-.2,5.4-.5,8.1-.8.9-.1,1.6.4,2.3.7,2.4,1.2,4.8,2.5,7.4,3h0Z"/>
      <path class="cls-18" d="M45.2,179c-1.2-.5-.9-1.6-1-2.4-.5-5.7-1.5-11.4-3.1-16.8-2.4-8.4-5-17-9.8-24.5-.5-.7-.8-1.5-1.3-2.5,3.5-.4,6.8-.9,10.1-1.2,2.1-.2,3.1-1.1,2.9-3.2-.2-2.1.6-2.9,3-2.3,3.4,1,6.9,1.3,10.6,1.6-6.5,15.4-8.9,31.7-11.1,48-.5,1.1.2,2.2-.4,3.3h0Z"/>
      <path class="cls-6" d="M62.9,126.9c.8,0,1.3,0,1.7,0,2.6-.9,4.2.2,5.3,2.4.2.5.4,1.2,1,1.2,3,0,2.4,2,2.1,3.8-.2,1.5-.6,3-.5,4.5.2,3.1-1.7,4.1-4.2,4.9-4.2,1.4-8.5,1.7-12.8,1-1.2-.2-1.4-.6-1.2-1.8,1.3-5.3,3-10.4,5.6-15.3,1-1.8,2.3-.3,2.9-.7h0Z"/>
      <path class="cls-3" d="M15.1,118.6c0,4.4-.2,8.6,1,12.7.2.8,0,1.2-.7,1.4-3.3.8-6.5,2.2-10,2.3-.7,0-1.6.2-1.9-.6-.4-.9.4-1.5,1.1-1.9.5-.3,1.1-.6,1.7-.8.7-.3,1.2-.9,1.2-1.6s-.6-1.4-1.4-1.4c-2.4-.2-.9-1.2-.3-1.8,1.6-1.5,3.4-2.3,5.7-1.9.7,0,1.5.2,1.9-.6.2-.5.2-1-.2-1.5-1.3-2.1-.6-3.5,2.1-4.2h-.2Z"/>
      <path class="cls-9" d="M99,214.2v-7.5c0-.8-.6-2.2.6-2.3,1.3,0,.8,1.3.8,2.1,0,7.6.6,15.1,1.4,22.7.2,1.4.4,2.8.5,4.3,0,.5.3,1.2-.4,1.4-.9.2-1-.6-1.1-1.2-.4-3.8-.8-7.6-1.2-11.4-.2-2.7-.4-5.3-.5-8h-.2,0Z"/>
      <path class="cls-14" d="M18.6,181.7c-1-.1-2.3.4-2.6-1.1-.4-1.8-.8-3.7,0-5.5,0-.2.6-.3.6-.2.2.3.4.6.4.9q.8,4.9,5.8,3.9c2.8-.6,5.6-1.4,8.4-2,.6-.2,1.3-.5,1.5.5,0,.6-.5.8-1.1.9-4.3,1.1-8.5,2.5-13,2.6h0Z"/>
      <path class="cls-14" d="M36.4,216.5c-.3.2-.6.5-1,.8-5.2,2.8-10,6-14.7,9.5-.5.3-1,1.1-1.6.4-.6-.7.2-1.1.7-1.4,4.7-3.6,9.7-6.9,14.9-9.7.7-.3,1.3-.8,1.7.5h0Z"/>
      <path class="cls-7" d="M89.7,178.1c-.2,0-.7,0-1.1-.2-.9-.4-2.7-.2-2.3-1.5.4-1.3,1.7,0,2.5.1,2.8.6,3.8,0,4.3-3.1,0-.6-.2-1.8.8-1.7,1.1.1.7,1.2.6,2-.4,3.2-1.8,4.5-4.8,4.4h0Z"/>
      <path class="cls-10" d="M89.4,219.7c-2-.9-3.6-2.1-4.8-3.9,0-.2,0-.5,0-.7.2-.3.7-.3,1-.1,1.3,1.3,2.6,2.5,4.2,3.3.3.2.5.5.2.9-.2.2-.4.3-.6.4h0Z"/>
      <path class="cls-4" d="M95.7,128.8c-1.3,1.1-2.8,1.8-5,.2,1.9-.4,3.4-.7,4.9-1,0,.2,0,.5.2.7h0Z"/>
      <path class="cls-11" d="M97.9,124c-.7.8-1.4,1.3-2.2.4-.2-.3-.3-1.1-.2-1.2,1-.5,1.7,0,2.4.8h0Z"/>
      <path class="cls-5" d="M51.6,125.5c1.4-.5,3,.5,4.3-.5.8.2,1.3.7.2.9-1.5.2-3,.3-4.5-.4h0Z"/>
      <path class="cls-13" d="M45.2,179c-.2-1.1-.3-2.3.4-3.3.2,1.1.2,2.2-.4,3.3Z"/>
      <path class="cls-15" d="M76.6,108.9c-.2,3.1-2,4.4-4.5,4.8s-4.7-.5-6.2-2.5c-.4-.5-.4-1.2.2-1.7.5-.4,1.1-.5,1.5,0,3.1,3.5,6,2.2,9-.5h0Z"/>
      <path class="cls-19" d="M72.8,96.5c3.2.4,4.3,1.7,4.1,4.1-.2,2.3-2.1,3.7-4.6,3.4-1.3-.2-2.4-.7-3.5-1.5-.5-.4-1.1-.8-.5-1.5.5-.6,1.1-.5,1.7-.2,1.6,1,3.3,2.7,4.9.5,1.6-2.1-1-3.2-2.1-4.9h0Z"/>
      <path class="cls-1" d="M83.9,86.2c-2.7-.7-5.1-1.8-7.8-2.1-.6,0-1.2-.5-1-1.3s.8-1.1,1.4-.9c3,.6,6,1.3,7.4,4.4h0Z"/>
      <path class="cls-16" d="M77.7,91.3c0-1.3.5-2.4,2-2.5,1.5,0,1.6,1.2,1.5,2.3,0,1.2,0,2.8-1.8,2.8s-1.6-1.5-1.8-2.6h.1Z"/>
    </g>
  </g>
</svg>