<?xml version="1.0" encoding="UTF-8"?>
<svg id="Layer_1" data-name="Layer 1" xmlns="http://www.w3.org/2000/svg" version="1.1" viewBox="0 0 258 227">
  <defs>
    <style>
      .cls-1 {
        fill: #000;
      }

      .cls-1, .cls-2, .cls-3, .cls-4, .cls-5, .cls-6, .cls-7, .cls-8, .cls-9, .cls-10, .cls-11, .cls-12 {
        stroke-width: 0px;
      }

      .cls-2 {
        fill: #e6b386;
      }

      .cls-3 {
        fill: #ecb889;
      }

      .cls-4 {
        fill: #020101;
      }

      .cls-13 {
        fill: #a4a4a4;
        stroke: #2a2a2a;
      }

      .cls-5 {
        fill: #050403;
      }

      .cls-6 {
        fill: #e2b184;
      }

      .cls-7 {
        fill: #010000;
      }

      .cls-8 {
        fill: #f1bc8c;
      }

      .cls-9 {
        fill: #010101;
      }

      .cls-10 {
        fill: #413225;
      }

      .cls-11 {
        fill: #010100;
      }

      .cls-12 {
        fill: #030202;
      }
    </style>
  </defs>
  <rect class="cls-13" x="1" y="82" width="256" height="144" rx="15" ry="15"/>
  <g>
    <path class="cls-1" d="M114.4,202c-2.4,1.2-4.2-.2-6-1.6-6.4-5.2-11.5-11.6-16-18.7-1.1-1.7-2-2.2-3.8-1.4-3.3,1.4-6.9,1.9-10.5,1.9-10.5,0-21-.3-31.3-3.3-17.7-5.3-26.9-21.2-24.2-41.1,1.6-12.3,6-23.4,12.2-33.6,8.2-13.6,18.4-24.9,31-33.7,1.3-1.9,3.3-2.8,5.1-3.8,4.3-2.4,8.6-4.8,12.8-7.2-3.3.5-6.1,2.5-9.1,4-2,1-3.9,2.2-5.8,3.2-1,.5-1.9,1.3-3,.7,0-3.8,0-7.6.4-11.4.7-8.9,4.6-16,10.5-21.9,9.8-9.9,21.2-16.2,34.4-17.6,12.3-1.2,23.4,2.5,31.3,13.9,1.2,1.7,2.2,1,3.3.7,12.4-2.9,24.8-4.4,37.5-3.1,14.3,1.4,27.6,5.7,39.1,15.5,13.2,11.2,17,26.7,10.2,43.4-5.9,14.6-15.6,25.5-28.6,32.8-1.7.9-2.1,1.8-2.1,3.9.2,21.6-2.4,42.7-10.1,62.8-6.3,16.5-17.3,27-33.7,30-6.2,1.2-12.3.1-17.9-2.9-3.8-1.2-6.6-3.8-8.8-7.2-.6-.9-1.5-2.1-.5-3.2.8-.8,1.9,0,2.7.7,2,1.4,3.9,3.1,6,4.2,12,6.4,23.3,4.9,33.8-3.7,9.9-8.1,15.3-19.5,18.5-32.2,3.9-15.3,4.2-30.9,3-46.6-.9-12.9-3.3-25.3-6.9-37.6-.8-2.8-2.1-3.7-4.8-4-12.4-1.4-24.5,0-36.6,2.7-18.4,4.4-34.7,13.1-49,26.8-4.5,4.3-6.7,8.4-4.9,14.8.7,2.5,1.1,5.1,1.3,7.7.2,4.4-2.1,6.2-5.9,4.4-1.2-.6-2.3-1.4-3.4-2.1-3.4-2.2-7.6-1.7-10.4,1.2-5.8,5.8-6.1,18.2-.5,24.3,2.4,2.5,5.4,4.1,8.7,2.9,3.9-1.4,6.4.2,8.6,3.6,4.2,6.5,8.2,13.1,13.6,18.5,2.9,2.9,6.2,5.4,9.2,8.2,2.2,2.1,2.3,3.1.7,5.4h0v-.3Z"/>
    <path class="cls-3" d="M114.4,202c1.2-2.2.4-3.7-1.3-5-9.1-6.6-16.1-15.3-22-25.3-.5-.9-1.3-1.7-1.8-2.5-1.5-2.5-3.3-3.4-6.2-2.2-4.1,1.6-7.6,0-10.4-3.5-4.9-5.9-5-17-.6-23.4,2.9-4.2,9.5-6.7,13.6-2.6,1.5,1.5,3.7,3.6,6.1,2,2.6-1.7,1.1-4.5.8-6.9-.4-3.5-.8-6.9-1.5-10.3-.5-2.2,0-3.6,1.5-5.2,15.7-17.4,34.8-27.7,56.5-32.4,11.9-2.6,23.8-3.3,35.8-2,1.9.2,2.7,1,3.3,2.9,3.5,10.8,5.7,21.9,7,33.2,1.8,16.9,1.8,33.8-2,50.5-2.8,12.3-7.4,23.6-16.2,32.4-13.5,13.5-30,14.2-44.3,2-.5-.5-1-1.2-2.1-.7,2.3,4.6,5.8,7.5,9.7,10.2-8.8-1.2-16.5-5.3-23.9-10.3-.6-.4-1.2-.7-1.8-1h-.2Z"/>
    <path class="cls-2" d="M65.7,67.3c5.2-2.7,10.4-5.5,15.7-8.2.5-.3,1.1-.5,1.6-.8.7-.3,1.6-.8,2.1.2.5,1.2-.2,1.8-1.1,2.2-6.4,2.7-12.2,6.5-18.2,9.9v-3.3h0Z"/>
    <path class="cls-7" d="M162,107.2c0-6,3.5-10.7,8.3-11.9,4.9-1.2,11.3,1.5,13.2,5.7,1,2.1,1.3,4.4-.8,5.7-2,1.2-3.7.5-4.9-1.9-1.8-3.7-6.6-4.2-9.5-1.2-1.5,1.6-2.3,3.5-2.9,5.6-.2.8-.2,2.3-1.3,2.3s-1.7-1.4-1.9-2.5c-.2-.8-.2-1.7-.2-2h0v.2Z"/>
    <path class="cls-11" d="M122.5,126c7.5-.5,15-1,22.5-1.4,2.1,0,4.3-.5,6.5-.7,1.4,0,2.7.5,2.9,2.2.1,1.7-1.1,3-2.3,2.8-5.1-.8-8,1.6-9.7,6.7-.5,1.6-2.3,3.7-4.5,2.4-2.2-1.2-2.6-3.8-2-5.9.8-3.1-.4-3.3-2.6-3.4-3.6-.2-7.2-.4-10.6-2.6h-.2Z"/>
    <path class="cls-4" d="M175,149.1c0,6.4-4.7,10.7-10.4,9.6-2.6-.5-4.8-1.8-7-3.3-1.5-1.1-2.4-2.4-1.2-4.2s2.4-1.2,3.8,0c1.4,1.2,2.9,2.3,4.6,3,2.1.8,4.2.8,5.7-1.3,1.4-2,1.3-4.2,0-6.4-.8-1.4-1.8-2.5-3-3.5-.7-.5-1.5-.9-1-2,.5-1.2,1.5-.7,2.4-.5,3.8,1,6.3,4.5,6.3,8.8h0l-.2-.2Z"/>
    <path class="cls-9" d="M184.9,129.8c.1,2.5-.2,4.8-1.6,6.8-1.6,2.4-3.8,2.4-5.5.1-2.4-3.2-2.4-10.4,0-13.5,1.7-2.2,4-2.2,5.5,0,1.3,1.9,1.8,4.1,1.6,6.5h0Z"/>
    <path class="cls-12" d="M164,190.9c-3.9,0-7.2-.6-10.2-2.5-.5-.4-1.4-.8-1.1-1.7.2-.7,1-.7,1.5-.8,4.1-.2,8-1,12-2,1.8-.4,3.8.2,4.2,2.6.4,2.4-1.3,3.5-3.1,3.9-1.3.3-2.6.3-3.3.5h0Z"/>
    <path class="cls-5" d="M88.9,152.5c-2.6-2.9-5.4-5-9.2-5.2-1.3,0-2.9-.6-2.6-2.3.2-1.4,1.9-1.9,3.1-1.7,4.2.8,8.2,2.3,10.6,6.6-.5,1.4-1.4,2.5-1.9,2.5h0Z"/>
    <path class="cls-8" d="M178.2,83.2c-.5,0-1,0-1.4,0-2.9,0-5.7,0-8.5-.5h9.9v.3h0Z"/>
    <path class="cls-10" d="M88.9,152.5c.4-.1,1.2-.2.9-.8-.8-1.5.5-1.4,1-1.8-.5,1,1.5,4.2-1.9,2.5h0Z"/>
    <path class="cls-6" d="M159,182.6c-1.4-.9-1.8-2.2-1.4-4.2.5,1.6,1,2.9,1.4,4.2Z"/>
  </g>
</svg>