<svg width="44" height="44" viewBox="0 0 44 44" fill="none" xmlns="http://www.w3.org/2000/svg">
<rect x="0.142578" width="43.7142" height="43.7142" rx="10" fill="#2A2A2A"/>
<path fill-rule="evenodd" clip-rule="evenodd" d="M11.071 21.8571C11.071 17.4916 11.071 15.3088 12.1113 13.7367C12.5758 13.0346 13.1771 12.4334 13.8791 11.9688C15.4513 10.9286 17.6341 10.9286 21.9996 10.9286C26.3651 10.9286 28.5479 10.9286 30.1201 11.9688C30.8221 12.4334 31.4234 13.0346 31.8879 13.7367C32.9282 15.3088 32.9282 17.4916 32.9282 21.8571C32.9282 26.2226 32.9282 28.4054 31.8879 29.9776C31.4234 30.6796 30.8221 31.2809 30.1201 31.7454C28.5479 32.7857 26.3651 32.7857 21.9996 32.7857C17.6341 32.7857 15.4513 32.7857 13.8791 31.7454C13.1771 31.2809 12.5758 30.6796 12.1113 29.9776C11.071 28.4054 11.071 26.2226 11.071 21.8571ZM27.6577 21.8572C27.6577 24.9819 25.1246 27.515 21.9998 27.515C18.8751 27.515 16.342 24.9819 16.342 21.8572C16.342 18.7324 18.8751 16.1993 21.9998 16.1993C25.1246 16.1993 27.6577 18.7324 27.6577 21.8572ZM21.9998 25.6008C24.0674 25.6008 25.7435 23.9247 25.7435 21.8572C25.7435 19.7896 24.0674 18.1135 21.9998 18.1135C19.9323 18.1135 18.2562 19.7896 18.2562 21.8572C18.2562 23.9247 19.9323 25.6008 21.9998 25.6008ZM27.8812 17.2445C28.6154 17.2445 29.2106 16.6493 29.2106 15.9151C29.2106 15.1808 28.6154 14.5856 27.8812 14.5856C27.1469 14.5856 26.5517 15.1808 26.5517 15.9151C26.5517 16.6493 27.1469 17.2445 27.8812 17.2445Z" fill="#E0DED5"/>
</svg>
