<svg width="44" height="44" viewBox="0 0 44 44" fill="none" xmlns="http://www.w3.org/2000/svg">
<rect x="0.285156" width="43.7142" height="43.7142" rx="10" fill="#2A2A2A"/>
<path d="M11.2136 13.867C11.2136 13.1661 11.4598 12.5879 11.952 12.1323C12.4443 11.6767 13.0843 11.449 13.8719 11.449C14.6455 11.449 15.2714 11.6732 15.7496 12.1218C16.2419 12.5844 16.488 13.1871 16.488 13.9301C16.488 14.6029 16.2489 15.1636 15.7707 15.6122C15.2784 16.0748 14.6314 16.3061 13.8297 16.3061H13.8086C13.035 16.3061 12.4092 16.0748 11.9309 15.6122C11.4527 15.1496 11.2136 14.5679 11.2136 13.867ZM11.4879 32.2653V18.2195H16.1716V32.2653H11.4879ZM18.7666 32.2653H23.4502V24.4224C23.4502 23.9317 23.5065 23.5532 23.619 23.2869C23.8159 22.8103 24.1148 22.4073 24.5157 22.0779C24.9165 21.7485 25.4193 21.5838 26.0241 21.5838C27.5994 21.5838 28.3871 22.6421 28.3871 24.7588V32.2653H33.0707V24.2121C33.0707 22.1375 32.5785 20.564 31.5939 19.4916C30.6093 18.4193 29.3083 17.8831 27.6908 17.8831C25.8765 17.8831 24.4629 18.6611 23.4502 20.217V20.2591H23.4291L23.4502 20.217V18.2195H18.7666C18.7947 18.6681 18.8088 20.0628 18.8088 22.4038C18.8088 24.7448 18.7947 28.0319 18.7666 32.2653Z" fill="#E3E1D8"/>
</svg>
