<svg width="44" height="44" viewBox="0 0 44 44" fill="none" xmlns="http://www.w3.org/2000/svg">
<rect width="43.7142" height="43.7142" rx="10" fill="#2A2A2A"/>
<path fill-rule="evenodd" clip-rule="evenodd" d="M10.9285 21.857C10.9285 15.8306 15.8305 10.9286 21.8569 10.9286V10.9287H21.8633C27.8897 10.9287 32.7917 15.8308 32.7917 21.8572C32.7917 27.8834 27.8897 32.7857 21.8633 32.7857C19.6403 32.7857 17.5779 32.124 15.8497 30.9804L11.648 32.3229L13.01 28.2626C11.6994 26.4635 10.9285 24.247 10.9285 21.857ZM18.1114 15.9399C18.4325 15.9529 18.5932 15.9721 18.8051 16.4797C18.8736 16.6449 18.9677 16.8731 19.0707 17.1231C19.3643 17.8353 19.7311 18.725 19.7881 18.8439C19.8652 19.0046 19.9424 19.2231 19.8331 19.435C19.7374 19.6383 19.6529 19.736 19.5123 19.8985C19.5017 19.9107 19.4909 19.9232 19.4797 19.9362C19.4109 20.016 19.3434 20.0875 19.276 20.1588C19.1859 20.2541 19.0961 20.3491 19.0042 20.4631C19.0017 20.4662 18.9991 20.4692 18.9965 20.4722C18.8509 20.643 18.6927 20.8287 18.8759 21.1442C19.0621 21.459 19.7045 22.5061 20.649 23.3476C21.7699 24.3445 22.6957 24.7188 23.1132 24.8876C23.1504 24.9027 23.1836 24.9161 23.2125 24.9282C23.4758 25.0375 23.7908 25.0118 23.9835 24.8062C24.1925 24.5809 24.4436 24.2286 24.7049 23.862C24.749 23.8001 24.7935 23.7377 24.8381 23.6754C25.0564 23.367 25.3326 23.3284 25.6218 23.4375C25.9173 23.5404 27.4787 24.3113 27.7998 24.472C27.8654 24.5048 27.9264 24.5342 27.9827 24.5612C28.202 24.6666 28.3488 24.7373 28.4102 24.8446C28.4874 24.9795 28.4874 25.6156 28.2239 26.361C27.9605 27.1061 26.9132 27.7231 26.078 27.903C25.5063 28.025 24.7609 28.1215 22.2488 27.0807C19.2734 25.8486 17.279 22.9576 16.8734 22.3696C16.8411 22.3227 16.8188 22.2905 16.807 22.2749C16.8025 22.2687 16.7971 22.2614 16.7909 22.2529C16.5868 21.9739 15.5093 20.5006 15.5093 18.9788C15.5093 17.4551 16.2619 16.6902 16.599 16.3476C16.6087 16.3377 16.6181 16.3282 16.6271 16.319C16.8906 16.0492 17.3274 15.9272 17.7451 15.9272C17.8673 15.9278 17.9895 15.932 18.1114 15.9399Z" fill="#E0DED5"/>
</svg>
