<svg width="20" height="20" viewBox="0 0 20 20" fill="none" xmlns="http://www.w3.org/2000/svg">
<path d="M18.3334 5.9496V14.2829C18.3334 14.8355 18.1139 15.3654 17.7232 15.7561C17.3325 16.1468 16.8026 16.3663 16.2501 16.3663H3.75008C3.19755 16.3663 2.66764 16.1468 2.27694 15.7561C1.88624 15.3654 1.66675 14.8355 1.66675 14.2829V5.9496" stroke="#2A2A2A" stroke-width="1.4" stroke-linecap="round" stroke-linejoin="round"/>
<path d="M18.3334 5.94961C18.3334 5.39707 18.1139 4.86717 17.7232 4.47647C17.3325 4.08577 16.8026 3.86627 16.2501 3.86627H3.75008C3.19755 3.86627 2.66764 4.08577 2.27694 4.47647C1.88624 4.86717 1.66675 5.39707 1.66675 5.94961L8.89591 10.4635C9.22702 10.6704 9.60962 10.7802 10.0001 10.7802C10.3905 10.7802 10.7731 10.6704 11.1042 10.4635L18.3334 5.94961Z" stroke="#2A2A2A" stroke-width="1.4" stroke-linecap="round" stroke-linejoin="round"/>
</svg>
