<svg width="20" height="20" viewBox="0 0 20 20" fill="none" xmlns="http://www.w3.org/2000/svg">
<path d="M12.2517 17.3852L12.2608 17.3915C13.0478 17.8927 13.9823 18.1103 14.9097 18.0084C15.8372 17.9066 16.7022 17.4913 17.3617 16.8314L17.9346 16.2584C18.0616 16.1315 18.1623 15.9809 18.231 15.815C18.2998 15.6492 18.3351 15.4715 18.3351 15.292C18.3351 15.1125 18.2998 14.9347 18.231 14.7689C18.1623 14.6031 18.0616 14.4524 17.9346 14.3255L15.5181 11.9108C15.3912 11.7838 15.2405 11.6831 15.0747 11.6144C14.9089 11.5457 14.7311 11.5103 14.5516 11.5103C14.3721 11.5103 14.1944 11.5457 14.0286 11.6144C13.8627 11.6831 13.7121 11.7838 13.5852 11.9108C13.329 12.1669 12.9815 12.3108 12.6192 12.3108C12.2569 12.3108 11.9094 12.1669 11.6532 11.9108L7.78926 8.04592C7.53311 7.7897 7.38922 7.44223 7.38922 7.07993C7.38922 6.71763 7.53311 6.37017 7.78926 6.11394C7.91623 5.98706 8.01695 5.8364 8.08566 5.67057C8.15438 5.50474 8.18975 5.327 8.18975 5.1475C8.18975 4.968 8.15438 4.79026 8.08566 4.62443C8.01695 4.4586 7.91623 4.30794 7.78926 4.18105L5.3736 1.76631C5.11738 1.51017 4.76991 1.36627 4.40762 1.36627C4.04532 1.36627 3.69785 1.51017 3.44163 1.76631L2.86777 2.33926C2.20792 2.9989 1.79286 3.86391 1.69117 4.79137C1.58948 5.71884 1.80725 6.65324 2.30849 7.44018L2.31396 7.44929C4.96114 11.3659 8.33458 14.7387 12.2517 17.3852V17.3852Z" stroke="#2A2A2A" stroke-width="1.4" stroke-linecap="round" stroke-linejoin="round"/>
</svg>
